/*****************************************************************************
*  Copyright Statement:
*  --------------------
*  This software is protected by Copyright and the information contained
*  herein is confidential. The software may not be copied and the information
*  contained herein may not be used or disclosed except with the written
*  permission of MediaTek Inc. (C) 2005
*
*  BY OPENING THIS FILE, BUYER HEREBY UNEQUIVOCALLY ACKNOWLEDGES AND AGREES
*  THAT THE SOFTWARE/FIRMWARE AND ITS DOCUMENTATIONS ("MEDIATEK SOFTWARE")
*  RECEIVED FROM MEDIATEK AND/OR ITS REPRESENTATIVES ARE PROVIDED TO BUYER ON
*  AN "AS-IS" BASIS ONLY. MEDIATEK EXPRESSLY DISCLAIMS ANY AND ALL WARRANTIES,
*  EXPRESS OR IMPLIED, INCLUDING BUT NOT LIMITED TO THE IMPLIED WARRANTIES OF
*  MERCHANTABILITY, FITNESS FOR A PARTICULAR PURPOSE OR NONINFRINGEMENT.
*  NEITHER DOES MEDIATEK PROVIDE ANY WARRANTY WHATSOEVER WITH RESPECT TO THE
*  SOFTWARE OF ANY THIRD PARTY WHICH MAY BE USED BY, INCORPORATED IN, OR
*  SUPPLIED WITH THE MEDIATEK SOFTWARE, AND BUYER AGREES TO LOOK ONLY TO SUCH
*  THIRD PARTY FOR ANY WARRANTY CLAIM RELATING THERETO. MEDIATEK SHALL ALSO
*  NOT BE RESPONSIBLE FOR ANY MEDIATEK SOFTWARE RELEASES MADE TO BUYER'S
*  SPECIFICATION OR TO CONFORM TO A PARTICULAR STANDARD OR OPEN FORUM.
*
*  BUYER'S SOLE AND EXCLUSIVE REMEDY AND MEDIATEK'S ENTIRE AND CUMULATIVE
*  LIABILITY WITH RESPECT TO THE MEDIATEK SOFTWARE RELEASED HEREUNDER WILL BE,
*  AT MEDIATEK'S OPTION, TO REVISE OR REPLACE THE MEDIATEK SOFTWARE AT ISSUE,
*  OR REFUND ANY SOFTWARE LICENSE FEES OR SERVICE CHARGE PAID BY BUYER TO
*  MEDIATEK FOR SUCH MEDIATEK SOFTWARE AT ISSUE. 
*
*  THE TRANSACTION CONTEMPLATED HEREUNDER SHALL BE CONSTRUED IN ACCORDANCE
*  WITH THE LAWS OF THE STATE OF CALIFORNIA, USA, EXCLUDING ITS CONFLICT OF
*  LAWS PRINCIPLES.  ANY DISPUTES, CONTROVERSIES OR CLAIMS ARISING THEREOF AND
*  RELATED THERETO SHALL BE SETTLED BY ARBITRATION IN SAN FRANCISCO, CA, UNDER
*  THE RULES OF THE INTERNATIONAL CHAMBER OF COMMERCE (ICC).
*
*****************************************************************************/

/*******************************************************************************
 * Filename:
 * ---------
 *  MotionDJRes.c
 *
 * Project:
 * --------
 *  MAUI
 *
 * Description:
 * ------------
 *  Motion Game - DJ, Audio Resource
 *
 * Author:
 * -------
 * -------
 *
 *============================================================================
 *             HISTORY
 * Below this line, this part is controlled by PVCS VM. DO NOT MODIFY!!
 *------------------------------------------------------------------------------
 * removed!
 * removed!
 * removed!
 *
 * removed!
 * removed!
 * removed!
 *
 * removed!
 * removed!
 * removed!
 *
 * removed!
 * removed!
 * removed!
 *
 * removed!
 * removed!
 * removed!
 *
 *------------------------------------------------------------------------------
 * Upper this line, this part is controlled by PVCS VM. DO NOT MODIFY!!
 *============================================================================
 *******************************************************************************/
#include "MMI_include.h"
#ifndef _MMI_MOTION_DJ_AUD_RES_C
#define _MMI_MOTION_DJ_AUD_RES_C



#include "GameInc.h"    /* Game Include */

#ifdef IS_DJ_BASE_MOTIONGAME    /* this must after GameInc.h" */

#include "MotionDJResDef.h"

/*****************************************************************************
*
*  Audio Resource                                                 
*
*****************************************************************************/

/***************************************************************************** 
* Dummy Background 
*****************************************************************************/
__align(2)
     const U8 motion_dj_aud_dummy_bg[DJ_AUD_DUMMY_BG_LEN] = 
     {
         0x4D, 0x54, 0x68, 0x64, 0x00, 0x00, 0x00, 0x06, 0x00, 0x00, 0x00, 0x01, 0x03, 0xC0, 0x4D, 0x54,
         0x72, 0x6B, 0x00, 0x00, 0x00, 0x48, 0x00, 0xFF, 0x02, 0x16, 0x43, 0x6F, 0x70, 0x79, 0x72, 0x69,
         0x67, 0x68, 0x74, 0x20, 0x63, 0x20, 0x32, 0x30, 0x30, 0x35, 0x20, 0x62, 0x79, 0x20, 0x43, 0x43,
         0x00, 0xFF, 0x01, 0x02, 0x43, 0x43, 0x00, 0xFF, 0x58, 0x04, 0x04, 0x02, 0x18, 0x08, 0x00, 0xFF,
         0x59, 0x02, 0x00, 0x00, 0x00, 0xFF, 0x51, 0x03, 0x09, 0x27, 0xC0, 0x00, 0xC0, 0x00, 0x00, 0xB0,
         0x07, 0x00, 0x00, 0x90, 0x32, 0x01, 0x9E, 0x00, 0x32, 0x00, 0x00, 0xFF, 0x2F, 0x00
     };

/***************************************************************************** 
* Instrument - MIDI
*****************************************************************************/
__align(2)
     const U8 motion_dj_instrument_midi_0[DJ_AUD_INS_MIDI_0_LEN] = 
     {
         0x4D, 0x54, 0x68, 0x64, 0x00, 0x00, 0x00, 0x06, 0x00, 0x00, 0x00, 0x01, 0x03, 0xC0, 0x4D, 0x54, 0x72,
         0x6B, 0x00, 0x00, 0x01, 0x20, 0x00, 0xFF, 0x02, 0x16, 0x43, 0x6F, 0x70, 0x79, 0x72, 0x69, 0x67,
         0x68, 0x74, 0x20, 0x63, 0x20, 0x32, 0x30, 0x30, 0x33, 0x20, 0x62, 0x79, 0x20, 0x43, 0x43, 0x00,
         0xFF, 0x01, 0x02, 0x43, 0x43, 0x00, 0xFF, 0x58, 0x04, 0x04, 0x02, 0x18, 0x08, 0x00, 0xFF, 0x59,
         0x02, 0x00, 0x00, 0x00, 0xFF, 0x51, 0x03, 0x08, 0xE3, 0x7C, 0x00, 0xC0, 0x0A, 0x00, 0xB0, 0x07,
         0x74, 0x00, 0x90, 0x4F, 0x52, 0x00, 0xC1, 0x72, 0x00, 0xB1, 0x07, 0x6C, 0x00, 0x91, 0x30, 0x7C,
         0x81, 0x70, 0x90, 0x4F, 0x00, 0x00, 0x4D, 0x5A, 0x81, 0x70, 0x4D, 0x00, 0x00, 0x91, 0x30, 0x00,
         0x00, 0x90, 0x4C, 0x5A, 0x00, 0x91, 0x37, 0x6F, 0x81, 0x70, 0x90, 0x4C, 0x00, 0x00, 0x4F, 0x6F,
         0x81, 0x70, 0x4F, 0x00, 0x00, 0x91, 0x37, 0x00, 0x00, 0x90, 0x54, 0x7C, 0x00, 0x91, 0x3C, 0x6F,
         0x83, 0x60, 0x3C, 0x00, 0x00, 0x90, 0x54, 0x00, 0x00, 0x4F, 0x7C, 0x00, 0x91, 0x3E, 0x6F, 0x83,
         0x60, 0x3E, 0x00, 0x00, 0x90, 0x4F, 0x00, 0x00, 0x4F, 0x67, 0x00, 0x91, 0x40, 0x6F, 0x81, 0x70,
         0x90, 0x4F, 0x00, 0x00, 0x4D, 0x67, 0x81, 0x70, 0x4D, 0x00, 0x00, 0x91, 0x40, 0x00, 0x00, 0x90,
         0x4C, 0x5A, 0x00, 0x91, 0x3E, 0x67, 0x81, 0x70, 0x90, 0x4C, 0x00, 0x00, 0x4F, 0x52, 0x00, 0x4D,
         0x50, 0x81, 0x70, 0x4D, 0x00, 0x00, 0x4F, 0x00, 0x00, 0x91, 0x3E, 0x00, 0x00, 0x90, 0x54, 0x5A,
         0x00, 0x91, 0x3C, 0x6F, 0x83, 0x60, 0x3C, 0x00, 0x00, 0x90, 0x54, 0x00, 0x00, 0x4F, 0x6F, 0x00,
         0x91, 0x37, 0x6F, 0x83, 0x60, 0x37, 0x00, 0x00, 0x90, 0x4F, 0x00, 0x00, 0x54, 0x64, 0x00, 0x48,
         0x64, 0x00, 0x4C, 0x64, 0x00, 0x4F, 0x64, 0x00, 0x91, 0x43, 0x64, 0x00, 0x40, 0x64, 0x00, 0x48,
         0x64, 0x00, 0x3C, 0x64, 0x87, 0x40, 0x3C, 0x00, 0x00, 0x90, 0x54, 0x00, 0x00, 0x91, 0x43, 0x00,
         0x00, 0x90, 0x48, 0x00, 0x00, 0x4C, 0x00, 0x00, 0x4F, 0x00, 0x00, 0x91, 0x40, 0x00, 0x00, 0x48,
         0x00, 0x00, 0xFF, 0x2F, 0x00
     };

__align(2)
     const U8 motion_dj_instrument_midi_1[DJ_AUD_INS_MIDI_1_LEN] = 
     {
         0x4D, 0x54, 0x68, 0x64, 0x00, 0x00, 0x00, 0x06, 0x00, 0x00, 0x00, 0x01, 0x03, 0xC0, 0x4D, 0x54, 0x72,
         0x6B, 0x00, 0x00, 0x01, 0x20, 0x00, 0xFF, 0x02, 0x16, 0x43, 0x6F, 0x70, 0x79, 0x72, 0x69, 0x67,
         0x68, 0x74, 0x20, 0x63, 0x20, 0x32, 0x30, 0x30, 0x33, 0x20, 0x62, 0x79, 0x20, 0x43, 0x43, 0x00,
         0xFF, 0x01, 0x02, 0x43, 0x43, 0x00, 0xFF, 0x58, 0x04, 0x04, 0x02, 0x18, 0x08, 0x00, 0xFF, 0x59,
         0x02, 0x00, 0x00, 0x00, 0xFF, 0x51, 0x03, 0x08, 0xE3, 0x7C, 0x00, 0xC0, 0x0A, 0x00, 0xB0, 0x07,
         0x74, 0x00, 0x90, 0x4F, 0x52, 0x00, 0xC1, 0x72, 0x00, 0xB1, 0x07, 0x6C, 0x00, 0x91, 0x30, 0x7C,
         0x81, 0x70, 0x90, 0x4F, 0x00, 0x00, 0x4D, 0x5A, 0x81, 0x70, 0x4D, 0x00, 0x00, 0x91, 0x30, 0x00,
         0x00, 0x90, 0x4C, 0x5A, 0x00, 0x91, 0x37, 0x6F, 0x81, 0x70, 0x90, 0x4C, 0x00, 0x00, 0x4F, 0x6F,
         0x81, 0x70, 0x4F, 0x00, 0x00, 0x91, 0x37, 0x00, 0x00, 0x90, 0x54, 0x7C, 0x00, 0x91, 0x3C, 0x6F,
         0x83, 0x60, 0x3C, 0x00, 0x00, 0x90, 0x54, 0x00, 0x00, 0x4F, 0x7C, 0x00, 0x91, 0x3E, 0x6F, 0x83,
         0x60, 0x3E, 0x00, 0x00, 0x90, 0x4F, 0x00, 0x00, 0x4F, 0x67, 0x00, 0x91, 0x40, 0x6F, 0x81, 0x70,
         0x90, 0x4F, 0x00, 0x00, 0x4D, 0x67, 0x81, 0x70, 0x4D, 0x00, 0x00, 0x91, 0x40, 0x00, 0x00, 0x90,
         0x4C, 0x5A, 0x00, 0x91, 0x3E, 0x67, 0x81, 0x70, 0x90, 0x4C, 0x00, 0x00, 0x4F, 0x52, 0x00, 0x4D,
         0x50, 0x81, 0x70, 0x4D, 0x00, 0x00, 0x4F, 0x00, 0x00, 0x91, 0x3E, 0x00, 0x00, 0x90, 0x54, 0x5A,
         0x00, 0x91, 0x3C, 0x6F, 0x83, 0x60, 0x3C, 0x00, 0x00, 0x90, 0x54, 0x00, 0x00, 0x4F, 0x6F, 0x00,
         0x91, 0x37, 0x6F, 0x83, 0x60, 0x37, 0x00, 0x00, 0x90, 0x4F, 0x00, 0x00, 0x54, 0x64, 0x00, 0x48,
         0x64, 0x00, 0x4C, 0x64, 0x00, 0x4F, 0x64, 0x00, 0x91, 0x43, 0x64, 0x00, 0x40, 0x64, 0x00, 0x48,
         0x64, 0x00, 0x3C, 0x64, 0x87, 0x40, 0x3C, 0x00, 0x00, 0x90, 0x54, 0x00, 0x00, 0x91, 0x43, 0x00,
         0x00, 0x90, 0x48, 0x00, 0x00, 0x4C, 0x00, 0x00, 0x4F, 0x00, 0x00, 0x91, 0x40, 0x00, 0x00, 0x48,
         0x00, 0x00, 0xFF, 0x2F, 0x00
     };

__align(2)
     const U8 motion_dj_instrument_midi_2[DJ_AUD_INS_MIDI_2_LEN] = 
     {
         0x4D, 0x54, 0x68, 0x64, 0x00, 0x00, 0x00, 0x06, 0x00, 0x00, 0x00, 0x01, 0x03, 0xC0, 0x4D, 0x54, 0x72,
         0x6B, 0x00, 0x00, 0x01, 0x20, 0x00, 0xFF, 0x02, 0x16, 0x43, 0x6F, 0x70, 0x79, 0x72, 0x69, 0x67,
         0x68, 0x74, 0x20, 0x63, 0x20, 0x32, 0x30, 0x30, 0x33, 0x20, 0x62, 0x79, 0x20, 0x43, 0x43, 0x00,
         0xFF, 0x01, 0x02, 0x43, 0x43, 0x00, 0xFF, 0x58, 0x04, 0x04, 0x02, 0x18, 0x08, 0x00, 0xFF, 0x59,
         0x02, 0x00, 0x00, 0x00, 0xFF, 0x51, 0x03, 0x08, 0xE3, 0x7C, 0x00, 0xC0, 0x0A, 0x00, 0xB0, 0x07,
         0x74, 0x00, 0x90, 0x4F, 0x52, 0x00, 0xC1, 0x72, 0x00, 0xB1, 0x07, 0x6C, 0x00, 0x91, 0x30, 0x7C,
         0x81, 0x70, 0x90, 0x4F, 0x00, 0x00, 0x4D, 0x5A, 0x81, 0x70, 0x4D, 0x00, 0x00, 0x91, 0x30, 0x00,
         0x00, 0x90, 0x4C, 0x5A, 0x00, 0x91, 0x37, 0x6F, 0x81, 0x70, 0x90, 0x4C, 0x00, 0x00, 0x4F, 0x6F,
         0x81, 0x70, 0x4F, 0x00, 0x00, 0x91, 0x37, 0x00, 0x00, 0x90, 0x54, 0x7C, 0x00, 0x91, 0x3C, 0x6F,
         0x83, 0x60, 0x3C, 0x00, 0x00, 0x90, 0x54, 0x00, 0x00, 0x4F, 0x7C, 0x00, 0x91, 0x3E, 0x6F, 0x83,
         0x60, 0x3E, 0x00, 0x00, 0x90, 0x4F, 0x00, 0x00, 0x4F, 0x67, 0x00, 0x91, 0x40, 0x6F, 0x81, 0x70,
         0x90, 0x4F, 0x00, 0x00, 0x4D, 0x67, 0x81, 0x70, 0x4D, 0x00, 0x00, 0x91, 0x40, 0x00, 0x00, 0x90,
         0x4C, 0x5A, 0x00, 0x91, 0x3E, 0x67, 0x81, 0x70, 0x90, 0x4C, 0x00, 0x00, 0x4F, 0x52, 0x00, 0x4D,
         0x50, 0x81, 0x70, 0x4D, 0x00, 0x00, 0x4F, 0x00, 0x00, 0x91, 0x3E, 0x00, 0x00, 0x90, 0x54, 0x5A,
         0x00, 0x91, 0x3C, 0x6F, 0x83, 0x60, 0x3C, 0x00, 0x00, 0x90, 0x54, 0x00, 0x00, 0x4F, 0x6F, 0x00,
         0x91, 0x37, 0x6F, 0x83, 0x60, 0x37, 0x00, 0x00, 0x90, 0x4F, 0x00, 0x00, 0x54, 0x64, 0x00, 0x48,
         0x64, 0x00, 0x4C, 0x64, 0x00, 0x4F, 0x64, 0x00, 0x91, 0x43, 0x64, 0x00, 0x40, 0x64, 0x00, 0x48,
         0x64, 0x00, 0x3C, 0x64, 0x87, 0x40, 0x3C, 0x00, 0x00, 0x90, 0x54, 0x00, 0x00, 0x91, 0x43, 0x00,
         0x00, 0x90, 0x48, 0x00, 0x00, 0x4C, 0x00, 0x00, 0x4F, 0x00, 0x00, 0x91, 0x40, 0x00, 0x00, 0x48,
         0x00, 0x00, 0xFF, 0x2F, 0x00
     };

__align(2)
     const U8 motion_dj_instrument_midi_3[DJ_AUD_INS_MIDI_3_LEN] = 
     {
         0x4D, 0x54, 0x68, 0x64, 0x00, 0x00, 0x00, 0x06, 0x00, 0x00, 0x00, 0x01, 0x03, 0xC0, 0x4D, 0x54, 0x72,
         0x6B, 0x00, 0x00, 0x01, 0x20, 0x00, 0xFF, 0x02, 0x16, 0x43, 0x6F, 0x70, 0x79, 0x72, 0x69, 0x67,
         0x68, 0x74, 0x20, 0x63, 0x20, 0x32, 0x30, 0x30, 0x33, 0x20, 0x62, 0x79, 0x20, 0x43, 0x43, 0x00,
         0xFF, 0x01, 0x02, 0x43, 0x43, 0x00, 0xFF, 0x58, 0x04, 0x04, 0x02, 0x18, 0x08, 0x00, 0xFF, 0x59,
         0x02, 0x00, 0x00, 0x00, 0xFF, 0x51, 0x03, 0x08, 0xE3, 0x7C, 0x00, 0xC0, 0x0A, 0x00, 0xB0, 0x07,
         0x74, 0x00, 0x90, 0x4F, 0x52, 0x00, 0xC1, 0x72, 0x00, 0xB1, 0x07, 0x6C, 0x00, 0x91, 0x30, 0x7C,
         0x81, 0x70, 0x90, 0x4F, 0x00, 0x00, 0x4D, 0x5A, 0x81, 0x70, 0x4D, 0x00, 0x00, 0x91, 0x30, 0x00,
         0x00, 0x90, 0x4C, 0x5A, 0x00, 0x91, 0x37, 0x6F, 0x81, 0x70, 0x90, 0x4C, 0x00, 0x00, 0x4F, 0x6F,
         0x81, 0x70, 0x4F, 0x00, 0x00, 0x91, 0x37, 0x00, 0x00, 0x90, 0x54, 0x7C, 0x00, 0x91, 0x3C, 0x6F,
         0x83, 0x60, 0x3C, 0x00, 0x00, 0x90, 0x54, 0x00, 0x00, 0x4F, 0x7C, 0x00, 0x91, 0x3E, 0x6F, 0x83,
         0x60, 0x3E, 0x00, 0x00, 0x90, 0x4F, 0x00, 0x00, 0x4F, 0x67, 0x00, 0x91, 0x40, 0x6F, 0x81, 0x70,
         0x90, 0x4F, 0x00, 0x00, 0x4D, 0x67, 0x81, 0x70, 0x4D, 0x00, 0x00, 0x91, 0x40, 0x00, 0x00, 0x90,
         0x4C, 0x5A, 0x00, 0x91, 0x3E, 0x67, 0x81, 0x70, 0x90, 0x4C, 0x00, 0x00, 0x4F, 0x52, 0x00, 0x4D,
         0x50, 0x81, 0x70, 0x4D, 0x00, 0x00, 0x4F, 0x00, 0x00, 0x91, 0x3E, 0x00, 0x00, 0x90, 0x54, 0x5A,
         0x00, 0x91, 0x3C, 0x6F, 0x83, 0x60, 0x3C, 0x00, 0x00, 0x90, 0x54, 0x00, 0x00, 0x4F, 0x6F, 0x00,
         0x91, 0x37, 0x6F, 0x83, 0x60, 0x37, 0x00, 0x00, 0x90, 0x4F, 0x00, 0x00, 0x54, 0x64, 0x00, 0x48,
         0x64, 0x00, 0x4C, 0x64, 0x00, 0x4F, 0x64, 0x00, 0x91, 0x43, 0x64, 0x00, 0x40, 0x64, 0x00, 0x48,
         0x64, 0x00, 0x3C, 0x64, 0x87, 0x40, 0x3C, 0x00, 0x00, 0x90, 0x54, 0x00, 0x00, 0x91, 0x43, 0x00,
         0x00, 0x90, 0x48, 0x00, 0x00, 0x4C, 0x00, 0x00, 0x4F, 0x00, 0x00, 0x91, 0x40, 0x00, 0x00, 0x48,
         0x00, 0x00, 0xFF, 0x2F, 0x00
     };

__align(2)
     const U8 motion_dj_instrument_midi_4[DJ_AUD_INS_MIDI_4_LEN] = 
     {
         0x4D, 0x54, 0x68, 0x64, 0x00, 0x00, 0x00, 0x06, 0x00, 0x00, 0x00, 0x01, 0x03, 0xC0, 0x4D, 0x54, 0x72,
         0x6B, 0x00, 0x00, 0x01, 0x20, 0x00, 0xFF, 0x02, 0x16, 0x43, 0x6F, 0x70, 0x79, 0x72, 0x69, 0x67,
         0x68, 0x74, 0x20, 0x63, 0x20, 0x32, 0x30, 0x30, 0x33, 0x20, 0x62, 0x79, 0x20, 0x43, 0x43, 0x00,
         0xFF, 0x01, 0x02, 0x43, 0x43, 0x00, 0xFF, 0x58, 0x04, 0x04, 0x02, 0x18, 0x08, 0x00, 0xFF, 0x59,
         0x02, 0x00, 0x00, 0x00, 0xFF, 0x51, 0x03, 0x08, 0xE3, 0x7C, 0x00, 0xC0, 0x0A, 0x00, 0xB0, 0x07,
         0x74, 0x00, 0x90, 0x4F, 0x52, 0x00, 0xC1, 0x72, 0x00, 0xB1, 0x07, 0x6C, 0x00, 0x91, 0x30, 0x7C,
         0x81, 0x70, 0x90, 0x4F, 0x00, 0x00, 0x4D, 0x5A, 0x81, 0x70, 0x4D, 0x00, 0x00, 0x91, 0x30, 0x00,
         0x00, 0x90, 0x4C, 0x5A, 0x00, 0x91, 0x37, 0x6F, 0x81, 0x70, 0x90, 0x4C, 0x00, 0x00, 0x4F, 0x6F,
         0x81, 0x70, 0x4F, 0x00, 0x00, 0x91, 0x37, 0x00, 0x00, 0x90, 0x54, 0x7C, 0x00, 0x91, 0x3C, 0x6F,
         0x83, 0x60, 0x3C, 0x00, 0x00, 0x90, 0x54, 0x00, 0x00, 0x4F, 0x7C, 0x00, 0x91, 0x3E, 0x6F, 0x83,
         0x60, 0x3E, 0x00, 0x00, 0x90, 0x4F, 0x00, 0x00, 0x4F, 0x67, 0x00, 0x91, 0x40, 0x6F, 0x81, 0x70,
         0x90, 0x4F, 0x00, 0x00, 0x4D, 0x67, 0x81, 0x70, 0x4D, 0x00, 0x00, 0x91, 0x40, 0x00, 0x00, 0x90,
         0x4C, 0x5A, 0x00, 0x91, 0x3E, 0x67, 0x81, 0x70, 0x90, 0x4C, 0x00, 0x00, 0x4F, 0x52, 0x00, 0x4D,
         0x50, 0x81, 0x70, 0x4D, 0x00, 0x00, 0x4F, 0x00, 0x00, 0x91, 0x3E, 0x00, 0x00, 0x90, 0x54, 0x5A,
         0x00, 0x91, 0x3C, 0x6F, 0x83, 0x60, 0x3C, 0x00, 0x00, 0x90, 0x54, 0x00, 0x00, 0x4F, 0x6F, 0x00,
         0x91, 0x37, 0x6F, 0x83, 0x60, 0x37, 0x00, 0x00, 0x90, 0x4F, 0x00, 0x00, 0x54, 0x64, 0x00, 0x48,
         0x64, 0x00, 0x4C, 0x64, 0x00, 0x4F, 0x64, 0x00, 0x91, 0x43, 0x64, 0x00, 0x40, 0x64, 0x00, 0x48,
         0x64, 0x00, 0x3C, 0x64, 0x87, 0x40, 0x3C, 0x00, 0x00, 0x90, 0x54, 0x00, 0x00, 0x91, 0x43, 0x00,
         0x00, 0x90, 0x48, 0x00, 0x00, 0x4C, 0x00, 0x00, 0x4F, 0x00, 0x00, 0x91, 0x40, 0x00, 0x00, 0x48,
         0x00, 0x00, 0xFF, 0x2F, 0x00
     };

__align(2)
     const U8 motion_dj_instrument_midi_5[DJ_AUD_INS_MIDI_5_LEN] = 
     {
         0x4D, 0x54, 0x68, 0x64, 0x00, 0x00, 0x00, 0x06, 0x00, 0x00, 0x00, 0x01, 0x03, 0xC0, 0x4D, 0x54, 0x72,
         0x6B, 0x00, 0x00, 0x01, 0x20, 0x00, 0xFF, 0x02, 0x16, 0x43, 0x6F, 0x70, 0x79, 0x72, 0x69, 0x67,
         0x68, 0x74, 0x20, 0x63, 0x20, 0x32, 0x30, 0x30, 0x33, 0x20, 0x62, 0x79, 0x20, 0x43, 0x43, 0x00,
         0xFF, 0x01, 0x02, 0x43, 0x43, 0x00, 0xFF, 0x58, 0x04, 0x04, 0x02, 0x18, 0x08, 0x00, 0xFF, 0x59,
         0x02, 0x00, 0x00, 0x00, 0xFF, 0x51, 0x03, 0x08, 0xE3, 0x7C, 0x00, 0xC0, 0x0A, 0x00, 0xB0, 0x07,
         0x74, 0x00, 0x90, 0x4F, 0x52, 0x00, 0xC1, 0x72, 0x00, 0xB1, 0x07, 0x6C, 0x00, 0x91, 0x30, 0x7C,
         0x81, 0x70, 0x90, 0x4F, 0x00, 0x00, 0x4D, 0x5A, 0x81, 0x70, 0x4D, 0x00, 0x00, 0x91, 0x30, 0x00,
         0x00, 0x90, 0x4C, 0x5A, 0x00, 0x91, 0x37, 0x6F, 0x81, 0x70, 0x90, 0x4C, 0x00, 0x00, 0x4F, 0x6F,
         0x81, 0x70, 0x4F, 0x00, 0x00, 0x91, 0x37, 0x00, 0x00, 0x90, 0x54, 0x7C, 0x00, 0x91, 0x3C, 0x6F,
         0x83, 0x60, 0x3C, 0x00, 0x00, 0x90, 0x54, 0x00, 0x00, 0x4F, 0x7C, 0x00, 0x91, 0x3E, 0x6F, 0x83,
         0x60, 0x3E, 0x00, 0x00, 0x90, 0x4F, 0x00, 0x00, 0x4F, 0x67, 0x00, 0x91, 0x40, 0x6F, 0x81, 0x70,
         0x90, 0x4F, 0x00, 0x00, 0x4D, 0x67, 0x81, 0x70, 0x4D, 0x00, 0x00, 0x91, 0x40, 0x00, 0x00, 0x90,
         0x4C, 0x5A, 0x00, 0x91, 0x3E, 0x67, 0x81, 0x70, 0x90, 0x4C, 0x00, 0x00, 0x4F, 0x52, 0x00, 0x4D,
         0x50, 0x81, 0x70, 0x4D, 0x00, 0x00, 0x4F, 0x00, 0x00, 0x91, 0x3E, 0x00, 0x00, 0x90, 0x54, 0x5A,
         0x00, 0x91, 0x3C, 0x6F, 0x83, 0x60, 0x3C, 0x00, 0x00, 0x90, 0x54, 0x00, 0x00, 0x4F, 0x6F, 0x00,
         0x91, 0x37, 0x6F, 0x83, 0x60, 0x37, 0x00, 0x00, 0x90, 0x4F, 0x00, 0x00, 0x54, 0x64, 0x00, 0x48,
         0x64, 0x00, 0x4C, 0x64, 0x00, 0x4F, 0x64, 0x00, 0x91, 0x43, 0x64, 0x00, 0x40, 0x64, 0x00, 0x48,
         0x64, 0x00, 0x3C, 0x64, 0x87, 0x40, 0x3C, 0x00, 0x00, 0x90, 0x54, 0x00, 0x00, 0x91, 0x43, 0x00,
         0x00, 0x90, 0x48, 0x00, 0x00, 0x4C, 0x00, 0x00, 0x4F, 0x00, 0x00, 0x91, 0x40, 0x00, 0x00, 0x48,
         0x00, 0x00, 0xFF, 0x2F, 0x00
     };

__align(2)
     const U8 motion_dj_instrument_midi_6[DJ_AUD_INS_MIDI_6_LEN] = 
     {
         0x4D, 0x54, 0x68, 0x64, 0x00, 0x00, 0x00, 0x06, 0x00, 0x00, 0x00, 0x01, 0x03, 0xC0, 0x4D, 0x54, 0x72,
         0x6B, 0x00, 0x00, 0x01, 0x20, 0x00, 0xFF, 0x02, 0x16, 0x43, 0x6F, 0x70, 0x79, 0x72, 0x69, 0x67,
         0x68, 0x74, 0x20, 0x63, 0x20, 0x32, 0x30, 0x30, 0x33, 0x20, 0x62, 0x79, 0x20, 0x43, 0x43, 0x00,
         0xFF, 0x01, 0x02, 0x43, 0x43, 0x00, 0xFF, 0x58, 0x04, 0x04, 0x02, 0x18, 0x08, 0x00, 0xFF, 0x59,
         0x02, 0x00, 0x00, 0x00, 0xFF, 0x51, 0x03, 0x08, 0xE3, 0x7C, 0x00, 0xC0, 0x0A, 0x00, 0xB0, 0x07,
         0x74, 0x00, 0x90, 0x4F, 0x52, 0x00, 0xC1, 0x72, 0x00, 0xB1, 0x07, 0x6C, 0x00, 0x91, 0x30, 0x7C,
         0x81, 0x70, 0x90, 0x4F, 0x00, 0x00, 0x4D, 0x5A, 0x81, 0x70, 0x4D, 0x00, 0x00, 0x91, 0x30, 0x00,
         0x00, 0x90, 0x4C, 0x5A, 0x00, 0x91, 0x37, 0x6F, 0x81, 0x70, 0x90, 0x4C, 0x00, 0x00, 0x4F, 0x6F,
         0x81, 0x70, 0x4F, 0x00, 0x00, 0x91, 0x37, 0x00, 0x00, 0x90, 0x54, 0x7C, 0x00, 0x91, 0x3C, 0x6F,
         0x83, 0x60, 0x3C, 0x00, 0x00, 0x90, 0x54, 0x00, 0x00, 0x4F, 0x7C, 0x00, 0x91, 0x3E, 0x6F, 0x83,
         0x60, 0x3E, 0x00, 0x00, 0x90, 0x4F, 0x00, 0x00, 0x4F, 0x67, 0x00, 0x91, 0x40, 0x6F, 0x81, 0x70,
         0x90, 0x4F, 0x00, 0x00, 0x4D, 0x67, 0x81, 0x70, 0x4D, 0x00, 0x00, 0x91, 0x40, 0x00, 0x00, 0x90,
         0x4C, 0x5A, 0x00, 0x91, 0x3E, 0x67, 0x81, 0x70, 0x90, 0x4C, 0x00, 0x00, 0x4F, 0x52, 0x00, 0x4D,
         0x50, 0x81, 0x70, 0x4D, 0x00, 0x00, 0x4F, 0x00, 0x00, 0x91, 0x3E, 0x00, 0x00, 0x90, 0x54, 0x5A,
         0x00, 0x91, 0x3C, 0x6F, 0x83, 0x60, 0x3C, 0x00, 0x00, 0x90, 0x54, 0x00, 0x00, 0x4F, 0x6F, 0x00,
         0x91, 0x37, 0x6F, 0x83, 0x60, 0x37, 0x00, 0x00, 0x90, 0x4F, 0x00, 0x00, 0x54, 0x64, 0x00, 0x48,
         0x64, 0x00, 0x4C, 0x64, 0x00, 0x4F, 0x64, 0x00, 0x91, 0x43, 0x64, 0x00, 0x40, 0x64, 0x00, 0x48,
         0x64, 0x00, 0x3C, 0x64, 0x87, 0x40, 0x3C, 0x00, 0x00, 0x90, 0x54, 0x00, 0x00, 0x91, 0x43, 0x00,
         0x00, 0x90, 0x48, 0x00, 0x00, 0x4C, 0x00, 0x00, 0x4F, 0x00, 0x00, 0x91, 0x40, 0x00, 0x00, 0x48,
         0x00, 0x00, 0xFF, 0x2F, 0x00
     };

__align(2)
     const U8 motion_dj_instrument_midi_7[DJ_AUD_INS_MIDI_7_LEN] = 
     {
         0x4D, 0x54, 0x68, 0x64, 0x00, 0x00, 0x00, 0x06, 0x00, 0x00, 0x00, 0x01, 0x03, 0xC0, 0x4D, 0x54, 0x72,
         0x6B, 0x00, 0x00, 0x01, 0x20, 0x00, 0xFF, 0x02, 0x16, 0x43, 0x6F, 0x70, 0x79, 0x72, 0x69, 0x67,
         0x68, 0x74, 0x20, 0x63, 0x20, 0x32, 0x30, 0x30, 0x33, 0x20, 0x62, 0x79, 0x20, 0x43, 0x43, 0x00,
         0xFF, 0x01, 0x02, 0x43, 0x43, 0x00, 0xFF, 0x58, 0x04, 0x04, 0x02, 0x18, 0x08, 0x00, 0xFF, 0x59,
         0x02, 0x00, 0x00, 0x00, 0xFF, 0x51, 0x03, 0x08, 0xE3, 0x7C, 0x00, 0xC0, 0x0A, 0x00, 0xB0, 0x07,
         0x74, 0x00, 0x90, 0x4F, 0x52, 0x00, 0xC1, 0x72, 0x00, 0xB1, 0x07, 0x6C, 0x00, 0x91, 0x30, 0x7C,
         0x81, 0x70, 0x90, 0x4F, 0x00, 0x00, 0x4D, 0x5A, 0x81, 0x70, 0x4D, 0x00, 0x00, 0x91, 0x30, 0x00,
         0x00, 0x90, 0x4C, 0x5A, 0x00, 0x91, 0x37, 0x6F, 0x81, 0x70, 0x90, 0x4C, 0x00, 0x00, 0x4F, 0x6F,
         0x81, 0x70, 0x4F, 0x00, 0x00, 0x91, 0x37, 0x00, 0x00, 0x90, 0x54, 0x7C, 0x00, 0x91, 0x3C, 0x6F,
         0x83, 0x60, 0x3C, 0x00, 0x00, 0x90, 0x54, 0x00, 0x00, 0x4F, 0x7C, 0x00, 0x91, 0x3E, 0x6F, 0x83,
         0x60, 0x3E, 0x00, 0x00, 0x90, 0x4F, 0x00, 0x00, 0x4F, 0x67, 0x00, 0x91, 0x40, 0x6F, 0x81, 0x70,
         0x90, 0x4F, 0x00, 0x00, 0x4D, 0x67, 0x81, 0x70, 0x4D, 0x00, 0x00, 0x91, 0x40, 0x00, 0x00, 0x90,
         0x4C, 0x5A, 0x00, 0x91, 0x3E, 0x67, 0x81, 0x70, 0x90, 0x4C, 0x00, 0x00, 0x4F, 0x52, 0x00, 0x4D,
         0x50, 0x81, 0x70, 0x4D, 0x00, 0x00, 0x4F, 0x00, 0x00, 0x91, 0x3E, 0x00, 0x00, 0x90, 0x54, 0x5A,
         0x00, 0x91, 0x3C, 0x6F, 0x83, 0x60, 0x3C, 0x00, 0x00, 0x90, 0x54, 0x00, 0x00, 0x4F, 0x6F, 0x00,
         0x91, 0x37, 0x6F, 0x83, 0x60, 0x37, 0x00, 0x00, 0x90, 0x4F, 0x00, 0x00, 0x54, 0x64, 0x00, 0x48,
         0x64, 0x00, 0x4C, 0x64, 0x00, 0x4F, 0x64, 0x00, 0x91, 0x43, 0x64, 0x00, 0x40, 0x64, 0x00, 0x48,
         0x64, 0x00, 0x3C, 0x64, 0x87, 0x40, 0x3C, 0x00, 0x00, 0x90, 0x54, 0x00, 0x00, 0x91, 0x43, 0x00,
         0x00, 0x90, 0x48, 0x00, 0x00, 0x4C, 0x00, 0x00, 0x4F, 0x00, 0x00, 0x91, 0x40, 0x00, 0x00, 0x48,
         0x00, 0x00, 0xFF, 0x2F, 0x00
     };

__align(2)
     const U8 motion_dj_instrument_midi_8[DJ_AUD_INS_MIDI_8_LEN] = 
     {
         0x4D, 0x54, 0x68, 0x64, 0x00, 0x00, 0x00, 0x06, 0x00, 0x00, 0x00, 0x01, 0x03, 0xC0, 0x4D, 0x54, 0x72,
         0x6B, 0x00, 0x00, 0x01, 0x20, 0x00, 0xFF, 0x02, 0x16, 0x43, 0x6F, 0x70, 0x79, 0x72, 0x69, 0x67,
         0x68, 0x74, 0x20, 0x63, 0x20, 0x32, 0x30, 0x30, 0x33, 0x20, 0x62, 0x79, 0x20, 0x43, 0x43, 0x00,
         0xFF, 0x01, 0x02, 0x43, 0x43, 0x00, 0xFF, 0x58, 0x04, 0x04, 0x02, 0x18, 0x08, 0x00, 0xFF, 0x59,
         0x02, 0x00, 0x00, 0x00, 0xFF, 0x51, 0x03, 0x08, 0xE3, 0x7C, 0x00, 0xC0, 0x0A, 0x00, 0xB0, 0x07,
         0x74, 0x00, 0x90, 0x4F, 0x52, 0x00, 0xC1, 0x72, 0x00, 0xB1, 0x07, 0x6C, 0x00, 0x91, 0x30, 0x7C,
         0x81, 0x70, 0x90, 0x4F, 0x00, 0x00, 0x4D, 0x5A, 0x81, 0x70, 0x4D, 0x00, 0x00, 0x91, 0x30, 0x00,
         0x00, 0x90, 0x4C, 0x5A, 0x00, 0x91, 0x37, 0x6F, 0x81, 0x70, 0x90, 0x4C, 0x00, 0x00, 0x4F, 0x6F,
         0x81, 0x70, 0x4F, 0x00, 0x00, 0x91, 0x37, 0x00, 0x00, 0x90, 0x54, 0x7C, 0x00, 0x91, 0x3C, 0x6F,
         0x83, 0x60, 0x3C, 0x00, 0x00, 0x90, 0x54, 0x00, 0x00, 0x4F, 0x7C, 0x00, 0x91, 0x3E, 0x6F, 0x83,
         0x60, 0x3E, 0x00, 0x00, 0x90, 0x4F, 0x00, 0x00, 0x4F, 0x67, 0x00, 0x91, 0x40, 0x6F, 0x81, 0x70,
         0x90, 0x4F, 0x00, 0x00, 0x4D, 0x67, 0x81, 0x70, 0x4D, 0x00, 0x00, 0x91, 0x40, 0x00, 0x00, 0x90,
         0x4C, 0x5A, 0x00, 0x91, 0x3E, 0x67, 0x81, 0x70, 0x90, 0x4C, 0x00, 0x00, 0x4F, 0x52, 0x00, 0x4D,
         0x50, 0x81, 0x70, 0x4D, 0x00, 0x00, 0x4F, 0x00, 0x00, 0x91, 0x3E, 0x00, 0x00, 0x90, 0x54, 0x5A,
         0x00, 0x91, 0x3C, 0x6F, 0x83, 0x60, 0x3C, 0x00, 0x00, 0x90, 0x54, 0x00, 0x00, 0x4F, 0x6F, 0x00,
         0x91, 0x37, 0x6F, 0x83, 0x60, 0x37, 0x00, 0x00, 0x90, 0x4F, 0x00, 0x00, 0x54, 0x64, 0x00, 0x48,
         0x64, 0x00, 0x4C, 0x64, 0x00, 0x4F, 0x64, 0x00, 0x91, 0x43, 0x64, 0x00, 0x40, 0x64, 0x00, 0x48,
         0x64, 0x00, 0x3C, 0x64, 0x87, 0x40, 0x3C, 0x00, 0x00, 0x90, 0x54, 0x00, 0x00, 0x91, 0x43, 0x00,
         0x00, 0x90, 0x48, 0x00, 0x00, 0x4C, 0x00, 0x00, 0x4F, 0x00, 0x00, 0x91, 0x40, 0x00, 0x00, 0x48,
         0x00, 0x00, 0xFF, 0x2F, 0x00
     };

__align(2)
     const U8 motion_dj_instrument_midi_9[DJ_AUD_INS_MIDI_9_LEN] = 
     {
         0x4D, 0x54, 0x68, 0x64, 0x00, 0x00, 0x00, 0x06, 0x00, 0x00, 0x00, 0x01, 0x03, 0xC0, 0x4D, 0x54, 0x72,
         0x6B, 0x00, 0x00, 0x01, 0x20, 0x00, 0xFF, 0x02, 0x16, 0x43, 0x6F, 0x70, 0x79, 0x72, 0x69, 0x67,
         0x68, 0x74, 0x20, 0x63, 0x20, 0x32, 0x30, 0x30, 0x33, 0x20, 0x62, 0x79, 0x20, 0x43, 0x43, 0x00,
         0xFF, 0x01, 0x02, 0x43, 0x43, 0x00, 0xFF, 0x58, 0x04, 0x04, 0x02, 0x18, 0x08, 0x00, 0xFF, 0x59,
         0x02, 0x00, 0x00, 0x00, 0xFF, 0x51, 0x03, 0x08, 0xE3, 0x7C, 0x00, 0xC0, 0x0A, 0x00, 0xB0, 0x07,
         0x74, 0x00, 0x90, 0x4F, 0x52, 0x00, 0xC1, 0x72, 0x00, 0xB1, 0x07, 0x6C, 0x00, 0x91, 0x30, 0x7C,
         0x81, 0x70, 0x90, 0x4F, 0x00, 0x00, 0x4D, 0x5A, 0x81, 0x70, 0x4D, 0x00, 0x00, 0x91, 0x30, 0x00,
         0x00, 0x90, 0x4C, 0x5A, 0x00, 0x91, 0x37, 0x6F, 0x81, 0x70, 0x90, 0x4C, 0x00, 0x00, 0x4F, 0x6F,
         0x81, 0x70, 0x4F, 0x00, 0x00, 0x91, 0x37, 0x00, 0x00, 0x90, 0x54, 0x7C, 0x00, 0x91, 0x3C, 0x6F,
         0x83, 0x60, 0x3C, 0x00, 0x00, 0x90, 0x54, 0x00, 0x00, 0x4F, 0x7C, 0x00, 0x91, 0x3E, 0x6F, 0x83,
         0x60, 0x3E, 0x00, 0x00, 0x90, 0x4F, 0x00, 0x00, 0x4F, 0x67, 0x00, 0x91, 0x40, 0x6F, 0x81, 0x70,
         0x90, 0x4F, 0x00, 0x00, 0x4D, 0x67, 0x81, 0x70, 0x4D, 0x00, 0x00, 0x91, 0x40, 0x00, 0x00, 0x90,
         0x4C, 0x5A, 0x00, 0x91, 0x3E, 0x67, 0x81, 0x70, 0x90, 0x4C, 0x00, 0x00, 0x4F, 0x52, 0x00, 0x4D,
         0x50, 0x81, 0x70, 0x4D, 0x00, 0x00, 0x4F, 0x00, 0x00, 0x91, 0x3E, 0x00, 0x00, 0x90, 0x54, 0x5A,
         0x00, 0x91, 0x3C, 0x6F, 0x83, 0x60, 0x3C, 0x00, 0x00, 0x90, 0x54, 0x00, 0x00, 0x4F, 0x6F, 0x00,
         0x91, 0x37, 0x6F, 0x83, 0x60, 0x37, 0x00, 0x00, 0x90, 0x4F, 0x00, 0x00, 0x54, 0x64, 0x00, 0x48,
         0x64, 0x00, 0x4C, 0x64, 0x00, 0x4F, 0x64, 0x00, 0x91, 0x43, 0x64, 0x00, 0x40, 0x64, 0x00, 0x48,
         0x64, 0x00, 0x3C, 0x64, 0x87, 0x40, 0x3C, 0x00, 0x00, 0x90, 0x54, 0x00, 0x00, 0x91, 0x43, 0x00,
         0x00, 0x90, 0x48, 0x00, 0x00, 0x4C, 0x00, 0x00, 0x4F, 0x00, 0x00, 0x91, 0x40, 0x00, 0x00, 0x48,
         0x00, 0x00, 0xFF, 0x2F, 0x00
     };

/***************************************************************************** 
* Vocal - Wave
*****************************************************************************/
__align(2)
     const U8 motion_dj_vocal_wav_0[DJ_AUD_VOX_WAVE_0_LEN] = 
     {
         0x52, 0x49, 0x46, 0x46, 0xB6, 0x12, 0x00, 0x00, 0x57, 0x41, 0x56, 0x45, 0x66, 0x6D, 0x74, 0x20,
         0x10, 0x00, 0x00, 0x00, 0x01, 0x00, 0x01, 0x00, 0x80, 0x3E, 0x00, 0x00, 0x00, 0x7D, 0x00, 0x00,
         0x02, 0x00, 0x10, 0x00, 0x64, 0x61, 0x74, 0x61, 0x92, 0x12, 0x00, 0x00, 0xFD, 0xFF, 0xF8, 0xFF,
         0x02, 0x00, 0x06, 0x00, 0xEB, 0xFF, 0x02, 0x00, 0x21, 0x00, 0xFA, 0xFF, 0xF1, 0xFF, 0x2D, 0x00,
         0x12, 0x00, 0xB1, 0xFF, 0xD3, 0xFF, 0x5D, 0x00, 0x24, 0x00, 0x7F, 0xFF, 0xE7, 0xFF, 0x70, 0x00,
         0x0E, 0x00, 0x0D, 0x00, 0x15, 0x00, 0x9D, 0xFF, 0xCD, 0xFF, 0x52, 0x00, 0x06, 0x00, 0xB5, 0xFF,
         0xA4, 0x00, 0xB9, 0xFF, 0xA7, 0xFE, 0x1A, 0x01, 0xE0, 0x00, 0x4B, 0xFF, 0x6F, 0x00, 0x10, 0x00,
         0xB2, 0xFF, 0xD0, 0xFF, 0x04, 0xFF, 0xC3, 0xFF, 0x7A, 0x00, 0xFF, 0xFF, 0x15, 0x01, 0x71, 0x01,
         0x08, 0xFF, 0xCC, 0xFE, 0x5F, 0x00, 0xCC, 0xFF, 0x20, 0xFF, 0x03, 0x01, 0xE0, 0x00, 0x43, 0xFE,
         0x65, 0x00, 0x55, 0x00, 0x3A, 0xFE, 0xAA, 0x02, 0x65, 0x01, 0xB6, 0xFC, 0xD1, 0x00, 0xF0, 0x01,
         0x40, 0xFE, 0x2C, 0xFF, 0x90, 0xFF, 0x1D, 0x01, 0x70, 0x02, 0x89, 0xFC, 0x72, 0xFE, 0x49, 0x03,
         0x8D, 0x00, 0xD5, 0xFF, 0xAE, 0xFE, 0x0D, 0x00, 0xDE, 0x00, 0xED, 0xFE, 0xD3, 0x00, 0x3E, 0xFF,
         0x8B, 0xFF, 0x5E, 0x00, 0x2D, 0xFF, 0x68, 0x03, 0x89, 0x00, 0xFC, 0xFA, 0xBC, 0x00, 0x7C, 0x02,
         0x25, 0xFE, 0x6B, 0x00, 0xB4, 0xFF, 0x98, 0xFF, 0x8C, 0x03, 0x5C, 0xFF, 0x78, 0xFE, 0xAE, 0xFF,
         0xEE, 0xFE, 0x85, 0x01, 0x7C, 0xFE, 0x74, 0xFE, 0x29, 0x03, 0x1D, 0xFF, 0xC7, 0xFF, 0x85, 0x04,
         0x9B, 0xFB, 0xCC, 0xFD, 0xB1, 0x04, 0x1F, 0xFD, 0xAD, 0x00, 0x4D, 0x00, 0xE9, 0xFF, 0x86, 0x02,
         0x61, 0xF8, 0x3D, 0x02, 0xFC, 0x06, 0xAC, 0xFB, 0x1D, 0xFF, 0xE5, 0x00, 0x4E, 0x01, 0x92, 0xFE,
         0x55, 0xFE, 0x20, 0x03, 0xF7, 0xFC, 0x56, 0x00, 0xC1, 0x04, 0x17, 0xFD, 0xA6, 0xFE, 0x2F, 0x01,
         0x8E, 0xFD, 0x72, 0xFE, 0xBC, 0x03, 0x0F, 0x03, 0x53, 0xFD, 0x2F, 0xFF, 0x70, 0x00, 0x76, 0xFF,
         0x45, 0x01, 0x3B, 0xFE, 0xE0, 0xFF, 0xE9, 0x00, 0xEC, 0xFE, 0xC5, 0x00, 0x3C, 0xFE, 0xF8, 0x03,
         0xA7, 0x02, 0xDB, 0xF7, 0x55, 0x01, 0xA6, 0x05, 0xA6, 0xFE, 0x85, 0xFD, 0xB5, 0xFB, 0x7E, 0x00,
         0x4A, 0x06, 0x8E, 0xFF, 0x6F, 0xFD, 0xF8, 0x03, 0x8F, 0x00, 0xA7, 0xFA, 0xFC, 0xFD, 0xB3, 0x03,
         0x7C, 0x01, 0x61, 0xFB, 0xB0, 0x01, 0x13, 0x05, 0x7B, 0xFD, 0x70, 0xFC, 0xED, 0xFE, 0x63, 0x01,
         0x6A, 0x01, 0xED, 0x03, 0x93, 0x05, 0x6C, 0xFB, 0x75, 0xFA, 0xCC, 0xFC, 0x5F, 0xFA, 0x93, 0x06,
         0x4A, 0x08, 0x7E, 0xF8, 0xA2, 0xFE, 0x6B, 0x09, 0x2B, 0x00, 0x06, 0xFD, 0x43, 0xFD, 0xBF, 0xFE,
         0xA5, 0x03, 0xC9, 0xFA, 0xEB, 0xFC, 0x61, 0x09, 0xDD, 0x00, 0x77, 0xF6, 0x13, 0xFD, 0x70, 0x04,
         0x4E, 0x04, 0x39, 0x04, 0x06, 0x04, 0x8B, 0xFE, 0xD7, 0xF8, 0x83, 0xFB, 0x86, 0x03, 0x58, 0xFD,
         0x72, 0xF7, 0x58, 0x0B, 0xFA, 0x09, 0x1E, 0xF6, 0xAF, 0xFC, 0xDD, 0xFF, 0x1B, 0x03, 0x1A, 0x0A,
         0x91, 0xFA, 0xCC, 0xF9, 0xFB, 0x07, 0xF4, 0xF9, 0xE9, 0xF8, 0x7F, 0x03, 0x13, 0xFA, 0x7F, 0x07,
         0x18, 0x09, 0xAB, 0xFA, 0xDA, 0x09, 0x8F, 0xFD, 0x95, 0xEC, 0xA2, 0x0A, 0xC1, 0x03, 0x06, 0xE7,
         0x7F, 0x08, 0x59, 0x19, 0x6D, 0xFF, 0x44, 0xFC, 0x59, 0xF9, 0xE6, 0xF5, 0xE1, 0x01, 0x0E, 0x04,
         0x95, 0xFC, 0x46, 0x0C, 0xBD, 0x0C, 0x17, 0xE0, 0x59, 0x00, 0x49, 0x1F, 0xEC, 0xE2, 0xBB, 0xF4,
         0x63, 0x13, 0xC5, 0x07, 0x7E, 0x15, 0x81, 0xF2, 0x7D, 0xE3, 0xCE, 0x07, 0x2C, 0x05, 0x7C, 0xF6,
         0xDC, 0x02, 0xC7, 0x0E, 0xB0, 0x00, 0xA9, 0xFE, 0x9A, 0xFB, 0xDD, 0xEC, 0x04, 0x12, 0xE0, 0x1D,
         0x72, 0xDE, 0xDD, 0xE4, 0x23, 0x1F, 0x6C, 0x08, 0x95, 0xF1, 0xD9, 0x0E, 0xF3, 0x04, 0xB9, 0xEE,
         0x87, 0xF9, 0xDD, 0xFB, 0x30, 0x06, 0xAF, 0x0F, 0x1B, 0xF9, 0xF5, 0xFD, 0x19, 0x07, 0x99, 0xF9,
         0x51, 0x06, 0x62, 0xFD, 0x48, 0xEB, 0xA9, 0x08, 0x1F, 0x0F, 0x0B, 0xF6, 0x1F, 0x00, 0x35, 0x08,
         0x7C, 0x01, 0x37, 0xFD, 0xF0, 0xF5, 0x3C, 0x04, 0xC2, 0xF6, 0x5B, 0x02, 0xBB, 0x1F, 0xAA, 0xE6,
         0x8D, 0xF1, 0x70, 0x1E, 0x47, 0xF7, 0xCA, 0xEF, 0x4C, 0x06, 0xED, 0x0C, 0xC1, 0xF7, 0x40, 0xF4,
         0x6B, 0x13, 0xB6, 0xFC, 0x3D, 0xF1, 0x5B, 0x17, 0x3F, 0xF7, 0x9E, 0xE5, 0xE9, 0x21, 0x70, 0xFB,
         0x8F, 0xE2, 0x23, 0x1E, 0x45, 0x01, 0xC3, 0xF2, 0xB4, 0x02, 0xDE, 0xFF, 0x59, 0x0A, 0x07, 0xF0,
         0x18, 0xFA, 0x7D, 0x14, 0xAA, 0xF9, 0xD2, 0xFD, 0xAC, 0x0A, 0x70, 0xF2, 0x8E, 0xFE, 0x39, 0x0B,
         0x41, 0xF9, 0x80, 0x02, 0x7A, 0xF5, 0xBD, 0xFD, 0xDB, 0x10, 0x50, 0xF5, 0xA5, 0x07, 0xA5, 0x0A,
         0x2A, 0xFC, 0x5C, 0xF2, 0x9C, 0xE9, 0xDF, 0x29, 0x94, 0x07, 0xB1, 0xC3, 0x6B, 0x1A, 0x40, 0x32,
         0xDC, 0xD9, 0xF3, 0xD9, 0x9F, 0x27, 0xAF, 0x1F, 0xA0, 0xC9, 0xEF, 0xE8, 0x80, 0x51, 0x36, 0xFF,
         0x34, 0xA4, 0xC7, 0x31, 0x6C, 0x4D, 0x60, 0xA7, 0x22, 0xD4, 0x1B, 0x49, 0x72, 0xFE, 0x37, 0xE2,
         0xB0, 0xFB, 0xB8, 0x14, 0x97, 0x34, 0xD7, 0xD7, 0x2A, 0xD7, 0x27, 0x24, 0x3D, 0xFD, 0xF1, 0xF3,
         0x4B, 0x08, 0x89, 0x03, 0xBD, 0xE8, 0x83, 0xF4, 0x79, 0x3A, 0xCE, 0x0A, 0x39, 0xB8, 0x7E, 0x0F,
         0x57, 0x43, 0x4D, 0xD9, 0x59, 0xCA, 0x92, 0x19, 0xC5, 0x20, 0x4B, 0x03, 0xC2, 0xEA, 0xAF, 0xED,
         0x3F, 0x13, 0xEE, 0x07, 0x2B, 0xF7, 0xC6, 0x11, 0x38, 0xF1, 0xFB, 0xF0, 0xC1, 0x19, 0xD3, 0xF8,
         0xA3, 0xEA, 0xB3, 0x00, 0xBB, 0x29, 0x4B, 0xF3, 0xA2, 0xBE, 0x71, 0x47, 0x0D, 0x25, 0x54, 0xA9,
         0xCB, 0x07, 0x0A, 0x25, 0xBB, 0xEE, 0xF3, 0x01, 0x26, 0x01, 0xCE, 0xF8, 0xEB, 0x13, 0x15, 0x03,
         0x90, 0xE4, 0x89, 0xF7, 0xF6, 0x17, 0x4C, 0x09, 0xE7, 0xDD, 0x82, 0x10, 0x86, 0x27, 0x06, 0xE4,
         0x3F, 0xF2, 0x7E, 0xFA, 0xF0, 0xF0, 0x70, 0x21, 0xEE, 0x15, 0x7D, 0xDF, 0x6F, 0xEB, 0x4A, 0x1F,
         0xBD, 0x0C, 0xA9, 0xE7, 0xCE, 0x04, 0x29, 0xFE, 0xC4, 0xF9, 0x7A, 0x14, 0x1D, 0xF1, 0x5A, 0xEC,
         0xBA, 0x1C, 0x70, 0x15, 0xF2, 0xE0, 0xB1, 0xE7, 0x8D, 0x21, 0x59, 0x0A, 0x12, 0xE7, 0x48, 0x05,
         0xA3, 0x04, 0x07, 0xFF, 0xEF, 0x09, 0x2A, 0xEE, 0xD6, 0xF2, 0xAA, 0x1C, 0xDD, 0x05, 0x99, 0xEE,
         0xF1, 0x08, 0x36, 0xFC, 0x0F, 0xEF, 0x43, 0x11, 0xFC, 0x08, 0x74, 0xE9, 0x8D, 0x04, 0x3D, 0x14,
         0x7D, 0xF4, 0xD4, 0xF1, 0x9C, 0x11, 0x29, 0x05, 0x0B, 0xEC, 0x91, 0x0C, 0x7D, 0xFF, 0x16, 0xEA,
         0x8B, 0x1B, 0xF3, 0x04, 0x9B, 0xE5, 0x73, 0x19, 0xA8, 0x00, 0x38, 0xD3, 0xF5, 0x15, 0x51, 0x25,
         0xE6, 0xE9, 0x91, 0xEE, 0x69, 0x05, 0x6D, 0x0A, 0x5A, 0x01, 0xC3, 0xF6, 0x84, 0xFC, 0x56, 0x08,
         0xC3, 0x15, 0x30, 0xED, 0x67, 0xE6, 0x17, 0x15, 0xB1, 0xFE, 0xDC, 0xFF, 0x41, 0x0C, 0x5C, 0xEE,
         0x09, 0x05, 0xB7, 0x0D, 0xFE, 0xE8, 0x7B, 0x04, 0x24, 0x15, 0xD3, 0x01, 0x95, 0x00, 0x75, 0xD3,
         0x07, 0x29, 0xC8, 0x14, 0x4B, 0x86, 0xCC, 0x34, 0x61, 0x6C, 0x42, 0x03, 0xA8, 0x0F, 0xCF, 0x91,
         0x08, 0xF9, 0x13, 0x53, 0x06, 0x93, 0x85, 0x05, 0x57, 0x77, 0x7F, 0xBC, 0xED, 0xC0, 0xAB, 0x3D,
         0xB4, 0x0D, 0x31, 0x0E, 0x80, 0xB6, 0x21, 0xF8, 0xB8, 0x4D, 0x6E, 0xBA, 0x89, 0x20, 0xAF, 0x24,
         0x22, 0xA1, 0x7B, 0x55, 0x0B, 0x37, 0xBF, 0x88, 0x7F, 0x1C, 0x7E, 0x4A, 0x57, 0xAB, 0xE8, 0x27,
         0x99, 0x36, 0x40, 0xBF, 0x30, 0xFD, 0x85, 0x29, 0x66, 0x14, 0x6F, 0xE0, 0xAF, 0xBE, 0x50, 0x1C,
         0x87, 0x36, 0xD4, 0xC9, 0x39, 0xF0, 0x1B, 0x41, 0xD3, 0x0C, 0xF7, 0xEC, 0x73, 0xEE, 0xCE, 0xF5,
         0x87, 0x0A, 0x5F, 0x05, 0x8C, 0xF6, 0xB4, 0xED, 0x80, 0xF2, 0x42, 0x1D, 0xBD, 0x21, 0x59, 0xE8,
         0xF2, 0xF0, 0xC5, 0x21, 0x77, 0x15, 0xCB, 0xCB, 0xCF, 0xD9, 0xF0, 0x38, 0xCB, 0xF2, 0x1B, 0xCF,
         0x3B, 0x3C, 0xA4, 0x1D, 0x02, 0xDD, 0xC7, 0xEE, 0xC1, 0xFA, 0x7D, 0x21, 0xB9, 0x13, 0x9A, 0xD2,
         0x9C, 0x06, 0xBF, 0x03, 0xC2, 0xD6, 0xE8, 0x33, 0x6F, 0x0A, 0x97, 0xC5, 0xB5, 0x2B, 0xEA, 0x25,
         0x3C, 0xD1, 0x14, 0xE7, 0x44, 0x1B, 0x77, 0x14, 0xAF, 0xF2, 0x4B, 0xF0, 0x41, 0x03, 0x7E, 0xFB,
         0x25, 0xFA, 0xA8, 0x0E, 0xB4, 0x01, 0xDC, 0x01, 0xE5, 0x18, 0x8E, 0xF6, 0x8C, 0xE4, 0x6A, 0x03,
         0x32, 0xF3, 0x9B, 0x07, 0x1C, 0x20, 0x76, 0xDA, 0x5F, 0xFB, 0x0D, 0x43, 0x94, 0xE8, 0xA3, 0xB6,
         0xE4, 0x1F, 0xC9, 0x3E, 0x31, 0xE2, 0xEB, 0xD1, 0xBD, 0x1D, 0x30, 0x1A, 0x6B, 0xDC, 0xFD, 0x01,
         0xD1, 0x0D, 0x6F, 0xEC, 0x22, 0x1F, 0x2D, 0x03, 0xC7, 0xE0, 0xC5, 0x08, 0xF7, 0xFC, 0xAA, 0x09,
         0xC0, 0x04, 0xE2, 0xE6, 0x85, 0x0C, 0x88, 0x1E, 0x2E, 0xF5, 0xB1, 0xD2, 0x3D, 0xFF, 0x68, 0x3E,
         0xDB, 0x03, 0x7D, 0xC1, 0xFF, 0x0F, 0xE0, 0x1F, 0x8A, 0xDD, 0x04, 0xFE, 0x4E, 0x0E, 0x1B, 0x0C,
         0x91, 0x04, 0x35, 0xEB, 0xBD, 0x0A, 0x35, 0xFB, 0xCA, 0xF1, 0xD8, 0x0D, 0x17, 0xFB, 0x5E, 0x08,
         0xFF, 0x09, 0x32, 0xEA, 0xD3, 0x02, 0x11, 0x08, 0x38, 0xF8, 0x56, 0x1C, 0x42, 0xF2, 0x9A, 0xCC,
         0xA6, 0x22, 0xFB, 0x21, 0xB0, 0xE9, 0xFC, 0xF1, 0xA5, 0xF3, 0x0F, 0x17, 0x71, 0x2A, 0x86, 0xD7,
         0x1B, 0xDF, 0xD4, 0x27, 0xCA, 0xFC, 0x61, 0xEC, 0x05, 0x05, 0x83, 0xFD, 0x6D, 0x12, 0xBB, 0x03,
         0xFD, 0xE3, 0xE7, 0x0E, 0x3C, 0x11, 0xE4, 0xF5, 0x43, 0x04, 0xD1, 0xE5, 0x0A, 0x09, 0x69, 0x22,
         0x0F, 0xD0, 0x8F, 0xFA, 0x6A, 0x28, 0x11, 0xEE, 0xF0, 0xF6, 0x5F, 0x15, 0xC0, 0x03, 0xB2, 0xFC,
         0x64, 0x06, 0x31, 0xEE, 0x58, 0xE2, 0xE2, 0x12, 0x12, 0x20, 0x97, 0xE9, 0xEA, 0xF5, 0x34, 0x1E,
         0xDE, 0xF0, 0x5C, 0xF3, 0x32, 0x0F, 0xF9, 0xFF, 0xA0, 0x01, 0xDE, 0xEC, 0xD8, 0x08, 0xE5, 0x14,
         0x74, 0xDE, 0x18, 0x08, 0x70, 0x1C, 0x8E, 0xE6, 0xBC, 0xF9, 0x39, 0x18, 0x86, 0xFC, 0x11, 0xEE,
         0x3A, 0xFE, 0x3C, 0x12, 0x19, 0x03, 0xE3, 0xE3, 0x9F, 0x05, 0xCF, 0x11, 0x0F, 0x08, 0x6B, 0x0B,
         0xD0, 0xD4, 0xBF, 0xF3, 0x5A, 0x39, 0xCB, 0xE3, 0x7F, 0xCF, 0x7B, 0x3F, 0x84, 0x20, 0x49, 0xD1,
         0xE4, 0xF4, 0xDF, 0x00, 0xD3, 0x00, 0x85, 0x15, 0xA5, 0xF3, 0xFA, 0xEA, 0x0B, 0x12, 0xF7, 0x0E,
         0x95, 0x05, 0xAA, 0xF4, 0x5C, 0xE4, 0xE0, 0x16, 0xF6, 0x17, 0x53, 0xDB, 0xC3, 0xEA, 0x41, 0x1D,
         0x57, 0x17, 0xC4, 0xF4, 0xED, 0xF3, 0xF8, 0xFF, 0x56, 0x03, 0x3C, 0x05, 0x9A, 0xF6, 0x59, 0xF9,
         0x2E, 0x13, 0x2B, 0x00, 0x0B, 0xEA, 0xBF, 0x0A, 0x15, 0x09, 0x1D, 0xFA, 0x88, 0x04, 0x74, 0xEA,
         0x14, 0x04, 0x18, 0x26, 0xEA, 0xEF, 0xC1, 0xE6, 0x4A, 0x0A, 0x53, 0x05, 0x79, 0xFD, 0x27, 0x01,
         0xD7, 0x00, 0x00, 0x06, 0x1D, 0x07, 0x03, 0xF9, 0x9E, 0xF1, 0xBA, 0xF8, 0xFF, 0x07, 0x50, 0x0B,
         0xD5, 0xF9, 0xE1, 0xFB, 0x67, 0x10, 0x2A, 0x05, 0x4E, 0xEE, 0x62, 0x02, 0xB8, 0x0B, 0xF2, 0xF1,
         0x1C, 0xFC, 0x2D, 0xFB, 0x3D, 0xF4, 0x68, 0x1E, 0xD2, 0x10, 0x8A, 0xE0, 0x1C, 0xFB, 0x0B, 0x1B,
         0xF8, 0x03, 0x99, 0xE9, 0xAB, 0xEA, 0xAE, 0x0A, 0xC7, 0x1E, 0x10, 0xFF, 0x03, 0xEE, 0x72, 0xFA,
         0x31, 0x00, 0x05, 0x0A, 0x7F, 0x01, 0xA0, 0xF3, 0x46, 0x09, 0xF5, 0x0B, 0x8A, 0xF3, 0x6D, 0xF8,
         0xFE, 0xFE, 0x75, 0x06, 0x12, 0x12, 0x11, 0xF4, 0x50, 0xEA, 0xA3, 0x14, 0x7C, 0x0E, 0xAE, 0xE6,
         0x06, 0xF0, 0xDE, 0x10, 0xCD, 0x19, 0x63, 0xF9, 0xD7, 0xE5, 0xF7, 0x0A, 0xB0, 0x0E, 0x39, 0xEB,
         0x36, 0x01, 0xC6, 0x12, 0x2F, 0xF7, 0xCD, 0x01, 0x13, 0xFF, 0xC5, 0xDA, 0xE5, 0x0F, 0xA2, 0x3B,
         0x3B, 0xE8, 0x8E, 0xD2, 0xB4, 0x19, 0x12, 0x0D, 0xFC, 0xEA, 0x24, 0x07, 0x16, 0x08, 0x43, 0xFE,
         0x2A, 0x05, 0x3B, 0xED, 0x8D, 0xF5, 0x54, 0x16, 0x2B, 0x0A, 0xDE, 0xFC, 0x93, 0xF5, 0x75, 0xF0,
         0xD2, 0x0D, 0x5C, 0x15, 0x6E, 0xF3, 0x11, 0xF1, 0xC9, 0xFF, 0x9B, 0x09, 0x1B, 0x08, 0xF5, 0xF1,
         0xF5, 0xFD, 0x66, 0x0A, 0x10, 0xFD, 0x9E, 0x0B, 0x88, 0x00, 0x91, 0xDF, 0x85, 0x05, 0x40, 0x1B,
         0x94, 0xF3, 0xE7, 0x00, 0xF0, 0x10, 0xE3, 0xE7, 0xDB, 0xF4, 0x8F, 0x16, 0x97, 0xFA, 0xD2, 0xF7,
         0x1E, 0x0C, 0x71, 0xFF, 0x7C, 0x00, 0x57, 0x03, 0x0D, 0xF7, 0x5A, 0x01, 0x66, 0xFD, 0xDE, 0xF2,
         0x91, 0x10, 0x81, 0x09, 0x2E, 0xF4, 0xBD, 0x08, 0xB8, 0x01, 0x43, 0xF1, 0x09, 0xF9, 0xB8, 0x05,
         0xFD, 0x17, 0x5B, 0x01, 0x03, 0xD9, 0x30, 0x01, 0xD8, 0x23, 0xF6, 0xF6, 0xCC, 0xF0, 0xBD, 0x0C,
         0x72, 0x01, 0xC6, 0xF8, 0xBD, 0xFE, 0xE9, 0xFE, 0x86, 0x04, 0x81, 0xFE, 0xE2, 0xF8, 0xE1, 0x08,
         0xCB, 0x04, 0x86, 0xF8, 0xFE, 0x02, 0xD4, 0x02, 0xC9, 0xF8, 0x35, 0xFF, 0xE9, 0x05, 0xAE, 0x01,
         0x25, 0xF8, 0xA5, 0xFC, 0xA6, 0x0E, 0xBC, 0xFA, 0xF6, 0xED, 0x11, 0x10, 0xE7, 0x0C, 0x63, 0xF0,
         0x27, 0xFF, 0xB3, 0x0C, 0x3E, 0xFE, 0x80, 0xF9, 0x1E, 0xF3, 0xFE, 0xF0, 0xB3, 0x16, 0xAD, 0x21,
         0xFC, 0xEC, 0xB0, 0xE3, 0xF8, 0x12, 0x7F, 0x08, 0x19, 0xED, 0x96, 0x05, 0x70, 0x09, 0x98, 0xFD,
         0x98, 0xFB, 0x6E, 0xF2, 0xDE, 0x07, 0x18, 0x13, 0xEC, 0xF9, 0x9A, 0xF9, 0x03, 0xFF, 0x3F, 0xF7,
         0x50, 0x08, 0x3E, 0x0C, 0x4E, 0xF3, 0x77, 0xF7, 0x3A, 0x0D, 0xF5, 0x0B, 0x11, 0xEE, 0x73, 0xF0,
         0xC9, 0x15, 0x08, 0xFF, 0xED, 0xF1, 0xD6, 0x17, 0x25, 0x02, 0xDF, 0xE4, 0xFA, 0x0A, 0x83, 0x0B,
         0xB2, 0xEE, 0x3D, 0x06, 0xAE, 0x09, 0xCE, 0xED, 0x92, 0xFD, 0xF1, 0x13, 0xDF, 0x01, 0x1A, 0xF2,
         0x7C, 0xFF, 0x05, 0x0A, 0xDB, 0x00, 0x3A, 0xF8, 0x2D, 0x00, 0x97, 0x01, 0x56, 0xF8, 0x56, 0xFE,
         0x79, 0x0A, 0xD8, 0x05, 0xA3, 0x01, 0x26, 0xFA, 0x2F, 0xFA, 0x9E, 0x04, 0x5E, 0xF6, 0xEB, 0xFD,
         0xB8, 0x11, 0xB9, 0xFA, 0xD3, 0xF5, 0xB8, 0x09, 0x40, 0x03, 0x15, 0xFA, 0x86, 0x00, 0xD0, 0xFE,
         0xC6, 0x01, 0x21, 0x03, 0xC1, 0xFD, 0xC0, 0xFE, 0x87, 0xFC, 0x10, 0xFB, 0x28, 0xFD, 0x85, 0x0C,
         0xBC, 0x0F, 0x45, 0xF1, 0x04, 0xF6, 0xA7, 0x0C, 0x4B, 0xFE, 0x8D, 0xF5, 0x0A, 0x04, 0xDB, 0x05,
         0x2C, 0xF9, 0xEC, 0xFD, 0x37, 0x0E, 0xEE, 0xFD, 0x37, 0xEF, 0x2C, 0x06, 0x09, 0x0A, 0x20, 0xFB,
         0x71, 0x00, 0xA7, 0xFA, 0x42, 0x04, 0x92, 0x10, 0x4E, 0xEE, 0x39, 0xED, 0x03, 0x11, 0xEB, 0x07,
         0xF0, 0xF8, 0xF7, 0xFE, 0xC4, 0x02, 0xAA, 0x05, 0x66, 0x07, 0x46, 0xEF, 0xA7, 0xF1, 0x3C, 0x1F,
         0xA7, 0xFC, 0x32, 0xD2, 0x35, 0x1E, 0x36, 0x26, 0x6C, 0xE4, 0x33, 0x07, 0xAC, 0xFA, 0xDD, 0xC5,
         0xAC, 0x27, 0xF1, 0x2D, 0x51, 0xC4, 0x59, 0x00, 0x33, 0x52, 0x12, 0xFD, 0xED, 0xA6, 0xAE, 0xEE,
         0x5F, 0x50, 0x43, 0xEF, 0x92, 0xAA, 0x5E, 0x41, 0x8E, 0x59, 0x68, 0xC8, 0xDD, 0xCF, 0xF4, 0x0A,
         0x55, 0xEC, 0x25, 0x1A, 0x97, 0x1A, 0xFD, 0xD5, 0xF0, 0x14, 0xE9, 0x3D, 0x27, 0xD4, 0xCB, 0xC0,
         0x01, 0x04, 0x96, 0x12, 0xE1, 0x22, 0x65, 0x20, 0xBA, 0xDC, 0xBC, 0xE5, 0xEB, 0x1A, 0xCE, 0x03,
         0xCF, 0xD8, 0x6D, 0xEF, 0xA9, 0x24, 0xA0, 0x20, 0x44, 0xFC, 0xFC, 0xE9, 0x20, 0xED, 0x69, 0x16,
         0x94, 0x0F, 0x14, 0xD9, 0x1B, 0xF9, 0x8E, 0x1F, 0xC4, 0xFA, 0x4E, 0xFB, 0xA6, 0xFF, 0x40, 0xF8,
         0x55, 0x17, 0xD6, 0x01, 0x33, 0xFA, 0x4F, 0x0E, 0x73, 0xDD, 0x6E, 0xEA, 0x26, 0x17, 0xC1, 0xFD,
         0x4A, 0x10, 0x8D, 0x19, 0xDE, 0xE6, 0xDF, 0xF7, 0x37, 0x08, 0x4B, 0xF0, 0x66, 0x06, 0xD8, 0x05,
         0x69, 0xF8, 0xE2, 0x10, 0xC9, 0xFE, 0x32, 0xEF, 0xCF, 0x0F, 0xFB, 0xF7, 0x2E, 0xE6, 0x41, 0x1E,
         0x9E, 0x0D, 0x12, 0xD1, 0x5D, 0x0C, 0x1E, 0x36, 0x18, 0xEA, 0xE5, 0xE8, 0x9C, 0x12, 0x11, 0xE9,
         0xD7, 0xF6, 0x8A, 0x1E, 0x73, 0xED, 0x4B, 0xF0, 0x1C, 0x2B, 0x81, 0xFD, 0x0B, 0xE2, 0x78, 0x20,
         0xA0, 0xFC, 0x53, 0xCA, 0x35, 0x1E, 0x87, 0x1D, 0xA4, 0xE0, 0x04, 0x2E, 0xD1, 0xFF, 0xA5, 0x87,
         0x69, 0x29, 0x6B, 0x62, 0x21, 0xB3, 0x8C, 0xEC, 0xE4, 0x7B, 0x6D, 0xFA, 0x00, 0x80, 0xC7, 0xF9,
         0x92, 0x76, 0x7E, 0xD6, 0xAF, 0x95, 0xEF, 0x4F, 0xB2, 0x57, 0xB8, 0xAB, 0x84, 0xB6, 0x53, 0x12,
         0xBA, 0xD5, 0xCB, 0x24, 0x44, 0x42, 0x1E, 0xC3, 0xC8, 0x0C, 0xAC, 0x5B, 0x06, 0xBE, 0x38, 0xA7,
         0x1A, 0x0C, 0x3D, 0x0D, 0xE5, 0x37, 0xCB, 0x47, 0x8C, 0xB3, 0x02, 0xC2, 0x22, 0x48, 0x28, 0x11,
         0x1B, 0xB2, 0x5D, 0xE0, 0xD4, 0x34, 0x95, 0x48, 0x74, 0x0A, 0x2B, 0xBA, 0xB7, 0xD4, 0x94, 0x38,
         0xBF, 0x22, 0x78, 0xC5, 0x47, 0xE1, 0xBC, 0x2C, 0x1D, 0x13, 0x2A, 0xEE, 0xD8, 0xE6, 0xC7, 0x06,
         0xD1, 0x32, 0x8E, 0xF8, 0x24, 0xF1, 0x88, 0x19, 0xE2, 0xCD, 0xC4, 0xDE, 0x6F, 0x2B, 0x5B, 0xED,
         0x20, 0x01, 0x70, 0x48, 0x6F, 0xE7, 0x91, 0xD3, 0x93, 0x0F, 0x90, 0xF8, 0x5C, 0x08, 0x0C, 0x07,
         0xF0, 0xF4, 0x12, 0x1F, 0x1F, 0xEE, 0xAA, 0xD6, 0x08, 0x36, 0x7F, 0xFA, 0x63, 0xC2, 0x68, 0x38,
         0x4E, 0x13, 0xED, 0xB6, 0xEF, 0x16, 0x87, 0x3B, 0xB1, 0xE2, 0x3F, 0xFC, 0x54, 0x22, 0x54, 0xD3,
         0xF3, 0xE6, 0x29, 0x2C, 0x0A, 0xE2, 0xD4, 0xD4, 0x50, 0x36, 0x94, 0x2B, 0x45, 0xEF, 0x98, 0xF4,
         0x38, 0xF8, 0x4F, 0xF7, 0xDD, 0x07, 0x54, 0xEB, 0x77, 0xEF, 0x8E, 0x4C, 0xE8, 0x15, 0xB8, 0x89,
         0x68, 0xF4, 0xF9, 0x68, 0x27, 0xE9, 0x12, 0xCC, 0x64, 0x4D, 0xB4, 0x0C, 0x5C, 0x97, 0xBF, 0x0D,
         0xD1, 0x58, 0x1E, 0xC7, 0x56, 0xBC, 0x8B, 0x55, 0xA7, 0x2F, 0x68, 0xC7, 0xE0, 0x05, 0x34, 0x05,
         0x78, 0xB1, 0x02, 0x16, 0xE7, 0x58, 0x09, 0xE0, 0x57, 0xD5, 0xC6, 0x29, 0xE4, 0x07, 0x10, 0xE6,
         0x72, 0xFA, 0xCA, 0xFB, 0xE8, 0x17, 0xA8, 0x24, 0x3E, 0xC2, 0x6E, 0xC2, 0xD1, 0x49, 0xA4, 0x2F,
         0x6F, 0xCC, 0xED, 0xEC, 0x55, 0x14, 0xBF, 0x28, 0xAF, 0x1E, 0x91, 0xB6, 0x94, 0xB4, 0x16, 0x3D,
         0x41, 0x3A, 0x64, 0xDC, 0xE3, 0xE6, 0xF3, 0x23, 0x9B, 0x1D, 0x1B, 0xD9, 0x99, 0xCE, 0x46, 0x0F,
         0x9F, 0x32, 0x13, 0x0C, 0x14, 0xE5, 0xA9, 0xF9, 0x30, 0xFF, 0xED, 0xFB, 0x18, 0x0C, 0x1A, 0xF0,
         0x31, 0xEF, 0xEA, 0x2D, 0x03, 0x0D, 0xB9, 0xCB, 0x3A, 0xFB, 0x37, 0x20, 0x37, 0x0A, 0xA9, 0xEF,
         0x6A, 0xEB, 0x4B, 0x20, 0x68, 0x04, 0x90, 0xD9, 0x61, 0x1C, 0x59, 0x06, 0x36, 0xE5, 0x60, 0x15,
         0x14, 0xF4, 0x20, 0xE8, 0x46, 0x1D, 0xD3, 0x07, 0x4B, 0xE6, 0x58, 0x11, 0xC2, 0x21, 0xB0, 0xEE,
         0x18, 0xE4, 0xE4, 0x0C, 0xA8, 0xFB, 0xC5, 0xDF, 0x0D, 0x10, 0xAB, 0x1C, 0x00, 0xFB, 0xAB, 0x01,
         0xF4, 0x01, 0x13, 0xFD, 0xF3, 0x02, 0xFC, 0xEB, 0x26, 0xF1, 0x2A, 0x28, 0x7E, 0x0D, 0x72, 0xC7,
         0x4E, 0xFB, 0xA2, 0x35, 0xE6, 0xF6, 0x74, 0xE9, 0x01, 0x21, 0x62, 0xFB, 0x4F, 0xD7, 0x47, 0x13,
         0xDB, 0x11, 0x0F, 0xDC, 0xF2, 0xFC, 0x5B, 0x23, 0x13, 0x02, 0x10, 0xF7, 0x2D, 0x18, 0x61, 0xF7,
         0x43, 0xC5, 0x56, 0x0B, 0x22, 0x3A, 0xF1, 0xEA, 0xE9, 0xD7, 0xC1, 0x15, 0x6C, 0x15, 0x03, 0x04,
         0x4B, 0xFD, 0xC4, 0xF3, 0xC8, 0x06, 0x8A, 0xF9, 0x50, 0xEA, 0x40, 0xFA, 0x6C, 0x11, 0x0D, 0x1F,
         0x8B, 0xEF, 0x94, 0xF3, 0x17, 0x0A, 0x23, 0xFB, 0xF2, 0x24, 0xE5, 0xED, 0xC1, 0xBC, 0x46, 0x1F,
         0xAC, 0x20, 0x91, 0xEB, 0xB8, 0xF9, 0xFC, 0x19, 0xFC, 0x18, 0xD0, 0xD9, 0x55, 0xDE, 0xE5, 0x17,
         0x2A, 0x0E, 0xDE, 0xFF, 0x37, 0xFE, 0x48, 0xFA, 0x40, 0x08, 0x17, 0x03, 0x51, 0xF8, 0x50, 0xFD,
         0x50, 0xEF, 0x18, 0x07, 0x4D, 0x21, 0x8A, 0xEC, 0xA7, 0xEC, 0x8A, 0x1C, 0xE4, 0x04, 0xA0, 0xE3,
         0xBD, 0xF1, 0x89, 0x1E, 0x38, 0x16, 0xB7, 0xE2, 0x67, 0xF3, 0x2D, 0x14, 0x03, 0x09, 0xA8, 0xF1,
         0x95, 0xED, 0xEF, 0x0F, 0x83, 0x13, 0x5B, 0xE9, 0x1F, 0xEF, 0x7C, 0x13, 0x03, 0x12, 0x9D, 0xFF,
         0x8C, 0xF0, 0xB4, 0xFC, 0xFA, 0x0F, 0x45, 0xF7, 0x47, 0xF1, 0x4E, 0x04, 0x32, 0xFB, 0xE8, 0x07,
         0xA1, 0x0D, 0xFB, 0xF6, 0xF5, 0x09, 0xED, 0x02, 0x91, 0xEC, 0x2A, 0x02, 0x1F, 0xFB, 0xFD, 0x03,
         0x4D, 0x09, 0x78, 0xF1, 0xB9, 0x07, 0xE2, 0x0F, 0xBD, 0xFF, 0xAC, 0xF3, 0x35, 0xFA, 0x64, 0x0C,
         0x32, 0xEE, 0x13, 0xF6, 0xD2, 0x16, 0xB9, 0xFA, 0xBD, 0xFC, 0x93, 0x12, 0xB4, 0x04, 0x9F, 0xF1,
         0x54, 0xF1, 0xE9, 0x0B, 0x11, 0x0A, 0x5A, 0xEE, 0x89, 0xF8, 0xC0, 0x0A, 0xCD, 0x02, 0xED, 0x06,
         0xCC, 0xFF, 0x1E, 0xFA, 0x64, 0x0A, 0xEB, 0xEB, 0x98, 0x03, 0x67, 0x1D, 0xFE, 0xE0, 0xA6, 0xFB,
         0xE2, 0x0C, 0x5E, 0xF9, 0xAB, 0x08, 0x63, 0xF0, 0x87, 0x0D, 0xE8, 0x19, 0x9D, 0xEC, 0x27, 0xF8,
         0xCD, 0xFA, 0xDF, 0xF8, 0x0E, 0x06, 0xC4, 0x09, 0xC9, 0x05, 0x09, 0xF2, 0x84, 0xFD, 0xE3, 0x0E,
         0xA3, 0xF8, 0xAC, 0xFA, 0x8F, 0x0F, 0x54, 0xFE, 0xC9, 0xF6, 0xFB, 0x01, 0x2F, 0xFB, 0x3B, 0xFD,
         0xFB, 0xFB, 0x0D, 0xFF, 0xBF, 0x14, 0x5E, 0x03, 0x80, 0xF1, 0xBD, 0x0A, 0xAA, 0xFD, 0x02, 0xE8,
         0xD5, 0x02, 0x06, 0x14, 0x0B, 0x0F, 0xD2, 0xF1, 0x5A, 0xE8, 0x24, 0x0B, 0xB1, 0x06, 0x78, 0xF9,
         0x16, 0x06, 0xFA, 0x06, 0x40, 0x01, 0x51, 0xF8, 0xA8, 0xFB, 0xF9, 0x05, 0x92, 0xFD, 0x55, 0xF6,
         0xD0, 0xFF, 0x67, 0x09, 0x1D, 0x0B, 0xBC, 0xFF, 0xC5, 0xF4, 0xD1, 0x00, 0x0F, 0xFB, 0x7A, 0xFC,
         0xAF, 0x09, 0x06, 0xF6, 0x58, 0x0A, 0xB7, 0x0C, 0x60, 0xF1, 0x32, 0xFD, 0x68, 0xFA, 0x72, 0x15,
         0xA0, 0xFE, 0x19, 0xD8, 0x1E, 0x19, 0x52, 0x0F, 0xAE, 0xF1, 0xE3, 0x06, 0x14, 0xFB, 0xAF, 0xFF,
         0x5A, 0xFC, 0x56, 0x00, 0x4C, 0x0B, 0x39, 0xF6, 0xAE, 0xFC, 0xE1, 0x0A, 0x75, 0xFF, 0x23, 0xF4,
         0x4C, 0x01, 0x95, 0x0E, 0x94, 0xFA, 0x23, 0xFB, 0x46, 0x04, 0x92, 0xF4, 0x03, 0x02, 0x18, 0x09,
         0x01, 0xF6, 0x02, 0x07, 0x13, 0x0C, 0x69, 0xF8, 0x60, 0x05, 0x75, 0x04, 0xD6, 0xE5, 0xB3, 0xF0,
         0x5E, 0x17, 0x30, 0x09, 0x3C, 0xFA, 0x70, 0x06, 0xC2, 0xF5, 0x6B, 0x08, 0x3C, 0x12, 0x8F, 0xE7,
         0x63, 0xF3, 0x2E, 0x10, 0x40, 0x07, 0x16, 0xF6, 0x57, 0xF2, 0x76, 0x08, 0xB8, 0x09, 0xC7, 0xF3,
         0x10, 0x06, 0x7D, 0x19, 0xD5, 0xF8, 0x9B, 0xE6, 0x52, 0x00, 0x6E, 0x0F, 0x30, 0xFE, 0xBF, 0xF1,
         0x0A, 0x02, 0x8E, 0x0B, 0x76, 0x03, 0xC1, 0xF3, 0x59, 0xFB, 0x9A, 0x14, 0xBC, 0xF9, 0x55, 0xF0,
         0x8D, 0x0F, 0x3A, 0x04, 0x3A, 0xFB, 0x00, 0x02, 0x70, 0xFD, 0xA5, 0xF1, 0xA6, 0xF2, 0x44, 0x13,
         0x5C, 0x14, 0xA7, 0xF6, 0xC3, 0xF6, 0x40, 0x05, 0x95, 0x09, 0x5E, 0xFE, 0x63, 0xF0, 0x71, 0xF5,
         0x8E, 0x06, 0xA3, 0x0E, 0x2C, 0x03, 0x76, 0xF9, 0x08, 0xFE, 0xC6, 0xFB, 0x35, 0x02, 0x21, 0x0C,
         0xAA, 0xF9, 0xD9, 0xF4, 0xA5, 0x02, 0x01, 0x06, 0x82, 0xFF, 0xD9, 0xF6, 0x01, 0x0D, 0x3C, 0x0D,
         0xD4, 0xEF, 0x31, 0xFC, 0xFE, 0x00, 0xE9, 0xF6, 0x52, 0x01, 0x1A, 0x0A, 0x63, 0x06, 0xAC, 0xF8,
         0xA3, 0xFE, 0xC3, 0x05, 0x56, 0xFB, 0xA9, 0x01, 0x3B, 0x02, 0x2B, 0xFA, 0xA4, 0x02, 0x7A, 0x00,
         0xC9, 0xF6, 0x9A, 0xFF, 0x3A, 0x0D, 0xA1, 0x07, 0xB5, 0xF6, 0x24, 0xF9, 0xB9, 0x00, 0xB5, 0xF8,
         0x04, 0xFF, 0x56, 0x10, 0x39, 0x08, 0x4F, 0xFD, 0x07, 0x02, 0x67, 0xF6, 0x28, 0xEF, 0xAF, 0xFD,
         0x33, 0x04, 0x27, 0x0C, 0xE9, 0x05, 0x13, 0xF9, 0x26, 0x08, 0x22, 0x08, 0xD3, 0xF6, 0x26, 0xEF,
         0x44, 0xFF, 0x62, 0x13, 0xFC, 0xFB, 0x8F, 0xEF, 0xBE, 0x04, 0x96, 0x0B, 0xAE, 0xFD, 0x78, 0xF9,
         0xC6, 0x10, 0x4E, 0x04, 0x05, 0xE5, 0x2D, 0xFB, 0x73, 0x11, 0x19, 0x02, 0xD4, 0xF7, 0xF2, 0x05,
         0xA2, 0x07, 0xEB, 0xF7, 0xB6, 0xF9, 0x33, 0x02, 0xDF, 0x02, 0x7B, 0xFB, 0x39, 0xFC, 0x3F, 0x07,
         0x04, 0x05, 0x8C, 0x04, 0xEE, 0x01, 0xC6, 0xF9, 0x14, 0xF9, 0x22, 0xF6, 0xC1, 0x00, 0x9C, 0x0B,
         0x8A, 0x00, 0x32, 0xFE, 0x50, 0x05, 0x69, 0x03, 0x84, 0xFF, 0xA6, 0xFB, 0xB6, 0xF7, 0x75, 0xFA,
         0x8B, 0x06, 0x2E, 0x0A, 0x6A, 0xFE, 0x6E, 0xFC, 0xAA, 0xFF, 0x4F, 0xFC, 0xB4, 0x02, 0x65, 0x05,
         0x2F, 0xFA, 0xFF, 0xFB, 0xE8, 0x05, 0xBB, 0x00, 0x15, 0xFC, 0x1F, 0x03, 0x58, 0x05, 0x04, 0xFE,
         0x7C, 0xFB, 0xC8, 0xFF, 0xD2, 0xFA, 0x10, 0xFC, 0x08, 0x09, 0xF0, 0x03, 0x44, 0xFF, 0xAC, 0x04,
         0x1F, 0xFD, 0xF4, 0xF7, 0xA2, 0xFD, 0x21, 0x01, 0xC7, 0x02, 0x16, 0x09, 0x42, 0x04, 0xDD, 0xF2,
         0x51, 0xF9, 0xA4, 0x09, 0x33, 0x03, 0x57, 0xF8, 0xF7, 0xFA, 0xCC, 0x04, 0x56, 0x05, 0x61, 0xFE,
         0xA9, 0x02, 0x34, 0x06, 0x2C, 0xFD, 0x0E, 0xFB, 0xF9, 0xFD, 0x96, 0xFB, 0x2A, 0xFD, 0x6B, 0x02,
         0x25, 0x04, 0xDA, 0xFF, 0x68, 0x02, 0xDF, 0x06, 0x56, 0xFF, 0xCF, 0xFB, 0x5F, 0xF9, 0x15, 0xFE,
         0x63, 0x08, 0xEF, 0xFD, 0xE9, 0xF8, 0x66, 0x02, 0x75, 0x07, 0x1E, 0x01, 0xAE, 0xF7, 0x02, 0x05,
         0x75, 0x06, 0xAE, 0xF4, 0xFE, 0xFC, 0xFA, 0x07, 0x04, 0x00, 0x10, 0xFB, 0xE3, 0x02, 0x86, 0x04,
         0xE2, 0xFB, 0x14, 0x00, 0x6F, 0x02, 0xB4, 0xFC, 0xAD, 0xFF, 0x8C, 0xFE, 0x37, 0xFE, 0x24, 0x06,
         0xB0, 0x03, 0xAA, 0xFA, 0x05, 0xFE, 0x63, 0x05, 0x9A, 0xFC, 0xAE, 0xF6, 0x23, 0x05, 0x10, 0x0B,
         0xAA, 0xFF, 0x82, 0xF8, 0x07, 0xFD, 0xAA, 0x03, 0xA5, 0x01, 0x7B, 0xFC, 0x80, 0xFB, 0xFB, 0x01,
         0x0A, 0x0A, 0xBC, 0x04, 0xDB, 0xFB, 0x4C, 0xF8, 0x24, 0xF8, 0x72, 0x00, 0x98, 0x06, 0xF0, 0x02,
         0x51, 0x01, 0x4B, 0x03, 0x1F, 0x01, 0x5A, 0xFD, 0x19, 0xFB, 0xFE, 0xFC, 0x3D, 0x01, 0x02, 0x00,
         0xFB, 0xFF, 0x9E, 0x00, 0xB1, 0x00, 0x5C, 0x03, 0x96, 0x00, 0x7C, 0x02, 0x10, 0x04, 0xEC, 0xF9,
         0x4D, 0xF6, 0x45, 0xFC, 0x5B, 0x03, 0xAD, 0x04, 0x19, 0x06, 0xC6, 0x08, 0xC6, 0xFB, 0xAD, 0xF4,
         0xFD, 0xFE, 0xFF, 0x01, 0x66, 0xFD, 0xCC, 0xFB, 0x71, 0x04, 0x1E, 0x0D, 0x79, 0x02, 0x7A, 0xF6,
         0xA2, 0xFC, 0x5F, 0x01, 0x9E, 0xFC, 0x9A, 0xFE, 0x4B, 0x04, 0x5C, 0x04, 0xF8, 0xFF, 0xEC, 0xFA,
         0xD3, 0xFB, 0xDB, 0x02, 0x08, 0x06, 0xC4, 0xFE, 0xDE, 0xFC, 0xCD, 0x04, 0x62, 0x01, 0xE9, 0xF8,
         0x45, 0xFC, 0x33, 0x02, 0xCF, 0x02, 0x7D, 0x01, 0x8A, 0x00, 0x1D, 0xFF, 0x0E, 0xFF, 0x0E, 0x01,
         0x3B, 0x01, 0x5A, 0x00, 0xC1, 0xFF, 0x69, 0xFD, 0x9E, 0xFB, 0x25, 0xFE, 0x4F, 0x03, 0xEC, 0x05,
         0x1A, 0x01, 0x44, 0xFD, 0x1B, 0x03, 0x7F, 0x02, 0xEB, 0xF8, 0x7E, 0xFC, 0xE6, 0x04, 0xA8, 0xFE,
         0x1D, 0xF9, 0x71, 0x01, 0x6F, 0x07, 0xA0, 0x00, 0x66, 0xFB, 0x10, 0x04, 0x4E, 0x0B, 0x11, 0xFE,
         0x21, 0xF0, 0xF5, 0xF9, 0x24, 0x06, 0x4C, 0x02, 0xD1, 0xFF, 0xCF, 0x01, 0xCF, 0x00, 0x2E, 0x05,
         0x75, 0x07, 0x9B, 0xFA, 0xC5, 0xF1, 0x82, 0xFC, 0xE6, 0x04, 0x19, 0x01, 0x82, 0x01, 0xD9, 0x05,
         0xAE, 0x05, 0xC7, 0x00, 0x04, 0xFA, 0x4E, 0xFA, 0xE9, 0x00, 0xFF, 0xFF, 0x1B, 0xF9, 0x82, 0xFC,
         0xB4, 0x07, 0x09, 0x09, 0xDF, 0x01, 0x94, 0xFE, 0x9A, 0xFF, 0xCC, 0xFE, 0x58, 0xFB, 0xFC, 0xFB,
         0x9C, 0x01, 0xC3, 0x01, 0x43, 0xFD, 0x2F, 0x00, 0xA2, 0x05, 0x2C, 0x02, 0x65, 0xFB, 0x1D, 0xFD,
         0x22, 0x07, 0xF1, 0x05, 0x9D, 0xF6, 0xA0, 0xF7, 0x4F, 0x08, 0xA0, 0x05, 0x49, 0xF7, 0x5E, 0xFB,
         0xAD, 0x05, 0x70, 0x04, 0x00, 0x01, 0xC6, 0xFE, 0x00, 0xFD, 0xA8, 0x00, 0xBD, 0x01, 0xC2, 0xFD,
         0xA8, 0xFD, 0x2F, 0xFF, 0x9C, 0x00, 0xCB, 0x04, 0xE6, 0x03, 0xA3, 0xFD, 0xF6, 0xFB, 0xE2, 0xFD,
         0x1F, 0x00, 0x03, 0x02, 0x6D, 0x00, 0x3E, 0x00, 0x9D, 0x02, 0x44, 0xFF, 0x7A, 0xFC, 0x23, 0x01,
         0xBE, 0x00, 0xAA, 0xFC, 0x09, 0x01, 0xD1, 0x02, 0xD0, 0xFD, 0x51, 0x01, 0x0B, 0x06, 0xCD, 0xFE,
         0x1A, 0xFA, 0x09, 0xFE, 0xCC, 0xFD, 0xDE, 0xFE, 0xD3, 0x06, 0x9B, 0x05, 0xD1, 0xFB, 0x99, 0xFC,
         0x7D, 0x03, 0x95, 0x01, 0x8D, 0xFB, 0x79, 0xFB, 0x6C, 0x01, 0x91, 0x06, 0x38, 0x02, 0x65, 0xF8,
         0x52, 0xF9, 0x4C, 0x06, 0x3F, 0x0B, 0x53, 0x00, 0x9F, 0xF7, 0xD3, 0xFD, 0x5D, 0x04, 0xB4, 0xFE,
         0x4F, 0xF9, 0x8B, 0xFC, 0x4F, 0x01, 0x07, 0x08, 0x9B, 0x0A, 0x2A, 0xFE, 0x29, 0xF6, 0xD5, 0xFF,
         0x51, 0x01, 0x2D, 0xF9, 0xEA, 0x00, 0xAF, 0x09, 0x21, 0xFF, 0x39, 0xF8, 0x1A, 0x01, 0x43, 0x06,
         0x98, 0x00, 0x0A, 0xFB, 0x03, 0xFF, 0xFC, 0x05, 0xBD, 0x00, 0xFC, 0xF7, 0x9E, 0xFC, 0x5A, 0x03,
         0x2E, 0x04, 0xF7, 0x05, 0xC3, 0x00, 0x23, 0xF8, 0x19, 0xFC, 0xA0, 0xFF, 0x86, 0xFC, 0xB0, 0x04,
         0x8B, 0x0B, 0x68, 0x01, 0x38, 0xFB, 0x42, 0xFD, 0x99, 0xFA, 0x17, 0xFC, 0xE4, 0x01, 0xA7, 0x02,
         0xF1, 0x03, 0x05, 0x01, 0x8C, 0xFB, 0x0E, 0x04, 0xF1, 0x08, 0x97, 0xFA, 0xF0, 0xF6, 0x64, 0x00,
         0x48, 0xFE, 0x2C, 0xFF, 0x90, 0x06, 0x09, 0xFF, 0x41, 0xFC, 0xF4, 0x08, 0xD9, 0x05, 0x11, 0xF8,
         0x3E, 0xF9, 0x49, 0xFF, 0x2D, 0x02, 0xEF, 0x02, 0x73, 0xFC, 0x2D, 0xFE, 0x46, 0x0A, 0x94, 0x03,
         0xBB, 0xF4, 0x27, 0xFC, 0xF4, 0x05, 0xDC, 0xFF, 0xF3, 0xFC, 0x9B, 0x02, 0xBC, 0x05, 0xBD, 0x01,
         0x59, 0xF9, 0xED, 0xF9, 0xC8, 0x03, 0xA0, 0x03, 0x2D, 0xFD, 0x59, 0xFF, 0x6A, 0x00, 0xC7, 0xFD,
         0x85, 0x03, 0x1A, 0x07, 0x0E, 0xFE, 0xCC, 0xFA, 0x11, 0x02, 0x1D, 0x00, 0x39, 0xF8, 0x00, 0xFC,
         0xF5, 0x05, 0x41, 0x06, 0x6D, 0x00, 0x82, 0x01, 0x78, 0x01, 0x30, 0xFB, 0x8A, 0xFC, 0xB1, 0x01,
         0x72, 0xFF, 0xFB, 0xFC, 0xDA, 0xFE, 0xE6, 0x02, 0xB3, 0x06, 0x42, 0x01, 0xFF, 0xF9, 0x62, 0x01,
         0xFE, 0x05, 0xEE, 0xF9, 0x6B, 0xF7, 0xC7, 0x02, 0x09, 0x04, 0x11, 0x00, 0x1E, 0x01, 0xF5, 0xFF,
         0xC9, 0x00, 0x99, 0x02, 0x89, 0xFD, 0x8E, 0xFF, 0x81, 0x05, 0x31, 0xFD, 0x35, 0xF7, 0xF5, 0xFC,
         0x14, 0xFE, 0x3D, 0x02, 0x3F, 0x0C, 0x0C, 0x07, 0xB1, 0xFC, 0xA7, 0xFE, 0xAB, 0xFC, 0x1E, 0xF8,
         0x54, 0xFD, 0x6C, 0xFF, 0x5F, 0x01, 0xC4, 0x07, 0x6C, 0x03, 0x87, 0xFD, 0x47, 0x01, 0x40, 0x00,
         0xB8, 0xFA, 0x70, 0xFF, 0x9A, 0x04, 0x8A, 0xFD, 0x8C, 0xF9, 0x2E, 0xFE, 0x41, 0x02, 0x9F, 0x07,
         0xD5, 0x08, 0xAC, 0xFF, 0xFC, 0xF8, 0x5D, 0xFB, 0x2F, 0xFE, 0xFF, 0xFD, 0x6C, 0xFD, 0xF4, 0x00,
         0xDC, 0x07, 0x8E, 0x05, 0xDB, 0xFA, 0x1D, 0xFA, 0xDD, 0x05, 0xA7, 0x07, 0xB9, 0xFA, 0xB9, 0xF9,
         0x81, 0x00, 0x77, 0xFD, 0x12, 0xFF, 0xE1, 0x03, 0xF9, 0xFE, 0xB0, 0x00, 0x99, 0x08, 0x39, 0x00,
         0x16, 0xF6, 0xAD, 0xFF, 0x48, 0x05, 0x69, 0xFD, 0xD8, 0xFD, 0x6F, 0x01, 0x50, 0x00, 0xFA, 0x00,
         0xE2, 0xFE, 0x5D, 0xFE, 0x29, 0x04, 0xC9, 0x02, 0x7A, 0xFE, 0xFD, 0x00, 0x2D, 0xFB, 0xB7, 0xF4,
         0xB4, 0x02, 0x8A, 0x0D, 0xBF, 0x02, 0x6D, 0xFB, 0x55, 0x00, 0xB8, 0x00, 0x7D, 0xFB, 0xF3, 0xFA,
         0x9B, 0x01, 0x43, 0x06, 0x75, 0x02, 0x1A, 0xFC, 0xBB, 0xFB, 0xF9, 0x01, 0xA5, 0x05, 0x9B, 0xFF,
         0xC0, 0xFA, 0x4A, 0xFF, 0x35, 0x02, 0x6C, 0x03, 0xDF, 0xFE, 0x74, 0xF9, 0xA3, 0x02, 0x9D, 0x03,
         0xDB, 0xFD, 0x85, 0x03, 0x17, 0x00, 0x6A, 0xFA, 0x87, 0x01, 0xB1, 0x00, 0xB8, 0xFD, 0xD5, 0x02,
         0x86, 0xFD, 0xCA, 0xFD, 0x4B, 0x08, 0xB3, 0x02, 0xA3, 0xFB, 0x90, 0xFD, 0xC0, 0xFC, 0x80, 0x00,
         0x50, 0x04, 0x2F, 0xFC, 0x06, 0xFC, 0xC6, 0x07, 0xCD, 0x05, 0xD7, 0xFA, 0xAF, 0xFB, 0x39, 0x02,
         0x72, 0x01, 0x34, 0xFC, 0x63, 0xFD, 0x71, 0x04, 0x18, 0x04, 0x24, 0xFF, 0x6E, 0xFD, 0xE4, 0xFC,
         0x3C, 0x01, 0x61, 0x04, 0xAF, 0xFD, 0xBD, 0xFA, 0x26, 0x03, 0xC9, 0x06, 0x9D, 0xFF, 0xBE, 0xFB,
         0x8C, 0xFC, 0x68, 0xFE, 0x0D, 0x04, 0x19, 0x02, 0x05, 0xFC, 0xD8, 0xFF, 0x64, 0x03, 0x2D, 0x02,
         0xFE, 0x01, 0x8E, 0xFE, 0x15, 0xFB, 0x97, 0xFD, 0x30, 0xFF, 0x73, 0x00, 0x00, 0x04, 0x71, 0x03,
         0x4C, 0xFF, 0x39, 0xFC, 0x5C, 0xFF, 0x3C, 0x03, 0x7B, 0x01, 0x9D, 0xFE, 0x08, 0xFB, 0x9C, 0xFF,
         0x0E, 0x06, 0x25, 0xFF, 0x6F, 0xFB, 0xCF, 0xFF, 0xEB, 0x02, 0x23, 0x04, 0x56, 0xFF, 0x1C, 0xFC,
         0xA4, 0xFF, 0xC8, 0xFE, 0xFC, 0xFF, 0xAF, 0x06, 0xC2, 0xFF, 0x30, 0xF8, 0x08, 0xFF, 0x3C, 0x02,
         0x1B, 0x00, 0x6C, 0x02, 0xED, 0x04, 0x70, 0x01, 0x21, 0xFC, 0x3B, 0xFC, 0xC9, 0xFC, 0x53, 0xFB,
         0xDB, 0x01, 0x71, 0x09, 0x4B, 0x04, 0xF0, 0xFE, 0x83, 0xFE, 0xB4, 0xFA, 0x8F, 0xFB, 0x3B, 0x02,
         0x9E, 0x03, 0x85, 0x01, 0x6C, 0xFE, 0x30, 0xFC, 0x0E, 0x01, 0x62, 0x03, 0x32, 0x01, 0x2B, 0xFF,
         0x1E, 0xFE, 0x04, 0x04, 0xE0, 0x01, 0xD0, 0xF7, 0x76, 0xFB, 0x28, 0x03, 0x19, 0x03, 0xA6, 0x00,
         0x9A, 0x01, 0xE0, 0x03, 0xF4, 0x00, 0x90, 0xFB, 0x15, 0xFA, 0x5B, 0xFE, 0x05, 0x04, 0xB6, 0x02,
         0x72, 0xFE, 0x44, 0x02, 0xD4, 0xFF, 0x8D, 0xFB, 0x5A, 0x05, 0x12, 0x01, 0x77, 0xFB, 0xA3, 0x05,
         0x09, 0xFC, 0x18, 0xF4, 0x75, 0x06, 0x74, 0x09, 0x26, 0xFC, 0xA5, 0xFF, 0x2A, 0x04, 0x74, 0xFD,
         0xDF, 0xFB, 0x8D, 0xFE, 0xC4, 0x01, 0xC3, 0x05, 0xD8, 0x01, 0xAF, 0xF7, 0xE1, 0xFA, 0x98, 0x06,
         0xAB, 0x02, 0x01, 0xFB, 0xA8, 0x02, 0x59, 0x06, 0x1A, 0xFE, 0xF9, 0xFB, 0x1C, 0xFC, 0x8D, 0xFF,
         0x3B, 0x06, 0xB4, 0x00, 0x57, 0xFD, 0xDB, 0x00, 0xCC, 0xFD, 0xA8, 0xFF, 0xBA, 0x03, 0xBC, 0xFD,
         0x4C, 0xFE, 0xBE, 0x03, 0x08, 0xFF, 0x8E, 0xFD, 0x5F, 0x00, 0x7B, 0x01, 0xD8, 0x01, 0x07, 0xFF,
         0x4F, 0xFF, 0x46, 0xFF, 0x38, 0xFE, 0x87, 0x00, 0xB8, 0x00, 0x6E, 0x01, 0x76, 0x02, 0xA7, 0xFE,
         0x8B, 0xFD, 0x2F, 0x00, 0xDE, 0xFE, 0xFF, 0xFE, 0xA4, 0x02, 0xBE, 0x01, 0x5F, 0xFF, 0x95, 0xFF,
         0xD6, 0xFF, 0x7D, 0xFF, 0x84, 0xFF, 0xB8, 0xFF, 0x31, 0x00, 0x15, 0x01, 0xE7, 0xFF, 0x91, 0xFE,
         0xCC, 0x00, 0x57, 0x01, 0xAA, 0xFE, 0x8B, 0xFF, 0x61, 0x01, 0x93, 0xFF, 0x3F, 0xFF, 0x4D, 0x00,
         0xDE, 0xFF, 0x3B, 0x00, 0x8C, 0x00, 0xAB, 0xFF, 0xC7, 0xFF, 0x13, 0x00, 0x00, 0x00
     };

__align(2)
     const U8 motion_dj_vocal_wav_1[DJ_AUD_VOX_WAVE_1_LEN] = 
     {
         0x52, 0x49, 0x46, 0x46, 0xB6, 0x12, 0x00, 0x00, 0x57, 0x41, 0x56, 0x45, 0x66, 0x6D, 0x74, 0x20,
         0x10, 0x00, 0x00, 0x00, 0x01, 0x00, 0x01, 0x00, 0x80, 0x3E, 0x00, 0x00, 0x00, 0x7D, 0x00, 0x00,
         0x02, 0x00, 0x10, 0x00, 0x64, 0x61, 0x74, 0x61, 0x92, 0x12, 0x00, 0x00, 0xFD, 0xFF, 0xF8, 0xFF,
         0x02, 0x00, 0x06, 0x00, 0xEB, 0xFF, 0x02, 0x00, 0x21, 0x00, 0xFA, 0xFF, 0xF1, 0xFF, 0x2D, 0x00,
         0x12, 0x00, 0xB1, 0xFF, 0xD3, 0xFF, 0x5D, 0x00, 0x24, 0x00, 0x7F, 0xFF, 0xE7, 0xFF, 0x70, 0x00,
         0x0E, 0x00, 0x0D, 0x00, 0x15, 0x00, 0x9D, 0xFF, 0xCD, 0xFF, 0x52, 0x00, 0x06, 0x00, 0xB5, 0xFF,
         0xA4, 0x00, 0xB9, 0xFF, 0xA7, 0xFE, 0x1A, 0x01, 0xE0, 0x00, 0x4B, 0xFF, 0x6F, 0x00, 0x10, 0x00,
         0xB2, 0xFF, 0xD0, 0xFF, 0x04, 0xFF, 0xC3, 0xFF, 0x7A, 0x00, 0xFF, 0xFF, 0x15, 0x01, 0x71, 0x01,
         0x08, 0xFF, 0xCC, 0xFE, 0x5F, 0x00, 0xCC, 0xFF, 0x20, 0xFF, 0x03, 0x01, 0xE0, 0x00, 0x43, 0xFE,
         0x65, 0x00, 0x55, 0x00, 0x3A, 0xFE, 0xAA, 0x02, 0x65, 0x01, 0xB6, 0xFC, 0xD1, 0x00, 0xF0, 0x01,
         0x40, 0xFE, 0x2C, 0xFF, 0x90, 0xFF, 0x1D, 0x01, 0x70, 0x02, 0x89, 0xFC, 0x72, 0xFE, 0x49, 0x03,
         0x8D, 0x00, 0xD5, 0xFF, 0xAE, 0xFE, 0x0D, 0x00, 0xDE, 0x00, 0xED, 0xFE, 0xD3, 0x00, 0x3E, 0xFF,
         0x8B, 0xFF, 0x5E, 0x00, 0x2D, 0xFF, 0x68, 0x03, 0x89, 0x00, 0xFC, 0xFA, 0xBC, 0x00, 0x7C, 0x02,
         0x25, 0xFE, 0x6B, 0x00, 0xB4, 0xFF, 0x98, 0xFF, 0x8C, 0x03, 0x5C, 0xFF, 0x78, 0xFE, 0xAE, 0xFF,
         0xEE, 0xFE, 0x85, 0x01, 0x7C, 0xFE, 0x74, 0xFE, 0x29, 0x03, 0x1D, 0xFF, 0xC7, 0xFF, 0x85, 0x04,
         0x9B, 0xFB, 0xCC, 0xFD, 0xB1, 0x04, 0x1F, 0xFD, 0xAD, 0x00, 0x4D, 0x00, 0xE9, 0xFF, 0x86, 0x02,
         0x61, 0xF8, 0x3D, 0x02, 0xFC, 0x06, 0xAC, 0xFB, 0x1D, 0xFF, 0xE5, 0x00, 0x4E, 0x01, 0x92, 0xFE,
         0x55, 0xFE, 0x20, 0x03, 0xF7, 0xFC, 0x56, 0x00, 0xC1, 0x04, 0x17, 0xFD, 0xA6, 0xFE, 0x2F, 0x01,
         0x8E, 0xFD, 0x72, 0xFE, 0xBC, 0x03, 0x0F, 0x03, 0x53, 0xFD, 0x2F, 0xFF, 0x70, 0x00, 0x76, 0xFF,
         0x45, 0x01, 0x3B, 0xFE, 0xE0, 0xFF, 0xE9, 0x00, 0xEC, 0xFE, 0xC5, 0x00, 0x3C, 0xFE, 0xF8, 0x03,
         0xA7, 0x02, 0xDB, 0xF7, 0x55, 0x01, 0xA6, 0x05, 0xA6, 0xFE, 0x85, 0xFD, 0xB5, 0xFB, 0x7E, 0x00,
         0x4A, 0x06, 0x8E, 0xFF, 0x6F, 0xFD, 0xF8, 0x03, 0x8F, 0x00, 0xA7, 0xFA, 0xFC, 0xFD, 0xB3, 0x03,
         0x7C, 0x01, 0x61, 0xFB, 0xB0, 0x01, 0x13, 0x05, 0x7B, 0xFD, 0x70, 0xFC, 0xED, 0xFE, 0x63, 0x01,
         0x6A, 0x01, 0xED, 0x03, 0x93, 0x05, 0x6C, 0xFB, 0x75, 0xFA, 0xCC, 0xFC, 0x5F, 0xFA, 0x93, 0x06,
         0x4A, 0x08, 0x7E, 0xF8, 0xA2, 0xFE, 0x6B, 0x09, 0x2B, 0x00, 0x06, 0xFD, 0x43, 0xFD, 0xBF, 0xFE,
         0xA5, 0x03, 0xC9, 0xFA, 0xEB, 0xFC, 0x61, 0x09, 0xDD, 0x00, 0x77, 0xF6, 0x13, 0xFD, 0x70, 0x04,
         0x4E, 0x04, 0x39, 0x04, 0x06, 0x04, 0x8B, 0xFE, 0xD7, 0xF8, 0x83, 0xFB, 0x86, 0x03, 0x58, 0xFD,
         0x72, 0xF7, 0x58, 0x0B, 0xFA, 0x09, 0x1E, 0xF6, 0xAF, 0xFC, 0xDD, 0xFF, 0x1B, 0x03, 0x1A, 0x0A,
         0x91, 0xFA, 0xCC, 0xF9, 0xFB, 0x07, 0xF4, 0xF9, 0xE9, 0xF8, 0x7F, 0x03, 0x13, 0xFA, 0x7F, 0x07,
         0x18, 0x09, 0xAB, 0xFA, 0xDA, 0x09, 0x8F, 0xFD, 0x95, 0xEC, 0xA2, 0x0A, 0xC1, 0x03, 0x06, 0xE7,
         0x7F, 0x08, 0x59, 0x19, 0x6D, 0xFF, 0x44, 0xFC, 0x59, 0xF9, 0xE6, 0xF5, 0xE1, 0x01, 0x0E, 0x04,
         0x95, 0xFC, 0x46, 0x0C, 0xBD, 0x0C, 0x17, 0xE0, 0x59, 0x00, 0x49, 0x1F, 0xEC, 0xE2, 0xBB, 0xF4,
         0x63, 0x13, 0xC5, 0x07, 0x7E, 0x15, 0x81, 0xF2, 0x7D, 0xE3, 0xCE, 0x07, 0x2C, 0x05, 0x7C, 0xF6,
         0xDC, 0x02, 0xC7, 0x0E, 0xB0, 0x00, 0xA9, 0xFE, 0x9A, 0xFB, 0xDD, 0xEC, 0x04, 0x12, 0xE0, 0x1D,
         0x72, 0xDE, 0xDD, 0xE4, 0x23, 0x1F, 0x6C, 0x08, 0x95, 0xF1, 0xD9, 0x0E, 0xF3, 0x04, 0xB9, 0xEE,
         0x87, 0xF9, 0xDD, 0xFB, 0x30, 0x06, 0xAF, 0x0F, 0x1B, 0xF9, 0xF5, 0xFD, 0x19, 0x07, 0x99, 0xF9,
         0x51, 0x06, 0x62, 0xFD, 0x48, 0xEB, 0xA9, 0x08, 0x1F, 0x0F, 0x0B, 0xF6, 0x1F, 0x00, 0x35, 0x08,
         0x7C, 0x01, 0x37, 0xFD, 0xF0, 0xF5, 0x3C, 0x04, 0xC2, 0xF6, 0x5B, 0x02, 0xBB, 0x1F, 0xAA, 0xE6,
         0x8D, 0xF1, 0x70, 0x1E, 0x47, 0xF7, 0xCA, 0xEF, 0x4C, 0x06, 0xED, 0x0C, 0xC1, 0xF7, 0x40, 0xF4,
         0x6B, 0x13, 0xB6, 0xFC, 0x3D, 0xF1, 0x5B, 0x17, 0x3F, 0xF7, 0x9E, 0xE5, 0xE9, 0x21, 0x70, 0xFB,
         0x8F, 0xE2, 0x23, 0x1E, 0x45, 0x01, 0xC3, 0xF2, 0xB4, 0x02, 0xDE, 0xFF, 0x59, 0x0A, 0x07, 0xF0,
         0x18, 0xFA, 0x7D, 0x14, 0xAA, 0xF9, 0xD2, 0xFD, 0xAC, 0x0A, 0x70, 0xF2, 0x8E, 0xFE, 0x39, 0x0B,
         0x41, 0xF9, 0x80, 0x02, 0x7A, 0xF5, 0xBD, 0xFD, 0xDB, 0x10, 0x50, 0xF5, 0xA5, 0x07, 0xA5, 0x0A,
         0x2A, 0xFC, 0x5C, 0xF2, 0x9C, 0xE9, 0xDF, 0x29, 0x94, 0x07, 0xB1, 0xC3, 0x6B, 0x1A, 0x40, 0x32,
         0xDC, 0xD9, 0xF3, 0xD9, 0x9F, 0x27, 0xAF, 0x1F, 0xA0, 0xC9, 0xEF, 0xE8, 0x80, 0x51, 0x36, 0xFF,
         0x34, 0xA4, 0xC7, 0x31, 0x6C, 0x4D, 0x60, 0xA7, 0x22, 0xD4, 0x1B, 0x49, 0x72, 0xFE, 0x37, 0xE2,
         0xB0, 0xFB, 0xB8, 0x14, 0x97, 0x34, 0xD7, 0xD7, 0x2A, 0xD7, 0x27, 0x24, 0x3D, 0xFD, 0xF1, 0xF3,
         0x4B, 0x08, 0x89, 0x03, 0xBD, 0xE8, 0x83, 0xF4, 0x79, 0x3A, 0xCE, 0x0A, 0x39, 0xB8, 0x7E, 0x0F,
         0x57, 0x43, 0x4D, 0xD9, 0x59, 0xCA, 0x92, 0x19, 0xC5, 0x20, 0x4B, 0x03, 0xC2, 0xEA, 0xAF, 0xED,
         0x3F, 0x13, 0xEE, 0x07, 0x2B, 0xF7, 0xC6, 0x11, 0x38, 0xF1, 0xFB, 0xF0, 0xC1, 0x19, 0xD3, 0xF8,
         0xA3, 0xEA, 0xB3, 0x00, 0xBB, 0x29, 0x4B, 0xF3, 0xA2, 0xBE, 0x71, 0x47, 0x0D, 0x25, 0x54, 0xA9,
         0xCB, 0x07, 0x0A, 0x25, 0xBB, 0xEE, 0xF3, 0x01, 0x26, 0x01, 0xCE, 0xF8, 0xEB, 0x13, 0x15, 0x03,
         0x90, 0xE4, 0x89, 0xF7, 0xF6, 0x17, 0x4C, 0x09, 0xE7, 0xDD, 0x82, 0x10, 0x86, 0x27, 0x06, 0xE4,
         0x3F, 0xF2, 0x7E, 0xFA, 0xF0, 0xF0, 0x70, 0x21, 0xEE, 0x15, 0x7D, 0xDF, 0x6F, 0xEB, 0x4A, 0x1F,
         0xBD, 0x0C, 0xA9, 0xE7, 0xCE, 0x04, 0x29, 0xFE, 0xC4, 0xF9, 0x7A, 0x14, 0x1D, 0xF1, 0x5A, 0xEC,
         0xBA, 0x1C, 0x70, 0x15, 0xF2, 0xE0, 0xB1, 0xE7, 0x8D, 0x21, 0x59, 0x0A, 0x12, 0xE7, 0x48, 0x05,
         0xA3, 0x04, 0x07, 0xFF, 0xEF, 0x09, 0x2A, 0xEE, 0xD6, 0xF2, 0xAA, 0x1C, 0xDD, 0x05, 0x99, 0xEE,
         0xF1, 0x08, 0x36, 0xFC, 0x0F, 0xEF, 0x43, 0x11, 0xFC, 0x08, 0x74, 0xE9, 0x8D, 0x04, 0x3D, 0x14,
         0x7D, 0xF4, 0xD4, 0xF1, 0x9C, 0x11, 0x29, 0x05, 0x0B, 0xEC, 0x91, 0x0C, 0x7D, 0xFF, 0x16, 0xEA,
         0x8B, 0x1B, 0xF3, 0x04, 0x9B, 0xE5, 0x73, 0x19, 0xA8, 0x00, 0x38, 0xD3, 0xF5, 0x15, 0x51, 0x25,
         0xE6, 0xE9, 0x91, 0xEE, 0x69, 0x05, 0x6D, 0x0A, 0x5A, 0x01, 0xC3, 0xF6, 0x84, 0xFC, 0x56, 0x08,
         0xC3, 0x15, 0x30, 0xED, 0x67, 0xE6, 0x17, 0x15, 0xB1, 0xFE, 0xDC, 0xFF, 0x41, 0x0C, 0x5C, 0xEE,
         0x09, 0x05, 0xB7, 0x0D, 0xFE, 0xE8, 0x7B, 0x04, 0x24, 0x15, 0xD3, 0x01, 0x95, 0x00, 0x75, 0xD3,
         0x07, 0x29, 0xC8, 0x14, 0x4B, 0x86, 0xCC, 0x34, 0x61, 0x6C, 0x42, 0x03, 0xA8, 0x0F, 0xCF, 0x91,
         0x08, 0xF9, 0x13, 0x53, 0x06, 0x93, 0x85, 0x05, 0x57, 0x77, 0x7F, 0xBC, 0xED, 0xC0, 0xAB, 0x3D,
         0xB4, 0x0D, 0x31, 0x0E, 0x80, 0xB6, 0x21, 0xF8, 0xB8, 0x4D, 0x6E, 0xBA, 0x89, 0x20, 0xAF, 0x24,
         0x22, 0xA1, 0x7B, 0x55, 0x0B, 0x37, 0xBF, 0x88, 0x7F, 0x1C, 0x7E, 0x4A, 0x57, 0xAB, 0xE8, 0x27,
         0x99, 0x36, 0x40, 0xBF, 0x30, 0xFD, 0x85, 0x29, 0x66, 0x14, 0x6F, 0xE0, 0xAF, 0xBE, 0x50, 0x1C,
         0x87, 0x36, 0xD4, 0xC9, 0x39, 0xF0, 0x1B, 0x41, 0xD3, 0x0C, 0xF7, 0xEC, 0x73, 0xEE, 0xCE, 0xF5,
         0x87, 0x0A, 0x5F, 0x05, 0x8C, 0xF6, 0xB4, 0xED, 0x80, 0xF2, 0x42, 0x1D, 0xBD, 0x21, 0x59, 0xE8,
         0xF2, 0xF0, 0xC5, 0x21, 0x77, 0x15, 0xCB, 0xCB, 0xCF, 0xD9, 0xF0, 0x38, 0xCB, 0xF2, 0x1B, 0xCF,
         0x3B, 0x3C, 0xA4, 0x1D, 0x02, 0xDD, 0xC7, 0xEE, 0xC1, 0xFA, 0x7D, 0x21, 0xB9, 0x13, 0x9A, 0xD2,
         0x9C, 0x06, 0xBF, 0x03, 0xC2, 0xD6, 0xE8, 0x33, 0x6F, 0x0A, 0x97, 0xC5, 0xB5, 0x2B, 0xEA, 0x25,
         0x3C, 0xD1, 0x14, 0xE7, 0x44, 0x1B, 0x77, 0x14, 0xAF, 0xF2, 0x4B, 0xF0, 0x41, 0x03, 0x7E, 0xFB,
         0x25, 0xFA, 0xA8, 0x0E, 0xB4, 0x01, 0xDC, 0x01, 0xE5, 0x18, 0x8E, 0xF6, 0x8C, 0xE4, 0x6A, 0x03,
         0x32, 0xF3, 0x9B, 0x07, 0x1C, 0x20, 0x76, 0xDA, 0x5F, 0xFB, 0x0D, 0x43, 0x94, 0xE8, 0xA3, 0xB6,
         0xE4, 0x1F, 0xC9, 0x3E, 0x31, 0xE2, 0xEB, 0xD1, 0xBD, 0x1D, 0x30, 0x1A, 0x6B, 0xDC, 0xFD, 0x01,
         0xD1, 0x0D, 0x6F, 0xEC, 0x22, 0x1F, 0x2D, 0x03, 0xC7, 0xE0, 0xC5, 0x08, 0xF7, 0xFC, 0xAA, 0x09,
         0xC0, 0x04, 0xE2, 0xE6, 0x85, 0x0C, 0x88, 0x1E, 0x2E, 0xF5, 0xB1, 0xD2, 0x3D, 0xFF, 0x68, 0x3E,
         0xDB, 0x03, 0x7D, 0xC1, 0xFF, 0x0F, 0xE0, 0x1F, 0x8A, 0xDD, 0x04, 0xFE, 0x4E, 0x0E, 0x1B, 0x0C,
         0x91, 0x04, 0x35, 0xEB, 0xBD, 0x0A, 0x35, 0xFB, 0xCA, 0xF1, 0xD8, 0x0D, 0x17, 0xFB, 0x5E, 0x08,
         0xFF, 0x09, 0x32, 0xEA, 0xD3, 0x02, 0x11, 0x08, 0x38, 0xF8, 0x56, 0x1C, 0x42, 0xF2, 0x9A, 0xCC,
         0xA6, 0x22, 0xFB, 0x21, 0xB0, 0xE9, 0xFC, 0xF1, 0xA5, 0xF3, 0x0F, 0x17, 0x71, 0x2A, 0x86, 0xD7,
         0x1B, 0xDF, 0xD4, 0x27, 0xCA, 0xFC, 0x61, 0xEC, 0x05, 0x05, 0x83, 0xFD, 0x6D, 0x12, 0xBB, 0x03,
         0xFD, 0xE3, 0xE7, 0x0E, 0x3C, 0x11, 0xE4, 0xF5, 0x43, 0x04, 0xD1, 0xE5, 0x0A, 0x09, 0x69, 0x22,
         0x0F, 0xD0, 0x8F, 0xFA, 0x6A, 0x28, 0x11, 0xEE, 0xF0, 0xF6, 0x5F, 0x15, 0xC0, 0x03, 0xB2, 0xFC,
         0x64, 0x06, 0x31, 0xEE, 0x58, 0xE2, 0xE2, 0x12, 0x12, 0x20, 0x97, 0xE9, 0xEA, 0xF5, 0x34, 0x1E,
         0xDE, 0xF0, 0x5C, 0xF3, 0x32, 0x0F, 0xF9, 0xFF, 0xA0, 0x01, 0xDE, 0xEC, 0xD8, 0x08, 0xE5, 0x14,
         0x74, 0xDE, 0x18, 0x08, 0x70, 0x1C, 0x8E, 0xE6, 0xBC, 0xF9, 0x39, 0x18, 0x86, 0xFC, 0x11, 0xEE,
         0x3A, 0xFE, 0x3C, 0x12, 0x19, 0x03, 0xE3, 0xE3, 0x9F, 0x05, 0xCF, 0x11, 0x0F, 0x08, 0x6B, 0x0B,
         0xD0, 0xD4, 0xBF, 0xF3, 0x5A, 0x39, 0xCB, 0xE3, 0x7F, 0xCF, 0x7B, 0x3F, 0x84, 0x20, 0x49, 0xD1,
         0xE4, 0xF4, 0xDF, 0x00, 0xD3, 0x00, 0x85, 0x15, 0xA5, 0xF3, 0xFA, 0xEA, 0x0B, 0x12, 0xF7, 0x0E,
         0x95, 0x05, 0xAA, 0xF4, 0x5C, 0xE4, 0xE0, 0x16, 0xF6, 0x17, 0x53, 0xDB, 0xC3, 0xEA, 0x41, 0x1D,
         0x57, 0x17, 0xC4, 0xF4, 0xED, 0xF3, 0xF8, 0xFF, 0x56, 0x03, 0x3C, 0x05, 0x9A, 0xF6, 0x59, 0xF9,
         0x2E, 0x13, 0x2B, 0x00, 0x0B, 0xEA, 0xBF, 0x0A, 0x15, 0x09, 0x1D, 0xFA, 0x88, 0x04, 0x74, 0xEA,
         0x14, 0x04, 0x18, 0x26, 0xEA, 0xEF, 0xC1, 0xE6, 0x4A, 0x0A, 0x53, 0x05, 0x79, 0xFD, 0x27, 0x01,
         0xD7, 0x00, 0x00, 0x06, 0x1D, 0x07, 0x03, 0xF9, 0x9E, 0xF1, 0xBA, 0xF8, 0xFF, 0x07, 0x50, 0x0B,
         0xD5, 0xF9, 0xE1, 0xFB, 0x67, 0x10, 0x2A, 0x05, 0x4E, 0xEE, 0x62, 0x02, 0xB8, 0x0B, 0xF2, 0xF1,
         0x1C, 0xFC, 0x2D, 0xFB, 0x3D, 0xF4, 0x68, 0x1E, 0xD2, 0x10, 0x8A, 0xE0, 0x1C, 0xFB, 0x0B, 0x1B,
         0xF8, 0x03, 0x99, 0xE9, 0xAB, 0xEA, 0xAE, 0x0A, 0xC7, 0x1E, 0x10, 0xFF, 0x03, 0xEE, 0x72, 0xFA,
         0x31, 0x00, 0x05, 0x0A, 0x7F, 0x01, 0xA0, 0xF3, 0x46, 0x09, 0xF5, 0x0B, 0x8A, 0xF3, 0x6D, 0xF8,
         0xFE, 0xFE, 0x75, 0x06, 0x12, 0x12, 0x11, 0xF4, 0x50, 0xEA, 0xA3, 0x14, 0x7C, 0x0E, 0xAE, 0xE6,
         0x06, 0xF0, 0xDE, 0x10, 0xCD, 0x19, 0x63, 0xF9, 0xD7, 0xE5, 0xF7, 0x0A, 0xB0, 0x0E, 0x39, 0xEB,
         0x36, 0x01, 0xC6, 0x12, 0x2F, 0xF7, 0xCD, 0x01, 0x13, 0xFF, 0xC5, 0xDA, 0xE5, 0x0F, 0xA2, 0x3B,
         0x3B, 0xE8, 0x8E, 0xD2, 0xB4, 0x19, 0x12, 0x0D, 0xFC, 0xEA, 0x24, 0x07, 0x16, 0x08, 0x43, 0xFE,
         0x2A, 0x05, 0x3B, 0xED, 0x8D, 0xF5, 0x54, 0x16, 0x2B, 0x0A, 0xDE, 0xFC, 0x93, 0xF5, 0x75, 0xF0,
         0xD2, 0x0D, 0x5C, 0x15, 0x6E, 0xF3, 0x11, 0xF1, 0xC9, 0xFF, 0x9B, 0x09, 0x1B, 0x08, 0xF5, 0xF1,
         0xF5, 0xFD, 0x66, 0x0A, 0x10, 0xFD, 0x9E, 0x0B, 0x88, 0x00, 0x91, 0xDF, 0x85, 0x05, 0x40, 0x1B,
         0x94, 0xF3, 0xE7, 0x00, 0xF0, 0x10, 0xE3, 0xE7, 0xDB, 0xF4, 0x8F, 0x16, 0x97, 0xFA, 0xD2, 0xF7,
         0x1E, 0x0C, 0x71, 0xFF, 0x7C, 0x00, 0x57, 0x03, 0x0D, 0xF7, 0x5A, 0x01, 0x66, 0xFD, 0xDE, 0xF2,
         0x91, 0x10, 0x81, 0x09, 0x2E, 0xF4, 0xBD, 0x08, 0xB8, 0x01, 0x43, 0xF1, 0x09, 0xF9, 0xB8, 0x05,
         0xFD, 0x17, 0x5B, 0x01, 0x03, 0xD9, 0x30, 0x01, 0xD8, 0x23, 0xF6, 0xF6, 0xCC, 0xF0, 0xBD, 0x0C,
         0x72, 0x01, 0xC6, 0xF8, 0xBD, 0xFE, 0xE9, 0xFE, 0x86, 0x04, 0x81, 0xFE, 0xE2, 0xF8, 0xE1, 0x08,
         0xCB, 0x04, 0x86, 0xF8, 0xFE, 0x02, 0xD4, 0x02, 0xC9, 0xF8, 0x35, 0xFF, 0xE9, 0x05, 0xAE, 0x01,
         0x25, 0xF8, 0xA5, 0xFC, 0xA6, 0x0E, 0xBC, 0xFA, 0xF6, 0xED, 0x11, 0x10, 0xE7, 0x0C, 0x63, 0xF0,
         0x27, 0xFF, 0xB3, 0x0C, 0x3E, 0xFE, 0x80, 0xF9, 0x1E, 0xF3, 0xFE, 0xF0, 0xB3, 0x16, 0xAD, 0x21,
         0xFC, 0xEC, 0xB0, 0xE3, 0xF8, 0x12, 0x7F, 0x08, 0x19, 0xED, 0x96, 0x05, 0x70, 0x09, 0x98, 0xFD,
         0x98, 0xFB, 0x6E, 0xF2, 0xDE, 0x07, 0x18, 0x13, 0xEC, 0xF9, 0x9A, 0xF9, 0x03, 0xFF, 0x3F, 0xF7,
         0x50, 0x08, 0x3E, 0x0C, 0x4E, 0xF3, 0x77, 0xF7, 0x3A, 0x0D, 0xF5, 0x0B, 0x11, 0xEE, 0x73, 0xF0,
         0xC9, 0x15, 0x08, 0xFF, 0xED, 0xF1, 0xD6, 0x17, 0x25, 0x02, 0xDF, 0xE4, 0xFA, 0x0A, 0x83, 0x0B,
         0xB2, 0xEE, 0x3D, 0x06, 0xAE, 0x09, 0xCE, 0xED, 0x92, 0xFD, 0xF1, 0x13, 0xDF, 0x01, 0x1A, 0xF2,
         0x7C, 0xFF, 0x05, 0x0A, 0xDB, 0x00, 0x3A, 0xF8, 0x2D, 0x00, 0x97, 0x01, 0x56, 0xF8, 0x56, 0xFE,
         0x79, 0x0A, 0xD8, 0x05, 0xA3, 0x01, 0x26, 0xFA, 0x2F, 0xFA, 0x9E, 0x04, 0x5E, 0xF6, 0xEB, 0xFD,
         0xB8, 0x11, 0xB9, 0xFA, 0xD3, 0xF5, 0xB8, 0x09, 0x40, 0x03, 0x15, 0xFA, 0x86, 0x00, 0xD0, 0xFE,
         0xC6, 0x01, 0x21, 0x03, 0xC1, 0xFD, 0xC0, 0xFE, 0x87, 0xFC, 0x10, 0xFB, 0x28, 0xFD, 0x85, 0x0C,
         0xBC, 0x0F, 0x45, 0xF1, 0x04, 0xF6, 0xA7, 0x0C, 0x4B, 0xFE, 0x8D, 0xF5, 0x0A, 0x04, 0xDB, 0x05,
         0x2C, 0xF9, 0xEC, 0xFD, 0x37, 0x0E, 0xEE, 0xFD, 0x37, 0xEF, 0x2C, 0x06, 0x09, 0x0A, 0x20, 0xFB,
         0x71, 0x00, 0xA7, 0xFA, 0x42, 0x04, 0x92, 0x10, 0x4E, 0xEE, 0x39, 0xED, 0x03, 0x11, 0xEB, 0x07,
         0xF0, 0xF8, 0xF7, 0xFE, 0xC4, 0x02, 0xAA, 0x05, 0x66, 0x07, 0x46, 0xEF, 0xA7, 0xF1, 0x3C, 0x1F,
         0xA7, 0xFC, 0x32, 0xD2, 0x35, 0x1E, 0x36, 0x26, 0x6C, 0xE4, 0x33, 0x07, 0xAC, 0xFA, 0xDD, 0xC5,
         0xAC, 0x27, 0xF1, 0x2D, 0x51, 0xC4, 0x59, 0x00, 0x33, 0x52, 0x12, 0xFD, 0xED, 0xA6, 0xAE, 0xEE,
         0x5F, 0x50, 0x43, 0xEF, 0x92, 0xAA, 0x5E, 0x41, 0x8E, 0x59, 0x68, 0xC8, 0xDD, 0xCF, 0xF4, 0x0A,
         0x55, 0xEC, 0x25, 0x1A, 0x97, 0x1A, 0xFD, 0xD5, 0xF0, 0x14, 0xE9, 0x3D, 0x27, 0xD4, 0xCB, 0xC0,
         0x01, 0x04, 0x96, 0x12, 0xE1, 0x22, 0x65, 0x20, 0xBA, 0xDC, 0xBC, 0xE5, 0xEB, 0x1A, 0xCE, 0x03,
         0xCF, 0xD8, 0x6D, 0xEF, 0xA9, 0x24, 0xA0, 0x20, 0x44, 0xFC, 0xFC, 0xE9, 0x20, 0xED, 0x69, 0x16,
         0x94, 0x0F, 0x14, 0xD9, 0x1B, 0xF9, 0x8E, 0x1F, 0xC4, 0xFA, 0x4E, 0xFB, 0xA6, 0xFF, 0x40, 0xF8,
         0x55, 0x17, 0xD6, 0x01, 0x33, 0xFA, 0x4F, 0x0E, 0x73, 0xDD, 0x6E, 0xEA, 0x26, 0x17, 0xC1, 0xFD,
         0x4A, 0x10, 0x8D, 0x19, 0xDE, 0xE6, 0xDF, 0xF7, 0x37, 0x08, 0x4B, 0xF0, 0x66, 0x06, 0xD8, 0x05,
         0x69, 0xF8, 0xE2, 0x10, 0xC9, 0xFE, 0x32, 0xEF, 0xCF, 0x0F, 0xFB, 0xF7, 0x2E, 0xE6, 0x41, 0x1E,
         0x9E, 0x0D, 0x12, 0xD1, 0x5D, 0x0C, 0x1E, 0x36, 0x18, 0xEA, 0xE5, 0xE8, 0x9C, 0x12, 0x11, 0xE9,
         0xD7, 0xF6, 0x8A, 0x1E, 0x73, 0xED, 0x4B, 0xF0, 0x1C, 0x2B, 0x81, 0xFD, 0x0B, 0xE2, 0x78, 0x20,
         0xA0, 0xFC, 0x53, 0xCA, 0x35, 0x1E, 0x87, 0x1D, 0xA4, 0xE0, 0x04, 0x2E, 0xD1, 0xFF, 0xA5, 0x87,
         0x69, 0x29, 0x6B, 0x62, 0x21, 0xB3, 0x8C, 0xEC, 0xE4, 0x7B, 0x6D, 0xFA, 0x00, 0x80, 0xC7, 0xF9,
         0x92, 0x76, 0x7E, 0xD6, 0xAF, 0x95, 0xEF, 0x4F, 0xB2, 0x57, 0xB8, 0xAB, 0x84, 0xB6, 0x53, 0x12,
         0xBA, 0xD5, 0xCB, 0x24, 0x44, 0x42, 0x1E, 0xC3, 0xC8, 0x0C, 0xAC, 0x5B, 0x06, 0xBE, 0x38, 0xA7,
         0x1A, 0x0C, 0x3D, 0x0D, 0xE5, 0x37, 0xCB, 0x47, 0x8C, 0xB3, 0x02, 0xC2, 0x22, 0x48, 0x28, 0x11,
         0x1B, 0xB2, 0x5D, 0xE0, 0xD4, 0x34, 0x95, 0x48, 0x74, 0x0A, 0x2B, 0xBA, 0xB7, 0xD4, 0x94, 0x38,
         0xBF, 0x22, 0x78, 0xC5, 0x47, 0xE1, 0xBC, 0x2C, 0x1D, 0x13, 0x2A, 0xEE, 0xD8, 0xE6, 0xC7, 0x06,
         0xD1, 0x32, 0x8E, 0xF8, 0x24, 0xF1, 0x88, 0x19, 0xE2, 0xCD, 0xC4, 0xDE, 0x6F, 0x2B, 0x5B, 0xED,
         0x20, 0x01, 0x70, 0x48, 0x6F, 0xE7, 0x91, 0xD3, 0x93, 0x0F, 0x90, 0xF8, 0x5C, 0x08, 0x0C, 0x07,
         0xF0, 0xF4, 0x12, 0x1F, 0x1F, 0xEE, 0xAA, 0xD6, 0x08, 0x36, 0x7F, 0xFA, 0x63, 0xC2, 0x68, 0x38,
         0x4E, 0x13, 0xED, 0xB6, 0xEF, 0x16, 0x87, 0x3B, 0xB1, 0xE2, 0x3F, 0xFC, 0x54, 0x22, 0x54, 0xD3,
         0xF3, 0xE6, 0x29, 0x2C, 0x0A, 0xE2, 0xD4, 0xD4, 0x50, 0x36, 0x94, 0x2B, 0x45, 0xEF, 0x98, 0xF4,
         0x38, 0xF8, 0x4F, 0xF7, 0xDD, 0x07, 0x54, 0xEB, 0x77, 0xEF, 0x8E, 0x4C, 0xE8, 0x15, 0xB8, 0x89,
         0x68, 0xF4, 0xF9, 0x68, 0x27, 0xE9, 0x12, 0xCC, 0x64, 0x4D, 0xB4, 0x0C, 0x5C, 0x97, 0xBF, 0x0D,
         0xD1, 0x58, 0x1E, 0xC7, 0x56, 0xBC, 0x8B, 0x55, 0xA7, 0x2F, 0x68, 0xC7, 0xE0, 0x05, 0x34, 0x05,
         0x78, 0xB1, 0x02, 0x16, 0xE7, 0x58, 0x09, 0xE0, 0x57, 0xD5, 0xC6, 0x29, 0xE4, 0x07, 0x10, 0xE6,
         0x72, 0xFA, 0xCA, 0xFB, 0xE8, 0x17, 0xA8, 0x24, 0x3E, 0xC2, 0x6E, 0xC2, 0xD1, 0x49, 0xA4, 0x2F,
         0x6F, 0xCC, 0xED, 0xEC, 0x55, 0x14, 0xBF, 0x28, 0xAF, 0x1E, 0x91, 0xB6, 0x94, 0xB4, 0x16, 0x3D,
         0x41, 0x3A, 0x64, 0xDC, 0xE3, 0xE6, 0xF3, 0x23, 0x9B, 0x1D, 0x1B, 0xD9, 0x99, 0xCE, 0x46, 0x0F,
         0x9F, 0x32, 0x13, 0x0C, 0x14, 0xE5, 0xA9, 0xF9, 0x30, 0xFF, 0xED, 0xFB, 0x18, 0x0C, 0x1A, 0xF0,
         0x31, 0xEF, 0xEA, 0x2D, 0x03, 0x0D, 0xB9, 0xCB, 0x3A, 0xFB, 0x37, 0x20, 0x37, 0x0A, 0xA9, 0xEF,
         0x6A, 0xEB, 0x4B, 0x20, 0x68, 0x04, 0x90, 0xD9, 0x61, 0x1C, 0x59, 0x06, 0x36, 0xE5, 0x60, 0x15,
         0x14, 0xF4, 0x20, 0xE8, 0x46, 0x1D, 0xD3, 0x07, 0x4B, 0xE6, 0x58, 0x11, 0xC2, 0x21, 0xB0, 0xEE,
         0x18, 0xE4, 0xE4, 0x0C, 0xA8, 0xFB, 0xC5, 0xDF, 0x0D, 0x10, 0xAB, 0x1C, 0x00, 0xFB, 0xAB, 0x01,
         0xF4, 0x01, 0x13, 0xFD, 0xF3, 0x02, 0xFC, 0xEB, 0x26, 0xF1, 0x2A, 0x28, 0x7E, 0x0D, 0x72, 0xC7,
         0x4E, 0xFB, 0xA2, 0x35, 0xE6, 0xF6, 0x74, 0xE9, 0x01, 0x21, 0x62, 0xFB, 0x4F, 0xD7, 0x47, 0x13,
         0xDB, 0x11, 0x0F, 0xDC, 0xF2, 0xFC, 0x5B, 0x23, 0x13, 0x02, 0x10, 0xF7, 0x2D, 0x18, 0x61, 0xF7,
         0x43, 0xC5, 0x56, 0x0B, 0x22, 0x3A, 0xF1, 0xEA, 0xE9, 0xD7, 0xC1, 0x15, 0x6C, 0x15, 0x03, 0x04,
         0x4B, 0xFD, 0xC4, 0xF3, 0xC8, 0x06, 0x8A, 0xF9, 0x50, 0xEA, 0x40, 0xFA, 0x6C, 0x11, 0x0D, 0x1F,
         0x8B, 0xEF, 0x94, 0xF3, 0x17, 0x0A, 0x23, 0xFB, 0xF2, 0x24, 0xE5, 0xED, 0xC1, 0xBC, 0x46, 0x1F,
         0xAC, 0x20, 0x91, 0xEB, 0xB8, 0xF9, 0xFC, 0x19, 0xFC, 0x18, 0xD0, 0xD9, 0x55, 0xDE, 0xE5, 0x17,
         0x2A, 0x0E, 0xDE, 0xFF, 0x37, 0xFE, 0x48, 0xFA, 0x40, 0x08, 0x17, 0x03, 0x51, 0xF8, 0x50, 0xFD,
         0x50, 0xEF, 0x18, 0x07, 0x4D, 0x21, 0x8A, 0xEC, 0xA7, 0xEC, 0x8A, 0x1C, 0xE4, 0x04, 0xA0, 0xE3,
         0xBD, 0xF1, 0x89, 0x1E, 0x38, 0x16, 0xB7, 0xE2, 0x67, 0xF3, 0x2D, 0x14, 0x03, 0x09, 0xA8, 0xF1,
         0x95, 0xED, 0xEF, 0x0F, 0x83, 0x13, 0x5B, 0xE9, 0x1F, 0xEF, 0x7C, 0x13, 0x03, 0x12, 0x9D, 0xFF,
         0x8C, 0xF0, 0xB4, 0xFC, 0xFA, 0x0F, 0x45, 0xF7, 0x47, 0xF1, 0x4E, 0x04, 0x32, 0xFB, 0xE8, 0x07,
         0xA1, 0x0D, 0xFB, 0xF6, 0xF5, 0x09, 0xED, 0x02, 0x91, 0xEC, 0x2A, 0x02, 0x1F, 0xFB, 0xFD, 0x03,
         0x4D, 0x09, 0x78, 0xF1, 0xB9, 0x07, 0xE2, 0x0F, 0xBD, 0xFF, 0xAC, 0xF3, 0x35, 0xFA, 0x64, 0x0C,
         0x32, 0xEE, 0x13, 0xF6, 0xD2, 0x16, 0xB9, 0xFA, 0xBD, 0xFC, 0x93, 0x12, 0xB4, 0x04, 0x9F, 0xF1,
         0x54, 0xF1, 0xE9, 0x0B, 0x11, 0x0A, 0x5A, 0xEE, 0x89, 0xF8, 0xC0, 0x0A, 0xCD, 0x02, 0xED, 0x06,
         0xCC, 0xFF, 0x1E, 0xFA, 0x64, 0x0A, 0xEB, 0xEB, 0x98, 0x03, 0x67, 0x1D, 0xFE, 0xE0, 0xA6, 0xFB,
         0xE2, 0x0C, 0x5E, 0xF9, 0xAB, 0x08, 0x63, 0xF0, 0x87, 0x0D, 0xE8, 0x19, 0x9D, 0xEC, 0x27, 0xF8,
         0xCD, 0xFA, 0xDF, 0xF8, 0x0E, 0x06, 0xC4, 0x09, 0xC9, 0x05, 0x09, 0xF2, 0x84, 0xFD, 0xE3, 0x0E,
         0xA3, 0xF8, 0xAC, 0xFA, 0x8F, 0x0F, 0x54, 0xFE, 0xC9, 0xF6, 0xFB, 0x01, 0x2F, 0xFB, 0x3B, 0xFD,
         0xFB, 0xFB, 0x0D, 0xFF, 0xBF, 0x14, 0x5E, 0x03, 0x80, 0xF1, 0xBD, 0x0A, 0xAA, 0xFD, 0x02, 0xE8,
         0xD5, 0x02, 0x06, 0x14, 0x0B, 0x0F, 0xD2, 0xF1, 0x5A, 0xE8, 0x24, 0x0B, 0xB1, 0x06, 0x78, 0xF9,
         0x16, 0x06, 0xFA, 0x06, 0x40, 0x01, 0x51, 0xF8, 0xA8, 0xFB, 0xF9, 0x05, 0x92, 0xFD, 0x55, 0xF6,
         0xD0, 0xFF, 0x67, 0x09, 0x1D, 0x0B, 0xBC, 0xFF, 0xC5, 0xF4, 0xD1, 0x00, 0x0F, 0xFB, 0x7A, 0xFC,
         0xAF, 0x09, 0x06, 0xF6, 0x58, 0x0A, 0xB7, 0x0C, 0x60, 0xF1, 0x32, 0xFD, 0x68, 0xFA, 0x72, 0x15,
         0xA0, 0xFE, 0x19, 0xD8, 0x1E, 0x19, 0x52, 0x0F, 0xAE, 0xF1, 0xE3, 0x06, 0x14, 0xFB, 0xAF, 0xFF,
         0x5A, 0xFC, 0x56, 0x00, 0x4C, 0x0B, 0x39, 0xF6, 0xAE, 0xFC, 0xE1, 0x0A, 0x75, 0xFF, 0x23, 0xF4,
         0x4C, 0x01, 0x95, 0x0E, 0x94, 0xFA, 0x23, 0xFB, 0x46, 0x04, 0x92, 0xF4, 0x03, 0x02, 0x18, 0x09,
         0x01, 0xF6, 0x02, 0x07, 0x13, 0x0C, 0x69, 0xF8, 0x60, 0x05, 0x75, 0x04, 0xD6, 0xE5, 0xB3, 0xF0,
         0x5E, 0x17, 0x30, 0x09, 0x3C, 0xFA, 0x70, 0x06, 0xC2, 0xF5, 0x6B, 0x08, 0x3C, 0x12, 0x8F, 0xE7,
         0x63, 0xF3, 0x2E, 0x10, 0x40, 0x07, 0x16, 0xF6, 0x57, 0xF2, 0x76, 0x08, 0xB8, 0x09, 0xC7, 0xF3,
         0x10, 0x06, 0x7D, 0x19, 0xD5, 0xF8, 0x9B, 0xE6, 0x52, 0x00, 0x6E, 0x0F, 0x30, 0xFE, 0xBF, 0xF1,
         0x0A, 0x02, 0x8E, 0x0B, 0x76, 0x03, 0xC1, 0xF3, 0x59, 0xFB, 0x9A, 0x14, 0xBC, 0xF9, 0x55, 0xF0,
         0x8D, 0x0F, 0x3A, 0x04, 0x3A, 0xFB, 0x00, 0x02, 0x70, 0xFD, 0xA5, 0xF1, 0xA6, 0xF2, 0x44, 0x13,
         0x5C, 0x14, 0xA7, 0xF6, 0xC3, 0xF6, 0x40, 0x05, 0x95, 0x09, 0x5E, 0xFE, 0x63, 0xF0, 0x71, 0xF5,
         0x8E, 0x06, 0xA3, 0x0E, 0x2C, 0x03, 0x76, 0xF9, 0x08, 0xFE, 0xC6, 0xFB, 0x35, 0x02, 0x21, 0x0C,
         0xAA, 0xF9, 0xD9, 0xF4, 0xA5, 0x02, 0x01, 0x06, 0x82, 0xFF, 0xD9, 0xF6, 0x01, 0x0D, 0x3C, 0x0D,
         0xD4, 0xEF, 0x31, 0xFC, 0xFE, 0x00, 0xE9, 0xF6, 0x52, 0x01, 0x1A, 0x0A, 0x63, 0x06, 0xAC, 0xF8,
         0xA3, 0xFE, 0xC3, 0x05, 0x56, 0xFB, 0xA9, 0x01, 0x3B, 0x02, 0x2B, 0xFA, 0xA4, 0x02, 0x7A, 0x00,
         0xC9, 0xF6, 0x9A, 0xFF, 0x3A, 0x0D, 0xA1, 0x07, 0xB5, 0xF6, 0x24, 0xF9, 0xB9, 0x00, 0xB5, 0xF8,
         0x04, 0xFF, 0x56, 0x10, 0x39, 0x08, 0x4F, 0xFD, 0x07, 0x02, 0x67, 0xF6, 0x28, 0xEF, 0xAF, 0xFD,
         0x33, 0x04, 0x27, 0x0C, 0xE9, 0x05, 0x13, 0xF9, 0x26, 0x08, 0x22, 0x08, 0xD3, 0xF6, 0x26, 0xEF,
         0x44, 0xFF, 0x62, 0x13, 0xFC, 0xFB, 0x8F, 0xEF, 0xBE, 0x04, 0x96, 0x0B, 0xAE, 0xFD, 0x78, 0xF9,
         0xC6, 0x10, 0x4E, 0x04, 0x05, 0xE5, 0x2D, 0xFB, 0x73, 0x11, 0x19, 0x02, 0xD4, 0xF7, 0xF2, 0x05,
         0xA2, 0x07, 0xEB, 0xF7, 0xB6, 0xF9, 0x33, 0x02, 0xDF, 0x02, 0x7B, 0xFB, 0x39, 0xFC, 0x3F, 0x07,
         0x04, 0x05, 0x8C, 0x04, 0xEE, 0x01, 0xC6, 0xF9, 0x14, 0xF9, 0x22, 0xF6, 0xC1, 0x00, 0x9C, 0x0B,
         0x8A, 0x00, 0x32, 0xFE, 0x50, 0x05, 0x69, 0x03, 0x84, 0xFF, 0xA6, 0xFB, 0xB6, 0xF7, 0x75, 0xFA,
         0x8B, 0x06, 0x2E, 0x0A, 0x6A, 0xFE, 0x6E, 0xFC, 0xAA, 0xFF, 0x4F, 0xFC, 0xB4, 0x02, 0x65, 0x05,
         0x2F, 0xFA, 0xFF, 0xFB, 0xE8, 0x05, 0xBB, 0x00, 0x15, 0xFC, 0x1F, 0x03, 0x58, 0x05, 0x04, 0xFE,
         0x7C, 0xFB, 0xC8, 0xFF, 0xD2, 0xFA, 0x10, 0xFC, 0x08, 0x09, 0xF0, 0x03, 0x44, 0xFF, 0xAC, 0x04,
         0x1F, 0xFD, 0xF4, 0xF7, 0xA2, 0xFD, 0x21, 0x01, 0xC7, 0x02, 0x16, 0x09, 0x42, 0x04, 0xDD, 0xF2,
         0x51, 0xF9, 0xA4, 0x09, 0x33, 0x03, 0x57, 0xF8, 0xF7, 0xFA, 0xCC, 0x04, 0x56, 0x05, 0x61, 0xFE,
         0xA9, 0x02, 0x34, 0x06, 0x2C, 0xFD, 0x0E, 0xFB, 0xF9, 0xFD, 0x96, 0xFB, 0x2A, 0xFD, 0x6B, 0x02,
         0x25, 0x04, 0xDA, 0xFF, 0x68, 0x02, 0xDF, 0x06, 0x56, 0xFF, 0xCF, 0xFB, 0x5F, 0xF9, 0x15, 0xFE,
         0x63, 0x08, 0xEF, 0xFD, 0xE9, 0xF8, 0x66, 0x02, 0x75, 0x07, 0x1E, 0x01, 0xAE, 0xF7, 0x02, 0x05,
         0x75, 0x06, 0xAE, 0xF4, 0xFE, 0xFC, 0xFA, 0x07, 0x04, 0x00, 0x10, 0xFB, 0xE3, 0x02, 0x86, 0x04,
         0xE2, 0xFB, 0x14, 0x00, 0x6F, 0x02, 0xB4, 0xFC, 0xAD, 0xFF, 0x8C, 0xFE, 0x37, 0xFE, 0x24, 0x06,
         0xB0, 0x03, 0xAA, 0xFA, 0x05, 0xFE, 0x63, 0x05, 0x9A, 0xFC, 0xAE, 0xF6, 0x23, 0x05, 0x10, 0x0B,
         0xAA, 0xFF, 0x82, 0xF8, 0x07, 0xFD, 0xAA, 0x03, 0xA5, 0x01, 0x7B, 0xFC, 0x80, 0xFB, 0xFB, 0x01,
         0x0A, 0x0A, 0xBC, 0x04, 0xDB, 0xFB, 0x4C, 0xF8, 0x24, 0xF8, 0x72, 0x00, 0x98, 0x06, 0xF0, 0x02,
         0x51, 0x01, 0x4B, 0x03, 0x1F, 0x01, 0x5A, 0xFD, 0x19, 0xFB, 0xFE, 0xFC, 0x3D, 0x01, 0x02, 0x00,
         0xFB, 0xFF, 0x9E, 0x00, 0xB1, 0x00, 0x5C, 0x03, 0x96, 0x00, 0x7C, 0x02, 0x10, 0x04, 0xEC, 0xF9,
         0x4D, 0xF6, 0x45, 0xFC, 0x5B, 0x03, 0xAD, 0x04, 0x19, 0x06, 0xC6, 0x08, 0xC6, 0xFB, 0xAD, 0xF4,
         0xFD, 0xFE, 0xFF, 0x01, 0x66, 0xFD, 0xCC, 0xFB, 0x71, 0x04, 0x1E, 0x0D, 0x79, 0x02, 0x7A, 0xF6,
         0xA2, 0xFC, 0x5F, 0x01, 0x9E, 0xFC, 0x9A, 0xFE, 0x4B, 0x04, 0x5C, 0x04, 0xF8, 0xFF, 0xEC, 0xFA,
         0xD3, 0xFB, 0xDB, 0x02, 0x08, 0x06, 0xC4, 0xFE, 0xDE, 0xFC, 0xCD, 0x04, 0x62, 0x01, 0xE9, 0xF8,
         0x45, 0xFC, 0x33, 0x02, 0xCF, 0x02, 0x7D, 0x01, 0x8A, 0x00, 0x1D, 0xFF, 0x0E, 0xFF, 0x0E, 0x01,
         0x3B, 0x01, 0x5A, 0x00, 0xC1, 0xFF, 0x69, 0xFD, 0x9E, 0xFB, 0x25, 0xFE, 0x4F, 0x03, 0xEC, 0x05,
         0x1A, 0x01, 0x44, 0xFD, 0x1B, 0x03, 0x7F, 0x02, 0xEB, 0xF8, 0x7E, 0xFC, 0xE6, 0x04, 0xA8, 0xFE,
         0x1D, 0xF9, 0x71, 0x01, 0x6F, 0x07, 0xA0, 0x00, 0x66, 0xFB, 0x10, 0x04, 0x4E, 0x0B, 0x11, 0xFE,
         0x21, 0xF0, 0xF5, 0xF9, 0x24, 0x06, 0x4C, 0x02, 0xD1, 0xFF, 0xCF, 0x01, 0xCF, 0x00, 0x2E, 0x05,
         0x75, 0x07, 0x9B, 0xFA, 0xC5, 0xF1, 0x82, 0xFC, 0xE6, 0x04, 0x19, 0x01, 0x82, 0x01, 0xD9, 0x05,
         0xAE, 0x05, 0xC7, 0x00, 0x04, 0xFA, 0x4E, 0xFA, 0xE9, 0x00, 0xFF, 0xFF, 0x1B, 0xF9, 0x82, 0xFC,
         0xB4, 0x07, 0x09, 0x09, 0xDF, 0x01, 0x94, 0xFE, 0x9A, 0xFF, 0xCC, 0xFE, 0x58, 0xFB, 0xFC, 0xFB,
         0x9C, 0x01, 0xC3, 0x01, 0x43, 0xFD, 0x2F, 0x00, 0xA2, 0x05, 0x2C, 0x02, 0x65, 0xFB, 0x1D, 0xFD,
         0x22, 0x07, 0xF1, 0x05, 0x9D, 0xF6, 0xA0, 0xF7, 0x4F, 0x08, 0xA0, 0x05, 0x49, 0xF7, 0x5E, 0xFB,
         0xAD, 0x05, 0x70, 0x04, 0x00, 0x01, 0xC6, 0xFE, 0x00, 0xFD, 0xA8, 0x00, 0xBD, 0x01, 0xC2, 0xFD,
         0xA8, 0xFD, 0x2F, 0xFF, 0x9C, 0x00, 0xCB, 0x04, 0xE6, 0x03, 0xA3, 0xFD, 0xF6, 0xFB, 0xE2, 0xFD,
         0x1F, 0x00, 0x03, 0x02, 0x6D, 0x00, 0x3E, 0x00, 0x9D, 0x02, 0x44, 0xFF, 0x7A, 0xFC, 0x23, 0x01,
         0xBE, 0x00, 0xAA, 0xFC, 0x09, 0x01, 0xD1, 0x02, 0xD0, 0xFD, 0x51, 0x01, 0x0B, 0x06, 0xCD, 0xFE,
         0x1A, 0xFA, 0x09, 0xFE, 0xCC, 0xFD, 0xDE, 0xFE, 0xD3, 0x06, 0x9B, 0x05, 0xD1, 0xFB, 0x99, 0xFC,
         0x7D, 0x03, 0x95, 0x01, 0x8D, 0xFB, 0x79, 0xFB, 0x6C, 0x01, 0x91, 0x06, 0x38, 0x02, 0x65, 0xF8,
         0x52, 0xF9, 0x4C, 0x06, 0x3F, 0x0B, 0x53, 0x00, 0x9F, 0xF7, 0xD3, 0xFD, 0x5D, 0x04, 0xB4, 0xFE,
         0x4F, 0xF9, 0x8B, 0xFC, 0x4F, 0x01, 0x07, 0x08, 0x9B, 0x0A, 0x2A, 0xFE, 0x29, 0xF6, 0xD5, 0xFF,
         0x51, 0x01, 0x2D, 0xF9, 0xEA, 0x00, 0xAF, 0x09, 0x21, 0xFF, 0x39, 0xF8, 0x1A, 0x01, 0x43, 0x06,
         0x98, 0x00, 0x0A, 0xFB, 0x03, 0xFF, 0xFC, 0x05, 0xBD, 0x00, 0xFC, 0xF7, 0x9E, 0xFC, 0x5A, 0x03,
         0x2E, 0x04, 0xF7, 0x05, 0xC3, 0x00, 0x23, 0xF8, 0x19, 0xFC, 0xA0, 0xFF, 0x86, 0xFC, 0xB0, 0x04,
         0x8B, 0x0B, 0x68, 0x01, 0x38, 0xFB, 0x42, 0xFD, 0x99, 0xFA, 0x17, 0xFC, 0xE4, 0x01, 0xA7, 0x02,
         0xF1, 0x03, 0x05, 0x01, 0x8C, 0xFB, 0x0E, 0x04, 0xF1, 0x08, 0x97, 0xFA, 0xF0, 0xF6, 0x64, 0x00,
         0x48, 0xFE, 0x2C, 0xFF, 0x90, 0x06, 0x09, 0xFF, 0x41, 0xFC, 0xF4, 0x08, 0xD9, 0x05, 0x11, 0xF8,
         0x3E, 0xF9, 0x49, 0xFF, 0x2D, 0x02, 0xEF, 0x02, 0x73, 0xFC, 0x2D, 0xFE, 0x46, 0x0A, 0x94, 0x03,
         0xBB, 0xF4, 0x27, 0xFC, 0xF4, 0x05, 0xDC, 0xFF, 0xF3, 0xFC, 0x9B, 0x02, 0xBC, 0x05, 0xBD, 0x01,
         0x59, 0xF9, 0xED, 0xF9, 0xC8, 0x03, 0xA0, 0x03, 0x2D, 0xFD, 0x59, 0xFF, 0x6A, 0x00, 0xC7, 0xFD,
         0x85, 0x03, 0x1A, 0x07, 0x0E, 0xFE, 0xCC, 0xFA, 0x11, 0x02, 0x1D, 0x00, 0x39, 0xF8, 0x00, 0xFC,
         0xF5, 0x05, 0x41, 0x06, 0x6D, 0x00, 0x82, 0x01, 0x78, 0x01, 0x30, 0xFB, 0x8A, 0xFC, 0xB1, 0x01,
         0x72, 0xFF, 0xFB, 0xFC, 0xDA, 0xFE, 0xE6, 0x02, 0xB3, 0x06, 0x42, 0x01, 0xFF, 0xF9, 0x62, 0x01,
         0xFE, 0x05, 0xEE, 0xF9, 0x6B, 0xF7, 0xC7, 0x02, 0x09, 0x04, 0x11, 0x00, 0x1E, 0x01, 0xF5, 0xFF,
         0xC9, 0x00, 0x99, 0x02, 0x89, 0xFD, 0x8E, 0xFF, 0x81, 0x05, 0x31, 0xFD, 0x35, 0xF7, 0xF5, 0xFC,
         0x14, 0xFE, 0x3D, 0x02, 0x3F, 0x0C, 0x0C, 0x07, 0xB1, 0xFC, 0xA7, 0xFE, 0xAB, 0xFC, 0x1E, 0xF8,
         0x54, 0xFD, 0x6C, 0xFF, 0x5F, 0x01, 0xC4, 0x07, 0x6C, 0x03, 0x87, 0xFD, 0x47, 0x01, 0x40, 0x00,
         0xB8, 0xFA, 0x70, 0xFF, 0x9A, 0x04, 0x8A, 0xFD, 0x8C, 0xF9, 0x2E, 0xFE, 0x41, 0x02, 0x9F, 0x07,
         0xD5, 0x08, 0xAC, 0xFF, 0xFC, 0xF8, 0x5D, 0xFB, 0x2F, 0xFE, 0xFF, 0xFD, 0x6C, 0xFD, 0xF4, 0x00,
         0xDC, 0x07, 0x8E, 0x05, 0xDB, 0xFA, 0x1D, 0xFA, 0xDD, 0x05, 0xA7, 0x07, 0xB9, 0xFA, 0xB9, 0xF9,
         0x81, 0x00, 0x77, 0xFD, 0x12, 0xFF, 0xE1, 0x03, 0xF9, 0xFE, 0xB0, 0x00, 0x99, 0x08, 0x39, 0x00,
         0x16, 0xF6, 0xAD, 0xFF, 0x48, 0x05, 0x69, 0xFD, 0xD8, 0xFD, 0x6F, 0x01, 0x50, 0x00, 0xFA, 0x00,
         0xE2, 0xFE, 0x5D, 0xFE, 0x29, 0x04, 0xC9, 0x02, 0x7A, 0xFE, 0xFD, 0x00, 0x2D, 0xFB, 0xB7, 0xF4,
         0xB4, 0x02, 0x8A, 0x0D, 0xBF, 0x02, 0x6D, 0xFB, 0x55, 0x00, 0xB8, 0x00, 0x7D, 0xFB, 0xF3, 0xFA,
         0x9B, 0x01, 0x43, 0x06, 0x75, 0x02, 0x1A, 0xFC, 0xBB, 0xFB, 0xF9, 0x01, 0xA5, 0x05, 0x9B, 0xFF,
         0xC0, 0xFA, 0x4A, 0xFF, 0x35, 0x02, 0x6C, 0x03, 0xDF, 0xFE, 0x74, 0xF9, 0xA3, 0x02, 0x9D, 0x03,
         0xDB, 0xFD, 0x85, 0x03, 0x17, 0x00, 0x6A, 0xFA, 0x87, 0x01, 0xB1, 0x00, 0xB8, 0xFD, 0xD5, 0x02,
         0x86, 0xFD, 0xCA, 0xFD, 0x4B, 0x08, 0xB3, 0x02, 0xA3, 0xFB, 0x90, 0xFD, 0xC0, 0xFC, 0x80, 0x00,
         0x50, 0x04, 0x2F, 0xFC, 0x06, 0xFC, 0xC6, 0x07, 0xCD, 0x05, 0xD7, 0xFA, 0xAF, 0xFB, 0x39, 0x02,
         0x72, 0x01, 0x34, 0xFC, 0x63, 0xFD, 0x71, 0x04, 0x18, 0x04, 0x24, 0xFF, 0x6E, 0xFD, 0xE4, 0xFC,
         0x3C, 0x01, 0x61, 0x04, 0xAF, 0xFD, 0xBD, 0xFA, 0x26, 0x03, 0xC9, 0x06, 0x9D, 0xFF, 0xBE, 0xFB,
         0x8C, 0xFC, 0x68, 0xFE, 0x0D, 0x04, 0x19, 0x02, 0x05, 0xFC, 0xD8, 0xFF, 0x64, 0x03, 0x2D, 0x02,
         0xFE, 0x01, 0x8E, 0xFE, 0x15, 0xFB, 0x97, 0xFD, 0x30, 0xFF, 0x73, 0x00, 0x00, 0x04, 0x71, 0x03,
         0x4C, 0xFF, 0x39, 0xFC, 0x5C, 0xFF, 0x3C, 0x03, 0x7B, 0x01, 0x9D, 0xFE, 0x08, 0xFB, 0x9C, 0xFF,
         0x0E, 0x06, 0x25, 0xFF, 0x6F, 0xFB, 0xCF, 0xFF, 0xEB, 0x02, 0x23, 0x04, 0x56, 0xFF, 0x1C, 0xFC,
         0xA4, 0xFF, 0xC8, 0xFE, 0xFC, 0xFF, 0xAF, 0x06, 0xC2, 0xFF, 0x30, 0xF8, 0x08, 0xFF, 0x3C, 0x02,
         0x1B, 0x00, 0x6C, 0x02, 0xED, 0x04, 0x70, 0x01, 0x21, 0xFC, 0x3B, 0xFC, 0xC9, 0xFC, 0x53, 0xFB,
         0xDB, 0x01, 0x71, 0x09, 0x4B, 0x04, 0xF0, 0xFE, 0x83, 0xFE, 0xB4, 0xFA, 0x8F, 0xFB, 0x3B, 0x02,
         0x9E, 0x03, 0x85, 0x01, 0x6C, 0xFE, 0x30, 0xFC, 0x0E, 0x01, 0x62, 0x03, 0x32, 0x01, 0x2B, 0xFF,
         0x1E, 0xFE, 0x04, 0x04, 0xE0, 0x01, 0xD0, 0xF7, 0x76, 0xFB, 0x28, 0x03, 0x19, 0x03, 0xA6, 0x00,
         0x9A, 0x01, 0xE0, 0x03, 0xF4, 0x00, 0x90, 0xFB, 0x15, 0xFA, 0x5B, 0xFE, 0x05, 0x04, 0xB6, 0x02,
         0x72, 0xFE, 0x44, 0x02, 0xD4, 0xFF, 0x8D, 0xFB, 0x5A, 0x05, 0x12, 0x01, 0x77, 0xFB, 0xA3, 0x05,
         0x09, 0xFC, 0x18, 0xF4, 0x75, 0x06, 0x74, 0x09, 0x26, 0xFC, 0xA5, 0xFF, 0x2A, 0x04, 0x74, 0xFD,
         0xDF, 0xFB, 0x8D, 0xFE, 0xC4, 0x01, 0xC3, 0x05, 0xD8, 0x01, 0xAF, 0xF7, 0xE1, 0xFA, 0x98, 0x06,
         0xAB, 0x02, 0x01, 0xFB, 0xA8, 0x02, 0x59, 0x06, 0x1A, 0xFE, 0xF9, 0xFB, 0x1C, 0xFC, 0x8D, 0xFF,
         0x3B, 0x06, 0xB4, 0x00, 0x57, 0xFD, 0xDB, 0x00, 0xCC, 0xFD, 0xA8, 0xFF, 0xBA, 0x03, 0xBC, 0xFD,
         0x4C, 0xFE, 0xBE, 0x03, 0x08, 0xFF, 0x8E, 0xFD, 0x5F, 0x00, 0x7B, 0x01, 0xD8, 0x01, 0x07, 0xFF,
         0x4F, 0xFF, 0x46, 0xFF, 0x38, 0xFE, 0x87, 0x00, 0xB8, 0x00, 0x6E, 0x01, 0x76, 0x02, 0xA7, 0xFE,
         0x8B, 0xFD, 0x2F, 0x00, 0xDE, 0xFE, 0xFF, 0xFE, 0xA4, 0x02, 0xBE, 0x01, 0x5F, 0xFF, 0x95, 0xFF,
         0xD6, 0xFF, 0x7D, 0xFF, 0x84, 0xFF, 0xB8, 0xFF, 0x31, 0x00, 0x15, 0x01, 0xE7, 0xFF, 0x91, 0xFE,
         0xCC, 0x00, 0x57, 0x01, 0xAA, 0xFE, 0x8B, 0xFF, 0x61, 0x01, 0x93, 0xFF, 0x3F, 0xFF, 0x4D, 0x00,
         0xDE, 0xFF, 0x3B, 0x00, 0x8C, 0x00, 0xAB, 0xFF, 0xC7, 0xFF, 0x13, 0x00, 0x00, 0x00
     };

__align(2)
     const U8 motion_dj_vocal_wav_2[DJ_AUD_VOX_WAVE_2_LEN] = 
     {
         0x52, 0x49, 0x46, 0x46, 0xB6, 0x12, 0x00, 0x00, 0x57, 0x41, 0x56, 0x45, 0x66, 0x6D, 0x74, 0x20,
         0x10, 0x00, 0x00, 0x00, 0x01, 0x00, 0x01, 0x00, 0x80, 0x3E, 0x00, 0x00, 0x00, 0x7D, 0x00, 0x00,
         0x02, 0x00, 0x10, 0x00, 0x64, 0x61, 0x74, 0x61, 0x92, 0x12, 0x00, 0x00, 0xFD, 0xFF, 0xF8, 0xFF,
         0x02, 0x00, 0x06, 0x00, 0xEB, 0xFF, 0x02, 0x00, 0x21, 0x00, 0xFA, 0xFF, 0xF1, 0xFF, 0x2D, 0x00,
         0x12, 0x00, 0xB1, 0xFF, 0xD3, 0xFF, 0x5D, 0x00, 0x24, 0x00, 0x7F, 0xFF, 0xE7, 0xFF, 0x70, 0x00,
         0x0E, 0x00, 0x0D, 0x00, 0x15, 0x00, 0x9D, 0xFF, 0xCD, 0xFF, 0x52, 0x00, 0x06, 0x00, 0xB5, 0xFF,
         0xA4, 0x00, 0xB9, 0xFF, 0xA7, 0xFE, 0x1A, 0x01, 0xE0, 0x00, 0x4B, 0xFF, 0x6F, 0x00, 0x10, 0x00,
         0xB2, 0xFF, 0xD0, 0xFF, 0x04, 0xFF, 0xC3, 0xFF, 0x7A, 0x00, 0xFF, 0xFF, 0x15, 0x01, 0x71, 0x01,
         0x08, 0xFF, 0xCC, 0xFE, 0x5F, 0x00, 0xCC, 0xFF, 0x20, 0xFF, 0x03, 0x01, 0xE0, 0x00, 0x43, 0xFE,
         0x65, 0x00, 0x55, 0x00, 0x3A, 0xFE, 0xAA, 0x02, 0x65, 0x01, 0xB6, 0xFC, 0xD1, 0x00, 0xF0, 0x01,
         0x40, 0xFE, 0x2C, 0xFF, 0x90, 0xFF, 0x1D, 0x01, 0x70, 0x02, 0x89, 0xFC, 0x72, 0xFE, 0x49, 0x03,
         0x8D, 0x00, 0xD5, 0xFF, 0xAE, 0xFE, 0x0D, 0x00, 0xDE, 0x00, 0xED, 0xFE, 0xD3, 0x00, 0x3E, 0xFF,
         0x8B, 0xFF, 0x5E, 0x00, 0x2D, 0xFF, 0x68, 0x03, 0x89, 0x00, 0xFC, 0xFA, 0xBC, 0x00, 0x7C, 0x02,
         0x25, 0xFE, 0x6B, 0x00, 0xB4, 0xFF, 0x98, 0xFF, 0x8C, 0x03, 0x5C, 0xFF, 0x78, 0xFE, 0xAE, 0xFF,
         0xEE, 0xFE, 0x85, 0x01, 0x7C, 0xFE, 0x74, 0xFE, 0x29, 0x03, 0x1D, 0xFF, 0xC7, 0xFF, 0x85, 0x04,
         0x9B, 0xFB, 0xCC, 0xFD, 0xB1, 0x04, 0x1F, 0xFD, 0xAD, 0x00, 0x4D, 0x00, 0xE9, 0xFF, 0x86, 0x02,
         0x61, 0xF8, 0x3D, 0x02, 0xFC, 0x06, 0xAC, 0xFB, 0x1D, 0xFF, 0xE5, 0x00, 0x4E, 0x01, 0x92, 0xFE,
         0x55, 0xFE, 0x20, 0x03, 0xF7, 0xFC, 0x56, 0x00, 0xC1, 0x04, 0x17, 0xFD, 0xA6, 0xFE, 0x2F, 0x01,
         0x8E, 0xFD, 0x72, 0xFE, 0xBC, 0x03, 0x0F, 0x03, 0x53, 0xFD, 0x2F, 0xFF, 0x70, 0x00, 0x76, 0xFF,
         0x45, 0x01, 0x3B, 0xFE, 0xE0, 0xFF, 0xE9, 0x00, 0xEC, 0xFE, 0xC5, 0x00, 0x3C, 0xFE, 0xF8, 0x03,
         0xA7, 0x02, 0xDB, 0xF7, 0x55, 0x01, 0xA6, 0x05, 0xA6, 0xFE, 0x85, 0xFD, 0xB5, 0xFB, 0x7E, 0x00,
         0x4A, 0x06, 0x8E, 0xFF, 0x6F, 0xFD, 0xF8, 0x03, 0x8F, 0x00, 0xA7, 0xFA, 0xFC, 0xFD, 0xB3, 0x03,
         0x7C, 0x01, 0x61, 0xFB, 0xB0, 0x01, 0x13, 0x05, 0x7B, 0xFD, 0x70, 0xFC, 0xED, 0xFE, 0x63, 0x01,
         0x6A, 0x01, 0xED, 0x03, 0x93, 0x05, 0x6C, 0xFB, 0x75, 0xFA, 0xCC, 0xFC, 0x5F, 0xFA, 0x93, 0x06,
         0x4A, 0x08, 0x7E, 0xF8, 0xA2, 0xFE, 0x6B, 0x09, 0x2B, 0x00, 0x06, 0xFD, 0x43, 0xFD, 0xBF, 0xFE,
         0xA5, 0x03, 0xC9, 0xFA, 0xEB, 0xFC, 0x61, 0x09, 0xDD, 0x00, 0x77, 0xF6, 0x13, 0xFD, 0x70, 0x04,
         0x4E, 0x04, 0x39, 0x04, 0x06, 0x04, 0x8B, 0xFE, 0xD7, 0xF8, 0x83, 0xFB, 0x86, 0x03, 0x58, 0xFD,
         0x72, 0xF7, 0x58, 0x0B, 0xFA, 0x09, 0x1E, 0xF6, 0xAF, 0xFC, 0xDD, 0xFF, 0x1B, 0x03, 0x1A, 0x0A,
         0x91, 0xFA, 0xCC, 0xF9, 0xFB, 0x07, 0xF4, 0xF9, 0xE9, 0xF8, 0x7F, 0x03, 0x13, 0xFA, 0x7F, 0x07,
         0x18, 0x09, 0xAB, 0xFA, 0xDA, 0x09, 0x8F, 0xFD, 0x95, 0xEC, 0xA2, 0x0A, 0xC1, 0x03, 0x06, 0xE7,
         0x7F, 0x08, 0x59, 0x19, 0x6D, 0xFF, 0x44, 0xFC, 0x59, 0xF9, 0xE6, 0xF5, 0xE1, 0x01, 0x0E, 0x04,
         0x95, 0xFC, 0x46, 0x0C, 0xBD, 0x0C, 0x17, 0xE0, 0x59, 0x00, 0x49, 0x1F, 0xEC, 0xE2, 0xBB, 0xF4,
         0x63, 0x13, 0xC5, 0x07, 0x7E, 0x15, 0x81, 0xF2, 0x7D, 0xE3, 0xCE, 0x07, 0x2C, 0x05, 0x7C, 0xF6,
         0xDC, 0x02, 0xC7, 0x0E, 0xB0, 0x00, 0xA9, 0xFE, 0x9A, 0xFB, 0xDD, 0xEC, 0x04, 0x12, 0xE0, 0x1D,
         0x72, 0xDE, 0xDD, 0xE4, 0x23, 0x1F, 0x6C, 0x08, 0x95, 0xF1, 0xD9, 0x0E, 0xF3, 0x04, 0xB9, 0xEE,
         0x87, 0xF9, 0xDD, 0xFB, 0x30, 0x06, 0xAF, 0x0F, 0x1B, 0xF9, 0xF5, 0xFD, 0x19, 0x07, 0x99, 0xF9,
         0x51, 0x06, 0x62, 0xFD, 0x48, 0xEB, 0xA9, 0x08, 0x1F, 0x0F, 0x0B, 0xF6, 0x1F, 0x00, 0x35, 0x08,
         0x7C, 0x01, 0x37, 0xFD, 0xF0, 0xF5, 0x3C, 0x04, 0xC2, 0xF6, 0x5B, 0x02, 0xBB, 0x1F, 0xAA, 0xE6,
         0x8D, 0xF1, 0x70, 0x1E, 0x47, 0xF7, 0xCA, 0xEF, 0x4C, 0x06, 0xED, 0x0C, 0xC1, 0xF7, 0x40, 0xF4,
         0x6B, 0x13, 0xB6, 0xFC, 0x3D, 0xF1, 0x5B, 0x17, 0x3F, 0xF7, 0x9E, 0xE5, 0xE9, 0x21, 0x70, 0xFB,
         0x8F, 0xE2, 0x23, 0x1E, 0x45, 0x01, 0xC3, 0xF2, 0xB4, 0x02, 0xDE, 0xFF, 0x59, 0x0A, 0x07, 0xF0,
         0x18, 0xFA, 0x7D, 0x14, 0xAA, 0xF9, 0xD2, 0xFD, 0xAC, 0x0A, 0x70, 0xF2, 0x8E, 0xFE, 0x39, 0x0B,
         0x41, 0xF9, 0x80, 0x02, 0x7A, 0xF5, 0xBD, 0xFD, 0xDB, 0x10, 0x50, 0xF5, 0xA5, 0x07, 0xA5, 0x0A,
         0x2A, 0xFC, 0x5C, 0xF2, 0x9C, 0xE9, 0xDF, 0x29, 0x94, 0x07, 0xB1, 0xC3, 0x6B, 0x1A, 0x40, 0x32,
         0xDC, 0xD9, 0xF3, 0xD9, 0x9F, 0x27, 0xAF, 0x1F, 0xA0, 0xC9, 0xEF, 0xE8, 0x80, 0x51, 0x36, 0xFF,
         0x34, 0xA4, 0xC7, 0x31, 0x6C, 0x4D, 0x60, 0xA7, 0x22, 0xD4, 0x1B, 0x49, 0x72, 0xFE, 0x37, 0xE2,
         0xB0, 0xFB, 0xB8, 0x14, 0x97, 0x34, 0xD7, 0xD7, 0x2A, 0xD7, 0x27, 0x24, 0x3D, 0xFD, 0xF1, 0xF3,
         0x4B, 0x08, 0x89, 0x03, 0xBD, 0xE8, 0x83, 0xF4, 0x79, 0x3A, 0xCE, 0x0A, 0x39, 0xB8, 0x7E, 0x0F,
         0x57, 0x43, 0x4D, 0xD9, 0x59, 0xCA, 0x92, 0x19, 0xC5, 0x20, 0x4B, 0x03, 0xC2, 0xEA, 0xAF, 0xED,
         0x3F, 0x13, 0xEE, 0x07, 0x2B, 0xF7, 0xC6, 0x11, 0x38, 0xF1, 0xFB, 0xF0, 0xC1, 0x19, 0xD3, 0xF8,
         0xA3, 0xEA, 0xB3, 0x00, 0xBB, 0x29, 0x4B, 0xF3, 0xA2, 0xBE, 0x71, 0x47, 0x0D, 0x25, 0x54, 0xA9,
         0xCB, 0x07, 0x0A, 0x25, 0xBB, 0xEE, 0xF3, 0x01, 0x26, 0x01, 0xCE, 0xF8, 0xEB, 0x13, 0x15, 0x03,
         0x90, 0xE4, 0x89, 0xF7, 0xF6, 0x17, 0x4C, 0x09, 0xE7, 0xDD, 0x82, 0x10, 0x86, 0x27, 0x06, 0xE4,
         0x3F, 0xF2, 0x7E, 0xFA, 0xF0, 0xF0, 0x70, 0x21, 0xEE, 0x15, 0x7D, 0xDF, 0x6F, 0xEB, 0x4A, 0x1F,
         0xBD, 0x0C, 0xA9, 0xE7, 0xCE, 0x04, 0x29, 0xFE, 0xC4, 0xF9, 0x7A, 0x14, 0x1D, 0xF1, 0x5A, 0xEC,
         0xBA, 0x1C, 0x70, 0x15, 0xF2, 0xE0, 0xB1, 0xE7, 0x8D, 0x21, 0x59, 0x0A, 0x12, 0xE7, 0x48, 0x05,
         0xA3, 0x04, 0x07, 0xFF, 0xEF, 0x09, 0x2A, 0xEE, 0xD6, 0xF2, 0xAA, 0x1C, 0xDD, 0x05, 0x99, 0xEE,
         0xF1, 0x08, 0x36, 0xFC, 0x0F, 0xEF, 0x43, 0x11, 0xFC, 0x08, 0x74, 0xE9, 0x8D, 0x04, 0x3D, 0x14,
         0x7D, 0xF4, 0xD4, 0xF1, 0x9C, 0x11, 0x29, 0x05, 0x0B, 0xEC, 0x91, 0x0C, 0x7D, 0xFF, 0x16, 0xEA,
         0x8B, 0x1B, 0xF3, 0x04, 0x9B, 0xE5, 0x73, 0x19, 0xA8, 0x00, 0x38, 0xD3, 0xF5, 0x15, 0x51, 0x25,
         0xE6, 0xE9, 0x91, 0xEE, 0x69, 0x05, 0x6D, 0x0A, 0x5A, 0x01, 0xC3, 0xF6, 0x84, 0xFC, 0x56, 0x08,
         0xC3, 0x15, 0x30, 0xED, 0x67, 0xE6, 0x17, 0x15, 0xB1, 0xFE, 0xDC, 0xFF, 0x41, 0x0C, 0x5C, 0xEE,
         0x09, 0x05, 0xB7, 0x0D, 0xFE, 0xE8, 0x7B, 0x04, 0x24, 0x15, 0xD3, 0x01, 0x95, 0x00, 0x75, 0xD3,
         0x07, 0x29, 0xC8, 0x14, 0x4B, 0x86, 0xCC, 0x34, 0x61, 0x6C, 0x42, 0x03, 0xA8, 0x0F, 0xCF, 0x91,
         0x08, 0xF9, 0x13, 0x53, 0x06, 0x93, 0x85, 0x05, 0x57, 0x77, 0x7F, 0xBC, 0xED, 0xC0, 0xAB, 0x3D,
         0xB4, 0x0D, 0x31, 0x0E, 0x80, 0xB6, 0x21, 0xF8, 0xB8, 0x4D, 0x6E, 0xBA, 0x89, 0x20, 0xAF, 0x24,
         0x22, 0xA1, 0x7B, 0x55, 0x0B, 0x37, 0xBF, 0x88, 0x7F, 0x1C, 0x7E, 0x4A, 0x57, 0xAB, 0xE8, 0x27,
         0x99, 0x36, 0x40, 0xBF, 0x30, 0xFD, 0x85, 0x29, 0x66, 0x14, 0x6F, 0xE0, 0xAF, 0xBE, 0x50, 0x1C,
         0x87, 0x36, 0xD4, 0xC9, 0x39, 0xF0, 0x1B, 0x41, 0xD3, 0x0C, 0xF7, 0xEC, 0x73, 0xEE, 0xCE, 0xF5,
         0x87, 0x0A, 0x5F, 0x05, 0x8C, 0xF6, 0xB4, 0xED, 0x80, 0xF2, 0x42, 0x1D, 0xBD, 0x21, 0x59, 0xE8,
         0xF2, 0xF0, 0xC5, 0x21, 0x77, 0x15, 0xCB, 0xCB, 0xCF, 0xD9, 0xF0, 0x38, 0xCB, 0xF2, 0x1B, 0xCF,
         0x3B, 0x3C, 0xA4, 0x1D, 0x02, 0xDD, 0xC7, 0xEE, 0xC1, 0xFA, 0x7D, 0x21, 0xB9, 0x13, 0x9A, 0xD2,
         0x9C, 0x06, 0xBF, 0x03, 0xC2, 0xD6, 0xE8, 0x33, 0x6F, 0x0A, 0x97, 0xC5, 0xB5, 0x2B, 0xEA, 0x25,
         0x3C, 0xD1, 0x14, 0xE7, 0x44, 0x1B, 0x77, 0x14, 0xAF, 0xF2, 0x4B, 0xF0, 0x41, 0x03, 0x7E, 0xFB,
         0x25, 0xFA, 0xA8, 0x0E, 0xB4, 0x01, 0xDC, 0x01, 0xE5, 0x18, 0x8E, 0xF6, 0x8C, 0xE4, 0x6A, 0x03,
         0x32, 0xF3, 0x9B, 0x07, 0x1C, 0x20, 0x76, 0xDA, 0x5F, 0xFB, 0x0D, 0x43, 0x94, 0xE8, 0xA3, 0xB6,
         0xE4, 0x1F, 0xC9, 0x3E, 0x31, 0xE2, 0xEB, 0xD1, 0xBD, 0x1D, 0x30, 0x1A, 0x6B, 0xDC, 0xFD, 0x01,
         0xD1, 0x0D, 0x6F, 0xEC, 0x22, 0x1F, 0x2D, 0x03, 0xC7, 0xE0, 0xC5, 0x08, 0xF7, 0xFC, 0xAA, 0x09,
         0xC0, 0x04, 0xE2, 0xE6, 0x85, 0x0C, 0x88, 0x1E, 0x2E, 0xF5, 0xB1, 0xD2, 0x3D, 0xFF, 0x68, 0x3E,
         0xDB, 0x03, 0x7D, 0xC1, 0xFF, 0x0F, 0xE0, 0x1F, 0x8A, 0xDD, 0x04, 0xFE, 0x4E, 0x0E, 0x1B, 0x0C,
         0x91, 0x04, 0x35, 0xEB, 0xBD, 0x0A, 0x35, 0xFB, 0xCA, 0xF1, 0xD8, 0x0D, 0x17, 0xFB, 0x5E, 0x08,
         0xFF, 0x09, 0x32, 0xEA, 0xD3, 0x02, 0x11, 0x08, 0x38, 0xF8, 0x56, 0x1C, 0x42, 0xF2, 0x9A, 0xCC,
         0xA6, 0x22, 0xFB, 0x21, 0xB0, 0xE9, 0xFC, 0xF1, 0xA5, 0xF3, 0x0F, 0x17, 0x71, 0x2A, 0x86, 0xD7,
         0x1B, 0xDF, 0xD4, 0x27, 0xCA, 0xFC, 0x61, 0xEC, 0x05, 0x05, 0x83, 0xFD, 0x6D, 0x12, 0xBB, 0x03,
         0xFD, 0xE3, 0xE7, 0x0E, 0x3C, 0x11, 0xE4, 0xF5, 0x43, 0x04, 0xD1, 0xE5, 0x0A, 0x09, 0x69, 0x22,
         0x0F, 0xD0, 0x8F, 0xFA, 0x6A, 0x28, 0x11, 0xEE, 0xF0, 0xF6, 0x5F, 0x15, 0xC0, 0x03, 0xB2, 0xFC,
         0x64, 0x06, 0x31, 0xEE, 0x58, 0xE2, 0xE2, 0x12, 0x12, 0x20, 0x97, 0xE9, 0xEA, 0xF5, 0x34, 0x1E,
         0xDE, 0xF0, 0x5C, 0xF3, 0x32, 0x0F, 0xF9, 0xFF, 0xA0, 0x01, 0xDE, 0xEC, 0xD8, 0x08, 0xE5, 0x14,
         0x74, 0xDE, 0x18, 0x08, 0x70, 0x1C, 0x8E, 0xE6, 0xBC, 0xF9, 0x39, 0x18, 0x86, 0xFC, 0x11, 0xEE,
         0x3A, 0xFE, 0x3C, 0x12, 0x19, 0x03, 0xE3, 0xE3, 0x9F, 0x05, 0xCF, 0x11, 0x0F, 0x08, 0x6B, 0x0B,
         0xD0, 0xD4, 0xBF, 0xF3, 0x5A, 0x39, 0xCB, 0xE3, 0x7F, 0xCF, 0x7B, 0x3F, 0x84, 0x20, 0x49, 0xD1,
         0xE4, 0xF4, 0xDF, 0x00, 0xD3, 0x00, 0x85, 0x15, 0xA5, 0xF3, 0xFA, 0xEA, 0x0B, 0x12, 0xF7, 0x0E,
         0x95, 0x05, 0xAA, 0xF4, 0x5C, 0xE4, 0xE0, 0x16, 0xF6, 0x17, 0x53, 0xDB, 0xC3, 0xEA, 0x41, 0x1D,
         0x57, 0x17, 0xC4, 0xF4, 0xED, 0xF3, 0xF8, 0xFF, 0x56, 0x03, 0x3C, 0x05, 0x9A, 0xF6, 0x59, 0xF9,
         0x2E, 0x13, 0x2B, 0x00, 0x0B, 0xEA, 0xBF, 0x0A, 0x15, 0x09, 0x1D, 0xFA, 0x88, 0x04, 0x74, 0xEA,
         0x14, 0x04, 0x18, 0x26, 0xEA, 0xEF, 0xC1, 0xE6, 0x4A, 0x0A, 0x53, 0x05, 0x79, 0xFD, 0x27, 0x01,
         0xD7, 0x00, 0x00, 0x06, 0x1D, 0x07, 0x03, 0xF9, 0x9E, 0xF1, 0xBA, 0xF8, 0xFF, 0x07, 0x50, 0x0B,
         0xD5, 0xF9, 0xE1, 0xFB, 0x67, 0x10, 0x2A, 0x05, 0x4E, 0xEE, 0x62, 0x02, 0xB8, 0x0B, 0xF2, 0xF1,
         0x1C, 0xFC, 0x2D, 0xFB, 0x3D, 0xF4, 0x68, 0x1E, 0xD2, 0x10, 0x8A, 0xE0, 0x1C, 0xFB, 0x0B, 0x1B,
         0xF8, 0x03, 0x99, 0xE9, 0xAB, 0xEA, 0xAE, 0x0A, 0xC7, 0x1E, 0x10, 0xFF, 0x03, 0xEE, 0x72, 0xFA,
         0x31, 0x00, 0x05, 0x0A, 0x7F, 0x01, 0xA0, 0xF3, 0x46, 0x09, 0xF5, 0x0B, 0x8A, 0xF3, 0x6D, 0xF8,
         0xFE, 0xFE, 0x75, 0x06, 0x12, 0x12, 0x11, 0xF4, 0x50, 0xEA, 0xA3, 0x14, 0x7C, 0x0E, 0xAE, 0xE6,
         0x06, 0xF0, 0xDE, 0x10, 0xCD, 0x19, 0x63, 0xF9, 0xD7, 0xE5, 0xF7, 0x0A, 0xB0, 0x0E, 0x39, 0xEB,
         0x36, 0x01, 0xC6, 0x12, 0x2F, 0xF7, 0xCD, 0x01, 0x13, 0xFF, 0xC5, 0xDA, 0xE5, 0x0F, 0xA2, 0x3B,
         0x3B, 0xE8, 0x8E, 0xD2, 0xB4, 0x19, 0x12, 0x0D, 0xFC, 0xEA, 0x24, 0x07, 0x16, 0x08, 0x43, 0xFE,
         0x2A, 0x05, 0x3B, 0xED, 0x8D, 0xF5, 0x54, 0x16, 0x2B, 0x0A, 0xDE, 0xFC, 0x93, 0xF5, 0x75, 0xF0,
         0xD2, 0x0D, 0x5C, 0x15, 0x6E, 0xF3, 0x11, 0xF1, 0xC9, 0xFF, 0x9B, 0x09, 0x1B, 0x08, 0xF5, 0xF1,
         0xF5, 0xFD, 0x66, 0x0A, 0x10, 0xFD, 0x9E, 0x0B, 0x88, 0x00, 0x91, 0xDF, 0x85, 0x05, 0x40, 0x1B,
         0x94, 0xF3, 0xE7, 0x00, 0xF0, 0x10, 0xE3, 0xE7, 0xDB, 0xF4, 0x8F, 0x16, 0x97, 0xFA, 0xD2, 0xF7,
         0x1E, 0x0C, 0x71, 0xFF, 0x7C, 0x00, 0x57, 0x03, 0x0D, 0xF7, 0x5A, 0x01, 0x66, 0xFD, 0xDE, 0xF2,
         0x91, 0x10, 0x81, 0x09, 0x2E, 0xF4, 0xBD, 0x08, 0xB8, 0x01, 0x43, 0xF1, 0x09, 0xF9, 0xB8, 0x05,
         0xFD, 0x17, 0x5B, 0x01, 0x03, 0xD9, 0x30, 0x01, 0xD8, 0x23, 0xF6, 0xF6, 0xCC, 0xF0, 0xBD, 0x0C,
         0x72, 0x01, 0xC6, 0xF8, 0xBD, 0xFE, 0xE9, 0xFE, 0x86, 0x04, 0x81, 0xFE, 0xE2, 0xF8, 0xE1, 0x08,
         0xCB, 0x04, 0x86, 0xF8, 0xFE, 0x02, 0xD4, 0x02, 0xC9, 0xF8, 0x35, 0xFF, 0xE9, 0x05, 0xAE, 0x01,
         0x25, 0xF8, 0xA5, 0xFC, 0xA6, 0x0E, 0xBC, 0xFA, 0xF6, 0xED, 0x11, 0x10, 0xE7, 0x0C, 0x63, 0xF0,
         0x27, 0xFF, 0xB3, 0x0C, 0x3E, 0xFE, 0x80, 0xF9, 0x1E, 0xF3, 0xFE, 0xF0, 0xB3, 0x16, 0xAD, 0x21,
         0xFC, 0xEC, 0xB0, 0xE3, 0xF8, 0x12, 0x7F, 0x08, 0x19, 0xED, 0x96, 0x05, 0x70, 0x09, 0x98, 0xFD,
         0x98, 0xFB, 0x6E, 0xF2, 0xDE, 0x07, 0x18, 0x13, 0xEC, 0xF9, 0x9A, 0xF9, 0x03, 0xFF, 0x3F, 0xF7,
         0x50, 0x08, 0x3E, 0x0C, 0x4E, 0xF3, 0x77, 0xF7, 0x3A, 0x0D, 0xF5, 0x0B, 0x11, 0xEE, 0x73, 0xF0,
         0xC9, 0x15, 0x08, 0xFF, 0xED, 0xF1, 0xD6, 0x17, 0x25, 0x02, 0xDF, 0xE4, 0xFA, 0x0A, 0x83, 0x0B,
         0xB2, 0xEE, 0x3D, 0x06, 0xAE, 0x09, 0xCE, 0xED, 0x92, 0xFD, 0xF1, 0x13, 0xDF, 0x01, 0x1A, 0xF2,
         0x7C, 0xFF, 0x05, 0x0A, 0xDB, 0x00, 0x3A, 0xF8, 0x2D, 0x00, 0x97, 0x01, 0x56, 0xF8, 0x56, 0xFE,
         0x79, 0x0A, 0xD8, 0x05, 0xA3, 0x01, 0x26, 0xFA, 0x2F, 0xFA, 0x9E, 0x04, 0x5E, 0xF6, 0xEB, 0xFD,
         0xB8, 0x11, 0xB9, 0xFA, 0xD3, 0xF5, 0xB8, 0x09, 0x40, 0x03, 0x15, 0xFA, 0x86, 0x00, 0xD0, 0xFE,
         0xC6, 0x01, 0x21, 0x03, 0xC1, 0xFD, 0xC0, 0xFE, 0x87, 0xFC, 0x10, 0xFB, 0x28, 0xFD, 0x85, 0x0C,
         0xBC, 0x0F, 0x45, 0xF1, 0x04, 0xF6, 0xA7, 0x0C, 0x4B, 0xFE, 0x8D, 0xF5, 0x0A, 0x04, 0xDB, 0x05,
         0x2C, 0xF9, 0xEC, 0xFD, 0x37, 0x0E, 0xEE, 0xFD, 0x37, 0xEF, 0x2C, 0x06, 0x09, 0x0A, 0x20, 0xFB,
         0x71, 0x00, 0xA7, 0xFA, 0x42, 0x04, 0x92, 0x10, 0x4E, 0xEE, 0x39, 0xED, 0x03, 0x11, 0xEB, 0x07,
         0xF0, 0xF8, 0xF7, 0xFE, 0xC4, 0x02, 0xAA, 0x05, 0x66, 0x07, 0x46, 0xEF, 0xA7, 0xF1, 0x3C, 0x1F,
         0xA7, 0xFC, 0x32, 0xD2, 0x35, 0x1E, 0x36, 0x26, 0x6C, 0xE4, 0x33, 0x07, 0xAC, 0xFA, 0xDD, 0xC5,
         0xAC, 0x27, 0xF1, 0x2D, 0x51, 0xC4, 0x59, 0x00, 0x33, 0x52, 0x12, 0xFD, 0xED, 0xA6, 0xAE, 0xEE,
         0x5F, 0x50, 0x43, 0xEF, 0x92, 0xAA, 0x5E, 0x41, 0x8E, 0x59, 0x68, 0xC8, 0xDD, 0xCF, 0xF4, 0x0A,
         0x55, 0xEC, 0x25, 0x1A, 0x97, 0x1A, 0xFD, 0xD5, 0xF0, 0x14, 0xE9, 0x3D, 0x27, 0xD4, 0xCB, 0xC0,
         0x01, 0x04, 0x96, 0x12, 0xE1, 0x22, 0x65, 0x20, 0xBA, 0xDC, 0xBC, 0xE5, 0xEB, 0x1A, 0xCE, 0x03,
         0xCF, 0xD8, 0x6D, 0xEF, 0xA9, 0x24, 0xA0, 0x20, 0x44, 0xFC, 0xFC, 0xE9, 0x20, 0xED, 0x69, 0x16,
         0x94, 0x0F, 0x14, 0xD9, 0x1B, 0xF9, 0x8E, 0x1F, 0xC4, 0xFA, 0x4E, 0xFB, 0xA6, 0xFF, 0x40, 0xF8,
         0x55, 0x17, 0xD6, 0x01, 0x33, 0xFA, 0x4F, 0x0E, 0x73, 0xDD, 0x6E, 0xEA, 0x26, 0x17, 0xC1, 0xFD,
         0x4A, 0x10, 0x8D, 0x19, 0xDE, 0xE6, 0xDF, 0xF7, 0x37, 0x08, 0x4B, 0xF0, 0x66, 0x06, 0xD8, 0x05,
         0x69, 0xF8, 0xE2, 0x10, 0xC9, 0xFE, 0x32, 0xEF, 0xCF, 0x0F, 0xFB, 0xF7, 0x2E, 0xE6, 0x41, 0x1E,
         0x9E, 0x0D, 0x12, 0xD1, 0x5D, 0x0C, 0x1E, 0x36, 0x18, 0xEA, 0xE5, 0xE8, 0x9C, 0x12, 0x11, 0xE9,
         0xD7, 0xF6, 0x8A, 0x1E, 0x73, 0xED, 0x4B, 0xF0, 0x1C, 0x2B, 0x81, 0xFD, 0x0B, 0xE2, 0x78, 0x20,
         0xA0, 0xFC, 0x53, 0xCA, 0x35, 0x1E, 0x87, 0x1D, 0xA4, 0xE0, 0x04, 0x2E, 0xD1, 0xFF, 0xA5, 0x87,
         0x69, 0x29, 0x6B, 0x62, 0x21, 0xB3, 0x8C, 0xEC, 0xE4, 0x7B, 0x6D, 0xFA, 0x00, 0x80, 0xC7, 0xF9,
         0x92, 0x76, 0x7E, 0xD6, 0xAF, 0x95, 0xEF, 0x4F, 0xB2, 0x57, 0xB8, 0xAB, 0x84, 0xB6, 0x53, 0x12,
         0xBA, 0xD5, 0xCB, 0x24, 0x44, 0x42, 0x1E, 0xC3, 0xC8, 0x0C, 0xAC, 0x5B, 0x06, 0xBE, 0x38, 0xA7,
         0x1A, 0x0C, 0x3D, 0x0D, 0xE5, 0x37, 0xCB, 0x47, 0x8C, 0xB3, 0x02, 0xC2, 0x22, 0x48, 0x28, 0x11,
         0x1B, 0xB2, 0x5D, 0xE0, 0xD4, 0x34, 0x95, 0x48, 0x74, 0x0A, 0x2B, 0xBA, 0xB7, 0xD4, 0x94, 0x38,
         0xBF, 0x22, 0x78, 0xC5, 0x47, 0xE1, 0xBC, 0x2C, 0x1D, 0x13, 0x2A, 0xEE, 0xD8, 0xE6, 0xC7, 0x06,
         0xD1, 0x32, 0x8E, 0xF8, 0x24, 0xF1, 0x88, 0x19, 0xE2, 0xCD, 0xC4, 0xDE, 0x6F, 0x2B, 0x5B, 0xED,
         0x20, 0x01, 0x70, 0x48, 0x6F, 0xE7, 0x91, 0xD3, 0x93, 0x0F, 0x90, 0xF8, 0x5C, 0x08, 0x0C, 0x07,
         0xF0, 0xF4, 0x12, 0x1F, 0x1F, 0xEE, 0xAA, 0xD6, 0x08, 0x36, 0x7F, 0xFA, 0x63, 0xC2, 0x68, 0x38,
         0x4E, 0x13, 0xED, 0xB6, 0xEF, 0x16, 0x87, 0x3B, 0xB1, 0xE2, 0x3F, 0xFC, 0x54, 0x22, 0x54, 0xD3,
         0xF3, 0xE6, 0x29, 0x2C, 0x0A, 0xE2, 0xD4, 0xD4, 0x50, 0x36, 0x94, 0x2B, 0x45, 0xEF, 0x98, 0xF4,
         0x38, 0xF8, 0x4F, 0xF7, 0xDD, 0x07, 0x54, 0xEB, 0x77, 0xEF, 0x8E, 0x4C, 0xE8, 0x15, 0xB8, 0x89,
         0x68, 0xF4, 0xF9, 0x68, 0x27, 0xE9, 0x12, 0xCC, 0x64, 0x4D, 0xB4, 0x0C, 0x5C, 0x97, 0xBF, 0x0D,
         0xD1, 0x58, 0x1E, 0xC7, 0x56, 0xBC, 0x8B, 0x55, 0xA7, 0x2F, 0x68, 0xC7, 0xE0, 0x05, 0x34, 0x05,
         0x78, 0xB1, 0x02, 0x16, 0xE7, 0x58, 0x09, 0xE0, 0x57, 0xD5, 0xC6, 0x29, 0xE4, 0x07, 0x10, 0xE6,
         0x72, 0xFA, 0xCA, 0xFB, 0xE8, 0x17, 0xA8, 0x24, 0x3E, 0xC2, 0x6E, 0xC2, 0xD1, 0x49, 0xA4, 0x2F,
         0x6F, 0xCC, 0xED, 0xEC, 0x55, 0x14, 0xBF, 0x28, 0xAF, 0x1E, 0x91, 0xB6, 0x94, 0xB4, 0x16, 0x3D,
         0x41, 0x3A, 0x64, 0xDC, 0xE3, 0xE6, 0xF3, 0x23, 0x9B, 0x1D, 0x1B, 0xD9, 0x99, 0xCE, 0x46, 0x0F,
         0x9F, 0x32, 0x13, 0x0C, 0x14, 0xE5, 0xA9, 0xF9, 0x30, 0xFF, 0xED, 0xFB, 0x18, 0x0C, 0x1A, 0xF0,
         0x31, 0xEF, 0xEA, 0x2D, 0x03, 0x0D, 0xB9, 0xCB, 0x3A, 0xFB, 0x37, 0x20, 0x37, 0x0A, 0xA9, 0xEF,
         0x6A, 0xEB, 0x4B, 0x20, 0x68, 0x04, 0x90, 0xD9, 0x61, 0x1C, 0x59, 0x06, 0x36, 0xE5, 0x60, 0x15,
         0x14, 0xF4, 0x20, 0xE8, 0x46, 0x1D, 0xD3, 0x07, 0x4B, 0xE6, 0x58, 0x11, 0xC2, 0x21, 0xB0, 0xEE,
         0x18, 0xE4, 0xE4, 0x0C, 0xA8, 0xFB, 0xC5, 0xDF, 0x0D, 0x10, 0xAB, 0x1C, 0x00, 0xFB, 0xAB, 0x01,
         0xF4, 0x01, 0x13, 0xFD, 0xF3, 0x02, 0xFC, 0xEB, 0x26, 0xF1, 0x2A, 0x28, 0x7E, 0x0D, 0x72, 0xC7,
         0x4E, 0xFB, 0xA2, 0x35, 0xE6, 0xF6, 0x74, 0xE9, 0x01, 0x21, 0x62, 0xFB, 0x4F, 0xD7, 0x47, 0x13,
         0xDB, 0x11, 0x0F, 0xDC, 0xF2, 0xFC, 0x5B, 0x23, 0x13, 0x02, 0x10, 0xF7, 0x2D, 0x18, 0x61, 0xF7,
         0x43, 0xC5, 0x56, 0x0B, 0x22, 0x3A, 0xF1, 0xEA, 0xE9, 0xD7, 0xC1, 0x15, 0x6C, 0x15, 0x03, 0x04,
         0x4B, 0xFD, 0xC4, 0xF3, 0xC8, 0x06, 0x8A, 0xF9, 0x50, 0xEA, 0x40, 0xFA, 0x6C, 0x11, 0x0D, 0x1F,
         0x8B, 0xEF, 0x94, 0xF3, 0x17, 0x0A, 0x23, 0xFB, 0xF2, 0x24, 0xE5, 0xED, 0xC1, 0xBC, 0x46, 0x1F,
         0xAC, 0x20, 0x91, 0xEB, 0xB8, 0xF9, 0xFC, 0x19, 0xFC, 0x18, 0xD0, 0xD9, 0x55, 0xDE, 0xE5, 0x17,
         0x2A, 0x0E, 0xDE, 0xFF, 0x37, 0xFE, 0x48, 0xFA, 0x40, 0x08, 0x17, 0x03, 0x51, 0xF8, 0x50, 0xFD,
         0x50, 0xEF, 0x18, 0x07, 0x4D, 0x21, 0x8A, 0xEC, 0xA7, 0xEC, 0x8A, 0x1C, 0xE4, 0x04, 0xA0, 0xE3,
         0xBD, 0xF1, 0x89, 0x1E, 0x38, 0x16, 0xB7, 0xE2, 0x67, 0xF3, 0x2D, 0x14, 0x03, 0x09, 0xA8, 0xF1,
         0x95, 0xED, 0xEF, 0x0F, 0x83, 0x13, 0x5B, 0xE9, 0x1F, 0xEF, 0x7C, 0x13, 0x03, 0x12, 0x9D, 0xFF,
         0x8C, 0xF0, 0xB4, 0xFC, 0xFA, 0x0F, 0x45, 0xF7, 0x47, 0xF1, 0x4E, 0x04, 0x32, 0xFB, 0xE8, 0x07,
         0xA1, 0x0D, 0xFB, 0xF6, 0xF5, 0x09, 0xED, 0x02, 0x91, 0xEC, 0x2A, 0x02, 0x1F, 0xFB, 0xFD, 0x03,
         0x4D, 0x09, 0x78, 0xF1, 0xB9, 0x07, 0xE2, 0x0F, 0xBD, 0xFF, 0xAC, 0xF3, 0x35, 0xFA, 0x64, 0x0C,
         0x32, 0xEE, 0x13, 0xF6, 0xD2, 0x16, 0xB9, 0xFA, 0xBD, 0xFC, 0x93, 0x12, 0xB4, 0x04, 0x9F, 0xF1,
         0x54, 0xF1, 0xE9, 0x0B, 0x11, 0x0A, 0x5A, 0xEE, 0x89, 0xF8, 0xC0, 0x0A, 0xCD, 0x02, 0xED, 0x06,
         0xCC, 0xFF, 0x1E, 0xFA, 0x64, 0x0A, 0xEB, 0xEB, 0x98, 0x03, 0x67, 0x1D, 0xFE, 0xE0, 0xA6, 0xFB,
         0xE2, 0x0C, 0x5E, 0xF9, 0xAB, 0x08, 0x63, 0xF0, 0x87, 0x0D, 0xE8, 0x19, 0x9D, 0xEC, 0x27, 0xF8,
         0xCD, 0xFA, 0xDF, 0xF8, 0x0E, 0x06, 0xC4, 0x09, 0xC9, 0x05, 0x09, 0xF2, 0x84, 0xFD, 0xE3, 0x0E,
         0xA3, 0xF8, 0xAC, 0xFA, 0x8F, 0x0F, 0x54, 0xFE, 0xC9, 0xF6, 0xFB, 0x01, 0x2F, 0xFB, 0x3B, 0xFD,
         0xFB, 0xFB, 0x0D, 0xFF, 0xBF, 0x14, 0x5E, 0x03, 0x80, 0xF1, 0xBD, 0x0A, 0xAA, 0xFD, 0x02, 0xE8,
         0xD5, 0x02, 0x06, 0x14, 0x0B, 0x0F, 0xD2, 0xF1, 0x5A, 0xE8, 0x24, 0x0B, 0xB1, 0x06, 0x78, 0xF9,
         0x16, 0x06, 0xFA, 0x06, 0x40, 0x01, 0x51, 0xF8, 0xA8, 0xFB, 0xF9, 0x05, 0x92, 0xFD, 0x55, 0xF6,
         0xD0, 0xFF, 0x67, 0x09, 0x1D, 0x0B, 0xBC, 0xFF, 0xC5, 0xF4, 0xD1, 0x00, 0x0F, 0xFB, 0x7A, 0xFC,
         0xAF, 0x09, 0x06, 0xF6, 0x58, 0x0A, 0xB7, 0x0C, 0x60, 0xF1, 0x32, 0xFD, 0x68, 0xFA, 0x72, 0x15,
         0xA0, 0xFE, 0x19, 0xD8, 0x1E, 0x19, 0x52, 0x0F, 0xAE, 0xF1, 0xE3, 0x06, 0x14, 0xFB, 0xAF, 0xFF,
         0x5A, 0xFC, 0x56, 0x00, 0x4C, 0x0B, 0x39, 0xF6, 0xAE, 0xFC, 0xE1, 0x0A, 0x75, 0xFF, 0x23, 0xF4,
         0x4C, 0x01, 0x95, 0x0E, 0x94, 0xFA, 0x23, 0xFB, 0x46, 0x04, 0x92, 0xF4, 0x03, 0x02, 0x18, 0x09,
         0x01, 0xF6, 0x02, 0x07, 0x13, 0x0C, 0x69, 0xF8, 0x60, 0x05, 0x75, 0x04, 0xD6, 0xE5, 0xB3, 0xF0,
         0x5E, 0x17, 0x30, 0x09, 0x3C, 0xFA, 0x70, 0x06, 0xC2, 0xF5, 0x6B, 0x08, 0x3C, 0x12, 0x8F, 0xE7,
         0x63, 0xF3, 0x2E, 0x10, 0x40, 0x07, 0x16, 0xF6, 0x57, 0xF2, 0x76, 0x08, 0xB8, 0x09, 0xC7, 0xF3,
         0x10, 0x06, 0x7D, 0x19, 0xD5, 0xF8, 0x9B, 0xE6, 0x52, 0x00, 0x6E, 0x0F, 0x30, 0xFE, 0xBF, 0xF1,
         0x0A, 0x02, 0x8E, 0x0B, 0x76, 0x03, 0xC1, 0xF3, 0x59, 0xFB, 0x9A, 0x14, 0xBC, 0xF9, 0x55, 0xF0,
         0x8D, 0x0F, 0x3A, 0x04, 0x3A, 0xFB, 0x00, 0x02, 0x70, 0xFD, 0xA5, 0xF1, 0xA6, 0xF2, 0x44, 0x13,
         0x5C, 0x14, 0xA7, 0xF6, 0xC3, 0xF6, 0x40, 0x05, 0x95, 0x09, 0x5E, 0xFE, 0x63, 0xF0, 0x71, 0xF5,
         0x8E, 0x06, 0xA3, 0x0E, 0x2C, 0x03, 0x76, 0xF9, 0x08, 0xFE, 0xC6, 0xFB, 0x35, 0x02, 0x21, 0x0C,
         0xAA, 0xF9, 0xD9, 0xF4, 0xA5, 0x02, 0x01, 0x06, 0x82, 0xFF, 0xD9, 0xF6, 0x01, 0x0D, 0x3C, 0x0D,
         0xD4, 0xEF, 0x31, 0xFC, 0xFE, 0x00, 0xE9, 0xF6, 0x52, 0x01, 0x1A, 0x0A, 0x63, 0x06, 0xAC, 0xF8,
         0xA3, 0xFE, 0xC3, 0x05, 0x56, 0xFB, 0xA9, 0x01, 0x3B, 0x02, 0x2B, 0xFA, 0xA4, 0x02, 0x7A, 0x00,
         0xC9, 0xF6, 0x9A, 0xFF, 0x3A, 0x0D, 0xA1, 0x07, 0xB5, 0xF6, 0x24, 0xF9, 0xB9, 0x00, 0xB5, 0xF8,
         0x04, 0xFF, 0x56, 0x10, 0x39, 0x08, 0x4F, 0xFD, 0x07, 0x02, 0x67, 0xF6, 0x28, 0xEF, 0xAF, 0xFD,
         0x33, 0x04, 0x27, 0x0C, 0xE9, 0x05, 0x13, 0xF9, 0x26, 0x08, 0x22, 0x08, 0xD3, 0xF6, 0x26, 0xEF,
         0x44, 0xFF, 0x62, 0x13, 0xFC, 0xFB, 0x8F, 0xEF, 0xBE, 0x04, 0x96, 0x0B, 0xAE, 0xFD, 0x78, 0xF9,
         0xC6, 0x10, 0x4E, 0x04, 0x05, 0xE5, 0x2D, 0xFB, 0x73, 0x11, 0x19, 0x02, 0xD4, 0xF7, 0xF2, 0x05,
         0xA2, 0x07, 0xEB, 0xF7, 0xB6, 0xF9, 0x33, 0x02, 0xDF, 0x02, 0x7B, 0xFB, 0x39, 0xFC, 0x3F, 0x07,
         0x04, 0x05, 0x8C, 0x04, 0xEE, 0x01, 0xC6, 0xF9, 0x14, 0xF9, 0x22, 0xF6, 0xC1, 0x00, 0x9C, 0x0B,
         0x8A, 0x00, 0x32, 0xFE, 0x50, 0x05, 0x69, 0x03, 0x84, 0xFF, 0xA6, 0xFB, 0xB6, 0xF7, 0x75, 0xFA,
         0x8B, 0x06, 0x2E, 0x0A, 0x6A, 0xFE, 0x6E, 0xFC, 0xAA, 0xFF, 0x4F, 0xFC, 0xB4, 0x02, 0x65, 0x05,
         0x2F, 0xFA, 0xFF, 0xFB, 0xE8, 0x05, 0xBB, 0x00, 0x15, 0xFC, 0x1F, 0x03, 0x58, 0x05, 0x04, 0xFE,
         0x7C, 0xFB, 0xC8, 0xFF, 0xD2, 0xFA, 0x10, 0xFC, 0x08, 0x09, 0xF0, 0x03, 0x44, 0xFF, 0xAC, 0x04,
         0x1F, 0xFD, 0xF4, 0xF7, 0xA2, 0xFD, 0x21, 0x01, 0xC7, 0x02, 0x16, 0x09, 0x42, 0x04, 0xDD, 0xF2,
         0x51, 0xF9, 0xA4, 0x09, 0x33, 0x03, 0x57, 0xF8, 0xF7, 0xFA, 0xCC, 0x04, 0x56, 0x05, 0x61, 0xFE,
         0xA9, 0x02, 0x34, 0x06, 0x2C, 0xFD, 0x0E, 0xFB, 0xF9, 0xFD, 0x96, 0xFB, 0x2A, 0xFD, 0x6B, 0x02,
         0x25, 0x04, 0xDA, 0xFF, 0x68, 0x02, 0xDF, 0x06, 0x56, 0xFF, 0xCF, 0xFB, 0x5F, 0xF9, 0x15, 0xFE,
         0x63, 0x08, 0xEF, 0xFD, 0xE9, 0xF8, 0x66, 0x02, 0x75, 0x07, 0x1E, 0x01, 0xAE, 0xF7, 0x02, 0x05,
         0x75, 0x06, 0xAE, 0xF4, 0xFE, 0xFC, 0xFA, 0x07, 0x04, 0x00, 0x10, 0xFB, 0xE3, 0x02, 0x86, 0x04,
         0xE2, 0xFB, 0x14, 0x00, 0x6F, 0x02, 0xB4, 0xFC, 0xAD, 0xFF, 0x8C, 0xFE, 0x37, 0xFE, 0x24, 0x06,
         0xB0, 0x03, 0xAA, 0xFA, 0x05, 0xFE, 0x63, 0x05, 0x9A, 0xFC, 0xAE, 0xF6, 0x23, 0x05, 0x10, 0x0B,
         0xAA, 0xFF, 0x82, 0xF8, 0x07, 0xFD, 0xAA, 0x03, 0xA5, 0x01, 0x7B, 0xFC, 0x80, 0xFB, 0xFB, 0x01,
         0x0A, 0x0A, 0xBC, 0x04, 0xDB, 0xFB, 0x4C, 0xF8, 0x24, 0xF8, 0x72, 0x00, 0x98, 0x06, 0xF0, 0x02,
         0x51, 0x01, 0x4B, 0x03, 0x1F, 0x01, 0x5A, 0xFD, 0x19, 0xFB, 0xFE, 0xFC, 0x3D, 0x01, 0x02, 0x00,
         0xFB, 0xFF, 0x9E, 0x00, 0xB1, 0x00, 0x5C, 0x03, 0x96, 0x00, 0x7C, 0x02, 0x10, 0x04, 0xEC, 0xF9,
         0x4D, 0xF6, 0x45, 0xFC, 0x5B, 0x03, 0xAD, 0x04, 0x19, 0x06, 0xC6, 0x08, 0xC6, 0xFB, 0xAD, 0xF4,
         0xFD, 0xFE, 0xFF, 0x01, 0x66, 0xFD, 0xCC, 0xFB, 0x71, 0x04, 0x1E, 0x0D, 0x79, 0x02, 0x7A, 0xF6,
         0xA2, 0xFC, 0x5F, 0x01, 0x9E, 0xFC, 0x9A, 0xFE, 0x4B, 0x04, 0x5C, 0x04, 0xF8, 0xFF, 0xEC, 0xFA,
         0xD3, 0xFB, 0xDB, 0x02, 0x08, 0x06, 0xC4, 0xFE, 0xDE, 0xFC, 0xCD, 0x04, 0x62, 0x01, 0xE9, 0xF8,
         0x45, 0xFC, 0x33, 0x02, 0xCF, 0x02, 0x7D, 0x01, 0x8A, 0x00, 0x1D, 0xFF, 0x0E, 0xFF, 0x0E, 0x01,
         0x3B, 0x01, 0x5A, 0x00, 0xC1, 0xFF, 0x69, 0xFD, 0x9E, 0xFB, 0x25, 0xFE, 0x4F, 0x03, 0xEC, 0x05,
         0x1A, 0x01, 0x44, 0xFD, 0x1B, 0x03, 0x7F, 0x02, 0xEB, 0xF8, 0x7E, 0xFC, 0xE6, 0x04, 0xA8, 0xFE,
         0x1D, 0xF9, 0x71, 0x01, 0x6F, 0x07, 0xA0, 0x00, 0x66, 0xFB, 0x10, 0x04, 0x4E, 0x0B, 0x11, 0xFE,
         0x21, 0xF0, 0xF5, 0xF9, 0x24, 0x06, 0x4C, 0x02, 0xD1, 0xFF, 0xCF, 0x01, 0xCF, 0x00, 0x2E, 0x05,
         0x75, 0x07, 0x9B, 0xFA, 0xC5, 0xF1, 0x82, 0xFC, 0xE6, 0x04, 0x19, 0x01, 0x82, 0x01, 0xD9, 0x05,
         0xAE, 0x05, 0xC7, 0x00, 0x04, 0xFA, 0x4E, 0xFA, 0xE9, 0x00, 0xFF, 0xFF, 0x1B, 0xF9, 0x82, 0xFC,
         0xB4, 0x07, 0x09, 0x09, 0xDF, 0x01, 0x94, 0xFE, 0x9A, 0xFF, 0xCC, 0xFE, 0x58, 0xFB, 0xFC, 0xFB,
         0x9C, 0x01, 0xC3, 0x01, 0x43, 0xFD, 0x2F, 0x00, 0xA2, 0x05, 0x2C, 0x02, 0x65, 0xFB, 0x1D, 0xFD,
         0x22, 0x07, 0xF1, 0x05, 0x9D, 0xF6, 0xA0, 0xF7, 0x4F, 0x08, 0xA0, 0x05, 0x49, 0xF7, 0x5E, 0xFB,
         0xAD, 0x05, 0x70, 0x04, 0x00, 0x01, 0xC6, 0xFE, 0x00, 0xFD, 0xA8, 0x00, 0xBD, 0x01, 0xC2, 0xFD,
         0xA8, 0xFD, 0x2F, 0xFF, 0x9C, 0x00, 0xCB, 0x04, 0xE6, 0x03, 0xA3, 0xFD, 0xF6, 0xFB, 0xE2, 0xFD,
         0x1F, 0x00, 0x03, 0x02, 0x6D, 0x00, 0x3E, 0x00, 0x9D, 0x02, 0x44, 0xFF, 0x7A, 0xFC, 0x23, 0x01,
         0xBE, 0x00, 0xAA, 0xFC, 0x09, 0x01, 0xD1, 0x02, 0xD0, 0xFD, 0x51, 0x01, 0x0B, 0x06, 0xCD, 0xFE,
         0x1A, 0xFA, 0x09, 0xFE, 0xCC, 0xFD, 0xDE, 0xFE, 0xD3, 0x06, 0x9B, 0x05, 0xD1, 0xFB, 0x99, 0xFC,
         0x7D, 0x03, 0x95, 0x01, 0x8D, 0xFB, 0x79, 0xFB, 0x6C, 0x01, 0x91, 0x06, 0x38, 0x02, 0x65, 0xF8,
         0x52, 0xF9, 0x4C, 0x06, 0x3F, 0x0B, 0x53, 0x00, 0x9F, 0xF7, 0xD3, 0xFD, 0x5D, 0x04, 0xB4, 0xFE,
         0x4F, 0xF9, 0x8B, 0xFC, 0x4F, 0x01, 0x07, 0x08, 0x9B, 0x0A, 0x2A, 0xFE, 0x29, 0xF6, 0xD5, 0xFF,
         0x51, 0x01, 0x2D, 0xF9, 0xEA, 0x00, 0xAF, 0x09, 0x21, 0xFF, 0x39, 0xF8, 0x1A, 0x01, 0x43, 0x06,
         0x98, 0x00, 0x0A, 0xFB, 0x03, 0xFF, 0xFC, 0x05, 0xBD, 0x00, 0xFC, 0xF7, 0x9E, 0xFC, 0x5A, 0x03,
         0x2E, 0x04, 0xF7, 0x05, 0xC3, 0x00, 0x23, 0xF8, 0x19, 0xFC, 0xA0, 0xFF, 0x86, 0xFC, 0xB0, 0x04,
         0x8B, 0x0B, 0x68, 0x01, 0x38, 0xFB, 0x42, 0xFD, 0x99, 0xFA, 0x17, 0xFC, 0xE4, 0x01, 0xA7, 0x02,
         0xF1, 0x03, 0x05, 0x01, 0x8C, 0xFB, 0x0E, 0x04, 0xF1, 0x08, 0x97, 0xFA, 0xF0, 0xF6, 0x64, 0x00,
         0x48, 0xFE, 0x2C, 0xFF, 0x90, 0x06, 0x09, 0xFF, 0x41, 0xFC, 0xF4, 0x08, 0xD9, 0x05, 0x11, 0xF8,
         0x3E, 0xF9, 0x49, 0xFF, 0x2D, 0x02, 0xEF, 0x02, 0x73, 0xFC, 0x2D, 0xFE, 0x46, 0x0A, 0x94, 0x03,
         0xBB, 0xF4, 0x27, 0xFC, 0xF4, 0x05, 0xDC, 0xFF, 0xF3, 0xFC, 0x9B, 0x02, 0xBC, 0x05, 0xBD, 0x01,
         0x59, 0xF9, 0xED, 0xF9, 0xC8, 0x03, 0xA0, 0x03, 0x2D, 0xFD, 0x59, 0xFF, 0x6A, 0x00, 0xC7, 0xFD,
         0x85, 0x03, 0x1A, 0x07, 0x0E, 0xFE, 0xCC, 0xFA, 0x11, 0x02, 0x1D, 0x00, 0x39, 0xF8, 0x00, 0xFC,
         0xF5, 0x05, 0x41, 0x06, 0x6D, 0x00, 0x82, 0x01, 0x78, 0x01, 0x30, 0xFB, 0x8A, 0xFC, 0xB1, 0x01,
         0x72, 0xFF, 0xFB, 0xFC, 0xDA, 0xFE, 0xE6, 0x02, 0xB3, 0x06, 0x42, 0x01, 0xFF, 0xF9, 0x62, 0x01,
         0xFE, 0x05, 0xEE, 0xF9, 0x6B, 0xF7, 0xC7, 0x02, 0x09, 0x04, 0x11, 0x00, 0x1E, 0x01, 0xF5, 0xFF,
         0xC9, 0x00, 0x99, 0x02, 0x89, 0xFD, 0x8E, 0xFF, 0x81, 0x05, 0x31, 0xFD, 0x35, 0xF7, 0xF5, 0xFC,
         0x14, 0xFE, 0x3D, 0x02, 0x3F, 0x0C, 0x0C, 0x07, 0xB1, 0xFC, 0xA7, 0xFE, 0xAB, 0xFC, 0x1E, 0xF8,
         0x54, 0xFD, 0x6C, 0xFF, 0x5F, 0x01, 0xC4, 0x07, 0x6C, 0x03, 0x87, 0xFD, 0x47, 0x01, 0x40, 0x00,
         0xB8, 0xFA, 0x70, 0xFF, 0x9A, 0x04, 0x8A, 0xFD, 0x8C, 0xF9, 0x2E, 0xFE, 0x41, 0x02, 0x9F, 0x07,
         0xD5, 0x08, 0xAC, 0xFF, 0xFC, 0xF8, 0x5D, 0xFB, 0x2F, 0xFE, 0xFF, 0xFD, 0x6C, 0xFD, 0xF4, 0x00,
         0xDC, 0x07, 0x8E, 0x05, 0xDB, 0xFA, 0x1D, 0xFA, 0xDD, 0x05, 0xA7, 0x07, 0xB9, 0xFA, 0xB9, 0xF9,
         0x81, 0x00, 0x77, 0xFD, 0x12, 0xFF, 0xE1, 0x03, 0xF9, 0xFE, 0xB0, 0x00, 0x99, 0x08, 0x39, 0x00,
         0x16, 0xF6, 0xAD, 0xFF, 0x48, 0x05, 0x69, 0xFD, 0xD8, 0xFD, 0x6F, 0x01, 0x50, 0x00, 0xFA, 0x00,
         0xE2, 0xFE, 0x5D, 0xFE, 0x29, 0x04, 0xC9, 0x02, 0x7A, 0xFE, 0xFD, 0x00, 0x2D, 0xFB, 0xB7, 0xF4,
         0xB4, 0x02, 0x8A, 0x0D, 0xBF, 0x02, 0x6D, 0xFB, 0x55, 0x00, 0xB8, 0x00, 0x7D, 0xFB, 0xF3, 0xFA,
         0x9B, 0x01, 0x43, 0x06, 0x75, 0x02, 0x1A, 0xFC, 0xBB, 0xFB, 0xF9, 0x01, 0xA5, 0x05, 0x9B, 0xFF,
         0xC0, 0xFA, 0x4A, 0xFF, 0x35, 0x02, 0x6C, 0x03, 0xDF, 0xFE, 0x74, 0xF9, 0xA3, 0x02, 0x9D, 0x03,
         0xDB, 0xFD, 0x85, 0x03, 0x17, 0x00, 0x6A, 0xFA, 0x87, 0x01, 0xB1, 0x00, 0xB8, 0xFD, 0xD5, 0x02,
         0x86, 0xFD, 0xCA, 0xFD, 0x4B, 0x08, 0xB3, 0x02, 0xA3, 0xFB, 0x90, 0xFD, 0xC0, 0xFC, 0x80, 0x00,
         0x50, 0x04, 0x2F, 0xFC, 0x06, 0xFC, 0xC6, 0x07, 0xCD, 0x05, 0xD7, 0xFA, 0xAF, 0xFB, 0x39, 0x02,
         0x72, 0x01, 0x34, 0xFC, 0x63, 0xFD, 0x71, 0x04, 0x18, 0x04, 0x24, 0xFF, 0x6E, 0xFD, 0xE4, 0xFC,
         0x3C, 0x01, 0x61, 0x04, 0xAF, 0xFD, 0xBD, 0xFA, 0x26, 0x03, 0xC9, 0x06, 0x9D, 0xFF, 0xBE, 0xFB,
         0x8C, 0xFC, 0x68, 0xFE, 0x0D, 0x04, 0x19, 0x02, 0x05, 0xFC, 0xD8, 0xFF, 0x64, 0x03, 0x2D, 0x02,
         0xFE, 0x01, 0x8E, 0xFE, 0x15, 0xFB, 0x97, 0xFD, 0x30, 0xFF, 0x73, 0x00, 0x00, 0x04, 0x71, 0x03,
         0x4C, 0xFF, 0x39, 0xFC, 0x5C, 0xFF, 0x3C, 0x03, 0x7B, 0x01, 0x9D, 0xFE, 0x08, 0xFB, 0x9C, 0xFF,
         0x0E, 0x06, 0x25, 0xFF, 0x6F, 0xFB, 0xCF, 0xFF, 0xEB, 0x02, 0x23, 0x04, 0x56, 0xFF, 0x1C, 0xFC,
         0xA4, 0xFF, 0xC8, 0xFE, 0xFC, 0xFF, 0xAF, 0x06, 0xC2, 0xFF, 0x30, 0xF8, 0x08, 0xFF, 0x3C, 0x02,
         0x1B, 0x00, 0x6C, 0x02, 0xED, 0x04, 0x70, 0x01, 0x21, 0xFC, 0x3B, 0xFC, 0xC9, 0xFC, 0x53, 0xFB,
         0xDB, 0x01, 0x71, 0x09, 0x4B, 0x04, 0xF0, 0xFE, 0x83, 0xFE, 0xB4, 0xFA, 0x8F, 0xFB, 0x3B, 0x02,
         0x9E, 0x03, 0x85, 0x01, 0x6C, 0xFE, 0x30, 0xFC, 0x0E, 0x01, 0x62, 0x03, 0x32, 0x01, 0x2B, 0xFF,
         0x1E, 0xFE, 0x04, 0x04, 0xE0, 0x01, 0xD0, 0xF7, 0x76, 0xFB, 0x28, 0x03, 0x19, 0x03, 0xA6, 0x00,
         0x9A, 0x01, 0xE0, 0x03, 0xF4, 0x00, 0x90, 0xFB, 0x15, 0xFA, 0x5B, 0xFE, 0x05, 0x04, 0xB6, 0x02,
         0x72, 0xFE, 0x44, 0x02, 0xD4, 0xFF, 0x8D, 0xFB, 0x5A, 0x05, 0x12, 0x01, 0x77, 0xFB, 0xA3, 0x05,
         0x09, 0xFC, 0x18, 0xF4, 0x75, 0x06, 0x74, 0x09, 0x26, 0xFC, 0xA5, 0xFF, 0x2A, 0x04, 0x74, 0xFD,
         0xDF, 0xFB, 0x8D, 0xFE, 0xC4, 0x01, 0xC3, 0x05, 0xD8, 0x01, 0xAF, 0xF7, 0xE1, 0xFA, 0x98, 0x06,
         0xAB, 0x02, 0x01, 0xFB, 0xA8, 0x02, 0x59, 0x06, 0x1A, 0xFE, 0xF9, 0xFB, 0x1C, 0xFC, 0x8D, 0xFF,
         0x3B, 0x06, 0xB4, 0x00, 0x57, 0xFD, 0xDB, 0x00, 0xCC, 0xFD, 0xA8, 0xFF, 0xBA, 0x03, 0xBC, 0xFD,
         0x4C, 0xFE, 0xBE, 0x03, 0x08, 0xFF, 0x8E, 0xFD, 0x5F, 0x00, 0x7B, 0x01, 0xD8, 0x01, 0x07, 0xFF,
         0x4F, 0xFF, 0x46, 0xFF, 0x38, 0xFE, 0x87, 0x00, 0xB8, 0x00, 0x6E, 0x01, 0x76, 0x02, 0xA7, 0xFE,
         0x8B, 0xFD, 0x2F, 0x00, 0xDE, 0xFE, 0xFF, 0xFE, 0xA4, 0x02, 0xBE, 0x01, 0x5F, 0xFF, 0x95, 0xFF,
         0xD6, 0xFF, 0x7D, 0xFF, 0x84, 0xFF, 0xB8, 0xFF, 0x31, 0x00, 0x15, 0x01, 0xE7, 0xFF, 0x91, 0xFE,
         0xCC, 0x00, 0x57, 0x01, 0xAA, 0xFE, 0x8B, 0xFF, 0x61, 0x01, 0x93, 0xFF, 0x3F, 0xFF, 0x4D, 0x00,
         0xDE, 0xFF, 0x3B, 0x00, 0x8C, 0x00, 0xAB, 0xFF, 0xC7, 0xFF, 0x13, 0x00, 0x00, 0x00
     };

__align(2)
     const U8 motion_dj_vocal_wav_3[DJ_AUD_VOX_WAVE_3_LEN] = 
     {
         0x52, 0x49, 0x46, 0x46, 0xB6, 0x12, 0x00, 0x00, 0x57, 0x41, 0x56, 0x45, 0x66, 0x6D, 0x74, 0x20,
         0x10, 0x00, 0x00, 0x00, 0x01, 0x00, 0x01, 0x00, 0x80, 0x3E, 0x00, 0x00, 0x00, 0x7D, 0x00, 0x00,
         0x02, 0x00, 0x10, 0x00, 0x64, 0x61, 0x74, 0x61, 0x92, 0x12, 0x00, 0x00, 0xFD, 0xFF, 0xF8, 0xFF,
         0x02, 0x00, 0x06, 0x00, 0xEB, 0xFF, 0x02, 0x00, 0x21, 0x00, 0xFA, 0xFF, 0xF1, 0xFF, 0x2D, 0x00,
         0x12, 0x00, 0xB1, 0xFF, 0xD3, 0xFF, 0x5D, 0x00, 0x24, 0x00, 0x7F, 0xFF, 0xE7, 0xFF, 0x70, 0x00,
         0x0E, 0x00, 0x0D, 0x00, 0x15, 0x00, 0x9D, 0xFF, 0xCD, 0xFF, 0x52, 0x00, 0x06, 0x00, 0xB5, 0xFF,
         0xA4, 0x00, 0xB9, 0xFF, 0xA7, 0xFE, 0x1A, 0x01, 0xE0, 0x00, 0x4B, 0xFF, 0x6F, 0x00, 0x10, 0x00,
         0xB2, 0xFF, 0xD0, 0xFF, 0x04, 0xFF, 0xC3, 0xFF, 0x7A, 0x00, 0xFF, 0xFF, 0x15, 0x01, 0x71, 0x01,
         0x08, 0xFF, 0xCC, 0xFE, 0x5F, 0x00, 0xCC, 0xFF, 0x20, 0xFF, 0x03, 0x01, 0xE0, 0x00, 0x43, 0xFE,
         0x65, 0x00, 0x55, 0x00, 0x3A, 0xFE, 0xAA, 0x02, 0x65, 0x01, 0xB6, 0xFC, 0xD1, 0x00, 0xF0, 0x01,
         0x40, 0xFE, 0x2C, 0xFF, 0x90, 0xFF, 0x1D, 0x01, 0x70, 0x02, 0x89, 0xFC, 0x72, 0xFE, 0x49, 0x03,
         0x8D, 0x00, 0xD5, 0xFF, 0xAE, 0xFE, 0x0D, 0x00, 0xDE, 0x00, 0xED, 0xFE, 0xD3, 0x00, 0x3E, 0xFF,
         0x8B, 0xFF, 0x5E, 0x00, 0x2D, 0xFF, 0x68, 0x03, 0x89, 0x00, 0xFC, 0xFA, 0xBC, 0x00, 0x7C, 0x02,
         0x25, 0xFE, 0x6B, 0x00, 0xB4, 0xFF, 0x98, 0xFF, 0x8C, 0x03, 0x5C, 0xFF, 0x78, 0xFE, 0xAE, 0xFF,
         0xEE, 0xFE, 0x85, 0x01, 0x7C, 0xFE, 0x74, 0xFE, 0x29, 0x03, 0x1D, 0xFF, 0xC7, 0xFF, 0x85, 0x04,
         0x9B, 0xFB, 0xCC, 0xFD, 0xB1, 0x04, 0x1F, 0xFD, 0xAD, 0x00, 0x4D, 0x00, 0xE9, 0xFF, 0x86, 0x02,
         0x61, 0xF8, 0x3D, 0x02, 0xFC, 0x06, 0xAC, 0xFB, 0x1D, 0xFF, 0xE5, 0x00, 0x4E, 0x01, 0x92, 0xFE,
         0x55, 0xFE, 0x20, 0x03, 0xF7, 0xFC, 0x56, 0x00, 0xC1, 0x04, 0x17, 0xFD, 0xA6, 0xFE, 0x2F, 0x01,
         0x8E, 0xFD, 0x72, 0xFE, 0xBC, 0x03, 0x0F, 0x03, 0x53, 0xFD, 0x2F, 0xFF, 0x70, 0x00, 0x76, 0xFF,
         0x45, 0x01, 0x3B, 0xFE, 0xE0, 0xFF, 0xE9, 0x00, 0xEC, 0xFE, 0xC5, 0x00, 0x3C, 0xFE, 0xF8, 0x03,
         0xA7, 0x02, 0xDB, 0xF7, 0x55, 0x01, 0xA6, 0x05, 0xA6, 0xFE, 0x85, 0xFD, 0xB5, 0xFB, 0x7E, 0x00,
         0x4A, 0x06, 0x8E, 0xFF, 0x6F, 0xFD, 0xF8, 0x03, 0x8F, 0x00, 0xA7, 0xFA, 0xFC, 0xFD, 0xB3, 0x03,
         0x7C, 0x01, 0x61, 0xFB, 0xB0, 0x01, 0x13, 0x05, 0x7B, 0xFD, 0x70, 0xFC, 0xED, 0xFE, 0x63, 0x01,
         0x6A, 0x01, 0xED, 0x03, 0x93, 0x05, 0x6C, 0xFB, 0x75, 0xFA, 0xCC, 0xFC, 0x5F, 0xFA, 0x93, 0x06,
         0x4A, 0x08, 0x7E, 0xF8, 0xA2, 0xFE, 0x6B, 0x09, 0x2B, 0x00, 0x06, 0xFD, 0x43, 0xFD, 0xBF, 0xFE,
         0xA5, 0x03, 0xC9, 0xFA, 0xEB, 0xFC, 0x61, 0x09, 0xDD, 0x00, 0x77, 0xF6, 0x13, 0xFD, 0x70, 0x04,
         0x4E, 0x04, 0x39, 0x04, 0x06, 0x04, 0x8B, 0xFE, 0xD7, 0xF8, 0x83, 0xFB, 0x86, 0x03, 0x58, 0xFD,
         0x72, 0xF7, 0x58, 0x0B, 0xFA, 0x09, 0x1E, 0xF6, 0xAF, 0xFC, 0xDD, 0xFF, 0x1B, 0x03, 0x1A, 0x0A,
         0x91, 0xFA, 0xCC, 0xF9, 0xFB, 0x07, 0xF4, 0xF9, 0xE9, 0xF8, 0x7F, 0x03, 0x13, 0xFA, 0x7F, 0x07,
         0x18, 0x09, 0xAB, 0xFA, 0xDA, 0x09, 0x8F, 0xFD, 0x95, 0xEC, 0xA2, 0x0A, 0xC1, 0x03, 0x06, 0xE7,
         0x7F, 0x08, 0x59, 0x19, 0x6D, 0xFF, 0x44, 0xFC, 0x59, 0xF9, 0xE6, 0xF5, 0xE1, 0x01, 0x0E, 0x04,
         0x95, 0xFC, 0x46, 0x0C, 0xBD, 0x0C, 0x17, 0xE0, 0x59, 0x00, 0x49, 0x1F, 0xEC, 0xE2, 0xBB, 0xF4,
         0x63, 0x13, 0xC5, 0x07, 0x7E, 0x15, 0x81, 0xF2, 0x7D, 0xE3, 0xCE, 0x07, 0x2C, 0x05, 0x7C, 0xF6,
         0xDC, 0x02, 0xC7, 0x0E, 0xB0, 0x00, 0xA9, 0xFE, 0x9A, 0xFB, 0xDD, 0xEC, 0x04, 0x12, 0xE0, 0x1D,
         0x72, 0xDE, 0xDD, 0xE4, 0x23, 0x1F, 0x6C, 0x08, 0x95, 0xF1, 0xD9, 0x0E, 0xF3, 0x04, 0xB9, 0xEE,
         0x87, 0xF9, 0xDD, 0xFB, 0x30, 0x06, 0xAF, 0x0F, 0x1B, 0xF9, 0xF5, 0xFD, 0x19, 0x07, 0x99, 0xF9,
         0x51, 0x06, 0x62, 0xFD, 0x48, 0xEB, 0xA9, 0x08, 0x1F, 0x0F, 0x0B, 0xF6, 0x1F, 0x00, 0x35, 0x08,
         0x7C, 0x01, 0x37, 0xFD, 0xF0, 0xF5, 0x3C, 0x04, 0xC2, 0xF6, 0x5B, 0x02, 0xBB, 0x1F, 0xAA, 0xE6,
         0x8D, 0xF1, 0x70, 0x1E, 0x47, 0xF7, 0xCA, 0xEF, 0x4C, 0x06, 0xED, 0x0C, 0xC1, 0xF7, 0x40, 0xF4,
         0x6B, 0x13, 0xB6, 0xFC, 0x3D, 0xF1, 0x5B, 0x17, 0x3F, 0xF7, 0x9E, 0xE5, 0xE9, 0x21, 0x70, 0xFB,
         0x8F, 0xE2, 0x23, 0x1E, 0x45, 0x01, 0xC3, 0xF2, 0xB4, 0x02, 0xDE, 0xFF, 0x59, 0x0A, 0x07, 0xF0,
         0x18, 0xFA, 0x7D, 0x14, 0xAA, 0xF9, 0xD2, 0xFD, 0xAC, 0x0A, 0x70, 0xF2, 0x8E, 0xFE, 0x39, 0x0B,
         0x41, 0xF9, 0x80, 0x02, 0x7A, 0xF5, 0xBD, 0xFD, 0xDB, 0x10, 0x50, 0xF5, 0xA5, 0x07, 0xA5, 0x0A,
         0x2A, 0xFC, 0x5C, 0xF2, 0x9C, 0xE9, 0xDF, 0x29, 0x94, 0x07, 0xB1, 0xC3, 0x6B, 0x1A, 0x40, 0x32,
         0xDC, 0xD9, 0xF3, 0xD9, 0x9F, 0x27, 0xAF, 0x1F, 0xA0, 0xC9, 0xEF, 0xE8, 0x80, 0x51, 0x36, 0xFF,
         0x34, 0xA4, 0xC7, 0x31, 0x6C, 0x4D, 0x60, 0xA7, 0x22, 0xD4, 0x1B, 0x49, 0x72, 0xFE, 0x37, 0xE2,
         0xB0, 0xFB, 0xB8, 0x14, 0x97, 0x34, 0xD7, 0xD7, 0x2A, 0xD7, 0x27, 0x24, 0x3D, 0xFD, 0xF1, 0xF3,
         0x4B, 0x08, 0x89, 0x03, 0xBD, 0xE8, 0x83, 0xF4, 0x79, 0x3A, 0xCE, 0x0A, 0x39, 0xB8, 0x7E, 0x0F,
         0x57, 0x43, 0x4D, 0xD9, 0x59, 0xCA, 0x92, 0x19, 0xC5, 0x20, 0x4B, 0x03, 0xC2, 0xEA, 0xAF, 0xED,
         0x3F, 0x13, 0xEE, 0x07, 0x2B, 0xF7, 0xC6, 0x11, 0x38, 0xF1, 0xFB, 0xF0, 0xC1, 0x19, 0xD3, 0xF8,
         0xA3, 0xEA, 0xB3, 0x00, 0xBB, 0x29, 0x4B, 0xF3, 0xA2, 0xBE, 0x71, 0x47, 0x0D, 0x25, 0x54, 0xA9,
         0xCB, 0x07, 0x0A, 0x25, 0xBB, 0xEE, 0xF3, 0x01, 0x26, 0x01, 0xCE, 0xF8, 0xEB, 0x13, 0x15, 0x03,
         0x90, 0xE4, 0x89, 0xF7, 0xF6, 0x17, 0x4C, 0x09, 0xE7, 0xDD, 0x82, 0x10, 0x86, 0x27, 0x06, 0xE4,
         0x3F, 0xF2, 0x7E, 0xFA, 0xF0, 0xF0, 0x70, 0x21, 0xEE, 0x15, 0x7D, 0xDF, 0x6F, 0xEB, 0x4A, 0x1F,
         0xBD, 0x0C, 0xA9, 0xE7, 0xCE, 0x04, 0x29, 0xFE, 0xC4, 0xF9, 0x7A, 0x14, 0x1D, 0xF1, 0x5A, 0xEC,
         0xBA, 0x1C, 0x70, 0x15, 0xF2, 0xE0, 0xB1, 0xE7, 0x8D, 0x21, 0x59, 0x0A, 0x12, 0xE7, 0x48, 0x05,
         0xA3, 0x04, 0x07, 0xFF, 0xEF, 0x09, 0x2A, 0xEE, 0xD6, 0xF2, 0xAA, 0x1C, 0xDD, 0x05, 0x99, 0xEE,
         0xF1, 0x08, 0x36, 0xFC, 0x0F, 0xEF, 0x43, 0x11, 0xFC, 0x08, 0x74, 0xE9, 0x8D, 0x04, 0x3D, 0x14,
         0x7D, 0xF4, 0xD4, 0xF1, 0x9C, 0x11, 0x29, 0x05, 0x0B, 0xEC, 0x91, 0x0C, 0x7D, 0xFF, 0x16, 0xEA,
         0x8B, 0x1B, 0xF3, 0x04, 0x9B, 0xE5, 0x73, 0x19, 0xA8, 0x00, 0x38, 0xD3, 0xF5, 0x15, 0x51, 0x25,
         0xE6, 0xE9, 0x91, 0xEE, 0x69, 0x05, 0x6D, 0x0A, 0x5A, 0x01, 0xC3, 0xF6, 0x84, 0xFC, 0x56, 0x08,
         0xC3, 0x15, 0x30, 0xED, 0x67, 0xE6, 0x17, 0x15, 0xB1, 0xFE, 0xDC, 0xFF, 0x41, 0x0C, 0x5C, 0xEE,
         0x09, 0x05, 0xB7, 0x0D, 0xFE, 0xE8, 0x7B, 0x04, 0x24, 0x15, 0xD3, 0x01, 0x95, 0x00, 0x75, 0xD3,
         0x07, 0x29, 0xC8, 0x14, 0x4B, 0x86, 0xCC, 0x34, 0x61, 0x6C, 0x42, 0x03, 0xA8, 0x0F, 0xCF, 0x91,
         0x08, 0xF9, 0x13, 0x53, 0x06, 0x93, 0x85, 0x05, 0x57, 0x77, 0x7F, 0xBC, 0xED, 0xC0, 0xAB, 0x3D,
         0xB4, 0x0D, 0x31, 0x0E, 0x80, 0xB6, 0x21, 0xF8, 0xB8, 0x4D, 0x6E, 0xBA, 0x89, 0x20, 0xAF, 0x24,
         0x22, 0xA1, 0x7B, 0x55, 0x0B, 0x37, 0xBF, 0x88, 0x7F, 0x1C, 0x7E, 0x4A, 0x57, 0xAB, 0xE8, 0x27,
         0x99, 0x36, 0x40, 0xBF, 0x30, 0xFD, 0x85, 0x29, 0x66, 0x14, 0x6F, 0xE0, 0xAF, 0xBE, 0x50, 0x1C,
         0x87, 0x36, 0xD4, 0xC9, 0x39, 0xF0, 0x1B, 0x41, 0xD3, 0x0C, 0xF7, 0xEC, 0x73, 0xEE, 0xCE, 0xF5,
         0x87, 0x0A, 0x5F, 0x05, 0x8C, 0xF6, 0xB4, 0xED, 0x80, 0xF2, 0x42, 0x1D, 0xBD, 0x21, 0x59, 0xE8,
         0xF2, 0xF0, 0xC5, 0x21, 0x77, 0x15, 0xCB, 0xCB, 0xCF, 0xD9, 0xF0, 0x38, 0xCB, 0xF2, 0x1B, 0xCF,
         0x3B, 0x3C, 0xA4, 0x1D, 0x02, 0xDD, 0xC7, 0xEE, 0xC1, 0xFA, 0x7D, 0x21, 0xB9, 0x13, 0x9A, 0xD2,
         0x9C, 0x06, 0xBF, 0x03, 0xC2, 0xD6, 0xE8, 0x33, 0x6F, 0x0A, 0x97, 0xC5, 0xB5, 0x2B, 0xEA, 0x25,
         0x3C, 0xD1, 0x14, 0xE7, 0x44, 0x1B, 0x77, 0x14, 0xAF, 0xF2, 0x4B, 0xF0, 0x41, 0x03, 0x7E, 0xFB,
         0x25, 0xFA, 0xA8, 0x0E, 0xB4, 0x01, 0xDC, 0x01, 0xE5, 0x18, 0x8E, 0xF6, 0x8C, 0xE4, 0x6A, 0x03,
         0x32, 0xF3, 0x9B, 0x07, 0x1C, 0x20, 0x76, 0xDA, 0x5F, 0xFB, 0x0D, 0x43, 0x94, 0xE8, 0xA3, 0xB6,
         0xE4, 0x1F, 0xC9, 0x3E, 0x31, 0xE2, 0xEB, 0xD1, 0xBD, 0x1D, 0x30, 0x1A, 0x6B, 0xDC, 0xFD, 0x01,
         0xD1, 0x0D, 0x6F, 0xEC, 0x22, 0x1F, 0x2D, 0x03, 0xC7, 0xE0, 0xC5, 0x08, 0xF7, 0xFC, 0xAA, 0x09,
         0xC0, 0x04, 0xE2, 0xE6, 0x85, 0x0C, 0x88, 0x1E, 0x2E, 0xF5, 0xB1, 0xD2, 0x3D, 0xFF, 0x68, 0x3E,
         0xDB, 0x03, 0x7D, 0xC1, 0xFF, 0x0F, 0xE0, 0x1F, 0x8A, 0xDD, 0x04, 0xFE, 0x4E, 0x0E, 0x1B, 0x0C,
         0x91, 0x04, 0x35, 0xEB, 0xBD, 0x0A, 0x35, 0xFB, 0xCA, 0xF1, 0xD8, 0x0D, 0x17, 0xFB, 0x5E, 0x08,
         0xFF, 0x09, 0x32, 0xEA, 0xD3, 0x02, 0x11, 0x08, 0x38, 0xF8, 0x56, 0x1C, 0x42, 0xF2, 0x9A, 0xCC,
         0xA6, 0x22, 0xFB, 0x21, 0xB0, 0xE9, 0xFC, 0xF1, 0xA5, 0xF3, 0x0F, 0x17, 0x71, 0x2A, 0x86, 0xD7,
         0x1B, 0xDF, 0xD4, 0x27, 0xCA, 0xFC, 0x61, 0xEC, 0x05, 0x05, 0x83, 0xFD, 0x6D, 0x12, 0xBB, 0x03,
         0xFD, 0xE3, 0xE7, 0x0E, 0x3C, 0x11, 0xE4, 0xF5, 0x43, 0x04, 0xD1, 0xE5, 0x0A, 0x09, 0x69, 0x22,
         0x0F, 0xD0, 0x8F, 0xFA, 0x6A, 0x28, 0x11, 0xEE, 0xF0, 0xF6, 0x5F, 0x15, 0xC0, 0x03, 0xB2, 0xFC,
         0x64, 0x06, 0x31, 0xEE, 0x58, 0xE2, 0xE2, 0x12, 0x12, 0x20, 0x97, 0xE9, 0xEA, 0xF5, 0x34, 0x1E,
         0xDE, 0xF0, 0x5C, 0xF3, 0x32, 0x0F, 0xF9, 0xFF, 0xA0, 0x01, 0xDE, 0xEC, 0xD8, 0x08, 0xE5, 0x14,
         0x74, 0xDE, 0x18, 0x08, 0x70, 0x1C, 0x8E, 0xE6, 0xBC, 0xF9, 0x39, 0x18, 0x86, 0xFC, 0x11, 0xEE,
         0x3A, 0xFE, 0x3C, 0x12, 0x19, 0x03, 0xE3, 0xE3, 0x9F, 0x05, 0xCF, 0x11, 0x0F, 0x08, 0x6B, 0x0B,
         0xD0, 0xD4, 0xBF, 0xF3, 0x5A, 0x39, 0xCB, 0xE3, 0x7F, 0xCF, 0x7B, 0x3F, 0x84, 0x20, 0x49, 0xD1,
         0xE4, 0xF4, 0xDF, 0x00, 0xD3, 0x00, 0x85, 0x15, 0xA5, 0xF3, 0xFA, 0xEA, 0x0B, 0x12, 0xF7, 0x0E,
         0x95, 0x05, 0xAA, 0xF4, 0x5C, 0xE4, 0xE0, 0x16, 0xF6, 0x17, 0x53, 0xDB, 0xC3, 0xEA, 0x41, 0x1D,
         0x57, 0x17, 0xC4, 0xF4, 0xED, 0xF3, 0xF8, 0xFF, 0x56, 0x03, 0x3C, 0x05, 0x9A, 0xF6, 0x59, 0xF9,
         0x2E, 0x13, 0x2B, 0x00, 0x0B, 0xEA, 0xBF, 0x0A, 0x15, 0x09, 0x1D, 0xFA, 0x88, 0x04, 0x74, 0xEA,
         0x14, 0x04, 0x18, 0x26, 0xEA, 0xEF, 0xC1, 0xE6, 0x4A, 0x0A, 0x53, 0x05, 0x79, 0xFD, 0x27, 0x01,
         0xD7, 0x00, 0x00, 0x06, 0x1D, 0x07, 0x03, 0xF9, 0x9E, 0xF1, 0xBA, 0xF8, 0xFF, 0x07, 0x50, 0x0B,
         0xD5, 0xF9, 0xE1, 0xFB, 0x67, 0x10, 0x2A, 0x05, 0x4E, 0xEE, 0x62, 0x02, 0xB8, 0x0B, 0xF2, 0xF1,
         0x1C, 0xFC, 0x2D, 0xFB, 0x3D, 0xF4, 0x68, 0x1E, 0xD2, 0x10, 0x8A, 0xE0, 0x1C, 0xFB, 0x0B, 0x1B,
         0xF8, 0x03, 0x99, 0xE9, 0xAB, 0xEA, 0xAE, 0x0A, 0xC7, 0x1E, 0x10, 0xFF, 0x03, 0xEE, 0x72, 0xFA,
         0x31, 0x00, 0x05, 0x0A, 0x7F, 0x01, 0xA0, 0xF3, 0x46, 0x09, 0xF5, 0x0B, 0x8A, 0xF3, 0x6D, 0xF8,
         0xFE, 0xFE, 0x75, 0x06, 0x12, 0x12, 0x11, 0xF4, 0x50, 0xEA, 0xA3, 0x14, 0x7C, 0x0E, 0xAE, 0xE6,
         0x06, 0xF0, 0xDE, 0x10, 0xCD, 0x19, 0x63, 0xF9, 0xD7, 0xE5, 0xF7, 0x0A, 0xB0, 0x0E, 0x39, 0xEB,
         0x36, 0x01, 0xC6, 0x12, 0x2F, 0xF7, 0xCD, 0x01, 0x13, 0xFF, 0xC5, 0xDA, 0xE5, 0x0F, 0xA2, 0x3B,
         0x3B, 0xE8, 0x8E, 0xD2, 0xB4, 0x19, 0x12, 0x0D, 0xFC, 0xEA, 0x24, 0x07, 0x16, 0x08, 0x43, 0xFE,
         0x2A, 0x05, 0x3B, 0xED, 0x8D, 0xF5, 0x54, 0x16, 0x2B, 0x0A, 0xDE, 0xFC, 0x93, 0xF5, 0x75, 0xF0,
         0xD2, 0x0D, 0x5C, 0x15, 0x6E, 0xF3, 0x11, 0xF1, 0xC9, 0xFF, 0x9B, 0x09, 0x1B, 0x08, 0xF5, 0xF1,
         0xF5, 0xFD, 0x66, 0x0A, 0x10, 0xFD, 0x9E, 0x0B, 0x88, 0x00, 0x91, 0xDF, 0x85, 0x05, 0x40, 0x1B,
         0x94, 0xF3, 0xE7, 0x00, 0xF0, 0x10, 0xE3, 0xE7, 0xDB, 0xF4, 0x8F, 0x16, 0x97, 0xFA, 0xD2, 0xF7,
         0x1E, 0x0C, 0x71, 0xFF, 0x7C, 0x00, 0x57, 0x03, 0x0D, 0xF7, 0x5A, 0x01, 0x66, 0xFD, 0xDE, 0xF2,
         0x91, 0x10, 0x81, 0x09, 0x2E, 0xF4, 0xBD, 0x08, 0xB8, 0x01, 0x43, 0xF1, 0x09, 0xF9, 0xB8, 0x05,
         0xFD, 0x17, 0x5B, 0x01, 0x03, 0xD9, 0x30, 0x01, 0xD8, 0x23, 0xF6, 0xF6, 0xCC, 0xF0, 0xBD, 0x0C,
         0x72, 0x01, 0xC6, 0xF8, 0xBD, 0xFE, 0xE9, 0xFE, 0x86, 0x04, 0x81, 0xFE, 0xE2, 0xF8, 0xE1, 0x08,
         0xCB, 0x04, 0x86, 0xF8, 0xFE, 0x02, 0xD4, 0x02, 0xC9, 0xF8, 0x35, 0xFF, 0xE9, 0x05, 0xAE, 0x01,
         0x25, 0xF8, 0xA5, 0xFC, 0xA6, 0x0E, 0xBC, 0xFA, 0xF6, 0xED, 0x11, 0x10, 0xE7, 0x0C, 0x63, 0xF0,
         0x27, 0xFF, 0xB3, 0x0C, 0x3E, 0xFE, 0x80, 0xF9, 0x1E, 0xF3, 0xFE, 0xF0, 0xB3, 0x16, 0xAD, 0x21,
         0xFC, 0xEC, 0xB0, 0xE3, 0xF8, 0x12, 0x7F, 0x08, 0x19, 0xED, 0x96, 0x05, 0x70, 0x09, 0x98, 0xFD,
         0x98, 0xFB, 0x6E, 0xF2, 0xDE, 0x07, 0x18, 0x13, 0xEC, 0xF9, 0x9A, 0xF9, 0x03, 0xFF, 0x3F, 0xF7,
         0x50, 0x08, 0x3E, 0x0C, 0x4E, 0xF3, 0x77, 0xF7, 0x3A, 0x0D, 0xF5, 0x0B, 0x11, 0xEE, 0x73, 0xF0,
         0xC9, 0x15, 0x08, 0xFF, 0xED, 0xF1, 0xD6, 0x17, 0x25, 0x02, 0xDF, 0xE4, 0xFA, 0x0A, 0x83, 0x0B,
         0xB2, 0xEE, 0x3D, 0x06, 0xAE, 0x09, 0xCE, 0xED, 0x92, 0xFD, 0xF1, 0x13, 0xDF, 0x01, 0x1A, 0xF2,
         0x7C, 0xFF, 0x05, 0x0A, 0xDB, 0x00, 0x3A, 0xF8, 0x2D, 0x00, 0x97, 0x01, 0x56, 0xF8, 0x56, 0xFE,
         0x79, 0x0A, 0xD8, 0x05, 0xA3, 0x01, 0x26, 0xFA, 0x2F, 0xFA, 0x9E, 0x04, 0x5E, 0xF6, 0xEB, 0xFD,
         0xB8, 0x11, 0xB9, 0xFA, 0xD3, 0xF5, 0xB8, 0x09, 0x40, 0x03, 0x15, 0xFA, 0x86, 0x00, 0xD0, 0xFE,
         0xC6, 0x01, 0x21, 0x03, 0xC1, 0xFD, 0xC0, 0xFE, 0x87, 0xFC, 0x10, 0xFB, 0x28, 0xFD, 0x85, 0x0C,
         0xBC, 0x0F, 0x45, 0xF1, 0x04, 0xF6, 0xA7, 0x0C, 0x4B, 0xFE, 0x8D, 0xF5, 0x0A, 0x04, 0xDB, 0x05,
         0x2C, 0xF9, 0xEC, 0xFD, 0x37, 0x0E, 0xEE, 0xFD, 0x37, 0xEF, 0x2C, 0x06, 0x09, 0x0A, 0x20, 0xFB,
         0x71, 0x00, 0xA7, 0xFA, 0x42, 0x04, 0x92, 0x10, 0x4E, 0xEE, 0x39, 0xED, 0x03, 0x11, 0xEB, 0x07,
         0xF0, 0xF8, 0xF7, 0xFE, 0xC4, 0x02, 0xAA, 0x05, 0x66, 0x07, 0x46, 0xEF, 0xA7, 0xF1, 0x3C, 0x1F,
         0xA7, 0xFC, 0x32, 0xD2, 0x35, 0x1E, 0x36, 0x26, 0x6C, 0xE4, 0x33, 0x07, 0xAC, 0xFA, 0xDD, 0xC5,
         0xAC, 0x27, 0xF1, 0x2D, 0x51, 0xC4, 0x59, 0x00, 0x33, 0x52, 0x12, 0xFD, 0xED, 0xA6, 0xAE, 0xEE,
         0x5F, 0x50, 0x43, 0xEF, 0x92, 0xAA, 0x5E, 0x41, 0x8E, 0x59, 0x68, 0xC8, 0xDD, 0xCF, 0xF4, 0x0A,
         0x55, 0xEC, 0x25, 0x1A, 0x97, 0x1A, 0xFD, 0xD5, 0xF0, 0x14, 0xE9, 0x3D, 0x27, 0xD4, 0xCB, 0xC0,
         0x01, 0x04, 0x96, 0x12, 0xE1, 0x22, 0x65, 0x20, 0xBA, 0xDC, 0xBC, 0xE5, 0xEB, 0x1A, 0xCE, 0x03,
         0xCF, 0xD8, 0x6D, 0xEF, 0xA9, 0x24, 0xA0, 0x20, 0x44, 0xFC, 0xFC, 0xE9, 0x20, 0xED, 0x69, 0x16,
         0x94, 0x0F, 0x14, 0xD9, 0x1B, 0xF9, 0x8E, 0x1F, 0xC4, 0xFA, 0x4E, 0xFB, 0xA6, 0xFF, 0x40, 0xF8,
         0x55, 0x17, 0xD6, 0x01, 0x33, 0xFA, 0x4F, 0x0E, 0x73, 0xDD, 0x6E, 0xEA, 0x26, 0x17, 0xC1, 0xFD,
         0x4A, 0x10, 0x8D, 0x19, 0xDE, 0xE6, 0xDF, 0xF7, 0x37, 0x08, 0x4B, 0xF0, 0x66, 0x06, 0xD8, 0x05,
         0x69, 0xF8, 0xE2, 0x10, 0xC9, 0xFE, 0x32, 0xEF, 0xCF, 0x0F, 0xFB, 0xF7, 0x2E, 0xE6, 0x41, 0x1E,
         0x9E, 0x0D, 0x12, 0xD1, 0x5D, 0x0C, 0x1E, 0x36, 0x18, 0xEA, 0xE5, 0xE8, 0x9C, 0x12, 0x11, 0xE9,
         0xD7, 0xF6, 0x8A, 0x1E, 0x73, 0xED, 0x4B, 0xF0, 0x1C, 0x2B, 0x81, 0xFD, 0x0B, 0xE2, 0x78, 0x20,
         0xA0, 0xFC, 0x53, 0xCA, 0x35, 0x1E, 0x87, 0x1D, 0xA4, 0xE0, 0x04, 0x2E, 0xD1, 0xFF, 0xA5, 0x87,
         0x69, 0x29, 0x6B, 0x62, 0x21, 0xB3, 0x8C, 0xEC, 0xE4, 0x7B, 0x6D, 0xFA, 0x00, 0x80, 0xC7, 0xF9,
         0x92, 0x76, 0x7E, 0xD6, 0xAF, 0x95, 0xEF, 0x4F, 0xB2, 0x57, 0xB8, 0xAB, 0x84, 0xB6, 0x53, 0x12,
         0xBA, 0xD5, 0xCB, 0x24, 0x44, 0x42, 0x1E, 0xC3, 0xC8, 0x0C, 0xAC, 0x5B, 0x06, 0xBE, 0x38, 0xA7,
         0x1A, 0x0C, 0x3D, 0x0D, 0xE5, 0x37, 0xCB, 0x47, 0x8C, 0xB3, 0x02, 0xC2, 0x22, 0x48, 0x28, 0x11,
         0x1B, 0xB2, 0x5D, 0xE0, 0xD4, 0x34, 0x95, 0x48, 0x74, 0x0A, 0x2B, 0xBA, 0xB7, 0xD4, 0x94, 0x38,
         0xBF, 0x22, 0x78, 0xC5, 0x47, 0xE1, 0xBC, 0x2C, 0x1D, 0x13, 0x2A, 0xEE, 0xD8, 0xE6, 0xC7, 0x06,
         0xD1, 0x32, 0x8E, 0xF8, 0x24, 0xF1, 0x88, 0x19, 0xE2, 0xCD, 0xC4, 0xDE, 0x6F, 0x2B, 0x5B, 0xED,
         0x20, 0x01, 0x70, 0x48, 0x6F, 0xE7, 0x91, 0xD3, 0x93, 0x0F, 0x90, 0xF8, 0x5C, 0x08, 0x0C, 0x07,
         0xF0, 0xF4, 0x12, 0x1F, 0x1F, 0xEE, 0xAA, 0xD6, 0x08, 0x36, 0x7F, 0xFA, 0x63, 0xC2, 0x68, 0x38,
         0x4E, 0x13, 0xED, 0xB6, 0xEF, 0x16, 0x87, 0x3B, 0xB1, 0xE2, 0x3F, 0xFC, 0x54, 0x22, 0x54, 0xD3,
         0xF3, 0xE6, 0x29, 0x2C, 0x0A, 0xE2, 0xD4, 0xD4, 0x50, 0x36, 0x94, 0x2B, 0x45, 0xEF, 0x98, 0xF4,
         0x38, 0xF8, 0x4F, 0xF7, 0xDD, 0x07, 0x54, 0xEB, 0x77, 0xEF, 0x8E, 0x4C, 0xE8, 0x15, 0xB8, 0x89,
         0x68, 0xF4, 0xF9, 0x68, 0x27, 0xE9, 0x12, 0xCC, 0x64, 0x4D, 0xB4, 0x0C, 0x5C, 0x97, 0xBF, 0x0D,
         0xD1, 0x58, 0x1E, 0xC7, 0x56, 0xBC, 0x8B, 0x55, 0xA7, 0x2F, 0x68, 0xC7, 0xE0, 0x05, 0x34, 0x05,
         0x78, 0xB1, 0x02, 0x16, 0xE7, 0x58, 0x09, 0xE0, 0x57, 0xD5, 0xC6, 0x29, 0xE4, 0x07, 0x10, 0xE6,
         0x72, 0xFA, 0xCA, 0xFB, 0xE8, 0x17, 0xA8, 0x24, 0x3E, 0xC2, 0x6E, 0xC2, 0xD1, 0x49, 0xA4, 0x2F,
         0x6F, 0xCC, 0xED, 0xEC, 0x55, 0x14, 0xBF, 0x28, 0xAF, 0x1E, 0x91, 0xB6, 0x94, 0xB4, 0x16, 0x3D,
         0x41, 0x3A, 0x64, 0xDC, 0xE3, 0xE6, 0xF3, 0x23, 0x9B, 0x1D, 0x1B, 0xD9, 0x99, 0xCE, 0x46, 0x0F,
         0x9F, 0x32, 0x13, 0x0C, 0x14, 0xE5, 0xA9, 0xF9, 0x30, 0xFF, 0xED, 0xFB, 0x18, 0x0C, 0x1A, 0xF0,
         0x31, 0xEF, 0xEA, 0x2D, 0x03, 0x0D, 0xB9, 0xCB, 0x3A, 0xFB, 0x37, 0x20, 0x37, 0x0A, 0xA9, 0xEF,
         0x6A, 0xEB, 0x4B, 0x20, 0x68, 0x04, 0x90, 0xD9, 0x61, 0x1C, 0x59, 0x06, 0x36, 0xE5, 0x60, 0x15,
         0x14, 0xF4, 0x20, 0xE8, 0x46, 0x1D, 0xD3, 0x07, 0x4B, 0xE6, 0x58, 0x11, 0xC2, 0x21, 0xB0, 0xEE,
         0x18, 0xE4, 0xE4, 0x0C, 0xA8, 0xFB, 0xC5, 0xDF, 0x0D, 0x10, 0xAB, 0x1C, 0x00, 0xFB, 0xAB, 0x01,
         0xF4, 0x01, 0x13, 0xFD, 0xF3, 0x02, 0xFC, 0xEB, 0x26, 0xF1, 0x2A, 0x28, 0x7E, 0x0D, 0x72, 0xC7,
         0x4E, 0xFB, 0xA2, 0x35, 0xE6, 0xF6, 0x74, 0xE9, 0x01, 0x21, 0x62, 0xFB, 0x4F, 0xD7, 0x47, 0x13,
         0xDB, 0x11, 0x0F, 0xDC, 0xF2, 0xFC, 0x5B, 0x23, 0x13, 0x02, 0x10, 0xF7, 0x2D, 0x18, 0x61, 0xF7,
         0x43, 0xC5, 0x56, 0x0B, 0x22, 0x3A, 0xF1, 0xEA, 0xE9, 0xD7, 0xC1, 0x15, 0x6C, 0x15, 0x03, 0x04,
         0x4B, 0xFD, 0xC4, 0xF3, 0xC8, 0x06, 0x8A, 0xF9, 0x50, 0xEA, 0x40, 0xFA, 0x6C, 0x11, 0x0D, 0x1F,
         0x8B, 0xEF, 0x94, 0xF3, 0x17, 0x0A, 0x23, 0xFB, 0xF2, 0x24, 0xE5, 0xED, 0xC1, 0xBC, 0x46, 0x1F,
         0xAC, 0x20, 0x91, 0xEB, 0xB8, 0xF9, 0xFC, 0x19, 0xFC, 0x18, 0xD0, 0xD9, 0x55, 0xDE, 0xE5, 0x17,
         0x2A, 0x0E, 0xDE, 0xFF, 0x37, 0xFE, 0x48, 0xFA, 0x40, 0x08, 0x17, 0x03, 0x51, 0xF8, 0x50, 0xFD,
         0x50, 0xEF, 0x18, 0x07, 0x4D, 0x21, 0x8A, 0xEC, 0xA7, 0xEC, 0x8A, 0x1C, 0xE4, 0x04, 0xA0, 0xE3,
         0xBD, 0xF1, 0x89, 0x1E, 0x38, 0x16, 0xB7, 0xE2, 0x67, 0xF3, 0x2D, 0x14, 0x03, 0x09, 0xA8, 0xF1,
         0x95, 0xED, 0xEF, 0x0F, 0x83, 0x13, 0x5B, 0xE9, 0x1F, 0xEF, 0x7C, 0x13, 0x03, 0x12, 0x9D, 0xFF,
         0x8C, 0xF0, 0xB4, 0xFC, 0xFA, 0x0F, 0x45, 0xF7, 0x47, 0xF1, 0x4E, 0x04, 0x32, 0xFB, 0xE8, 0x07,
         0xA1, 0x0D, 0xFB, 0xF6, 0xF5, 0x09, 0xED, 0x02, 0x91, 0xEC, 0x2A, 0x02, 0x1F, 0xFB, 0xFD, 0x03,
         0x4D, 0x09, 0x78, 0xF1, 0xB9, 0x07, 0xE2, 0x0F, 0xBD, 0xFF, 0xAC, 0xF3, 0x35, 0xFA, 0x64, 0x0C,
         0x32, 0xEE, 0x13, 0xF6, 0xD2, 0x16, 0xB9, 0xFA, 0xBD, 0xFC, 0x93, 0x12, 0xB4, 0x04, 0x9F, 0xF1,
         0x54, 0xF1, 0xE9, 0x0B, 0x11, 0x0A, 0x5A, 0xEE, 0x89, 0xF8, 0xC0, 0x0A, 0xCD, 0x02, 0xED, 0x06,
         0xCC, 0xFF, 0x1E, 0xFA, 0x64, 0x0A, 0xEB, 0xEB, 0x98, 0x03, 0x67, 0x1D, 0xFE, 0xE0, 0xA6, 0xFB,
         0xE2, 0x0C, 0x5E, 0xF9, 0xAB, 0x08, 0x63, 0xF0, 0x87, 0x0D, 0xE8, 0x19, 0x9D, 0xEC, 0x27, 0xF8,
         0xCD, 0xFA, 0xDF, 0xF8, 0x0E, 0x06, 0xC4, 0x09, 0xC9, 0x05, 0x09, 0xF2, 0x84, 0xFD, 0xE3, 0x0E,
         0xA3, 0xF8, 0xAC, 0xFA, 0x8F, 0x0F, 0x54, 0xFE, 0xC9, 0xF6, 0xFB, 0x01, 0x2F, 0xFB, 0x3B, 0xFD,
         0xFB, 0xFB, 0x0D, 0xFF, 0xBF, 0x14, 0x5E, 0x03, 0x80, 0xF1, 0xBD, 0x0A, 0xAA, 0xFD, 0x02, 0xE8,
         0xD5, 0x02, 0x06, 0x14, 0x0B, 0x0F, 0xD2, 0xF1, 0x5A, 0xE8, 0x24, 0x0B, 0xB1, 0x06, 0x78, 0xF9,
         0x16, 0x06, 0xFA, 0x06, 0x40, 0x01, 0x51, 0xF8, 0xA8, 0xFB, 0xF9, 0x05, 0x92, 0xFD, 0x55, 0xF6,
         0xD0, 0xFF, 0x67, 0x09, 0x1D, 0x0B, 0xBC, 0xFF, 0xC5, 0xF4, 0xD1, 0x00, 0x0F, 0xFB, 0x7A, 0xFC,
         0xAF, 0x09, 0x06, 0xF6, 0x58, 0x0A, 0xB7, 0x0C, 0x60, 0xF1, 0x32, 0xFD, 0x68, 0xFA, 0x72, 0x15,
         0xA0, 0xFE, 0x19, 0xD8, 0x1E, 0x19, 0x52, 0x0F, 0xAE, 0xF1, 0xE3, 0x06, 0x14, 0xFB, 0xAF, 0xFF,
         0x5A, 0xFC, 0x56, 0x00, 0x4C, 0x0B, 0x39, 0xF6, 0xAE, 0xFC, 0xE1, 0x0A, 0x75, 0xFF, 0x23, 0xF4,
         0x4C, 0x01, 0x95, 0x0E, 0x94, 0xFA, 0x23, 0xFB, 0x46, 0x04, 0x92, 0xF4, 0x03, 0x02, 0x18, 0x09,
         0x01, 0xF6, 0x02, 0x07, 0x13, 0x0C, 0x69, 0xF8, 0x60, 0x05, 0x75, 0x04, 0xD6, 0xE5, 0xB3, 0xF0,
         0x5E, 0x17, 0x30, 0x09, 0x3C, 0xFA, 0x70, 0x06, 0xC2, 0xF5, 0x6B, 0x08, 0x3C, 0x12, 0x8F, 0xE7,
         0x63, 0xF3, 0x2E, 0x10, 0x40, 0x07, 0x16, 0xF6, 0x57, 0xF2, 0x76, 0x08, 0xB8, 0x09, 0xC7, 0xF3,
         0x10, 0x06, 0x7D, 0x19, 0xD5, 0xF8, 0x9B, 0xE6, 0x52, 0x00, 0x6E, 0x0F, 0x30, 0xFE, 0xBF, 0xF1,
         0x0A, 0x02, 0x8E, 0x0B, 0x76, 0x03, 0xC1, 0xF3, 0x59, 0xFB, 0x9A, 0x14, 0xBC, 0xF9, 0x55, 0xF0,
         0x8D, 0x0F, 0x3A, 0x04, 0x3A, 0xFB, 0x00, 0x02, 0x70, 0xFD, 0xA5, 0xF1, 0xA6, 0xF2, 0x44, 0x13,
         0x5C, 0x14, 0xA7, 0xF6, 0xC3, 0xF6, 0x40, 0x05, 0x95, 0x09, 0x5E, 0xFE, 0x63, 0xF0, 0x71, 0xF5,
         0x8E, 0x06, 0xA3, 0x0E, 0x2C, 0x03, 0x76, 0xF9, 0x08, 0xFE, 0xC6, 0xFB, 0x35, 0x02, 0x21, 0x0C,
         0xAA, 0xF9, 0xD9, 0xF4, 0xA5, 0x02, 0x01, 0x06, 0x82, 0xFF, 0xD9, 0xF6, 0x01, 0x0D, 0x3C, 0x0D,
         0xD4, 0xEF, 0x31, 0xFC, 0xFE, 0x00, 0xE9, 0xF6, 0x52, 0x01, 0x1A, 0x0A, 0x63, 0x06, 0xAC, 0xF8,
         0xA3, 0xFE, 0xC3, 0x05, 0x56, 0xFB, 0xA9, 0x01, 0x3B, 0x02, 0x2B, 0xFA, 0xA4, 0x02, 0x7A, 0x00,
         0xC9, 0xF6, 0x9A, 0xFF, 0x3A, 0x0D, 0xA1, 0x07, 0xB5, 0xF6, 0x24, 0xF9, 0xB9, 0x00, 0xB5, 0xF8,
         0x04, 0xFF, 0x56, 0x10, 0x39, 0x08, 0x4F, 0xFD, 0x07, 0x02, 0x67, 0xF6, 0x28, 0xEF, 0xAF, 0xFD,
         0x33, 0x04, 0x27, 0x0C, 0xE9, 0x05, 0x13, 0xF9, 0x26, 0x08, 0x22, 0x08, 0xD3, 0xF6, 0x26, 0xEF,
         0x44, 0xFF, 0x62, 0x13, 0xFC, 0xFB, 0x8F, 0xEF, 0xBE, 0x04, 0x96, 0x0B, 0xAE, 0xFD, 0x78, 0xF9,
         0xC6, 0x10, 0x4E, 0x04, 0x05, 0xE5, 0x2D, 0xFB, 0x73, 0x11, 0x19, 0x02, 0xD4, 0xF7, 0xF2, 0x05,
         0xA2, 0x07, 0xEB, 0xF7, 0xB6, 0xF9, 0x33, 0x02, 0xDF, 0x02, 0x7B, 0xFB, 0x39, 0xFC, 0x3F, 0x07,
         0x04, 0x05, 0x8C, 0x04, 0xEE, 0x01, 0xC6, 0xF9, 0x14, 0xF9, 0x22, 0xF6, 0xC1, 0x00, 0x9C, 0x0B,
         0x8A, 0x00, 0x32, 0xFE, 0x50, 0x05, 0x69, 0x03, 0x84, 0xFF, 0xA6, 0xFB, 0xB6, 0xF7, 0x75, 0xFA,
         0x8B, 0x06, 0x2E, 0x0A, 0x6A, 0xFE, 0x6E, 0xFC, 0xAA, 0xFF, 0x4F, 0xFC, 0xB4, 0x02, 0x65, 0x05,
         0x2F, 0xFA, 0xFF, 0xFB, 0xE8, 0x05, 0xBB, 0x00, 0x15, 0xFC, 0x1F, 0x03, 0x58, 0x05, 0x04, 0xFE,
         0x7C, 0xFB, 0xC8, 0xFF, 0xD2, 0xFA, 0x10, 0xFC, 0x08, 0x09, 0xF0, 0x03, 0x44, 0xFF, 0xAC, 0x04,
         0x1F, 0xFD, 0xF4, 0xF7, 0xA2, 0xFD, 0x21, 0x01, 0xC7, 0x02, 0x16, 0x09, 0x42, 0x04, 0xDD, 0xF2,
         0x51, 0xF9, 0xA4, 0x09, 0x33, 0x03, 0x57, 0xF8, 0xF7, 0xFA, 0xCC, 0x04, 0x56, 0x05, 0x61, 0xFE,
         0xA9, 0x02, 0x34, 0x06, 0x2C, 0xFD, 0x0E, 0xFB, 0xF9, 0xFD, 0x96, 0xFB, 0x2A, 0xFD, 0x6B, 0x02,
         0x25, 0x04, 0xDA, 0xFF, 0x68, 0x02, 0xDF, 0x06, 0x56, 0xFF, 0xCF, 0xFB, 0x5F, 0xF9, 0x15, 0xFE,
         0x63, 0x08, 0xEF, 0xFD, 0xE9, 0xF8, 0x66, 0x02, 0x75, 0x07, 0x1E, 0x01, 0xAE, 0xF7, 0x02, 0x05,
         0x75, 0x06, 0xAE, 0xF4, 0xFE, 0xFC, 0xFA, 0x07, 0x04, 0x00, 0x10, 0xFB, 0xE3, 0x02, 0x86, 0x04,
         0xE2, 0xFB, 0x14, 0x00, 0x6F, 0x02, 0xB4, 0xFC, 0xAD, 0xFF, 0x8C, 0xFE, 0x37, 0xFE, 0x24, 0x06,
         0xB0, 0x03, 0xAA, 0xFA, 0x05, 0xFE, 0x63, 0x05, 0x9A, 0xFC, 0xAE, 0xF6, 0x23, 0x05, 0x10, 0x0B,
         0xAA, 0xFF, 0x82, 0xF8, 0x07, 0xFD, 0xAA, 0x03, 0xA5, 0x01, 0x7B, 0xFC, 0x80, 0xFB, 0xFB, 0x01,
         0x0A, 0x0A, 0xBC, 0x04, 0xDB, 0xFB, 0x4C, 0xF8, 0x24, 0xF8, 0x72, 0x00, 0x98, 0x06, 0xF0, 0x02,
         0x51, 0x01, 0x4B, 0x03, 0x1F, 0x01, 0x5A, 0xFD, 0x19, 0xFB, 0xFE, 0xFC, 0x3D, 0x01, 0x02, 0x00,
         0xFB, 0xFF, 0x9E, 0x00, 0xB1, 0x00, 0x5C, 0x03, 0x96, 0x00, 0x7C, 0x02, 0x10, 0x04, 0xEC, 0xF9,
         0x4D, 0xF6, 0x45, 0xFC, 0x5B, 0x03, 0xAD, 0x04, 0x19, 0x06, 0xC6, 0x08, 0xC6, 0xFB, 0xAD, 0xF4,
         0xFD, 0xFE, 0xFF, 0x01, 0x66, 0xFD, 0xCC, 0xFB, 0x71, 0x04, 0x1E, 0x0D, 0x79, 0x02, 0x7A, 0xF6,
         0xA2, 0xFC, 0x5F, 0x01, 0x9E, 0xFC, 0x9A, 0xFE, 0x4B, 0x04, 0x5C, 0x04, 0xF8, 0xFF, 0xEC, 0xFA,
         0xD3, 0xFB, 0xDB, 0x02, 0x08, 0x06, 0xC4, 0xFE, 0xDE, 0xFC, 0xCD, 0x04, 0x62, 0x01, 0xE9, 0xF8,
         0x45, 0xFC, 0x33, 0x02, 0xCF, 0x02, 0x7D, 0x01, 0x8A, 0x00, 0x1D, 0xFF, 0x0E, 0xFF, 0x0E, 0x01,
         0x3B, 0x01, 0x5A, 0x00, 0xC1, 0xFF, 0x69, 0xFD, 0x9E, 0xFB, 0x25, 0xFE, 0x4F, 0x03, 0xEC, 0x05,
         0x1A, 0x01, 0x44, 0xFD, 0x1B, 0x03, 0x7F, 0x02, 0xEB, 0xF8, 0x7E, 0xFC, 0xE6, 0x04, 0xA8, 0xFE,
         0x1D, 0xF9, 0x71, 0x01, 0x6F, 0x07, 0xA0, 0x00, 0x66, 0xFB, 0x10, 0x04, 0x4E, 0x0B, 0x11, 0xFE,
         0x21, 0xF0, 0xF5, 0xF9, 0x24, 0x06, 0x4C, 0x02, 0xD1, 0xFF, 0xCF, 0x01, 0xCF, 0x00, 0x2E, 0x05,
         0x75, 0x07, 0x9B, 0xFA, 0xC5, 0xF1, 0x82, 0xFC, 0xE6, 0x04, 0x19, 0x01, 0x82, 0x01, 0xD9, 0x05,
         0xAE, 0x05, 0xC7, 0x00, 0x04, 0xFA, 0x4E, 0xFA, 0xE9, 0x00, 0xFF, 0xFF, 0x1B, 0xF9, 0x82, 0xFC,
         0xB4, 0x07, 0x09, 0x09, 0xDF, 0x01, 0x94, 0xFE, 0x9A, 0xFF, 0xCC, 0xFE, 0x58, 0xFB, 0xFC, 0xFB,
         0x9C, 0x01, 0xC3, 0x01, 0x43, 0xFD, 0x2F, 0x00, 0xA2, 0x05, 0x2C, 0x02, 0x65, 0xFB, 0x1D, 0xFD,
         0x22, 0x07, 0xF1, 0x05, 0x9D, 0xF6, 0xA0, 0xF7, 0x4F, 0x08, 0xA0, 0x05, 0x49, 0xF7, 0x5E, 0xFB,
         0xAD, 0x05, 0x70, 0x04, 0x00, 0x01, 0xC6, 0xFE, 0x00, 0xFD, 0xA8, 0x00, 0xBD, 0x01, 0xC2, 0xFD,
         0xA8, 0xFD, 0x2F, 0xFF, 0x9C, 0x00, 0xCB, 0x04, 0xE6, 0x03, 0xA3, 0xFD, 0xF6, 0xFB, 0xE2, 0xFD,
         0x1F, 0x00, 0x03, 0x02, 0x6D, 0x00, 0x3E, 0x00, 0x9D, 0x02, 0x44, 0xFF, 0x7A, 0xFC, 0x23, 0x01,
         0xBE, 0x00, 0xAA, 0xFC, 0x09, 0x01, 0xD1, 0x02, 0xD0, 0xFD, 0x51, 0x01, 0x0B, 0x06, 0xCD, 0xFE,
         0x1A, 0xFA, 0x09, 0xFE, 0xCC, 0xFD, 0xDE, 0xFE, 0xD3, 0x06, 0x9B, 0x05, 0xD1, 0xFB, 0x99, 0xFC,
         0x7D, 0x03, 0x95, 0x01, 0x8D, 0xFB, 0x79, 0xFB, 0x6C, 0x01, 0x91, 0x06, 0x38, 0x02, 0x65, 0xF8,
         0x52, 0xF9, 0x4C, 0x06, 0x3F, 0x0B, 0x53, 0x00, 0x9F, 0xF7, 0xD3, 0xFD, 0x5D, 0x04, 0xB4, 0xFE,
         0x4F, 0xF9, 0x8B, 0xFC, 0x4F, 0x01, 0x07, 0x08, 0x9B, 0x0A, 0x2A, 0xFE, 0x29, 0xF6, 0xD5, 0xFF,
         0x51, 0x01, 0x2D, 0xF9, 0xEA, 0x00, 0xAF, 0x09, 0x21, 0xFF, 0x39, 0xF8, 0x1A, 0x01, 0x43, 0x06,
         0x98, 0x00, 0x0A, 0xFB, 0x03, 0xFF, 0xFC, 0x05, 0xBD, 0x00, 0xFC, 0xF7, 0x9E, 0xFC, 0x5A, 0x03,
         0x2E, 0x04, 0xF7, 0x05, 0xC3, 0x00, 0x23, 0xF8, 0x19, 0xFC, 0xA0, 0xFF, 0x86, 0xFC, 0xB0, 0x04,
         0x8B, 0x0B, 0x68, 0x01, 0x38, 0xFB, 0x42, 0xFD, 0x99, 0xFA, 0x17, 0xFC, 0xE4, 0x01, 0xA7, 0x02,
         0xF1, 0x03, 0x05, 0x01, 0x8C, 0xFB, 0x0E, 0x04, 0xF1, 0x08, 0x97, 0xFA, 0xF0, 0xF6, 0x64, 0x00,
         0x48, 0xFE, 0x2C, 0xFF, 0x90, 0x06, 0x09, 0xFF, 0x41, 0xFC, 0xF4, 0x08, 0xD9, 0x05, 0x11, 0xF8,
         0x3E, 0xF9, 0x49, 0xFF, 0x2D, 0x02, 0xEF, 0x02, 0x73, 0xFC, 0x2D, 0xFE, 0x46, 0x0A, 0x94, 0x03,
         0xBB, 0xF4, 0x27, 0xFC, 0xF4, 0x05, 0xDC, 0xFF, 0xF3, 0xFC, 0x9B, 0x02, 0xBC, 0x05, 0xBD, 0x01,
         0x59, 0xF9, 0xED, 0xF9, 0xC8, 0x03, 0xA0, 0x03, 0x2D, 0xFD, 0x59, 0xFF, 0x6A, 0x00, 0xC7, 0xFD,
         0x85, 0x03, 0x1A, 0x07, 0x0E, 0xFE, 0xCC, 0xFA, 0x11, 0x02, 0x1D, 0x00, 0x39, 0xF8, 0x00, 0xFC,
         0xF5, 0x05, 0x41, 0x06, 0x6D, 0x00, 0x82, 0x01, 0x78, 0x01, 0x30, 0xFB, 0x8A, 0xFC, 0xB1, 0x01,
         0x72, 0xFF, 0xFB, 0xFC, 0xDA, 0xFE, 0xE6, 0x02, 0xB3, 0x06, 0x42, 0x01, 0xFF, 0xF9, 0x62, 0x01,
         0xFE, 0x05, 0xEE, 0xF9, 0x6B, 0xF7, 0xC7, 0x02, 0x09, 0x04, 0x11, 0x00, 0x1E, 0x01, 0xF5, 0xFF,
         0xC9, 0x00, 0x99, 0x02, 0x89, 0xFD, 0x8E, 0xFF, 0x81, 0x05, 0x31, 0xFD, 0x35, 0xF7, 0xF5, 0xFC,
         0x14, 0xFE, 0x3D, 0x02, 0x3F, 0x0C, 0x0C, 0x07, 0xB1, 0xFC, 0xA7, 0xFE, 0xAB, 0xFC, 0x1E, 0xF8,
         0x54, 0xFD, 0x6C, 0xFF, 0x5F, 0x01, 0xC4, 0x07, 0x6C, 0x03, 0x87, 0xFD, 0x47, 0x01, 0x40, 0x00,
         0xB8, 0xFA, 0x70, 0xFF, 0x9A, 0x04, 0x8A, 0xFD, 0x8C, 0xF9, 0x2E, 0xFE, 0x41, 0x02, 0x9F, 0x07,
         0xD5, 0x08, 0xAC, 0xFF, 0xFC, 0xF8, 0x5D, 0xFB, 0x2F, 0xFE, 0xFF, 0xFD, 0x6C, 0xFD, 0xF4, 0x00,
         0xDC, 0x07, 0x8E, 0x05, 0xDB, 0xFA, 0x1D, 0xFA, 0xDD, 0x05, 0xA7, 0x07, 0xB9, 0xFA, 0xB9, 0xF9,
         0x81, 0x00, 0x77, 0xFD, 0x12, 0xFF, 0xE1, 0x03, 0xF9, 0xFE, 0xB0, 0x00, 0x99, 0x08, 0x39, 0x00,
         0x16, 0xF6, 0xAD, 0xFF, 0x48, 0x05, 0x69, 0xFD, 0xD8, 0xFD, 0x6F, 0x01, 0x50, 0x00, 0xFA, 0x00,
         0xE2, 0xFE, 0x5D, 0xFE, 0x29, 0x04, 0xC9, 0x02, 0x7A, 0xFE, 0xFD, 0x00, 0x2D, 0xFB, 0xB7, 0xF4,
         0xB4, 0x02, 0x8A, 0x0D, 0xBF, 0x02, 0x6D, 0xFB, 0x55, 0x00, 0xB8, 0x00, 0x7D, 0xFB, 0xF3, 0xFA,
         0x9B, 0x01, 0x43, 0x06, 0x75, 0x02, 0x1A, 0xFC, 0xBB, 0xFB, 0xF9, 0x01, 0xA5, 0x05, 0x9B, 0xFF,
         0xC0, 0xFA, 0x4A, 0xFF, 0x35, 0x02, 0x6C, 0x03, 0xDF, 0xFE, 0x74, 0xF9, 0xA3, 0x02, 0x9D, 0x03,
         0xDB, 0xFD, 0x85, 0x03, 0x17, 0x00, 0x6A, 0xFA, 0x87, 0x01, 0xB1, 0x00, 0xB8, 0xFD, 0xD5, 0x02,
         0x86, 0xFD, 0xCA, 0xFD, 0x4B, 0x08, 0xB3, 0x02, 0xA3, 0xFB, 0x90, 0xFD, 0xC0, 0xFC, 0x80, 0x00,
         0x50, 0x04, 0x2F, 0xFC, 0x06, 0xFC, 0xC6, 0x07, 0xCD, 0x05, 0xD7, 0xFA, 0xAF, 0xFB, 0x39, 0x02,
         0x72, 0x01, 0x34, 0xFC, 0x63, 0xFD, 0x71, 0x04, 0x18, 0x04, 0x24, 0xFF, 0x6E, 0xFD, 0xE4, 0xFC,
         0x3C, 0x01, 0x61, 0x04, 0xAF, 0xFD, 0xBD, 0xFA, 0x26, 0x03, 0xC9, 0x06, 0x9D, 0xFF, 0xBE, 0xFB,
         0x8C, 0xFC, 0x68, 0xFE, 0x0D, 0x04, 0x19, 0x02, 0x05, 0xFC, 0xD8, 0xFF, 0x64, 0x03, 0x2D, 0x02,
         0xFE, 0x01, 0x8E, 0xFE, 0x15, 0xFB, 0x97, 0xFD, 0x30, 0xFF, 0x73, 0x00, 0x00, 0x04, 0x71, 0x03,
         0x4C, 0xFF, 0x39, 0xFC, 0x5C, 0xFF, 0x3C, 0x03, 0x7B, 0x01, 0x9D, 0xFE, 0x08, 0xFB, 0x9C, 0xFF,
         0x0E, 0x06, 0x25, 0xFF, 0x6F, 0xFB, 0xCF, 0xFF, 0xEB, 0x02, 0x23, 0x04, 0x56, 0xFF, 0x1C, 0xFC,
         0xA4, 0xFF, 0xC8, 0xFE, 0xFC, 0xFF, 0xAF, 0x06, 0xC2, 0xFF, 0x30, 0xF8, 0x08, 0xFF, 0x3C, 0x02,
         0x1B, 0x00, 0x6C, 0x02, 0xED, 0x04, 0x70, 0x01, 0x21, 0xFC, 0x3B, 0xFC, 0xC9, 0xFC, 0x53, 0xFB,
         0xDB, 0x01, 0x71, 0x09, 0x4B, 0x04, 0xF0, 0xFE, 0x83, 0xFE, 0xB4, 0xFA, 0x8F, 0xFB, 0x3B, 0x02,
         0x9E, 0x03, 0x85, 0x01, 0x6C, 0xFE, 0x30, 0xFC, 0x0E, 0x01, 0x62, 0x03, 0x32, 0x01, 0x2B, 0xFF,
         0x1E, 0xFE, 0x04, 0x04, 0xE0, 0x01, 0xD0, 0xF7, 0x76, 0xFB, 0x28, 0x03, 0x19, 0x03, 0xA6, 0x00,
         0x9A, 0x01, 0xE0, 0x03, 0xF4, 0x00, 0x90, 0xFB, 0x15, 0xFA, 0x5B, 0xFE, 0x05, 0x04, 0xB6, 0x02,
         0x72, 0xFE, 0x44, 0x02, 0xD4, 0xFF, 0x8D, 0xFB, 0x5A, 0x05, 0x12, 0x01, 0x77, 0xFB, 0xA3, 0x05,
         0x09, 0xFC, 0x18, 0xF4, 0x75, 0x06, 0x74, 0x09, 0x26, 0xFC, 0xA5, 0xFF, 0x2A, 0x04, 0x74, 0xFD,
         0xDF, 0xFB, 0x8D, 0xFE, 0xC4, 0x01, 0xC3, 0x05, 0xD8, 0x01, 0xAF, 0xF7, 0xE1, 0xFA, 0x98, 0x06,
         0xAB, 0x02, 0x01, 0xFB, 0xA8, 0x02, 0x59, 0x06, 0x1A, 0xFE, 0xF9, 0xFB, 0x1C, 0xFC, 0x8D, 0xFF,
         0x3B, 0x06, 0xB4, 0x00, 0x57, 0xFD, 0xDB, 0x00, 0xCC, 0xFD, 0xA8, 0xFF, 0xBA, 0x03, 0xBC, 0xFD,
         0x4C, 0xFE, 0xBE, 0x03, 0x08, 0xFF, 0x8E, 0xFD, 0x5F, 0x00, 0x7B, 0x01, 0xD8, 0x01, 0x07, 0xFF,
         0x4F, 0xFF, 0x46, 0xFF, 0x38, 0xFE, 0x87, 0x00, 0xB8, 0x00, 0x6E, 0x01, 0x76, 0x02, 0xA7, 0xFE,
         0x8B, 0xFD, 0x2F, 0x00, 0xDE, 0xFE, 0xFF, 0xFE, 0xA4, 0x02, 0xBE, 0x01, 0x5F, 0xFF, 0x95, 0xFF,
         0xD6, 0xFF, 0x7D, 0xFF, 0x84, 0xFF, 0xB8, 0xFF, 0x31, 0x00, 0x15, 0x01, 0xE7, 0xFF, 0x91, 0xFE,
         0xCC, 0x00, 0x57, 0x01, 0xAA, 0xFE, 0x8B, 0xFF, 0x61, 0x01, 0x93, 0xFF, 0x3F, 0xFF, 0x4D, 0x00,
         0xDE, 0xFF, 0x3B, 0x00, 0x8C, 0x00, 0xAB, 0xFF, 0xC7, 0xFF, 0x13, 0x00, 0x00, 0x00
     };

__align(2)
     const U8 motion_dj_vocal_wav_4[DJ_AUD_VOX_WAVE_4_LEN] = 
     {
         0x52, 0x49, 0x46, 0x46, 0xB6, 0x12, 0x00, 0x00, 0x57, 0x41, 0x56, 0x45, 0x66, 0x6D, 0x74, 0x20,
         0x10, 0x00, 0x00, 0x00, 0x01, 0x00, 0x01, 0x00, 0x80, 0x3E, 0x00, 0x00, 0x00, 0x7D, 0x00, 0x00,
         0x02, 0x00, 0x10, 0x00, 0x64, 0x61, 0x74, 0x61, 0x92, 0x12, 0x00, 0x00, 0xFD, 0xFF, 0xF8, 0xFF,
         0x02, 0x00, 0x06, 0x00, 0xEB, 0xFF, 0x02, 0x00, 0x21, 0x00, 0xFA, 0xFF, 0xF1, 0xFF, 0x2D, 0x00,
         0x12, 0x00, 0xB1, 0xFF, 0xD3, 0xFF, 0x5D, 0x00, 0x24, 0x00, 0x7F, 0xFF, 0xE7, 0xFF, 0x70, 0x00,
         0x0E, 0x00, 0x0D, 0x00, 0x15, 0x00, 0x9D, 0xFF, 0xCD, 0xFF, 0x52, 0x00, 0x06, 0x00, 0xB5, 0xFF,
         0xA4, 0x00, 0xB9, 0xFF, 0xA7, 0xFE, 0x1A, 0x01, 0xE0, 0x00, 0x4B, 0xFF, 0x6F, 0x00, 0x10, 0x00,
         0xB2, 0xFF, 0xD0, 0xFF, 0x04, 0xFF, 0xC3, 0xFF, 0x7A, 0x00, 0xFF, 0xFF, 0x15, 0x01, 0x71, 0x01,
         0x08, 0xFF, 0xCC, 0xFE, 0x5F, 0x00, 0xCC, 0xFF, 0x20, 0xFF, 0x03, 0x01, 0xE0, 0x00, 0x43, 0xFE,
         0x65, 0x00, 0x55, 0x00, 0x3A, 0xFE, 0xAA, 0x02, 0x65, 0x01, 0xB6, 0xFC, 0xD1, 0x00, 0xF0, 0x01,
         0x40, 0xFE, 0x2C, 0xFF, 0x90, 0xFF, 0x1D, 0x01, 0x70, 0x02, 0x89, 0xFC, 0x72, 0xFE, 0x49, 0x03,
         0x8D, 0x00, 0xD5, 0xFF, 0xAE, 0xFE, 0x0D, 0x00, 0xDE, 0x00, 0xED, 0xFE, 0xD3, 0x00, 0x3E, 0xFF,
         0x8B, 0xFF, 0x5E, 0x00, 0x2D, 0xFF, 0x68, 0x03, 0x89, 0x00, 0xFC, 0xFA, 0xBC, 0x00, 0x7C, 0x02,
         0x25, 0xFE, 0x6B, 0x00, 0xB4, 0xFF, 0x98, 0xFF, 0x8C, 0x03, 0x5C, 0xFF, 0x78, 0xFE, 0xAE, 0xFF,
         0xEE, 0xFE, 0x85, 0x01, 0x7C, 0xFE, 0x74, 0xFE, 0x29, 0x03, 0x1D, 0xFF, 0xC7, 0xFF, 0x85, 0x04,
         0x9B, 0xFB, 0xCC, 0xFD, 0xB1, 0x04, 0x1F, 0xFD, 0xAD, 0x00, 0x4D, 0x00, 0xE9, 0xFF, 0x86, 0x02,
         0x61, 0xF8, 0x3D, 0x02, 0xFC, 0x06, 0xAC, 0xFB, 0x1D, 0xFF, 0xE5, 0x00, 0x4E, 0x01, 0x92, 0xFE,
         0x55, 0xFE, 0x20, 0x03, 0xF7, 0xFC, 0x56, 0x00, 0xC1, 0x04, 0x17, 0xFD, 0xA6, 0xFE, 0x2F, 0x01,
         0x8E, 0xFD, 0x72, 0xFE, 0xBC, 0x03, 0x0F, 0x03, 0x53, 0xFD, 0x2F, 0xFF, 0x70, 0x00, 0x76, 0xFF,
         0x45, 0x01, 0x3B, 0xFE, 0xE0, 0xFF, 0xE9, 0x00, 0xEC, 0xFE, 0xC5, 0x00, 0x3C, 0xFE, 0xF8, 0x03,
         0xA7, 0x02, 0xDB, 0xF7, 0x55, 0x01, 0xA6, 0x05, 0xA6, 0xFE, 0x85, 0xFD, 0xB5, 0xFB, 0x7E, 0x00,
         0x4A, 0x06, 0x8E, 0xFF, 0x6F, 0xFD, 0xF8, 0x03, 0x8F, 0x00, 0xA7, 0xFA, 0xFC, 0xFD, 0xB3, 0x03,
         0x7C, 0x01, 0x61, 0xFB, 0xB0, 0x01, 0x13, 0x05, 0x7B, 0xFD, 0x70, 0xFC, 0xED, 0xFE, 0x63, 0x01,
         0x6A, 0x01, 0xED, 0x03, 0x93, 0x05, 0x6C, 0xFB, 0x75, 0xFA, 0xCC, 0xFC, 0x5F, 0xFA, 0x93, 0x06,
         0x4A, 0x08, 0x7E, 0xF8, 0xA2, 0xFE, 0x6B, 0x09, 0x2B, 0x00, 0x06, 0xFD, 0x43, 0xFD, 0xBF, 0xFE,
         0xA5, 0x03, 0xC9, 0xFA, 0xEB, 0xFC, 0x61, 0x09, 0xDD, 0x00, 0x77, 0xF6, 0x13, 0xFD, 0x70, 0x04,
         0x4E, 0x04, 0x39, 0x04, 0x06, 0x04, 0x8B, 0xFE, 0xD7, 0xF8, 0x83, 0xFB, 0x86, 0x03, 0x58, 0xFD,
         0x72, 0xF7, 0x58, 0x0B, 0xFA, 0x09, 0x1E, 0xF6, 0xAF, 0xFC, 0xDD, 0xFF, 0x1B, 0x03, 0x1A, 0x0A,
         0x91, 0xFA, 0xCC, 0xF9, 0xFB, 0x07, 0xF4, 0xF9, 0xE9, 0xF8, 0x7F, 0x03, 0x13, 0xFA, 0x7F, 0x07,
         0x18, 0x09, 0xAB, 0xFA, 0xDA, 0x09, 0x8F, 0xFD, 0x95, 0xEC, 0xA2, 0x0A, 0xC1, 0x03, 0x06, 0xE7,
         0x7F, 0x08, 0x59, 0x19, 0x6D, 0xFF, 0x44, 0xFC, 0x59, 0xF9, 0xE6, 0xF5, 0xE1, 0x01, 0x0E, 0x04,
         0x95, 0xFC, 0x46, 0x0C, 0xBD, 0x0C, 0x17, 0xE0, 0x59, 0x00, 0x49, 0x1F, 0xEC, 0xE2, 0xBB, 0xF4,
         0x63, 0x13, 0xC5, 0x07, 0x7E, 0x15, 0x81, 0xF2, 0x7D, 0xE3, 0xCE, 0x07, 0x2C, 0x05, 0x7C, 0xF6,
         0xDC, 0x02, 0xC7, 0x0E, 0xB0, 0x00, 0xA9, 0xFE, 0x9A, 0xFB, 0xDD, 0xEC, 0x04, 0x12, 0xE0, 0x1D,
         0x72, 0xDE, 0xDD, 0xE4, 0x23, 0x1F, 0x6C, 0x08, 0x95, 0xF1, 0xD9, 0x0E, 0xF3, 0x04, 0xB9, 0xEE,
         0x87, 0xF9, 0xDD, 0xFB, 0x30, 0x06, 0xAF, 0x0F, 0x1B, 0xF9, 0xF5, 0xFD, 0x19, 0x07, 0x99, 0xF9,
         0x51, 0x06, 0x62, 0xFD, 0x48, 0xEB, 0xA9, 0x08, 0x1F, 0x0F, 0x0B, 0xF6, 0x1F, 0x00, 0x35, 0x08,
         0x7C, 0x01, 0x37, 0xFD, 0xF0, 0xF5, 0x3C, 0x04, 0xC2, 0xF6, 0x5B, 0x02, 0xBB, 0x1F, 0xAA, 0xE6,
         0x8D, 0xF1, 0x70, 0x1E, 0x47, 0xF7, 0xCA, 0xEF, 0x4C, 0x06, 0xED, 0x0C, 0xC1, 0xF7, 0x40, 0xF4,
         0x6B, 0x13, 0xB6, 0xFC, 0x3D, 0xF1, 0x5B, 0x17, 0x3F, 0xF7, 0x9E, 0xE5, 0xE9, 0x21, 0x70, 0xFB,
         0x8F, 0xE2, 0x23, 0x1E, 0x45, 0x01, 0xC3, 0xF2, 0xB4, 0x02, 0xDE, 0xFF, 0x59, 0x0A, 0x07, 0xF0,
         0x18, 0xFA, 0x7D, 0x14, 0xAA, 0xF9, 0xD2, 0xFD, 0xAC, 0x0A, 0x70, 0xF2, 0x8E, 0xFE, 0x39, 0x0B,
         0x41, 0xF9, 0x80, 0x02, 0x7A, 0xF5, 0xBD, 0xFD, 0xDB, 0x10, 0x50, 0xF5, 0xA5, 0x07, 0xA5, 0x0A,
         0x2A, 0xFC, 0x5C, 0xF2, 0x9C, 0xE9, 0xDF, 0x29, 0x94, 0x07, 0xB1, 0xC3, 0x6B, 0x1A, 0x40, 0x32,
         0xDC, 0xD9, 0xF3, 0xD9, 0x9F, 0x27, 0xAF, 0x1F, 0xA0, 0xC9, 0xEF, 0xE8, 0x80, 0x51, 0x36, 0xFF,
         0x34, 0xA4, 0xC7, 0x31, 0x6C, 0x4D, 0x60, 0xA7, 0x22, 0xD4, 0x1B, 0x49, 0x72, 0xFE, 0x37, 0xE2,
         0xB0, 0xFB, 0xB8, 0x14, 0x97, 0x34, 0xD7, 0xD7, 0x2A, 0xD7, 0x27, 0x24, 0x3D, 0xFD, 0xF1, 0xF3,
         0x4B, 0x08, 0x89, 0x03, 0xBD, 0xE8, 0x83, 0xF4, 0x79, 0x3A, 0xCE, 0x0A, 0x39, 0xB8, 0x7E, 0x0F,
         0x57, 0x43, 0x4D, 0xD9, 0x59, 0xCA, 0x92, 0x19, 0xC5, 0x20, 0x4B, 0x03, 0xC2, 0xEA, 0xAF, 0xED,
         0x3F, 0x13, 0xEE, 0x07, 0x2B, 0xF7, 0xC6, 0x11, 0x38, 0xF1, 0xFB, 0xF0, 0xC1, 0x19, 0xD3, 0xF8,
         0xA3, 0xEA, 0xB3, 0x00, 0xBB, 0x29, 0x4B, 0xF3, 0xA2, 0xBE, 0x71, 0x47, 0x0D, 0x25, 0x54, 0xA9,
         0xCB, 0x07, 0x0A, 0x25, 0xBB, 0xEE, 0xF3, 0x01, 0x26, 0x01, 0xCE, 0xF8, 0xEB, 0x13, 0x15, 0x03,
         0x90, 0xE4, 0x89, 0xF7, 0xF6, 0x17, 0x4C, 0x09, 0xE7, 0xDD, 0x82, 0x10, 0x86, 0x27, 0x06, 0xE4,
         0x3F, 0xF2, 0x7E, 0xFA, 0xF0, 0xF0, 0x70, 0x21, 0xEE, 0x15, 0x7D, 0xDF, 0x6F, 0xEB, 0x4A, 0x1F,
         0xBD, 0x0C, 0xA9, 0xE7, 0xCE, 0x04, 0x29, 0xFE, 0xC4, 0xF9, 0x7A, 0x14, 0x1D, 0xF1, 0x5A, 0xEC,
         0xBA, 0x1C, 0x70, 0x15, 0xF2, 0xE0, 0xB1, 0xE7, 0x8D, 0x21, 0x59, 0x0A, 0x12, 0xE7, 0x48, 0x05,
         0xA3, 0x04, 0x07, 0xFF, 0xEF, 0x09, 0x2A, 0xEE, 0xD6, 0xF2, 0xAA, 0x1C, 0xDD, 0x05, 0x99, 0xEE,
         0xF1, 0x08, 0x36, 0xFC, 0x0F, 0xEF, 0x43, 0x11, 0xFC, 0x08, 0x74, 0xE9, 0x8D, 0x04, 0x3D, 0x14,
         0x7D, 0xF4, 0xD4, 0xF1, 0x9C, 0x11, 0x29, 0x05, 0x0B, 0xEC, 0x91, 0x0C, 0x7D, 0xFF, 0x16, 0xEA,
         0x8B, 0x1B, 0xF3, 0x04, 0x9B, 0xE5, 0x73, 0x19, 0xA8, 0x00, 0x38, 0xD3, 0xF5, 0x15, 0x51, 0x25,
         0xE6, 0xE9, 0x91, 0xEE, 0x69, 0x05, 0x6D, 0x0A, 0x5A, 0x01, 0xC3, 0xF6, 0x84, 0xFC, 0x56, 0x08,
         0xC3, 0x15, 0x30, 0xED, 0x67, 0xE6, 0x17, 0x15, 0xB1, 0xFE, 0xDC, 0xFF, 0x41, 0x0C, 0x5C, 0xEE,
         0x09, 0x05, 0xB7, 0x0D, 0xFE, 0xE8, 0x7B, 0x04, 0x24, 0x15, 0xD3, 0x01, 0x95, 0x00, 0x75, 0xD3,
         0x07, 0x29, 0xC8, 0x14, 0x4B, 0x86, 0xCC, 0x34, 0x61, 0x6C, 0x42, 0x03, 0xA8, 0x0F, 0xCF, 0x91,
         0x08, 0xF9, 0x13, 0x53, 0x06, 0x93, 0x85, 0x05, 0x57, 0x77, 0x7F, 0xBC, 0xED, 0xC0, 0xAB, 0x3D,
         0xB4, 0x0D, 0x31, 0x0E, 0x80, 0xB6, 0x21, 0xF8, 0xB8, 0x4D, 0x6E, 0xBA, 0x89, 0x20, 0xAF, 0x24,
         0x22, 0xA1, 0x7B, 0x55, 0x0B, 0x37, 0xBF, 0x88, 0x7F, 0x1C, 0x7E, 0x4A, 0x57, 0xAB, 0xE8, 0x27,
         0x99, 0x36, 0x40, 0xBF, 0x30, 0xFD, 0x85, 0x29, 0x66, 0x14, 0x6F, 0xE0, 0xAF, 0xBE, 0x50, 0x1C,
         0x87, 0x36, 0xD4, 0xC9, 0x39, 0xF0, 0x1B, 0x41, 0xD3, 0x0C, 0xF7, 0xEC, 0x73, 0xEE, 0xCE, 0xF5,
         0x87, 0x0A, 0x5F, 0x05, 0x8C, 0xF6, 0xB4, 0xED, 0x80, 0xF2, 0x42, 0x1D, 0xBD, 0x21, 0x59, 0xE8,
         0xF2, 0xF0, 0xC5, 0x21, 0x77, 0x15, 0xCB, 0xCB, 0xCF, 0xD9, 0xF0, 0x38, 0xCB, 0xF2, 0x1B, 0xCF,
         0x3B, 0x3C, 0xA4, 0x1D, 0x02, 0xDD, 0xC7, 0xEE, 0xC1, 0xFA, 0x7D, 0x21, 0xB9, 0x13, 0x9A, 0xD2,
         0x9C, 0x06, 0xBF, 0x03, 0xC2, 0xD6, 0xE8, 0x33, 0x6F, 0x0A, 0x97, 0xC5, 0xB5, 0x2B, 0xEA, 0x25,
         0x3C, 0xD1, 0x14, 0xE7, 0x44, 0x1B, 0x77, 0x14, 0xAF, 0xF2, 0x4B, 0xF0, 0x41, 0x03, 0x7E, 0xFB,
         0x25, 0xFA, 0xA8, 0x0E, 0xB4, 0x01, 0xDC, 0x01, 0xE5, 0x18, 0x8E, 0xF6, 0x8C, 0xE4, 0x6A, 0x03,
         0x32, 0xF3, 0x9B, 0x07, 0x1C, 0x20, 0x76, 0xDA, 0x5F, 0xFB, 0x0D, 0x43, 0x94, 0xE8, 0xA3, 0xB6,
         0xE4, 0x1F, 0xC9, 0x3E, 0x31, 0xE2, 0xEB, 0xD1, 0xBD, 0x1D, 0x30, 0x1A, 0x6B, 0xDC, 0xFD, 0x01,
         0xD1, 0x0D, 0x6F, 0xEC, 0x22, 0x1F, 0x2D, 0x03, 0xC7, 0xE0, 0xC5, 0x08, 0xF7, 0xFC, 0xAA, 0x09,
         0xC0, 0x04, 0xE2, 0xE6, 0x85, 0x0C, 0x88, 0x1E, 0x2E, 0xF5, 0xB1, 0xD2, 0x3D, 0xFF, 0x68, 0x3E,
         0xDB, 0x03, 0x7D, 0xC1, 0xFF, 0x0F, 0xE0, 0x1F, 0x8A, 0xDD, 0x04, 0xFE, 0x4E, 0x0E, 0x1B, 0x0C,
         0x91, 0x04, 0x35, 0xEB, 0xBD, 0x0A, 0x35, 0xFB, 0xCA, 0xF1, 0xD8, 0x0D, 0x17, 0xFB, 0x5E, 0x08,
         0xFF, 0x09, 0x32, 0xEA, 0xD3, 0x02, 0x11, 0x08, 0x38, 0xF8, 0x56, 0x1C, 0x42, 0xF2, 0x9A, 0xCC,
         0xA6, 0x22, 0xFB, 0x21, 0xB0, 0xE9, 0xFC, 0xF1, 0xA5, 0xF3, 0x0F, 0x17, 0x71, 0x2A, 0x86, 0xD7,
         0x1B, 0xDF, 0xD4, 0x27, 0xCA, 0xFC, 0x61, 0xEC, 0x05, 0x05, 0x83, 0xFD, 0x6D, 0x12, 0xBB, 0x03,
         0xFD, 0xE3, 0xE7, 0x0E, 0x3C, 0x11, 0xE4, 0xF5, 0x43, 0x04, 0xD1, 0xE5, 0x0A, 0x09, 0x69, 0x22,
         0x0F, 0xD0, 0x8F, 0xFA, 0x6A, 0x28, 0x11, 0xEE, 0xF0, 0xF6, 0x5F, 0x15, 0xC0, 0x03, 0xB2, 0xFC,
         0x64, 0x06, 0x31, 0xEE, 0x58, 0xE2, 0xE2, 0x12, 0x12, 0x20, 0x97, 0xE9, 0xEA, 0xF5, 0x34, 0x1E,
         0xDE, 0xF0, 0x5C, 0xF3, 0x32, 0x0F, 0xF9, 0xFF, 0xA0, 0x01, 0xDE, 0xEC, 0xD8, 0x08, 0xE5, 0x14,
         0x74, 0xDE, 0x18, 0x08, 0x70, 0x1C, 0x8E, 0xE6, 0xBC, 0xF9, 0x39, 0x18, 0x86, 0xFC, 0x11, 0xEE,
         0x3A, 0xFE, 0x3C, 0x12, 0x19, 0x03, 0xE3, 0xE3, 0x9F, 0x05, 0xCF, 0x11, 0x0F, 0x08, 0x6B, 0x0B,
         0xD0, 0xD4, 0xBF, 0xF3, 0x5A, 0x39, 0xCB, 0xE3, 0x7F, 0xCF, 0x7B, 0x3F, 0x84, 0x20, 0x49, 0xD1,
         0xE4, 0xF4, 0xDF, 0x00, 0xD3, 0x00, 0x85, 0x15, 0xA5, 0xF3, 0xFA, 0xEA, 0x0B, 0x12, 0xF7, 0x0E,
         0x95, 0x05, 0xAA, 0xF4, 0x5C, 0xE4, 0xE0, 0x16, 0xF6, 0x17, 0x53, 0xDB, 0xC3, 0xEA, 0x41, 0x1D,
         0x57, 0x17, 0xC4, 0xF4, 0xED, 0xF3, 0xF8, 0xFF, 0x56, 0x03, 0x3C, 0x05, 0x9A, 0xF6, 0x59, 0xF9,
         0x2E, 0x13, 0x2B, 0x00, 0x0B, 0xEA, 0xBF, 0x0A, 0x15, 0x09, 0x1D, 0xFA, 0x88, 0x04, 0x74, 0xEA,
         0x14, 0x04, 0x18, 0x26, 0xEA, 0xEF, 0xC1, 0xE6, 0x4A, 0x0A, 0x53, 0x05, 0x79, 0xFD, 0x27, 0x01,
         0xD7, 0x00, 0x00, 0x06, 0x1D, 0x07, 0x03, 0xF9, 0x9E, 0xF1, 0xBA, 0xF8, 0xFF, 0x07, 0x50, 0x0B,
         0xD5, 0xF9, 0xE1, 0xFB, 0x67, 0x10, 0x2A, 0x05, 0x4E, 0xEE, 0x62, 0x02, 0xB8, 0x0B, 0xF2, 0xF1,
         0x1C, 0xFC, 0x2D, 0xFB, 0x3D, 0xF4, 0x68, 0x1E, 0xD2, 0x10, 0x8A, 0xE0, 0x1C, 0xFB, 0x0B, 0x1B,
         0xF8, 0x03, 0x99, 0xE9, 0xAB, 0xEA, 0xAE, 0x0A, 0xC7, 0x1E, 0x10, 0xFF, 0x03, 0xEE, 0x72, 0xFA,
         0x31, 0x00, 0x05, 0x0A, 0x7F, 0x01, 0xA0, 0xF3, 0x46, 0x09, 0xF5, 0x0B, 0x8A, 0xF3, 0x6D, 0xF8,
         0xFE, 0xFE, 0x75, 0x06, 0x12, 0x12, 0x11, 0xF4, 0x50, 0xEA, 0xA3, 0x14, 0x7C, 0x0E, 0xAE, 0xE6,
         0x06, 0xF0, 0xDE, 0x10, 0xCD, 0x19, 0x63, 0xF9, 0xD7, 0xE5, 0xF7, 0x0A, 0xB0, 0x0E, 0x39, 0xEB,
         0x36, 0x01, 0xC6, 0x12, 0x2F, 0xF7, 0xCD, 0x01, 0x13, 0xFF, 0xC5, 0xDA, 0xE5, 0x0F, 0xA2, 0x3B,
         0x3B, 0xE8, 0x8E, 0xD2, 0xB4, 0x19, 0x12, 0x0D, 0xFC, 0xEA, 0x24, 0x07, 0x16, 0x08, 0x43, 0xFE,
         0x2A, 0x05, 0x3B, 0xED, 0x8D, 0xF5, 0x54, 0x16, 0x2B, 0x0A, 0xDE, 0xFC, 0x93, 0xF5, 0x75, 0xF0,
         0xD2, 0x0D, 0x5C, 0x15, 0x6E, 0xF3, 0x11, 0xF1, 0xC9, 0xFF, 0x9B, 0x09, 0x1B, 0x08, 0xF5, 0xF1,
         0xF5, 0xFD, 0x66, 0x0A, 0x10, 0xFD, 0x9E, 0x0B, 0x88, 0x00, 0x91, 0xDF, 0x85, 0x05, 0x40, 0x1B,
         0x94, 0xF3, 0xE7, 0x00, 0xF0, 0x10, 0xE3, 0xE7, 0xDB, 0xF4, 0x8F, 0x16, 0x97, 0xFA, 0xD2, 0xF7,
         0x1E, 0x0C, 0x71, 0xFF, 0x7C, 0x00, 0x57, 0x03, 0x0D, 0xF7, 0x5A, 0x01, 0x66, 0xFD, 0xDE, 0xF2,
         0x91, 0x10, 0x81, 0x09, 0x2E, 0xF4, 0xBD, 0x08, 0xB8, 0x01, 0x43, 0xF1, 0x09, 0xF9, 0xB8, 0x05,
         0xFD, 0x17, 0x5B, 0x01, 0x03, 0xD9, 0x30, 0x01, 0xD8, 0x23, 0xF6, 0xF6, 0xCC, 0xF0, 0xBD, 0x0C,
         0x72, 0x01, 0xC6, 0xF8, 0xBD, 0xFE, 0xE9, 0xFE, 0x86, 0x04, 0x81, 0xFE, 0xE2, 0xF8, 0xE1, 0x08,
         0xCB, 0x04, 0x86, 0xF8, 0xFE, 0x02, 0xD4, 0x02, 0xC9, 0xF8, 0x35, 0xFF, 0xE9, 0x05, 0xAE, 0x01,
         0x25, 0xF8, 0xA5, 0xFC, 0xA6, 0x0E, 0xBC, 0xFA, 0xF6, 0xED, 0x11, 0x10, 0xE7, 0x0C, 0x63, 0xF0,
         0x27, 0xFF, 0xB3, 0x0C, 0x3E, 0xFE, 0x80, 0xF9, 0x1E, 0xF3, 0xFE, 0xF0, 0xB3, 0x16, 0xAD, 0x21,
         0xFC, 0xEC, 0xB0, 0xE3, 0xF8, 0x12, 0x7F, 0x08, 0x19, 0xED, 0x96, 0x05, 0x70, 0x09, 0x98, 0xFD,
         0x98, 0xFB, 0x6E, 0xF2, 0xDE, 0x07, 0x18, 0x13, 0xEC, 0xF9, 0x9A, 0xF9, 0x03, 0xFF, 0x3F, 0xF7,
         0x50, 0x08, 0x3E, 0x0C, 0x4E, 0xF3, 0x77, 0xF7, 0x3A, 0x0D, 0xF5, 0x0B, 0x11, 0xEE, 0x73, 0xF0,
         0xC9, 0x15, 0x08, 0xFF, 0xED, 0xF1, 0xD6, 0x17, 0x25, 0x02, 0xDF, 0xE4, 0xFA, 0x0A, 0x83, 0x0B,
         0xB2, 0xEE, 0x3D, 0x06, 0xAE, 0x09, 0xCE, 0xED, 0x92, 0xFD, 0xF1, 0x13, 0xDF, 0x01, 0x1A, 0xF2,
         0x7C, 0xFF, 0x05, 0x0A, 0xDB, 0x00, 0x3A, 0xF8, 0x2D, 0x00, 0x97, 0x01, 0x56, 0xF8, 0x56, 0xFE,
         0x79, 0x0A, 0xD8, 0x05, 0xA3, 0x01, 0x26, 0xFA, 0x2F, 0xFA, 0x9E, 0x04, 0x5E, 0xF6, 0xEB, 0xFD,
         0xB8, 0x11, 0xB9, 0xFA, 0xD3, 0xF5, 0xB8, 0x09, 0x40, 0x03, 0x15, 0xFA, 0x86, 0x00, 0xD0, 0xFE,
         0xC6, 0x01, 0x21, 0x03, 0xC1, 0xFD, 0xC0, 0xFE, 0x87, 0xFC, 0x10, 0xFB, 0x28, 0xFD, 0x85, 0x0C,
         0xBC, 0x0F, 0x45, 0xF1, 0x04, 0xF6, 0xA7, 0x0C, 0x4B, 0xFE, 0x8D, 0xF5, 0x0A, 0x04, 0xDB, 0x05,
         0x2C, 0xF9, 0xEC, 0xFD, 0x37, 0x0E, 0xEE, 0xFD, 0x37, 0xEF, 0x2C, 0x06, 0x09, 0x0A, 0x20, 0xFB,
         0x71, 0x00, 0xA7, 0xFA, 0x42, 0x04, 0x92, 0x10, 0x4E, 0xEE, 0x39, 0xED, 0x03, 0x11, 0xEB, 0x07,
         0xF0, 0xF8, 0xF7, 0xFE, 0xC4, 0x02, 0xAA, 0x05, 0x66, 0x07, 0x46, 0xEF, 0xA7, 0xF1, 0x3C, 0x1F,
         0xA7, 0xFC, 0x32, 0xD2, 0x35, 0x1E, 0x36, 0x26, 0x6C, 0xE4, 0x33, 0x07, 0xAC, 0xFA, 0xDD, 0xC5,
         0xAC, 0x27, 0xF1, 0x2D, 0x51, 0xC4, 0x59, 0x00, 0x33, 0x52, 0x12, 0xFD, 0xED, 0xA6, 0xAE, 0xEE,
         0x5F, 0x50, 0x43, 0xEF, 0x92, 0xAA, 0x5E, 0x41, 0x8E, 0x59, 0x68, 0xC8, 0xDD, 0xCF, 0xF4, 0x0A,
         0x55, 0xEC, 0x25, 0x1A, 0x97, 0x1A, 0xFD, 0xD5, 0xF0, 0x14, 0xE9, 0x3D, 0x27, 0xD4, 0xCB, 0xC0,
         0x01, 0x04, 0x96, 0x12, 0xE1, 0x22, 0x65, 0x20, 0xBA, 0xDC, 0xBC, 0xE5, 0xEB, 0x1A, 0xCE, 0x03,
         0xCF, 0xD8, 0x6D, 0xEF, 0xA9, 0x24, 0xA0, 0x20, 0x44, 0xFC, 0xFC, 0xE9, 0x20, 0xED, 0x69, 0x16,
         0x94, 0x0F, 0x14, 0xD9, 0x1B, 0xF9, 0x8E, 0x1F, 0xC4, 0xFA, 0x4E, 0xFB, 0xA6, 0xFF, 0x40, 0xF8,
         0x55, 0x17, 0xD6, 0x01, 0x33, 0xFA, 0x4F, 0x0E, 0x73, 0xDD, 0x6E, 0xEA, 0x26, 0x17, 0xC1, 0xFD,
         0x4A, 0x10, 0x8D, 0x19, 0xDE, 0xE6, 0xDF, 0xF7, 0x37, 0x08, 0x4B, 0xF0, 0x66, 0x06, 0xD8, 0x05,
         0x69, 0xF8, 0xE2, 0x10, 0xC9, 0xFE, 0x32, 0xEF, 0xCF, 0x0F, 0xFB, 0xF7, 0x2E, 0xE6, 0x41, 0x1E,
         0x9E, 0x0D, 0x12, 0xD1, 0x5D, 0x0C, 0x1E, 0x36, 0x18, 0xEA, 0xE5, 0xE8, 0x9C, 0x12, 0x11, 0xE9,
         0xD7, 0xF6, 0x8A, 0x1E, 0x73, 0xED, 0x4B, 0xF0, 0x1C, 0x2B, 0x81, 0xFD, 0x0B, 0xE2, 0x78, 0x20,
         0xA0, 0xFC, 0x53, 0xCA, 0x35, 0x1E, 0x87, 0x1D, 0xA4, 0xE0, 0x04, 0x2E, 0xD1, 0xFF, 0xA5, 0x87,
         0x69, 0x29, 0x6B, 0x62, 0x21, 0xB3, 0x8C, 0xEC, 0xE4, 0x7B, 0x6D, 0xFA, 0x00, 0x80, 0xC7, 0xF9,
         0x92, 0x76, 0x7E, 0xD6, 0xAF, 0x95, 0xEF, 0x4F, 0xB2, 0x57, 0xB8, 0xAB, 0x84, 0xB6, 0x53, 0x12,
         0xBA, 0xD5, 0xCB, 0x24, 0x44, 0x42, 0x1E, 0xC3, 0xC8, 0x0C, 0xAC, 0x5B, 0x06, 0xBE, 0x38, 0xA7,
         0x1A, 0x0C, 0x3D, 0x0D, 0xE5, 0x37, 0xCB, 0x47, 0x8C, 0xB3, 0x02, 0xC2, 0x22, 0x48, 0x28, 0x11,
         0x1B, 0xB2, 0x5D, 0xE0, 0xD4, 0x34, 0x95, 0x48, 0x74, 0x0A, 0x2B, 0xBA, 0xB7, 0xD4, 0x94, 0x38,
         0xBF, 0x22, 0x78, 0xC5, 0x47, 0xE1, 0xBC, 0x2C, 0x1D, 0x13, 0x2A, 0xEE, 0xD8, 0xE6, 0xC7, 0x06,
         0xD1, 0x32, 0x8E, 0xF8, 0x24, 0xF1, 0x88, 0x19, 0xE2, 0xCD, 0xC4, 0xDE, 0x6F, 0x2B, 0x5B, 0xED,
         0x20, 0x01, 0x70, 0x48, 0x6F, 0xE7, 0x91, 0xD3, 0x93, 0x0F, 0x90, 0xF8, 0x5C, 0x08, 0x0C, 0x07,
         0xF0, 0xF4, 0x12, 0x1F, 0x1F, 0xEE, 0xAA, 0xD6, 0x08, 0x36, 0x7F, 0xFA, 0x63, 0xC2, 0x68, 0x38,
         0x4E, 0x13, 0xED, 0xB6, 0xEF, 0x16, 0x87, 0x3B, 0xB1, 0xE2, 0x3F, 0xFC, 0x54, 0x22, 0x54, 0xD3,
         0xF3, 0xE6, 0x29, 0x2C, 0x0A, 0xE2, 0xD4, 0xD4, 0x50, 0x36, 0x94, 0x2B, 0x45, 0xEF, 0x98, 0xF4,
         0x38, 0xF8, 0x4F, 0xF7, 0xDD, 0x07, 0x54, 0xEB, 0x77, 0xEF, 0x8E, 0x4C, 0xE8, 0x15, 0xB8, 0x89,
         0x68, 0xF4, 0xF9, 0x68, 0x27, 0xE9, 0x12, 0xCC, 0x64, 0x4D, 0xB4, 0x0C, 0x5C, 0x97, 0xBF, 0x0D,
         0xD1, 0x58, 0x1E, 0xC7, 0x56, 0xBC, 0x8B, 0x55, 0xA7, 0x2F, 0x68, 0xC7, 0xE0, 0x05, 0x34, 0x05,
         0x78, 0xB1, 0x02, 0x16, 0xE7, 0x58, 0x09, 0xE0, 0x57, 0xD5, 0xC6, 0x29, 0xE4, 0x07, 0x10, 0xE6,
         0x72, 0xFA, 0xCA, 0xFB, 0xE8, 0x17, 0xA8, 0x24, 0x3E, 0xC2, 0x6E, 0xC2, 0xD1, 0x49, 0xA4, 0x2F,
         0x6F, 0xCC, 0xED, 0xEC, 0x55, 0x14, 0xBF, 0x28, 0xAF, 0x1E, 0x91, 0xB6, 0x94, 0xB4, 0x16, 0x3D,
         0x41, 0x3A, 0x64, 0xDC, 0xE3, 0xE6, 0xF3, 0x23, 0x9B, 0x1D, 0x1B, 0xD9, 0x99, 0xCE, 0x46, 0x0F,
         0x9F, 0x32, 0x13, 0x0C, 0x14, 0xE5, 0xA9, 0xF9, 0x30, 0xFF, 0xED, 0xFB, 0x18, 0x0C, 0x1A, 0xF0,
         0x31, 0xEF, 0xEA, 0x2D, 0x03, 0x0D, 0xB9, 0xCB, 0x3A, 0xFB, 0x37, 0x20, 0x37, 0x0A, 0xA9, 0xEF,
         0x6A, 0xEB, 0x4B, 0x20, 0x68, 0x04, 0x90, 0xD9, 0x61, 0x1C, 0x59, 0x06, 0x36, 0xE5, 0x60, 0x15,
         0x14, 0xF4, 0x20, 0xE8, 0x46, 0x1D, 0xD3, 0x07, 0x4B, 0xE6, 0x58, 0x11, 0xC2, 0x21, 0xB0, 0xEE,
         0x18, 0xE4, 0xE4, 0x0C, 0xA8, 0xFB, 0xC5, 0xDF, 0x0D, 0x10, 0xAB, 0x1C, 0x00, 0xFB, 0xAB, 0x01,
         0xF4, 0x01, 0x13, 0xFD, 0xF3, 0x02, 0xFC, 0xEB, 0x26, 0xF1, 0x2A, 0x28, 0x7E, 0x0D, 0x72, 0xC7,
         0x4E, 0xFB, 0xA2, 0x35, 0xE6, 0xF6, 0x74, 0xE9, 0x01, 0x21, 0x62, 0xFB, 0x4F, 0xD7, 0x47, 0x13,
         0xDB, 0x11, 0x0F, 0xDC, 0xF2, 0xFC, 0x5B, 0x23, 0x13, 0x02, 0x10, 0xF7, 0x2D, 0x18, 0x61, 0xF7,
         0x43, 0xC5, 0x56, 0x0B, 0x22, 0x3A, 0xF1, 0xEA, 0xE9, 0xD7, 0xC1, 0x15, 0x6C, 0x15, 0x03, 0x04,
         0x4B, 0xFD, 0xC4, 0xF3, 0xC8, 0x06, 0x8A, 0xF9, 0x50, 0xEA, 0x40, 0xFA, 0x6C, 0x11, 0x0D, 0x1F,
         0x8B, 0xEF, 0x94, 0xF3, 0x17, 0x0A, 0x23, 0xFB, 0xF2, 0x24, 0xE5, 0xED, 0xC1, 0xBC, 0x46, 0x1F,
         0xAC, 0x20, 0x91, 0xEB, 0xB8, 0xF9, 0xFC, 0x19, 0xFC, 0x18, 0xD0, 0xD9, 0x55, 0xDE, 0xE5, 0x17,
         0x2A, 0x0E, 0xDE, 0xFF, 0x37, 0xFE, 0x48, 0xFA, 0x40, 0x08, 0x17, 0x03, 0x51, 0xF8, 0x50, 0xFD,
         0x50, 0xEF, 0x18, 0x07, 0x4D, 0x21, 0x8A, 0xEC, 0xA7, 0xEC, 0x8A, 0x1C, 0xE4, 0x04, 0xA0, 0xE3,
         0xBD, 0xF1, 0x89, 0x1E, 0x38, 0x16, 0xB7, 0xE2, 0x67, 0xF3, 0x2D, 0x14, 0x03, 0x09, 0xA8, 0xF1,
         0x95, 0xED, 0xEF, 0x0F, 0x83, 0x13, 0x5B, 0xE9, 0x1F, 0xEF, 0x7C, 0x13, 0x03, 0x12, 0x9D, 0xFF,
         0x8C, 0xF0, 0xB4, 0xFC, 0xFA, 0x0F, 0x45, 0xF7, 0x47, 0xF1, 0x4E, 0x04, 0x32, 0xFB, 0xE8, 0x07,
         0xA1, 0x0D, 0xFB, 0xF6, 0xF5, 0x09, 0xED, 0x02, 0x91, 0xEC, 0x2A, 0x02, 0x1F, 0xFB, 0xFD, 0x03,
         0x4D, 0x09, 0x78, 0xF1, 0xB9, 0x07, 0xE2, 0x0F, 0xBD, 0xFF, 0xAC, 0xF3, 0x35, 0xFA, 0x64, 0x0C,
         0x32, 0xEE, 0x13, 0xF6, 0xD2, 0x16, 0xB9, 0xFA, 0xBD, 0xFC, 0x93, 0x12, 0xB4, 0x04, 0x9F, 0xF1,
         0x54, 0xF1, 0xE9, 0x0B, 0x11, 0x0A, 0x5A, 0xEE, 0x89, 0xF8, 0xC0, 0x0A, 0xCD, 0x02, 0xED, 0x06,
         0xCC, 0xFF, 0x1E, 0xFA, 0x64, 0x0A, 0xEB, 0xEB, 0x98, 0x03, 0x67, 0x1D, 0xFE, 0xE0, 0xA6, 0xFB,
         0xE2, 0x0C, 0x5E, 0xF9, 0xAB, 0x08, 0x63, 0xF0, 0x87, 0x0D, 0xE8, 0x19, 0x9D, 0xEC, 0x27, 0xF8,
         0xCD, 0xFA, 0xDF, 0xF8, 0x0E, 0x06, 0xC4, 0x09, 0xC9, 0x05, 0x09, 0xF2, 0x84, 0xFD, 0xE3, 0x0E,
         0xA3, 0xF8, 0xAC, 0xFA, 0x8F, 0x0F, 0x54, 0xFE, 0xC9, 0xF6, 0xFB, 0x01, 0x2F, 0xFB, 0x3B, 0xFD,
         0xFB, 0xFB, 0x0D, 0xFF, 0xBF, 0x14, 0x5E, 0x03, 0x80, 0xF1, 0xBD, 0x0A, 0xAA, 0xFD, 0x02, 0xE8,
         0xD5, 0x02, 0x06, 0x14, 0x0B, 0x0F, 0xD2, 0xF1, 0x5A, 0xE8, 0x24, 0x0B, 0xB1, 0x06, 0x78, 0xF9,
         0x16, 0x06, 0xFA, 0x06, 0x40, 0x01, 0x51, 0xF8, 0xA8, 0xFB, 0xF9, 0x05, 0x92, 0xFD, 0x55, 0xF6,
         0xD0, 0xFF, 0x67, 0x09, 0x1D, 0x0B, 0xBC, 0xFF, 0xC5, 0xF4, 0xD1, 0x00, 0x0F, 0xFB, 0x7A, 0xFC,
         0xAF, 0x09, 0x06, 0xF6, 0x58, 0x0A, 0xB7, 0x0C, 0x60, 0xF1, 0x32, 0xFD, 0x68, 0xFA, 0x72, 0x15,
         0xA0, 0xFE, 0x19, 0xD8, 0x1E, 0x19, 0x52, 0x0F, 0xAE, 0xF1, 0xE3, 0x06, 0x14, 0xFB, 0xAF, 0xFF,
         0x5A, 0xFC, 0x56, 0x00, 0x4C, 0x0B, 0x39, 0xF6, 0xAE, 0xFC, 0xE1, 0x0A, 0x75, 0xFF, 0x23, 0xF4,
         0x4C, 0x01, 0x95, 0x0E, 0x94, 0xFA, 0x23, 0xFB, 0x46, 0x04, 0x92, 0xF4, 0x03, 0x02, 0x18, 0x09,
         0x01, 0xF6, 0x02, 0x07, 0x13, 0x0C, 0x69, 0xF8, 0x60, 0x05, 0x75, 0x04, 0xD6, 0xE5, 0xB3, 0xF0,
         0x5E, 0x17, 0x30, 0x09, 0x3C, 0xFA, 0x70, 0x06, 0xC2, 0xF5, 0x6B, 0x08, 0x3C, 0x12, 0x8F, 0xE7,
         0x63, 0xF3, 0x2E, 0x10, 0x40, 0x07, 0x16, 0xF6, 0x57, 0xF2, 0x76, 0x08, 0xB8, 0x09, 0xC7, 0xF3,
         0x10, 0x06, 0x7D, 0x19, 0xD5, 0xF8, 0x9B, 0xE6, 0x52, 0x00, 0x6E, 0x0F, 0x30, 0xFE, 0xBF, 0xF1,
         0x0A, 0x02, 0x8E, 0x0B, 0x76, 0x03, 0xC1, 0xF3, 0x59, 0xFB, 0x9A, 0x14, 0xBC, 0xF9, 0x55, 0xF0,
         0x8D, 0x0F, 0x3A, 0x04, 0x3A, 0xFB, 0x00, 0x02, 0x70, 0xFD, 0xA5, 0xF1, 0xA6, 0xF2, 0x44, 0x13,
         0x5C, 0x14, 0xA7, 0xF6, 0xC3, 0xF6, 0x40, 0x05, 0x95, 0x09, 0x5E, 0xFE, 0x63, 0xF0, 0x71, 0xF5,
         0x8E, 0x06, 0xA3, 0x0E, 0x2C, 0x03, 0x76, 0xF9, 0x08, 0xFE, 0xC6, 0xFB, 0x35, 0x02, 0x21, 0x0C,
         0xAA, 0xF9, 0xD9, 0xF4, 0xA5, 0x02, 0x01, 0x06, 0x82, 0xFF, 0xD9, 0xF6, 0x01, 0x0D, 0x3C, 0x0D,
         0xD4, 0xEF, 0x31, 0xFC, 0xFE, 0x00, 0xE9, 0xF6, 0x52, 0x01, 0x1A, 0x0A, 0x63, 0x06, 0xAC, 0xF8,
         0xA3, 0xFE, 0xC3, 0x05, 0x56, 0xFB, 0xA9, 0x01, 0x3B, 0x02, 0x2B, 0xFA, 0xA4, 0x02, 0x7A, 0x00,
         0xC9, 0xF6, 0x9A, 0xFF, 0x3A, 0x0D, 0xA1, 0x07, 0xB5, 0xF6, 0x24, 0xF9, 0xB9, 0x00, 0xB5, 0xF8,
         0x04, 0xFF, 0x56, 0x10, 0x39, 0x08, 0x4F, 0xFD, 0x07, 0x02, 0x67, 0xF6, 0x28, 0xEF, 0xAF, 0xFD,
         0x33, 0x04, 0x27, 0x0C, 0xE9, 0x05, 0x13, 0xF9, 0x26, 0x08, 0x22, 0x08, 0xD3, 0xF6, 0x26, 0xEF,
         0x44, 0xFF, 0x62, 0x13, 0xFC, 0xFB, 0x8F, 0xEF, 0xBE, 0x04, 0x96, 0x0B, 0xAE, 0xFD, 0x78, 0xF9,
         0xC6, 0x10, 0x4E, 0x04, 0x05, 0xE5, 0x2D, 0xFB, 0x73, 0x11, 0x19, 0x02, 0xD4, 0xF7, 0xF2, 0x05,
         0xA2, 0x07, 0xEB, 0xF7, 0xB6, 0xF9, 0x33, 0x02, 0xDF, 0x02, 0x7B, 0xFB, 0x39, 0xFC, 0x3F, 0x07,
         0x04, 0x05, 0x8C, 0x04, 0xEE, 0x01, 0xC6, 0xF9, 0x14, 0xF9, 0x22, 0xF6, 0xC1, 0x00, 0x9C, 0x0B,
         0x8A, 0x00, 0x32, 0xFE, 0x50, 0x05, 0x69, 0x03, 0x84, 0xFF, 0xA6, 0xFB, 0xB6, 0xF7, 0x75, 0xFA,
         0x8B, 0x06, 0x2E, 0x0A, 0x6A, 0xFE, 0x6E, 0xFC, 0xAA, 0xFF, 0x4F, 0xFC, 0xB4, 0x02, 0x65, 0x05,
         0x2F, 0xFA, 0xFF, 0xFB, 0xE8, 0x05, 0xBB, 0x00, 0x15, 0xFC, 0x1F, 0x03, 0x58, 0x05, 0x04, 0xFE,
         0x7C, 0xFB, 0xC8, 0xFF, 0xD2, 0xFA, 0x10, 0xFC, 0x08, 0x09, 0xF0, 0x03, 0x44, 0xFF, 0xAC, 0x04,
         0x1F, 0xFD, 0xF4, 0xF7, 0xA2, 0xFD, 0x21, 0x01, 0xC7, 0x02, 0x16, 0x09, 0x42, 0x04, 0xDD, 0xF2,
         0x51, 0xF9, 0xA4, 0x09, 0x33, 0x03, 0x57, 0xF8, 0xF7, 0xFA, 0xCC, 0x04, 0x56, 0x05, 0x61, 0xFE,
         0xA9, 0x02, 0x34, 0x06, 0x2C, 0xFD, 0x0E, 0xFB, 0xF9, 0xFD, 0x96, 0xFB, 0x2A, 0xFD, 0x6B, 0x02,
         0x25, 0x04, 0xDA, 0xFF, 0x68, 0x02, 0xDF, 0x06, 0x56, 0xFF, 0xCF, 0xFB, 0x5F, 0xF9, 0x15, 0xFE,
         0x63, 0x08, 0xEF, 0xFD, 0xE9, 0xF8, 0x66, 0x02, 0x75, 0x07, 0x1E, 0x01, 0xAE, 0xF7, 0x02, 0x05,
         0x75, 0x06, 0xAE, 0xF4, 0xFE, 0xFC, 0xFA, 0x07, 0x04, 0x00, 0x10, 0xFB, 0xE3, 0x02, 0x86, 0x04,
         0xE2, 0xFB, 0x14, 0x00, 0x6F, 0x02, 0xB4, 0xFC, 0xAD, 0xFF, 0x8C, 0xFE, 0x37, 0xFE, 0x24, 0x06,
         0xB0, 0x03, 0xAA, 0xFA, 0x05, 0xFE, 0x63, 0x05, 0x9A, 0xFC, 0xAE, 0xF6, 0x23, 0x05, 0x10, 0x0B,
         0xAA, 0xFF, 0x82, 0xF8, 0x07, 0xFD, 0xAA, 0x03, 0xA5, 0x01, 0x7B, 0xFC, 0x80, 0xFB, 0xFB, 0x01,
         0x0A, 0x0A, 0xBC, 0x04, 0xDB, 0xFB, 0x4C, 0xF8, 0x24, 0xF8, 0x72, 0x00, 0x98, 0x06, 0xF0, 0x02,
         0x51, 0x01, 0x4B, 0x03, 0x1F, 0x01, 0x5A, 0xFD, 0x19, 0xFB, 0xFE, 0xFC, 0x3D, 0x01, 0x02, 0x00,
         0xFB, 0xFF, 0x9E, 0x00, 0xB1, 0x00, 0x5C, 0x03, 0x96, 0x00, 0x7C, 0x02, 0x10, 0x04, 0xEC, 0xF9,
         0x4D, 0xF6, 0x45, 0xFC, 0x5B, 0x03, 0xAD, 0x04, 0x19, 0x06, 0xC6, 0x08, 0xC6, 0xFB, 0xAD, 0xF4,
         0xFD, 0xFE, 0xFF, 0x01, 0x66, 0xFD, 0xCC, 0xFB, 0x71, 0x04, 0x1E, 0x0D, 0x79, 0x02, 0x7A, 0xF6,
         0xA2, 0xFC, 0x5F, 0x01, 0x9E, 0xFC, 0x9A, 0xFE, 0x4B, 0x04, 0x5C, 0x04, 0xF8, 0xFF, 0xEC, 0xFA,
         0xD3, 0xFB, 0xDB, 0x02, 0x08, 0x06, 0xC4, 0xFE, 0xDE, 0xFC, 0xCD, 0x04, 0x62, 0x01, 0xE9, 0xF8,
         0x45, 0xFC, 0x33, 0x02, 0xCF, 0x02, 0x7D, 0x01, 0x8A, 0x00, 0x1D, 0xFF, 0x0E, 0xFF, 0x0E, 0x01,
         0x3B, 0x01, 0x5A, 0x00, 0xC1, 0xFF, 0x69, 0xFD, 0x9E, 0xFB, 0x25, 0xFE, 0x4F, 0x03, 0xEC, 0x05,
         0x1A, 0x01, 0x44, 0xFD, 0x1B, 0x03, 0x7F, 0x02, 0xEB, 0xF8, 0x7E, 0xFC, 0xE6, 0x04, 0xA8, 0xFE,
         0x1D, 0xF9, 0x71, 0x01, 0x6F, 0x07, 0xA0, 0x00, 0x66, 0xFB, 0x10, 0x04, 0x4E, 0x0B, 0x11, 0xFE,
         0x21, 0xF0, 0xF5, 0xF9, 0x24, 0x06, 0x4C, 0x02, 0xD1, 0xFF, 0xCF, 0x01, 0xCF, 0x00, 0x2E, 0x05,
         0x75, 0x07, 0x9B, 0xFA, 0xC5, 0xF1, 0x82, 0xFC, 0xE6, 0x04, 0x19, 0x01, 0x82, 0x01, 0xD9, 0x05,
         0xAE, 0x05, 0xC7, 0x00, 0x04, 0xFA, 0x4E, 0xFA, 0xE9, 0x00, 0xFF, 0xFF, 0x1B, 0xF9, 0x82, 0xFC,
         0xB4, 0x07, 0x09, 0x09, 0xDF, 0x01, 0x94, 0xFE, 0x9A, 0xFF, 0xCC, 0xFE, 0x58, 0xFB, 0xFC, 0xFB,
         0x9C, 0x01, 0xC3, 0x01, 0x43, 0xFD, 0x2F, 0x00, 0xA2, 0x05, 0x2C, 0x02, 0x65, 0xFB, 0x1D, 0xFD,
         0x22, 0x07, 0xF1, 0x05, 0x9D, 0xF6, 0xA0, 0xF7, 0x4F, 0x08, 0xA0, 0x05, 0x49, 0xF7, 0x5E, 0xFB,
         0xAD, 0x05, 0x70, 0x04, 0x00, 0x01, 0xC6, 0xFE, 0x00, 0xFD, 0xA8, 0x00, 0xBD, 0x01, 0xC2, 0xFD,
         0xA8, 0xFD, 0x2F, 0xFF, 0x9C, 0x00, 0xCB, 0x04, 0xE6, 0x03, 0xA3, 0xFD, 0xF6, 0xFB, 0xE2, 0xFD,
         0x1F, 0x00, 0x03, 0x02, 0x6D, 0x00, 0x3E, 0x00, 0x9D, 0x02, 0x44, 0xFF, 0x7A, 0xFC, 0x23, 0x01,
         0xBE, 0x00, 0xAA, 0xFC, 0x09, 0x01, 0xD1, 0x02, 0xD0, 0xFD, 0x51, 0x01, 0x0B, 0x06, 0xCD, 0xFE,
         0x1A, 0xFA, 0x09, 0xFE, 0xCC, 0xFD, 0xDE, 0xFE, 0xD3, 0x06, 0x9B, 0x05, 0xD1, 0xFB, 0x99, 0xFC,
         0x7D, 0x03, 0x95, 0x01, 0x8D, 0xFB, 0x79, 0xFB, 0x6C, 0x01, 0x91, 0x06, 0x38, 0x02, 0x65, 0xF8,
         0x52, 0xF9, 0x4C, 0x06, 0x3F, 0x0B, 0x53, 0x00, 0x9F, 0xF7, 0xD3, 0xFD, 0x5D, 0x04, 0xB4, 0xFE,
         0x4F, 0xF9, 0x8B, 0xFC, 0x4F, 0x01, 0x07, 0x08, 0x9B, 0x0A, 0x2A, 0xFE, 0x29, 0xF6, 0xD5, 0xFF,
         0x51, 0x01, 0x2D, 0xF9, 0xEA, 0x00, 0xAF, 0x09, 0x21, 0xFF, 0x39, 0xF8, 0x1A, 0x01, 0x43, 0x06,
         0x98, 0x00, 0x0A, 0xFB, 0x03, 0xFF, 0xFC, 0x05, 0xBD, 0x00, 0xFC, 0xF7, 0x9E, 0xFC, 0x5A, 0x03,
         0x2E, 0x04, 0xF7, 0x05, 0xC3, 0x00, 0x23, 0xF8, 0x19, 0xFC, 0xA0, 0xFF, 0x86, 0xFC, 0xB0, 0x04,
         0x8B, 0x0B, 0x68, 0x01, 0x38, 0xFB, 0x42, 0xFD, 0x99, 0xFA, 0x17, 0xFC, 0xE4, 0x01, 0xA7, 0x02,
         0xF1, 0x03, 0x05, 0x01, 0x8C, 0xFB, 0x0E, 0x04, 0xF1, 0x08, 0x97, 0xFA, 0xF0, 0xF6, 0x64, 0x00,
         0x48, 0xFE, 0x2C, 0xFF, 0x90, 0x06, 0x09, 0xFF, 0x41, 0xFC, 0xF4, 0x08, 0xD9, 0x05, 0x11, 0xF8,
         0x3E, 0xF9, 0x49, 0xFF, 0x2D, 0x02, 0xEF, 0x02, 0x73, 0xFC, 0x2D, 0xFE, 0x46, 0x0A, 0x94, 0x03,
         0xBB, 0xF4, 0x27, 0xFC, 0xF4, 0x05, 0xDC, 0xFF, 0xF3, 0xFC, 0x9B, 0x02, 0xBC, 0x05, 0xBD, 0x01,
         0x59, 0xF9, 0xED, 0xF9, 0xC8, 0x03, 0xA0, 0x03, 0x2D, 0xFD, 0x59, 0xFF, 0x6A, 0x00, 0xC7, 0xFD,
         0x85, 0x03, 0x1A, 0x07, 0x0E, 0xFE, 0xCC, 0xFA, 0x11, 0x02, 0x1D, 0x00, 0x39, 0xF8, 0x00, 0xFC,
         0xF5, 0x05, 0x41, 0x06, 0x6D, 0x00, 0x82, 0x01, 0x78, 0x01, 0x30, 0xFB, 0x8A, 0xFC, 0xB1, 0x01,
         0x72, 0xFF, 0xFB, 0xFC, 0xDA, 0xFE, 0xE6, 0x02, 0xB3, 0x06, 0x42, 0x01, 0xFF, 0xF9, 0x62, 0x01,
         0xFE, 0x05, 0xEE, 0xF9, 0x6B, 0xF7, 0xC7, 0x02, 0x09, 0x04, 0x11, 0x00, 0x1E, 0x01, 0xF5, 0xFF,
         0xC9, 0x00, 0x99, 0x02, 0x89, 0xFD, 0x8E, 0xFF, 0x81, 0x05, 0x31, 0xFD, 0x35, 0xF7, 0xF5, 0xFC,
         0x14, 0xFE, 0x3D, 0x02, 0x3F, 0x0C, 0x0C, 0x07, 0xB1, 0xFC, 0xA7, 0xFE, 0xAB, 0xFC, 0x1E, 0xF8,
         0x54, 0xFD, 0x6C, 0xFF, 0x5F, 0x01, 0xC4, 0x07, 0x6C, 0x03, 0x87, 0xFD, 0x47, 0x01, 0x40, 0x00,
         0xB8, 0xFA, 0x70, 0xFF, 0x9A, 0x04, 0x8A, 0xFD, 0x8C, 0xF9, 0x2E, 0xFE, 0x41, 0x02, 0x9F, 0x07,
         0xD5, 0x08, 0xAC, 0xFF, 0xFC, 0xF8, 0x5D, 0xFB, 0x2F, 0xFE, 0xFF, 0xFD, 0x6C, 0xFD, 0xF4, 0x00,
         0xDC, 0x07, 0x8E, 0x05, 0xDB, 0xFA, 0x1D, 0xFA, 0xDD, 0x05, 0xA7, 0x07, 0xB9, 0xFA, 0xB9, 0xF9,
         0x81, 0x00, 0x77, 0xFD, 0x12, 0xFF, 0xE1, 0x03, 0xF9, 0xFE, 0xB0, 0x00, 0x99, 0x08, 0x39, 0x00,
         0x16, 0xF6, 0xAD, 0xFF, 0x48, 0x05, 0x69, 0xFD, 0xD8, 0xFD, 0x6F, 0x01, 0x50, 0x00, 0xFA, 0x00,
         0xE2, 0xFE, 0x5D, 0xFE, 0x29, 0x04, 0xC9, 0x02, 0x7A, 0xFE, 0xFD, 0x00, 0x2D, 0xFB, 0xB7, 0xF4,
         0xB4, 0x02, 0x8A, 0x0D, 0xBF, 0x02, 0x6D, 0xFB, 0x55, 0x00, 0xB8, 0x00, 0x7D, 0xFB, 0xF3, 0xFA,
         0x9B, 0x01, 0x43, 0x06, 0x75, 0x02, 0x1A, 0xFC, 0xBB, 0xFB, 0xF9, 0x01, 0xA5, 0x05, 0x9B, 0xFF,
         0xC0, 0xFA, 0x4A, 0xFF, 0x35, 0x02, 0x6C, 0x03, 0xDF, 0xFE, 0x74, 0xF9, 0xA3, 0x02, 0x9D, 0x03,
         0xDB, 0xFD, 0x85, 0x03, 0x17, 0x00, 0x6A, 0xFA, 0x87, 0x01, 0xB1, 0x00, 0xB8, 0xFD, 0xD5, 0x02,
         0x86, 0xFD, 0xCA, 0xFD, 0x4B, 0x08, 0xB3, 0x02, 0xA3, 0xFB, 0x90, 0xFD, 0xC0, 0xFC, 0x80, 0x00,
         0x50, 0x04, 0x2F, 0xFC, 0x06, 0xFC, 0xC6, 0x07, 0xCD, 0x05, 0xD7, 0xFA, 0xAF, 0xFB, 0x39, 0x02,
         0x72, 0x01, 0x34, 0xFC, 0x63, 0xFD, 0x71, 0x04, 0x18, 0x04, 0x24, 0xFF, 0x6E, 0xFD, 0xE4, 0xFC,
         0x3C, 0x01, 0x61, 0x04, 0xAF, 0xFD, 0xBD, 0xFA, 0x26, 0x03, 0xC9, 0x06, 0x9D, 0xFF, 0xBE, 0xFB,
         0x8C, 0xFC, 0x68, 0xFE, 0x0D, 0x04, 0x19, 0x02, 0x05, 0xFC, 0xD8, 0xFF, 0x64, 0x03, 0x2D, 0x02,
         0xFE, 0x01, 0x8E, 0xFE, 0x15, 0xFB, 0x97, 0xFD, 0x30, 0xFF, 0x73, 0x00, 0x00, 0x04, 0x71, 0x03,
         0x4C, 0xFF, 0x39, 0xFC, 0x5C, 0xFF, 0x3C, 0x03, 0x7B, 0x01, 0x9D, 0xFE, 0x08, 0xFB, 0x9C, 0xFF,
         0x0E, 0x06, 0x25, 0xFF, 0x6F, 0xFB, 0xCF, 0xFF, 0xEB, 0x02, 0x23, 0x04, 0x56, 0xFF, 0x1C, 0xFC,
         0xA4, 0xFF, 0xC8, 0xFE, 0xFC, 0xFF, 0xAF, 0x06, 0xC2, 0xFF, 0x30, 0xF8, 0x08, 0xFF, 0x3C, 0x02,
         0x1B, 0x00, 0x6C, 0x02, 0xED, 0x04, 0x70, 0x01, 0x21, 0xFC, 0x3B, 0xFC, 0xC9, 0xFC, 0x53, 0xFB,
         0xDB, 0x01, 0x71, 0x09, 0x4B, 0x04, 0xF0, 0xFE, 0x83, 0xFE, 0xB4, 0xFA, 0x8F, 0xFB, 0x3B, 0x02,
         0x9E, 0x03, 0x85, 0x01, 0x6C, 0xFE, 0x30, 0xFC, 0x0E, 0x01, 0x62, 0x03, 0x32, 0x01, 0x2B, 0xFF,
         0x1E, 0xFE, 0x04, 0x04, 0xE0, 0x01, 0xD0, 0xF7, 0x76, 0xFB, 0x28, 0x03, 0x19, 0x03, 0xA6, 0x00,
         0x9A, 0x01, 0xE0, 0x03, 0xF4, 0x00, 0x90, 0xFB, 0x15, 0xFA, 0x5B, 0xFE, 0x05, 0x04, 0xB6, 0x02,
         0x72, 0xFE, 0x44, 0x02, 0xD4, 0xFF, 0x8D, 0xFB, 0x5A, 0x05, 0x12, 0x01, 0x77, 0xFB, 0xA3, 0x05,
         0x09, 0xFC, 0x18, 0xF4, 0x75, 0x06, 0x74, 0x09, 0x26, 0xFC, 0xA5, 0xFF, 0x2A, 0x04, 0x74, 0xFD,
         0xDF, 0xFB, 0x8D, 0xFE, 0xC4, 0x01, 0xC3, 0x05, 0xD8, 0x01, 0xAF, 0xF7, 0xE1, 0xFA, 0x98, 0x06,
         0xAB, 0x02, 0x01, 0xFB, 0xA8, 0x02, 0x59, 0x06, 0x1A, 0xFE, 0xF9, 0xFB, 0x1C, 0xFC, 0x8D, 0xFF,
         0x3B, 0x06, 0xB4, 0x00, 0x57, 0xFD, 0xDB, 0x00, 0xCC, 0xFD, 0xA8, 0xFF, 0xBA, 0x03, 0xBC, 0xFD,
         0x4C, 0xFE, 0xBE, 0x03, 0x08, 0xFF, 0x8E, 0xFD, 0x5F, 0x00, 0x7B, 0x01, 0xD8, 0x01, 0x07, 0xFF,
         0x4F, 0xFF, 0x46, 0xFF, 0x38, 0xFE, 0x87, 0x00, 0xB8, 0x00, 0x6E, 0x01, 0x76, 0x02, 0xA7, 0xFE,
         0x8B, 0xFD, 0x2F, 0x00, 0xDE, 0xFE, 0xFF, 0xFE, 0xA4, 0x02, 0xBE, 0x01, 0x5F, 0xFF, 0x95, 0xFF,
         0xD6, 0xFF, 0x7D, 0xFF, 0x84, 0xFF, 0xB8, 0xFF, 0x31, 0x00, 0x15, 0x01, 0xE7, 0xFF, 0x91, 0xFE,
         0xCC, 0x00, 0x57, 0x01, 0xAA, 0xFE, 0x8B, 0xFF, 0x61, 0x01, 0x93, 0xFF, 0x3F, 0xFF, 0x4D, 0x00,
         0xDE, 0xFF, 0x3B, 0x00, 0x8C, 0x00, 0xAB, 0xFF, 0xC7, 0xFF, 0x13, 0x00, 0x00, 0x00
     };

__align(2)
     const U8 motion_dj_vocal_wav_5[DJ_AUD_VOX_WAVE_5_LEN] = 
     {
         0x52, 0x49, 0x46, 0x46, 0xB6, 0x12, 0x00, 0x00, 0x57, 0x41, 0x56, 0x45, 0x66, 0x6D, 0x74, 0x20,
         0x10, 0x00, 0x00, 0x00, 0x01, 0x00, 0x01, 0x00, 0x80, 0x3E, 0x00, 0x00, 0x00, 0x7D, 0x00, 0x00,
         0x02, 0x00, 0x10, 0x00, 0x64, 0x61, 0x74, 0x61, 0x92, 0x12, 0x00, 0x00, 0xFD, 0xFF, 0xF8, 0xFF,
         0x02, 0x00, 0x06, 0x00, 0xEB, 0xFF, 0x02, 0x00, 0x21, 0x00, 0xFA, 0xFF, 0xF1, 0xFF, 0x2D, 0x00,
         0x12, 0x00, 0xB1, 0xFF, 0xD3, 0xFF, 0x5D, 0x00, 0x24, 0x00, 0x7F, 0xFF, 0xE7, 0xFF, 0x70, 0x00,
         0x0E, 0x00, 0x0D, 0x00, 0x15, 0x00, 0x9D, 0xFF, 0xCD, 0xFF, 0x52, 0x00, 0x06, 0x00, 0xB5, 0xFF,
         0xA4, 0x00, 0xB9, 0xFF, 0xA7, 0xFE, 0x1A, 0x01, 0xE0, 0x00, 0x4B, 0xFF, 0x6F, 0x00, 0x10, 0x00,
         0xB2, 0xFF, 0xD0, 0xFF, 0x04, 0xFF, 0xC3, 0xFF, 0x7A, 0x00, 0xFF, 0xFF, 0x15, 0x01, 0x71, 0x01,
         0x08, 0xFF, 0xCC, 0xFE, 0x5F, 0x00, 0xCC, 0xFF, 0x20, 0xFF, 0x03, 0x01, 0xE0, 0x00, 0x43, 0xFE,
         0x65, 0x00, 0x55, 0x00, 0x3A, 0xFE, 0xAA, 0x02, 0x65, 0x01, 0xB6, 0xFC, 0xD1, 0x00, 0xF0, 0x01,
         0x40, 0xFE, 0x2C, 0xFF, 0x90, 0xFF, 0x1D, 0x01, 0x70, 0x02, 0x89, 0xFC, 0x72, 0xFE, 0x49, 0x03,
         0x8D, 0x00, 0xD5, 0xFF, 0xAE, 0xFE, 0x0D, 0x00, 0xDE, 0x00, 0xED, 0xFE, 0xD3, 0x00, 0x3E, 0xFF,
         0x8B, 0xFF, 0x5E, 0x00, 0x2D, 0xFF, 0x68, 0x03, 0x89, 0x00, 0xFC, 0xFA, 0xBC, 0x00, 0x7C, 0x02,
         0x25, 0xFE, 0x6B, 0x00, 0xB4, 0xFF, 0x98, 0xFF, 0x8C, 0x03, 0x5C, 0xFF, 0x78, 0xFE, 0xAE, 0xFF,
         0xEE, 0xFE, 0x85, 0x01, 0x7C, 0xFE, 0x74, 0xFE, 0x29, 0x03, 0x1D, 0xFF, 0xC7, 0xFF, 0x85, 0x04,
         0x9B, 0xFB, 0xCC, 0xFD, 0xB1, 0x04, 0x1F, 0xFD, 0xAD, 0x00, 0x4D, 0x00, 0xE9, 0xFF, 0x86, 0x02,
         0x61, 0xF8, 0x3D, 0x02, 0xFC, 0x06, 0xAC, 0xFB, 0x1D, 0xFF, 0xE5, 0x00, 0x4E, 0x01, 0x92, 0xFE,
         0x55, 0xFE, 0x20, 0x03, 0xF7, 0xFC, 0x56, 0x00, 0xC1, 0x04, 0x17, 0xFD, 0xA6, 0xFE, 0x2F, 0x01,
         0x8E, 0xFD, 0x72, 0xFE, 0xBC, 0x03, 0x0F, 0x03, 0x53, 0xFD, 0x2F, 0xFF, 0x70, 0x00, 0x76, 0xFF,
         0x45, 0x01, 0x3B, 0xFE, 0xE0, 0xFF, 0xE9, 0x00, 0xEC, 0xFE, 0xC5, 0x00, 0x3C, 0xFE, 0xF8, 0x03,
         0xA7, 0x02, 0xDB, 0xF7, 0x55, 0x01, 0xA6, 0x05, 0xA6, 0xFE, 0x85, 0xFD, 0xB5, 0xFB, 0x7E, 0x00,
         0x4A, 0x06, 0x8E, 0xFF, 0x6F, 0xFD, 0xF8, 0x03, 0x8F, 0x00, 0xA7, 0xFA, 0xFC, 0xFD, 0xB3, 0x03,
         0x7C, 0x01, 0x61, 0xFB, 0xB0, 0x01, 0x13, 0x05, 0x7B, 0xFD, 0x70, 0xFC, 0xED, 0xFE, 0x63, 0x01,
         0x6A, 0x01, 0xED, 0x03, 0x93, 0x05, 0x6C, 0xFB, 0x75, 0xFA, 0xCC, 0xFC, 0x5F, 0xFA, 0x93, 0x06,
         0x4A, 0x08, 0x7E, 0xF8, 0xA2, 0xFE, 0x6B, 0x09, 0x2B, 0x00, 0x06, 0xFD, 0x43, 0xFD, 0xBF, 0xFE,
         0xA5, 0x03, 0xC9, 0xFA, 0xEB, 0xFC, 0x61, 0x09, 0xDD, 0x00, 0x77, 0xF6, 0x13, 0xFD, 0x70, 0x04,
         0x4E, 0x04, 0x39, 0x04, 0x06, 0x04, 0x8B, 0xFE, 0xD7, 0xF8, 0x83, 0xFB, 0x86, 0x03, 0x58, 0xFD,
         0x72, 0xF7, 0x58, 0x0B, 0xFA, 0x09, 0x1E, 0xF6, 0xAF, 0xFC, 0xDD, 0xFF, 0x1B, 0x03, 0x1A, 0x0A,
         0x91, 0xFA, 0xCC, 0xF9, 0xFB, 0x07, 0xF4, 0xF9, 0xE9, 0xF8, 0x7F, 0x03, 0x13, 0xFA, 0x7F, 0x07,
         0x18, 0x09, 0xAB, 0xFA, 0xDA, 0x09, 0x8F, 0xFD, 0x95, 0xEC, 0xA2, 0x0A, 0xC1, 0x03, 0x06, 0xE7,
         0x7F, 0x08, 0x59, 0x19, 0x6D, 0xFF, 0x44, 0xFC, 0x59, 0xF9, 0xE6, 0xF5, 0xE1, 0x01, 0x0E, 0x04,
         0x95, 0xFC, 0x46, 0x0C, 0xBD, 0x0C, 0x17, 0xE0, 0x59, 0x00, 0x49, 0x1F, 0xEC, 0xE2, 0xBB, 0xF4,
         0x63, 0x13, 0xC5, 0x07, 0x7E, 0x15, 0x81, 0xF2, 0x7D, 0xE3, 0xCE, 0x07, 0x2C, 0x05, 0x7C, 0xF6,
         0xDC, 0x02, 0xC7, 0x0E, 0xB0, 0x00, 0xA9, 0xFE, 0x9A, 0xFB, 0xDD, 0xEC, 0x04, 0x12, 0xE0, 0x1D,
         0x72, 0xDE, 0xDD, 0xE4, 0x23, 0x1F, 0x6C, 0x08, 0x95, 0xF1, 0xD9, 0x0E, 0xF3, 0x04, 0xB9, 0xEE,
         0x87, 0xF9, 0xDD, 0xFB, 0x30, 0x06, 0xAF, 0x0F, 0x1B, 0xF9, 0xF5, 0xFD, 0x19, 0x07, 0x99, 0xF9,
         0x51, 0x06, 0x62, 0xFD, 0x48, 0xEB, 0xA9, 0x08, 0x1F, 0x0F, 0x0B, 0xF6, 0x1F, 0x00, 0x35, 0x08,
         0x7C, 0x01, 0x37, 0xFD, 0xF0, 0xF5, 0x3C, 0x04, 0xC2, 0xF6, 0x5B, 0x02, 0xBB, 0x1F, 0xAA, 0xE6,
         0x8D, 0xF1, 0x70, 0x1E, 0x47, 0xF7, 0xCA, 0xEF, 0x4C, 0x06, 0xED, 0x0C, 0xC1, 0xF7, 0x40, 0xF4,
         0x6B, 0x13, 0xB6, 0xFC, 0x3D, 0xF1, 0x5B, 0x17, 0x3F, 0xF7, 0x9E, 0xE5, 0xE9, 0x21, 0x70, 0xFB,
         0x8F, 0xE2, 0x23, 0x1E, 0x45, 0x01, 0xC3, 0xF2, 0xB4, 0x02, 0xDE, 0xFF, 0x59, 0x0A, 0x07, 0xF0,
         0x18, 0xFA, 0x7D, 0x14, 0xAA, 0xF9, 0xD2, 0xFD, 0xAC, 0x0A, 0x70, 0xF2, 0x8E, 0xFE, 0x39, 0x0B,
         0x41, 0xF9, 0x80, 0x02, 0x7A, 0xF5, 0xBD, 0xFD, 0xDB, 0x10, 0x50, 0xF5, 0xA5, 0x07, 0xA5, 0x0A,
         0x2A, 0xFC, 0x5C, 0xF2, 0x9C, 0xE9, 0xDF, 0x29, 0x94, 0x07, 0xB1, 0xC3, 0x6B, 0x1A, 0x40, 0x32,
         0xDC, 0xD9, 0xF3, 0xD9, 0x9F, 0x27, 0xAF, 0x1F, 0xA0, 0xC9, 0xEF, 0xE8, 0x80, 0x51, 0x36, 0xFF,
         0x34, 0xA4, 0xC7, 0x31, 0x6C, 0x4D, 0x60, 0xA7, 0x22, 0xD4, 0x1B, 0x49, 0x72, 0xFE, 0x37, 0xE2,
         0xB0, 0xFB, 0xB8, 0x14, 0x97, 0x34, 0xD7, 0xD7, 0x2A, 0xD7, 0x27, 0x24, 0x3D, 0xFD, 0xF1, 0xF3,
         0x4B, 0x08, 0x89, 0x03, 0xBD, 0xE8, 0x83, 0xF4, 0x79, 0x3A, 0xCE, 0x0A, 0x39, 0xB8, 0x7E, 0x0F,
         0x57, 0x43, 0x4D, 0xD9, 0x59, 0xCA, 0x92, 0x19, 0xC5, 0x20, 0x4B, 0x03, 0xC2, 0xEA, 0xAF, 0xED,
         0x3F, 0x13, 0xEE, 0x07, 0x2B, 0xF7, 0xC6, 0x11, 0x38, 0xF1, 0xFB, 0xF0, 0xC1, 0x19, 0xD3, 0xF8,
         0xA3, 0xEA, 0xB3, 0x00, 0xBB, 0x29, 0x4B, 0xF3, 0xA2, 0xBE, 0x71, 0x47, 0x0D, 0x25, 0x54, 0xA9,
         0xCB, 0x07, 0x0A, 0x25, 0xBB, 0xEE, 0xF3, 0x01, 0x26, 0x01, 0xCE, 0xF8, 0xEB, 0x13, 0x15, 0x03,
         0x90, 0xE4, 0x89, 0xF7, 0xF6, 0x17, 0x4C, 0x09, 0xE7, 0xDD, 0x82, 0x10, 0x86, 0x27, 0x06, 0xE4,
         0x3F, 0xF2, 0x7E, 0xFA, 0xF0, 0xF0, 0x70, 0x21, 0xEE, 0x15, 0x7D, 0xDF, 0x6F, 0xEB, 0x4A, 0x1F,
         0xBD, 0x0C, 0xA9, 0xE7, 0xCE, 0x04, 0x29, 0xFE, 0xC4, 0xF9, 0x7A, 0x14, 0x1D, 0xF1, 0x5A, 0xEC,
         0xBA, 0x1C, 0x70, 0x15, 0xF2, 0xE0, 0xB1, 0xE7, 0x8D, 0x21, 0x59, 0x0A, 0x12, 0xE7, 0x48, 0x05,
         0xA3, 0x04, 0x07, 0xFF, 0xEF, 0x09, 0x2A, 0xEE, 0xD6, 0xF2, 0xAA, 0x1C, 0xDD, 0x05, 0x99, 0xEE,
         0xF1, 0x08, 0x36, 0xFC, 0x0F, 0xEF, 0x43, 0x11, 0xFC, 0x08, 0x74, 0xE9, 0x8D, 0x04, 0x3D, 0x14,
         0x7D, 0xF4, 0xD4, 0xF1, 0x9C, 0x11, 0x29, 0x05, 0x0B, 0xEC, 0x91, 0x0C, 0x7D, 0xFF, 0x16, 0xEA,
         0x8B, 0x1B, 0xF3, 0x04, 0x9B, 0xE5, 0x73, 0x19, 0xA8, 0x00, 0x38, 0xD3, 0xF5, 0x15, 0x51, 0x25,
         0xE6, 0xE9, 0x91, 0xEE, 0x69, 0x05, 0x6D, 0x0A, 0x5A, 0x01, 0xC3, 0xF6, 0x84, 0xFC, 0x56, 0x08,
         0xC3, 0x15, 0x30, 0xED, 0x67, 0xE6, 0x17, 0x15, 0xB1, 0xFE, 0xDC, 0xFF, 0x41, 0x0C, 0x5C, 0xEE,
         0x09, 0x05, 0xB7, 0x0D, 0xFE, 0xE8, 0x7B, 0x04, 0x24, 0x15, 0xD3, 0x01, 0x95, 0x00, 0x75, 0xD3,
         0x07, 0x29, 0xC8, 0x14, 0x4B, 0x86, 0xCC, 0x34, 0x61, 0x6C, 0x42, 0x03, 0xA8, 0x0F, 0xCF, 0x91,
         0x08, 0xF9, 0x13, 0x53, 0x06, 0x93, 0x85, 0x05, 0x57, 0x77, 0x7F, 0xBC, 0xED, 0xC0, 0xAB, 0x3D,
         0xB4, 0x0D, 0x31, 0x0E, 0x80, 0xB6, 0x21, 0xF8, 0xB8, 0x4D, 0x6E, 0xBA, 0x89, 0x20, 0xAF, 0x24,
         0x22, 0xA1, 0x7B, 0x55, 0x0B, 0x37, 0xBF, 0x88, 0x7F, 0x1C, 0x7E, 0x4A, 0x57, 0xAB, 0xE8, 0x27,
         0x99, 0x36, 0x40, 0xBF, 0x30, 0xFD, 0x85, 0x29, 0x66, 0x14, 0x6F, 0xE0, 0xAF, 0xBE, 0x50, 0x1C,
         0x87, 0x36, 0xD4, 0xC9, 0x39, 0xF0, 0x1B, 0x41, 0xD3, 0x0C, 0xF7, 0xEC, 0x73, 0xEE, 0xCE, 0xF5,
         0x87, 0x0A, 0x5F, 0x05, 0x8C, 0xF6, 0xB4, 0xED, 0x80, 0xF2, 0x42, 0x1D, 0xBD, 0x21, 0x59, 0xE8,
         0xF2, 0xF0, 0xC5, 0x21, 0x77, 0x15, 0xCB, 0xCB, 0xCF, 0xD9, 0xF0, 0x38, 0xCB, 0xF2, 0x1B, 0xCF,
         0x3B, 0x3C, 0xA4, 0x1D, 0x02, 0xDD, 0xC7, 0xEE, 0xC1, 0xFA, 0x7D, 0x21, 0xB9, 0x13, 0x9A, 0xD2,
         0x9C, 0x06, 0xBF, 0x03, 0xC2, 0xD6, 0xE8, 0x33, 0x6F, 0x0A, 0x97, 0xC5, 0xB5, 0x2B, 0xEA, 0x25,
         0x3C, 0xD1, 0x14, 0xE7, 0x44, 0x1B, 0x77, 0x14, 0xAF, 0xF2, 0x4B, 0xF0, 0x41, 0x03, 0x7E, 0xFB,
         0x25, 0xFA, 0xA8, 0x0E, 0xB4, 0x01, 0xDC, 0x01, 0xE5, 0x18, 0x8E, 0xF6, 0x8C, 0xE4, 0x6A, 0x03,
         0x32, 0xF3, 0x9B, 0x07, 0x1C, 0x20, 0x76, 0xDA, 0x5F, 0xFB, 0x0D, 0x43, 0x94, 0xE8, 0xA3, 0xB6,
         0xE4, 0x1F, 0xC9, 0x3E, 0x31, 0xE2, 0xEB, 0xD1, 0xBD, 0x1D, 0x30, 0x1A, 0x6B, 0xDC, 0xFD, 0x01,
         0xD1, 0x0D, 0x6F, 0xEC, 0x22, 0x1F, 0x2D, 0x03, 0xC7, 0xE0, 0xC5, 0x08, 0xF7, 0xFC, 0xAA, 0x09,
         0xC0, 0x04, 0xE2, 0xE6, 0x85, 0x0C, 0x88, 0x1E, 0x2E, 0xF5, 0xB1, 0xD2, 0x3D, 0xFF, 0x68, 0x3E,
         0xDB, 0x03, 0x7D, 0xC1, 0xFF, 0x0F, 0xE0, 0x1F, 0x8A, 0xDD, 0x04, 0xFE, 0x4E, 0x0E, 0x1B, 0x0C,
         0x91, 0x04, 0x35, 0xEB, 0xBD, 0x0A, 0x35, 0xFB, 0xCA, 0xF1, 0xD8, 0x0D, 0x17, 0xFB, 0x5E, 0x08,
         0xFF, 0x09, 0x32, 0xEA, 0xD3, 0x02, 0x11, 0x08, 0x38, 0xF8, 0x56, 0x1C, 0x42, 0xF2, 0x9A, 0xCC,
         0xA6, 0x22, 0xFB, 0x21, 0xB0, 0xE9, 0xFC, 0xF1, 0xA5, 0xF3, 0x0F, 0x17, 0x71, 0x2A, 0x86, 0xD7,
         0x1B, 0xDF, 0xD4, 0x27, 0xCA, 0xFC, 0x61, 0xEC, 0x05, 0x05, 0x83, 0xFD, 0x6D, 0x12, 0xBB, 0x03,
         0xFD, 0xE3, 0xE7, 0x0E, 0x3C, 0x11, 0xE4, 0xF5, 0x43, 0x04, 0xD1, 0xE5, 0x0A, 0x09, 0x69, 0x22,
         0x0F, 0xD0, 0x8F, 0xFA, 0x6A, 0x28, 0x11, 0xEE, 0xF0, 0xF6, 0x5F, 0x15, 0xC0, 0x03, 0xB2, 0xFC,
         0x64, 0x06, 0x31, 0xEE, 0x58, 0xE2, 0xE2, 0x12, 0x12, 0x20, 0x97, 0xE9, 0xEA, 0xF5, 0x34, 0x1E,
         0xDE, 0xF0, 0x5C, 0xF3, 0x32, 0x0F, 0xF9, 0xFF, 0xA0, 0x01, 0xDE, 0xEC, 0xD8, 0x08, 0xE5, 0x14,
         0x74, 0xDE, 0x18, 0x08, 0x70, 0x1C, 0x8E, 0xE6, 0xBC, 0xF9, 0x39, 0x18, 0x86, 0xFC, 0x11, 0xEE,
         0x3A, 0xFE, 0x3C, 0x12, 0x19, 0x03, 0xE3, 0xE3, 0x9F, 0x05, 0xCF, 0x11, 0x0F, 0x08, 0x6B, 0x0B,
         0xD0, 0xD4, 0xBF, 0xF3, 0x5A, 0x39, 0xCB, 0xE3, 0x7F, 0xCF, 0x7B, 0x3F, 0x84, 0x20, 0x49, 0xD1,
         0xE4, 0xF4, 0xDF, 0x00, 0xD3, 0x00, 0x85, 0x15, 0xA5, 0xF3, 0xFA, 0xEA, 0x0B, 0x12, 0xF7, 0x0E,
         0x95, 0x05, 0xAA, 0xF4, 0x5C, 0xE4, 0xE0, 0x16, 0xF6, 0x17, 0x53, 0xDB, 0xC3, 0xEA, 0x41, 0x1D,
         0x57, 0x17, 0xC4, 0xF4, 0xED, 0xF3, 0xF8, 0xFF, 0x56, 0x03, 0x3C, 0x05, 0x9A, 0xF6, 0x59, 0xF9,
         0x2E, 0x13, 0x2B, 0x00, 0x0B, 0xEA, 0xBF, 0x0A, 0x15, 0x09, 0x1D, 0xFA, 0x88, 0x04, 0x74, 0xEA,
         0x14, 0x04, 0x18, 0x26, 0xEA, 0xEF, 0xC1, 0xE6, 0x4A, 0x0A, 0x53, 0x05, 0x79, 0xFD, 0x27, 0x01,
         0xD7, 0x00, 0x00, 0x06, 0x1D, 0x07, 0x03, 0xF9, 0x9E, 0xF1, 0xBA, 0xF8, 0xFF, 0x07, 0x50, 0x0B,
         0xD5, 0xF9, 0xE1, 0xFB, 0x67, 0x10, 0x2A, 0x05, 0x4E, 0xEE, 0x62, 0x02, 0xB8, 0x0B, 0xF2, 0xF1,
         0x1C, 0xFC, 0x2D, 0xFB, 0x3D, 0xF4, 0x68, 0x1E, 0xD2, 0x10, 0x8A, 0xE0, 0x1C, 0xFB, 0x0B, 0x1B,
         0xF8, 0x03, 0x99, 0xE9, 0xAB, 0xEA, 0xAE, 0x0A, 0xC7, 0x1E, 0x10, 0xFF, 0x03, 0xEE, 0x72, 0xFA,
         0x31, 0x00, 0x05, 0x0A, 0x7F, 0x01, 0xA0, 0xF3, 0x46, 0x09, 0xF5, 0x0B, 0x8A, 0xF3, 0x6D, 0xF8,
         0xFE, 0xFE, 0x75, 0x06, 0x12, 0x12, 0x11, 0xF4, 0x50, 0xEA, 0xA3, 0x14, 0x7C, 0x0E, 0xAE, 0xE6,
         0x06, 0xF0, 0xDE, 0x10, 0xCD, 0x19, 0x63, 0xF9, 0xD7, 0xE5, 0xF7, 0x0A, 0xB0, 0x0E, 0x39, 0xEB,
         0x36, 0x01, 0xC6, 0x12, 0x2F, 0xF7, 0xCD, 0x01, 0x13, 0xFF, 0xC5, 0xDA, 0xE5, 0x0F, 0xA2, 0x3B,
         0x3B, 0xE8, 0x8E, 0xD2, 0xB4, 0x19, 0x12, 0x0D, 0xFC, 0xEA, 0x24, 0x07, 0x16, 0x08, 0x43, 0xFE,
         0x2A, 0x05, 0x3B, 0xED, 0x8D, 0xF5, 0x54, 0x16, 0x2B, 0x0A, 0xDE, 0xFC, 0x93, 0xF5, 0x75, 0xF0,
         0xD2, 0x0D, 0x5C, 0x15, 0x6E, 0xF3, 0x11, 0xF1, 0xC9, 0xFF, 0x9B, 0x09, 0x1B, 0x08, 0xF5, 0xF1,
         0xF5, 0xFD, 0x66, 0x0A, 0x10, 0xFD, 0x9E, 0x0B, 0x88, 0x00, 0x91, 0xDF, 0x85, 0x05, 0x40, 0x1B,
         0x94, 0xF3, 0xE7, 0x00, 0xF0, 0x10, 0xE3, 0xE7, 0xDB, 0xF4, 0x8F, 0x16, 0x97, 0xFA, 0xD2, 0xF7,
         0x1E, 0x0C, 0x71, 0xFF, 0x7C, 0x00, 0x57, 0x03, 0x0D, 0xF7, 0x5A, 0x01, 0x66, 0xFD, 0xDE, 0xF2,
         0x91, 0x10, 0x81, 0x09, 0x2E, 0xF4, 0xBD, 0x08, 0xB8, 0x01, 0x43, 0xF1, 0x09, 0xF9, 0xB8, 0x05,
         0xFD, 0x17, 0x5B, 0x01, 0x03, 0xD9, 0x30, 0x01, 0xD8, 0x23, 0xF6, 0xF6, 0xCC, 0xF0, 0xBD, 0x0C,
         0x72, 0x01, 0xC6, 0xF8, 0xBD, 0xFE, 0xE9, 0xFE, 0x86, 0x04, 0x81, 0xFE, 0xE2, 0xF8, 0xE1, 0x08,
         0xCB, 0x04, 0x86, 0xF8, 0xFE, 0x02, 0xD4, 0x02, 0xC9, 0xF8, 0x35, 0xFF, 0xE9, 0x05, 0xAE, 0x01,
         0x25, 0xF8, 0xA5, 0xFC, 0xA6, 0x0E, 0xBC, 0xFA, 0xF6, 0xED, 0x11, 0x10, 0xE7, 0x0C, 0x63, 0xF0,
         0x27, 0xFF, 0xB3, 0x0C, 0x3E, 0xFE, 0x80, 0xF9, 0x1E, 0xF3, 0xFE, 0xF0, 0xB3, 0x16, 0xAD, 0x21,
         0xFC, 0xEC, 0xB0, 0xE3, 0xF8, 0x12, 0x7F, 0x08, 0x19, 0xED, 0x96, 0x05, 0x70, 0x09, 0x98, 0xFD,
         0x98, 0xFB, 0x6E, 0xF2, 0xDE, 0x07, 0x18, 0x13, 0xEC, 0xF9, 0x9A, 0xF9, 0x03, 0xFF, 0x3F, 0xF7,
         0x50, 0x08, 0x3E, 0x0C, 0x4E, 0xF3, 0x77, 0xF7, 0x3A, 0x0D, 0xF5, 0x0B, 0x11, 0xEE, 0x73, 0xF0,
         0xC9, 0x15, 0x08, 0xFF, 0xED, 0xF1, 0xD6, 0x17, 0x25, 0x02, 0xDF, 0xE4, 0xFA, 0x0A, 0x83, 0x0B,
         0xB2, 0xEE, 0x3D, 0x06, 0xAE, 0x09, 0xCE, 0xED, 0x92, 0xFD, 0xF1, 0x13, 0xDF, 0x01, 0x1A, 0xF2,
         0x7C, 0xFF, 0x05, 0x0A, 0xDB, 0x00, 0x3A, 0xF8, 0x2D, 0x00, 0x97, 0x01, 0x56, 0xF8, 0x56, 0xFE,
         0x79, 0x0A, 0xD8, 0x05, 0xA3, 0x01, 0x26, 0xFA, 0x2F, 0xFA, 0x9E, 0x04, 0x5E, 0xF6, 0xEB, 0xFD,
         0xB8, 0x11, 0xB9, 0xFA, 0xD3, 0xF5, 0xB8, 0x09, 0x40, 0x03, 0x15, 0xFA, 0x86, 0x00, 0xD0, 0xFE,
         0xC6, 0x01, 0x21, 0x03, 0xC1, 0xFD, 0xC0, 0xFE, 0x87, 0xFC, 0x10, 0xFB, 0x28, 0xFD, 0x85, 0x0C,
         0xBC, 0x0F, 0x45, 0xF1, 0x04, 0xF6, 0xA7, 0x0C, 0x4B, 0xFE, 0x8D, 0xF5, 0x0A, 0x04, 0xDB, 0x05,
         0x2C, 0xF9, 0xEC, 0xFD, 0x37, 0x0E, 0xEE, 0xFD, 0x37, 0xEF, 0x2C, 0x06, 0x09, 0x0A, 0x20, 0xFB,
         0x71, 0x00, 0xA7, 0xFA, 0x42, 0x04, 0x92, 0x10, 0x4E, 0xEE, 0x39, 0xED, 0x03, 0x11, 0xEB, 0x07,
         0xF0, 0xF8, 0xF7, 0xFE, 0xC4, 0x02, 0xAA, 0x05, 0x66, 0x07, 0x46, 0xEF, 0xA7, 0xF1, 0x3C, 0x1F,
         0xA7, 0xFC, 0x32, 0xD2, 0x35, 0x1E, 0x36, 0x26, 0x6C, 0xE4, 0x33, 0x07, 0xAC, 0xFA, 0xDD, 0xC5,
         0xAC, 0x27, 0xF1, 0x2D, 0x51, 0xC4, 0x59, 0x00, 0x33, 0x52, 0x12, 0xFD, 0xED, 0xA6, 0xAE, 0xEE,
         0x5F, 0x50, 0x43, 0xEF, 0x92, 0xAA, 0x5E, 0x41, 0x8E, 0x59, 0x68, 0xC8, 0xDD, 0xCF, 0xF4, 0x0A,
         0x55, 0xEC, 0x25, 0x1A, 0x97, 0x1A, 0xFD, 0xD5, 0xF0, 0x14, 0xE9, 0x3D, 0x27, 0xD4, 0xCB, 0xC0,
         0x01, 0x04, 0x96, 0x12, 0xE1, 0x22, 0x65, 0x20, 0xBA, 0xDC, 0xBC, 0xE5, 0xEB, 0x1A, 0xCE, 0x03,
         0xCF, 0xD8, 0x6D, 0xEF, 0xA9, 0x24, 0xA0, 0x20, 0x44, 0xFC, 0xFC, 0xE9, 0x20, 0xED, 0x69, 0x16,
         0x94, 0x0F, 0x14, 0xD9, 0x1B, 0xF9, 0x8E, 0x1F, 0xC4, 0xFA, 0x4E, 0xFB, 0xA6, 0xFF, 0x40, 0xF8,
         0x55, 0x17, 0xD6, 0x01, 0x33, 0xFA, 0x4F, 0x0E, 0x73, 0xDD, 0x6E, 0xEA, 0x26, 0x17, 0xC1, 0xFD,
         0x4A, 0x10, 0x8D, 0x19, 0xDE, 0xE6, 0xDF, 0xF7, 0x37, 0x08, 0x4B, 0xF0, 0x66, 0x06, 0xD8, 0x05,
         0x69, 0xF8, 0xE2, 0x10, 0xC9, 0xFE, 0x32, 0xEF, 0xCF, 0x0F, 0xFB, 0xF7, 0x2E, 0xE6, 0x41, 0x1E,
         0x9E, 0x0D, 0x12, 0xD1, 0x5D, 0x0C, 0x1E, 0x36, 0x18, 0xEA, 0xE5, 0xE8, 0x9C, 0x12, 0x11, 0xE9,
         0xD7, 0xF6, 0x8A, 0x1E, 0x73, 0xED, 0x4B, 0xF0, 0x1C, 0x2B, 0x81, 0xFD, 0x0B, 0xE2, 0x78, 0x20,
         0xA0, 0xFC, 0x53, 0xCA, 0x35, 0x1E, 0x87, 0x1D, 0xA4, 0xE0, 0x04, 0x2E, 0xD1, 0xFF, 0xA5, 0x87,
         0x69, 0x29, 0x6B, 0x62, 0x21, 0xB3, 0x8C, 0xEC, 0xE4, 0x7B, 0x6D, 0xFA, 0x00, 0x80, 0xC7, 0xF9,
         0x92, 0x76, 0x7E, 0xD6, 0xAF, 0x95, 0xEF, 0x4F, 0xB2, 0x57, 0xB8, 0xAB, 0x84, 0xB6, 0x53, 0x12,
         0xBA, 0xD5, 0xCB, 0x24, 0x44, 0x42, 0x1E, 0xC3, 0xC8, 0x0C, 0xAC, 0x5B, 0x06, 0xBE, 0x38, 0xA7,
         0x1A, 0x0C, 0x3D, 0x0D, 0xE5, 0x37, 0xCB, 0x47, 0x8C, 0xB3, 0x02, 0xC2, 0x22, 0x48, 0x28, 0x11,
         0x1B, 0xB2, 0x5D, 0xE0, 0xD4, 0x34, 0x95, 0x48, 0x74, 0x0A, 0x2B, 0xBA, 0xB7, 0xD4, 0x94, 0x38,
         0xBF, 0x22, 0x78, 0xC5, 0x47, 0xE1, 0xBC, 0x2C, 0x1D, 0x13, 0x2A, 0xEE, 0xD8, 0xE6, 0xC7, 0x06,
         0xD1, 0x32, 0x8E, 0xF8, 0x24, 0xF1, 0x88, 0x19, 0xE2, 0xCD, 0xC4, 0xDE, 0x6F, 0x2B, 0x5B, 0xED,
         0x20, 0x01, 0x70, 0x48, 0x6F, 0xE7, 0x91, 0xD3, 0x93, 0x0F, 0x90, 0xF8, 0x5C, 0x08, 0x0C, 0x07,
         0xF0, 0xF4, 0x12, 0x1F, 0x1F, 0xEE, 0xAA, 0xD6, 0x08, 0x36, 0x7F, 0xFA, 0x63, 0xC2, 0x68, 0x38,
         0x4E, 0x13, 0xED, 0xB6, 0xEF, 0x16, 0x87, 0x3B, 0xB1, 0xE2, 0x3F, 0xFC, 0x54, 0x22, 0x54, 0xD3,
         0xF3, 0xE6, 0x29, 0x2C, 0x0A, 0xE2, 0xD4, 0xD4, 0x50, 0x36, 0x94, 0x2B, 0x45, 0xEF, 0x98, 0xF4,
         0x38, 0xF8, 0x4F, 0xF7, 0xDD, 0x07, 0x54, 0xEB, 0x77, 0xEF, 0x8E, 0x4C, 0xE8, 0x15, 0xB8, 0x89,
         0x68, 0xF4, 0xF9, 0x68, 0x27, 0xE9, 0x12, 0xCC, 0x64, 0x4D, 0xB4, 0x0C, 0x5C, 0x97, 0xBF, 0x0D,
         0xD1, 0x58, 0x1E, 0xC7, 0x56, 0xBC, 0x8B, 0x55, 0xA7, 0x2F, 0x68, 0xC7, 0xE0, 0x05, 0x34, 0x05,
         0x78, 0xB1, 0x02, 0x16, 0xE7, 0x58, 0x09, 0xE0, 0x57, 0xD5, 0xC6, 0x29, 0xE4, 0x07, 0x10, 0xE6,
         0x72, 0xFA, 0xCA, 0xFB, 0xE8, 0x17, 0xA8, 0x24, 0x3E, 0xC2, 0x6E, 0xC2, 0xD1, 0x49, 0xA4, 0x2F,
         0x6F, 0xCC, 0xED, 0xEC, 0x55, 0x14, 0xBF, 0x28, 0xAF, 0x1E, 0x91, 0xB6, 0x94, 0xB4, 0x16, 0x3D,
         0x41, 0x3A, 0x64, 0xDC, 0xE3, 0xE6, 0xF3, 0x23, 0x9B, 0x1D, 0x1B, 0xD9, 0x99, 0xCE, 0x46, 0x0F,
         0x9F, 0x32, 0x13, 0x0C, 0x14, 0xE5, 0xA9, 0xF9, 0x30, 0xFF, 0xED, 0xFB, 0x18, 0x0C, 0x1A, 0xF0,
         0x31, 0xEF, 0xEA, 0x2D, 0x03, 0x0D, 0xB9, 0xCB, 0x3A, 0xFB, 0x37, 0x20, 0x37, 0x0A, 0xA9, 0xEF,
         0x6A, 0xEB, 0x4B, 0x20, 0x68, 0x04, 0x90, 0xD9, 0x61, 0x1C, 0x59, 0x06, 0x36, 0xE5, 0x60, 0x15,
         0x14, 0xF4, 0x20, 0xE8, 0x46, 0x1D, 0xD3, 0x07, 0x4B, 0xE6, 0x58, 0x11, 0xC2, 0x21, 0xB0, 0xEE,
         0x18, 0xE4, 0xE4, 0x0C, 0xA8, 0xFB, 0xC5, 0xDF, 0x0D, 0x10, 0xAB, 0x1C, 0x00, 0xFB, 0xAB, 0x01,
         0xF4, 0x01, 0x13, 0xFD, 0xF3, 0x02, 0xFC, 0xEB, 0x26, 0xF1, 0x2A, 0x28, 0x7E, 0x0D, 0x72, 0xC7,
         0x4E, 0xFB, 0xA2, 0x35, 0xE6, 0xF6, 0x74, 0xE9, 0x01, 0x21, 0x62, 0xFB, 0x4F, 0xD7, 0x47, 0x13,
         0xDB, 0x11, 0x0F, 0xDC, 0xF2, 0xFC, 0x5B, 0x23, 0x13, 0x02, 0x10, 0xF7, 0x2D, 0x18, 0x61, 0xF7,
         0x43, 0xC5, 0x56, 0x0B, 0x22, 0x3A, 0xF1, 0xEA, 0xE9, 0xD7, 0xC1, 0x15, 0x6C, 0x15, 0x03, 0x04,
         0x4B, 0xFD, 0xC4, 0xF3, 0xC8, 0x06, 0x8A, 0xF9, 0x50, 0xEA, 0x40, 0xFA, 0x6C, 0x11, 0x0D, 0x1F,
         0x8B, 0xEF, 0x94, 0xF3, 0x17, 0x0A, 0x23, 0xFB, 0xF2, 0x24, 0xE5, 0xED, 0xC1, 0xBC, 0x46, 0x1F,
         0xAC, 0x20, 0x91, 0xEB, 0xB8, 0xF9, 0xFC, 0x19, 0xFC, 0x18, 0xD0, 0xD9, 0x55, 0xDE, 0xE5, 0x17,
         0x2A, 0x0E, 0xDE, 0xFF, 0x37, 0xFE, 0x48, 0xFA, 0x40, 0x08, 0x17, 0x03, 0x51, 0xF8, 0x50, 0xFD,
         0x50, 0xEF, 0x18, 0x07, 0x4D, 0x21, 0x8A, 0xEC, 0xA7, 0xEC, 0x8A, 0x1C, 0xE4, 0x04, 0xA0, 0xE3,
         0xBD, 0xF1, 0x89, 0x1E, 0x38, 0x16, 0xB7, 0xE2, 0x67, 0xF3, 0x2D, 0x14, 0x03, 0x09, 0xA8, 0xF1,
         0x95, 0xED, 0xEF, 0x0F, 0x83, 0x13, 0x5B, 0xE9, 0x1F, 0xEF, 0x7C, 0x13, 0x03, 0x12, 0x9D, 0xFF,
         0x8C, 0xF0, 0xB4, 0xFC, 0xFA, 0x0F, 0x45, 0xF7, 0x47, 0xF1, 0x4E, 0x04, 0x32, 0xFB, 0xE8, 0x07,
         0xA1, 0x0D, 0xFB, 0xF6, 0xF5, 0x09, 0xED, 0x02, 0x91, 0xEC, 0x2A, 0x02, 0x1F, 0xFB, 0xFD, 0x03,
         0x4D, 0x09, 0x78, 0xF1, 0xB9, 0x07, 0xE2, 0x0F, 0xBD, 0xFF, 0xAC, 0xF3, 0x35, 0xFA, 0x64, 0x0C,
         0x32, 0xEE, 0x13, 0xF6, 0xD2, 0x16, 0xB9, 0xFA, 0xBD, 0xFC, 0x93, 0x12, 0xB4, 0x04, 0x9F, 0xF1,
         0x54, 0xF1, 0xE9, 0x0B, 0x11, 0x0A, 0x5A, 0xEE, 0x89, 0xF8, 0xC0, 0x0A, 0xCD, 0x02, 0xED, 0x06,
         0xCC, 0xFF, 0x1E, 0xFA, 0x64, 0x0A, 0xEB, 0xEB, 0x98, 0x03, 0x67, 0x1D, 0xFE, 0xE0, 0xA6, 0xFB,
         0xE2, 0x0C, 0x5E, 0xF9, 0xAB, 0x08, 0x63, 0xF0, 0x87, 0x0D, 0xE8, 0x19, 0x9D, 0xEC, 0x27, 0xF8,
         0xCD, 0xFA, 0xDF, 0xF8, 0x0E, 0x06, 0xC4, 0x09, 0xC9, 0x05, 0x09, 0xF2, 0x84, 0xFD, 0xE3, 0x0E,
         0xA3, 0xF8, 0xAC, 0xFA, 0x8F, 0x0F, 0x54, 0xFE, 0xC9, 0xF6, 0xFB, 0x01, 0x2F, 0xFB, 0x3B, 0xFD,
         0xFB, 0xFB, 0x0D, 0xFF, 0xBF, 0x14, 0x5E, 0x03, 0x80, 0xF1, 0xBD, 0x0A, 0xAA, 0xFD, 0x02, 0xE8,
         0xD5, 0x02, 0x06, 0x14, 0x0B, 0x0F, 0xD2, 0xF1, 0x5A, 0xE8, 0x24, 0x0B, 0xB1, 0x06, 0x78, 0xF9,
         0x16, 0x06, 0xFA, 0x06, 0x40, 0x01, 0x51, 0xF8, 0xA8, 0xFB, 0xF9, 0x05, 0x92, 0xFD, 0x55, 0xF6,
         0xD0, 0xFF, 0x67, 0x09, 0x1D, 0x0B, 0xBC, 0xFF, 0xC5, 0xF4, 0xD1, 0x00, 0x0F, 0xFB, 0x7A, 0xFC,
         0xAF, 0x09, 0x06, 0xF6, 0x58, 0x0A, 0xB7, 0x0C, 0x60, 0xF1, 0x32, 0xFD, 0x68, 0xFA, 0x72, 0x15,
         0xA0, 0xFE, 0x19, 0xD8, 0x1E, 0x19, 0x52, 0x0F, 0xAE, 0xF1, 0xE3, 0x06, 0x14, 0xFB, 0xAF, 0xFF,
         0x5A, 0xFC, 0x56, 0x00, 0x4C, 0x0B, 0x39, 0xF6, 0xAE, 0xFC, 0xE1, 0x0A, 0x75, 0xFF, 0x23, 0xF4,
         0x4C, 0x01, 0x95, 0x0E, 0x94, 0xFA, 0x23, 0xFB, 0x46, 0x04, 0x92, 0xF4, 0x03, 0x02, 0x18, 0x09,
         0x01, 0xF6, 0x02, 0x07, 0x13, 0x0C, 0x69, 0xF8, 0x60, 0x05, 0x75, 0x04, 0xD6, 0xE5, 0xB3, 0xF0,
         0x5E, 0x17, 0x30, 0x09, 0x3C, 0xFA, 0x70, 0x06, 0xC2, 0xF5, 0x6B, 0x08, 0x3C, 0x12, 0x8F, 0xE7,
         0x63, 0xF3, 0x2E, 0x10, 0x40, 0x07, 0x16, 0xF6, 0x57, 0xF2, 0x76, 0x08, 0xB8, 0x09, 0xC7, 0xF3,
         0x10, 0x06, 0x7D, 0x19, 0xD5, 0xF8, 0x9B, 0xE6, 0x52, 0x00, 0x6E, 0x0F, 0x30, 0xFE, 0xBF, 0xF1,
         0x0A, 0x02, 0x8E, 0x0B, 0x76, 0x03, 0xC1, 0xF3, 0x59, 0xFB, 0x9A, 0x14, 0xBC, 0xF9, 0x55, 0xF0,
         0x8D, 0x0F, 0x3A, 0x04, 0x3A, 0xFB, 0x00, 0x02, 0x70, 0xFD, 0xA5, 0xF1, 0xA6, 0xF2, 0x44, 0x13,
         0x5C, 0x14, 0xA7, 0xF6, 0xC3, 0xF6, 0x40, 0x05, 0x95, 0x09, 0x5E, 0xFE, 0x63, 0xF0, 0x71, 0xF5,
         0x8E, 0x06, 0xA3, 0x0E, 0x2C, 0x03, 0x76, 0xF9, 0x08, 0xFE, 0xC6, 0xFB, 0x35, 0x02, 0x21, 0x0C,
         0xAA, 0xF9, 0xD9, 0xF4, 0xA5, 0x02, 0x01, 0x06, 0x82, 0xFF, 0xD9, 0xF6, 0x01, 0x0D, 0x3C, 0x0D,
         0xD4, 0xEF, 0x31, 0xFC, 0xFE, 0x00, 0xE9, 0xF6, 0x52, 0x01, 0x1A, 0x0A, 0x63, 0x06, 0xAC, 0xF8,
         0xA3, 0xFE, 0xC3, 0x05, 0x56, 0xFB, 0xA9, 0x01, 0x3B, 0x02, 0x2B, 0xFA, 0xA4, 0x02, 0x7A, 0x00,
         0xC9, 0xF6, 0x9A, 0xFF, 0x3A, 0x0D, 0xA1, 0x07, 0xB5, 0xF6, 0x24, 0xF9, 0xB9, 0x00, 0xB5, 0xF8,
         0x04, 0xFF, 0x56, 0x10, 0x39, 0x08, 0x4F, 0xFD, 0x07, 0x02, 0x67, 0xF6, 0x28, 0xEF, 0xAF, 0xFD,
         0x33, 0x04, 0x27, 0x0C, 0xE9, 0x05, 0x13, 0xF9, 0x26, 0x08, 0x22, 0x08, 0xD3, 0xF6, 0x26, 0xEF,
         0x44, 0xFF, 0x62, 0x13, 0xFC, 0xFB, 0x8F, 0xEF, 0xBE, 0x04, 0x96, 0x0B, 0xAE, 0xFD, 0x78, 0xF9,
         0xC6, 0x10, 0x4E, 0x04, 0x05, 0xE5, 0x2D, 0xFB, 0x73, 0x11, 0x19, 0x02, 0xD4, 0xF7, 0xF2, 0x05,
         0xA2, 0x07, 0xEB, 0xF7, 0xB6, 0xF9, 0x33, 0x02, 0xDF, 0x02, 0x7B, 0xFB, 0x39, 0xFC, 0x3F, 0x07,
         0x04, 0x05, 0x8C, 0x04, 0xEE, 0x01, 0xC6, 0xF9, 0x14, 0xF9, 0x22, 0xF6, 0xC1, 0x00, 0x9C, 0x0B,
         0x8A, 0x00, 0x32, 0xFE, 0x50, 0x05, 0x69, 0x03, 0x84, 0xFF, 0xA6, 0xFB, 0xB6, 0xF7, 0x75, 0xFA,
         0x8B, 0x06, 0x2E, 0x0A, 0x6A, 0xFE, 0x6E, 0xFC, 0xAA, 0xFF, 0x4F, 0xFC, 0xB4, 0x02, 0x65, 0x05,
         0x2F, 0xFA, 0xFF, 0xFB, 0xE8, 0x05, 0xBB, 0x00, 0x15, 0xFC, 0x1F, 0x03, 0x58, 0x05, 0x04, 0xFE,
         0x7C, 0xFB, 0xC8, 0xFF, 0xD2, 0xFA, 0x10, 0xFC, 0x08, 0x09, 0xF0, 0x03, 0x44, 0xFF, 0xAC, 0x04,
         0x1F, 0xFD, 0xF4, 0xF7, 0xA2, 0xFD, 0x21, 0x01, 0xC7, 0x02, 0x16, 0x09, 0x42, 0x04, 0xDD, 0xF2,
         0x51, 0xF9, 0xA4, 0x09, 0x33, 0x03, 0x57, 0xF8, 0xF7, 0xFA, 0xCC, 0x04, 0x56, 0x05, 0x61, 0xFE,
         0xA9, 0x02, 0x34, 0x06, 0x2C, 0xFD, 0x0E, 0xFB, 0xF9, 0xFD, 0x96, 0xFB, 0x2A, 0xFD, 0x6B, 0x02,
         0x25, 0x04, 0xDA, 0xFF, 0x68, 0x02, 0xDF, 0x06, 0x56, 0xFF, 0xCF, 0xFB, 0x5F, 0xF9, 0x15, 0xFE,
         0x63, 0x08, 0xEF, 0xFD, 0xE9, 0xF8, 0x66, 0x02, 0x75, 0x07, 0x1E, 0x01, 0xAE, 0xF7, 0x02, 0x05,
         0x75, 0x06, 0xAE, 0xF4, 0xFE, 0xFC, 0xFA, 0x07, 0x04, 0x00, 0x10, 0xFB, 0xE3, 0x02, 0x86, 0x04,
         0xE2, 0xFB, 0x14, 0x00, 0x6F, 0x02, 0xB4, 0xFC, 0xAD, 0xFF, 0x8C, 0xFE, 0x37, 0xFE, 0x24, 0x06,
         0xB0, 0x03, 0xAA, 0xFA, 0x05, 0xFE, 0x63, 0x05, 0x9A, 0xFC, 0xAE, 0xF6, 0x23, 0x05, 0x10, 0x0B,
         0xAA, 0xFF, 0x82, 0xF8, 0x07, 0xFD, 0xAA, 0x03, 0xA5, 0x01, 0x7B, 0xFC, 0x80, 0xFB, 0xFB, 0x01,
         0x0A, 0x0A, 0xBC, 0x04, 0xDB, 0xFB, 0x4C, 0xF8, 0x24, 0xF8, 0x72, 0x00, 0x98, 0x06, 0xF0, 0x02,
         0x51, 0x01, 0x4B, 0x03, 0x1F, 0x01, 0x5A, 0xFD, 0x19, 0xFB, 0xFE, 0xFC, 0x3D, 0x01, 0x02, 0x00,
         0xFB, 0xFF, 0x9E, 0x00, 0xB1, 0x00, 0x5C, 0x03, 0x96, 0x00, 0x7C, 0x02, 0x10, 0x04, 0xEC, 0xF9,
         0x4D, 0xF6, 0x45, 0xFC, 0x5B, 0x03, 0xAD, 0x04, 0x19, 0x06, 0xC6, 0x08, 0xC6, 0xFB, 0xAD, 0xF4,
         0xFD, 0xFE, 0xFF, 0x01, 0x66, 0xFD, 0xCC, 0xFB, 0x71, 0x04, 0x1E, 0x0D, 0x79, 0x02, 0x7A, 0xF6,
         0xA2, 0xFC, 0x5F, 0x01, 0x9E, 0xFC, 0x9A, 0xFE, 0x4B, 0x04, 0x5C, 0x04, 0xF8, 0xFF, 0xEC, 0xFA,
         0xD3, 0xFB, 0xDB, 0x02, 0x08, 0x06, 0xC4, 0xFE, 0xDE, 0xFC, 0xCD, 0x04, 0x62, 0x01, 0xE9, 0xF8,
         0x45, 0xFC, 0x33, 0x02, 0xCF, 0x02, 0x7D, 0x01, 0x8A, 0x00, 0x1D, 0xFF, 0x0E, 0xFF, 0x0E, 0x01,
         0x3B, 0x01, 0x5A, 0x00, 0xC1, 0xFF, 0x69, 0xFD, 0x9E, 0xFB, 0x25, 0xFE, 0x4F, 0x03, 0xEC, 0x05,
         0x1A, 0x01, 0x44, 0xFD, 0x1B, 0x03, 0x7F, 0x02, 0xEB, 0xF8, 0x7E, 0xFC, 0xE6, 0x04, 0xA8, 0xFE,
         0x1D, 0xF9, 0x71, 0x01, 0x6F, 0x07, 0xA0, 0x00, 0x66, 0xFB, 0x10, 0x04, 0x4E, 0x0B, 0x11, 0xFE,
         0x21, 0xF0, 0xF5, 0xF9, 0x24, 0x06, 0x4C, 0x02, 0xD1, 0xFF, 0xCF, 0x01, 0xCF, 0x00, 0x2E, 0x05,
         0x75, 0x07, 0x9B, 0xFA, 0xC5, 0xF1, 0x82, 0xFC, 0xE6, 0x04, 0x19, 0x01, 0x82, 0x01, 0xD9, 0x05,
         0xAE, 0x05, 0xC7, 0x00, 0x04, 0xFA, 0x4E, 0xFA, 0xE9, 0x00, 0xFF, 0xFF, 0x1B, 0xF9, 0x82, 0xFC,
         0xB4, 0x07, 0x09, 0x09, 0xDF, 0x01, 0x94, 0xFE, 0x9A, 0xFF, 0xCC, 0xFE, 0x58, 0xFB, 0xFC, 0xFB,
         0x9C, 0x01, 0xC3, 0x01, 0x43, 0xFD, 0x2F, 0x00, 0xA2, 0x05, 0x2C, 0x02, 0x65, 0xFB, 0x1D, 0xFD,
         0x22, 0x07, 0xF1, 0x05, 0x9D, 0xF6, 0xA0, 0xF7, 0x4F, 0x08, 0xA0, 0x05, 0x49, 0xF7, 0x5E, 0xFB,
         0xAD, 0x05, 0x70, 0x04, 0x00, 0x01, 0xC6, 0xFE, 0x00, 0xFD, 0xA8, 0x00, 0xBD, 0x01, 0xC2, 0xFD,
         0xA8, 0xFD, 0x2F, 0xFF, 0x9C, 0x00, 0xCB, 0x04, 0xE6, 0x03, 0xA3, 0xFD, 0xF6, 0xFB, 0xE2, 0xFD,
         0x1F, 0x00, 0x03, 0x02, 0x6D, 0x00, 0x3E, 0x00, 0x9D, 0x02, 0x44, 0xFF, 0x7A, 0xFC, 0x23, 0x01,
         0xBE, 0x00, 0xAA, 0xFC, 0x09, 0x01, 0xD1, 0x02, 0xD0, 0xFD, 0x51, 0x01, 0x0B, 0x06, 0xCD, 0xFE,
         0x1A, 0xFA, 0x09, 0xFE, 0xCC, 0xFD, 0xDE, 0xFE, 0xD3, 0x06, 0x9B, 0x05, 0xD1, 0xFB, 0x99, 0xFC,
         0x7D, 0x03, 0x95, 0x01, 0x8D, 0xFB, 0x79, 0xFB, 0x6C, 0x01, 0x91, 0x06, 0x38, 0x02, 0x65, 0xF8,
         0x52, 0xF9, 0x4C, 0x06, 0x3F, 0x0B, 0x53, 0x00, 0x9F, 0xF7, 0xD3, 0xFD, 0x5D, 0x04, 0xB4, 0xFE,
         0x4F, 0xF9, 0x8B, 0xFC, 0x4F, 0x01, 0x07, 0x08, 0x9B, 0x0A, 0x2A, 0xFE, 0x29, 0xF6, 0xD5, 0xFF,
         0x51, 0x01, 0x2D, 0xF9, 0xEA, 0x00, 0xAF, 0x09, 0x21, 0xFF, 0x39, 0xF8, 0x1A, 0x01, 0x43, 0x06,
         0x98, 0x00, 0x0A, 0xFB, 0x03, 0xFF, 0xFC, 0x05, 0xBD, 0x00, 0xFC, 0xF7, 0x9E, 0xFC, 0x5A, 0x03,
         0x2E, 0x04, 0xF7, 0x05, 0xC3, 0x00, 0x23, 0xF8, 0x19, 0xFC, 0xA0, 0xFF, 0x86, 0xFC, 0xB0, 0x04,
         0x8B, 0x0B, 0x68, 0x01, 0x38, 0xFB, 0x42, 0xFD, 0x99, 0xFA, 0x17, 0xFC, 0xE4, 0x01, 0xA7, 0x02,
         0xF1, 0x03, 0x05, 0x01, 0x8C, 0xFB, 0x0E, 0x04, 0xF1, 0x08, 0x97, 0xFA, 0xF0, 0xF6, 0x64, 0x00,
         0x48, 0xFE, 0x2C, 0xFF, 0x90, 0x06, 0x09, 0xFF, 0x41, 0xFC, 0xF4, 0x08, 0xD9, 0x05, 0x11, 0xF8,
         0x3E, 0xF9, 0x49, 0xFF, 0x2D, 0x02, 0xEF, 0x02, 0x73, 0xFC, 0x2D, 0xFE, 0x46, 0x0A, 0x94, 0x03,
         0xBB, 0xF4, 0x27, 0xFC, 0xF4, 0x05, 0xDC, 0xFF, 0xF3, 0xFC, 0x9B, 0x02, 0xBC, 0x05, 0xBD, 0x01,
         0x59, 0xF9, 0xED, 0xF9, 0xC8, 0x03, 0xA0, 0x03, 0x2D, 0xFD, 0x59, 0xFF, 0x6A, 0x00, 0xC7, 0xFD,
         0x85, 0x03, 0x1A, 0x07, 0x0E, 0xFE, 0xCC, 0xFA, 0x11, 0x02, 0x1D, 0x00, 0x39, 0xF8, 0x00, 0xFC,
         0xF5, 0x05, 0x41, 0x06, 0x6D, 0x00, 0x82, 0x01, 0x78, 0x01, 0x30, 0xFB, 0x8A, 0xFC, 0xB1, 0x01,
         0x72, 0xFF, 0xFB, 0xFC, 0xDA, 0xFE, 0xE6, 0x02, 0xB3, 0x06, 0x42, 0x01, 0xFF, 0xF9, 0x62, 0x01,
         0xFE, 0x05, 0xEE, 0xF9, 0x6B, 0xF7, 0xC7, 0x02, 0x09, 0x04, 0x11, 0x00, 0x1E, 0x01, 0xF5, 0xFF,
         0xC9, 0x00, 0x99, 0x02, 0x89, 0xFD, 0x8E, 0xFF, 0x81, 0x05, 0x31, 0xFD, 0x35, 0xF7, 0xF5, 0xFC,
         0x14, 0xFE, 0x3D, 0x02, 0x3F, 0x0C, 0x0C, 0x07, 0xB1, 0xFC, 0xA7, 0xFE, 0xAB, 0xFC, 0x1E, 0xF8,
         0x54, 0xFD, 0x6C, 0xFF, 0x5F, 0x01, 0xC4, 0x07, 0x6C, 0x03, 0x87, 0xFD, 0x47, 0x01, 0x40, 0x00,
         0xB8, 0xFA, 0x70, 0xFF, 0x9A, 0x04, 0x8A, 0xFD, 0x8C, 0xF9, 0x2E, 0xFE, 0x41, 0x02, 0x9F, 0x07,
         0xD5, 0x08, 0xAC, 0xFF, 0xFC, 0xF8, 0x5D, 0xFB, 0x2F, 0xFE, 0xFF, 0xFD, 0x6C, 0xFD, 0xF4, 0x00,
         0xDC, 0x07, 0x8E, 0x05, 0xDB, 0xFA, 0x1D, 0xFA, 0xDD, 0x05, 0xA7, 0x07, 0xB9, 0xFA, 0xB9, 0xF9,
         0x81, 0x00, 0x77, 0xFD, 0x12, 0xFF, 0xE1, 0x03, 0xF9, 0xFE, 0xB0, 0x00, 0x99, 0x08, 0x39, 0x00,
         0x16, 0xF6, 0xAD, 0xFF, 0x48, 0x05, 0x69, 0xFD, 0xD8, 0xFD, 0x6F, 0x01, 0x50, 0x00, 0xFA, 0x00,
         0xE2, 0xFE, 0x5D, 0xFE, 0x29, 0x04, 0xC9, 0x02, 0x7A, 0xFE, 0xFD, 0x00, 0x2D, 0xFB, 0xB7, 0xF4,
         0xB4, 0x02, 0x8A, 0x0D, 0xBF, 0x02, 0x6D, 0xFB, 0x55, 0x00, 0xB8, 0x00, 0x7D, 0xFB, 0xF3, 0xFA,
         0x9B, 0x01, 0x43, 0x06, 0x75, 0x02, 0x1A, 0xFC, 0xBB, 0xFB, 0xF9, 0x01, 0xA5, 0x05, 0x9B, 0xFF,
         0xC0, 0xFA, 0x4A, 0xFF, 0x35, 0x02, 0x6C, 0x03, 0xDF, 0xFE, 0x74, 0xF9, 0xA3, 0x02, 0x9D, 0x03,
         0xDB, 0xFD, 0x85, 0x03, 0x17, 0x00, 0x6A, 0xFA, 0x87, 0x01, 0xB1, 0x00, 0xB8, 0xFD, 0xD5, 0x02,
         0x86, 0xFD, 0xCA, 0xFD, 0x4B, 0x08, 0xB3, 0x02, 0xA3, 0xFB, 0x90, 0xFD, 0xC0, 0xFC, 0x80, 0x00,
         0x50, 0x04, 0x2F, 0xFC, 0x06, 0xFC, 0xC6, 0x07, 0xCD, 0x05, 0xD7, 0xFA, 0xAF, 0xFB, 0x39, 0x02,
         0x72, 0x01, 0x34, 0xFC, 0x63, 0xFD, 0x71, 0x04, 0x18, 0x04, 0x24, 0xFF, 0x6E, 0xFD, 0xE4, 0xFC,
         0x3C, 0x01, 0x61, 0x04, 0xAF, 0xFD, 0xBD, 0xFA, 0x26, 0x03, 0xC9, 0x06, 0x9D, 0xFF, 0xBE, 0xFB,
         0x8C, 0xFC, 0x68, 0xFE, 0x0D, 0x04, 0x19, 0x02, 0x05, 0xFC, 0xD8, 0xFF, 0x64, 0x03, 0x2D, 0x02,
         0xFE, 0x01, 0x8E, 0xFE, 0x15, 0xFB, 0x97, 0xFD, 0x30, 0xFF, 0x73, 0x00, 0x00, 0x04, 0x71, 0x03,
         0x4C, 0xFF, 0x39, 0xFC, 0x5C, 0xFF, 0x3C, 0x03, 0x7B, 0x01, 0x9D, 0xFE, 0x08, 0xFB, 0x9C, 0xFF,
         0x0E, 0x06, 0x25, 0xFF, 0x6F, 0xFB, 0xCF, 0xFF, 0xEB, 0x02, 0x23, 0x04, 0x56, 0xFF, 0x1C, 0xFC,
         0xA4, 0xFF, 0xC8, 0xFE, 0xFC, 0xFF, 0xAF, 0x06, 0xC2, 0xFF, 0x30, 0xF8, 0x08, 0xFF, 0x3C, 0x02,
         0x1B, 0x00, 0x6C, 0x02, 0xED, 0x04, 0x70, 0x01, 0x21, 0xFC, 0x3B, 0xFC, 0xC9, 0xFC, 0x53, 0xFB,
         0xDB, 0x01, 0x71, 0x09, 0x4B, 0x04, 0xF0, 0xFE, 0x83, 0xFE, 0xB4, 0xFA, 0x8F, 0xFB, 0x3B, 0x02,
         0x9E, 0x03, 0x85, 0x01, 0x6C, 0xFE, 0x30, 0xFC, 0x0E, 0x01, 0x62, 0x03, 0x32, 0x01, 0x2B, 0xFF,
         0x1E, 0xFE, 0x04, 0x04, 0xE0, 0x01, 0xD0, 0xF7, 0x76, 0xFB, 0x28, 0x03, 0x19, 0x03, 0xA6, 0x00,
         0x9A, 0x01, 0xE0, 0x03, 0xF4, 0x00, 0x90, 0xFB, 0x15, 0xFA, 0x5B, 0xFE, 0x05, 0x04, 0xB6, 0x02,
         0x72, 0xFE, 0x44, 0x02, 0xD4, 0xFF, 0x8D, 0xFB, 0x5A, 0x05, 0x12, 0x01, 0x77, 0xFB, 0xA3, 0x05,
         0x09, 0xFC, 0x18, 0xF4, 0x75, 0x06, 0x74, 0x09, 0x26, 0xFC, 0xA5, 0xFF, 0x2A, 0x04, 0x74, 0xFD,
         0xDF, 0xFB, 0x8D, 0xFE, 0xC4, 0x01, 0xC3, 0x05, 0xD8, 0x01, 0xAF, 0xF7, 0xE1, 0xFA, 0x98, 0x06,
         0xAB, 0x02, 0x01, 0xFB, 0xA8, 0x02, 0x59, 0x06, 0x1A, 0xFE, 0xF9, 0xFB, 0x1C, 0xFC, 0x8D, 0xFF,
         0x3B, 0x06, 0xB4, 0x00, 0x57, 0xFD, 0xDB, 0x00, 0xCC, 0xFD, 0xA8, 0xFF, 0xBA, 0x03, 0xBC, 0xFD,
         0x4C, 0xFE, 0xBE, 0x03, 0x08, 0xFF, 0x8E, 0xFD, 0x5F, 0x00, 0x7B, 0x01, 0xD8, 0x01, 0x07, 0xFF,
         0x4F, 0xFF, 0x46, 0xFF, 0x38, 0xFE, 0x87, 0x00, 0xB8, 0x00, 0x6E, 0x01, 0x76, 0x02, 0xA7, 0xFE,
         0x8B, 0xFD, 0x2F, 0x00, 0xDE, 0xFE, 0xFF, 0xFE, 0xA4, 0x02, 0xBE, 0x01, 0x5F, 0xFF, 0x95, 0xFF,
         0xD6, 0xFF, 0x7D, 0xFF, 0x84, 0xFF, 0xB8, 0xFF, 0x31, 0x00, 0x15, 0x01, 0xE7, 0xFF, 0x91, 0xFE,
         0xCC, 0x00, 0x57, 0x01, 0xAA, 0xFE, 0x8B, 0xFF, 0x61, 0x01, 0x93, 0xFF, 0x3F, 0xFF, 0x4D, 0x00,
         0xDE, 0xFF, 0x3B, 0x00, 0x8C, 0x00, 0xAB, 0xFF, 0xC7, 0xFF, 0x13, 0x00, 0x00, 0x00
     };

__align(2)
     const U8 motion_dj_vocal_wav_6[DJ_AUD_VOX_WAVE_6_LEN] = 
     {
         0x52, 0x49, 0x46, 0x46, 0xB6, 0x12, 0x00, 0x00, 0x57, 0x41, 0x56, 0x45, 0x66, 0x6D, 0x74, 0x20,
         0x10, 0x00, 0x00, 0x00, 0x01, 0x00, 0x01, 0x00, 0x80, 0x3E, 0x00, 0x00, 0x00, 0x7D, 0x00, 0x00,
         0x02, 0x00, 0x10, 0x00, 0x64, 0x61, 0x74, 0x61, 0x92, 0x12, 0x00, 0x00, 0xFD, 0xFF, 0xF8, 0xFF,
         0x02, 0x00, 0x06, 0x00, 0xEB, 0xFF, 0x02, 0x00, 0x21, 0x00, 0xFA, 0xFF, 0xF1, 0xFF, 0x2D, 0x00,
         0x12, 0x00, 0xB1, 0xFF, 0xD3, 0xFF, 0x5D, 0x00, 0x24, 0x00, 0x7F, 0xFF, 0xE7, 0xFF, 0x70, 0x00,
         0x0E, 0x00, 0x0D, 0x00, 0x15, 0x00, 0x9D, 0xFF, 0xCD, 0xFF, 0x52, 0x00, 0x06, 0x00, 0xB5, 0xFF,
         0xA4, 0x00, 0xB9, 0xFF, 0xA7, 0xFE, 0x1A, 0x01, 0xE0, 0x00, 0x4B, 0xFF, 0x6F, 0x00, 0x10, 0x00,
         0xB2, 0xFF, 0xD0, 0xFF, 0x04, 0xFF, 0xC3, 0xFF, 0x7A, 0x00, 0xFF, 0xFF, 0x15, 0x01, 0x71, 0x01,
         0x08, 0xFF, 0xCC, 0xFE, 0x5F, 0x00, 0xCC, 0xFF, 0x20, 0xFF, 0x03, 0x01, 0xE0, 0x00, 0x43, 0xFE,
         0x65, 0x00, 0x55, 0x00, 0x3A, 0xFE, 0xAA, 0x02, 0x65, 0x01, 0xB6, 0xFC, 0xD1, 0x00, 0xF0, 0x01,
         0x40, 0xFE, 0x2C, 0xFF, 0x90, 0xFF, 0x1D, 0x01, 0x70, 0x02, 0x89, 0xFC, 0x72, 0xFE, 0x49, 0x03,
         0x8D, 0x00, 0xD5, 0xFF, 0xAE, 0xFE, 0x0D, 0x00, 0xDE, 0x00, 0xED, 0xFE, 0xD3, 0x00, 0x3E, 0xFF,
         0x8B, 0xFF, 0x5E, 0x00, 0x2D, 0xFF, 0x68, 0x03, 0x89, 0x00, 0xFC, 0xFA, 0xBC, 0x00, 0x7C, 0x02,
         0x25, 0xFE, 0x6B, 0x00, 0xB4, 0xFF, 0x98, 0xFF, 0x8C, 0x03, 0x5C, 0xFF, 0x78, 0xFE, 0xAE, 0xFF,
         0xEE, 0xFE, 0x85, 0x01, 0x7C, 0xFE, 0x74, 0xFE, 0x29, 0x03, 0x1D, 0xFF, 0xC7, 0xFF, 0x85, 0x04,
         0x9B, 0xFB, 0xCC, 0xFD, 0xB1, 0x04, 0x1F, 0xFD, 0xAD, 0x00, 0x4D, 0x00, 0xE9, 0xFF, 0x86, 0x02,
         0x61, 0xF8, 0x3D, 0x02, 0xFC, 0x06, 0xAC, 0xFB, 0x1D, 0xFF, 0xE5, 0x00, 0x4E, 0x01, 0x92, 0xFE,
         0x55, 0xFE, 0x20, 0x03, 0xF7, 0xFC, 0x56, 0x00, 0xC1, 0x04, 0x17, 0xFD, 0xA6, 0xFE, 0x2F, 0x01,
         0x8E, 0xFD, 0x72, 0xFE, 0xBC, 0x03, 0x0F, 0x03, 0x53, 0xFD, 0x2F, 0xFF, 0x70, 0x00, 0x76, 0xFF,
         0x45, 0x01, 0x3B, 0xFE, 0xE0, 0xFF, 0xE9, 0x00, 0xEC, 0xFE, 0xC5, 0x00, 0x3C, 0xFE, 0xF8, 0x03,
         0xA7, 0x02, 0xDB, 0xF7, 0x55, 0x01, 0xA6, 0x05, 0xA6, 0xFE, 0x85, 0xFD, 0xB5, 0xFB, 0x7E, 0x00,
         0x4A, 0x06, 0x8E, 0xFF, 0x6F, 0xFD, 0xF8, 0x03, 0x8F, 0x00, 0xA7, 0xFA, 0xFC, 0xFD, 0xB3, 0x03,
         0x7C, 0x01, 0x61, 0xFB, 0xB0, 0x01, 0x13, 0x05, 0x7B, 0xFD, 0x70, 0xFC, 0xED, 0xFE, 0x63, 0x01,
         0x6A, 0x01, 0xED, 0x03, 0x93, 0x05, 0x6C, 0xFB, 0x75, 0xFA, 0xCC, 0xFC, 0x5F, 0xFA, 0x93, 0x06,
         0x4A, 0x08, 0x7E, 0xF8, 0xA2, 0xFE, 0x6B, 0x09, 0x2B, 0x00, 0x06, 0xFD, 0x43, 0xFD, 0xBF, 0xFE,
         0xA5, 0x03, 0xC9, 0xFA, 0xEB, 0xFC, 0x61, 0x09, 0xDD, 0x00, 0x77, 0xF6, 0x13, 0xFD, 0x70, 0x04,
         0x4E, 0x04, 0x39, 0x04, 0x06, 0x04, 0x8B, 0xFE, 0xD7, 0xF8, 0x83, 0xFB, 0x86, 0x03, 0x58, 0xFD,
         0x72, 0xF7, 0x58, 0x0B, 0xFA, 0x09, 0x1E, 0xF6, 0xAF, 0xFC, 0xDD, 0xFF, 0x1B, 0x03, 0x1A, 0x0A,
         0x91, 0xFA, 0xCC, 0xF9, 0xFB, 0x07, 0xF4, 0xF9, 0xE9, 0xF8, 0x7F, 0x03, 0x13, 0xFA, 0x7F, 0x07,
         0x18, 0x09, 0xAB, 0xFA, 0xDA, 0x09, 0x8F, 0xFD, 0x95, 0xEC, 0xA2, 0x0A, 0xC1, 0x03, 0x06, 0xE7,
         0x7F, 0x08, 0x59, 0x19, 0x6D, 0xFF, 0x44, 0xFC, 0x59, 0xF9, 0xE6, 0xF5, 0xE1, 0x01, 0x0E, 0x04,
         0x95, 0xFC, 0x46, 0x0C, 0xBD, 0x0C, 0x17, 0xE0, 0x59, 0x00, 0x49, 0x1F, 0xEC, 0xE2, 0xBB, 0xF4,
         0x63, 0x13, 0xC5, 0x07, 0x7E, 0x15, 0x81, 0xF2, 0x7D, 0xE3, 0xCE, 0x07, 0x2C, 0x05, 0x7C, 0xF6,
         0xDC, 0x02, 0xC7, 0x0E, 0xB0, 0x00, 0xA9, 0xFE, 0x9A, 0xFB, 0xDD, 0xEC, 0x04, 0x12, 0xE0, 0x1D,
         0x72, 0xDE, 0xDD, 0xE4, 0x23, 0x1F, 0x6C, 0x08, 0x95, 0xF1, 0xD9, 0x0E, 0xF3, 0x04, 0xB9, 0xEE,
         0x87, 0xF9, 0xDD, 0xFB, 0x30, 0x06, 0xAF, 0x0F, 0x1B, 0xF9, 0xF5, 0xFD, 0x19, 0x07, 0x99, 0xF9,
         0x51, 0x06, 0x62, 0xFD, 0x48, 0xEB, 0xA9, 0x08, 0x1F, 0x0F, 0x0B, 0xF6, 0x1F, 0x00, 0x35, 0x08,
         0x7C, 0x01, 0x37, 0xFD, 0xF0, 0xF5, 0x3C, 0x04, 0xC2, 0xF6, 0x5B, 0x02, 0xBB, 0x1F, 0xAA, 0xE6,
         0x8D, 0xF1, 0x70, 0x1E, 0x47, 0xF7, 0xCA, 0xEF, 0x4C, 0x06, 0xED, 0x0C, 0xC1, 0xF7, 0x40, 0xF4,
         0x6B, 0x13, 0xB6, 0xFC, 0x3D, 0xF1, 0x5B, 0x17, 0x3F, 0xF7, 0x9E, 0xE5, 0xE9, 0x21, 0x70, 0xFB,
         0x8F, 0xE2, 0x23, 0x1E, 0x45, 0x01, 0xC3, 0xF2, 0xB4, 0x02, 0xDE, 0xFF, 0x59, 0x0A, 0x07, 0xF0,
         0x18, 0xFA, 0x7D, 0x14, 0xAA, 0xF9, 0xD2, 0xFD, 0xAC, 0x0A, 0x70, 0xF2, 0x8E, 0xFE, 0x39, 0x0B,
         0x41, 0xF9, 0x80, 0x02, 0x7A, 0xF5, 0xBD, 0xFD, 0xDB, 0x10, 0x50, 0xF5, 0xA5, 0x07, 0xA5, 0x0A,
         0x2A, 0xFC, 0x5C, 0xF2, 0x9C, 0xE9, 0xDF, 0x29, 0x94, 0x07, 0xB1, 0xC3, 0x6B, 0x1A, 0x40, 0x32,
         0xDC, 0xD9, 0xF3, 0xD9, 0x9F, 0x27, 0xAF, 0x1F, 0xA0, 0xC9, 0xEF, 0xE8, 0x80, 0x51, 0x36, 0xFF,
         0x34, 0xA4, 0xC7, 0x31, 0x6C, 0x4D, 0x60, 0xA7, 0x22, 0xD4, 0x1B, 0x49, 0x72, 0xFE, 0x37, 0xE2,
         0xB0, 0xFB, 0xB8, 0x14, 0x97, 0x34, 0xD7, 0xD7, 0x2A, 0xD7, 0x27, 0x24, 0x3D, 0xFD, 0xF1, 0xF3,
         0x4B, 0x08, 0x89, 0x03, 0xBD, 0xE8, 0x83, 0xF4, 0x79, 0x3A, 0xCE, 0x0A, 0x39, 0xB8, 0x7E, 0x0F,
         0x57, 0x43, 0x4D, 0xD9, 0x59, 0xCA, 0x92, 0x19, 0xC5, 0x20, 0x4B, 0x03, 0xC2, 0xEA, 0xAF, 0xED,
         0x3F, 0x13, 0xEE, 0x07, 0x2B, 0xF7, 0xC6, 0x11, 0x38, 0xF1, 0xFB, 0xF0, 0xC1, 0x19, 0xD3, 0xF8,
         0xA3, 0xEA, 0xB3, 0x00, 0xBB, 0x29, 0x4B, 0xF3, 0xA2, 0xBE, 0x71, 0x47, 0x0D, 0x25, 0x54, 0xA9,
         0xCB, 0x07, 0x0A, 0x25, 0xBB, 0xEE, 0xF3, 0x01, 0x26, 0x01, 0xCE, 0xF8, 0xEB, 0x13, 0x15, 0x03,
         0x90, 0xE4, 0x89, 0xF7, 0xF6, 0x17, 0x4C, 0x09, 0xE7, 0xDD, 0x82, 0x10, 0x86, 0x27, 0x06, 0xE4,
         0x3F, 0xF2, 0x7E, 0xFA, 0xF0, 0xF0, 0x70, 0x21, 0xEE, 0x15, 0x7D, 0xDF, 0x6F, 0xEB, 0x4A, 0x1F,
         0xBD, 0x0C, 0xA9, 0xE7, 0xCE, 0x04, 0x29, 0xFE, 0xC4, 0xF9, 0x7A, 0x14, 0x1D, 0xF1, 0x5A, 0xEC,
         0xBA, 0x1C, 0x70, 0x15, 0xF2, 0xE0, 0xB1, 0xE7, 0x8D, 0x21, 0x59, 0x0A, 0x12, 0xE7, 0x48, 0x05,
         0xA3, 0x04, 0x07, 0xFF, 0xEF, 0x09, 0x2A, 0xEE, 0xD6, 0xF2, 0xAA, 0x1C, 0xDD, 0x05, 0x99, 0xEE,
         0xF1, 0x08, 0x36, 0xFC, 0x0F, 0xEF, 0x43, 0x11, 0xFC, 0x08, 0x74, 0xE9, 0x8D, 0x04, 0x3D, 0x14,
         0x7D, 0xF4, 0xD4, 0xF1, 0x9C, 0x11, 0x29, 0x05, 0x0B, 0xEC, 0x91, 0x0C, 0x7D, 0xFF, 0x16, 0xEA,
         0x8B, 0x1B, 0xF3, 0x04, 0x9B, 0xE5, 0x73, 0x19, 0xA8, 0x00, 0x38, 0xD3, 0xF5, 0x15, 0x51, 0x25,
         0xE6, 0xE9, 0x91, 0xEE, 0x69, 0x05, 0x6D, 0x0A, 0x5A, 0x01, 0xC3, 0xF6, 0x84, 0xFC, 0x56, 0x08,
         0xC3, 0x15, 0x30, 0xED, 0x67, 0xE6, 0x17, 0x15, 0xB1, 0xFE, 0xDC, 0xFF, 0x41, 0x0C, 0x5C, 0xEE,
         0x09, 0x05, 0xB7, 0x0D, 0xFE, 0xE8, 0x7B, 0x04, 0x24, 0x15, 0xD3, 0x01, 0x95, 0x00, 0x75, 0xD3,
         0x07, 0x29, 0xC8, 0x14, 0x4B, 0x86, 0xCC, 0x34, 0x61, 0x6C, 0x42, 0x03, 0xA8, 0x0F, 0xCF, 0x91,
         0x08, 0xF9, 0x13, 0x53, 0x06, 0x93, 0x85, 0x05, 0x57, 0x77, 0x7F, 0xBC, 0xED, 0xC0, 0xAB, 0x3D,
         0xB4, 0x0D, 0x31, 0x0E, 0x80, 0xB6, 0x21, 0xF8, 0xB8, 0x4D, 0x6E, 0xBA, 0x89, 0x20, 0xAF, 0x24,
         0x22, 0xA1, 0x7B, 0x55, 0x0B, 0x37, 0xBF, 0x88, 0x7F, 0x1C, 0x7E, 0x4A, 0x57, 0xAB, 0xE8, 0x27,
         0x99, 0x36, 0x40, 0xBF, 0x30, 0xFD, 0x85, 0x29, 0x66, 0x14, 0x6F, 0xE0, 0xAF, 0xBE, 0x50, 0x1C,
         0x87, 0x36, 0xD4, 0xC9, 0x39, 0xF0, 0x1B, 0x41, 0xD3, 0x0C, 0xF7, 0xEC, 0x73, 0xEE, 0xCE, 0xF5,
         0x87, 0x0A, 0x5F, 0x05, 0x8C, 0xF6, 0xB4, 0xED, 0x80, 0xF2, 0x42, 0x1D, 0xBD, 0x21, 0x59, 0xE8,
         0xF2, 0xF0, 0xC5, 0x21, 0x77, 0x15, 0xCB, 0xCB, 0xCF, 0xD9, 0xF0, 0x38, 0xCB, 0xF2, 0x1B, 0xCF,
         0x3B, 0x3C, 0xA4, 0x1D, 0x02, 0xDD, 0xC7, 0xEE, 0xC1, 0xFA, 0x7D, 0x21, 0xB9, 0x13, 0x9A, 0xD2,
         0x9C, 0x06, 0xBF, 0x03, 0xC2, 0xD6, 0xE8, 0x33, 0x6F, 0x0A, 0x97, 0xC5, 0xB5, 0x2B, 0xEA, 0x25,
         0x3C, 0xD1, 0x14, 0xE7, 0x44, 0x1B, 0x77, 0x14, 0xAF, 0xF2, 0x4B, 0xF0, 0x41, 0x03, 0x7E, 0xFB,
         0x25, 0xFA, 0xA8, 0x0E, 0xB4, 0x01, 0xDC, 0x01, 0xE5, 0x18, 0x8E, 0xF6, 0x8C, 0xE4, 0x6A, 0x03,
         0x32, 0xF3, 0x9B, 0x07, 0x1C, 0x20, 0x76, 0xDA, 0x5F, 0xFB, 0x0D, 0x43, 0x94, 0xE8, 0xA3, 0xB6,
         0xE4, 0x1F, 0xC9, 0x3E, 0x31, 0xE2, 0xEB, 0xD1, 0xBD, 0x1D, 0x30, 0x1A, 0x6B, 0xDC, 0xFD, 0x01,
         0xD1, 0x0D, 0x6F, 0xEC, 0x22, 0x1F, 0x2D, 0x03, 0xC7, 0xE0, 0xC5, 0x08, 0xF7, 0xFC, 0xAA, 0x09,
         0xC0, 0x04, 0xE2, 0xE6, 0x85, 0x0C, 0x88, 0x1E, 0x2E, 0xF5, 0xB1, 0xD2, 0x3D, 0xFF, 0x68, 0x3E,
         0xDB, 0x03, 0x7D, 0xC1, 0xFF, 0x0F, 0xE0, 0x1F, 0x8A, 0xDD, 0x04, 0xFE, 0x4E, 0x0E, 0x1B, 0x0C,
         0x91, 0x04, 0x35, 0xEB, 0xBD, 0x0A, 0x35, 0xFB, 0xCA, 0xF1, 0xD8, 0x0D, 0x17, 0xFB, 0x5E, 0x08,
         0xFF, 0x09, 0x32, 0xEA, 0xD3, 0x02, 0x11, 0x08, 0x38, 0xF8, 0x56, 0x1C, 0x42, 0xF2, 0x9A, 0xCC,
         0xA6, 0x22, 0xFB, 0x21, 0xB0, 0xE9, 0xFC, 0xF1, 0xA5, 0xF3, 0x0F, 0x17, 0x71, 0x2A, 0x86, 0xD7,
         0x1B, 0xDF, 0xD4, 0x27, 0xCA, 0xFC, 0x61, 0xEC, 0x05, 0x05, 0x83, 0xFD, 0x6D, 0x12, 0xBB, 0x03,
         0xFD, 0xE3, 0xE7, 0x0E, 0x3C, 0x11, 0xE4, 0xF5, 0x43, 0x04, 0xD1, 0xE5, 0x0A, 0x09, 0x69, 0x22,
         0x0F, 0xD0, 0x8F, 0xFA, 0x6A, 0x28, 0x11, 0xEE, 0xF0, 0xF6, 0x5F, 0x15, 0xC0, 0x03, 0xB2, 0xFC,
         0x64, 0x06, 0x31, 0xEE, 0x58, 0xE2, 0xE2, 0x12, 0x12, 0x20, 0x97, 0xE9, 0xEA, 0xF5, 0x34, 0x1E,
         0xDE, 0xF0, 0x5C, 0xF3, 0x32, 0x0F, 0xF9, 0xFF, 0xA0, 0x01, 0xDE, 0xEC, 0xD8, 0x08, 0xE5, 0x14,
         0x74, 0xDE, 0x18, 0x08, 0x70, 0x1C, 0x8E, 0xE6, 0xBC, 0xF9, 0x39, 0x18, 0x86, 0xFC, 0x11, 0xEE,
         0x3A, 0xFE, 0x3C, 0x12, 0x19, 0x03, 0xE3, 0xE3, 0x9F, 0x05, 0xCF, 0x11, 0x0F, 0x08, 0x6B, 0x0B,
         0xD0, 0xD4, 0xBF, 0xF3, 0x5A, 0x39, 0xCB, 0xE3, 0x7F, 0xCF, 0x7B, 0x3F, 0x84, 0x20, 0x49, 0xD1,
         0xE4, 0xF4, 0xDF, 0x00, 0xD3, 0x00, 0x85, 0x15, 0xA5, 0xF3, 0xFA, 0xEA, 0x0B, 0x12, 0xF7, 0x0E,
         0x95, 0x05, 0xAA, 0xF4, 0x5C, 0xE4, 0xE0, 0x16, 0xF6, 0x17, 0x53, 0xDB, 0xC3, 0xEA, 0x41, 0x1D,
         0x57, 0x17, 0xC4, 0xF4, 0xED, 0xF3, 0xF8, 0xFF, 0x56, 0x03, 0x3C, 0x05, 0x9A, 0xF6, 0x59, 0xF9,
         0x2E, 0x13, 0x2B, 0x00, 0x0B, 0xEA, 0xBF, 0x0A, 0x15, 0x09, 0x1D, 0xFA, 0x88, 0x04, 0x74, 0xEA,
         0x14, 0x04, 0x18, 0x26, 0xEA, 0xEF, 0xC1, 0xE6, 0x4A, 0x0A, 0x53, 0x05, 0x79, 0xFD, 0x27, 0x01,
         0xD7, 0x00, 0x00, 0x06, 0x1D, 0x07, 0x03, 0xF9, 0x9E, 0xF1, 0xBA, 0xF8, 0xFF, 0x07, 0x50, 0x0B,
         0xD5, 0xF9, 0xE1, 0xFB, 0x67, 0x10, 0x2A, 0x05, 0x4E, 0xEE, 0x62, 0x02, 0xB8, 0x0B, 0xF2, 0xF1,
         0x1C, 0xFC, 0x2D, 0xFB, 0x3D, 0xF4, 0x68, 0x1E, 0xD2, 0x10, 0x8A, 0xE0, 0x1C, 0xFB, 0x0B, 0x1B,
         0xF8, 0x03, 0x99, 0xE9, 0xAB, 0xEA, 0xAE, 0x0A, 0xC7, 0x1E, 0x10, 0xFF, 0x03, 0xEE, 0x72, 0xFA,
         0x31, 0x00, 0x05, 0x0A, 0x7F, 0x01, 0xA0, 0xF3, 0x46, 0x09, 0xF5, 0x0B, 0x8A, 0xF3, 0x6D, 0xF8,
         0xFE, 0xFE, 0x75, 0x06, 0x12, 0x12, 0x11, 0xF4, 0x50, 0xEA, 0xA3, 0x14, 0x7C, 0x0E, 0xAE, 0xE6,
         0x06, 0xF0, 0xDE, 0x10, 0xCD, 0x19, 0x63, 0xF9, 0xD7, 0xE5, 0xF7, 0x0A, 0xB0, 0x0E, 0x39, 0xEB,
         0x36, 0x01, 0xC6, 0x12, 0x2F, 0xF7, 0xCD, 0x01, 0x13, 0xFF, 0xC5, 0xDA, 0xE5, 0x0F, 0xA2, 0x3B,
         0x3B, 0xE8, 0x8E, 0xD2, 0xB4, 0x19, 0x12, 0x0D, 0xFC, 0xEA, 0x24, 0x07, 0x16, 0x08, 0x43, 0xFE,
         0x2A, 0x05, 0x3B, 0xED, 0x8D, 0xF5, 0x54, 0x16, 0x2B, 0x0A, 0xDE, 0xFC, 0x93, 0xF5, 0x75, 0xF0,
         0xD2, 0x0D, 0x5C, 0x15, 0x6E, 0xF3, 0x11, 0xF1, 0xC9, 0xFF, 0x9B, 0x09, 0x1B, 0x08, 0xF5, 0xF1,
         0xF5, 0xFD, 0x66, 0x0A, 0x10, 0xFD, 0x9E, 0x0B, 0x88, 0x00, 0x91, 0xDF, 0x85, 0x05, 0x40, 0x1B,
         0x94, 0xF3, 0xE7, 0x00, 0xF0, 0x10, 0xE3, 0xE7, 0xDB, 0xF4, 0x8F, 0x16, 0x97, 0xFA, 0xD2, 0xF7,
         0x1E, 0x0C, 0x71, 0xFF, 0x7C, 0x00, 0x57, 0x03, 0x0D, 0xF7, 0x5A, 0x01, 0x66, 0xFD, 0xDE, 0xF2,
         0x91, 0x10, 0x81, 0x09, 0x2E, 0xF4, 0xBD, 0x08, 0xB8, 0x01, 0x43, 0xF1, 0x09, 0xF9, 0xB8, 0x05,
         0xFD, 0x17, 0x5B, 0x01, 0x03, 0xD9, 0x30, 0x01, 0xD8, 0x23, 0xF6, 0xF6, 0xCC, 0xF0, 0xBD, 0x0C,
         0x72, 0x01, 0xC6, 0xF8, 0xBD, 0xFE, 0xE9, 0xFE, 0x86, 0x04, 0x81, 0xFE, 0xE2, 0xF8, 0xE1, 0x08,
         0xCB, 0x04, 0x86, 0xF8, 0xFE, 0x02, 0xD4, 0x02, 0xC9, 0xF8, 0x35, 0xFF, 0xE9, 0x05, 0xAE, 0x01,
         0x25, 0xF8, 0xA5, 0xFC, 0xA6, 0x0E, 0xBC, 0xFA, 0xF6, 0xED, 0x11, 0x10, 0xE7, 0x0C, 0x63, 0xF0,
         0x27, 0xFF, 0xB3, 0x0C, 0x3E, 0xFE, 0x80, 0xF9, 0x1E, 0xF3, 0xFE, 0xF0, 0xB3, 0x16, 0xAD, 0x21,
         0xFC, 0xEC, 0xB0, 0xE3, 0xF8, 0x12, 0x7F, 0x08, 0x19, 0xED, 0x96, 0x05, 0x70, 0x09, 0x98, 0xFD,
         0x98, 0xFB, 0x6E, 0xF2, 0xDE, 0x07, 0x18, 0x13, 0xEC, 0xF9, 0x9A, 0xF9, 0x03, 0xFF, 0x3F, 0xF7,
         0x50, 0x08, 0x3E, 0x0C, 0x4E, 0xF3, 0x77, 0xF7, 0x3A, 0x0D, 0xF5, 0x0B, 0x11, 0xEE, 0x73, 0xF0,
         0xC9, 0x15, 0x08, 0xFF, 0xED, 0xF1, 0xD6, 0x17, 0x25, 0x02, 0xDF, 0xE4, 0xFA, 0x0A, 0x83, 0x0B,
         0xB2, 0xEE, 0x3D, 0x06, 0xAE, 0x09, 0xCE, 0xED, 0x92, 0xFD, 0xF1, 0x13, 0xDF, 0x01, 0x1A, 0xF2,
         0x7C, 0xFF, 0x05, 0x0A, 0xDB, 0x00, 0x3A, 0xF8, 0x2D, 0x00, 0x97, 0x01, 0x56, 0xF8, 0x56, 0xFE,
         0x79, 0x0A, 0xD8, 0x05, 0xA3, 0x01, 0x26, 0xFA, 0x2F, 0xFA, 0x9E, 0x04, 0x5E, 0xF6, 0xEB, 0xFD,
         0xB8, 0x11, 0xB9, 0xFA, 0xD3, 0xF5, 0xB8, 0x09, 0x40, 0x03, 0x15, 0xFA, 0x86, 0x00, 0xD0, 0xFE,
         0xC6, 0x01, 0x21, 0x03, 0xC1, 0xFD, 0xC0, 0xFE, 0x87, 0xFC, 0x10, 0xFB, 0x28, 0xFD, 0x85, 0x0C,
         0xBC, 0x0F, 0x45, 0xF1, 0x04, 0xF6, 0xA7, 0x0C, 0x4B, 0xFE, 0x8D, 0xF5, 0x0A, 0x04, 0xDB, 0x05,
         0x2C, 0xF9, 0xEC, 0xFD, 0x37, 0x0E, 0xEE, 0xFD, 0x37, 0xEF, 0x2C, 0x06, 0x09, 0x0A, 0x20, 0xFB,
         0x71, 0x00, 0xA7, 0xFA, 0x42, 0x04, 0x92, 0x10, 0x4E, 0xEE, 0x39, 0xED, 0x03, 0x11, 0xEB, 0x07,
         0xF0, 0xF8, 0xF7, 0xFE, 0xC4, 0x02, 0xAA, 0x05, 0x66, 0x07, 0x46, 0xEF, 0xA7, 0xF1, 0x3C, 0x1F,
         0xA7, 0xFC, 0x32, 0xD2, 0x35, 0x1E, 0x36, 0x26, 0x6C, 0xE4, 0x33, 0x07, 0xAC, 0xFA, 0xDD, 0xC5,
         0xAC, 0x27, 0xF1, 0x2D, 0x51, 0xC4, 0x59, 0x00, 0x33, 0x52, 0x12, 0xFD, 0xED, 0xA6, 0xAE, 0xEE,
         0x5F, 0x50, 0x43, 0xEF, 0x92, 0xAA, 0x5E, 0x41, 0x8E, 0x59, 0x68, 0xC8, 0xDD, 0xCF, 0xF4, 0x0A,
         0x55, 0xEC, 0x25, 0x1A, 0x97, 0x1A, 0xFD, 0xD5, 0xF0, 0x14, 0xE9, 0x3D, 0x27, 0xD4, 0xCB, 0xC0,
         0x01, 0x04, 0x96, 0x12, 0xE1, 0x22, 0x65, 0x20, 0xBA, 0xDC, 0xBC, 0xE5, 0xEB, 0x1A, 0xCE, 0x03,
         0xCF, 0xD8, 0x6D, 0xEF, 0xA9, 0x24, 0xA0, 0x20, 0x44, 0xFC, 0xFC, 0xE9, 0x20, 0xED, 0x69, 0x16,
         0x94, 0x0F, 0x14, 0xD9, 0x1B, 0xF9, 0x8E, 0x1F, 0xC4, 0xFA, 0x4E, 0xFB, 0xA6, 0xFF, 0x40, 0xF8,
         0x55, 0x17, 0xD6, 0x01, 0x33, 0xFA, 0x4F, 0x0E, 0x73, 0xDD, 0x6E, 0xEA, 0x26, 0x17, 0xC1, 0xFD,
         0x4A, 0x10, 0x8D, 0x19, 0xDE, 0xE6, 0xDF, 0xF7, 0x37, 0x08, 0x4B, 0xF0, 0x66, 0x06, 0xD8, 0x05,
         0x69, 0xF8, 0xE2, 0x10, 0xC9, 0xFE, 0x32, 0xEF, 0xCF, 0x0F, 0xFB, 0xF7, 0x2E, 0xE6, 0x41, 0x1E,
         0x9E, 0x0D, 0x12, 0xD1, 0x5D, 0x0C, 0x1E, 0x36, 0x18, 0xEA, 0xE5, 0xE8, 0x9C, 0x12, 0x11, 0xE9,
         0xD7, 0xF6, 0x8A, 0x1E, 0x73, 0xED, 0x4B, 0xF0, 0x1C, 0x2B, 0x81, 0xFD, 0x0B, 0xE2, 0x78, 0x20,
         0xA0, 0xFC, 0x53, 0xCA, 0x35, 0x1E, 0x87, 0x1D, 0xA4, 0xE0, 0x04, 0x2E, 0xD1, 0xFF, 0xA5, 0x87,
         0x69, 0x29, 0x6B, 0x62, 0x21, 0xB3, 0x8C, 0xEC, 0xE4, 0x7B, 0x6D, 0xFA, 0x00, 0x80, 0xC7, 0xF9,
         0x92, 0x76, 0x7E, 0xD6, 0xAF, 0x95, 0xEF, 0x4F, 0xB2, 0x57, 0xB8, 0xAB, 0x84, 0xB6, 0x53, 0x12,
         0xBA, 0xD5, 0xCB, 0x24, 0x44, 0x42, 0x1E, 0xC3, 0xC8, 0x0C, 0xAC, 0x5B, 0x06, 0xBE, 0x38, 0xA7,
         0x1A, 0x0C, 0x3D, 0x0D, 0xE5, 0x37, 0xCB, 0x47, 0x8C, 0xB3, 0x02, 0xC2, 0x22, 0x48, 0x28, 0x11,
         0x1B, 0xB2, 0x5D, 0xE0, 0xD4, 0x34, 0x95, 0x48, 0x74, 0x0A, 0x2B, 0xBA, 0xB7, 0xD4, 0x94, 0x38,
         0xBF, 0x22, 0x78, 0xC5, 0x47, 0xE1, 0xBC, 0x2C, 0x1D, 0x13, 0x2A, 0xEE, 0xD8, 0xE6, 0xC7, 0x06,
         0xD1, 0x32, 0x8E, 0xF8, 0x24, 0xF1, 0x88, 0x19, 0xE2, 0xCD, 0xC4, 0xDE, 0x6F, 0x2B, 0x5B, 0xED,
         0x20, 0x01, 0x70, 0x48, 0x6F, 0xE7, 0x91, 0xD3, 0x93, 0x0F, 0x90, 0xF8, 0x5C, 0x08, 0x0C, 0x07,
         0xF0, 0xF4, 0x12, 0x1F, 0x1F, 0xEE, 0xAA, 0xD6, 0x08, 0x36, 0x7F, 0xFA, 0x63, 0xC2, 0x68, 0x38,
         0x4E, 0x13, 0xED, 0xB6, 0xEF, 0x16, 0x87, 0x3B, 0xB1, 0xE2, 0x3F, 0xFC, 0x54, 0x22, 0x54, 0xD3,
         0xF3, 0xE6, 0x29, 0x2C, 0x0A, 0xE2, 0xD4, 0xD4, 0x50, 0x36, 0x94, 0x2B, 0x45, 0xEF, 0x98, 0xF4,
         0x38, 0xF8, 0x4F, 0xF7, 0xDD, 0x07, 0x54, 0xEB, 0x77, 0xEF, 0x8E, 0x4C, 0xE8, 0x15, 0xB8, 0x89,
         0x68, 0xF4, 0xF9, 0x68, 0x27, 0xE9, 0x12, 0xCC, 0x64, 0x4D, 0xB4, 0x0C, 0x5C, 0x97, 0xBF, 0x0D,
         0xD1, 0x58, 0x1E, 0xC7, 0x56, 0xBC, 0x8B, 0x55, 0xA7, 0x2F, 0x68, 0xC7, 0xE0, 0x05, 0x34, 0x05,
         0x78, 0xB1, 0x02, 0x16, 0xE7, 0x58, 0x09, 0xE0, 0x57, 0xD5, 0xC6, 0x29, 0xE4, 0x07, 0x10, 0xE6,
         0x72, 0xFA, 0xCA, 0xFB, 0xE8, 0x17, 0xA8, 0x24, 0x3E, 0xC2, 0x6E, 0xC2, 0xD1, 0x49, 0xA4, 0x2F,
         0x6F, 0xCC, 0xED, 0xEC, 0x55, 0x14, 0xBF, 0x28, 0xAF, 0x1E, 0x91, 0xB6, 0x94, 0xB4, 0x16, 0x3D,
         0x41, 0x3A, 0x64, 0xDC, 0xE3, 0xE6, 0xF3, 0x23, 0x9B, 0x1D, 0x1B, 0xD9, 0x99, 0xCE, 0x46, 0x0F,
         0x9F, 0x32, 0x13, 0x0C, 0x14, 0xE5, 0xA9, 0xF9, 0x30, 0xFF, 0xED, 0xFB, 0x18, 0x0C, 0x1A, 0xF0,
         0x31, 0xEF, 0xEA, 0x2D, 0x03, 0x0D, 0xB9, 0xCB, 0x3A, 0xFB, 0x37, 0x20, 0x37, 0x0A, 0xA9, 0xEF,
         0x6A, 0xEB, 0x4B, 0x20, 0x68, 0x04, 0x90, 0xD9, 0x61, 0x1C, 0x59, 0x06, 0x36, 0xE5, 0x60, 0x15,
         0x14, 0xF4, 0x20, 0xE8, 0x46, 0x1D, 0xD3, 0x07, 0x4B, 0xE6, 0x58, 0x11, 0xC2, 0x21, 0xB0, 0xEE,
         0x18, 0xE4, 0xE4, 0x0C, 0xA8, 0xFB, 0xC5, 0xDF, 0x0D, 0x10, 0xAB, 0x1C, 0x00, 0xFB, 0xAB, 0x01,
         0xF4, 0x01, 0x13, 0xFD, 0xF3, 0x02, 0xFC, 0xEB, 0x26, 0xF1, 0x2A, 0x28, 0x7E, 0x0D, 0x72, 0xC7,
         0x4E, 0xFB, 0xA2, 0x35, 0xE6, 0xF6, 0x74, 0xE9, 0x01, 0x21, 0x62, 0xFB, 0x4F, 0xD7, 0x47, 0x13,
         0xDB, 0x11, 0x0F, 0xDC, 0xF2, 0xFC, 0x5B, 0x23, 0x13, 0x02, 0x10, 0xF7, 0x2D, 0x18, 0x61, 0xF7,
         0x43, 0xC5, 0x56, 0x0B, 0x22, 0x3A, 0xF1, 0xEA, 0xE9, 0xD7, 0xC1, 0x15, 0x6C, 0x15, 0x03, 0x04,
         0x4B, 0xFD, 0xC4, 0xF3, 0xC8, 0x06, 0x8A, 0xF9, 0x50, 0xEA, 0x40, 0xFA, 0x6C, 0x11, 0x0D, 0x1F,
         0x8B, 0xEF, 0x94, 0xF3, 0x17, 0x0A, 0x23, 0xFB, 0xF2, 0x24, 0xE5, 0xED, 0xC1, 0xBC, 0x46, 0x1F,
         0xAC, 0x20, 0x91, 0xEB, 0xB8, 0xF9, 0xFC, 0x19, 0xFC, 0x18, 0xD0, 0xD9, 0x55, 0xDE, 0xE5, 0x17,
         0x2A, 0x0E, 0xDE, 0xFF, 0x37, 0xFE, 0x48, 0xFA, 0x40, 0x08, 0x17, 0x03, 0x51, 0xF8, 0x50, 0xFD,
         0x50, 0xEF, 0x18, 0x07, 0x4D, 0x21, 0x8A, 0xEC, 0xA7, 0xEC, 0x8A, 0x1C, 0xE4, 0x04, 0xA0, 0xE3,
         0xBD, 0xF1, 0x89, 0x1E, 0x38, 0x16, 0xB7, 0xE2, 0x67, 0xF3, 0x2D, 0x14, 0x03, 0x09, 0xA8, 0xF1,
         0x95, 0xED, 0xEF, 0x0F, 0x83, 0x13, 0x5B, 0xE9, 0x1F, 0xEF, 0x7C, 0x13, 0x03, 0x12, 0x9D, 0xFF,
         0x8C, 0xF0, 0xB4, 0xFC, 0xFA, 0x0F, 0x45, 0xF7, 0x47, 0xF1, 0x4E, 0x04, 0x32, 0xFB, 0xE8, 0x07,
         0xA1, 0x0D, 0xFB, 0xF6, 0xF5, 0x09, 0xED, 0x02, 0x91, 0xEC, 0x2A, 0x02, 0x1F, 0xFB, 0xFD, 0x03,
         0x4D, 0x09, 0x78, 0xF1, 0xB9, 0x07, 0xE2, 0x0F, 0xBD, 0xFF, 0xAC, 0xF3, 0x35, 0xFA, 0x64, 0x0C,
         0x32, 0xEE, 0x13, 0xF6, 0xD2, 0x16, 0xB9, 0xFA, 0xBD, 0xFC, 0x93, 0x12, 0xB4, 0x04, 0x9F, 0xF1,
         0x54, 0xF1, 0xE9, 0x0B, 0x11, 0x0A, 0x5A, 0xEE, 0x89, 0xF8, 0xC0, 0x0A, 0xCD, 0x02, 0xED, 0x06,
         0xCC, 0xFF, 0x1E, 0xFA, 0x64, 0x0A, 0xEB, 0xEB, 0x98, 0x03, 0x67, 0x1D, 0xFE, 0xE0, 0xA6, 0xFB,
         0xE2, 0x0C, 0x5E, 0xF9, 0xAB, 0x08, 0x63, 0xF0, 0x87, 0x0D, 0xE8, 0x19, 0x9D, 0xEC, 0x27, 0xF8,
         0xCD, 0xFA, 0xDF, 0xF8, 0x0E, 0x06, 0xC4, 0x09, 0xC9, 0x05, 0x09, 0xF2, 0x84, 0xFD, 0xE3, 0x0E,
         0xA3, 0xF8, 0xAC, 0xFA, 0x8F, 0x0F, 0x54, 0xFE, 0xC9, 0xF6, 0xFB, 0x01, 0x2F, 0xFB, 0x3B, 0xFD,
         0xFB, 0xFB, 0x0D, 0xFF, 0xBF, 0x14, 0x5E, 0x03, 0x80, 0xF1, 0xBD, 0x0A, 0xAA, 0xFD, 0x02, 0xE8,
         0xD5, 0x02, 0x06, 0x14, 0x0B, 0x0F, 0xD2, 0xF1, 0x5A, 0xE8, 0x24, 0x0B, 0xB1, 0x06, 0x78, 0xF9,
         0x16, 0x06, 0xFA, 0x06, 0x40, 0x01, 0x51, 0xF8, 0xA8, 0xFB, 0xF9, 0x05, 0x92, 0xFD, 0x55, 0xF6,
         0xD0, 0xFF, 0x67, 0x09, 0x1D, 0x0B, 0xBC, 0xFF, 0xC5, 0xF4, 0xD1, 0x00, 0x0F, 0xFB, 0x7A, 0xFC,
         0xAF, 0x09, 0x06, 0xF6, 0x58, 0x0A, 0xB7, 0x0C, 0x60, 0xF1, 0x32, 0xFD, 0x68, 0xFA, 0x72, 0x15,
         0xA0, 0xFE, 0x19, 0xD8, 0x1E, 0x19, 0x52, 0x0F, 0xAE, 0xF1, 0xE3, 0x06, 0x14, 0xFB, 0xAF, 0xFF,
         0x5A, 0xFC, 0x56, 0x00, 0x4C, 0x0B, 0x39, 0xF6, 0xAE, 0xFC, 0xE1, 0x0A, 0x75, 0xFF, 0x23, 0xF4,
         0x4C, 0x01, 0x95, 0x0E, 0x94, 0xFA, 0x23, 0xFB, 0x46, 0x04, 0x92, 0xF4, 0x03, 0x02, 0x18, 0x09,
         0x01, 0xF6, 0x02, 0x07, 0x13, 0x0C, 0x69, 0xF8, 0x60, 0x05, 0x75, 0x04, 0xD6, 0xE5, 0xB3, 0xF0,
         0x5E, 0x17, 0x30, 0x09, 0x3C, 0xFA, 0x70, 0x06, 0xC2, 0xF5, 0x6B, 0x08, 0x3C, 0x12, 0x8F, 0xE7,
         0x63, 0xF3, 0x2E, 0x10, 0x40, 0x07, 0x16, 0xF6, 0x57, 0xF2, 0x76, 0x08, 0xB8, 0x09, 0xC7, 0xF3,
         0x10, 0x06, 0x7D, 0x19, 0xD5, 0xF8, 0x9B, 0xE6, 0x52, 0x00, 0x6E, 0x0F, 0x30, 0xFE, 0xBF, 0xF1,
         0x0A, 0x02, 0x8E, 0x0B, 0x76, 0x03, 0xC1, 0xF3, 0x59, 0xFB, 0x9A, 0x14, 0xBC, 0xF9, 0x55, 0xF0,
         0x8D, 0x0F, 0x3A, 0x04, 0x3A, 0xFB, 0x00, 0x02, 0x70, 0xFD, 0xA5, 0xF1, 0xA6, 0xF2, 0x44, 0x13,
         0x5C, 0x14, 0xA7, 0xF6, 0xC3, 0xF6, 0x40, 0x05, 0x95, 0x09, 0x5E, 0xFE, 0x63, 0xF0, 0x71, 0xF5,
         0x8E, 0x06, 0xA3, 0x0E, 0x2C, 0x03, 0x76, 0xF9, 0x08, 0xFE, 0xC6, 0xFB, 0x35, 0x02, 0x21, 0x0C,
         0xAA, 0xF9, 0xD9, 0xF4, 0xA5, 0x02, 0x01, 0x06, 0x82, 0xFF, 0xD9, 0xF6, 0x01, 0x0D, 0x3C, 0x0D,
         0xD4, 0xEF, 0x31, 0xFC, 0xFE, 0x00, 0xE9, 0xF6, 0x52, 0x01, 0x1A, 0x0A, 0x63, 0x06, 0xAC, 0xF8,
         0xA3, 0xFE, 0xC3, 0x05, 0x56, 0xFB, 0xA9, 0x01, 0x3B, 0x02, 0x2B, 0xFA, 0xA4, 0x02, 0x7A, 0x00,
         0xC9, 0xF6, 0x9A, 0xFF, 0x3A, 0x0D, 0xA1, 0x07, 0xB5, 0xF6, 0x24, 0xF9, 0xB9, 0x00, 0xB5, 0xF8,
         0x04, 0xFF, 0x56, 0x10, 0x39, 0x08, 0x4F, 0xFD, 0x07, 0x02, 0x67, 0xF6, 0x28, 0xEF, 0xAF, 0xFD,
         0x33, 0x04, 0x27, 0x0C, 0xE9, 0x05, 0x13, 0xF9, 0x26, 0x08, 0x22, 0x08, 0xD3, 0xF6, 0x26, 0xEF,
         0x44, 0xFF, 0x62, 0x13, 0xFC, 0xFB, 0x8F, 0xEF, 0xBE, 0x04, 0x96, 0x0B, 0xAE, 0xFD, 0x78, 0xF9,
         0xC6, 0x10, 0x4E, 0x04, 0x05, 0xE5, 0x2D, 0xFB, 0x73, 0x11, 0x19, 0x02, 0xD4, 0xF7, 0xF2, 0x05,
         0xA2, 0x07, 0xEB, 0xF7, 0xB6, 0xF9, 0x33, 0x02, 0xDF, 0x02, 0x7B, 0xFB, 0x39, 0xFC, 0x3F, 0x07,
         0x04, 0x05, 0x8C, 0x04, 0xEE, 0x01, 0xC6, 0xF9, 0x14, 0xF9, 0x22, 0xF6, 0xC1, 0x00, 0x9C, 0x0B,
         0x8A, 0x00, 0x32, 0xFE, 0x50, 0x05, 0x69, 0x03, 0x84, 0xFF, 0xA6, 0xFB, 0xB6, 0xF7, 0x75, 0xFA,
         0x8B, 0x06, 0x2E, 0x0A, 0x6A, 0xFE, 0x6E, 0xFC, 0xAA, 0xFF, 0x4F, 0xFC, 0xB4, 0x02, 0x65, 0x05,
         0x2F, 0xFA, 0xFF, 0xFB, 0xE8, 0x05, 0xBB, 0x00, 0x15, 0xFC, 0x1F, 0x03, 0x58, 0x05, 0x04, 0xFE,
         0x7C, 0xFB, 0xC8, 0xFF, 0xD2, 0xFA, 0x10, 0xFC, 0x08, 0x09, 0xF0, 0x03, 0x44, 0xFF, 0xAC, 0x04,
         0x1F, 0xFD, 0xF4, 0xF7, 0xA2, 0xFD, 0x21, 0x01, 0xC7, 0x02, 0x16, 0x09, 0x42, 0x04, 0xDD, 0xF2,
         0x51, 0xF9, 0xA4, 0x09, 0x33, 0x03, 0x57, 0xF8, 0xF7, 0xFA, 0xCC, 0x04, 0x56, 0x05, 0x61, 0xFE,
         0xA9, 0x02, 0x34, 0x06, 0x2C, 0xFD, 0x0E, 0xFB, 0xF9, 0xFD, 0x96, 0xFB, 0x2A, 0xFD, 0x6B, 0x02,
         0x25, 0x04, 0xDA, 0xFF, 0x68, 0x02, 0xDF, 0x06, 0x56, 0xFF, 0xCF, 0xFB, 0x5F, 0xF9, 0x15, 0xFE,
         0x63, 0x08, 0xEF, 0xFD, 0xE9, 0xF8, 0x66, 0x02, 0x75, 0x07, 0x1E, 0x01, 0xAE, 0xF7, 0x02, 0x05,
         0x75, 0x06, 0xAE, 0xF4, 0xFE, 0xFC, 0xFA, 0x07, 0x04, 0x00, 0x10, 0xFB, 0xE3, 0x02, 0x86, 0x04,
         0xE2, 0xFB, 0x14, 0x00, 0x6F, 0x02, 0xB4, 0xFC, 0xAD, 0xFF, 0x8C, 0xFE, 0x37, 0xFE, 0x24, 0x06,
         0xB0, 0x03, 0xAA, 0xFA, 0x05, 0xFE, 0x63, 0x05, 0x9A, 0xFC, 0xAE, 0xF6, 0x23, 0x05, 0x10, 0x0B,
         0xAA, 0xFF, 0x82, 0xF8, 0x07, 0xFD, 0xAA, 0x03, 0xA5, 0x01, 0x7B, 0xFC, 0x80, 0xFB, 0xFB, 0x01,
         0x0A, 0x0A, 0xBC, 0x04, 0xDB, 0xFB, 0x4C, 0xF8, 0x24, 0xF8, 0x72, 0x00, 0x98, 0x06, 0xF0, 0x02,
         0x51, 0x01, 0x4B, 0x03, 0x1F, 0x01, 0x5A, 0xFD, 0x19, 0xFB, 0xFE, 0xFC, 0x3D, 0x01, 0x02, 0x00,
         0xFB, 0xFF, 0x9E, 0x00, 0xB1, 0x00, 0x5C, 0x03, 0x96, 0x00, 0x7C, 0x02, 0x10, 0x04, 0xEC, 0xF9,
         0x4D, 0xF6, 0x45, 0xFC, 0x5B, 0x03, 0xAD, 0x04, 0x19, 0x06, 0xC6, 0x08, 0xC6, 0xFB, 0xAD, 0xF4,
         0xFD, 0xFE, 0xFF, 0x01, 0x66, 0xFD, 0xCC, 0xFB, 0x71, 0x04, 0x1E, 0x0D, 0x79, 0x02, 0x7A, 0xF6,
         0xA2, 0xFC, 0x5F, 0x01, 0x9E, 0xFC, 0x9A, 0xFE, 0x4B, 0x04, 0x5C, 0x04, 0xF8, 0xFF, 0xEC, 0xFA,
         0xD3, 0xFB, 0xDB, 0x02, 0x08, 0x06, 0xC4, 0xFE, 0xDE, 0xFC, 0xCD, 0x04, 0x62, 0x01, 0xE9, 0xF8,
         0x45, 0xFC, 0x33, 0x02, 0xCF, 0x02, 0x7D, 0x01, 0x8A, 0x00, 0x1D, 0xFF, 0x0E, 0xFF, 0x0E, 0x01,
         0x3B, 0x01, 0x5A, 0x00, 0xC1, 0xFF, 0x69, 0xFD, 0x9E, 0xFB, 0x25, 0xFE, 0x4F, 0x03, 0xEC, 0x05,
         0x1A, 0x01, 0x44, 0xFD, 0x1B, 0x03, 0x7F, 0x02, 0xEB, 0xF8, 0x7E, 0xFC, 0xE6, 0x04, 0xA8, 0xFE,
         0x1D, 0xF9, 0x71, 0x01, 0x6F, 0x07, 0xA0, 0x00, 0x66, 0xFB, 0x10, 0x04, 0x4E, 0x0B, 0x11, 0xFE,
         0x21, 0xF0, 0xF5, 0xF9, 0x24, 0x06, 0x4C, 0x02, 0xD1, 0xFF, 0xCF, 0x01, 0xCF, 0x00, 0x2E, 0x05,
         0x75, 0x07, 0x9B, 0xFA, 0xC5, 0xF1, 0x82, 0xFC, 0xE6, 0x04, 0x19, 0x01, 0x82, 0x01, 0xD9, 0x05,
         0xAE, 0x05, 0xC7, 0x00, 0x04, 0xFA, 0x4E, 0xFA, 0xE9, 0x00, 0xFF, 0xFF, 0x1B, 0xF9, 0x82, 0xFC,
         0xB4, 0x07, 0x09, 0x09, 0xDF, 0x01, 0x94, 0xFE, 0x9A, 0xFF, 0xCC, 0xFE, 0x58, 0xFB, 0xFC, 0xFB,
         0x9C, 0x01, 0xC3, 0x01, 0x43, 0xFD, 0x2F, 0x00, 0xA2, 0x05, 0x2C, 0x02, 0x65, 0xFB, 0x1D, 0xFD,
         0x22, 0x07, 0xF1, 0x05, 0x9D, 0xF6, 0xA0, 0xF7, 0x4F, 0x08, 0xA0, 0x05, 0x49, 0xF7, 0x5E, 0xFB,
         0xAD, 0x05, 0x70, 0x04, 0x00, 0x01, 0xC6, 0xFE, 0x00, 0xFD, 0xA8, 0x00, 0xBD, 0x01, 0xC2, 0xFD,
         0xA8, 0xFD, 0x2F, 0xFF, 0x9C, 0x00, 0xCB, 0x04, 0xE6, 0x03, 0xA3, 0xFD, 0xF6, 0xFB, 0xE2, 0xFD,
         0x1F, 0x00, 0x03, 0x02, 0x6D, 0x00, 0x3E, 0x00, 0x9D, 0x02, 0x44, 0xFF, 0x7A, 0xFC, 0x23, 0x01,
         0xBE, 0x00, 0xAA, 0xFC, 0x09, 0x01, 0xD1, 0x02, 0xD0, 0xFD, 0x51, 0x01, 0x0B, 0x06, 0xCD, 0xFE,
         0x1A, 0xFA, 0x09, 0xFE, 0xCC, 0xFD, 0xDE, 0xFE, 0xD3, 0x06, 0x9B, 0x05, 0xD1, 0xFB, 0x99, 0xFC,
         0x7D, 0x03, 0x95, 0x01, 0x8D, 0xFB, 0x79, 0xFB, 0x6C, 0x01, 0x91, 0x06, 0x38, 0x02, 0x65, 0xF8,
         0x52, 0xF9, 0x4C, 0x06, 0x3F, 0x0B, 0x53, 0x00, 0x9F, 0xF7, 0xD3, 0xFD, 0x5D, 0x04, 0xB4, 0xFE,
         0x4F, 0xF9, 0x8B, 0xFC, 0x4F, 0x01, 0x07, 0x08, 0x9B, 0x0A, 0x2A, 0xFE, 0x29, 0xF6, 0xD5, 0xFF,
         0x51, 0x01, 0x2D, 0xF9, 0xEA, 0x00, 0xAF, 0x09, 0x21, 0xFF, 0x39, 0xF8, 0x1A, 0x01, 0x43, 0x06,
         0x98, 0x00, 0x0A, 0xFB, 0x03, 0xFF, 0xFC, 0x05, 0xBD, 0x00, 0xFC, 0xF7, 0x9E, 0xFC, 0x5A, 0x03,
         0x2E, 0x04, 0xF7, 0x05, 0xC3, 0x00, 0x23, 0xF8, 0x19, 0xFC, 0xA0, 0xFF, 0x86, 0xFC, 0xB0, 0x04,
         0x8B, 0x0B, 0x68, 0x01, 0x38, 0xFB, 0x42, 0xFD, 0x99, 0xFA, 0x17, 0xFC, 0xE4, 0x01, 0xA7, 0x02,
         0xF1, 0x03, 0x05, 0x01, 0x8C, 0xFB, 0x0E, 0x04, 0xF1, 0x08, 0x97, 0xFA, 0xF0, 0xF6, 0x64, 0x00,
         0x48, 0xFE, 0x2C, 0xFF, 0x90, 0x06, 0x09, 0xFF, 0x41, 0xFC, 0xF4, 0x08, 0xD9, 0x05, 0x11, 0xF8,
         0x3E, 0xF9, 0x49, 0xFF, 0x2D, 0x02, 0xEF, 0x02, 0x73, 0xFC, 0x2D, 0xFE, 0x46, 0x0A, 0x94, 0x03,
         0xBB, 0xF4, 0x27, 0xFC, 0xF4, 0x05, 0xDC, 0xFF, 0xF3, 0xFC, 0x9B, 0x02, 0xBC, 0x05, 0xBD, 0x01,
         0x59, 0xF9, 0xED, 0xF9, 0xC8, 0x03, 0xA0, 0x03, 0x2D, 0xFD, 0x59, 0xFF, 0x6A, 0x00, 0xC7, 0xFD,
         0x85, 0x03, 0x1A, 0x07, 0x0E, 0xFE, 0xCC, 0xFA, 0x11, 0x02, 0x1D, 0x00, 0x39, 0xF8, 0x00, 0xFC,
         0xF5, 0x05, 0x41, 0x06, 0x6D, 0x00, 0x82, 0x01, 0x78, 0x01, 0x30, 0xFB, 0x8A, 0xFC, 0xB1, 0x01,
         0x72, 0xFF, 0xFB, 0xFC, 0xDA, 0xFE, 0xE6, 0x02, 0xB3, 0x06, 0x42, 0x01, 0xFF, 0xF9, 0x62, 0x01,
         0xFE, 0x05, 0xEE, 0xF9, 0x6B, 0xF7, 0xC7, 0x02, 0x09, 0x04, 0x11, 0x00, 0x1E, 0x01, 0xF5, 0xFF,
         0xC9, 0x00, 0x99, 0x02, 0x89, 0xFD, 0x8E, 0xFF, 0x81, 0x05, 0x31, 0xFD, 0x35, 0xF7, 0xF5, 0xFC,
         0x14, 0xFE, 0x3D, 0x02, 0x3F, 0x0C, 0x0C, 0x07, 0xB1, 0xFC, 0xA7, 0xFE, 0xAB, 0xFC, 0x1E, 0xF8,
         0x54, 0xFD, 0x6C, 0xFF, 0x5F, 0x01, 0xC4, 0x07, 0x6C, 0x03, 0x87, 0xFD, 0x47, 0x01, 0x40, 0x00,
         0xB8, 0xFA, 0x70, 0xFF, 0x9A, 0x04, 0x8A, 0xFD, 0x8C, 0xF9, 0x2E, 0xFE, 0x41, 0x02, 0x9F, 0x07,
         0xD5, 0x08, 0xAC, 0xFF, 0xFC, 0xF8, 0x5D, 0xFB, 0x2F, 0xFE, 0xFF, 0xFD, 0x6C, 0xFD, 0xF4, 0x00,
         0xDC, 0x07, 0x8E, 0x05, 0xDB, 0xFA, 0x1D, 0xFA, 0xDD, 0x05, 0xA7, 0x07, 0xB9, 0xFA, 0xB9, 0xF9,
         0x81, 0x00, 0x77, 0xFD, 0x12, 0xFF, 0xE1, 0x03, 0xF9, 0xFE, 0xB0, 0x00, 0x99, 0x08, 0x39, 0x00,
         0x16, 0xF6, 0xAD, 0xFF, 0x48, 0x05, 0x69, 0xFD, 0xD8, 0xFD, 0x6F, 0x01, 0x50, 0x00, 0xFA, 0x00,
         0xE2, 0xFE, 0x5D, 0xFE, 0x29, 0x04, 0xC9, 0x02, 0x7A, 0xFE, 0xFD, 0x00, 0x2D, 0xFB, 0xB7, 0xF4,
         0xB4, 0x02, 0x8A, 0x0D, 0xBF, 0x02, 0x6D, 0xFB, 0x55, 0x00, 0xB8, 0x00, 0x7D, 0xFB, 0xF3, 0xFA,
         0x9B, 0x01, 0x43, 0x06, 0x75, 0x02, 0x1A, 0xFC, 0xBB, 0xFB, 0xF9, 0x01, 0xA5, 0x05, 0x9B, 0xFF,
         0xC0, 0xFA, 0x4A, 0xFF, 0x35, 0x02, 0x6C, 0x03, 0xDF, 0xFE, 0x74, 0xF9, 0xA3, 0x02, 0x9D, 0x03,
         0xDB, 0xFD, 0x85, 0x03, 0x17, 0x00, 0x6A, 0xFA, 0x87, 0x01, 0xB1, 0x00, 0xB8, 0xFD, 0xD5, 0x02,
         0x86, 0xFD, 0xCA, 0xFD, 0x4B, 0x08, 0xB3, 0x02, 0xA3, 0xFB, 0x90, 0xFD, 0xC0, 0xFC, 0x80, 0x00,
         0x50, 0x04, 0x2F, 0xFC, 0x06, 0xFC, 0xC6, 0x07, 0xCD, 0x05, 0xD7, 0xFA, 0xAF, 0xFB, 0x39, 0x02,
         0x72, 0x01, 0x34, 0xFC, 0x63, 0xFD, 0x71, 0x04, 0x18, 0x04, 0x24, 0xFF, 0x6E, 0xFD, 0xE4, 0xFC,
         0x3C, 0x01, 0x61, 0x04, 0xAF, 0xFD, 0xBD, 0xFA, 0x26, 0x03, 0xC9, 0x06, 0x9D, 0xFF, 0xBE, 0xFB,
         0x8C, 0xFC, 0x68, 0xFE, 0x0D, 0x04, 0x19, 0x02, 0x05, 0xFC, 0xD8, 0xFF, 0x64, 0x03, 0x2D, 0x02,
         0xFE, 0x01, 0x8E, 0xFE, 0x15, 0xFB, 0x97, 0xFD, 0x30, 0xFF, 0x73, 0x00, 0x00, 0x04, 0x71, 0x03,
         0x4C, 0xFF, 0x39, 0xFC, 0x5C, 0xFF, 0x3C, 0x03, 0x7B, 0x01, 0x9D, 0xFE, 0x08, 0xFB, 0x9C, 0xFF,
         0x0E, 0x06, 0x25, 0xFF, 0x6F, 0xFB, 0xCF, 0xFF, 0xEB, 0x02, 0x23, 0x04, 0x56, 0xFF, 0x1C, 0xFC,
         0xA4, 0xFF, 0xC8, 0xFE, 0xFC, 0xFF, 0xAF, 0x06, 0xC2, 0xFF, 0x30, 0xF8, 0x08, 0xFF, 0x3C, 0x02,
         0x1B, 0x00, 0x6C, 0x02, 0xED, 0x04, 0x70, 0x01, 0x21, 0xFC, 0x3B, 0xFC, 0xC9, 0xFC, 0x53, 0xFB,
         0xDB, 0x01, 0x71, 0x09, 0x4B, 0x04, 0xF0, 0xFE, 0x83, 0xFE, 0xB4, 0xFA, 0x8F, 0xFB, 0x3B, 0x02,
         0x9E, 0x03, 0x85, 0x01, 0x6C, 0xFE, 0x30, 0xFC, 0x0E, 0x01, 0x62, 0x03, 0x32, 0x01, 0x2B, 0xFF,
         0x1E, 0xFE, 0x04, 0x04, 0xE0, 0x01, 0xD0, 0xF7, 0x76, 0xFB, 0x28, 0x03, 0x19, 0x03, 0xA6, 0x00,
         0x9A, 0x01, 0xE0, 0x03, 0xF4, 0x00, 0x90, 0xFB, 0x15, 0xFA, 0x5B, 0xFE, 0x05, 0x04, 0xB6, 0x02,
         0x72, 0xFE, 0x44, 0x02, 0xD4, 0xFF, 0x8D, 0xFB, 0x5A, 0x05, 0x12, 0x01, 0x77, 0xFB, 0xA3, 0x05,
         0x09, 0xFC, 0x18, 0xF4, 0x75, 0x06, 0x74, 0x09, 0x26, 0xFC, 0xA5, 0xFF, 0x2A, 0x04, 0x74, 0xFD,
         0xDF, 0xFB, 0x8D, 0xFE, 0xC4, 0x01, 0xC3, 0x05, 0xD8, 0x01, 0xAF, 0xF7, 0xE1, 0xFA, 0x98, 0x06,
         0xAB, 0x02, 0x01, 0xFB, 0xA8, 0x02, 0x59, 0x06, 0x1A, 0xFE, 0xF9, 0xFB, 0x1C, 0xFC, 0x8D, 0xFF,
         0x3B, 0x06, 0xB4, 0x00, 0x57, 0xFD, 0xDB, 0x00, 0xCC, 0xFD, 0xA8, 0xFF, 0xBA, 0x03, 0xBC, 0xFD,
         0x4C, 0xFE, 0xBE, 0x03, 0x08, 0xFF, 0x8E, 0xFD, 0x5F, 0x00, 0x7B, 0x01, 0xD8, 0x01, 0x07, 0xFF,
         0x4F, 0xFF, 0x46, 0xFF, 0x38, 0xFE, 0x87, 0x00, 0xB8, 0x00, 0x6E, 0x01, 0x76, 0x02, 0xA7, 0xFE,
         0x8B, 0xFD, 0x2F, 0x00, 0xDE, 0xFE, 0xFF, 0xFE, 0xA4, 0x02, 0xBE, 0x01, 0x5F, 0xFF, 0x95, 0xFF,
         0xD6, 0xFF, 0x7D, 0xFF, 0x84, 0xFF, 0xB8, 0xFF, 0x31, 0x00, 0x15, 0x01, 0xE7, 0xFF, 0x91, 0xFE,
         0xCC, 0x00, 0x57, 0x01, 0xAA, 0xFE, 0x8B, 0xFF, 0x61, 0x01, 0x93, 0xFF, 0x3F, 0xFF, 0x4D, 0x00,
         0xDE, 0xFF, 0x3B, 0x00, 0x8C, 0x00, 0xAB, 0xFF, 0xC7, 0xFF, 0x13, 0x00, 0x00, 0x00
     };

__align(2)
     const U8 motion_dj_vocal_wav_7[DJ_AUD_VOX_WAVE_7_LEN] = 
     {
         0x52, 0x49, 0x46, 0x46, 0xB6, 0x12, 0x00, 0x00, 0x57, 0x41, 0x56, 0x45, 0x66, 0x6D, 0x74, 0x20,
         0x10, 0x00, 0x00, 0x00, 0x01, 0x00, 0x01, 0x00, 0x80, 0x3E, 0x00, 0x00, 0x00, 0x7D, 0x00, 0x00,
         0x02, 0x00, 0x10, 0x00, 0x64, 0x61, 0x74, 0x61, 0x92, 0x12, 0x00, 0x00, 0xFD, 0xFF, 0xF8, 0xFF,
         0x02, 0x00, 0x06, 0x00, 0xEB, 0xFF, 0x02, 0x00, 0x21, 0x00, 0xFA, 0xFF, 0xF1, 0xFF, 0x2D, 0x00,
         0x12, 0x00, 0xB1, 0xFF, 0xD3, 0xFF, 0x5D, 0x00, 0x24, 0x00, 0x7F, 0xFF, 0xE7, 0xFF, 0x70, 0x00,
         0x0E, 0x00, 0x0D, 0x00, 0x15, 0x00, 0x9D, 0xFF, 0xCD, 0xFF, 0x52, 0x00, 0x06, 0x00, 0xB5, 0xFF,
         0xA4, 0x00, 0xB9, 0xFF, 0xA7, 0xFE, 0x1A, 0x01, 0xE0, 0x00, 0x4B, 0xFF, 0x6F, 0x00, 0x10, 0x00,
         0xB2, 0xFF, 0xD0, 0xFF, 0x04, 0xFF, 0xC3, 0xFF, 0x7A, 0x00, 0xFF, 0xFF, 0x15, 0x01, 0x71, 0x01,
         0x08, 0xFF, 0xCC, 0xFE, 0x5F, 0x00, 0xCC, 0xFF, 0x20, 0xFF, 0x03, 0x01, 0xE0, 0x00, 0x43, 0xFE,
         0x65, 0x00, 0x55, 0x00, 0x3A, 0xFE, 0xAA, 0x02, 0x65, 0x01, 0xB6, 0xFC, 0xD1, 0x00, 0xF0, 0x01,
         0x40, 0xFE, 0x2C, 0xFF, 0x90, 0xFF, 0x1D, 0x01, 0x70, 0x02, 0x89, 0xFC, 0x72, 0xFE, 0x49, 0x03,
         0x8D, 0x00, 0xD5, 0xFF, 0xAE, 0xFE, 0x0D, 0x00, 0xDE, 0x00, 0xED, 0xFE, 0xD3, 0x00, 0x3E, 0xFF,
         0x8B, 0xFF, 0x5E, 0x00, 0x2D, 0xFF, 0x68, 0x03, 0x89, 0x00, 0xFC, 0xFA, 0xBC, 0x00, 0x7C, 0x02,
         0x25, 0xFE, 0x6B, 0x00, 0xB4, 0xFF, 0x98, 0xFF, 0x8C, 0x03, 0x5C, 0xFF, 0x78, 0xFE, 0xAE, 0xFF,
         0xEE, 0xFE, 0x85, 0x01, 0x7C, 0xFE, 0x74, 0xFE, 0x29, 0x03, 0x1D, 0xFF, 0xC7, 0xFF, 0x85, 0x04,
         0x9B, 0xFB, 0xCC, 0xFD, 0xB1, 0x04, 0x1F, 0xFD, 0xAD, 0x00, 0x4D, 0x00, 0xE9, 0xFF, 0x86, 0x02,
         0x61, 0xF8, 0x3D, 0x02, 0xFC, 0x06, 0xAC, 0xFB, 0x1D, 0xFF, 0xE5, 0x00, 0x4E, 0x01, 0x92, 0xFE,
         0x55, 0xFE, 0x20, 0x03, 0xF7, 0xFC, 0x56, 0x00, 0xC1, 0x04, 0x17, 0xFD, 0xA6, 0xFE, 0x2F, 0x01,
         0x8E, 0xFD, 0x72, 0xFE, 0xBC, 0x03, 0x0F, 0x03, 0x53, 0xFD, 0x2F, 0xFF, 0x70, 0x00, 0x76, 0xFF,
         0x45, 0x01, 0x3B, 0xFE, 0xE0, 0xFF, 0xE9, 0x00, 0xEC, 0xFE, 0xC5, 0x00, 0x3C, 0xFE, 0xF8, 0x03,
         0xA7, 0x02, 0xDB, 0xF7, 0x55, 0x01, 0xA6, 0x05, 0xA6, 0xFE, 0x85, 0xFD, 0xB5, 0xFB, 0x7E, 0x00,
         0x4A, 0x06, 0x8E, 0xFF, 0x6F, 0xFD, 0xF8, 0x03, 0x8F, 0x00, 0xA7, 0xFA, 0xFC, 0xFD, 0xB3, 0x03,
         0x7C, 0x01, 0x61, 0xFB, 0xB0, 0x01, 0x13, 0x05, 0x7B, 0xFD, 0x70, 0xFC, 0xED, 0xFE, 0x63, 0x01,
         0x6A, 0x01, 0xED, 0x03, 0x93, 0x05, 0x6C, 0xFB, 0x75, 0xFA, 0xCC, 0xFC, 0x5F, 0xFA, 0x93, 0x06,
         0x4A, 0x08, 0x7E, 0xF8, 0xA2, 0xFE, 0x6B, 0x09, 0x2B, 0x00, 0x06, 0xFD, 0x43, 0xFD, 0xBF, 0xFE,
         0xA5, 0x03, 0xC9, 0xFA, 0xEB, 0xFC, 0x61, 0x09, 0xDD, 0x00, 0x77, 0xF6, 0x13, 0xFD, 0x70, 0x04,
         0x4E, 0x04, 0x39, 0x04, 0x06, 0x04, 0x8B, 0xFE, 0xD7, 0xF8, 0x83, 0xFB, 0x86, 0x03, 0x58, 0xFD,
         0x72, 0xF7, 0x58, 0x0B, 0xFA, 0x09, 0x1E, 0xF6, 0xAF, 0xFC, 0xDD, 0xFF, 0x1B, 0x03, 0x1A, 0x0A,
         0x91, 0xFA, 0xCC, 0xF9, 0xFB, 0x07, 0xF4, 0xF9, 0xE9, 0xF8, 0x7F, 0x03, 0x13, 0xFA, 0x7F, 0x07,
         0x18, 0x09, 0xAB, 0xFA, 0xDA, 0x09, 0x8F, 0xFD, 0x95, 0xEC, 0xA2, 0x0A, 0xC1, 0x03, 0x06, 0xE7,
         0x7F, 0x08, 0x59, 0x19, 0x6D, 0xFF, 0x44, 0xFC, 0x59, 0xF9, 0xE6, 0xF5, 0xE1, 0x01, 0x0E, 0x04,
         0x95, 0xFC, 0x46, 0x0C, 0xBD, 0x0C, 0x17, 0xE0, 0x59, 0x00, 0x49, 0x1F, 0xEC, 0xE2, 0xBB, 0xF4,
         0x63, 0x13, 0xC5, 0x07, 0x7E, 0x15, 0x81, 0xF2, 0x7D, 0xE3, 0xCE, 0x07, 0x2C, 0x05, 0x7C, 0xF6,
         0xDC, 0x02, 0xC7, 0x0E, 0xB0, 0x00, 0xA9, 0xFE, 0x9A, 0xFB, 0xDD, 0xEC, 0x04, 0x12, 0xE0, 0x1D,
         0x72, 0xDE, 0xDD, 0xE4, 0x23, 0x1F, 0x6C, 0x08, 0x95, 0xF1, 0xD9, 0x0E, 0xF3, 0x04, 0xB9, 0xEE,
         0x87, 0xF9, 0xDD, 0xFB, 0x30, 0x06, 0xAF, 0x0F, 0x1B, 0xF9, 0xF5, 0xFD, 0x19, 0x07, 0x99, 0xF9,
         0x51, 0x06, 0x62, 0xFD, 0x48, 0xEB, 0xA9, 0x08, 0x1F, 0x0F, 0x0B, 0xF6, 0x1F, 0x00, 0x35, 0x08,
         0x7C, 0x01, 0x37, 0xFD, 0xF0, 0xF5, 0x3C, 0x04, 0xC2, 0xF6, 0x5B, 0x02, 0xBB, 0x1F, 0xAA, 0xE6,
         0x8D, 0xF1, 0x70, 0x1E, 0x47, 0xF7, 0xCA, 0xEF, 0x4C, 0x06, 0xED, 0x0C, 0xC1, 0xF7, 0x40, 0xF4,
         0x6B, 0x13, 0xB6, 0xFC, 0x3D, 0xF1, 0x5B, 0x17, 0x3F, 0xF7, 0x9E, 0xE5, 0xE9, 0x21, 0x70, 0xFB,
         0x8F, 0xE2, 0x23, 0x1E, 0x45, 0x01, 0xC3, 0xF2, 0xB4, 0x02, 0xDE, 0xFF, 0x59, 0x0A, 0x07, 0xF0,
         0x18, 0xFA, 0x7D, 0x14, 0xAA, 0xF9, 0xD2, 0xFD, 0xAC, 0x0A, 0x70, 0xF2, 0x8E, 0xFE, 0x39, 0x0B,
         0x41, 0xF9, 0x80, 0x02, 0x7A, 0xF5, 0xBD, 0xFD, 0xDB, 0x10, 0x50, 0xF5, 0xA5, 0x07, 0xA5, 0x0A,
         0x2A, 0xFC, 0x5C, 0xF2, 0x9C, 0xE9, 0xDF, 0x29, 0x94, 0x07, 0xB1, 0xC3, 0x6B, 0x1A, 0x40, 0x32,
         0xDC, 0xD9, 0xF3, 0xD9, 0x9F, 0x27, 0xAF, 0x1F, 0xA0, 0xC9, 0xEF, 0xE8, 0x80, 0x51, 0x36, 0xFF,
         0x34, 0xA4, 0xC7, 0x31, 0x6C, 0x4D, 0x60, 0xA7, 0x22, 0xD4, 0x1B, 0x49, 0x72, 0xFE, 0x37, 0xE2,
         0xB0, 0xFB, 0xB8, 0x14, 0x97, 0x34, 0xD7, 0xD7, 0x2A, 0xD7, 0x27, 0x24, 0x3D, 0xFD, 0xF1, 0xF3,
         0x4B, 0x08, 0x89, 0x03, 0xBD, 0xE8, 0x83, 0xF4, 0x79, 0x3A, 0xCE, 0x0A, 0x39, 0xB8, 0x7E, 0x0F,
         0x57, 0x43, 0x4D, 0xD9, 0x59, 0xCA, 0x92, 0x19, 0xC5, 0x20, 0x4B, 0x03, 0xC2, 0xEA, 0xAF, 0xED,
         0x3F, 0x13, 0xEE, 0x07, 0x2B, 0xF7, 0xC6, 0x11, 0x38, 0xF1, 0xFB, 0xF0, 0xC1, 0x19, 0xD3, 0xF8,
         0xA3, 0xEA, 0xB3, 0x00, 0xBB, 0x29, 0x4B, 0xF3, 0xA2, 0xBE, 0x71, 0x47, 0x0D, 0x25, 0x54, 0xA9,
         0xCB, 0x07, 0x0A, 0x25, 0xBB, 0xEE, 0xF3, 0x01, 0x26, 0x01, 0xCE, 0xF8, 0xEB, 0x13, 0x15, 0x03,
         0x90, 0xE4, 0x89, 0xF7, 0xF6, 0x17, 0x4C, 0x09, 0xE7, 0xDD, 0x82, 0x10, 0x86, 0x27, 0x06, 0xE4,
         0x3F, 0xF2, 0x7E, 0xFA, 0xF0, 0xF0, 0x70, 0x21, 0xEE, 0x15, 0x7D, 0xDF, 0x6F, 0xEB, 0x4A, 0x1F,
         0xBD, 0x0C, 0xA9, 0xE7, 0xCE, 0x04, 0x29, 0xFE, 0xC4, 0xF9, 0x7A, 0x14, 0x1D, 0xF1, 0x5A, 0xEC,
         0xBA, 0x1C, 0x70, 0x15, 0xF2, 0xE0, 0xB1, 0xE7, 0x8D, 0x21, 0x59, 0x0A, 0x12, 0xE7, 0x48, 0x05,
         0xA3, 0x04, 0x07, 0xFF, 0xEF, 0x09, 0x2A, 0xEE, 0xD6, 0xF2, 0xAA, 0x1C, 0xDD, 0x05, 0x99, 0xEE,
         0xF1, 0x08, 0x36, 0xFC, 0x0F, 0xEF, 0x43, 0x11, 0xFC, 0x08, 0x74, 0xE9, 0x8D, 0x04, 0x3D, 0x14,
         0x7D, 0xF4, 0xD4, 0xF1, 0x9C, 0x11, 0x29, 0x05, 0x0B, 0xEC, 0x91, 0x0C, 0x7D, 0xFF, 0x16, 0xEA,
         0x8B, 0x1B, 0xF3, 0x04, 0x9B, 0xE5, 0x73, 0x19, 0xA8, 0x00, 0x38, 0xD3, 0xF5, 0x15, 0x51, 0x25,
         0xE6, 0xE9, 0x91, 0xEE, 0x69, 0x05, 0x6D, 0x0A, 0x5A, 0x01, 0xC3, 0xF6, 0x84, 0xFC, 0x56, 0x08,
         0xC3, 0x15, 0x30, 0xED, 0x67, 0xE6, 0x17, 0x15, 0xB1, 0xFE, 0xDC, 0xFF, 0x41, 0x0C, 0x5C, 0xEE,
         0x09, 0x05, 0xB7, 0x0D, 0xFE, 0xE8, 0x7B, 0x04, 0x24, 0x15, 0xD3, 0x01, 0x95, 0x00, 0x75, 0xD3,
         0x07, 0x29, 0xC8, 0x14, 0x4B, 0x86, 0xCC, 0x34, 0x61, 0x6C, 0x42, 0x03, 0xA8, 0x0F, 0xCF, 0x91,
         0x08, 0xF9, 0x13, 0x53, 0x06, 0x93, 0x85, 0x05, 0x57, 0x77, 0x7F, 0xBC, 0xED, 0xC0, 0xAB, 0x3D,
         0xB4, 0x0D, 0x31, 0x0E, 0x80, 0xB6, 0x21, 0xF8, 0xB8, 0x4D, 0x6E, 0xBA, 0x89, 0x20, 0xAF, 0x24,
         0x22, 0xA1, 0x7B, 0x55, 0x0B, 0x37, 0xBF, 0x88, 0x7F, 0x1C, 0x7E, 0x4A, 0x57, 0xAB, 0xE8, 0x27,
         0x99, 0x36, 0x40, 0xBF, 0x30, 0xFD, 0x85, 0x29, 0x66, 0x14, 0x6F, 0xE0, 0xAF, 0xBE, 0x50, 0x1C,
         0x87, 0x36, 0xD4, 0xC9, 0x39, 0xF0, 0x1B, 0x41, 0xD3, 0x0C, 0xF7, 0xEC, 0x73, 0xEE, 0xCE, 0xF5,
         0x87, 0x0A, 0x5F, 0x05, 0x8C, 0xF6, 0xB4, 0xED, 0x80, 0xF2, 0x42, 0x1D, 0xBD, 0x21, 0x59, 0xE8,
         0xF2, 0xF0, 0xC5, 0x21, 0x77, 0x15, 0xCB, 0xCB, 0xCF, 0xD9, 0xF0, 0x38, 0xCB, 0xF2, 0x1B, 0xCF,
         0x3B, 0x3C, 0xA4, 0x1D, 0x02, 0xDD, 0xC7, 0xEE, 0xC1, 0xFA, 0x7D, 0x21, 0xB9, 0x13, 0x9A, 0xD2,
         0x9C, 0x06, 0xBF, 0x03, 0xC2, 0xD6, 0xE8, 0x33, 0x6F, 0x0A, 0x97, 0xC5, 0xB5, 0x2B, 0xEA, 0x25,
         0x3C, 0xD1, 0x14, 0xE7, 0x44, 0x1B, 0x77, 0x14, 0xAF, 0xF2, 0x4B, 0xF0, 0x41, 0x03, 0x7E, 0xFB,
         0x25, 0xFA, 0xA8, 0x0E, 0xB4, 0x01, 0xDC, 0x01, 0xE5, 0x18, 0x8E, 0xF6, 0x8C, 0xE4, 0x6A, 0x03,
         0x32, 0xF3, 0x9B, 0x07, 0x1C, 0x20, 0x76, 0xDA, 0x5F, 0xFB, 0x0D, 0x43, 0x94, 0xE8, 0xA3, 0xB6,
         0xE4, 0x1F, 0xC9, 0x3E, 0x31, 0xE2, 0xEB, 0xD1, 0xBD, 0x1D, 0x30, 0x1A, 0x6B, 0xDC, 0xFD, 0x01,
         0xD1, 0x0D, 0x6F, 0xEC, 0x22, 0x1F, 0x2D, 0x03, 0xC7, 0xE0, 0xC5, 0x08, 0xF7, 0xFC, 0xAA, 0x09,
         0xC0, 0x04, 0xE2, 0xE6, 0x85, 0x0C, 0x88, 0x1E, 0x2E, 0xF5, 0xB1, 0xD2, 0x3D, 0xFF, 0x68, 0x3E,
         0xDB, 0x03, 0x7D, 0xC1, 0xFF, 0x0F, 0xE0, 0x1F, 0x8A, 0xDD, 0x04, 0xFE, 0x4E, 0x0E, 0x1B, 0x0C,
         0x91, 0x04, 0x35, 0xEB, 0xBD, 0x0A, 0x35, 0xFB, 0xCA, 0xF1, 0xD8, 0x0D, 0x17, 0xFB, 0x5E, 0x08,
         0xFF, 0x09, 0x32, 0xEA, 0xD3, 0x02, 0x11, 0x08, 0x38, 0xF8, 0x56, 0x1C, 0x42, 0xF2, 0x9A, 0xCC,
         0xA6, 0x22, 0xFB, 0x21, 0xB0, 0xE9, 0xFC, 0xF1, 0xA5, 0xF3, 0x0F, 0x17, 0x71, 0x2A, 0x86, 0xD7,
         0x1B, 0xDF, 0xD4, 0x27, 0xCA, 0xFC, 0x61, 0xEC, 0x05, 0x05, 0x83, 0xFD, 0x6D, 0x12, 0xBB, 0x03,
         0xFD, 0xE3, 0xE7, 0x0E, 0x3C, 0x11, 0xE4, 0xF5, 0x43, 0x04, 0xD1, 0xE5, 0x0A, 0x09, 0x69, 0x22,
         0x0F, 0xD0, 0x8F, 0xFA, 0x6A, 0x28, 0x11, 0xEE, 0xF0, 0xF6, 0x5F, 0x15, 0xC0, 0x03, 0xB2, 0xFC,
         0x64, 0x06, 0x31, 0xEE, 0x58, 0xE2, 0xE2, 0x12, 0x12, 0x20, 0x97, 0xE9, 0xEA, 0xF5, 0x34, 0x1E,
         0xDE, 0xF0, 0x5C, 0xF3, 0x32, 0x0F, 0xF9, 0xFF, 0xA0, 0x01, 0xDE, 0xEC, 0xD8, 0x08, 0xE5, 0x14,
         0x74, 0xDE, 0x18, 0x08, 0x70, 0x1C, 0x8E, 0xE6, 0xBC, 0xF9, 0x39, 0x18, 0x86, 0xFC, 0x11, 0xEE,
         0x3A, 0xFE, 0x3C, 0x12, 0x19, 0x03, 0xE3, 0xE3, 0x9F, 0x05, 0xCF, 0x11, 0x0F, 0x08, 0x6B, 0x0B,
         0xD0, 0xD4, 0xBF, 0xF3, 0x5A, 0x39, 0xCB, 0xE3, 0x7F, 0xCF, 0x7B, 0x3F, 0x84, 0x20, 0x49, 0xD1,
         0xE4, 0xF4, 0xDF, 0x00, 0xD3, 0x00, 0x85, 0x15, 0xA5, 0xF3, 0xFA, 0xEA, 0x0B, 0x12, 0xF7, 0x0E,
         0x95, 0x05, 0xAA, 0xF4, 0x5C, 0xE4, 0xE0, 0x16, 0xF6, 0x17, 0x53, 0xDB, 0xC3, 0xEA, 0x41, 0x1D,
         0x57, 0x17, 0xC4, 0xF4, 0xED, 0xF3, 0xF8, 0xFF, 0x56, 0x03, 0x3C, 0x05, 0x9A, 0xF6, 0x59, 0xF9,
         0x2E, 0x13, 0x2B, 0x00, 0x0B, 0xEA, 0xBF, 0x0A, 0x15, 0x09, 0x1D, 0xFA, 0x88, 0x04, 0x74, 0xEA,
         0x14, 0x04, 0x18, 0x26, 0xEA, 0xEF, 0xC1, 0xE6, 0x4A, 0x0A, 0x53, 0x05, 0x79, 0xFD, 0x27, 0x01,
         0xD7, 0x00, 0x00, 0x06, 0x1D, 0x07, 0x03, 0xF9, 0x9E, 0xF1, 0xBA, 0xF8, 0xFF, 0x07, 0x50, 0x0B,
         0xD5, 0xF9, 0xE1, 0xFB, 0x67, 0x10, 0x2A, 0x05, 0x4E, 0xEE, 0x62, 0x02, 0xB8, 0x0B, 0xF2, 0xF1,
         0x1C, 0xFC, 0x2D, 0xFB, 0x3D, 0xF4, 0x68, 0x1E, 0xD2, 0x10, 0x8A, 0xE0, 0x1C, 0xFB, 0x0B, 0x1B,
         0xF8, 0x03, 0x99, 0xE9, 0xAB, 0xEA, 0xAE, 0x0A, 0xC7, 0x1E, 0x10, 0xFF, 0x03, 0xEE, 0x72, 0xFA,
         0x31, 0x00, 0x05, 0x0A, 0x7F, 0x01, 0xA0, 0xF3, 0x46, 0x09, 0xF5, 0x0B, 0x8A, 0xF3, 0x6D, 0xF8,
         0xFE, 0xFE, 0x75, 0x06, 0x12, 0x12, 0x11, 0xF4, 0x50, 0xEA, 0xA3, 0x14, 0x7C, 0x0E, 0xAE, 0xE6,
         0x06, 0xF0, 0xDE, 0x10, 0xCD, 0x19, 0x63, 0xF9, 0xD7, 0xE5, 0xF7, 0x0A, 0xB0, 0x0E, 0x39, 0xEB,
         0x36, 0x01, 0xC6, 0x12, 0x2F, 0xF7, 0xCD, 0x01, 0x13, 0xFF, 0xC5, 0xDA, 0xE5, 0x0F, 0xA2, 0x3B,
         0x3B, 0xE8, 0x8E, 0xD2, 0xB4, 0x19, 0x12, 0x0D, 0xFC, 0xEA, 0x24, 0x07, 0x16, 0x08, 0x43, 0xFE,
         0x2A, 0x05, 0x3B, 0xED, 0x8D, 0xF5, 0x54, 0x16, 0x2B, 0x0A, 0xDE, 0xFC, 0x93, 0xF5, 0x75, 0xF0,
         0xD2, 0x0D, 0x5C, 0x15, 0x6E, 0xF3, 0x11, 0xF1, 0xC9, 0xFF, 0x9B, 0x09, 0x1B, 0x08, 0xF5, 0xF1,
         0xF5, 0xFD, 0x66, 0x0A, 0x10, 0xFD, 0x9E, 0x0B, 0x88, 0x00, 0x91, 0xDF, 0x85, 0x05, 0x40, 0x1B,
         0x94, 0xF3, 0xE7, 0x00, 0xF0, 0x10, 0xE3, 0xE7, 0xDB, 0xF4, 0x8F, 0x16, 0x97, 0xFA, 0xD2, 0xF7,
         0x1E, 0x0C, 0x71, 0xFF, 0x7C, 0x00, 0x57, 0x03, 0x0D, 0xF7, 0x5A, 0x01, 0x66, 0xFD, 0xDE, 0xF2,
         0x91, 0x10, 0x81, 0x09, 0x2E, 0xF4, 0xBD, 0x08, 0xB8, 0x01, 0x43, 0xF1, 0x09, 0xF9, 0xB8, 0x05,
         0xFD, 0x17, 0x5B, 0x01, 0x03, 0xD9, 0x30, 0x01, 0xD8, 0x23, 0xF6, 0xF6, 0xCC, 0xF0, 0xBD, 0x0C,
         0x72, 0x01, 0xC6, 0xF8, 0xBD, 0xFE, 0xE9, 0xFE, 0x86, 0x04, 0x81, 0xFE, 0xE2, 0xF8, 0xE1, 0x08,
         0xCB, 0x04, 0x86, 0xF8, 0xFE, 0x02, 0xD4, 0x02, 0xC9, 0xF8, 0x35, 0xFF, 0xE9, 0x05, 0xAE, 0x01,
         0x25, 0xF8, 0xA5, 0xFC, 0xA6, 0x0E, 0xBC, 0xFA, 0xF6, 0xED, 0x11, 0x10, 0xE7, 0x0C, 0x63, 0xF0,
         0x27, 0xFF, 0xB3, 0x0C, 0x3E, 0xFE, 0x80, 0xF9, 0x1E, 0xF3, 0xFE, 0xF0, 0xB3, 0x16, 0xAD, 0x21,
         0xFC, 0xEC, 0xB0, 0xE3, 0xF8, 0x12, 0x7F, 0x08, 0x19, 0xED, 0x96, 0x05, 0x70, 0x09, 0x98, 0xFD,
         0x98, 0xFB, 0x6E, 0xF2, 0xDE, 0x07, 0x18, 0x13, 0xEC, 0xF9, 0x9A, 0xF9, 0x03, 0xFF, 0x3F, 0xF7,
         0x50, 0x08, 0x3E, 0x0C, 0x4E, 0xF3, 0x77, 0xF7, 0x3A, 0x0D, 0xF5, 0x0B, 0x11, 0xEE, 0x73, 0xF0,
         0xC9, 0x15, 0x08, 0xFF, 0xED, 0xF1, 0xD6, 0x17, 0x25, 0x02, 0xDF, 0xE4, 0xFA, 0x0A, 0x83, 0x0B,
         0xB2, 0xEE, 0x3D, 0x06, 0xAE, 0x09, 0xCE, 0xED, 0x92, 0xFD, 0xF1, 0x13, 0xDF, 0x01, 0x1A, 0xF2,
         0x7C, 0xFF, 0x05, 0x0A, 0xDB, 0x00, 0x3A, 0xF8, 0x2D, 0x00, 0x97, 0x01, 0x56, 0xF8, 0x56, 0xFE,
         0x79, 0x0A, 0xD8, 0x05, 0xA3, 0x01, 0x26, 0xFA, 0x2F, 0xFA, 0x9E, 0x04, 0x5E, 0xF6, 0xEB, 0xFD,
         0xB8, 0x11, 0xB9, 0xFA, 0xD3, 0xF5, 0xB8, 0x09, 0x40, 0x03, 0x15, 0xFA, 0x86, 0x00, 0xD0, 0xFE,
         0xC6, 0x01, 0x21, 0x03, 0xC1, 0xFD, 0xC0, 0xFE, 0x87, 0xFC, 0x10, 0xFB, 0x28, 0xFD, 0x85, 0x0C,
         0xBC, 0x0F, 0x45, 0xF1, 0x04, 0xF6, 0xA7, 0x0C, 0x4B, 0xFE, 0x8D, 0xF5, 0x0A, 0x04, 0xDB, 0x05,
         0x2C, 0xF9, 0xEC, 0xFD, 0x37, 0x0E, 0xEE, 0xFD, 0x37, 0xEF, 0x2C, 0x06, 0x09, 0x0A, 0x20, 0xFB,
         0x71, 0x00, 0xA7, 0xFA, 0x42, 0x04, 0x92, 0x10, 0x4E, 0xEE, 0x39, 0xED, 0x03, 0x11, 0xEB, 0x07,
         0xF0, 0xF8, 0xF7, 0xFE, 0xC4, 0x02, 0xAA, 0x05, 0x66, 0x07, 0x46, 0xEF, 0xA7, 0xF1, 0x3C, 0x1F,
         0xA7, 0xFC, 0x32, 0xD2, 0x35, 0x1E, 0x36, 0x26, 0x6C, 0xE4, 0x33, 0x07, 0xAC, 0xFA, 0xDD, 0xC5,
         0xAC, 0x27, 0xF1, 0x2D, 0x51, 0xC4, 0x59, 0x00, 0x33, 0x52, 0x12, 0xFD, 0xED, 0xA6, 0xAE, 0xEE,
         0x5F, 0x50, 0x43, 0xEF, 0x92, 0xAA, 0x5E, 0x41, 0x8E, 0x59, 0x68, 0xC8, 0xDD, 0xCF, 0xF4, 0x0A,
         0x55, 0xEC, 0x25, 0x1A, 0x97, 0x1A, 0xFD, 0xD5, 0xF0, 0x14, 0xE9, 0x3D, 0x27, 0xD4, 0xCB, 0xC0,
         0x01, 0x04, 0x96, 0x12, 0xE1, 0x22, 0x65, 0x20, 0xBA, 0xDC, 0xBC, 0xE5, 0xEB, 0x1A, 0xCE, 0x03,
         0xCF, 0xD8, 0x6D, 0xEF, 0xA9, 0x24, 0xA0, 0x20, 0x44, 0xFC, 0xFC, 0xE9, 0x20, 0xED, 0x69, 0x16,
         0x94, 0x0F, 0x14, 0xD9, 0x1B, 0xF9, 0x8E, 0x1F, 0xC4, 0xFA, 0x4E, 0xFB, 0xA6, 0xFF, 0x40, 0xF8,
         0x55, 0x17, 0xD6, 0x01, 0x33, 0xFA, 0x4F, 0x0E, 0x73, 0xDD, 0x6E, 0xEA, 0x26, 0x17, 0xC1, 0xFD,
         0x4A, 0x10, 0x8D, 0x19, 0xDE, 0xE6, 0xDF, 0xF7, 0x37, 0x08, 0x4B, 0xF0, 0x66, 0x06, 0xD8, 0x05,
         0x69, 0xF8, 0xE2, 0x10, 0xC9, 0xFE, 0x32, 0xEF, 0xCF, 0x0F, 0xFB, 0xF7, 0x2E, 0xE6, 0x41, 0x1E,
         0x9E, 0x0D, 0x12, 0xD1, 0x5D, 0x0C, 0x1E, 0x36, 0x18, 0xEA, 0xE5, 0xE8, 0x9C, 0x12, 0x11, 0xE9,
         0xD7, 0xF6, 0x8A, 0x1E, 0x73, 0xED, 0x4B, 0xF0, 0x1C, 0x2B, 0x81, 0xFD, 0x0B, 0xE2, 0x78, 0x20,
         0xA0, 0xFC, 0x53, 0xCA, 0x35, 0x1E, 0x87, 0x1D, 0xA4, 0xE0, 0x04, 0x2E, 0xD1, 0xFF, 0xA5, 0x87,
         0x69, 0x29, 0x6B, 0x62, 0x21, 0xB3, 0x8C, 0xEC, 0xE4, 0x7B, 0x6D, 0xFA, 0x00, 0x80, 0xC7, 0xF9,
         0x92, 0x76, 0x7E, 0xD6, 0xAF, 0x95, 0xEF, 0x4F, 0xB2, 0x57, 0xB8, 0xAB, 0x84, 0xB6, 0x53, 0x12,
         0xBA, 0xD5, 0xCB, 0x24, 0x44, 0x42, 0x1E, 0xC3, 0xC8, 0x0C, 0xAC, 0x5B, 0x06, 0xBE, 0x38, 0xA7,
         0x1A, 0x0C, 0x3D, 0x0D, 0xE5, 0x37, 0xCB, 0x47, 0x8C, 0xB3, 0x02, 0xC2, 0x22, 0x48, 0x28, 0x11,
         0x1B, 0xB2, 0x5D, 0xE0, 0xD4, 0x34, 0x95, 0x48, 0x74, 0x0A, 0x2B, 0xBA, 0xB7, 0xD4, 0x94, 0x38,
         0xBF, 0x22, 0x78, 0xC5, 0x47, 0xE1, 0xBC, 0x2C, 0x1D, 0x13, 0x2A, 0xEE, 0xD8, 0xE6, 0xC7, 0x06,
         0xD1, 0x32, 0x8E, 0xF8, 0x24, 0xF1, 0x88, 0x19, 0xE2, 0xCD, 0xC4, 0xDE, 0x6F, 0x2B, 0x5B, 0xED,
         0x20, 0x01, 0x70, 0x48, 0x6F, 0xE7, 0x91, 0xD3, 0x93, 0x0F, 0x90, 0xF8, 0x5C, 0x08, 0x0C, 0x07,
         0xF0, 0xF4, 0x12, 0x1F, 0x1F, 0xEE, 0xAA, 0xD6, 0x08, 0x36, 0x7F, 0xFA, 0x63, 0xC2, 0x68, 0x38,
         0x4E, 0x13, 0xED, 0xB6, 0xEF, 0x16, 0x87, 0x3B, 0xB1, 0xE2, 0x3F, 0xFC, 0x54, 0x22, 0x54, 0xD3,
         0xF3, 0xE6, 0x29, 0x2C, 0x0A, 0xE2, 0xD4, 0xD4, 0x50, 0x36, 0x94, 0x2B, 0x45, 0xEF, 0x98, 0xF4,
         0x38, 0xF8, 0x4F, 0xF7, 0xDD, 0x07, 0x54, 0xEB, 0x77, 0xEF, 0x8E, 0x4C, 0xE8, 0x15, 0xB8, 0x89,
         0x68, 0xF4, 0xF9, 0x68, 0x27, 0xE9, 0x12, 0xCC, 0x64, 0x4D, 0xB4, 0x0C, 0x5C, 0x97, 0xBF, 0x0D,
         0xD1, 0x58, 0x1E, 0xC7, 0x56, 0xBC, 0x8B, 0x55, 0xA7, 0x2F, 0x68, 0xC7, 0xE0, 0x05, 0x34, 0x05,
         0x78, 0xB1, 0x02, 0x16, 0xE7, 0x58, 0x09, 0xE0, 0x57, 0xD5, 0xC6, 0x29, 0xE4, 0x07, 0x10, 0xE6,
         0x72, 0xFA, 0xCA, 0xFB, 0xE8, 0x17, 0xA8, 0x24, 0x3E, 0xC2, 0x6E, 0xC2, 0xD1, 0x49, 0xA4, 0x2F,
         0x6F, 0xCC, 0xED, 0xEC, 0x55, 0x14, 0xBF, 0x28, 0xAF, 0x1E, 0x91, 0xB6, 0x94, 0xB4, 0x16, 0x3D,
         0x41, 0x3A, 0x64, 0xDC, 0xE3, 0xE6, 0xF3, 0x23, 0x9B, 0x1D, 0x1B, 0xD9, 0x99, 0xCE, 0x46, 0x0F,
         0x9F, 0x32, 0x13, 0x0C, 0x14, 0xE5, 0xA9, 0xF9, 0x30, 0xFF, 0xED, 0xFB, 0x18, 0x0C, 0x1A, 0xF0,
         0x31, 0xEF, 0xEA, 0x2D, 0x03, 0x0D, 0xB9, 0xCB, 0x3A, 0xFB, 0x37, 0x20, 0x37, 0x0A, 0xA9, 0xEF,
         0x6A, 0xEB, 0x4B, 0x20, 0x68, 0x04, 0x90, 0xD9, 0x61, 0x1C, 0x59, 0x06, 0x36, 0xE5, 0x60, 0x15,
         0x14, 0xF4, 0x20, 0xE8, 0x46, 0x1D, 0xD3, 0x07, 0x4B, 0xE6, 0x58, 0x11, 0xC2, 0x21, 0xB0, 0xEE,
         0x18, 0xE4, 0xE4, 0x0C, 0xA8, 0xFB, 0xC5, 0xDF, 0x0D, 0x10, 0xAB, 0x1C, 0x00, 0xFB, 0xAB, 0x01,
         0xF4, 0x01, 0x13, 0xFD, 0xF3, 0x02, 0xFC, 0xEB, 0x26, 0xF1, 0x2A, 0x28, 0x7E, 0x0D, 0x72, 0xC7,
         0x4E, 0xFB, 0xA2, 0x35, 0xE6, 0xF6, 0x74, 0xE9, 0x01, 0x21, 0x62, 0xFB, 0x4F, 0xD7, 0x47, 0x13,
         0xDB, 0x11, 0x0F, 0xDC, 0xF2, 0xFC, 0x5B, 0x23, 0x13, 0x02, 0x10, 0xF7, 0x2D, 0x18, 0x61, 0xF7,
         0x43, 0xC5, 0x56, 0x0B, 0x22, 0x3A, 0xF1, 0xEA, 0xE9, 0xD7, 0xC1, 0x15, 0x6C, 0x15, 0x03, 0x04,
         0x4B, 0xFD, 0xC4, 0xF3, 0xC8, 0x06, 0x8A, 0xF9, 0x50, 0xEA, 0x40, 0xFA, 0x6C, 0x11, 0x0D, 0x1F,
         0x8B, 0xEF, 0x94, 0xF3, 0x17, 0x0A, 0x23, 0xFB, 0xF2, 0x24, 0xE5, 0xED, 0xC1, 0xBC, 0x46, 0x1F,
         0xAC, 0x20, 0x91, 0xEB, 0xB8, 0xF9, 0xFC, 0x19, 0xFC, 0x18, 0xD0, 0xD9, 0x55, 0xDE, 0xE5, 0x17,
         0x2A, 0x0E, 0xDE, 0xFF, 0x37, 0xFE, 0x48, 0xFA, 0x40, 0x08, 0x17, 0x03, 0x51, 0xF8, 0x50, 0xFD,
         0x50, 0xEF, 0x18, 0x07, 0x4D, 0x21, 0x8A, 0xEC, 0xA7, 0xEC, 0x8A, 0x1C, 0xE4, 0x04, 0xA0, 0xE3,
         0xBD, 0xF1, 0x89, 0x1E, 0x38, 0x16, 0xB7, 0xE2, 0x67, 0xF3, 0x2D, 0x14, 0x03, 0x09, 0xA8, 0xF1,
         0x95, 0xED, 0xEF, 0x0F, 0x83, 0x13, 0x5B, 0xE9, 0x1F, 0xEF, 0x7C, 0x13, 0x03, 0x12, 0x9D, 0xFF,
         0x8C, 0xF0, 0xB4, 0xFC, 0xFA, 0x0F, 0x45, 0xF7, 0x47, 0xF1, 0x4E, 0x04, 0x32, 0xFB, 0xE8, 0x07,
         0xA1, 0x0D, 0xFB, 0xF6, 0xF5, 0x09, 0xED, 0x02, 0x91, 0xEC, 0x2A, 0x02, 0x1F, 0xFB, 0xFD, 0x03,
         0x4D, 0x09, 0x78, 0xF1, 0xB9, 0x07, 0xE2, 0x0F, 0xBD, 0xFF, 0xAC, 0xF3, 0x35, 0xFA, 0x64, 0x0C,
         0x32, 0xEE, 0x13, 0xF6, 0xD2, 0x16, 0xB9, 0xFA, 0xBD, 0xFC, 0x93, 0x12, 0xB4, 0x04, 0x9F, 0xF1,
         0x54, 0xF1, 0xE9, 0x0B, 0x11, 0x0A, 0x5A, 0xEE, 0x89, 0xF8, 0xC0, 0x0A, 0xCD, 0x02, 0xED, 0x06,
         0xCC, 0xFF, 0x1E, 0xFA, 0x64, 0x0A, 0xEB, 0xEB, 0x98, 0x03, 0x67, 0x1D, 0xFE, 0xE0, 0xA6, 0xFB,
         0xE2, 0x0C, 0x5E, 0xF9, 0xAB, 0x08, 0x63, 0xF0, 0x87, 0x0D, 0xE8, 0x19, 0x9D, 0xEC, 0x27, 0xF8,
         0xCD, 0xFA, 0xDF, 0xF8, 0x0E, 0x06, 0xC4, 0x09, 0xC9, 0x05, 0x09, 0xF2, 0x84, 0xFD, 0xE3, 0x0E,
         0xA3, 0xF8, 0xAC, 0xFA, 0x8F, 0x0F, 0x54, 0xFE, 0xC9, 0xF6, 0xFB, 0x01, 0x2F, 0xFB, 0x3B, 0xFD,
         0xFB, 0xFB, 0x0D, 0xFF, 0xBF, 0x14, 0x5E, 0x03, 0x80, 0xF1, 0xBD, 0x0A, 0xAA, 0xFD, 0x02, 0xE8,
         0xD5, 0x02, 0x06, 0x14, 0x0B, 0x0F, 0xD2, 0xF1, 0x5A, 0xE8, 0x24, 0x0B, 0xB1, 0x06, 0x78, 0xF9,
         0x16, 0x06, 0xFA, 0x06, 0x40, 0x01, 0x51, 0xF8, 0xA8, 0xFB, 0xF9, 0x05, 0x92, 0xFD, 0x55, 0xF6,
         0xD0, 0xFF, 0x67, 0x09, 0x1D, 0x0B, 0xBC, 0xFF, 0xC5, 0xF4, 0xD1, 0x00, 0x0F, 0xFB, 0x7A, 0xFC,
         0xAF, 0x09, 0x06, 0xF6, 0x58, 0x0A, 0xB7, 0x0C, 0x60, 0xF1, 0x32, 0xFD, 0x68, 0xFA, 0x72, 0x15,
         0xA0, 0xFE, 0x19, 0xD8, 0x1E, 0x19, 0x52, 0x0F, 0xAE, 0xF1, 0xE3, 0x06, 0x14, 0xFB, 0xAF, 0xFF,
         0x5A, 0xFC, 0x56, 0x00, 0x4C, 0x0B, 0x39, 0xF6, 0xAE, 0xFC, 0xE1, 0x0A, 0x75, 0xFF, 0x23, 0xF4,
         0x4C, 0x01, 0x95, 0x0E, 0x94, 0xFA, 0x23, 0xFB, 0x46, 0x04, 0x92, 0xF4, 0x03, 0x02, 0x18, 0x09,
         0x01, 0xF6, 0x02, 0x07, 0x13, 0x0C, 0x69, 0xF8, 0x60, 0x05, 0x75, 0x04, 0xD6, 0xE5, 0xB3, 0xF0,
         0x5E, 0x17, 0x30, 0x09, 0x3C, 0xFA, 0x70, 0x06, 0xC2, 0xF5, 0x6B, 0x08, 0x3C, 0x12, 0x8F, 0xE7,
         0x63, 0xF3, 0x2E, 0x10, 0x40, 0x07, 0x16, 0xF6, 0x57, 0xF2, 0x76, 0x08, 0xB8, 0x09, 0xC7, 0xF3,
         0x10, 0x06, 0x7D, 0x19, 0xD5, 0xF8, 0x9B, 0xE6, 0x52, 0x00, 0x6E, 0x0F, 0x30, 0xFE, 0xBF, 0xF1,
         0x0A, 0x02, 0x8E, 0x0B, 0x76, 0x03, 0xC1, 0xF3, 0x59, 0xFB, 0x9A, 0x14, 0xBC, 0xF9, 0x55, 0xF0,
         0x8D, 0x0F, 0x3A, 0x04, 0x3A, 0xFB, 0x00, 0x02, 0x70, 0xFD, 0xA5, 0xF1, 0xA6, 0xF2, 0x44, 0x13,
         0x5C, 0x14, 0xA7, 0xF6, 0xC3, 0xF6, 0x40, 0x05, 0x95, 0x09, 0x5E, 0xFE, 0x63, 0xF0, 0x71, 0xF5,
         0x8E, 0x06, 0xA3, 0x0E, 0x2C, 0x03, 0x76, 0xF9, 0x08, 0xFE, 0xC6, 0xFB, 0x35, 0x02, 0x21, 0x0C,
         0xAA, 0xF9, 0xD9, 0xF4, 0xA5, 0x02, 0x01, 0x06, 0x82, 0xFF, 0xD9, 0xF6, 0x01, 0x0D, 0x3C, 0x0D,
         0xD4, 0xEF, 0x31, 0xFC, 0xFE, 0x00, 0xE9, 0xF6, 0x52, 0x01, 0x1A, 0x0A, 0x63, 0x06, 0xAC, 0xF8,
         0xA3, 0xFE, 0xC3, 0x05, 0x56, 0xFB, 0xA9, 0x01, 0x3B, 0x02, 0x2B, 0xFA, 0xA4, 0x02, 0x7A, 0x00,
         0xC9, 0xF6, 0x9A, 0xFF, 0x3A, 0x0D, 0xA1, 0x07, 0xB5, 0xF6, 0x24, 0xF9, 0xB9, 0x00, 0xB5, 0xF8,
         0x04, 0xFF, 0x56, 0x10, 0x39, 0x08, 0x4F, 0xFD, 0x07, 0x02, 0x67, 0xF6, 0x28, 0xEF, 0xAF, 0xFD,
         0x33, 0x04, 0x27, 0x0C, 0xE9, 0x05, 0x13, 0xF9, 0x26, 0x08, 0x22, 0x08, 0xD3, 0xF6, 0x26, 0xEF,
         0x44, 0xFF, 0x62, 0x13, 0xFC, 0xFB, 0x8F, 0xEF, 0xBE, 0x04, 0x96, 0x0B, 0xAE, 0xFD, 0x78, 0xF9,
         0xC6, 0x10, 0x4E, 0x04, 0x05, 0xE5, 0x2D, 0xFB, 0x73, 0x11, 0x19, 0x02, 0xD4, 0xF7, 0xF2, 0x05,
         0xA2, 0x07, 0xEB, 0xF7, 0xB6, 0xF9, 0x33, 0x02, 0xDF, 0x02, 0x7B, 0xFB, 0x39, 0xFC, 0x3F, 0x07,
         0x04, 0x05, 0x8C, 0x04, 0xEE, 0x01, 0xC6, 0xF9, 0x14, 0xF9, 0x22, 0xF6, 0xC1, 0x00, 0x9C, 0x0B,
         0x8A, 0x00, 0x32, 0xFE, 0x50, 0x05, 0x69, 0x03, 0x84, 0xFF, 0xA6, 0xFB, 0xB6, 0xF7, 0x75, 0xFA,
         0x8B, 0x06, 0x2E, 0x0A, 0x6A, 0xFE, 0x6E, 0xFC, 0xAA, 0xFF, 0x4F, 0xFC, 0xB4, 0x02, 0x65, 0x05,
         0x2F, 0xFA, 0xFF, 0xFB, 0xE8, 0x05, 0xBB, 0x00, 0x15, 0xFC, 0x1F, 0x03, 0x58, 0x05, 0x04, 0xFE,
         0x7C, 0xFB, 0xC8, 0xFF, 0xD2, 0xFA, 0x10, 0xFC, 0x08, 0x09, 0xF0, 0x03, 0x44, 0xFF, 0xAC, 0x04,
         0x1F, 0xFD, 0xF4, 0xF7, 0xA2, 0xFD, 0x21, 0x01, 0xC7, 0x02, 0x16, 0x09, 0x42, 0x04, 0xDD, 0xF2,
         0x51, 0xF9, 0xA4, 0x09, 0x33, 0x03, 0x57, 0xF8, 0xF7, 0xFA, 0xCC, 0x04, 0x56, 0x05, 0x61, 0xFE,
         0xA9, 0x02, 0x34, 0x06, 0x2C, 0xFD, 0x0E, 0xFB, 0xF9, 0xFD, 0x96, 0xFB, 0x2A, 0xFD, 0x6B, 0x02,
         0x25, 0x04, 0xDA, 0xFF, 0x68, 0x02, 0xDF, 0x06, 0x56, 0xFF, 0xCF, 0xFB, 0x5F, 0xF9, 0x15, 0xFE,
         0x63, 0x08, 0xEF, 0xFD, 0xE9, 0xF8, 0x66, 0x02, 0x75, 0x07, 0x1E, 0x01, 0xAE, 0xF7, 0x02, 0x05,
         0x75, 0x06, 0xAE, 0xF4, 0xFE, 0xFC, 0xFA, 0x07, 0x04, 0x00, 0x10, 0xFB, 0xE3, 0x02, 0x86, 0x04,
         0xE2, 0xFB, 0x14, 0x00, 0x6F, 0x02, 0xB4, 0xFC, 0xAD, 0xFF, 0x8C, 0xFE, 0x37, 0xFE, 0x24, 0x06,
         0xB0, 0x03, 0xAA, 0xFA, 0x05, 0xFE, 0x63, 0x05, 0x9A, 0xFC, 0xAE, 0xF6, 0x23, 0x05, 0x10, 0x0B,
         0xAA, 0xFF, 0x82, 0xF8, 0x07, 0xFD, 0xAA, 0x03, 0xA5, 0x01, 0x7B, 0xFC, 0x80, 0xFB, 0xFB, 0x01,
         0x0A, 0x0A, 0xBC, 0x04, 0xDB, 0xFB, 0x4C, 0xF8, 0x24, 0xF8, 0x72, 0x00, 0x98, 0x06, 0xF0, 0x02,
         0x51, 0x01, 0x4B, 0x03, 0x1F, 0x01, 0x5A, 0xFD, 0x19, 0xFB, 0xFE, 0xFC, 0x3D, 0x01, 0x02, 0x00,
         0xFB, 0xFF, 0x9E, 0x00, 0xB1, 0x00, 0x5C, 0x03, 0x96, 0x00, 0x7C, 0x02, 0x10, 0x04, 0xEC, 0xF9,
         0x4D, 0xF6, 0x45, 0xFC, 0x5B, 0x03, 0xAD, 0x04, 0x19, 0x06, 0xC6, 0x08, 0xC6, 0xFB, 0xAD, 0xF4,
         0xFD, 0xFE, 0xFF, 0x01, 0x66, 0xFD, 0xCC, 0xFB, 0x71, 0x04, 0x1E, 0x0D, 0x79, 0x02, 0x7A, 0xF6,
         0xA2, 0xFC, 0x5F, 0x01, 0x9E, 0xFC, 0x9A, 0xFE, 0x4B, 0x04, 0x5C, 0x04, 0xF8, 0xFF, 0xEC, 0xFA,
         0xD3, 0xFB, 0xDB, 0x02, 0x08, 0x06, 0xC4, 0xFE, 0xDE, 0xFC, 0xCD, 0x04, 0x62, 0x01, 0xE9, 0xF8,
         0x45, 0xFC, 0x33, 0x02, 0xCF, 0x02, 0x7D, 0x01, 0x8A, 0x00, 0x1D, 0xFF, 0x0E, 0xFF, 0x0E, 0x01,
         0x3B, 0x01, 0x5A, 0x00, 0xC1, 0xFF, 0x69, 0xFD, 0x9E, 0xFB, 0x25, 0xFE, 0x4F, 0x03, 0xEC, 0x05,
         0x1A, 0x01, 0x44, 0xFD, 0x1B, 0x03, 0x7F, 0x02, 0xEB, 0xF8, 0x7E, 0xFC, 0xE6, 0x04, 0xA8, 0xFE,
         0x1D, 0xF9, 0x71, 0x01, 0x6F, 0x07, 0xA0, 0x00, 0x66, 0xFB, 0x10, 0x04, 0x4E, 0x0B, 0x11, 0xFE,
         0x21, 0xF0, 0xF5, 0xF9, 0x24, 0x06, 0x4C, 0x02, 0xD1, 0xFF, 0xCF, 0x01, 0xCF, 0x00, 0x2E, 0x05,
         0x75, 0x07, 0x9B, 0xFA, 0xC5, 0xF1, 0x82, 0xFC, 0xE6, 0x04, 0x19, 0x01, 0x82, 0x01, 0xD9, 0x05,
         0xAE, 0x05, 0xC7, 0x00, 0x04, 0xFA, 0x4E, 0xFA, 0xE9, 0x00, 0xFF, 0xFF, 0x1B, 0xF9, 0x82, 0xFC,
         0xB4, 0x07, 0x09, 0x09, 0xDF, 0x01, 0x94, 0xFE, 0x9A, 0xFF, 0xCC, 0xFE, 0x58, 0xFB, 0xFC, 0xFB,
         0x9C, 0x01, 0xC3, 0x01, 0x43, 0xFD, 0x2F, 0x00, 0xA2, 0x05, 0x2C, 0x02, 0x65, 0xFB, 0x1D, 0xFD,
         0x22, 0x07, 0xF1, 0x05, 0x9D, 0xF6, 0xA0, 0xF7, 0x4F, 0x08, 0xA0, 0x05, 0x49, 0xF7, 0x5E, 0xFB,
         0xAD, 0x05, 0x70, 0x04, 0x00, 0x01, 0xC6, 0xFE, 0x00, 0xFD, 0xA8, 0x00, 0xBD, 0x01, 0xC2, 0xFD,
         0xA8, 0xFD, 0x2F, 0xFF, 0x9C, 0x00, 0xCB, 0x04, 0xE6, 0x03, 0xA3, 0xFD, 0xF6, 0xFB, 0xE2, 0xFD,
         0x1F, 0x00, 0x03, 0x02, 0x6D, 0x00, 0x3E, 0x00, 0x9D, 0x02, 0x44, 0xFF, 0x7A, 0xFC, 0x23, 0x01,
         0xBE, 0x00, 0xAA, 0xFC, 0x09, 0x01, 0xD1, 0x02, 0xD0, 0xFD, 0x51, 0x01, 0x0B, 0x06, 0xCD, 0xFE,
         0x1A, 0xFA, 0x09, 0xFE, 0xCC, 0xFD, 0xDE, 0xFE, 0xD3, 0x06, 0x9B, 0x05, 0xD1, 0xFB, 0x99, 0xFC,
         0x7D, 0x03, 0x95, 0x01, 0x8D, 0xFB, 0x79, 0xFB, 0x6C, 0x01, 0x91, 0x06, 0x38, 0x02, 0x65, 0xF8,
         0x52, 0xF9, 0x4C, 0x06, 0x3F, 0x0B, 0x53, 0x00, 0x9F, 0xF7, 0xD3, 0xFD, 0x5D, 0x04, 0xB4, 0xFE,
         0x4F, 0xF9, 0x8B, 0xFC, 0x4F, 0x01, 0x07, 0x08, 0x9B, 0x0A, 0x2A, 0xFE, 0x29, 0xF6, 0xD5, 0xFF,
         0x51, 0x01, 0x2D, 0xF9, 0xEA, 0x00, 0xAF, 0x09, 0x21, 0xFF, 0x39, 0xF8, 0x1A, 0x01, 0x43, 0x06,
         0x98, 0x00, 0x0A, 0xFB, 0x03, 0xFF, 0xFC, 0x05, 0xBD, 0x00, 0xFC, 0xF7, 0x9E, 0xFC, 0x5A, 0x03,
         0x2E, 0x04, 0xF7, 0x05, 0xC3, 0x00, 0x23, 0xF8, 0x19, 0xFC, 0xA0, 0xFF, 0x86, 0xFC, 0xB0, 0x04,
         0x8B, 0x0B, 0x68, 0x01, 0x38, 0xFB, 0x42, 0xFD, 0x99, 0xFA, 0x17, 0xFC, 0xE4, 0x01, 0xA7, 0x02,
         0xF1, 0x03, 0x05, 0x01, 0x8C, 0xFB, 0x0E, 0x04, 0xF1, 0x08, 0x97, 0xFA, 0xF0, 0xF6, 0x64, 0x00,
         0x48, 0xFE, 0x2C, 0xFF, 0x90, 0x06, 0x09, 0xFF, 0x41, 0xFC, 0xF4, 0x08, 0xD9, 0x05, 0x11, 0xF8,
         0x3E, 0xF9, 0x49, 0xFF, 0x2D, 0x02, 0xEF, 0x02, 0x73, 0xFC, 0x2D, 0xFE, 0x46, 0x0A, 0x94, 0x03,
         0xBB, 0xF4, 0x27, 0xFC, 0xF4, 0x05, 0xDC, 0xFF, 0xF3, 0xFC, 0x9B, 0x02, 0xBC, 0x05, 0xBD, 0x01,
         0x59, 0xF9, 0xED, 0xF9, 0xC8, 0x03, 0xA0, 0x03, 0x2D, 0xFD, 0x59, 0xFF, 0x6A, 0x00, 0xC7, 0xFD,
         0x85, 0x03, 0x1A, 0x07, 0x0E, 0xFE, 0xCC, 0xFA, 0x11, 0x02, 0x1D, 0x00, 0x39, 0xF8, 0x00, 0xFC,
         0xF5, 0x05, 0x41, 0x06, 0x6D, 0x00, 0x82, 0x01, 0x78, 0x01, 0x30, 0xFB, 0x8A, 0xFC, 0xB1, 0x01,
         0x72, 0xFF, 0xFB, 0xFC, 0xDA, 0xFE, 0xE6, 0x02, 0xB3, 0x06, 0x42, 0x01, 0xFF, 0xF9, 0x62, 0x01,
         0xFE, 0x05, 0xEE, 0xF9, 0x6B, 0xF7, 0xC7, 0x02, 0x09, 0x04, 0x11, 0x00, 0x1E, 0x01, 0xF5, 0xFF,
         0xC9, 0x00, 0x99, 0x02, 0x89, 0xFD, 0x8E, 0xFF, 0x81, 0x05, 0x31, 0xFD, 0x35, 0xF7, 0xF5, 0xFC,
         0x14, 0xFE, 0x3D, 0x02, 0x3F, 0x0C, 0x0C, 0x07, 0xB1, 0xFC, 0xA7, 0xFE, 0xAB, 0xFC, 0x1E, 0xF8,
         0x54, 0xFD, 0x6C, 0xFF, 0x5F, 0x01, 0xC4, 0x07, 0x6C, 0x03, 0x87, 0xFD, 0x47, 0x01, 0x40, 0x00,
         0xB8, 0xFA, 0x70, 0xFF, 0x9A, 0x04, 0x8A, 0xFD, 0x8C, 0xF9, 0x2E, 0xFE, 0x41, 0x02, 0x9F, 0x07,
         0xD5, 0x08, 0xAC, 0xFF, 0xFC, 0xF8, 0x5D, 0xFB, 0x2F, 0xFE, 0xFF, 0xFD, 0x6C, 0xFD, 0xF4, 0x00,
         0xDC, 0x07, 0x8E, 0x05, 0xDB, 0xFA, 0x1D, 0xFA, 0xDD, 0x05, 0xA7, 0x07, 0xB9, 0xFA, 0xB9, 0xF9,
         0x81, 0x00, 0x77, 0xFD, 0x12, 0xFF, 0xE1, 0x03, 0xF9, 0xFE, 0xB0, 0x00, 0x99, 0x08, 0x39, 0x00,
         0x16, 0xF6, 0xAD, 0xFF, 0x48, 0x05, 0x69, 0xFD, 0xD8, 0xFD, 0x6F, 0x01, 0x50, 0x00, 0xFA, 0x00,
         0xE2, 0xFE, 0x5D, 0xFE, 0x29, 0x04, 0xC9, 0x02, 0x7A, 0xFE, 0xFD, 0x00, 0x2D, 0xFB, 0xB7, 0xF4,
         0xB4, 0x02, 0x8A, 0x0D, 0xBF, 0x02, 0x6D, 0xFB, 0x55, 0x00, 0xB8, 0x00, 0x7D, 0xFB, 0xF3, 0xFA,
         0x9B, 0x01, 0x43, 0x06, 0x75, 0x02, 0x1A, 0xFC, 0xBB, 0xFB, 0xF9, 0x01, 0xA5, 0x05, 0x9B, 0xFF,
         0xC0, 0xFA, 0x4A, 0xFF, 0x35, 0x02, 0x6C, 0x03, 0xDF, 0xFE, 0x74, 0xF9, 0xA3, 0x02, 0x9D, 0x03,
         0xDB, 0xFD, 0x85, 0x03, 0x17, 0x00, 0x6A, 0xFA, 0x87, 0x01, 0xB1, 0x00, 0xB8, 0xFD, 0xD5, 0x02,
         0x86, 0xFD, 0xCA, 0xFD, 0x4B, 0x08, 0xB3, 0x02, 0xA3, 0xFB, 0x90, 0xFD, 0xC0, 0xFC, 0x80, 0x00,
         0x50, 0x04, 0x2F, 0xFC, 0x06, 0xFC, 0xC6, 0x07, 0xCD, 0x05, 0xD7, 0xFA, 0xAF, 0xFB, 0x39, 0x02,
         0x72, 0x01, 0x34, 0xFC, 0x63, 0xFD, 0x71, 0x04, 0x18, 0x04, 0x24, 0xFF, 0x6E, 0xFD, 0xE4, 0xFC,
         0x3C, 0x01, 0x61, 0x04, 0xAF, 0xFD, 0xBD, 0xFA, 0x26, 0x03, 0xC9, 0x06, 0x9D, 0xFF, 0xBE, 0xFB,
         0x8C, 0xFC, 0x68, 0xFE, 0x0D, 0x04, 0x19, 0x02, 0x05, 0xFC, 0xD8, 0xFF, 0x64, 0x03, 0x2D, 0x02,
         0xFE, 0x01, 0x8E, 0xFE, 0x15, 0xFB, 0x97, 0xFD, 0x30, 0xFF, 0x73, 0x00, 0x00, 0x04, 0x71, 0x03,
         0x4C, 0xFF, 0x39, 0xFC, 0x5C, 0xFF, 0x3C, 0x03, 0x7B, 0x01, 0x9D, 0xFE, 0x08, 0xFB, 0x9C, 0xFF,
         0x0E, 0x06, 0x25, 0xFF, 0x6F, 0xFB, 0xCF, 0xFF, 0xEB, 0x02, 0x23, 0x04, 0x56, 0xFF, 0x1C, 0xFC,
         0xA4, 0xFF, 0xC8, 0xFE, 0xFC, 0xFF, 0xAF, 0x06, 0xC2, 0xFF, 0x30, 0xF8, 0x08, 0xFF, 0x3C, 0x02,
         0x1B, 0x00, 0x6C, 0x02, 0xED, 0x04, 0x70, 0x01, 0x21, 0xFC, 0x3B, 0xFC, 0xC9, 0xFC, 0x53, 0xFB,
         0xDB, 0x01, 0x71, 0x09, 0x4B, 0x04, 0xF0, 0xFE, 0x83, 0xFE, 0xB4, 0xFA, 0x8F, 0xFB, 0x3B, 0x02,
         0x9E, 0x03, 0x85, 0x01, 0x6C, 0xFE, 0x30, 0xFC, 0x0E, 0x01, 0x62, 0x03, 0x32, 0x01, 0x2B, 0xFF,
         0x1E, 0xFE, 0x04, 0x04, 0xE0, 0x01, 0xD0, 0xF7, 0x76, 0xFB, 0x28, 0x03, 0x19, 0x03, 0xA6, 0x00,
         0x9A, 0x01, 0xE0, 0x03, 0xF4, 0x00, 0x90, 0xFB, 0x15, 0xFA, 0x5B, 0xFE, 0x05, 0x04, 0xB6, 0x02,
         0x72, 0xFE, 0x44, 0x02, 0xD4, 0xFF, 0x8D, 0xFB, 0x5A, 0x05, 0x12, 0x01, 0x77, 0xFB, 0xA3, 0x05,
         0x09, 0xFC, 0x18, 0xF4, 0x75, 0x06, 0x74, 0x09, 0x26, 0xFC, 0xA5, 0xFF, 0x2A, 0x04, 0x74, 0xFD,
         0xDF, 0xFB, 0x8D, 0xFE, 0xC4, 0x01, 0xC3, 0x05, 0xD8, 0x01, 0xAF, 0xF7, 0xE1, 0xFA, 0x98, 0x06,
         0xAB, 0x02, 0x01, 0xFB, 0xA8, 0x02, 0x59, 0x06, 0x1A, 0xFE, 0xF9, 0xFB, 0x1C, 0xFC, 0x8D, 0xFF,
         0x3B, 0x06, 0xB4, 0x00, 0x57, 0xFD, 0xDB, 0x00, 0xCC, 0xFD, 0xA8, 0xFF, 0xBA, 0x03, 0xBC, 0xFD,
         0x4C, 0xFE, 0xBE, 0x03, 0x08, 0xFF, 0x8E, 0xFD, 0x5F, 0x00, 0x7B, 0x01, 0xD8, 0x01, 0x07, 0xFF,
         0x4F, 0xFF, 0x46, 0xFF, 0x38, 0xFE, 0x87, 0x00, 0xB8, 0x00, 0x6E, 0x01, 0x76, 0x02, 0xA7, 0xFE,
         0x8B, 0xFD, 0x2F, 0x00, 0xDE, 0xFE, 0xFF, 0xFE, 0xA4, 0x02, 0xBE, 0x01, 0x5F, 0xFF, 0x95, 0xFF,
         0xD6, 0xFF, 0x7D, 0xFF, 0x84, 0xFF, 0xB8, 0xFF, 0x31, 0x00, 0x15, 0x01, 0xE7, 0xFF, 0x91, 0xFE,
         0xCC, 0x00, 0x57, 0x01, 0xAA, 0xFE, 0x8B, 0xFF, 0x61, 0x01, 0x93, 0xFF, 0x3F, 0xFF, 0x4D, 0x00,
         0xDE, 0xFF, 0x3B, 0x00, 0x8C, 0x00, 0xAB, 0xFF, 0xC7, 0xFF, 0x13, 0x00, 0x00, 0x00
     };

__align(2)
     const U8 motion_dj_vocal_wav_8[DJ_AUD_VOX_WAVE_8_LEN] = 
     {
         0x52, 0x49, 0x46, 0x46, 0xB6, 0x12, 0x00, 0x00, 0x57, 0x41, 0x56, 0x45, 0x66, 0x6D, 0x74, 0x20,
         0x10, 0x00, 0x00, 0x00, 0x01, 0x00, 0x01, 0x00, 0x80, 0x3E, 0x00, 0x00, 0x00, 0x7D, 0x00, 0x00,
         0x02, 0x00, 0x10, 0x00, 0x64, 0x61, 0x74, 0x61, 0x92, 0x12, 0x00, 0x00, 0xFD, 0xFF, 0xF8, 0xFF,
         0x02, 0x00, 0x06, 0x00, 0xEB, 0xFF, 0x02, 0x00, 0x21, 0x00, 0xFA, 0xFF, 0xF1, 0xFF, 0x2D, 0x00,
         0x12, 0x00, 0xB1, 0xFF, 0xD3, 0xFF, 0x5D, 0x00, 0x24, 0x00, 0x7F, 0xFF, 0xE7, 0xFF, 0x70, 0x00,
         0x0E, 0x00, 0x0D, 0x00, 0x15, 0x00, 0x9D, 0xFF, 0xCD, 0xFF, 0x52, 0x00, 0x06, 0x00, 0xB5, 0xFF,
         0xA4, 0x00, 0xB9, 0xFF, 0xA7, 0xFE, 0x1A, 0x01, 0xE0, 0x00, 0x4B, 0xFF, 0x6F, 0x00, 0x10, 0x00,
         0xB2, 0xFF, 0xD0, 0xFF, 0x04, 0xFF, 0xC3, 0xFF, 0x7A, 0x00, 0xFF, 0xFF, 0x15, 0x01, 0x71, 0x01,
         0x08, 0xFF, 0xCC, 0xFE, 0x5F, 0x00, 0xCC, 0xFF, 0x20, 0xFF, 0x03, 0x01, 0xE0, 0x00, 0x43, 0xFE,
         0x65, 0x00, 0x55, 0x00, 0x3A, 0xFE, 0xAA, 0x02, 0x65, 0x01, 0xB6, 0xFC, 0xD1, 0x00, 0xF0, 0x01,
         0x40, 0xFE, 0x2C, 0xFF, 0x90, 0xFF, 0x1D, 0x01, 0x70, 0x02, 0x89, 0xFC, 0x72, 0xFE, 0x49, 0x03,
         0x8D, 0x00, 0xD5, 0xFF, 0xAE, 0xFE, 0x0D, 0x00, 0xDE, 0x00, 0xED, 0xFE, 0xD3, 0x00, 0x3E, 0xFF,
         0x8B, 0xFF, 0x5E, 0x00, 0x2D, 0xFF, 0x68, 0x03, 0x89, 0x00, 0xFC, 0xFA, 0xBC, 0x00, 0x7C, 0x02,
         0x25, 0xFE, 0x6B, 0x00, 0xB4, 0xFF, 0x98, 0xFF, 0x8C, 0x03, 0x5C, 0xFF, 0x78, 0xFE, 0xAE, 0xFF,
         0xEE, 0xFE, 0x85, 0x01, 0x7C, 0xFE, 0x74, 0xFE, 0x29, 0x03, 0x1D, 0xFF, 0xC7, 0xFF, 0x85, 0x04,
         0x9B, 0xFB, 0xCC, 0xFD, 0xB1, 0x04, 0x1F, 0xFD, 0xAD, 0x00, 0x4D, 0x00, 0xE9, 0xFF, 0x86, 0x02,
         0x61, 0xF8, 0x3D, 0x02, 0xFC, 0x06, 0xAC, 0xFB, 0x1D, 0xFF, 0xE5, 0x00, 0x4E, 0x01, 0x92, 0xFE,
         0x55, 0xFE, 0x20, 0x03, 0xF7, 0xFC, 0x56, 0x00, 0xC1, 0x04, 0x17, 0xFD, 0xA6, 0xFE, 0x2F, 0x01,
         0x8E, 0xFD, 0x72, 0xFE, 0xBC, 0x03, 0x0F, 0x03, 0x53, 0xFD, 0x2F, 0xFF, 0x70, 0x00, 0x76, 0xFF,
         0x45, 0x01, 0x3B, 0xFE, 0xE0, 0xFF, 0xE9, 0x00, 0xEC, 0xFE, 0xC5, 0x00, 0x3C, 0xFE, 0xF8, 0x03,
         0xA7, 0x02, 0xDB, 0xF7, 0x55, 0x01, 0xA6, 0x05, 0xA6, 0xFE, 0x85, 0xFD, 0xB5, 0xFB, 0x7E, 0x00,
         0x4A, 0x06, 0x8E, 0xFF, 0x6F, 0xFD, 0xF8, 0x03, 0x8F, 0x00, 0xA7, 0xFA, 0xFC, 0xFD, 0xB3, 0x03,
         0x7C, 0x01, 0x61, 0xFB, 0xB0, 0x01, 0x13, 0x05, 0x7B, 0xFD, 0x70, 0xFC, 0xED, 0xFE, 0x63, 0x01,
         0x6A, 0x01, 0xED, 0x03, 0x93, 0x05, 0x6C, 0xFB, 0x75, 0xFA, 0xCC, 0xFC, 0x5F, 0xFA, 0x93, 0x06,
         0x4A, 0x08, 0x7E, 0xF8, 0xA2, 0xFE, 0x6B, 0x09, 0x2B, 0x00, 0x06, 0xFD, 0x43, 0xFD, 0xBF, 0xFE,
         0xA5, 0x03, 0xC9, 0xFA, 0xEB, 0xFC, 0x61, 0x09, 0xDD, 0x00, 0x77, 0xF6, 0x13, 0xFD, 0x70, 0x04,
         0x4E, 0x04, 0x39, 0x04, 0x06, 0x04, 0x8B, 0xFE, 0xD7, 0xF8, 0x83, 0xFB, 0x86, 0x03, 0x58, 0xFD,
         0x72, 0xF7, 0x58, 0x0B, 0xFA, 0x09, 0x1E, 0xF6, 0xAF, 0xFC, 0xDD, 0xFF, 0x1B, 0x03, 0x1A, 0x0A,
         0x91, 0xFA, 0xCC, 0xF9, 0xFB, 0x07, 0xF4, 0xF9, 0xE9, 0xF8, 0x7F, 0x03, 0x13, 0xFA, 0x7F, 0x07,
         0x18, 0x09, 0xAB, 0xFA, 0xDA, 0x09, 0x8F, 0xFD, 0x95, 0xEC, 0xA2, 0x0A, 0xC1, 0x03, 0x06, 0xE7,
         0x7F, 0x08, 0x59, 0x19, 0x6D, 0xFF, 0x44, 0xFC, 0x59, 0xF9, 0xE6, 0xF5, 0xE1, 0x01, 0x0E, 0x04,
         0x95, 0xFC, 0x46, 0x0C, 0xBD, 0x0C, 0x17, 0xE0, 0x59, 0x00, 0x49, 0x1F, 0xEC, 0xE2, 0xBB, 0xF4,
         0x63, 0x13, 0xC5, 0x07, 0x7E, 0x15, 0x81, 0xF2, 0x7D, 0xE3, 0xCE, 0x07, 0x2C, 0x05, 0x7C, 0xF6,
         0xDC, 0x02, 0xC7, 0x0E, 0xB0, 0x00, 0xA9, 0xFE, 0x9A, 0xFB, 0xDD, 0xEC, 0x04, 0x12, 0xE0, 0x1D,
         0x72, 0xDE, 0xDD, 0xE4, 0x23, 0x1F, 0x6C, 0x08, 0x95, 0xF1, 0xD9, 0x0E, 0xF3, 0x04, 0xB9, 0xEE,
         0x87, 0xF9, 0xDD, 0xFB, 0x30, 0x06, 0xAF, 0x0F, 0x1B, 0xF9, 0xF5, 0xFD, 0x19, 0x07, 0x99, 0xF9,
         0x51, 0x06, 0x62, 0xFD, 0x48, 0xEB, 0xA9, 0x08, 0x1F, 0x0F, 0x0B, 0xF6, 0x1F, 0x00, 0x35, 0x08,
         0x7C, 0x01, 0x37, 0xFD, 0xF0, 0xF5, 0x3C, 0x04, 0xC2, 0xF6, 0x5B, 0x02, 0xBB, 0x1F, 0xAA, 0xE6,
         0x8D, 0xF1, 0x70, 0x1E, 0x47, 0xF7, 0xCA, 0xEF, 0x4C, 0x06, 0xED, 0x0C, 0xC1, 0xF7, 0x40, 0xF4,
         0x6B, 0x13, 0xB6, 0xFC, 0x3D, 0xF1, 0x5B, 0x17, 0x3F, 0xF7, 0x9E, 0xE5, 0xE9, 0x21, 0x70, 0xFB,
         0x8F, 0xE2, 0x23, 0x1E, 0x45, 0x01, 0xC3, 0xF2, 0xB4, 0x02, 0xDE, 0xFF, 0x59, 0x0A, 0x07, 0xF0,
         0x18, 0xFA, 0x7D, 0x14, 0xAA, 0xF9, 0xD2, 0xFD, 0xAC, 0x0A, 0x70, 0xF2, 0x8E, 0xFE, 0x39, 0x0B,
         0x41, 0xF9, 0x80, 0x02, 0x7A, 0xF5, 0xBD, 0xFD, 0xDB, 0x10, 0x50, 0xF5, 0xA5, 0x07, 0xA5, 0x0A,
         0x2A, 0xFC, 0x5C, 0xF2, 0x9C, 0xE9, 0xDF, 0x29, 0x94, 0x07, 0xB1, 0xC3, 0x6B, 0x1A, 0x40, 0x32,
         0xDC, 0xD9, 0xF3, 0xD9, 0x9F, 0x27, 0xAF, 0x1F, 0xA0, 0xC9, 0xEF, 0xE8, 0x80, 0x51, 0x36, 0xFF,
         0x34, 0xA4, 0xC7, 0x31, 0x6C, 0x4D, 0x60, 0xA7, 0x22, 0xD4, 0x1B, 0x49, 0x72, 0xFE, 0x37, 0xE2,
         0xB0, 0xFB, 0xB8, 0x14, 0x97, 0x34, 0xD7, 0xD7, 0x2A, 0xD7, 0x27, 0x24, 0x3D, 0xFD, 0xF1, 0xF3,
         0x4B, 0x08, 0x89, 0x03, 0xBD, 0xE8, 0x83, 0xF4, 0x79, 0x3A, 0xCE, 0x0A, 0x39, 0xB8, 0x7E, 0x0F,
         0x57, 0x43, 0x4D, 0xD9, 0x59, 0xCA, 0x92, 0x19, 0xC5, 0x20, 0x4B, 0x03, 0xC2, 0xEA, 0xAF, 0xED,
         0x3F, 0x13, 0xEE, 0x07, 0x2B, 0xF7, 0xC6, 0x11, 0x38, 0xF1, 0xFB, 0xF0, 0xC1, 0x19, 0xD3, 0xF8,
         0xA3, 0xEA, 0xB3, 0x00, 0xBB, 0x29, 0x4B, 0xF3, 0xA2, 0xBE, 0x71, 0x47, 0x0D, 0x25, 0x54, 0xA9,
         0xCB, 0x07, 0x0A, 0x25, 0xBB, 0xEE, 0xF3, 0x01, 0x26, 0x01, 0xCE, 0xF8, 0xEB, 0x13, 0x15, 0x03,
         0x90, 0xE4, 0x89, 0xF7, 0xF6, 0x17, 0x4C, 0x09, 0xE7, 0xDD, 0x82, 0x10, 0x86, 0x27, 0x06, 0xE4,
         0x3F, 0xF2, 0x7E, 0xFA, 0xF0, 0xF0, 0x70, 0x21, 0xEE, 0x15, 0x7D, 0xDF, 0x6F, 0xEB, 0x4A, 0x1F,
         0xBD, 0x0C, 0xA9, 0xE7, 0xCE, 0x04, 0x29, 0xFE, 0xC4, 0xF9, 0x7A, 0x14, 0x1D, 0xF1, 0x5A, 0xEC,
         0xBA, 0x1C, 0x70, 0x15, 0xF2, 0xE0, 0xB1, 0xE7, 0x8D, 0x21, 0x59, 0x0A, 0x12, 0xE7, 0x48, 0x05,
         0xA3, 0x04, 0x07, 0xFF, 0xEF, 0x09, 0x2A, 0xEE, 0xD6, 0xF2, 0xAA, 0x1C, 0xDD, 0x05, 0x99, 0xEE,
         0xF1, 0x08, 0x36, 0xFC, 0x0F, 0xEF, 0x43, 0x11, 0xFC, 0x08, 0x74, 0xE9, 0x8D, 0x04, 0x3D, 0x14,
         0x7D, 0xF4, 0xD4, 0xF1, 0x9C, 0x11, 0x29, 0x05, 0x0B, 0xEC, 0x91, 0x0C, 0x7D, 0xFF, 0x16, 0xEA,
         0x8B, 0x1B, 0xF3, 0x04, 0x9B, 0xE5, 0x73, 0x19, 0xA8, 0x00, 0x38, 0xD3, 0xF5, 0x15, 0x51, 0x25,
         0xE6, 0xE9, 0x91, 0xEE, 0x69, 0x05, 0x6D, 0x0A, 0x5A, 0x01, 0xC3, 0xF6, 0x84, 0xFC, 0x56, 0x08,
         0xC3, 0x15, 0x30, 0xED, 0x67, 0xE6, 0x17, 0x15, 0xB1, 0xFE, 0xDC, 0xFF, 0x41, 0x0C, 0x5C, 0xEE,
         0x09, 0x05, 0xB7, 0x0D, 0xFE, 0xE8, 0x7B, 0x04, 0x24, 0x15, 0xD3, 0x01, 0x95, 0x00, 0x75, 0xD3,
         0x07, 0x29, 0xC8, 0x14, 0x4B, 0x86, 0xCC, 0x34, 0x61, 0x6C, 0x42, 0x03, 0xA8, 0x0F, 0xCF, 0x91,
         0x08, 0xF9, 0x13, 0x53, 0x06, 0x93, 0x85, 0x05, 0x57, 0x77, 0x7F, 0xBC, 0xED, 0xC0, 0xAB, 0x3D,
         0xB4, 0x0D, 0x31, 0x0E, 0x80, 0xB6, 0x21, 0xF8, 0xB8, 0x4D, 0x6E, 0xBA, 0x89, 0x20, 0xAF, 0x24,
         0x22, 0xA1, 0x7B, 0x55, 0x0B, 0x37, 0xBF, 0x88, 0x7F, 0x1C, 0x7E, 0x4A, 0x57, 0xAB, 0xE8, 0x27,
         0x99, 0x36, 0x40, 0xBF, 0x30, 0xFD, 0x85, 0x29, 0x66, 0x14, 0x6F, 0xE0, 0xAF, 0xBE, 0x50, 0x1C,
         0x87, 0x36, 0xD4, 0xC9, 0x39, 0xF0, 0x1B, 0x41, 0xD3, 0x0C, 0xF7, 0xEC, 0x73, 0xEE, 0xCE, 0xF5,
         0x87, 0x0A, 0x5F, 0x05, 0x8C, 0xF6, 0xB4, 0xED, 0x80, 0xF2, 0x42, 0x1D, 0xBD, 0x21, 0x59, 0xE8,
         0xF2, 0xF0, 0xC5, 0x21, 0x77, 0x15, 0xCB, 0xCB, 0xCF, 0xD9, 0xF0, 0x38, 0xCB, 0xF2, 0x1B, 0xCF,
         0x3B, 0x3C, 0xA4, 0x1D, 0x02, 0xDD, 0xC7, 0xEE, 0xC1, 0xFA, 0x7D, 0x21, 0xB9, 0x13, 0x9A, 0xD2,
         0x9C, 0x06, 0xBF, 0x03, 0xC2, 0xD6, 0xE8, 0x33, 0x6F, 0x0A, 0x97, 0xC5, 0xB5, 0x2B, 0xEA, 0x25,
         0x3C, 0xD1, 0x14, 0xE7, 0x44, 0x1B, 0x77, 0x14, 0xAF, 0xF2, 0x4B, 0xF0, 0x41, 0x03, 0x7E, 0xFB,
         0x25, 0xFA, 0xA8, 0x0E, 0xB4, 0x01, 0xDC, 0x01, 0xE5, 0x18, 0x8E, 0xF6, 0x8C, 0xE4, 0x6A, 0x03,
         0x32, 0xF3, 0x9B, 0x07, 0x1C, 0x20, 0x76, 0xDA, 0x5F, 0xFB, 0x0D, 0x43, 0x94, 0xE8, 0xA3, 0xB6,
         0xE4, 0x1F, 0xC9, 0x3E, 0x31, 0xE2, 0xEB, 0xD1, 0xBD, 0x1D, 0x30, 0x1A, 0x6B, 0xDC, 0xFD, 0x01,
         0xD1, 0x0D, 0x6F, 0xEC, 0x22, 0x1F, 0x2D, 0x03, 0xC7, 0xE0, 0xC5, 0x08, 0xF7, 0xFC, 0xAA, 0x09,
         0xC0, 0x04, 0xE2, 0xE6, 0x85, 0x0C, 0x88, 0x1E, 0x2E, 0xF5, 0xB1, 0xD2, 0x3D, 0xFF, 0x68, 0x3E,
         0xDB, 0x03, 0x7D, 0xC1, 0xFF, 0x0F, 0xE0, 0x1F, 0x8A, 0xDD, 0x04, 0xFE, 0x4E, 0x0E, 0x1B, 0x0C,
         0x91, 0x04, 0x35, 0xEB, 0xBD, 0x0A, 0x35, 0xFB, 0xCA, 0xF1, 0xD8, 0x0D, 0x17, 0xFB, 0x5E, 0x08,
         0xFF, 0x09, 0x32, 0xEA, 0xD3, 0x02, 0x11, 0x08, 0x38, 0xF8, 0x56, 0x1C, 0x42, 0xF2, 0x9A, 0xCC,
         0xA6, 0x22, 0xFB, 0x21, 0xB0, 0xE9, 0xFC, 0xF1, 0xA5, 0xF3, 0x0F, 0x17, 0x71, 0x2A, 0x86, 0xD7,
         0x1B, 0xDF, 0xD4, 0x27, 0xCA, 0xFC, 0x61, 0xEC, 0x05, 0x05, 0x83, 0xFD, 0x6D, 0x12, 0xBB, 0x03,
         0xFD, 0xE3, 0xE7, 0x0E, 0x3C, 0x11, 0xE4, 0xF5, 0x43, 0x04, 0xD1, 0xE5, 0x0A, 0x09, 0x69, 0x22,
         0x0F, 0xD0, 0x8F, 0xFA, 0x6A, 0x28, 0x11, 0xEE, 0xF0, 0xF6, 0x5F, 0x15, 0xC0, 0x03, 0xB2, 0xFC,
         0x64, 0x06, 0x31, 0xEE, 0x58, 0xE2, 0xE2, 0x12, 0x12, 0x20, 0x97, 0xE9, 0xEA, 0xF5, 0x34, 0x1E,
         0xDE, 0xF0, 0x5C, 0xF3, 0x32, 0x0F, 0xF9, 0xFF, 0xA0, 0x01, 0xDE, 0xEC, 0xD8, 0x08, 0xE5, 0x14,
         0x74, 0xDE, 0x18, 0x08, 0x70, 0x1C, 0x8E, 0xE6, 0xBC, 0xF9, 0x39, 0x18, 0x86, 0xFC, 0x11, 0xEE,
         0x3A, 0xFE, 0x3C, 0x12, 0x19, 0x03, 0xE3, 0xE3, 0x9F, 0x05, 0xCF, 0x11, 0x0F, 0x08, 0x6B, 0x0B,
         0xD0, 0xD4, 0xBF, 0xF3, 0x5A, 0x39, 0xCB, 0xE3, 0x7F, 0xCF, 0x7B, 0x3F, 0x84, 0x20, 0x49, 0xD1,
         0xE4, 0xF4, 0xDF, 0x00, 0xD3, 0x00, 0x85, 0x15, 0xA5, 0xF3, 0xFA, 0xEA, 0x0B, 0x12, 0xF7, 0x0E,
         0x95, 0x05, 0xAA, 0xF4, 0x5C, 0xE4, 0xE0, 0x16, 0xF6, 0x17, 0x53, 0xDB, 0xC3, 0xEA, 0x41, 0x1D,
         0x57, 0x17, 0xC4, 0xF4, 0xED, 0xF3, 0xF8, 0xFF, 0x56, 0x03, 0x3C, 0x05, 0x9A, 0xF6, 0x59, 0xF9,
         0x2E, 0x13, 0x2B, 0x00, 0x0B, 0xEA, 0xBF, 0x0A, 0x15, 0x09, 0x1D, 0xFA, 0x88, 0x04, 0x74, 0xEA,
         0x14, 0x04, 0x18, 0x26, 0xEA, 0xEF, 0xC1, 0xE6, 0x4A, 0x0A, 0x53, 0x05, 0x79, 0xFD, 0x27, 0x01,
         0xD7, 0x00, 0x00, 0x06, 0x1D, 0x07, 0x03, 0xF9, 0x9E, 0xF1, 0xBA, 0xF8, 0xFF, 0x07, 0x50, 0x0B,
         0xD5, 0xF9, 0xE1, 0xFB, 0x67, 0x10, 0x2A, 0x05, 0x4E, 0xEE, 0x62, 0x02, 0xB8, 0x0B, 0xF2, 0xF1,
         0x1C, 0xFC, 0x2D, 0xFB, 0x3D, 0xF4, 0x68, 0x1E, 0xD2, 0x10, 0x8A, 0xE0, 0x1C, 0xFB, 0x0B, 0x1B,
         0xF8, 0x03, 0x99, 0xE9, 0xAB, 0xEA, 0xAE, 0x0A, 0xC7, 0x1E, 0x10, 0xFF, 0x03, 0xEE, 0x72, 0xFA,
         0x31, 0x00, 0x05, 0x0A, 0x7F, 0x01, 0xA0, 0xF3, 0x46, 0x09, 0xF5, 0x0B, 0x8A, 0xF3, 0x6D, 0xF8,
         0xFE, 0xFE, 0x75, 0x06, 0x12, 0x12, 0x11, 0xF4, 0x50, 0xEA, 0xA3, 0x14, 0x7C, 0x0E, 0xAE, 0xE6,
         0x06, 0xF0, 0xDE, 0x10, 0xCD, 0x19, 0x63, 0xF9, 0xD7, 0xE5, 0xF7, 0x0A, 0xB0, 0x0E, 0x39, 0xEB,
         0x36, 0x01, 0xC6, 0x12, 0x2F, 0xF7, 0xCD, 0x01, 0x13, 0xFF, 0xC5, 0xDA, 0xE5, 0x0F, 0xA2, 0x3B,
         0x3B, 0xE8, 0x8E, 0xD2, 0xB4, 0x19, 0x12, 0x0D, 0xFC, 0xEA, 0x24, 0x07, 0x16, 0x08, 0x43, 0xFE,
         0x2A, 0x05, 0x3B, 0xED, 0x8D, 0xF5, 0x54, 0x16, 0x2B, 0x0A, 0xDE, 0xFC, 0x93, 0xF5, 0x75, 0xF0,
         0xD2, 0x0D, 0x5C, 0x15, 0x6E, 0xF3, 0x11, 0xF1, 0xC9, 0xFF, 0x9B, 0x09, 0x1B, 0x08, 0xF5, 0xF1,
         0xF5, 0xFD, 0x66, 0x0A, 0x10, 0xFD, 0x9E, 0x0B, 0x88, 0x00, 0x91, 0xDF, 0x85, 0x05, 0x40, 0x1B,
         0x94, 0xF3, 0xE7, 0x00, 0xF0, 0x10, 0xE3, 0xE7, 0xDB, 0xF4, 0x8F, 0x16, 0x97, 0xFA, 0xD2, 0xF7,
         0x1E, 0x0C, 0x71, 0xFF, 0x7C, 0x00, 0x57, 0x03, 0x0D, 0xF7, 0x5A, 0x01, 0x66, 0xFD, 0xDE, 0xF2,
         0x91, 0x10, 0x81, 0x09, 0x2E, 0xF4, 0xBD, 0x08, 0xB8, 0x01, 0x43, 0xF1, 0x09, 0xF9, 0xB8, 0x05,
         0xFD, 0x17, 0x5B, 0x01, 0x03, 0xD9, 0x30, 0x01, 0xD8, 0x23, 0xF6, 0xF6, 0xCC, 0xF0, 0xBD, 0x0C,
         0x72, 0x01, 0xC6, 0xF8, 0xBD, 0xFE, 0xE9, 0xFE, 0x86, 0x04, 0x81, 0xFE, 0xE2, 0xF8, 0xE1, 0x08,
         0xCB, 0x04, 0x86, 0xF8, 0xFE, 0x02, 0xD4, 0x02, 0xC9, 0xF8, 0x35, 0xFF, 0xE9, 0x05, 0xAE, 0x01,
         0x25, 0xF8, 0xA5, 0xFC, 0xA6, 0x0E, 0xBC, 0xFA, 0xF6, 0xED, 0x11, 0x10, 0xE7, 0x0C, 0x63, 0xF0,
         0x27, 0xFF, 0xB3, 0x0C, 0x3E, 0xFE, 0x80, 0xF9, 0x1E, 0xF3, 0xFE, 0xF0, 0xB3, 0x16, 0xAD, 0x21,
         0xFC, 0xEC, 0xB0, 0xE3, 0xF8, 0x12, 0x7F, 0x08, 0x19, 0xED, 0x96, 0x05, 0x70, 0x09, 0x98, 0xFD,
         0x98, 0xFB, 0x6E, 0xF2, 0xDE, 0x07, 0x18, 0x13, 0xEC, 0xF9, 0x9A, 0xF9, 0x03, 0xFF, 0x3F, 0xF7,
         0x50, 0x08, 0x3E, 0x0C, 0x4E, 0xF3, 0x77, 0xF7, 0x3A, 0x0D, 0xF5, 0x0B, 0x11, 0xEE, 0x73, 0xF0,
         0xC9, 0x15, 0x08, 0xFF, 0xED, 0xF1, 0xD6, 0x17, 0x25, 0x02, 0xDF, 0xE4, 0xFA, 0x0A, 0x83, 0x0B,
         0xB2, 0xEE, 0x3D, 0x06, 0xAE, 0x09, 0xCE, 0xED, 0x92, 0xFD, 0xF1, 0x13, 0xDF, 0x01, 0x1A, 0xF2,
         0x7C, 0xFF, 0x05, 0x0A, 0xDB, 0x00, 0x3A, 0xF8, 0x2D, 0x00, 0x97, 0x01, 0x56, 0xF8, 0x56, 0xFE,
         0x79, 0x0A, 0xD8, 0x05, 0xA3, 0x01, 0x26, 0xFA, 0x2F, 0xFA, 0x9E, 0x04, 0x5E, 0xF6, 0xEB, 0xFD,
         0xB8, 0x11, 0xB9, 0xFA, 0xD3, 0xF5, 0xB8, 0x09, 0x40, 0x03, 0x15, 0xFA, 0x86, 0x00, 0xD0, 0xFE,
         0xC6, 0x01, 0x21, 0x03, 0xC1, 0xFD, 0xC0, 0xFE, 0x87, 0xFC, 0x10, 0xFB, 0x28, 0xFD, 0x85, 0x0C,
         0xBC, 0x0F, 0x45, 0xF1, 0x04, 0xF6, 0xA7, 0x0C, 0x4B, 0xFE, 0x8D, 0xF5, 0x0A, 0x04, 0xDB, 0x05,
         0x2C, 0xF9, 0xEC, 0xFD, 0x37, 0x0E, 0xEE, 0xFD, 0x37, 0xEF, 0x2C, 0x06, 0x09, 0x0A, 0x20, 0xFB,
         0x71, 0x00, 0xA7, 0xFA, 0x42, 0x04, 0x92, 0x10, 0x4E, 0xEE, 0x39, 0xED, 0x03, 0x11, 0xEB, 0x07,
         0xF0, 0xF8, 0xF7, 0xFE, 0xC4, 0x02, 0xAA, 0x05, 0x66, 0x07, 0x46, 0xEF, 0xA7, 0xF1, 0x3C, 0x1F,
         0xA7, 0xFC, 0x32, 0xD2, 0x35, 0x1E, 0x36, 0x26, 0x6C, 0xE4, 0x33, 0x07, 0xAC, 0xFA, 0xDD, 0xC5,
         0xAC, 0x27, 0xF1, 0x2D, 0x51, 0xC4, 0x59, 0x00, 0x33, 0x52, 0x12, 0xFD, 0xED, 0xA6, 0xAE, 0xEE,
         0x5F, 0x50, 0x43, 0xEF, 0x92, 0xAA, 0x5E, 0x41, 0x8E, 0x59, 0x68, 0xC8, 0xDD, 0xCF, 0xF4, 0x0A,
         0x55, 0xEC, 0x25, 0x1A, 0x97, 0x1A, 0xFD, 0xD5, 0xF0, 0x14, 0xE9, 0x3D, 0x27, 0xD4, 0xCB, 0xC0,
         0x01, 0x04, 0x96, 0x12, 0xE1, 0x22, 0x65, 0x20, 0xBA, 0xDC, 0xBC, 0xE5, 0xEB, 0x1A, 0xCE, 0x03,
         0xCF, 0xD8, 0x6D, 0xEF, 0xA9, 0x24, 0xA0, 0x20, 0x44, 0xFC, 0xFC, 0xE9, 0x20, 0xED, 0x69, 0x16,
         0x94, 0x0F, 0x14, 0xD9, 0x1B, 0xF9, 0x8E, 0x1F, 0xC4, 0xFA, 0x4E, 0xFB, 0xA6, 0xFF, 0x40, 0xF8,
         0x55, 0x17, 0xD6, 0x01, 0x33, 0xFA, 0x4F, 0x0E, 0x73, 0xDD, 0x6E, 0xEA, 0x26, 0x17, 0xC1, 0xFD,
         0x4A, 0x10, 0x8D, 0x19, 0xDE, 0xE6, 0xDF, 0xF7, 0x37, 0x08, 0x4B, 0xF0, 0x66, 0x06, 0xD8, 0x05,
         0x69, 0xF8, 0xE2, 0x10, 0xC9, 0xFE, 0x32, 0xEF, 0xCF, 0x0F, 0xFB, 0xF7, 0x2E, 0xE6, 0x41, 0x1E,
         0x9E, 0x0D, 0x12, 0xD1, 0x5D, 0x0C, 0x1E, 0x36, 0x18, 0xEA, 0xE5, 0xE8, 0x9C, 0x12, 0x11, 0xE9,
         0xD7, 0xF6, 0x8A, 0x1E, 0x73, 0xED, 0x4B, 0xF0, 0x1C, 0x2B, 0x81, 0xFD, 0x0B, 0xE2, 0x78, 0x20,
         0xA0, 0xFC, 0x53, 0xCA, 0x35, 0x1E, 0x87, 0x1D, 0xA4, 0xE0, 0x04, 0x2E, 0xD1, 0xFF, 0xA5, 0x87,
         0x69, 0x29, 0x6B, 0x62, 0x21, 0xB3, 0x8C, 0xEC, 0xE4, 0x7B, 0x6D, 0xFA, 0x00, 0x80, 0xC7, 0xF9,
         0x92, 0x76, 0x7E, 0xD6, 0xAF, 0x95, 0xEF, 0x4F, 0xB2, 0x57, 0xB8, 0xAB, 0x84, 0xB6, 0x53, 0x12,
         0xBA, 0xD5, 0xCB, 0x24, 0x44, 0x42, 0x1E, 0xC3, 0xC8, 0x0C, 0xAC, 0x5B, 0x06, 0xBE, 0x38, 0xA7,
         0x1A, 0x0C, 0x3D, 0x0D, 0xE5, 0x37, 0xCB, 0x47, 0x8C, 0xB3, 0x02, 0xC2, 0x22, 0x48, 0x28, 0x11,
         0x1B, 0xB2, 0x5D, 0xE0, 0xD4, 0x34, 0x95, 0x48, 0x74, 0x0A, 0x2B, 0xBA, 0xB7, 0xD4, 0x94, 0x38,
         0xBF, 0x22, 0x78, 0xC5, 0x47, 0xE1, 0xBC, 0x2C, 0x1D, 0x13, 0x2A, 0xEE, 0xD8, 0xE6, 0xC7, 0x06,
         0xD1, 0x32, 0x8E, 0xF8, 0x24, 0xF1, 0x88, 0x19, 0xE2, 0xCD, 0xC4, 0xDE, 0x6F, 0x2B, 0x5B, 0xED,
         0x20, 0x01, 0x70, 0x48, 0x6F, 0xE7, 0x91, 0xD3, 0x93, 0x0F, 0x90, 0xF8, 0x5C, 0x08, 0x0C, 0x07,
         0xF0, 0xF4, 0x12, 0x1F, 0x1F, 0xEE, 0xAA, 0xD6, 0x08, 0x36, 0x7F, 0xFA, 0x63, 0xC2, 0x68, 0x38,
         0x4E, 0x13, 0xED, 0xB6, 0xEF, 0x16, 0x87, 0x3B, 0xB1, 0xE2, 0x3F, 0xFC, 0x54, 0x22, 0x54, 0xD3,
         0xF3, 0xE6, 0x29, 0x2C, 0x0A, 0xE2, 0xD4, 0xD4, 0x50, 0x36, 0x94, 0x2B, 0x45, 0xEF, 0x98, 0xF4,
         0x38, 0xF8, 0x4F, 0xF7, 0xDD, 0x07, 0x54, 0xEB, 0x77, 0xEF, 0x8E, 0x4C, 0xE8, 0x15, 0xB8, 0x89,
         0x68, 0xF4, 0xF9, 0x68, 0x27, 0xE9, 0x12, 0xCC, 0x64, 0x4D, 0xB4, 0x0C, 0x5C, 0x97, 0xBF, 0x0D,
         0xD1, 0x58, 0x1E, 0xC7, 0x56, 0xBC, 0x8B, 0x55, 0xA7, 0x2F, 0x68, 0xC7, 0xE0, 0x05, 0x34, 0x05,
         0x78, 0xB1, 0x02, 0x16, 0xE7, 0x58, 0x09, 0xE0, 0x57, 0xD5, 0xC6, 0x29, 0xE4, 0x07, 0x10, 0xE6,
         0x72, 0xFA, 0xCA, 0xFB, 0xE8, 0x17, 0xA8, 0x24, 0x3E, 0xC2, 0x6E, 0xC2, 0xD1, 0x49, 0xA4, 0x2F,
         0x6F, 0xCC, 0xED, 0xEC, 0x55, 0x14, 0xBF, 0x28, 0xAF, 0x1E, 0x91, 0xB6, 0x94, 0xB4, 0x16, 0x3D,
         0x41, 0x3A, 0x64, 0xDC, 0xE3, 0xE6, 0xF3, 0x23, 0x9B, 0x1D, 0x1B, 0xD9, 0x99, 0xCE, 0x46, 0x0F,
         0x9F, 0x32, 0x13, 0x0C, 0x14, 0xE5, 0xA9, 0xF9, 0x30, 0xFF, 0xED, 0xFB, 0x18, 0x0C, 0x1A, 0xF0,
         0x31, 0xEF, 0xEA, 0x2D, 0x03, 0x0D, 0xB9, 0xCB, 0x3A, 0xFB, 0x37, 0x20, 0x37, 0x0A, 0xA9, 0xEF,
         0x6A, 0xEB, 0x4B, 0x20, 0x68, 0x04, 0x90, 0xD9, 0x61, 0x1C, 0x59, 0x06, 0x36, 0xE5, 0x60, 0x15,
         0x14, 0xF4, 0x20, 0xE8, 0x46, 0x1D, 0xD3, 0x07, 0x4B, 0xE6, 0x58, 0x11, 0xC2, 0x21, 0xB0, 0xEE,
         0x18, 0xE4, 0xE4, 0x0C, 0xA8, 0xFB, 0xC5, 0xDF, 0x0D, 0x10, 0xAB, 0x1C, 0x00, 0xFB, 0xAB, 0x01,
         0xF4, 0x01, 0x13, 0xFD, 0xF3, 0x02, 0xFC, 0xEB, 0x26, 0xF1, 0x2A, 0x28, 0x7E, 0x0D, 0x72, 0xC7,
         0x4E, 0xFB, 0xA2, 0x35, 0xE6, 0xF6, 0x74, 0xE9, 0x01, 0x21, 0x62, 0xFB, 0x4F, 0xD7, 0x47, 0x13,
         0xDB, 0x11, 0x0F, 0xDC, 0xF2, 0xFC, 0x5B, 0x23, 0x13, 0x02, 0x10, 0xF7, 0x2D, 0x18, 0x61, 0xF7,
         0x43, 0xC5, 0x56, 0x0B, 0x22, 0x3A, 0xF1, 0xEA, 0xE9, 0xD7, 0xC1, 0x15, 0x6C, 0x15, 0x03, 0x04,
         0x4B, 0xFD, 0xC4, 0xF3, 0xC8, 0x06, 0x8A, 0xF9, 0x50, 0xEA, 0x40, 0xFA, 0x6C, 0x11, 0x0D, 0x1F,
         0x8B, 0xEF, 0x94, 0xF3, 0x17, 0x0A, 0x23, 0xFB, 0xF2, 0x24, 0xE5, 0xED, 0xC1, 0xBC, 0x46, 0x1F,
         0xAC, 0x20, 0x91, 0xEB, 0xB8, 0xF9, 0xFC, 0x19, 0xFC, 0x18, 0xD0, 0xD9, 0x55, 0xDE, 0xE5, 0x17,
         0x2A, 0x0E, 0xDE, 0xFF, 0x37, 0xFE, 0x48, 0xFA, 0x40, 0x08, 0x17, 0x03, 0x51, 0xF8, 0x50, 0xFD,
         0x50, 0xEF, 0x18, 0x07, 0x4D, 0x21, 0x8A, 0xEC, 0xA7, 0xEC, 0x8A, 0x1C, 0xE4, 0x04, 0xA0, 0xE3,
         0xBD, 0xF1, 0x89, 0x1E, 0x38, 0x16, 0xB7, 0xE2, 0x67, 0xF3, 0x2D, 0x14, 0x03, 0x09, 0xA8, 0xF1,
         0x95, 0xED, 0xEF, 0x0F, 0x83, 0x13, 0x5B, 0xE9, 0x1F, 0xEF, 0x7C, 0x13, 0x03, 0x12, 0x9D, 0xFF,
         0x8C, 0xF0, 0xB4, 0xFC, 0xFA, 0x0F, 0x45, 0xF7, 0x47, 0xF1, 0x4E, 0x04, 0x32, 0xFB, 0xE8, 0x07,
         0xA1, 0x0D, 0xFB, 0xF6, 0xF5, 0x09, 0xED, 0x02, 0x91, 0xEC, 0x2A, 0x02, 0x1F, 0xFB, 0xFD, 0x03,
         0x4D, 0x09, 0x78, 0xF1, 0xB9, 0x07, 0xE2, 0x0F, 0xBD, 0xFF, 0xAC, 0xF3, 0x35, 0xFA, 0x64, 0x0C,
         0x32, 0xEE, 0x13, 0xF6, 0xD2, 0x16, 0xB9, 0xFA, 0xBD, 0xFC, 0x93, 0x12, 0xB4, 0x04, 0x9F, 0xF1,
         0x54, 0xF1, 0xE9, 0x0B, 0x11, 0x0A, 0x5A, 0xEE, 0x89, 0xF8, 0xC0, 0x0A, 0xCD, 0x02, 0xED, 0x06,
         0xCC, 0xFF, 0x1E, 0xFA, 0x64, 0x0A, 0xEB, 0xEB, 0x98, 0x03, 0x67, 0x1D, 0xFE, 0xE0, 0xA6, 0xFB,
         0xE2, 0x0C, 0x5E, 0xF9, 0xAB, 0x08, 0x63, 0xF0, 0x87, 0x0D, 0xE8, 0x19, 0x9D, 0xEC, 0x27, 0xF8,
         0xCD, 0xFA, 0xDF, 0xF8, 0x0E, 0x06, 0xC4, 0x09, 0xC9, 0x05, 0x09, 0xF2, 0x84, 0xFD, 0xE3, 0x0E,
         0xA3, 0xF8, 0xAC, 0xFA, 0x8F, 0x0F, 0x54, 0xFE, 0xC9, 0xF6, 0xFB, 0x01, 0x2F, 0xFB, 0x3B, 0xFD,
         0xFB, 0xFB, 0x0D, 0xFF, 0xBF, 0x14, 0x5E, 0x03, 0x80, 0xF1, 0xBD, 0x0A, 0xAA, 0xFD, 0x02, 0xE8,
         0xD5, 0x02, 0x06, 0x14, 0x0B, 0x0F, 0xD2, 0xF1, 0x5A, 0xE8, 0x24, 0x0B, 0xB1, 0x06, 0x78, 0xF9,
         0x16, 0x06, 0xFA, 0x06, 0x40, 0x01, 0x51, 0xF8, 0xA8, 0xFB, 0xF9, 0x05, 0x92, 0xFD, 0x55, 0xF6,
         0xD0, 0xFF, 0x67, 0x09, 0x1D, 0x0B, 0xBC, 0xFF, 0xC5, 0xF4, 0xD1, 0x00, 0x0F, 0xFB, 0x7A, 0xFC,
         0xAF, 0x09, 0x06, 0xF6, 0x58, 0x0A, 0xB7, 0x0C, 0x60, 0xF1, 0x32, 0xFD, 0x68, 0xFA, 0x72, 0x15,
         0xA0, 0xFE, 0x19, 0xD8, 0x1E, 0x19, 0x52, 0x0F, 0xAE, 0xF1, 0xE3, 0x06, 0x14, 0xFB, 0xAF, 0xFF,
         0x5A, 0xFC, 0x56, 0x00, 0x4C, 0x0B, 0x39, 0xF6, 0xAE, 0xFC, 0xE1, 0x0A, 0x75, 0xFF, 0x23, 0xF4,
         0x4C, 0x01, 0x95, 0x0E, 0x94, 0xFA, 0x23, 0xFB, 0x46, 0x04, 0x92, 0xF4, 0x03, 0x02, 0x18, 0x09,
         0x01, 0xF6, 0x02, 0x07, 0x13, 0x0C, 0x69, 0xF8, 0x60, 0x05, 0x75, 0x04, 0xD6, 0xE5, 0xB3, 0xF0,
         0x5E, 0x17, 0x30, 0x09, 0x3C, 0xFA, 0x70, 0x06, 0xC2, 0xF5, 0x6B, 0x08, 0x3C, 0x12, 0x8F, 0xE7,
         0x63, 0xF3, 0x2E, 0x10, 0x40, 0x07, 0x16, 0xF6, 0x57, 0xF2, 0x76, 0x08, 0xB8, 0x09, 0xC7, 0xF3,
         0x10, 0x06, 0x7D, 0x19, 0xD5, 0xF8, 0x9B, 0xE6, 0x52, 0x00, 0x6E, 0x0F, 0x30, 0xFE, 0xBF, 0xF1,
         0x0A, 0x02, 0x8E, 0x0B, 0x76, 0x03, 0xC1, 0xF3, 0x59, 0xFB, 0x9A, 0x14, 0xBC, 0xF9, 0x55, 0xF0,
         0x8D, 0x0F, 0x3A, 0x04, 0x3A, 0xFB, 0x00, 0x02, 0x70, 0xFD, 0xA5, 0xF1, 0xA6, 0xF2, 0x44, 0x13,
         0x5C, 0x14, 0xA7, 0xF6, 0xC3, 0xF6, 0x40, 0x05, 0x95, 0x09, 0x5E, 0xFE, 0x63, 0xF0, 0x71, 0xF5,
         0x8E, 0x06, 0xA3, 0x0E, 0x2C, 0x03, 0x76, 0xF9, 0x08, 0xFE, 0xC6, 0xFB, 0x35, 0x02, 0x21, 0x0C,
         0xAA, 0xF9, 0xD9, 0xF4, 0xA5, 0x02, 0x01, 0x06, 0x82, 0xFF, 0xD9, 0xF6, 0x01, 0x0D, 0x3C, 0x0D,
         0xD4, 0xEF, 0x31, 0xFC, 0xFE, 0x00, 0xE9, 0xF6, 0x52, 0x01, 0x1A, 0x0A, 0x63, 0x06, 0xAC, 0xF8,
         0xA3, 0xFE, 0xC3, 0x05, 0x56, 0xFB, 0xA9, 0x01, 0x3B, 0x02, 0x2B, 0xFA, 0xA4, 0x02, 0x7A, 0x00,
         0xC9, 0xF6, 0x9A, 0xFF, 0x3A, 0x0D, 0xA1, 0x07, 0xB5, 0xF6, 0x24, 0xF9, 0xB9, 0x00, 0xB5, 0xF8,
         0x04, 0xFF, 0x56, 0x10, 0x39, 0x08, 0x4F, 0xFD, 0x07, 0x02, 0x67, 0xF6, 0x28, 0xEF, 0xAF, 0xFD,
         0x33, 0x04, 0x27, 0x0C, 0xE9, 0x05, 0x13, 0xF9, 0x26, 0x08, 0x22, 0x08, 0xD3, 0xF6, 0x26, 0xEF,
         0x44, 0xFF, 0x62, 0x13, 0xFC, 0xFB, 0x8F, 0xEF, 0xBE, 0x04, 0x96, 0x0B, 0xAE, 0xFD, 0x78, 0xF9,
         0xC6, 0x10, 0x4E, 0x04, 0x05, 0xE5, 0x2D, 0xFB, 0x73, 0x11, 0x19, 0x02, 0xD4, 0xF7, 0xF2, 0x05,
         0xA2, 0x07, 0xEB, 0xF7, 0xB6, 0xF9, 0x33, 0x02, 0xDF, 0x02, 0x7B, 0xFB, 0x39, 0xFC, 0x3F, 0x07,
         0x04, 0x05, 0x8C, 0x04, 0xEE, 0x01, 0xC6, 0xF9, 0x14, 0xF9, 0x22, 0xF6, 0xC1, 0x00, 0x9C, 0x0B,
         0x8A, 0x00, 0x32, 0xFE, 0x50, 0x05, 0x69, 0x03, 0x84, 0xFF, 0xA6, 0xFB, 0xB6, 0xF7, 0x75, 0xFA,
         0x8B, 0x06, 0x2E, 0x0A, 0x6A, 0xFE, 0x6E, 0xFC, 0xAA, 0xFF, 0x4F, 0xFC, 0xB4, 0x02, 0x65, 0x05,
         0x2F, 0xFA, 0xFF, 0xFB, 0xE8, 0x05, 0xBB, 0x00, 0x15, 0xFC, 0x1F, 0x03, 0x58, 0x05, 0x04, 0xFE,
         0x7C, 0xFB, 0xC8, 0xFF, 0xD2, 0xFA, 0x10, 0xFC, 0x08, 0x09, 0xF0, 0x03, 0x44, 0xFF, 0xAC, 0x04,
         0x1F, 0xFD, 0xF4, 0xF7, 0xA2, 0xFD, 0x21, 0x01, 0xC7, 0x02, 0x16, 0x09, 0x42, 0x04, 0xDD, 0xF2,
         0x51, 0xF9, 0xA4, 0x09, 0x33, 0x03, 0x57, 0xF8, 0xF7, 0xFA, 0xCC, 0x04, 0x56, 0x05, 0x61, 0xFE,
         0xA9, 0x02, 0x34, 0x06, 0x2C, 0xFD, 0x0E, 0xFB, 0xF9, 0xFD, 0x96, 0xFB, 0x2A, 0xFD, 0x6B, 0x02,
         0x25, 0x04, 0xDA, 0xFF, 0x68, 0x02, 0xDF, 0x06, 0x56, 0xFF, 0xCF, 0xFB, 0x5F, 0xF9, 0x15, 0xFE,
         0x63, 0x08, 0xEF, 0xFD, 0xE9, 0xF8, 0x66, 0x02, 0x75, 0x07, 0x1E, 0x01, 0xAE, 0xF7, 0x02, 0x05,
         0x75, 0x06, 0xAE, 0xF4, 0xFE, 0xFC, 0xFA, 0x07, 0x04, 0x00, 0x10, 0xFB, 0xE3, 0x02, 0x86, 0x04,
         0xE2, 0xFB, 0x14, 0x00, 0x6F, 0x02, 0xB4, 0xFC, 0xAD, 0xFF, 0x8C, 0xFE, 0x37, 0xFE, 0x24, 0x06,
         0xB0, 0x03, 0xAA, 0xFA, 0x05, 0xFE, 0x63, 0x05, 0x9A, 0xFC, 0xAE, 0xF6, 0x23, 0x05, 0x10, 0x0B,
         0xAA, 0xFF, 0x82, 0xF8, 0x07, 0xFD, 0xAA, 0x03, 0xA5, 0x01, 0x7B, 0xFC, 0x80, 0xFB, 0xFB, 0x01,
         0x0A, 0x0A, 0xBC, 0x04, 0xDB, 0xFB, 0x4C, 0xF8, 0x24, 0xF8, 0x72, 0x00, 0x98, 0x06, 0xF0, 0x02,
         0x51, 0x01, 0x4B, 0x03, 0x1F, 0x01, 0x5A, 0xFD, 0x19, 0xFB, 0xFE, 0xFC, 0x3D, 0x01, 0x02, 0x00,
         0xFB, 0xFF, 0x9E, 0x00, 0xB1, 0x00, 0x5C, 0x03, 0x96, 0x00, 0x7C, 0x02, 0x10, 0x04, 0xEC, 0xF9,
         0x4D, 0xF6, 0x45, 0xFC, 0x5B, 0x03, 0xAD, 0x04, 0x19, 0x06, 0xC6, 0x08, 0xC6, 0xFB, 0xAD, 0xF4,
         0xFD, 0xFE, 0xFF, 0x01, 0x66, 0xFD, 0xCC, 0xFB, 0x71, 0x04, 0x1E, 0x0D, 0x79, 0x02, 0x7A, 0xF6,
         0xA2, 0xFC, 0x5F, 0x01, 0x9E, 0xFC, 0x9A, 0xFE, 0x4B, 0x04, 0x5C, 0x04, 0xF8, 0xFF, 0xEC, 0xFA,
         0xD3, 0xFB, 0xDB, 0x02, 0x08, 0x06, 0xC4, 0xFE, 0xDE, 0xFC, 0xCD, 0x04, 0x62, 0x01, 0xE9, 0xF8,
         0x45, 0xFC, 0x33, 0x02, 0xCF, 0x02, 0x7D, 0x01, 0x8A, 0x00, 0x1D, 0xFF, 0x0E, 0xFF, 0x0E, 0x01,
         0x3B, 0x01, 0x5A, 0x00, 0xC1, 0xFF, 0x69, 0xFD, 0x9E, 0xFB, 0x25, 0xFE, 0x4F, 0x03, 0xEC, 0x05,
         0x1A, 0x01, 0x44, 0xFD, 0x1B, 0x03, 0x7F, 0x02, 0xEB, 0xF8, 0x7E, 0xFC, 0xE6, 0x04, 0xA8, 0xFE,
         0x1D, 0xF9, 0x71, 0x01, 0x6F, 0x07, 0xA0, 0x00, 0x66, 0xFB, 0x10, 0x04, 0x4E, 0x0B, 0x11, 0xFE,
         0x21, 0xF0, 0xF5, 0xF9, 0x24, 0x06, 0x4C, 0x02, 0xD1, 0xFF, 0xCF, 0x01, 0xCF, 0x00, 0x2E, 0x05,
         0x75, 0x07, 0x9B, 0xFA, 0xC5, 0xF1, 0x82, 0xFC, 0xE6, 0x04, 0x19, 0x01, 0x82, 0x01, 0xD9, 0x05,
         0xAE, 0x05, 0xC7, 0x00, 0x04, 0xFA, 0x4E, 0xFA, 0xE9, 0x00, 0xFF, 0xFF, 0x1B, 0xF9, 0x82, 0xFC,
         0xB4, 0x07, 0x09, 0x09, 0xDF, 0x01, 0x94, 0xFE, 0x9A, 0xFF, 0xCC, 0xFE, 0x58, 0xFB, 0xFC, 0xFB,
         0x9C, 0x01, 0xC3, 0x01, 0x43, 0xFD, 0x2F, 0x00, 0xA2, 0x05, 0x2C, 0x02, 0x65, 0xFB, 0x1D, 0xFD,
         0x22, 0x07, 0xF1, 0x05, 0x9D, 0xF6, 0xA0, 0xF7, 0x4F, 0x08, 0xA0, 0x05, 0x49, 0xF7, 0x5E, 0xFB,
         0xAD, 0x05, 0x70, 0x04, 0x00, 0x01, 0xC6, 0xFE, 0x00, 0xFD, 0xA8, 0x00, 0xBD, 0x01, 0xC2, 0xFD,
         0xA8, 0xFD, 0x2F, 0xFF, 0x9C, 0x00, 0xCB, 0x04, 0xE6, 0x03, 0xA3, 0xFD, 0xF6, 0xFB, 0xE2, 0xFD,
         0x1F, 0x00, 0x03, 0x02, 0x6D, 0x00, 0x3E, 0x00, 0x9D, 0x02, 0x44, 0xFF, 0x7A, 0xFC, 0x23, 0x01,
         0xBE, 0x00, 0xAA, 0xFC, 0x09, 0x01, 0xD1, 0x02, 0xD0, 0xFD, 0x51, 0x01, 0x0B, 0x06, 0xCD, 0xFE,
         0x1A, 0xFA, 0x09, 0xFE, 0xCC, 0xFD, 0xDE, 0xFE, 0xD3, 0x06, 0x9B, 0x05, 0xD1, 0xFB, 0x99, 0xFC,
         0x7D, 0x03, 0x95, 0x01, 0x8D, 0xFB, 0x79, 0xFB, 0x6C, 0x01, 0x91, 0x06, 0x38, 0x02, 0x65, 0xF8,
         0x52, 0xF9, 0x4C, 0x06, 0x3F, 0x0B, 0x53, 0x00, 0x9F, 0xF7, 0xD3, 0xFD, 0x5D, 0x04, 0xB4, 0xFE,
         0x4F, 0xF9, 0x8B, 0xFC, 0x4F, 0x01, 0x07, 0x08, 0x9B, 0x0A, 0x2A, 0xFE, 0x29, 0xF6, 0xD5, 0xFF,
         0x51, 0x01, 0x2D, 0xF9, 0xEA, 0x00, 0xAF, 0x09, 0x21, 0xFF, 0x39, 0xF8, 0x1A, 0x01, 0x43, 0x06,
         0x98, 0x00, 0x0A, 0xFB, 0x03, 0xFF, 0xFC, 0x05, 0xBD, 0x00, 0xFC, 0xF7, 0x9E, 0xFC, 0x5A, 0x03,
         0x2E, 0x04, 0xF7, 0x05, 0xC3, 0x00, 0x23, 0xF8, 0x19, 0xFC, 0xA0, 0xFF, 0x86, 0xFC, 0xB0, 0x04,
         0x8B, 0x0B, 0x68, 0x01, 0x38, 0xFB, 0x42, 0xFD, 0x99, 0xFA, 0x17, 0xFC, 0xE4, 0x01, 0xA7, 0x02,
         0xF1, 0x03, 0x05, 0x01, 0x8C, 0xFB, 0x0E, 0x04, 0xF1, 0x08, 0x97, 0xFA, 0xF0, 0xF6, 0x64, 0x00,
         0x48, 0xFE, 0x2C, 0xFF, 0x90, 0x06, 0x09, 0xFF, 0x41, 0xFC, 0xF4, 0x08, 0xD9, 0x05, 0x11, 0xF8,
         0x3E, 0xF9, 0x49, 0xFF, 0x2D, 0x02, 0xEF, 0x02, 0x73, 0xFC, 0x2D, 0xFE, 0x46, 0x0A, 0x94, 0x03,
         0xBB, 0xF4, 0x27, 0xFC, 0xF4, 0x05, 0xDC, 0xFF, 0xF3, 0xFC, 0x9B, 0x02, 0xBC, 0x05, 0xBD, 0x01,
         0x59, 0xF9, 0xED, 0xF9, 0xC8, 0x03, 0xA0, 0x03, 0x2D, 0xFD, 0x59, 0xFF, 0x6A, 0x00, 0xC7, 0xFD,
         0x85, 0x03, 0x1A, 0x07, 0x0E, 0xFE, 0xCC, 0xFA, 0x11, 0x02, 0x1D, 0x00, 0x39, 0xF8, 0x00, 0xFC,
         0xF5, 0x05, 0x41, 0x06, 0x6D, 0x00, 0x82, 0x01, 0x78, 0x01, 0x30, 0xFB, 0x8A, 0xFC, 0xB1, 0x01,
         0x72, 0xFF, 0xFB, 0xFC, 0xDA, 0xFE, 0xE6, 0x02, 0xB3, 0x06, 0x42, 0x01, 0xFF, 0xF9, 0x62, 0x01,
         0xFE, 0x05, 0xEE, 0xF9, 0x6B, 0xF7, 0xC7, 0x02, 0x09, 0x04, 0x11, 0x00, 0x1E, 0x01, 0xF5, 0xFF,
         0xC9, 0x00, 0x99, 0x02, 0x89, 0xFD, 0x8E, 0xFF, 0x81, 0x05, 0x31, 0xFD, 0x35, 0xF7, 0xF5, 0xFC,
         0x14, 0xFE, 0x3D, 0x02, 0x3F, 0x0C, 0x0C, 0x07, 0xB1, 0xFC, 0xA7, 0xFE, 0xAB, 0xFC, 0x1E, 0xF8,
         0x54, 0xFD, 0x6C, 0xFF, 0x5F, 0x01, 0xC4, 0x07, 0x6C, 0x03, 0x87, 0xFD, 0x47, 0x01, 0x40, 0x00,
         0xB8, 0xFA, 0x70, 0xFF, 0x9A, 0x04, 0x8A, 0xFD, 0x8C, 0xF9, 0x2E, 0xFE, 0x41, 0x02, 0x9F, 0x07,
         0xD5, 0x08, 0xAC, 0xFF, 0xFC, 0xF8, 0x5D, 0xFB, 0x2F, 0xFE, 0xFF, 0xFD, 0x6C, 0xFD, 0xF4, 0x00,
         0xDC, 0x07, 0x8E, 0x05, 0xDB, 0xFA, 0x1D, 0xFA, 0xDD, 0x05, 0xA7, 0x07, 0xB9, 0xFA, 0xB9, 0xF9,
         0x81, 0x00, 0x77, 0xFD, 0x12, 0xFF, 0xE1, 0x03, 0xF9, 0xFE, 0xB0, 0x00, 0x99, 0x08, 0x39, 0x00,
         0x16, 0xF6, 0xAD, 0xFF, 0x48, 0x05, 0x69, 0xFD, 0xD8, 0xFD, 0x6F, 0x01, 0x50, 0x00, 0xFA, 0x00,
         0xE2, 0xFE, 0x5D, 0xFE, 0x29, 0x04, 0xC9, 0x02, 0x7A, 0xFE, 0xFD, 0x00, 0x2D, 0xFB, 0xB7, 0xF4,
         0xB4, 0x02, 0x8A, 0x0D, 0xBF, 0x02, 0x6D, 0xFB, 0x55, 0x00, 0xB8, 0x00, 0x7D, 0xFB, 0xF3, 0xFA,
         0x9B, 0x01, 0x43, 0x06, 0x75, 0x02, 0x1A, 0xFC, 0xBB, 0xFB, 0xF9, 0x01, 0xA5, 0x05, 0x9B, 0xFF,
         0xC0, 0xFA, 0x4A, 0xFF, 0x35, 0x02, 0x6C, 0x03, 0xDF, 0xFE, 0x74, 0xF9, 0xA3, 0x02, 0x9D, 0x03,
         0xDB, 0xFD, 0x85, 0x03, 0x17, 0x00, 0x6A, 0xFA, 0x87, 0x01, 0xB1, 0x00, 0xB8, 0xFD, 0xD5, 0x02,
         0x86, 0xFD, 0xCA, 0xFD, 0x4B, 0x08, 0xB3, 0x02, 0xA3, 0xFB, 0x90, 0xFD, 0xC0, 0xFC, 0x80, 0x00,
         0x50, 0x04, 0x2F, 0xFC, 0x06, 0xFC, 0xC6, 0x07, 0xCD, 0x05, 0xD7, 0xFA, 0xAF, 0xFB, 0x39, 0x02,
         0x72, 0x01, 0x34, 0xFC, 0x63, 0xFD, 0x71, 0x04, 0x18, 0x04, 0x24, 0xFF, 0x6E, 0xFD, 0xE4, 0xFC,
         0x3C, 0x01, 0x61, 0x04, 0xAF, 0xFD, 0xBD, 0xFA, 0x26, 0x03, 0xC9, 0x06, 0x9D, 0xFF, 0xBE, 0xFB,
         0x8C, 0xFC, 0x68, 0xFE, 0x0D, 0x04, 0x19, 0x02, 0x05, 0xFC, 0xD8, 0xFF, 0x64, 0x03, 0x2D, 0x02,
         0xFE, 0x01, 0x8E, 0xFE, 0x15, 0xFB, 0x97, 0xFD, 0x30, 0xFF, 0x73, 0x00, 0x00, 0x04, 0x71, 0x03,
         0x4C, 0xFF, 0x39, 0xFC, 0x5C, 0xFF, 0x3C, 0x03, 0x7B, 0x01, 0x9D, 0xFE, 0x08, 0xFB, 0x9C, 0xFF,
         0x0E, 0x06, 0x25, 0xFF, 0x6F, 0xFB, 0xCF, 0xFF, 0xEB, 0x02, 0x23, 0x04, 0x56, 0xFF, 0x1C, 0xFC,
         0xA4, 0xFF, 0xC8, 0xFE, 0xFC, 0xFF, 0xAF, 0x06, 0xC2, 0xFF, 0x30, 0xF8, 0x08, 0xFF, 0x3C, 0x02,
         0x1B, 0x00, 0x6C, 0x02, 0xED, 0x04, 0x70, 0x01, 0x21, 0xFC, 0x3B, 0xFC, 0xC9, 0xFC, 0x53, 0xFB,
         0xDB, 0x01, 0x71, 0x09, 0x4B, 0x04, 0xF0, 0xFE, 0x83, 0xFE, 0xB4, 0xFA, 0x8F, 0xFB, 0x3B, 0x02,
         0x9E, 0x03, 0x85, 0x01, 0x6C, 0xFE, 0x30, 0xFC, 0x0E, 0x01, 0x62, 0x03, 0x32, 0x01, 0x2B, 0xFF,
         0x1E, 0xFE, 0x04, 0x04, 0xE0, 0x01, 0xD0, 0xF7, 0x76, 0xFB, 0x28, 0x03, 0x19, 0x03, 0xA6, 0x00,
         0x9A, 0x01, 0xE0, 0x03, 0xF4, 0x00, 0x90, 0xFB, 0x15, 0xFA, 0x5B, 0xFE, 0x05, 0x04, 0xB6, 0x02,
         0x72, 0xFE, 0x44, 0x02, 0xD4, 0xFF, 0x8D, 0xFB, 0x5A, 0x05, 0x12, 0x01, 0x77, 0xFB, 0xA3, 0x05,
         0x09, 0xFC, 0x18, 0xF4, 0x75, 0x06, 0x74, 0x09, 0x26, 0xFC, 0xA5, 0xFF, 0x2A, 0x04, 0x74, 0xFD,
         0xDF, 0xFB, 0x8D, 0xFE, 0xC4, 0x01, 0xC3, 0x05, 0xD8, 0x01, 0xAF, 0xF7, 0xE1, 0xFA, 0x98, 0x06,
         0xAB, 0x02, 0x01, 0xFB, 0xA8, 0x02, 0x59, 0x06, 0x1A, 0xFE, 0xF9, 0xFB, 0x1C, 0xFC, 0x8D, 0xFF,
         0x3B, 0x06, 0xB4, 0x00, 0x57, 0xFD, 0xDB, 0x00, 0xCC, 0xFD, 0xA8, 0xFF, 0xBA, 0x03, 0xBC, 0xFD,
         0x4C, 0xFE, 0xBE, 0x03, 0x08, 0xFF, 0x8E, 0xFD, 0x5F, 0x00, 0x7B, 0x01, 0xD8, 0x01, 0x07, 0xFF,
         0x4F, 0xFF, 0x46, 0xFF, 0x38, 0xFE, 0x87, 0x00, 0xB8, 0x00, 0x6E, 0x01, 0x76, 0x02, 0xA7, 0xFE,
         0x8B, 0xFD, 0x2F, 0x00, 0xDE, 0xFE, 0xFF, 0xFE, 0xA4, 0x02, 0xBE, 0x01, 0x5F, 0xFF, 0x95, 0xFF,
         0xD6, 0xFF, 0x7D, 0xFF, 0x84, 0xFF, 0xB8, 0xFF, 0x31, 0x00, 0x15, 0x01, 0xE7, 0xFF, 0x91, 0xFE,
         0xCC, 0x00, 0x57, 0x01, 0xAA, 0xFE, 0x8B, 0xFF, 0x61, 0x01, 0x93, 0xFF, 0x3F, 0xFF, 0x4D, 0x00,
         0xDE, 0xFF, 0x3B, 0x00, 0x8C, 0x00, 0xAB, 0xFF, 0xC7, 0xFF, 0x13, 0x00, 0x00, 0x00
     };

__align(2)
     const U8 motion_dj_vocal_wav_9[DJ_AUD_VOX_WAVE_9_LEN] = 
     {
         0x52, 0x49, 0x46, 0x46, 0xB6, 0x12, 0x00, 0x00, 0x57, 0x41, 0x56, 0x45, 0x66, 0x6D, 0x74, 0x20,
         0x10, 0x00, 0x00, 0x00, 0x01, 0x00, 0x01, 0x00, 0x80, 0x3E, 0x00, 0x00, 0x00, 0x7D, 0x00, 0x00,
         0x02, 0x00, 0x10, 0x00, 0x64, 0x61, 0x74, 0x61, 0x92, 0x12, 0x00, 0x00, 0xFD, 0xFF, 0xF8, 0xFF,
         0x02, 0x00, 0x06, 0x00, 0xEB, 0xFF, 0x02, 0x00, 0x21, 0x00, 0xFA, 0xFF, 0xF1, 0xFF, 0x2D, 0x00,
         0x12, 0x00, 0xB1, 0xFF, 0xD3, 0xFF, 0x5D, 0x00, 0x24, 0x00, 0x7F, 0xFF, 0xE7, 0xFF, 0x70, 0x00,
         0x0E, 0x00, 0x0D, 0x00, 0x15, 0x00, 0x9D, 0xFF, 0xCD, 0xFF, 0x52, 0x00, 0x06, 0x00, 0xB5, 0xFF,
         0xA4, 0x00, 0xB9, 0xFF, 0xA7, 0xFE, 0x1A, 0x01, 0xE0, 0x00, 0x4B, 0xFF, 0x6F, 0x00, 0x10, 0x00,
         0xB2, 0xFF, 0xD0, 0xFF, 0x04, 0xFF, 0xC3, 0xFF, 0x7A, 0x00, 0xFF, 0xFF, 0x15, 0x01, 0x71, 0x01,
         0x08, 0xFF, 0xCC, 0xFE, 0x5F, 0x00, 0xCC, 0xFF, 0x20, 0xFF, 0x03, 0x01, 0xE0, 0x00, 0x43, 0xFE,
         0x65, 0x00, 0x55, 0x00, 0x3A, 0xFE, 0xAA, 0x02, 0x65, 0x01, 0xB6, 0xFC, 0xD1, 0x00, 0xF0, 0x01,
         0x40, 0xFE, 0x2C, 0xFF, 0x90, 0xFF, 0x1D, 0x01, 0x70, 0x02, 0x89, 0xFC, 0x72, 0xFE, 0x49, 0x03,
         0x8D, 0x00, 0xD5, 0xFF, 0xAE, 0xFE, 0x0D, 0x00, 0xDE, 0x00, 0xED, 0xFE, 0xD3, 0x00, 0x3E, 0xFF,
         0x8B, 0xFF, 0x5E, 0x00, 0x2D, 0xFF, 0x68, 0x03, 0x89, 0x00, 0xFC, 0xFA, 0xBC, 0x00, 0x7C, 0x02,
         0x25, 0xFE, 0x6B, 0x00, 0xB4, 0xFF, 0x98, 0xFF, 0x8C, 0x03, 0x5C, 0xFF, 0x78, 0xFE, 0xAE, 0xFF,
         0xEE, 0xFE, 0x85, 0x01, 0x7C, 0xFE, 0x74, 0xFE, 0x29, 0x03, 0x1D, 0xFF, 0xC7, 0xFF, 0x85, 0x04,
         0x9B, 0xFB, 0xCC, 0xFD, 0xB1, 0x04, 0x1F, 0xFD, 0xAD, 0x00, 0x4D, 0x00, 0xE9, 0xFF, 0x86, 0x02,
         0x61, 0xF8, 0x3D, 0x02, 0xFC, 0x06, 0xAC, 0xFB, 0x1D, 0xFF, 0xE5, 0x00, 0x4E, 0x01, 0x92, 0xFE,
         0x55, 0xFE, 0x20, 0x03, 0xF7, 0xFC, 0x56, 0x00, 0xC1, 0x04, 0x17, 0xFD, 0xA6, 0xFE, 0x2F, 0x01,
         0x8E, 0xFD, 0x72, 0xFE, 0xBC, 0x03, 0x0F, 0x03, 0x53, 0xFD, 0x2F, 0xFF, 0x70, 0x00, 0x76, 0xFF,
         0x45, 0x01, 0x3B, 0xFE, 0xE0, 0xFF, 0xE9, 0x00, 0xEC, 0xFE, 0xC5, 0x00, 0x3C, 0xFE, 0xF8, 0x03,
         0xA7, 0x02, 0xDB, 0xF7, 0x55, 0x01, 0xA6, 0x05, 0xA6, 0xFE, 0x85, 0xFD, 0xB5, 0xFB, 0x7E, 0x00,
         0x4A, 0x06, 0x8E, 0xFF, 0x6F, 0xFD, 0xF8, 0x03, 0x8F, 0x00, 0xA7, 0xFA, 0xFC, 0xFD, 0xB3, 0x03,
         0x7C, 0x01, 0x61, 0xFB, 0xB0, 0x01, 0x13, 0x05, 0x7B, 0xFD, 0x70, 0xFC, 0xED, 0xFE, 0x63, 0x01,
         0x6A, 0x01, 0xED, 0x03, 0x93, 0x05, 0x6C, 0xFB, 0x75, 0xFA, 0xCC, 0xFC, 0x5F, 0xFA, 0x93, 0x06,
         0x4A, 0x08, 0x7E, 0xF8, 0xA2, 0xFE, 0x6B, 0x09, 0x2B, 0x00, 0x06, 0xFD, 0x43, 0xFD, 0xBF, 0xFE,
         0xA5, 0x03, 0xC9, 0xFA, 0xEB, 0xFC, 0x61, 0x09, 0xDD, 0x00, 0x77, 0xF6, 0x13, 0xFD, 0x70, 0x04,
         0x4E, 0x04, 0x39, 0x04, 0x06, 0x04, 0x8B, 0xFE, 0xD7, 0xF8, 0x83, 0xFB, 0x86, 0x03, 0x58, 0xFD,
         0x72, 0xF7, 0x58, 0x0B, 0xFA, 0x09, 0x1E, 0xF6, 0xAF, 0xFC, 0xDD, 0xFF, 0x1B, 0x03, 0x1A, 0x0A,
         0x91, 0xFA, 0xCC, 0xF9, 0xFB, 0x07, 0xF4, 0xF9, 0xE9, 0xF8, 0x7F, 0x03, 0x13, 0xFA, 0x7F, 0x07,
         0x18, 0x09, 0xAB, 0xFA, 0xDA, 0x09, 0x8F, 0xFD, 0x95, 0xEC, 0xA2, 0x0A, 0xC1, 0x03, 0x06, 0xE7,
         0x7F, 0x08, 0x59, 0x19, 0x6D, 0xFF, 0x44, 0xFC, 0x59, 0xF9, 0xE6, 0xF5, 0xE1, 0x01, 0x0E, 0x04,
         0x95, 0xFC, 0x46, 0x0C, 0xBD, 0x0C, 0x17, 0xE0, 0x59, 0x00, 0x49, 0x1F, 0xEC, 0xE2, 0xBB, 0xF4,
         0x63, 0x13, 0xC5, 0x07, 0x7E, 0x15, 0x81, 0xF2, 0x7D, 0xE3, 0xCE, 0x07, 0x2C, 0x05, 0x7C, 0xF6,
         0xDC, 0x02, 0xC7, 0x0E, 0xB0, 0x00, 0xA9, 0xFE, 0x9A, 0xFB, 0xDD, 0xEC, 0x04, 0x12, 0xE0, 0x1D,
         0x72, 0xDE, 0xDD, 0xE4, 0x23, 0x1F, 0x6C, 0x08, 0x95, 0xF1, 0xD9, 0x0E, 0xF3, 0x04, 0xB9, 0xEE,
         0x87, 0xF9, 0xDD, 0xFB, 0x30, 0x06, 0xAF, 0x0F, 0x1B, 0xF9, 0xF5, 0xFD, 0x19, 0x07, 0x99, 0xF9,
         0x51, 0x06, 0x62, 0xFD, 0x48, 0xEB, 0xA9, 0x08, 0x1F, 0x0F, 0x0B, 0xF6, 0x1F, 0x00, 0x35, 0x08,
         0x7C, 0x01, 0x37, 0xFD, 0xF0, 0xF5, 0x3C, 0x04, 0xC2, 0xF6, 0x5B, 0x02, 0xBB, 0x1F, 0xAA, 0xE6,
         0x8D, 0xF1, 0x70, 0x1E, 0x47, 0xF7, 0xCA, 0xEF, 0x4C, 0x06, 0xED, 0x0C, 0xC1, 0xF7, 0x40, 0xF4,
         0x6B, 0x13, 0xB6, 0xFC, 0x3D, 0xF1, 0x5B, 0x17, 0x3F, 0xF7, 0x9E, 0xE5, 0xE9, 0x21, 0x70, 0xFB,
         0x8F, 0xE2, 0x23, 0x1E, 0x45, 0x01, 0xC3, 0xF2, 0xB4, 0x02, 0xDE, 0xFF, 0x59, 0x0A, 0x07, 0xF0,
         0x18, 0xFA, 0x7D, 0x14, 0xAA, 0xF9, 0xD2, 0xFD, 0xAC, 0x0A, 0x70, 0xF2, 0x8E, 0xFE, 0x39, 0x0B,
         0x41, 0xF9, 0x80, 0x02, 0x7A, 0xF5, 0xBD, 0xFD, 0xDB, 0x10, 0x50, 0xF5, 0xA5, 0x07, 0xA5, 0x0A,
         0x2A, 0xFC, 0x5C, 0xF2, 0x9C, 0xE9, 0xDF, 0x29, 0x94, 0x07, 0xB1, 0xC3, 0x6B, 0x1A, 0x40, 0x32,
         0xDC, 0xD9, 0xF3, 0xD9, 0x9F, 0x27, 0xAF, 0x1F, 0xA0, 0xC9, 0xEF, 0xE8, 0x80, 0x51, 0x36, 0xFF,
         0x34, 0xA4, 0xC7, 0x31, 0x6C, 0x4D, 0x60, 0xA7, 0x22, 0xD4, 0x1B, 0x49, 0x72, 0xFE, 0x37, 0xE2,
         0xB0, 0xFB, 0xB8, 0x14, 0x97, 0x34, 0xD7, 0xD7, 0x2A, 0xD7, 0x27, 0x24, 0x3D, 0xFD, 0xF1, 0xF3,
         0x4B, 0x08, 0x89, 0x03, 0xBD, 0xE8, 0x83, 0xF4, 0x79, 0x3A, 0xCE, 0x0A, 0x39, 0xB8, 0x7E, 0x0F,
         0x57, 0x43, 0x4D, 0xD9, 0x59, 0xCA, 0x92, 0x19, 0xC5, 0x20, 0x4B, 0x03, 0xC2, 0xEA, 0xAF, 0xED,
         0x3F, 0x13, 0xEE, 0x07, 0x2B, 0xF7, 0xC6, 0x11, 0x38, 0xF1, 0xFB, 0xF0, 0xC1, 0x19, 0xD3, 0xF8,
         0xA3, 0xEA, 0xB3, 0x00, 0xBB, 0x29, 0x4B, 0xF3, 0xA2, 0xBE, 0x71, 0x47, 0x0D, 0x25, 0x54, 0xA9,
         0xCB, 0x07, 0x0A, 0x25, 0xBB, 0xEE, 0xF3, 0x01, 0x26, 0x01, 0xCE, 0xF8, 0xEB, 0x13, 0x15, 0x03,
         0x90, 0xE4, 0x89, 0xF7, 0xF6, 0x17, 0x4C, 0x09, 0xE7, 0xDD, 0x82, 0x10, 0x86, 0x27, 0x06, 0xE4,
         0x3F, 0xF2, 0x7E, 0xFA, 0xF0, 0xF0, 0x70, 0x21, 0xEE, 0x15, 0x7D, 0xDF, 0x6F, 0xEB, 0x4A, 0x1F,
         0xBD, 0x0C, 0xA9, 0xE7, 0xCE, 0x04, 0x29, 0xFE, 0xC4, 0xF9, 0x7A, 0x14, 0x1D, 0xF1, 0x5A, 0xEC,
         0xBA, 0x1C, 0x70, 0x15, 0xF2, 0xE0, 0xB1, 0xE7, 0x8D, 0x21, 0x59, 0x0A, 0x12, 0xE7, 0x48, 0x05,
         0xA3, 0x04, 0x07, 0xFF, 0xEF, 0x09, 0x2A, 0xEE, 0xD6, 0xF2, 0xAA, 0x1C, 0xDD, 0x05, 0x99, 0xEE,
         0xF1, 0x08, 0x36, 0xFC, 0x0F, 0xEF, 0x43, 0x11, 0xFC, 0x08, 0x74, 0xE9, 0x8D, 0x04, 0x3D, 0x14,
         0x7D, 0xF4, 0xD4, 0xF1, 0x9C, 0x11, 0x29, 0x05, 0x0B, 0xEC, 0x91, 0x0C, 0x7D, 0xFF, 0x16, 0xEA,
         0x8B, 0x1B, 0xF3, 0x04, 0x9B, 0xE5, 0x73, 0x19, 0xA8, 0x00, 0x38, 0xD3, 0xF5, 0x15, 0x51, 0x25,
         0xE6, 0xE9, 0x91, 0xEE, 0x69, 0x05, 0x6D, 0x0A, 0x5A, 0x01, 0xC3, 0xF6, 0x84, 0xFC, 0x56, 0x08,
         0xC3, 0x15, 0x30, 0xED, 0x67, 0xE6, 0x17, 0x15, 0xB1, 0xFE, 0xDC, 0xFF, 0x41, 0x0C, 0x5C, 0xEE,
         0x09, 0x05, 0xB7, 0x0D, 0xFE, 0xE8, 0x7B, 0x04, 0x24, 0x15, 0xD3, 0x01, 0x95, 0x00, 0x75, 0xD3,
         0x07, 0x29, 0xC8, 0x14, 0x4B, 0x86, 0xCC, 0x34, 0x61, 0x6C, 0x42, 0x03, 0xA8, 0x0F, 0xCF, 0x91,
         0x08, 0xF9, 0x13, 0x53, 0x06, 0x93, 0x85, 0x05, 0x57, 0x77, 0x7F, 0xBC, 0xED, 0xC0, 0xAB, 0x3D,
         0xB4, 0x0D, 0x31, 0x0E, 0x80, 0xB6, 0x21, 0xF8, 0xB8, 0x4D, 0x6E, 0xBA, 0x89, 0x20, 0xAF, 0x24,
         0x22, 0xA1, 0x7B, 0x55, 0x0B, 0x37, 0xBF, 0x88, 0x7F, 0x1C, 0x7E, 0x4A, 0x57, 0xAB, 0xE8, 0x27,
         0x99, 0x36, 0x40, 0xBF, 0x30, 0xFD, 0x85, 0x29, 0x66, 0x14, 0x6F, 0xE0, 0xAF, 0xBE, 0x50, 0x1C,
         0x87, 0x36, 0xD4, 0xC9, 0x39, 0xF0, 0x1B, 0x41, 0xD3, 0x0C, 0xF7, 0xEC, 0x73, 0xEE, 0xCE, 0xF5,
         0x87, 0x0A, 0x5F, 0x05, 0x8C, 0xF6, 0xB4, 0xED, 0x80, 0xF2, 0x42, 0x1D, 0xBD, 0x21, 0x59, 0xE8,
         0xF2, 0xF0, 0xC5, 0x21, 0x77, 0x15, 0xCB, 0xCB, 0xCF, 0xD9, 0xF0, 0x38, 0xCB, 0xF2, 0x1B, 0xCF,
         0x3B, 0x3C, 0xA4, 0x1D, 0x02, 0xDD, 0xC7, 0xEE, 0xC1, 0xFA, 0x7D, 0x21, 0xB9, 0x13, 0x9A, 0xD2,
         0x9C, 0x06, 0xBF, 0x03, 0xC2, 0xD6, 0xE8, 0x33, 0x6F, 0x0A, 0x97, 0xC5, 0xB5, 0x2B, 0xEA, 0x25,
         0x3C, 0xD1, 0x14, 0xE7, 0x44, 0x1B, 0x77, 0x14, 0xAF, 0xF2, 0x4B, 0xF0, 0x41, 0x03, 0x7E, 0xFB,
         0x25, 0xFA, 0xA8, 0x0E, 0xB4, 0x01, 0xDC, 0x01, 0xE5, 0x18, 0x8E, 0xF6, 0x8C, 0xE4, 0x6A, 0x03,
         0x32, 0xF3, 0x9B, 0x07, 0x1C, 0x20, 0x76, 0xDA, 0x5F, 0xFB, 0x0D, 0x43, 0x94, 0xE8, 0xA3, 0xB6,
         0xE4, 0x1F, 0xC9, 0x3E, 0x31, 0xE2, 0xEB, 0xD1, 0xBD, 0x1D, 0x30, 0x1A, 0x6B, 0xDC, 0xFD, 0x01,
         0xD1, 0x0D, 0x6F, 0xEC, 0x22, 0x1F, 0x2D, 0x03, 0xC7, 0xE0, 0xC5, 0x08, 0xF7, 0xFC, 0xAA, 0x09,
         0xC0, 0x04, 0xE2, 0xE6, 0x85, 0x0C, 0x88, 0x1E, 0x2E, 0xF5, 0xB1, 0xD2, 0x3D, 0xFF, 0x68, 0x3E,
         0xDB, 0x03, 0x7D, 0xC1, 0xFF, 0x0F, 0xE0, 0x1F, 0x8A, 0xDD, 0x04, 0xFE, 0x4E, 0x0E, 0x1B, 0x0C,
         0x91, 0x04, 0x35, 0xEB, 0xBD, 0x0A, 0x35, 0xFB, 0xCA, 0xF1, 0xD8, 0x0D, 0x17, 0xFB, 0x5E, 0x08,
         0xFF, 0x09, 0x32, 0xEA, 0xD3, 0x02, 0x11, 0x08, 0x38, 0xF8, 0x56, 0x1C, 0x42, 0xF2, 0x9A, 0xCC,
         0xA6, 0x22, 0xFB, 0x21, 0xB0, 0xE9, 0xFC, 0xF1, 0xA5, 0xF3, 0x0F, 0x17, 0x71, 0x2A, 0x86, 0xD7,
         0x1B, 0xDF, 0xD4, 0x27, 0xCA, 0xFC, 0x61, 0xEC, 0x05, 0x05, 0x83, 0xFD, 0x6D, 0x12, 0xBB, 0x03,
         0xFD, 0xE3, 0xE7, 0x0E, 0x3C, 0x11, 0xE4, 0xF5, 0x43, 0x04, 0xD1, 0xE5, 0x0A, 0x09, 0x69, 0x22,
         0x0F, 0xD0, 0x8F, 0xFA, 0x6A, 0x28, 0x11, 0xEE, 0xF0, 0xF6, 0x5F, 0x15, 0xC0, 0x03, 0xB2, 0xFC,
         0x64, 0x06, 0x31, 0xEE, 0x58, 0xE2, 0xE2, 0x12, 0x12, 0x20, 0x97, 0xE9, 0xEA, 0xF5, 0x34, 0x1E,
         0xDE, 0xF0, 0x5C, 0xF3, 0x32, 0x0F, 0xF9, 0xFF, 0xA0, 0x01, 0xDE, 0xEC, 0xD8, 0x08, 0xE5, 0x14,
         0x74, 0xDE, 0x18, 0x08, 0x70, 0x1C, 0x8E, 0xE6, 0xBC, 0xF9, 0x39, 0x18, 0x86, 0xFC, 0x11, 0xEE,
         0x3A, 0xFE, 0x3C, 0x12, 0x19, 0x03, 0xE3, 0xE3, 0x9F, 0x05, 0xCF, 0x11, 0x0F, 0x08, 0x6B, 0x0B,
         0xD0, 0xD4, 0xBF, 0xF3, 0x5A, 0x39, 0xCB, 0xE3, 0x7F, 0xCF, 0x7B, 0x3F, 0x84, 0x20, 0x49, 0xD1,
         0xE4, 0xF4, 0xDF, 0x00, 0xD3, 0x00, 0x85, 0x15, 0xA5, 0xF3, 0xFA, 0xEA, 0x0B, 0x12, 0xF7, 0x0E,
         0x95, 0x05, 0xAA, 0xF4, 0x5C, 0xE4, 0xE0, 0x16, 0xF6, 0x17, 0x53, 0xDB, 0xC3, 0xEA, 0x41, 0x1D,
         0x57, 0x17, 0xC4, 0xF4, 0xED, 0xF3, 0xF8, 0xFF, 0x56, 0x03, 0x3C, 0x05, 0x9A, 0xF6, 0x59, 0xF9,
         0x2E, 0x13, 0x2B, 0x00, 0x0B, 0xEA, 0xBF, 0x0A, 0x15, 0x09, 0x1D, 0xFA, 0x88, 0x04, 0x74, 0xEA,
         0x14, 0x04, 0x18, 0x26, 0xEA, 0xEF, 0xC1, 0xE6, 0x4A, 0x0A, 0x53, 0x05, 0x79, 0xFD, 0x27, 0x01,
         0xD7, 0x00, 0x00, 0x06, 0x1D, 0x07, 0x03, 0xF9, 0x9E, 0xF1, 0xBA, 0xF8, 0xFF, 0x07, 0x50, 0x0B,
         0xD5, 0xF9, 0xE1, 0xFB, 0x67, 0x10, 0x2A, 0x05, 0x4E, 0xEE, 0x62, 0x02, 0xB8, 0x0B, 0xF2, 0xF1,
         0x1C, 0xFC, 0x2D, 0xFB, 0x3D, 0xF4, 0x68, 0x1E, 0xD2, 0x10, 0x8A, 0xE0, 0x1C, 0xFB, 0x0B, 0x1B,
         0xF8, 0x03, 0x99, 0xE9, 0xAB, 0xEA, 0xAE, 0x0A, 0xC7, 0x1E, 0x10, 0xFF, 0x03, 0xEE, 0x72, 0xFA,
         0x31, 0x00, 0x05, 0x0A, 0x7F, 0x01, 0xA0, 0xF3, 0x46, 0x09, 0xF5, 0x0B, 0x8A, 0xF3, 0x6D, 0xF8,
         0xFE, 0xFE, 0x75, 0x06, 0x12, 0x12, 0x11, 0xF4, 0x50, 0xEA, 0xA3, 0x14, 0x7C, 0x0E, 0xAE, 0xE6,
         0x06, 0xF0, 0xDE, 0x10, 0xCD, 0x19, 0x63, 0xF9, 0xD7, 0xE5, 0xF7, 0x0A, 0xB0, 0x0E, 0x39, 0xEB,
         0x36, 0x01, 0xC6, 0x12, 0x2F, 0xF7, 0xCD, 0x01, 0x13, 0xFF, 0xC5, 0xDA, 0xE5, 0x0F, 0xA2, 0x3B,
         0x3B, 0xE8, 0x8E, 0xD2, 0xB4, 0x19, 0x12, 0x0D, 0xFC, 0xEA, 0x24, 0x07, 0x16, 0x08, 0x43, 0xFE,
         0x2A, 0x05, 0x3B, 0xED, 0x8D, 0xF5, 0x54, 0x16, 0x2B, 0x0A, 0xDE, 0xFC, 0x93, 0xF5, 0x75, 0xF0,
         0xD2, 0x0D, 0x5C, 0x15, 0x6E, 0xF3, 0x11, 0xF1, 0xC9, 0xFF, 0x9B, 0x09, 0x1B, 0x08, 0xF5, 0xF1,
         0xF5, 0xFD, 0x66, 0x0A, 0x10, 0xFD, 0x9E, 0x0B, 0x88, 0x00, 0x91, 0xDF, 0x85, 0x05, 0x40, 0x1B,
         0x94, 0xF3, 0xE7, 0x00, 0xF0, 0x10, 0xE3, 0xE7, 0xDB, 0xF4, 0x8F, 0x16, 0x97, 0xFA, 0xD2, 0xF7,
         0x1E, 0x0C, 0x71, 0xFF, 0x7C, 0x00, 0x57, 0x03, 0x0D, 0xF7, 0x5A, 0x01, 0x66, 0xFD, 0xDE, 0xF2,
         0x91, 0x10, 0x81, 0x09, 0x2E, 0xF4, 0xBD, 0x08, 0xB8, 0x01, 0x43, 0xF1, 0x09, 0xF9, 0xB8, 0x05,
         0xFD, 0x17, 0x5B, 0x01, 0x03, 0xD9, 0x30, 0x01, 0xD8, 0x23, 0xF6, 0xF6, 0xCC, 0xF0, 0xBD, 0x0C,
         0x72, 0x01, 0xC6, 0xF8, 0xBD, 0xFE, 0xE9, 0xFE, 0x86, 0x04, 0x81, 0xFE, 0xE2, 0xF8, 0xE1, 0x08,
         0xCB, 0x04, 0x86, 0xF8, 0xFE, 0x02, 0xD4, 0x02, 0xC9, 0xF8, 0x35, 0xFF, 0xE9, 0x05, 0xAE, 0x01,
         0x25, 0xF8, 0xA5, 0xFC, 0xA6, 0x0E, 0xBC, 0xFA, 0xF6, 0xED, 0x11, 0x10, 0xE7, 0x0C, 0x63, 0xF0,
         0x27, 0xFF, 0xB3, 0x0C, 0x3E, 0xFE, 0x80, 0xF9, 0x1E, 0xF3, 0xFE, 0xF0, 0xB3, 0x16, 0xAD, 0x21,
         0xFC, 0xEC, 0xB0, 0xE3, 0xF8, 0x12, 0x7F, 0x08, 0x19, 0xED, 0x96, 0x05, 0x70, 0x09, 0x98, 0xFD,
         0x98, 0xFB, 0x6E, 0xF2, 0xDE, 0x07, 0x18, 0x13, 0xEC, 0xF9, 0x9A, 0xF9, 0x03, 0xFF, 0x3F, 0xF7,
         0x50, 0x08, 0x3E, 0x0C, 0x4E, 0xF3, 0x77, 0xF7, 0x3A, 0x0D, 0xF5, 0x0B, 0x11, 0xEE, 0x73, 0xF0,
         0xC9, 0x15, 0x08, 0xFF, 0xED, 0xF1, 0xD6, 0x17, 0x25, 0x02, 0xDF, 0xE4, 0xFA, 0x0A, 0x83, 0x0B,
         0xB2, 0xEE, 0x3D, 0x06, 0xAE, 0x09, 0xCE, 0xED, 0x92, 0xFD, 0xF1, 0x13, 0xDF, 0x01, 0x1A, 0xF2,
         0x7C, 0xFF, 0x05, 0x0A, 0xDB, 0x00, 0x3A, 0xF8, 0x2D, 0x00, 0x97, 0x01, 0x56, 0xF8, 0x56, 0xFE,
         0x79, 0x0A, 0xD8, 0x05, 0xA3, 0x01, 0x26, 0xFA, 0x2F, 0xFA, 0x9E, 0x04, 0x5E, 0xF6, 0xEB, 0xFD,
         0xB8, 0x11, 0xB9, 0xFA, 0xD3, 0xF5, 0xB8, 0x09, 0x40, 0x03, 0x15, 0xFA, 0x86, 0x00, 0xD0, 0xFE,
         0xC6, 0x01, 0x21, 0x03, 0xC1, 0xFD, 0xC0, 0xFE, 0x87, 0xFC, 0x10, 0xFB, 0x28, 0xFD, 0x85, 0x0C,
         0xBC, 0x0F, 0x45, 0xF1, 0x04, 0xF6, 0xA7, 0x0C, 0x4B, 0xFE, 0x8D, 0xF5, 0x0A, 0x04, 0xDB, 0x05,
         0x2C, 0xF9, 0xEC, 0xFD, 0x37, 0x0E, 0xEE, 0xFD, 0x37, 0xEF, 0x2C, 0x06, 0x09, 0x0A, 0x20, 0xFB,
         0x71, 0x00, 0xA7, 0xFA, 0x42, 0x04, 0x92, 0x10, 0x4E, 0xEE, 0x39, 0xED, 0x03, 0x11, 0xEB, 0x07,
         0xF0, 0xF8, 0xF7, 0xFE, 0xC4, 0x02, 0xAA, 0x05, 0x66, 0x07, 0x46, 0xEF, 0xA7, 0xF1, 0x3C, 0x1F,
         0xA7, 0xFC, 0x32, 0xD2, 0x35, 0x1E, 0x36, 0x26, 0x6C, 0xE4, 0x33, 0x07, 0xAC, 0xFA, 0xDD, 0xC5,
         0xAC, 0x27, 0xF1, 0x2D, 0x51, 0xC4, 0x59, 0x00, 0x33, 0x52, 0x12, 0xFD, 0xED, 0xA6, 0xAE, 0xEE,
         0x5F, 0x50, 0x43, 0xEF, 0x92, 0xAA, 0x5E, 0x41, 0x8E, 0x59, 0x68, 0xC8, 0xDD, 0xCF, 0xF4, 0x0A,
         0x55, 0xEC, 0x25, 0x1A, 0x97, 0x1A, 0xFD, 0xD5, 0xF0, 0x14, 0xE9, 0x3D, 0x27, 0xD4, 0xCB, 0xC0,
         0x01, 0x04, 0x96, 0x12, 0xE1, 0x22, 0x65, 0x20, 0xBA, 0xDC, 0xBC, 0xE5, 0xEB, 0x1A, 0xCE, 0x03,
         0xCF, 0xD8, 0x6D, 0xEF, 0xA9, 0x24, 0xA0, 0x20, 0x44, 0xFC, 0xFC, 0xE9, 0x20, 0xED, 0x69, 0x16,
         0x94, 0x0F, 0x14, 0xD9, 0x1B, 0xF9, 0x8E, 0x1F, 0xC4, 0xFA, 0x4E, 0xFB, 0xA6, 0xFF, 0x40, 0xF8,
         0x55, 0x17, 0xD6, 0x01, 0x33, 0xFA, 0x4F, 0x0E, 0x73, 0xDD, 0x6E, 0xEA, 0x26, 0x17, 0xC1, 0xFD,
         0x4A, 0x10, 0x8D, 0x19, 0xDE, 0xE6, 0xDF, 0xF7, 0x37, 0x08, 0x4B, 0xF0, 0x66, 0x06, 0xD8, 0x05,
         0x69, 0xF8, 0xE2, 0x10, 0xC9, 0xFE, 0x32, 0xEF, 0xCF, 0x0F, 0xFB, 0xF7, 0x2E, 0xE6, 0x41, 0x1E,
         0x9E, 0x0D, 0x12, 0xD1, 0x5D, 0x0C, 0x1E, 0x36, 0x18, 0xEA, 0xE5, 0xE8, 0x9C, 0x12, 0x11, 0xE9,
         0xD7, 0xF6, 0x8A, 0x1E, 0x73, 0xED, 0x4B, 0xF0, 0x1C, 0x2B, 0x81, 0xFD, 0x0B, 0xE2, 0x78, 0x20,
         0xA0, 0xFC, 0x53, 0xCA, 0x35, 0x1E, 0x87, 0x1D, 0xA4, 0xE0, 0x04, 0x2E, 0xD1, 0xFF, 0xA5, 0x87,
         0x69, 0x29, 0x6B, 0x62, 0x21, 0xB3, 0x8C, 0xEC, 0xE4, 0x7B, 0x6D, 0xFA, 0x00, 0x80, 0xC7, 0xF9,
         0x92, 0x76, 0x7E, 0xD6, 0xAF, 0x95, 0xEF, 0x4F, 0xB2, 0x57, 0xB8, 0xAB, 0x84, 0xB6, 0x53, 0x12,
         0xBA, 0xD5, 0xCB, 0x24, 0x44, 0x42, 0x1E, 0xC3, 0xC8, 0x0C, 0xAC, 0x5B, 0x06, 0xBE, 0x38, 0xA7,
         0x1A, 0x0C, 0x3D, 0x0D, 0xE5, 0x37, 0xCB, 0x47, 0x8C, 0xB3, 0x02, 0xC2, 0x22, 0x48, 0x28, 0x11,
         0x1B, 0xB2, 0x5D, 0xE0, 0xD4, 0x34, 0x95, 0x48, 0x74, 0x0A, 0x2B, 0xBA, 0xB7, 0xD4, 0x94, 0x38,
         0xBF, 0x22, 0x78, 0xC5, 0x47, 0xE1, 0xBC, 0x2C, 0x1D, 0x13, 0x2A, 0xEE, 0xD8, 0xE6, 0xC7, 0x06,
         0xD1, 0x32, 0x8E, 0xF8, 0x24, 0xF1, 0x88, 0x19, 0xE2, 0xCD, 0xC4, 0xDE, 0x6F, 0x2B, 0x5B, 0xED,
         0x20, 0x01, 0x70, 0x48, 0x6F, 0xE7, 0x91, 0xD3, 0x93, 0x0F, 0x90, 0xF8, 0x5C, 0x08, 0x0C, 0x07,
         0xF0, 0xF4, 0x12, 0x1F, 0x1F, 0xEE, 0xAA, 0xD6, 0x08, 0x36, 0x7F, 0xFA, 0x63, 0xC2, 0x68, 0x38,
         0x4E, 0x13, 0xED, 0xB6, 0xEF, 0x16, 0x87, 0x3B, 0xB1, 0xE2, 0x3F, 0xFC, 0x54, 0x22, 0x54, 0xD3,
         0xF3, 0xE6, 0x29, 0x2C, 0x0A, 0xE2, 0xD4, 0xD4, 0x50, 0x36, 0x94, 0x2B, 0x45, 0xEF, 0x98, 0xF4,
         0x38, 0xF8, 0x4F, 0xF7, 0xDD, 0x07, 0x54, 0xEB, 0x77, 0xEF, 0x8E, 0x4C, 0xE8, 0x15, 0xB8, 0x89,
         0x68, 0xF4, 0xF9, 0x68, 0x27, 0xE9, 0x12, 0xCC, 0x64, 0x4D, 0xB4, 0x0C, 0x5C, 0x97, 0xBF, 0x0D,
         0xD1, 0x58, 0x1E, 0xC7, 0x56, 0xBC, 0x8B, 0x55, 0xA7, 0x2F, 0x68, 0xC7, 0xE0, 0x05, 0x34, 0x05,
         0x78, 0xB1, 0x02, 0x16, 0xE7, 0x58, 0x09, 0xE0, 0x57, 0xD5, 0xC6, 0x29, 0xE4, 0x07, 0x10, 0xE6,
         0x72, 0xFA, 0xCA, 0xFB, 0xE8, 0x17, 0xA8, 0x24, 0x3E, 0xC2, 0x6E, 0xC2, 0xD1, 0x49, 0xA4, 0x2F,
         0x6F, 0xCC, 0xED, 0xEC, 0x55, 0x14, 0xBF, 0x28, 0xAF, 0x1E, 0x91, 0xB6, 0x94, 0xB4, 0x16, 0x3D,
         0x41, 0x3A, 0x64, 0xDC, 0xE3, 0xE6, 0xF3, 0x23, 0x9B, 0x1D, 0x1B, 0xD9, 0x99, 0xCE, 0x46, 0x0F,
         0x9F, 0x32, 0x13, 0x0C, 0x14, 0xE5, 0xA9, 0xF9, 0x30, 0xFF, 0xED, 0xFB, 0x18, 0x0C, 0x1A, 0xF0,
         0x31, 0xEF, 0xEA, 0x2D, 0x03, 0x0D, 0xB9, 0xCB, 0x3A, 0xFB, 0x37, 0x20, 0x37, 0x0A, 0xA9, 0xEF,
         0x6A, 0xEB, 0x4B, 0x20, 0x68, 0x04, 0x90, 0xD9, 0x61, 0x1C, 0x59, 0x06, 0x36, 0xE5, 0x60, 0x15,
         0x14, 0xF4, 0x20, 0xE8, 0x46, 0x1D, 0xD3, 0x07, 0x4B, 0xE6, 0x58, 0x11, 0xC2, 0x21, 0xB0, 0xEE,
         0x18, 0xE4, 0xE4, 0x0C, 0xA8, 0xFB, 0xC5, 0xDF, 0x0D, 0x10, 0xAB, 0x1C, 0x00, 0xFB, 0xAB, 0x01,
         0xF4, 0x01, 0x13, 0xFD, 0xF3, 0x02, 0xFC, 0xEB, 0x26, 0xF1, 0x2A, 0x28, 0x7E, 0x0D, 0x72, 0xC7,
         0x4E, 0xFB, 0xA2, 0x35, 0xE6, 0xF6, 0x74, 0xE9, 0x01, 0x21, 0x62, 0xFB, 0x4F, 0xD7, 0x47, 0x13,
         0xDB, 0x11, 0x0F, 0xDC, 0xF2, 0xFC, 0x5B, 0x23, 0x13, 0x02, 0x10, 0xF7, 0x2D, 0x18, 0x61, 0xF7,
         0x43, 0xC5, 0x56, 0x0B, 0x22, 0x3A, 0xF1, 0xEA, 0xE9, 0xD7, 0xC1, 0x15, 0x6C, 0x15, 0x03, 0x04,
         0x4B, 0xFD, 0xC4, 0xF3, 0xC8, 0x06, 0x8A, 0xF9, 0x50, 0xEA, 0x40, 0xFA, 0x6C, 0x11, 0x0D, 0x1F,
         0x8B, 0xEF, 0x94, 0xF3, 0x17, 0x0A, 0x23, 0xFB, 0xF2, 0x24, 0xE5, 0xED, 0xC1, 0xBC, 0x46, 0x1F,
         0xAC, 0x20, 0x91, 0xEB, 0xB8, 0xF9, 0xFC, 0x19, 0xFC, 0x18, 0xD0, 0xD9, 0x55, 0xDE, 0xE5, 0x17,
         0x2A, 0x0E, 0xDE, 0xFF, 0x37, 0xFE, 0x48, 0xFA, 0x40, 0x08, 0x17, 0x03, 0x51, 0xF8, 0x50, 0xFD,
         0x50, 0xEF, 0x18, 0x07, 0x4D, 0x21, 0x8A, 0xEC, 0xA7, 0xEC, 0x8A, 0x1C, 0xE4, 0x04, 0xA0, 0xE3,
         0xBD, 0xF1, 0x89, 0x1E, 0x38, 0x16, 0xB7, 0xE2, 0x67, 0xF3, 0x2D, 0x14, 0x03, 0x09, 0xA8, 0xF1,
         0x95, 0xED, 0xEF, 0x0F, 0x83, 0x13, 0x5B, 0xE9, 0x1F, 0xEF, 0x7C, 0x13, 0x03, 0x12, 0x9D, 0xFF,
         0x8C, 0xF0, 0xB4, 0xFC, 0xFA, 0x0F, 0x45, 0xF7, 0x47, 0xF1, 0x4E, 0x04, 0x32, 0xFB, 0xE8, 0x07,
         0xA1, 0x0D, 0xFB, 0xF6, 0xF5, 0x09, 0xED, 0x02, 0x91, 0xEC, 0x2A, 0x02, 0x1F, 0xFB, 0xFD, 0x03,
         0x4D, 0x09, 0x78, 0xF1, 0xB9, 0x07, 0xE2, 0x0F, 0xBD, 0xFF, 0xAC, 0xF3, 0x35, 0xFA, 0x64, 0x0C,
         0x32, 0xEE, 0x13, 0xF6, 0xD2, 0x16, 0xB9, 0xFA, 0xBD, 0xFC, 0x93, 0x12, 0xB4, 0x04, 0x9F, 0xF1,
         0x54, 0xF1, 0xE9, 0x0B, 0x11, 0x0A, 0x5A, 0xEE, 0x89, 0xF8, 0xC0, 0x0A, 0xCD, 0x02, 0xED, 0x06,
         0xCC, 0xFF, 0x1E, 0xFA, 0x64, 0x0A, 0xEB, 0xEB, 0x98, 0x03, 0x67, 0x1D, 0xFE, 0xE0, 0xA6, 0xFB,
         0xE2, 0x0C, 0x5E, 0xF9, 0xAB, 0x08, 0x63, 0xF0, 0x87, 0x0D, 0xE8, 0x19, 0x9D, 0xEC, 0x27, 0xF8,
         0xCD, 0xFA, 0xDF, 0xF8, 0x0E, 0x06, 0xC4, 0x09, 0xC9, 0x05, 0x09, 0xF2, 0x84, 0xFD, 0xE3, 0x0E,
         0xA3, 0xF8, 0xAC, 0xFA, 0x8F, 0x0F, 0x54, 0xFE, 0xC9, 0xF6, 0xFB, 0x01, 0x2F, 0xFB, 0x3B, 0xFD,
         0xFB, 0xFB, 0x0D, 0xFF, 0xBF, 0x14, 0x5E, 0x03, 0x80, 0xF1, 0xBD, 0x0A, 0xAA, 0xFD, 0x02, 0xE8,
         0xD5, 0x02, 0x06, 0x14, 0x0B, 0x0F, 0xD2, 0xF1, 0x5A, 0xE8, 0x24, 0x0B, 0xB1, 0x06, 0x78, 0xF9,
         0x16, 0x06, 0xFA, 0x06, 0x40, 0x01, 0x51, 0xF8, 0xA8, 0xFB, 0xF9, 0x05, 0x92, 0xFD, 0x55, 0xF6,
         0xD0, 0xFF, 0x67, 0x09, 0x1D, 0x0B, 0xBC, 0xFF, 0xC5, 0xF4, 0xD1, 0x00, 0x0F, 0xFB, 0x7A, 0xFC,
         0xAF, 0x09, 0x06, 0xF6, 0x58, 0x0A, 0xB7, 0x0C, 0x60, 0xF1, 0x32, 0xFD, 0x68, 0xFA, 0x72, 0x15,
         0xA0, 0xFE, 0x19, 0xD8, 0x1E, 0x19, 0x52, 0x0F, 0xAE, 0xF1, 0xE3, 0x06, 0x14, 0xFB, 0xAF, 0xFF,
         0x5A, 0xFC, 0x56, 0x00, 0x4C, 0x0B, 0x39, 0xF6, 0xAE, 0xFC, 0xE1, 0x0A, 0x75, 0xFF, 0x23, 0xF4,
         0x4C, 0x01, 0x95, 0x0E, 0x94, 0xFA, 0x23, 0xFB, 0x46, 0x04, 0x92, 0xF4, 0x03, 0x02, 0x18, 0x09,
         0x01, 0xF6, 0x02, 0x07, 0x13, 0x0C, 0x69, 0xF8, 0x60, 0x05, 0x75, 0x04, 0xD6, 0xE5, 0xB3, 0xF0,
         0x5E, 0x17, 0x30, 0x09, 0x3C, 0xFA, 0x70, 0x06, 0xC2, 0xF5, 0x6B, 0x08, 0x3C, 0x12, 0x8F, 0xE7,
         0x63, 0xF3, 0x2E, 0x10, 0x40, 0x07, 0x16, 0xF6, 0x57, 0xF2, 0x76, 0x08, 0xB8, 0x09, 0xC7, 0xF3,
         0x10, 0x06, 0x7D, 0x19, 0xD5, 0xF8, 0x9B, 0xE6, 0x52, 0x00, 0x6E, 0x0F, 0x30, 0xFE, 0xBF, 0xF1,
         0x0A, 0x02, 0x8E, 0x0B, 0x76, 0x03, 0xC1, 0xF3, 0x59, 0xFB, 0x9A, 0x14, 0xBC, 0xF9, 0x55, 0xF0,
         0x8D, 0x0F, 0x3A, 0x04, 0x3A, 0xFB, 0x00, 0x02, 0x70, 0xFD, 0xA5, 0xF1, 0xA6, 0xF2, 0x44, 0x13,
         0x5C, 0x14, 0xA7, 0xF6, 0xC3, 0xF6, 0x40, 0x05, 0x95, 0x09, 0x5E, 0xFE, 0x63, 0xF0, 0x71, 0xF5,
         0x8E, 0x06, 0xA3, 0x0E, 0x2C, 0x03, 0x76, 0xF9, 0x08, 0xFE, 0xC6, 0xFB, 0x35, 0x02, 0x21, 0x0C,
         0xAA, 0xF9, 0xD9, 0xF4, 0xA5, 0x02, 0x01, 0x06, 0x82, 0xFF, 0xD9, 0xF6, 0x01, 0x0D, 0x3C, 0x0D,
         0xD4, 0xEF, 0x31, 0xFC, 0xFE, 0x00, 0xE9, 0xF6, 0x52, 0x01, 0x1A, 0x0A, 0x63, 0x06, 0xAC, 0xF8,
         0xA3, 0xFE, 0xC3, 0x05, 0x56, 0xFB, 0xA9, 0x01, 0x3B, 0x02, 0x2B, 0xFA, 0xA4, 0x02, 0x7A, 0x00,
         0xC9, 0xF6, 0x9A, 0xFF, 0x3A, 0x0D, 0xA1, 0x07, 0xB5, 0xF6, 0x24, 0xF9, 0xB9, 0x00, 0xB5, 0xF8,
         0x04, 0xFF, 0x56, 0x10, 0x39, 0x08, 0x4F, 0xFD, 0x07, 0x02, 0x67, 0xF6, 0x28, 0xEF, 0xAF, 0xFD,
         0x33, 0x04, 0x27, 0x0C, 0xE9, 0x05, 0x13, 0xF9, 0x26, 0x08, 0x22, 0x08, 0xD3, 0xF6, 0x26, 0xEF,
         0x44, 0xFF, 0x62, 0x13, 0xFC, 0xFB, 0x8F, 0xEF, 0xBE, 0x04, 0x96, 0x0B, 0xAE, 0xFD, 0x78, 0xF9,
         0xC6, 0x10, 0x4E, 0x04, 0x05, 0xE5, 0x2D, 0xFB, 0x73, 0x11, 0x19, 0x02, 0xD4, 0xF7, 0xF2, 0x05,
         0xA2, 0x07, 0xEB, 0xF7, 0xB6, 0xF9, 0x33, 0x02, 0xDF, 0x02, 0x7B, 0xFB, 0x39, 0xFC, 0x3F, 0x07,
         0x04, 0x05, 0x8C, 0x04, 0xEE, 0x01, 0xC6, 0xF9, 0x14, 0xF9, 0x22, 0xF6, 0xC1, 0x00, 0x9C, 0x0B,
         0x8A, 0x00, 0x32, 0xFE, 0x50, 0x05, 0x69, 0x03, 0x84, 0xFF, 0xA6, 0xFB, 0xB6, 0xF7, 0x75, 0xFA,
         0x8B, 0x06, 0x2E, 0x0A, 0x6A, 0xFE, 0x6E, 0xFC, 0xAA, 0xFF, 0x4F, 0xFC, 0xB4, 0x02, 0x65, 0x05,
         0x2F, 0xFA, 0xFF, 0xFB, 0xE8, 0x05, 0xBB, 0x00, 0x15, 0xFC, 0x1F, 0x03, 0x58, 0x05, 0x04, 0xFE,
         0x7C, 0xFB, 0xC8, 0xFF, 0xD2, 0xFA, 0x10, 0xFC, 0x08, 0x09, 0xF0, 0x03, 0x44, 0xFF, 0xAC, 0x04,
         0x1F, 0xFD, 0xF4, 0xF7, 0xA2, 0xFD, 0x21, 0x01, 0xC7, 0x02, 0x16, 0x09, 0x42, 0x04, 0xDD, 0xF2,
         0x51, 0xF9, 0xA4, 0x09, 0x33, 0x03, 0x57, 0xF8, 0xF7, 0xFA, 0xCC, 0x04, 0x56, 0x05, 0x61, 0xFE,
         0xA9, 0x02, 0x34, 0x06, 0x2C, 0xFD, 0x0E, 0xFB, 0xF9, 0xFD, 0x96, 0xFB, 0x2A, 0xFD, 0x6B, 0x02,
         0x25, 0x04, 0xDA, 0xFF, 0x68, 0x02, 0xDF, 0x06, 0x56, 0xFF, 0xCF, 0xFB, 0x5F, 0xF9, 0x15, 0xFE,
         0x63, 0x08, 0xEF, 0xFD, 0xE9, 0xF8, 0x66, 0x02, 0x75, 0x07, 0x1E, 0x01, 0xAE, 0xF7, 0x02, 0x05,
         0x75, 0x06, 0xAE, 0xF4, 0xFE, 0xFC, 0xFA, 0x07, 0x04, 0x00, 0x10, 0xFB, 0xE3, 0x02, 0x86, 0x04,
         0xE2, 0xFB, 0x14, 0x00, 0x6F, 0x02, 0xB4, 0xFC, 0xAD, 0xFF, 0x8C, 0xFE, 0x37, 0xFE, 0x24, 0x06,
         0xB0, 0x03, 0xAA, 0xFA, 0x05, 0xFE, 0x63, 0x05, 0x9A, 0xFC, 0xAE, 0xF6, 0x23, 0x05, 0x10, 0x0B,
         0xAA, 0xFF, 0x82, 0xF8, 0x07, 0xFD, 0xAA, 0x03, 0xA5, 0x01, 0x7B, 0xFC, 0x80, 0xFB, 0xFB, 0x01,
         0x0A, 0x0A, 0xBC, 0x04, 0xDB, 0xFB, 0x4C, 0xF8, 0x24, 0xF8, 0x72, 0x00, 0x98, 0x06, 0xF0, 0x02,
         0x51, 0x01, 0x4B, 0x03, 0x1F, 0x01, 0x5A, 0xFD, 0x19, 0xFB, 0xFE, 0xFC, 0x3D, 0x01, 0x02, 0x00,
         0xFB, 0xFF, 0x9E, 0x00, 0xB1, 0x00, 0x5C, 0x03, 0x96, 0x00, 0x7C, 0x02, 0x10, 0x04, 0xEC, 0xF9,
         0x4D, 0xF6, 0x45, 0xFC, 0x5B, 0x03, 0xAD, 0x04, 0x19, 0x06, 0xC6, 0x08, 0xC6, 0xFB, 0xAD, 0xF4,
         0xFD, 0xFE, 0xFF, 0x01, 0x66, 0xFD, 0xCC, 0xFB, 0x71, 0x04, 0x1E, 0x0D, 0x79, 0x02, 0x7A, 0xF6,
         0xA2, 0xFC, 0x5F, 0x01, 0x9E, 0xFC, 0x9A, 0xFE, 0x4B, 0x04, 0x5C, 0x04, 0xF8, 0xFF, 0xEC, 0xFA,
         0xD3, 0xFB, 0xDB, 0x02, 0x08, 0x06, 0xC4, 0xFE, 0xDE, 0xFC, 0xCD, 0x04, 0x62, 0x01, 0xE9, 0xF8,
         0x45, 0xFC, 0x33, 0x02, 0xCF, 0x02, 0x7D, 0x01, 0x8A, 0x00, 0x1D, 0xFF, 0x0E, 0xFF, 0x0E, 0x01,
         0x3B, 0x01, 0x5A, 0x00, 0xC1, 0xFF, 0x69, 0xFD, 0x9E, 0xFB, 0x25, 0xFE, 0x4F, 0x03, 0xEC, 0x05,
         0x1A, 0x01, 0x44, 0xFD, 0x1B, 0x03, 0x7F, 0x02, 0xEB, 0xF8, 0x7E, 0xFC, 0xE6, 0x04, 0xA8, 0xFE,
         0x1D, 0xF9, 0x71, 0x01, 0x6F, 0x07, 0xA0, 0x00, 0x66, 0xFB, 0x10, 0x04, 0x4E, 0x0B, 0x11, 0xFE,
         0x21, 0xF0, 0xF5, 0xF9, 0x24, 0x06, 0x4C, 0x02, 0xD1, 0xFF, 0xCF, 0x01, 0xCF, 0x00, 0x2E, 0x05,
         0x75, 0x07, 0x9B, 0xFA, 0xC5, 0xF1, 0x82, 0xFC, 0xE6, 0x04, 0x19, 0x01, 0x82, 0x01, 0xD9, 0x05,
         0xAE, 0x05, 0xC7, 0x00, 0x04, 0xFA, 0x4E, 0xFA, 0xE9, 0x00, 0xFF, 0xFF, 0x1B, 0xF9, 0x82, 0xFC,
         0xB4, 0x07, 0x09, 0x09, 0xDF, 0x01, 0x94, 0xFE, 0x9A, 0xFF, 0xCC, 0xFE, 0x58, 0xFB, 0xFC, 0xFB,
         0x9C, 0x01, 0xC3, 0x01, 0x43, 0xFD, 0x2F, 0x00, 0xA2, 0x05, 0x2C, 0x02, 0x65, 0xFB, 0x1D, 0xFD,
         0x22, 0x07, 0xF1, 0x05, 0x9D, 0xF6, 0xA0, 0xF7, 0x4F, 0x08, 0xA0, 0x05, 0x49, 0xF7, 0x5E, 0xFB,
         0xAD, 0x05, 0x70, 0x04, 0x00, 0x01, 0xC6, 0xFE, 0x00, 0xFD, 0xA8, 0x00, 0xBD, 0x01, 0xC2, 0xFD,
         0xA8, 0xFD, 0x2F, 0xFF, 0x9C, 0x00, 0xCB, 0x04, 0xE6, 0x03, 0xA3, 0xFD, 0xF6, 0xFB, 0xE2, 0xFD,
         0x1F, 0x00, 0x03, 0x02, 0x6D, 0x00, 0x3E, 0x00, 0x9D, 0x02, 0x44, 0xFF, 0x7A, 0xFC, 0x23, 0x01,
         0xBE, 0x00, 0xAA, 0xFC, 0x09, 0x01, 0xD1, 0x02, 0xD0, 0xFD, 0x51, 0x01, 0x0B, 0x06, 0xCD, 0xFE,
         0x1A, 0xFA, 0x09, 0xFE, 0xCC, 0xFD, 0xDE, 0xFE, 0xD3, 0x06, 0x9B, 0x05, 0xD1, 0xFB, 0x99, 0xFC,
         0x7D, 0x03, 0x95, 0x01, 0x8D, 0xFB, 0x79, 0xFB, 0x6C, 0x01, 0x91, 0x06, 0x38, 0x02, 0x65, 0xF8,
         0x52, 0xF9, 0x4C, 0x06, 0x3F, 0x0B, 0x53, 0x00, 0x9F, 0xF7, 0xD3, 0xFD, 0x5D, 0x04, 0xB4, 0xFE,
         0x4F, 0xF9, 0x8B, 0xFC, 0x4F, 0x01, 0x07, 0x08, 0x9B, 0x0A, 0x2A, 0xFE, 0x29, 0xF6, 0xD5, 0xFF,
         0x51, 0x01, 0x2D, 0xF9, 0xEA, 0x00, 0xAF, 0x09, 0x21, 0xFF, 0x39, 0xF8, 0x1A, 0x01, 0x43, 0x06,
         0x98, 0x00, 0x0A, 0xFB, 0x03, 0xFF, 0xFC, 0x05, 0xBD, 0x00, 0xFC, 0xF7, 0x9E, 0xFC, 0x5A, 0x03,
         0x2E, 0x04, 0xF7, 0x05, 0xC3, 0x00, 0x23, 0xF8, 0x19, 0xFC, 0xA0, 0xFF, 0x86, 0xFC, 0xB0, 0x04,
         0x8B, 0x0B, 0x68, 0x01, 0x38, 0xFB, 0x42, 0xFD, 0x99, 0xFA, 0x17, 0xFC, 0xE4, 0x01, 0xA7, 0x02,
         0xF1, 0x03, 0x05, 0x01, 0x8C, 0xFB, 0x0E, 0x04, 0xF1, 0x08, 0x97, 0xFA, 0xF0, 0xF6, 0x64, 0x00,
         0x48, 0xFE, 0x2C, 0xFF, 0x90, 0x06, 0x09, 0xFF, 0x41, 0xFC, 0xF4, 0x08, 0xD9, 0x05, 0x11, 0xF8,
         0x3E, 0xF9, 0x49, 0xFF, 0x2D, 0x02, 0xEF, 0x02, 0x73, 0xFC, 0x2D, 0xFE, 0x46, 0x0A, 0x94, 0x03,
         0xBB, 0xF4, 0x27, 0xFC, 0xF4, 0x05, 0xDC, 0xFF, 0xF3, 0xFC, 0x9B, 0x02, 0xBC, 0x05, 0xBD, 0x01,
         0x59, 0xF9, 0xED, 0xF9, 0xC8, 0x03, 0xA0, 0x03, 0x2D, 0xFD, 0x59, 0xFF, 0x6A, 0x00, 0xC7, 0xFD,
         0x85, 0x03, 0x1A, 0x07, 0x0E, 0xFE, 0xCC, 0xFA, 0x11, 0x02, 0x1D, 0x00, 0x39, 0xF8, 0x00, 0xFC,
         0xF5, 0x05, 0x41, 0x06, 0x6D, 0x00, 0x82, 0x01, 0x78, 0x01, 0x30, 0xFB, 0x8A, 0xFC, 0xB1, 0x01,
         0x72, 0xFF, 0xFB, 0xFC, 0xDA, 0xFE, 0xE6, 0x02, 0xB3, 0x06, 0x42, 0x01, 0xFF, 0xF9, 0x62, 0x01,
         0xFE, 0x05, 0xEE, 0xF9, 0x6B, 0xF7, 0xC7, 0x02, 0x09, 0x04, 0x11, 0x00, 0x1E, 0x01, 0xF5, 0xFF,
         0xC9, 0x00, 0x99, 0x02, 0x89, 0xFD, 0x8E, 0xFF, 0x81, 0x05, 0x31, 0xFD, 0x35, 0xF7, 0xF5, 0xFC,
         0x14, 0xFE, 0x3D, 0x02, 0x3F, 0x0C, 0x0C, 0x07, 0xB1, 0xFC, 0xA7, 0xFE, 0xAB, 0xFC, 0x1E, 0xF8,
         0x54, 0xFD, 0x6C, 0xFF, 0x5F, 0x01, 0xC4, 0x07, 0x6C, 0x03, 0x87, 0xFD, 0x47, 0x01, 0x40, 0x00,
         0xB8, 0xFA, 0x70, 0xFF, 0x9A, 0x04, 0x8A, 0xFD, 0x8C, 0xF9, 0x2E, 0xFE, 0x41, 0x02, 0x9F, 0x07,
         0xD5, 0x08, 0xAC, 0xFF, 0xFC, 0xF8, 0x5D, 0xFB, 0x2F, 0xFE, 0xFF, 0xFD, 0x6C, 0xFD, 0xF4, 0x00,
         0xDC, 0x07, 0x8E, 0x05, 0xDB, 0xFA, 0x1D, 0xFA, 0xDD, 0x05, 0xA7, 0x07, 0xB9, 0xFA, 0xB9, 0xF9,
         0x81, 0x00, 0x77, 0xFD, 0x12, 0xFF, 0xE1, 0x03, 0xF9, 0xFE, 0xB0, 0x00, 0x99, 0x08, 0x39, 0x00,
         0x16, 0xF6, 0xAD, 0xFF, 0x48, 0x05, 0x69, 0xFD, 0xD8, 0xFD, 0x6F, 0x01, 0x50, 0x00, 0xFA, 0x00,
         0xE2, 0xFE, 0x5D, 0xFE, 0x29, 0x04, 0xC9, 0x02, 0x7A, 0xFE, 0xFD, 0x00, 0x2D, 0xFB, 0xB7, 0xF4,
         0xB4, 0x02, 0x8A, 0x0D, 0xBF, 0x02, 0x6D, 0xFB, 0x55, 0x00, 0xB8, 0x00, 0x7D, 0xFB, 0xF3, 0xFA,
         0x9B, 0x01, 0x43, 0x06, 0x75, 0x02, 0x1A, 0xFC, 0xBB, 0xFB, 0xF9, 0x01, 0xA5, 0x05, 0x9B, 0xFF,
         0xC0, 0xFA, 0x4A, 0xFF, 0x35, 0x02, 0x6C, 0x03, 0xDF, 0xFE, 0x74, 0xF9, 0xA3, 0x02, 0x9D, 0x03,
         0xDB, 0xFD, 0x85, 0x03, 0x17, 0x00, 0x6A, 0xFA, 0x87, 0x01, 0xB1, 0x00, 0xB8, 0xFD, 0xD5, 0x02,
         0x86, 0xFD, 0xCA, 0xFD, 0x4B, 0x08, 0xB3, 0x02, 0xA3, 0xFB, 0x90, 0xFD, 0xC0, 0xFC, 0x80, 0x00,
         0x50, 0x04, 0x2F, 0xFC, 0x06, 0xFC, 0xC6, 0x07, 0xCD, 0x05, 0xD7, 0xFA, 0xAF, 0xFB, 0x39, 0x02,
         0x72, 0x01, 0x34, 0xFC, 0x63, 0xFD, 0x71, 0x04, 0x18, 0x04, 0x24, 0xFF, 0x6E, 0xFD, 0xE4, 0xFC,
         0x3C, 0x01, 0x61, 0x04, 0xAF, 0xFD, 0xBD, 0xFA, 0x26, 0x03, 0xC9, 0x06, 0x9D, 0xFF, 0xBE, 0xFB,
         0x8C, 0xFC, 0x68, 0xFE, 0x0D, 0x04, 0x19, 0x02, 0x05, 0xFC, 0xD8, 0xFF, 0x64, 0x03, 0x2D, 0x02,
         0xFE, 0x01, 0x8E, 0xFE, 0x15, 0xFB, 0x97, 0xFD, 0x30, 0xFF, 0x73, 0x00, 0x00, 0x04, 0x71, 0x03,
         0x4C, 0xFF, 0x39, 0xFC, 0x5C, 0xFF, 0x3C, 0x03, 0x7B, 0x01, 0x9D, 0xFE, 0x08, 0xFB, 0x9C, 0xFF,
         0x0E, 0x06, 0x25, 0xFF, 0x6F, 0xFB, 0xCF, 0xFF, 0xEB, 0x02, 0x23, 0x04, 0x56, 0xFF, 0x1C, 0xFC,
         0xA4, 0xFF, 0xC8, 0xFE, 0xFC, 0xFF, 0xAF, 0x06, 0xC2, 0xFF, 0x30, 0xF8, 0x08, 0xFF, 0x3C, 0x02,
         0x1B, 0x00, 0x6C, 0x02, 0xED, 0x04, 0x70, 0x01, 0x21, 0xFC, 0x3B, 0xFC, 0xC9, 0xFC, 0x53, 0xFB,
         0xDB, 0x01, 0x71, 0x09, 0x4B, 0x04, 0xF0, 0xFE, 0x83, 0xFE, 0xB4, 0xFA, 0x8F, 0xFB, 0x3B, 0x02,
         0x9E, 0x03, 0x85, 0x01, 0x6C, 0xFE, 0x30, 0xFC, 0x0E, 0x01, 0x62, 0x03, 0x32, 0x01, 0x2B, 0xFF,
         0x1E, 0xFE, 0x04, 0x04, 0xE0, 0x01, 0xD0, 0xF7, 0x76, 0xFB, 0x28, 0x03, 0x19, 0x03, 0xA6, 0x00,
         0x9A, 0x01, 0xE0, 0x03, 0xF4, 0x00, 0x90, 0xFB, 0x15, 0xFA, 0x5B, 0xFE, 0x05, 0x04, 0xB6, 0x02,
         0x72, 0xFE, 0x44, 0x02, 0xD4, 0xFF, 0x8D, 0xFB, 0x5A, 0x05, 0x12, 0x01, 0x77, 0xFB, 0xA3, 0x05,
         0x09, 0xFC, 0x18, 0xF4, 0x75, 0x06, 0x74, 0x09, 0x26, 0xFC, 0xA5, 0xFF, 0x2A, 0x04, 0x74, 0xFD,
         0xDF, 0xFB, 0x8D, 0xFE, 0xC4, 0x01, 0xC3, 0x05, 0xD8, 0x01, 0xAF, 0xF7, 0xE1, 0xFA, 0x98, 0x06,
         0xAB, 0x02, 0x01, 0xFB, 0xA8, 0x02, 0x59, 0x06, 0x1A, 0xFE, 0xF9, 0xFB, 0x1C, 0xFC, 0x8D, 0xFF,
         0x3B, 0x06, 0xB4, 0x00, 0x57, 0xFD, 0xDB, 0x00, 0xCC, 0xFD, 0xA8, 0xFF, 0xBA, 0x03, 0xBC, 0xFD,
         0x4C, 0xFE, 0xBE, 0x03, 0x08, 0xFF, 0x8E, 0xFD, 0x5F, 0x00, 0x7B, 0x01, 0xD8, 0x01, 0x07, 0xFF,
         0x4F, 0xFF, 0x46, 0xFF, 0x38, 0xFE, 0x87, 0x00, 0xB8, 0x00, 0x6E, 0x01, 0x76, 0x02, 0xA7, 0xFE,
         0x8B, 0xFD, 0x2F, 0x00, 0xDE, 0xFE, 0xFF, 0xFE, 0xA4, 0x02, 0xBE, 0x01, 0x5F, 0xFF, 0x95, 0xFF,
         0xD6, 0xFF, 0x7D, 0xFF, 0x84, 0xFF, 0xB8, 0xFF, 0x31, 0x00, 0x15, 0x01, 0xE7, 0xFF, 0x91, 0xFE,
         0xCC, 0x00, 0x57, 0x01, 0xAA, 0xFE, 0x8B, 0xFF, 0x61, 0x01, 0x93, 0xFF, 0x3F, 0xFF, 0x4D, 0x00,
         0xDE, 0xFF, 0x3B, 0x00, 0x8C, 0x00, 0xAB, 0xFF, 0xC7, 0xFF, 0x13, 0x00, 0x00, 0x00
     };

#endif /* IS_DJ_BASE_MOTIONGAME */ 
#endif /* _MMI_MOTION_DJ_AUD_RES_C */ 

