#include "kal_release.h"

#ifndef __L1_STANDALONE__

#ifdef WIN32
#define __align(X)
#endif

#include "device.h"
#include "resource_audio.h"

__align(4) static const unsigned char Aclassical04_mid[] = {
	0x4D,0x54,0x68,0x64,0x00,0x00,0x00,0x06,
	0x00,0x01,0x00,0x0A,0x00,0x78,0x4D,0x54,
	0x72,0x6B,0x00,0x00,0x00,0x20,0x00,0xFF,
	0x58,0x04,0x04,0x02,0x18,0x08,0x00,0xFF,
	0x59,0x02,0x00,0x00,0x00,0xFF,0x51,0x03,
	0x09,0x27,0xC0,0x03,0xFF,0x51,0x03,0x10,
	0xF4,0x47,0x00,0xFF,0x2F,0x00,0x4D,0x54,
	0x72,0x6B,0x00,0x00,0x01,0xA2,0x00,0xB0,
	0x00,0x00,0x00,0x20,0x00,0x00,0xC0,0x0A,
	0x00,0xB0,0x07,0x7F,0x00,0x0A,0x1E,0x00,
	0x90,0x46,0x5F,0x26,0x46,0x00,0x02,0x48,
	0x6E,0x1E,0x48,0x00,0x06,0x4A,0x68,0x1D,
	0x4A,0x00,0x0B,0x4D,0x68,0x7A,0x4A,0x5D,
	0x01,0x4D,0x00,0x77,0x48,0x68,0x01,0x4A,
	0x00,0x25,0x46,0x54,0x01,0x48,0x00,0x31,
	0x46,0x00,0x22,0x46,0x59,0x27,0x48,0x68,
	0x02,0x46,0x00,0x24,0x4A,0x6B,0x04,0x48,
	0x00,0x25,0x4F,0x6B,0x02,0x4A,0x00,0x76,
	0x4A,0x68,0x03,0x4F,0x00,0x75,0x4A,0x00,
	0x00,0x48,0x65,0x2B,0x46,0x56,0x02,0x48,
	0x00,0x1F,0x46,0x00,0x2D,0x46,0x5B,0x25,
	0x48,0x72,0x03,0x46,0x00,0x24,0x4A,0x6E,
	0x01,0x48,0x00,0x27,0x4A,0x00,0x02,0x4F,
	0x6E,0x26,0x4F,0x00,0x54,0x4F,0x68,0x25,
	0x4D,0x6B,0x01,0x4F,0x00,0x27,0x4B,0x63,
	0x02,0x4D,0x00,0x21,0x4B,0x00,0x05,0x4D,
	0x68,0x2C,0x4D,0x00,0x78,0x4A,0x68,0x18,
	0x4A,0x00,0x0B,0x4A,0x5D,0x1B,0x4A,0x00,
	0x10,0x48,0x4B,0x26,0x46,0x52,0x02,0x48,
	0x00,0x17,0x46,0x00,0x10,0x46,0x5B,0x12,
	0x46,0x00,0x19,0x46,0x68,0x27,0x46,0x00,
	0x01,0x48,0x65,0x20,0x48,0x00,0x04,0x4A,
	0x5B,0x29,0x48,0x6B,0x02,0x4A,0x00,0x27,
	0x48,0x00,0x01,0x46,0x74,0x1A,0x46,0x00,
	0x0B,0x46,0x6E,0x0D,0x46,0x00,0x1F,0x46,
	0x5F,0x26,0x46,0x00,0x02,0x48,0x6E,0x1E,
	0x48,0x00,0x06,0x4A,0x68,0x1D,0x4A,0x00,
	0x0B,0x4D,0x68,0x7A,0x4A,0x5D,0x01,0x4D,
	0x00,0x77,0x48,0x68,0x01,0x4A,0x00,0x25,
	0x46,0x54,0x01,0x48,0x00,0x31,0x46,0x00,
	0x22,0x46,0x59,0x27,0x48,0x68,0x02,0x46,
	0x00,0x24,0x4A,0x6B,0x04,0x48,0x00,0x25,
	0x4F,0x6B,0x02,0x4A,0x00,0x76,0x4A,0x68,
	0x03,0x4F,0x00,0x75,0x4A,0x00,0x00,0x48,
	0x65,0x2B,0x46,0x56,0x02,0x48,0x00,0x1F,
	0x46,0x00,0x2D,0x46,0x5B,0x25,0x48,0x72,
	0x03,0x46,0x00,0x24,0x4A,0x6E,0x01,0x48,
	0x00,0x27,0x4A,0x00,0x02,0x4F,0x6E,0x26,
	0x4F,0x00,0x54,0x4F,0x68,0x25,0x4D,0x6B,
	0x01,0x4F,0x00,0x27,0x4B,0x63,0x02,0x4D,
	0x00,0x21,0x4B,0x00,0x05,0x4D,0x68,0x2C,
	0x4D,0x00,0x78,0x4A,0x68,0x18,0x4A,0x00,
	0x0B,0x4A,0x5D,0x1B,0x4A,0x00,0x10,0x48,
	0x4B,0x26,0x46,0x52,0x02,0x48,0x00,0x17,
	0x46,0x00,0x10,0x46,0x5B,0x12,0x46,0x00,
	0x19,0x46,0x68,0x27,0x46,0x00,0x01,0x48,
	0x65,0x20,0x48,0x00,0x04,0x4A,0x5B,0x29,
	0x48,0x6B,0x02,0x4A,0x00,0x27,0x48,0x00,
	0x01,0x46,0x74,0x1A,0x46,0x00,0x0B,0x46,
	0x6E,0x0D,0x46,0x00,0x00,0xFF,0x2F,0x00,
	0x4D,0x54,0x72,0x6B,0x00,0x00,0x01,0x3E,
	0x00,0xB1,0x00,0x00,0x00,0x07,0x78,0x00,
	0x0A,0x40,0x01,0x20,0x00,0x01,0xC1,0x21,
	0x76,0x91,0x22,0x68,0x81,0x33,0x22,0x00,
	0x15,0x1D,0x60,0x26,0x1D,0x00,0x02,0x22,
	0x5F,0x81,0x0A,0x22,0x00,0x02,0x1D,0x62,
	0x0B,0x1D,0x00,0x09,0x22,0x7C,0x0C,0x22,
	0x00,0x1C,0x21,0x68,0x0D,0x21,0x00,0x1B,
	0x1F,0x5B,0x81,0x35,0x1F,0x00,0x13,0x1A,
	0x62,0x1D,0x1A,0x00,0x0B,0x1F,0x65,0x81,
	0x09,0x1F,0x00,0x17,0x1F,0x5D,0x21,0x1F,
	0x00,0x07,0x1D,0x6B,0x1C,0x1D,0x00,0x0C,
	0x1B,0x63,0x81,0x09,0x1B,0x00,0x17,0x1B,
	0x56,0x23,0x1B,0x00,0x05,0x1F,0x62,0x1C,
	0x1F,0x00,0x0C,0x1A,0x68,0x81,0x10,0x1A,
	0x00,0x10,0x1A,0x5D,0x27,0x1A,0x00,0x01,
	0x1D,0x62,0x1B,0x1D,0x00,0x0D,0x18,0x65,
	0x81,0x1B,0x18,0x00,0x05,0x1A,0x60,0x15,
	0x1A,0x00,0x13,0x1B,0x68,0x15,0x1B,0x00,
	0x13,0x1D,0x60,0x81,0x03,0x1D,0x00,0x1D,
	0x1D,0x72,0x20,0x1D,0x00,0x08,0x1F,0x68,
	0x14,0x1F,0x00,0x14,0x22,0x68,0x81,0x33,
	0x22,0x00,0x15,0x1D,0x60,0x26,0x1D,0x00,
	0x02,0x22,0x5F,0x81,0x0A,0x22,0x00,0x02,
	0x1D,0x62,0x0B,0x1D,0x00,0x09,0x22,0x7C,
	0x0C,0x22,0x00,0x1C,0x21,0x68,0x0D,0x21,
	0x00,0x1B,0x1F,0x5B,0x81,0x35,0x1F,0x00,
	0x13,0x1A,0x62,0x1D,0x1A,0x00,0x0B,0x1F,
	0x65,0x81,0x09,0x1F,0x00,0x17,0x1F,0x5D,
	0x21,0x1F,0x00,0x07,0x1D,0x6B,0x1C,0x1D,
	0x00,0x0C,0x1B,0x63,0x81,0x09,0x1B,0x00,
	0x17,0x1B,0x56,0x23,0x1B,0x00,0x05,0x1F,
	0x62,0x1C,0x1F,0x00,0x0C,0x1A,0x68,0x81,
	0x10,0x1A,0x00,0x10,0x1A,0x5D,0x27,0x1A,
	0x00,0x01,0x1D,0x62,0x1B,0x1D,0x00,0x0D,
	0x18,0x65,0x81,0x1B,0x18,0x00,0x05,0x1A,
	0x60,0x28,0x1B,0x68,0x0B,0x1A,0x00,0x1D,
	0x1D,0x60,0x0B,0x1B,0x00,0x1B,0x1D,0x00,
	0x02,0x1D,0x60,0x26,0x1D,0x00,0x02,0x1D,
	0x60,0x11,0x1D,0x00,0x17,0x1D,0x60,0x1C,
	0x1D,0x00,0x00,0xFF,0x2F,0x00,0x4D,0x54,
	0x72,0x6B,0x00,0x00,0x00,0x5E,0x00,0xB2,
	0x00,0x00,0x00,0x07,0x64,0x00,0x0A,0x40,
	0x01,0x20,0x00,0x01,0xC2,0x3D,0x9D,0x06,
	0x92,0x4F,0x42,0x00,0x52,0x45,0x00,0x57,
	0x42,0x16,0x4F,0x00,0x02,0x52,0x00,0x01,
	0x57,0x00,0x0F,0x4F,0x4E,0x00,0x52,0x4E,
	0x00,0x57,0x49,0x17,0x52,0x00,0x02,0x57,
	0x00,0x00,0x4F,0x00,0x0F,0x4F,0x54,0x00,
	0x52,0x59,0x00,0x57,0x59,0x1C,0x52,0x00,
	0x01,0x57,0x00,0x00,0x4F,0x00,0x0B,0x4F,
	0x5C,0x00,0x52,0x5D,0x00,0x57,0x5C,0x0E,
	0x4F,0x00,0x01,0x57,0x00,0x00,0x52,0x00,
	0x00,0xFF,0x2F,0x00,0x4D,0x54,0x72,0x6B,
	0x00,0x00,0x01,0xA1,0x00,0xB3,0x00,0x00,
	0x00,0x07,0x7F,0x00,0x0A,0x64,0x01,0x20,
	0x00,0x01,0xC3,0x0A,0x02,0x93,0x46,0x5F,
	0x26,0x46,0x00,0x02,0x48,0x6E,0x1E,0x48,
	0x00,0x06,0x4A,0x68,0x1D,0x4A,0x00,0x0B,
	0x4D,0x68,0x7A,0x4A,0x5D,0x01,0x4D,0x00,
	0x77,0x48,0x68,0x01,0x4A,0x00,0x25,0x46,
	0x54,0x01,0x48,0x00,0x31,0x46,0x00,0x22,
	0x46,0x59,0x27,0x48,0x68,0x02,0x46,0x00,
	0x24,0x4A,0x6B,0x04,0x48,0x00,0x25,0x4F,
	0x6B,0x02,0x4A,0x00,0x76,0x4A,0x68,0x03,
	0x4F,0x00,0x75,0x4A,0x00,0x00,0x48,0x65,
	0x2B,0x46,0x56,0x02,0x48,0x00,0x1F,0x46,
	0x00,0x2D,0x46,0x5B,0x25,0x48,0x72,0x03,
	0x46,0x00,0x24,0x4A,0x6E,0x01,0x48,0x00,
	0x27,0x4A,0x00,0x02,0x4F,0x6E,0x26,0x4F,
	0x00,0x54,0x4F,0x68,0x25,0x4D,0x6B,0x01,
	0x4F,0x00,0x27,0x4B,0x63,0x02,0x4D,0x00,
	0x21,0x4B,0x00,0x05,0x4D,0x68,0x2C,0x4D,
	0x00,0x78,0x4A,0x68,0x18,0x4A,0x00,0x0B,
	0x4A,0x5D,0x1B,0x4A,0x00,0x10,0x48,0x4B,
	0x26,0x46,0x52,0x02,0x48,0x00,0x17,0x46,
	0x00,0x10,0x46,0x5B,0x12,0x46,0x00,0x19,
	0x46,0x68,0x27,0x46,0x00,0x01,0x48,0x65,
	0x20,0x48,0x00,0x04,0x4A,0x5B,0x29,0x48,
	0x6B,0x02,0x4A,0x00,0x27,0x48,0x00,0x01,
	0x46,0x74,0x1A,0x46,0x00,0x0B,0x46,0x6E,
	0x0D,0x46,0x00,0x1F,0x46,0x5F,0x26,0x46,
	0x00,0x02,0x48,0x6E,0x1E,0x48,0x00,0x06,
	0x4A,0x68,0x1D,0x4A,0x00,0x0B,0x4D,0x68,
	0x7A,0x4A,0x5D,0x01,0x4D,0x00,0x77,0x48,
	0x68,0x01,0x4A,0x00,0x25,0x46,0x54,0x01,
	0x48,0x00,0x31,0x46,0x00,0x22,0x46,0x59,
	0x27,0x48,0x68,0x02,0x46,0x00,0x24,0x4A,
	0x6B,0x04,0x48,0x00,0x25,0x4F,0x6B,0x02,
	0x4A,0x00,0x76,0x4A,0x68,0x03,0x4F,0x00,
	0x75,0x4A,0x00,0x00,0x48,0x65,0x2B,0x46,
	0x56,0x02,0x48,0x00,0x1F,0x46,0x00,0x2D,
	0x46,0x5B,0x25,0x48,0x72,0x03,0x46,0x00,
	0x24,0x4A,0x6E,0x01,0x48,0x00,0x27,0x4A,
	0x00,0x02,0x4F,0x6E,0x26,0x4F,0x00,0x54,
	0x4F,0x68,0x25,0x4D,0x6B,0x01,0x4F,0x00,
	0x27,0x4B,0x63,0x02,0x4D,0x00,0x21,0x4B,
	0x00,0x05,0x4D,0x68,0x2C,0x4D,0x00,0x78,
	0x4A,0x68,0x18,0x4A,0x00,0x0B,0x4A,0x5D,
	0x1B,0x4A,0x00,0x10,0x48,0x4B,0x26,0x46,
	0x52,0x02,0x48,0x00,0x17,0x46,0x00,0x10,
	0x46,0x5B,0x12,0x46,0x00,0x19,0x46,0x68,
	0x27,0x46,0x00,0x01,0x48,0x65,0x20,0x48,
	0x00,0x04,0x4A,0x5B,0x29,0x48,0x6B,0x02,
	0x4A,0x00,0x27,0x48,0x00,0x01,0x46,0x74,
	0x1A,0x46,0x00,0x0B,0x46,0x6E,0x0D,0x46,
	0x00,0x00,0xFF,0x2F,0x00,0x4D,0x54,0x72,
	0x6B,0x00,0x00,0x01,0x99,0x00,0xB4,0x00,
	0x00,0x00,0x07,0x46,0x00,0x0A,0x40,0x01,
	0x20,0x00,0x01,0xC4,0x36,0x76,0x94,0x3E,
	0x51,0x00,0x41,0x5D,0x00,0x46,0x5B,0x69,
	0x46,0x00,0x02,0x41,0x00,0x00,0x3E,0x00,
	0x0D,0x3E,0x53,0x00,0x41,0x5B,0x00,0x45,
	0x65,0x6B,0x41,0x00,0x01,0x3E,0x00,0x03,
	0x45,0x00,0x09,0x3E,0x5B,0x00,0x41,0x57,
	0x00,0x46,0x5F,0x3E,0x41,0x00,0x00,0x3E,
	0x00,0x01,0x46,0x00,0x81,0x31,0x3E,0x51,
	0x00,0x43,0x60,0x00,0x46,0x59,0x5B,0x43,
	0x00,0x01,0x46,0x00,0x00,0x3E,0x00,0x1C,
	0x3E,0x59,0x00,0x43,0x60,0x00,0x45,0x59,
	0x62,0x43,0x00,0x04,0x3E,0x00,0x01,0x45,
	0x00,0x11,0x3E,0x50,0x00,0x43,0x60,0x00,
	0x46,0x5B,0x55,0x46,0x00,0x00,0x43,0x00,
	0x01,0x3E,0x00,0x81,0x1A,0x3F,0x4C,0x00,
	0x43,0x5D,0x00,0x46,0x56,0x64,0x3F,0x00,
	0x01,0x46,0x00,0x00,0x43,0x00,0x81,0x0B,
	0x3E,0x53,0x00,0x41,0x57,0x00,0x45,0x5B,
	0x68,0x3E,0x00,0x02,0x45,0x00,0x00,0x41,
	0x00,0x81,0x06,0x3C,0x55,0x00,0x3F,0x56,
	0x00,0x43,0x59,0x81,0x04,0x3F,0x00,0x01,
	0x43,0x00,0x00,0x3C,0x00,0x6B,0x3A,0x48,
	0x00,0x3F,0x59,0x00,0x43,0x5B,0x52,0x3F,
	0x00,0x00,0x3A,0x00,0x01,0x43,0x00,0x25,
	0x3A,0x4A,0x00,0x3F,0x5B,0x00,0x43,0x55,
	0x33,0x3F,0x00,0x01,0x3A,0x00,0x02,0x43,
	0x00,0x42,0x3E,0x3F,0x00,0x41,0x60,0x00,
	0x46,0x4E,0x54,0x41,0x00,0x02,0x3E,0x00,
	0x01,0x46,0x00,0x21,0x3E,0x50,0x00,0x41,
	0x5B,0x00,0x45,0x59,0x66,0x41,0x00,0x01,
	0x3E,0x00,0x02,0x45,0x00,0x0F,0x3E,0x5B,
	0x00,0x41,0x62,0x00,0x46,0x52,0x4E,0x41,
	0x00,0x00,0x3E,0x00,0x02,0x46,0x00,0x81,
	0x20,0x3E,0x55,0x00,0x43,0x60,0x00,0x46,
	0x4E,0x5C,0x46,0x00,0x02,0x43,0x00,0x01,
	0x3E,0x00,0x19,0x3E,0x4E,0x00,0x43,0x60,
	0x00,0x45,0x5B,0x57,0x43,0x00,0x09,0x3E,
	0x00,0x02,0x45,0x00,0x16,0x3E,0x57,0x00,
	0x43,0x55,0x00,0x46,0x54,0x5B,0x3E,0x00,
	0x01,0x46,0x00,0x00,0x43,0x00,0x81,0x14,
	0x3F,0x50,0x00,0x43,0x5D,0x00,0x46,0x56,
	0x62,0x46,0x00,0x00,0x43,0x00,0x00,0x3F,
	0x00,0x81,0x0E,0x3E,0x50,0x00,0x41,0x55,
	0x00,0x45,0x50,0x58,0x3E,0x00,0x01,0x41,
	0x00,0x02,0x45,0x00,0x81,0x15,0x3A,0x3C,
	0x00,0x3F,0x52,0x00,0x43,0x51,0x81,0x55,
	0x43,0x00,0x05,0x3A,0x00,0x02,0x3F,0x00,
	0x14,0x3F,0x52,0x00,0x43,0x6E,0x00,0x46,
	0x52,0x20,0x43,0x00,0x04,0x3F,0x00,0x04,
	0x46,0x00,0x00,0xFF,0x2F,0x00,0x4D,0x54,
	0x72,0x6B,0x00,0x00,0x00,0x71,0x00,0xB5,
	0x00,0x00,0x00,0x07,0x3C,0x00,0x0A,0x40,
	0x01,0x20,0x00,0x01,0xC5,0x31,0x73,0x95,
	0x59,0x40,0x83,0x5F,0x59,0x00,0x02,0x5B,
	0x3F,0x82,0x64,0x5B,0x00,0x01,0x56,0x44,
	0x78,0x56,0x00,0x01,0x5B,0x44,0x81,0x6E,
	0x5B,0x00,0x03,0x5D,0x4C,0x76,0x59,0x42,
	0x02,0x5D,0x00,0x79,0x59,0x00,0x01,0x57,
	0x40,0x83,0x45,0x57,0x00,0x19,0x59,0x40,
	0x83,0x5F,0x59,0x00,0x02,0x5B,0x3F,0x82,
	0x64,0x5B,0x00,0x01,0x56,0x44,0x78,0x56,
	0x00,0x01,0x5B,0x44,0x81,0x6E,0x5B,0x00,
	0x03,0x5D,0x4C,0x76,0x59,0x42,0x02,0x5D,
	0x00,0x79,0x59,0x00,0x01,0x57,0x40,0x82,
	0x2F,0x57,0x00,0x00,0xFF,0x2F,0x00,0x4D,
	0x54,0x72,0x6B,0x00,0x00,0x02,0xC5,0x00,
	0xB6,0x00,0x00,0x00,0x07,0x64,0x00,0x0A,
	0x40,0x01,0x20,0x00,0x01,0xC6,0x04,0x76,
	0x96,0x35,0x62,0x00,0x3A,0x65,0x00,0x3E,
	0x68,0x81,0x20,0x3C,0x65,0x0A,0xB6,0x40,
	0x7F,0x11,0x96,0x3E,0x00,0x01,0x3A,0x00,
	0x02,0x35,0x00,0x00,0x3C,0x00,0x32,0x35,
	0x58,0x00,0x3A,0x5C,0x00,0x3E,0x5D,0x04,
	0xB6,0x40,0x00,0x7D,0x40,0x7F,0x1C,0x96,
	0x35,0x00,0x01,0x3E,0x00,0x00,0x3A,0x00,
	0x4F,0xB6,0x40,0x00,0x03,0x96,0x37,0x5A,
	0x00,0x3A,0x6B,0x00,0x3E,0x68,0x81,0x09,
	0xB6,0x40,0x7F,0x17,0x96,0x39,0x62,0x1E,
	0x3A,0x00,0x02,0x3E,0x00,0x03,0x37,0x00,
	0x03,0x39,0x00,0x27,0xB6,0x40,0x00,0x03,
	0x96,0x37,0x56,0x00,0x3A,0x53,0x00,0x3E,
	0x68,0x81,0x01,0xB6,0x40,0x7F,0x0E,0x96,
	0x3E,0x00,0x11,0x3C,0x62,0x09,0xB6,0x40,
	0x00,0x1F,0x96,0x3E,0x65,0x02,0xB6,0x40,
	0x7F,0x02,0x96,0x3A,0x00,0x01,0x3C,0x00,
	0x02,0x37,0x00,0x00,0x3E,0x00,0x1C,0xB6,
	0x40,0x00,0x05,0x96,0x37,0x65,0x00,0x3A,
	0x71,0x00,0x3F,0x65,0x7C,0xB6,0x40,0x7F,
	0x17,0x96,0x37,0x00,0x10,0x3A,0x00,0x04,
	0x3F,0x00,0x44,0xB6,0x40,0x00,0x05,0x96,
	0x39,0x5D,0x00,0x3C,0x68,0x00,0x3E,0x62,
	0x00,0x41,0x68,0x2A,0xB6,0x40,0x7F,0x0A,
	0x96,0x3C,0x00,0x01,0x3E,0x00,0x02,0x41,
	0x00,0x02,0x39,0x00,0x3F,0x38,0x58,0x00,
	0x3B,0x6F,0x00,0x3E,0x6F,0x00,0x41,0x6F,
	0x01,0xB6,0x40,0x00,0x2C,0x96,0x3E,0x00,
	0x00,0xB6,0x40,0x7F,0x02,0x96,0x3B,0x00,
	0x01,0x41,0x00,0x02,0x38,0x00,0x46,0x37,
	0x5A,0x00,0x3A,0x5C,0x00,0x3C,0x68,0x00,
	0x3F,0x58,0x02,0xB6,0x40,0x00,0x7C,0x40,
	0x7F,0x09,0x96,0x3C,0x00,0x19,0x3C,0x68,
	0x03,0x3F,0x00,0x23,0x3C,0x00,0x00,0x3A,
	0x00,0x01,0x37,0x00,0x01,0x3F,0x4F,0x06,
	0x3F,0x00,0x22,0x3A,0x56,0x00,0x3F,0x58,
	0x00,0x43,0x68,0x09,0xB6,0x40,0x00,0x42,
	0x40,0x7F,0x16,0x40,0x00,0x19,0x40,0x7F,
	0x0B,0x96,0x3A,0x00,0x01,0x43,0x00,0x00,
	0x3F,0x00,0x46,0xB6,0x40,0x00,0x24,0x96,
	0x35,0x62,0x00,0x3A,0x65,0x00,0x3E,0x68,
	0x81,0x20,0x3C,0x65,0x0A,0xB6,0x40,0x7F,
	0x11,0x96,0x3E,0x00,0x01,0x3A,0x00,0x02,
	0x35,0x00,0x00,0x3C,0x00,0x32,0x35,0x58,
	0x00,0x3A,0x5C,0x00,0x3E,0x5D,0x04,0xB6,
	0x40,0x00,0x7D,0x40,0x7F,0x1C,0x96,0x35,
	0x00,0x01,0x3E,0x00,0x00,0x3A,0x00,0x4F,
	0xB6,0x40,0x00,0x03,0x96,0x37,0x5A,0x00,
	0x3A,0x6B,0x00,0x3E,0x68,0x81,0x09,0xB6,
	0x40,0x7F,0x17,0x96,0x39,0x62,0x1E,0x3A,
	0x00,0x02,0x3E,0x00,0x03,0x37,0x00,0x03,
	0x39,0x00,0x27,0xB6,0x40,0x00,0x03,0x96,
	0x37,0x56,0x00,0x3A,0x53,0x00,0x3E,0x68,
	0x81,0x01,0xB6,0x40,0x7F,0x0E,0x96,0x3E,
	0x00,0x11,0x3C,0x62,0x09,0xB6,0x40,0x00,
	0x1F,0x96,0x3E,0x65,0x02,0xB6,0x40,0x7F,
	0x02,0x96,0x3A,0x00,0x01,0x3C,0x00,0x02,
	0x37,0x00,0x00,0x3E,0x00,0x1C,0xB6,0x40,
	0x00,0x05,0x96,0x37,0x65,0x00,0x3A,0x71,
	0x00,0x3F,0x65,0x7C,0xB6,0x40,0x7F,0x17,
	0x96,0x37,0x00,0x10,0x3A,0x00,0x04,0x3F,
	0x00,0x44,0xB6,0x40,0x00,0x05,0x96,0x39,
	0x5D,0x00,0x3C,0x68,0x00,0x3E,0x62,0x00,
	0x41,0x68,0x2A,0xB6,0x40,0x7F,0x0A,0x96,
	0x3C,0x00,0x01,0x3E,0x00,0x02,0x41,0x00,
	0x02,0x39,0x00,0x3F,0x38,0x58,0x00,0x3B,
	0x6F,0x00,0x3E,0x6F,0x00,0x41,0x6F,0x01,
	0xB6,0x40,0x00,0x2C,0x96,0x3E,0x00,0x00,
	0xB6,0x40,0x7F,0x02,0x96,0x3B,0x00,0x01,
	0x41,0x00,0x02,0x38,0x00,0x46,0x37,0x5A,
	0x00,0x3A,0x5C,0x00,0x3C,0x68,0x00,0x3F,
	0x58,0x02,0xB6,0x40,0x00,0x7C,0x40,0x7F,
	0x09,0x96,0x3C,0x00,0x19,0x3C,0x68,0x03,
	0x3F,0x00,0x23,0x3C,0x00,0x00,0x3A,0x00,
	0x01,0x37,0x00,0x01,0x3F,0x4F,0x06,0x3F,
	0x00,0x22,0x37,0x68,0x00,0x3A,0x56,0x00,
	0x3F,0x58,0x09,0xB6,0x40,0x00,0x1D,0x96,
	0x3F,0x00,0x00,0x3A,0x00,0x00,0x37,0x00,
	0x02,0x37,0x68,0x00,0x3A,0x68,0x00,0x3F,
	0x68,0x23,0xB6,0x40,0x7F,0x03,0x96,0x3F,
	0x00,0x00,0x3A,0x00,0x00,0x37,0x00,0x02,
	0x37,0x68,0x00,0x3A,0x68,0x00,0x3F,0x68,
	0x11,0x3F,0x00,0x00,0x3A,0x00,0x00,0x37,
	0x00,0x0A,0xB6,0x40,0x00,0x0D,0x96,0x37,
	0x68,0x00,0x3A,0x68,0x00,0x3F,0x68,0x0D,
	0x3A,0x00,0x01,0x3F,0x00,0x00,0x37,0x00,
	0x00,0xFF,0x2F,0x00,0x4D,0x54,0x72,0x6B,
	0x00,0x00,0x02,0x92,0x00,0xB7,0x00,0x00,
	0x00,0x07,0x5A,0x00,0x0A,0x40,0x01,0x20,
	0x00,0x01,0xC7,0x19,0x81,0x1E,0x97,0x35,
	0x5B,0x28,0x3A,0x68,0x29,0xB7,0x40,0x7F,
	0x09,0x97,0x35,0x00,0x17,0x3A,0x00,0x07,
	0x35,0x5D,0x28,0x3A,0x63,0x07,0xB7,0x40,
	0x00,0x25,0x40,0x7F,0x05,0x97,0x35,0x00,
	0x18,0x3A,0x00,0x07,0x35,0x5B,0x28,0x3A,
	0x59,0x0D,0xB7,0x40,0x00,0x20,0x40,0x7F,
	0x07,0x97,0x35,0x00,0x15,0x3A,0x00,0x07,
	0x35,0x60,0x28,0x3A,0x68,0x05,0xB7,0x40,
	0x00,0x23,0x40,0x7F,0x05,0x97,0x3A,0x00,
	0x00,0x35,0x00,0x23,0x37,0x53,0x02,0xB7,
	0x40,0x00,0x26,0x97,0x3A,0x68,0x2C,0xB7,
	0x40,0x7F,0x02,0x97,0x37,0x00,0x18,0x3A,
	0x00,0x0A,0x35,0x60,0x28,0x3A,0x68,0x00,
	0xB7,0x40,0x00,0x24,0x40,0x7F,0x07,0x97,
	0x35,0x00,0x05,0x3A,0x00,0x20,0x37,0x5B,
	0x07,0xB7,0x40,0x00,0x21,0x97,0x3A,0x63,
	0x27,0xB7,0x40,0x7F,0x0B,0x97,0x37,0x00,
	0x0A,0x3A,0x00,0x14,0x35,0x62,0x27,0xB7,
	0x40,0x00,0x01,0x97,0x3A,0x63,0x1B,0xB7,
	0x40,0x7F,0x08,0x97,0x3A,0x00,0x00,0x35,
	0x00,0x29,0xB7,0x40,0x00,0x04,0x97,0x37,
	0x5B,0x28,0x3F,0x4C,0x25,0xB7,0x40,0x7F,
	0x06,0x97,0x37,0x00,0x16,0x3F,0x00,0x0F,
	0x37,0x57,0x23,0xB7,0x40,0x00,0x05,0x97,
	0x3F,0x52,0x24,0xB7,0x40,0x7F,0x07,0x97,
	0x3F,0x00,0x02,0x37,0x00,0x23,0x35,0x60,
	0x00,0xB7,0x40,0x00,0x28,0x97,0x3E,0x60,
	0x26,0xB7,0x40,0x7F,0x0E,0x97,0x35,0x00,
	0x04,0x3E,0x00,0x18,0x35,0x60,0x23,0xB7,
	0x40,0x00,0x05,0x97,0x3E,0x6B,0x1D,0xB7,
	0x40,0x7F,0x04,0x97,0x35,0x00,0x04,0x3E,
	0x00,0x27,0xB7,0x40,0x00,0x04,0x97,0x37,
	0x5B,0x28,0x3F,0x5B,0x29,0xB7,0x40,0x7F,
	0x01,0x97,0x37,0x00,0x0B,0x3F,0x00,0x1B,
	0x37,0x59,0x11,0xB7,0x40,0x00,0x17,0x97,
	0x3F,0x56,0x19,0x37,0x00,0x03,0x3F,0x00,
	0x34,0x37,0x59,0x28,0x3F,0x56,0x19,0x37,
	0x00,0x0F,0x37,0x65,0x05,0x3F,0x00,0x02,
	0xB7,0x40,0x7F,0x21,0x97,0x3A,0x56,0x07,
	0x37,0x00,0x21,0x3F,0x38,0x02,0x3A,0x00,
	0x06,0x3F,0x00,0x1D,0xB7,0x40,0x00,0x2B,
	0x97,0x35,0x5B,0x28,0x3A,0x68,0x29,0xB7,
	0x40,0x7F,0x09,0x97,0x35,0x00,0x17,0x3A,
	0x00,0x07,0x35,0x5D,0x28,0x3A,0x63,0x07,
	0xB7,0x40,0x00,0x25,0x40,0x7F,0x05,0x97,
	0x35,0x00,0x18,0x3A,0x00,0x07,0x35,0x5B,
	0x28,0x3A,0x59,0x0D,0xB7,0x40,0x00,0x20,
	0x40,0x7F,0x07,0x97,0x35,0x00,0x15,0x3A,
	0x00,0x07,0x35,0x60,0x28,0x3A,0x68,0x05,
	0xB7,0x40,0x00,0x23,0x40,0x7F,0x05,0x97,
	0x3A,0x00,0x00,0x35,0x00,0x23,0x37,0x53,
	0x02,0xB7,0x40,0x00,0x26,0x97,0x3A,0x68,
	0x2C,0xB7,0x40,0x7F,0x02,0x97,0x37,0x00,
	0x18,0x3A,0x00,0x0A,0x35,0x60,0x28,0x3A,
	0x68,0x00,0xB7,0x40,0x00,0x24,0x40,0x7F,
	0x07,0x97,0x35,0x00,0x05,0x3A,0x00,0x20,
	0x37,0x5B,0x07,0xB7,0x40,0x00,0x21,0x97,
	0x3A,0x63,0x27,0xB7,0x40,0x7F,0x0B,0x97,
	0x37,0x00,0x0A,0x3A,0x00,0x14,0x35,0x62,
	0x27,0xB7,0x40,0x00,0x01,0x97,0x3A,0x63,
	0x1B,0xB7,0x40,0x7F,0x08,0x97,0x3A,0x00,
	0x00,0x35,0x00,0x29,0xB7,0x40,0x00,0x04,
	0x97,0x37,0x5B,0x28,0x3F,0x4C,0x25,0xB7,
	0x40,0x7F,0x06,0x97,0x37,0x00,0x16,0x3F,
	0x00,0x0F,0x37,0x57,0x23,0xB7,0x40,0x00,
	0x05,0x97,0x3F,0x52,0x24,0xB7,0x40,0x7F,
	0x07,0x97,0x3F,0x00,0x02,0x37,0x00,0x23,
	0x35,0x60,0x00,0xB7,0x40,0x00,0x28,0x97,
	0x3E,0x60,0x26,0xB7,0x40,0x7F,0x0E,0x97,
	0x35,0x00,0x04,0x3E,0x00,0x18,0x35,0x60,
	0x23,0xB7,0x40,0x00,0x05,0x97,0x3E,0x6B,
	0x1D,0xB7,0x40,0x7F,0x04,0x97,0x35,0x00,
	0x04,0x3E,0x00,0x27,0xB7,0x40,0x00,0x04,
	0x97,0x37,0x5B,0x28,0x3F,0x5B,0x29,0xB7,
	0x40,0x7F,0x01,0x97,0x37,0x00,0x0B,0x3F,
	0x00,0x1B,0x37,0x59,0x11,0xB7,0x40,0x00,
	0x17,0x97,0x3F,0x56,0x19,0x37,0x00,0x03,
	0x3F,0x00,0x34,0x37,0x59,0x28,0x3F,0x56,
	0x19,0x37,0x00,0x14,0x3F,0x00,0x02,0xB7,
	0x40,0x7F,0x00,0xFF,0x2F,0x00,0x4D,0x54,
	0x72,0x6B,0x00,0x00,0x03,0xCF,0x00,0xB9,
	0x07,0x7F,0x28,0x99,0x2B,0x56,0x02,0x2B,
	0x00,0x26,0x24,0x4F,0x00,0x29,0x63,0x02,
	0x29,0x00,0x00,0x24,0x00,0x26,0x24,0x64,
	0x00,0x2A,0x53,0x00,0x31,0x51,0x02,0x31,
	0x00,0x00,0x2A,0x00,0x00,0x24,0x00,0x26,
	0x2A,0x4C,0x02,0x2A,0x00,0x26,0x2A,0x44,
	0x02,0x2A,0x00,0x26,0x28,0x64,0x00,0x2A,
	0x56,0x00,0x36,0x7F,0x02,0x36,0x00,0x00,
	0x2A,0x00,0x00,0x28,0x00,0x26,0x2A,0x4C,
	0x02,0x2A,0x00,0x26,0x2A,0x46,0x02,0x2A,
	0x00,0x26,0x24,0x65,0x00,0x2A,0x59,0x02,
	0x2A,0x00,0x00,0x24,0x00,0x26,0x2A,0x42,
	0x02,0x2A,0x00,0x26,0x2A,0x45,0x02,0x2A,
	0x00,0x26,0x28,0x64,0x00,0x2A,0x5E,0x00,
	0x36,0x7F,0x02,0x36,0x00,0x00,0x2A,0x00,
	0x00,0x28,0x00,0x26,0x2A,0x4C,0x02,0x2A,
	0x00,0x26,0x24,0x52,0x00,0x2A,0x4C,0x02,
	0x2A,0x00,0x00,0x24,0x00,0x26,0x24,0x65,
	0x00,0x2A,0x5E,0x02,0x2A,0x00,0x00,0x24,
	0x00,0x26,0x2A,0x45,0x02,0x2A,0x00,0x26,
	0x2A,0x41,0x02,0x2A,0x00,0x26,0x28,0x64,
	0x00,0x2A,0x59,0x00,0x36,0x7F,0x02,0x36,
	0x00,0x00,0x2A,0x00,0x00,0x28,0x00,0x26,
	0x2A,0x49,0x02,0x2A,0x00,0x26,0x24,0x55,
	0x00,0x2A,0x43,0x02,0x2A,0x00,0x00,0x24,
	0x00,0x26,0x24,0x65,0x00,0x2A,0x5D,0x02,
	0x2A,0x00,0x00,0x24,0x00,0x26,0x2A,0x43,
	0x02,0x2A,0x00,0x26,0x2A,0x49,0x02,0x2A,
	0x00,0x26,0x28,0x64,0x00,0x2A,0x57,0x00,
	0x36,0x7F,0x02,0x36,0x00,0x00,0x2A,0x00,
	0x00,0x28,0x00,0x26,0x2A,0x45,0x02,0x2A,
	0x00,0x26,0x24,0x59,0x00,0x2E,0x6B,0x02,
	0x2E,0x00,0x00,0x24,0x00,0x26,0x24,0x64,
	0x00,0x2A,0x5A,0x02,0x2A,0x00,0x00,0x24,
	0x00,0x26,0x2A,0x48,0x02,0x2A,0x00,0x26,
	0x2A,0x44,0x02,0x2A,0x00,0x26,0x28,0x64,
	0x00,0x2A,0x5B,0x00,0x36,0x7F,0x02,0x36,
	0x00,0x00,0x2A,0x00,0x00,0x28,0x00,0x26,
	0x2A,0x48,0x02,0x2A,0x00,0x26,0x24,0x56,
	0x00,0x2A,0x35,0x02,0x2A,0x00,0x00,0x24,
	0x00,0x26,0x24,0x64,0x00,0x2A,0x55,0x02,
	0x2A,0x00,0x00,0x24,0x00,0x26,0x2A,0x44,
	0x02,0x2A,0x00,0x26,0x2A,0x43,0x02,0x2A,
	0x00,0x26,0x28,0x66,0x00,0x2A,0x5C,0x00,
	0x36,0x7F,0x02,0x36,0x00,0x00,0x2A,0x00,
	0x00,0x28,0x00,0x26,0x2A,0x44,0x02,0x2A,
	0x00,0x26,0x24,0x52,0x00,0x2A,0x44,0x02,
	0x2A,0x00,0x00,0x24,0x00,0x26,0x24,0x69,
	0x00,0x2A,0x5D,0x02,0x2A,0x00,0x00,0x24,
	0x00,0x26,0x2A,0x42,0x02,0x2A,0x00,0x26,
	0x2A,0x48,0x02,0x2A,0x00,0x26,0x28,0x68,
	0x00,0x2A,0x5A,0x00,0x36,0x7F,0x02,0x36,
	0x00,0x00,0x2A,0x00,0x00,0x28,0x00,0x26,
	0x2A,0x45,0x02,0x2A,0x00,0x26,0x24,0x58,
	0x00,0x2A,0x44,0x02,0x2A,0x00,0x00,0x24,
	0x00,0x26,0x24,0x68,0x00,0x2A,0x57,0x02,
	0x2A,0x00,0x00,0x24,0x00,0x76,0x24,0x7A,
	0x00,0x28,0x67,0x00,0x2D,0x56,0x00,0x36,
	0x7F,0x02,0x36,0x00,0x00,0x24,0x00,0x00,
	0x28,0x00,0x00,0x2D,0x00,0x26,0x2B,0x51,
	0x02,0x2B,0x00,0x26,0x24,0x4F,0x00,0x29,
	0x56,0x02,0x29,0x00,0x00,0x24,0x00,0x26,
	0x24,0x64,0x00,0x2A,0x53,0x00,0x31,0x51,
	0x02,0x31,0x00,0x00,0x2A,0x00,0x00,0x24,
	0x00,0x26,0x2A,0x4C,0x02,0x2A,0x00,0x26,
	0x2A,0x44,0x02,0x2A,0x00,0x26,0x28,0x64,
	0x00,0x2A,0x56,0x00,0x36,0x7F,0x02,0x36,
	0x00,0x00,0x2A,0x00,0x00,0x28,0x00,0x26,
	0x2A,0x4C,0x02,0x2A,0x00,0x26,0x2A,0x46,
	0x02,0x2A,0x00,0x26,0x24,0x65,0x00,0x2A,
	0x59,0x02,0x2A,0x00,0x00,0x24,0x00,0x26,
	0x2A,0x42,0x02,0x2A,0x00,0x26,0x2A,0x45,
	0x02,0x2A,0x00,0x26,0x28,0x64,0x00,0x2A,
	0x5E,0x00,0x36,0x7F,0x02,0x36,0x00,0x00,
	0x2A,0x00,0x00,0x28,0x00,0x26,0x2A,0x4C,
	0x02,0x2A,0x00,0x26,0x24,0x52,0x00,0x2A,
	0x4C,0x02,0x2A,0x00,0x00,0x24,0x00,0x26,
	0x24,0x65,0x00,0x2A,0x5E,0x02,0x2A,0x00,
	0x00,0x24,0x00,0x26,0x2A,0x45,0x02,0x2A,
	0x00,0x26,0x2A,0x41,0x02,0x2A,0x00,0x26,
	0x28,0x64,0x00,0x2A,0x59,0x00,0x36,0x7F,
	0x02,0x36,0x00,0x00,0x2A,0x00,0x00,0x28,
	0x00,0x26,0x2A,0x49,0x02,0x2A,0x00,0x26,
	0x24,0x55,0x00,0x2A,0x43,0x02,0x2A,0x00,
	0x00,0x24,0x00,0x26,0x24,0x65,0x00,0x2A,
	0x5D,0x02,0x2A,0x00,0x00,0x24,0x00,0x26,
	0x2A,0x43,0x02,0x2A,0x00,0x26,0x2A,0x49,
	0x02,0x2A,0x00,0x26,0x28,0x64,0x00,0x2A,
	0x57,0x00,0x36,0x7F,0x02,0x36,0x00,0x00,
	0x2A,0x00,0x00,0x28,0x00,0x26,0x2A,0x45,
	0x02,0x2A,0x00,0x26,0x24,0x59,0x00,0x2E,
	0x6B,0x02,0x2E,0x00,0x00,0x24,0x00,0x26,
	0x24,0x64,0x00,0x2A,0x5A,0x02,0x2A,0x00,
	0x00,0x24,0x00,0x26,0x2A,0x48,0x02,0x2A,
	0x00,0x26,0x2A,0x44,0x02,0x2A,0x00,0x26,
	0x28,0x64,0x00,0x2A,0x5B,0x00,0x36,0x7F,
	0x02,0x36,0x00,0x00,0x2A,0x00,0x00,0x28,
	0x00,0x26,0x2A,0x48,0x02,0x2A,0x00,0x26,
	0x24,0x56,0x00,0x2A,0x35,0x02,0x2A,0x00,
	0x00,0x24,0x00,0x26,0x24,0x64,0x00,0x2A,
	0x55,0x02,0x2A,0x00,0x00,0x24,0x00,0x26,
	0x2A,0x44,0x02,0x2A,0x00,0x26,0x2A,0x43,
	0x02,0x2A,0x00,0x26,0x28,0x66,0x00,0x2A,
	0x5C,0x00,0x36,0x7F,0x02,0x36,0x00,0x00,
	0x2A,0x00,0x00,0x28,0x00,0x26,0x2A,0x44,
	0x02,0x2A,0x00,0x26,0x24,0x52,0x00,0x2A,
	0x44,0x02,0x2A,0x00,0x00,0x24,0x00,0x26,
	0x24,0x69,0x00,0x2A,0x5D,0x02,0x2A,0x00,
	0x00,0x24,0x00,0x26,0x2A,0x42,0x02,0x2A,
	0x00,0x26,0x2A,0x48,0x02,0x2A,0x00,0x26,
	0x28,0x68,0x00,0x2A,0x5A,0x00,0x36,0x7F,
	0x02,0x36,0x00,0x00,0x2A,0x00,0x00,0x28,
	0x00,0x26,0x2A,0x45,0x02,0x2A,0x00,0x26,
	0x24,0x58,0x00,0x2A,0x44,0x02,0x2A,0x00,
	0x00,0x24,0x00,0x26,0x24,0x68,0x00,0x29,
	0x51,0x00,0x2A,0x57,0x02,0x2A,0x00,0x00,
	0x29,0x00,0x00,0x24,0x00,0x26,0x29,0x5F,
	0x02,0x29,0x00,0x26,0x29,0x6C,0x02,0x29,
	0x00,0x26,0x24,0x7A,0x00,0x28,0x67,0x00,
	0x29,0x7F,0x00,0x36,0x7F,0x02,0x36,0x00,
	0x00,0x24,0x00,0x00,0x28,0x00,0x00,0x29,
	0x00,0x00,0xFF,0x2F,0x00,
};

__align(4) static const unsigned char Aclassical09_mid[] = {
	0x4D,0x54,0x68,0x64,0x00,0x00,0x00,0x06,
	0x00,0x00,0x00,0x01,0x00,0x78,0x4D,0x54,
	0x72,0x6B,0x00,0x00,0x0D,0x1C,0x00,0xFF,
	0x03,0x00,0x00,0xFF,0x58,0x04,0x03,0x02,
	0x18,0x08,0x00,0xFF,0x59,0x02,0x00,0x00,
	0x00,0xFF,0x51,0x03,0x0C,0x0B,0xE2,0x00,
	0xC0,0x0B,0x00,0xB0,0x07,0x7F,0x00,0x0A,
	0x18,0x00,0xC1,0x0B,0x00,0xB1,0x07,0x7F,
	0x00,0x0A,0x18,0x00,0xC2,0x0B,0x00,0xB2,
	0x07,0x7F,0x00,0x0A,0x6B,0x00,0xC3,0x0B,
	0x00,0xB3,0x07,0x7F,0x00,0x0A,0x6B,0x03,
	0x90,0x4C,0x7F,0x00,0xE2,0x00,0x44,0x00,
	0xE3,0x00,0x44,0x05,0x93,0x4C,0x7F,0x17,
	0x90,0x4C,0x00,0x00,0x4B,0x7F,0x05,0x93,
	0x4C,0x00,0x00,0x4B,0x7F,0x17,0x90,0x4B,
	0x00,0x01,0x4C,0x7F,0x04,0x93,0x4B,0x00,
	0x01,0x4C,0x7F,0x17,0x90,0x4C,0x00,0x03,
	0x4B,0x7F,0x02,0x93,0x4C,0x00,0x03,0x4B,
	0x7F,0x17,0x90,0x4B,0x00,0x02,0x4C,0x7F,
	0x03,0x93,0x4B,0x00,0x02,0x4C,0x7F,0x17,
	0x90,0x4C,0x00,0x01,0x47,0x7F,0x04,0x93,
	0x4C,0x00,0x01,0x47,0x7F,0x17,0x90,0x47,
	0x00,0x03,0x4A,0x7F,0x02,0x93,0x47,0x00,
	0x03,0x4A,0x7F,0x17,0x90,0x4A,0x00,0x02,
	0x48,0x7F,0x03,0x93,0x4A,0x00,0x02,0x48,
	0x7F,0x17,0x90,0x48,0x00,0x01,0xFF,0x51,
	0x03,0x0C,0x0B,0xE2,0x00,0x91,0x2D,0x32,
	0x01,0x90,0x45,0x7F,0x03,0x93,0x48,0x00,
	0x02,0x92,0x2D,0x32,0x00,0x93,0x45,0x7F,
	0x19,0x91,0x34,0x32,0x06,0x92,0x34,0x32,
	0x14,0x90,0x45,0x00,0x01,0x91,0x2D,0x00,
	0x03,0x39,0x32,0x01,0x93,0x45,0x00,0x02,
	0x92,0x2D,0x00,0x03,0x39,0x32,0x16,0x91,
	0x34,0x00,0x02,0x90,0x3C,0x7F,0x04,0x92,
	0x34,0x00,0x01,0x93,0x3C,0x7F,0x17,0x90,
	0x3C,0x00,0x00,0x91,0x39,0x00,0x02,0x90,
	0x40,0x7F,0x03,0x93,0x3C,0x00,0x01,0x92,
	0x39,0x00,0x01,0x93,0x40,0x7F,0x17,0x90,
	0x40,0x00,0x01,0x45,0x7F,0x04,0x93,0x40,
	0x00,0x01,0x45,0x7F,0x17,0x90,0x45,0x00,
	0x02,0x47,0x7F,0x00,0x91,0x28,0x32,0x03,
	0x93,0x45,0x00,0x02,0x47,0x7F,0x01,0x92,
	0x28,0x32,0x19,0x91,0x34,0x32,0x06,0x92,
	0x34,0x32,0x13,0x90,0x47,0x00,0x02,0x91,
	0x28,0x00,0x02,0x38,0x32,0x01,0x93,0x47,
	0x00,0x03,0x92,0x28,0x00,0x02,0x38,0x32,
	0x17,0x91,0x34,0x00,0x01,0x90,0x40,0x7F,
	0x05,0x92,0x34,0x00,0x00,0x93,0x40,0x7F,
	0x17,0x90,0x40,0x00,0x00,0x91,0x38,0x00,
	0x02,0x90,0x44,0x7F,0x03,0x93,0x40,0x00,
	0x01,0x92,0x38,0x00,0x01,0x93,0x44,0x7F,
	0x17,0x90,0x44,0x00,0x03,0x47,0x7F,0x02,
	0x93,0x44,0x00,0x03,0x47,0x7F,0x17,0x90,
	0x47,0x00,0x01,0x48,0x7F,0x01,0x91,0x2D,
	0x32,0x03,0x93,0x47,0x00,0x01,0x48,0x7F,
	0x02,0x92,0x2D,0x32,0x18,0x91,0x34,0x32,
	0x06,0x92,0x34,0x32,0x13,0x90,0x48,0x00,
	0x03,0x91,0x2D,0x00,0x02,0x93,0x48,0x00,
	0x00,0x91,0x39,0x32,0x04,0x92,0x2D,0x00,
	0x02,0x39,0x32,0x16,0x91,0x34,0x00,0x01,
	0x90,0x40,0x7F,0x05,0x92,0x34,0x00,0x00,
	0x93,0x40,0x7F,0x17,0x90,0x40,0x00,0x01,
	0x91,0x39,0x00,0x01,0x90,0x4C,0x7F,0x03,
	0x93,0x40,0x00,0x02,0x92,0x39,0x00,0x00,
	0x93,0x4C,0x7F,0x17,0x90,0x4C,0x00,0x03,
	0x4B,0x7F,0x02,0x93,0x4C,0x00,0x03,0x4B,
	0x7F,0x17,0x90,0x4B,0x00,0x02,0x4C,0x7F,
	0x03,0x93,0x4B,0x00,0x02,0x4C,0x7F,0x17,
	0x90,0x4C,0x00,0x02,0x4B,0x7F,0x03,0x93,
	0x4C,0x00,0x02,0x4B,0x7F,0x17,0x90,0x4B,
	0x00,0x02,0x4C,0x7F,0x03,0x93,0x4B,0x00,
	0x02,0x4C,0x7F,0x17,0x90,0x4C,0x00,0x01,
	0x47,0x7F,0x04,0x93,0x4C,0x00,0x01,0x47,
	0x7F,0x17,0x90,0x47,0x00,0x03,0x4A,0x7F,
	0x02,0x93,0x47,0x00,0x03,0x4A,0x7F,0x17,
	0x90,0x4A,0x00,0x01,0x48,0x7F,0x04,0x93,
	0x4A,0x00,0x01,0x48,0x7F,0x17,0x90,0x48,
	0x00,0x02,0x45,0x7F,0x00,0x91,0x2D,0x32,
	0x03,0x93,0x48,0x00,0x02,0x45,0x7F,0x01,
	0x92,0x2D,0x32,0x19,0x91,0x34,0x32,0x06,
	0x92,0x34,0x32,0x13,0x90,0x45,0x00,0x02,
	0x91,0x2D,0x00,0x02,0x39,0x32,0x01,0x93,
	0x45,0x00,0x03,0x92,0x2D,0x00,0x02,0x39,
	0x32,0x17,0x91,0x34,0x00,0x02,0x90,0x3C,
	0x7F,0x04,0x92,0x34,0x00,0x01,0x93,0x3C,
	0x7F,0x16,0x91,0x39,0x00,0x01,0x90,0x3C,
	0x00,0x02,0x40,0x7F,0x03,0x92,0x39,0x00,
	0x00,0x93,0x3C,0x00,0x02,0x40,0x7F,0x17,
	0x90,0x40,0x00,0x02,0x45,0x7F,0x03,0x93,
	0x40,0x00,0x02,0x45,0x7F,0x17,0x90,0x45,
	0x00,0x01,0x47,0x7F,0x00,0x91,0x28,0x32,
	0x04,0x93,0x45,0x00,0x01,0x47,0x7F,0x01,
	0x92,0x28,0x32,0x19,0x91,0x34,0x32,0x06,
	0x92,0x34,0x32,0x15,0x91,0x28,0x00,0x03,
	0x38,0x32,0x03,0x92,0x28,0x00,0x03,0x38,
	0x32,0x12,0x90,0x47,0x00,0x04,0x91,0x34,
	0x00,0x01,0x93,0x47,0x00,0x01,0x90,0x3E,
	0x7F,0x04,0x92,0x34,0x00,0x01,0x93,0x3E,
	0x7F,0x17,0x91,0x38,0x00,0x02,0x90,0x48,
	0x7F,0x04,0x92,0x38,0x00,0x01,0x93,0x48,
	0x7F,0x17,0x90,0x48,0x00,0x02,0x47,0x7F,
	0x03,0x93,0x48,0x00,0x02,0x47,0x7F,0x14,
	0x90,0x3E,0x00,0x03,0x47,0x00,0x01,0x45,
	0x7F,0x00,0x3C,0x7F,0x00,0x91,0x2D,0x32,
	0x01,0x93,0x3E,0x00,0x03,0x47,0x00,0x01,
	0x45,0x7F,0x00,0x3C,0x7F,0x01,0x92,0x2D,
	0x32,0x18,0x91,0x34,0x32,0x06,0x92,0x34,
	0x32,0x14,0x90,0x3C,0x00,0x00,0x45,0x00,
	0x02,0x91,0x2D,0x00,0x02,0x39,0x32,0x01,
	0x93,0x45,0x00,0x00,0x3C,0x00,0x03,0x92,
	0x2D,0x00,0x02,0x39,0x32,0x16,0x91,0x34,
	0x00,0x06,0x92,0x34,0x00,0x18,0x91,0x39,
	0x00,0x03,0x90,0x4C,0x7F,0x03,0x92,0x39,
	0x00,0x02,0x93,0x4C,0x7F,0x09,0xFF,0x51,
	0x03,0x0C,0x5F,0x3B,0x0A,0xFF,0x51,0x03,
	0x0C,0x8A,0x9E,0x04,0x90,0x4C,0x00,0x02,
	0x4B,0x7F,0x03,0x93,0x4C,0x00,0x01,0xFF,
	0x51,0x03,0x0C,0xE5,0x0E,0x01,0x93,0x4B,
	0x7F,0x09,0xFF,0x51,0x03,0x0D,0x14,0x37,
	0x0E,0x90,0x4B,0x00,0x02,0x4C,0x7F,0x03,
	0x93,0x4B,0x00,0x01,0xFF,0x51,0x03,0x0D,
	0x44,0xBD,0x01,0x93,0x4C,0x7F,0x17,0x90,
	0x4C,0x00,0x02,0x4B,0x7F,0x03,0x93,0x4C,
	0x00,0x02,0x4B,0x7F,0x17,0x90,0x4B,0x00,
	0x01,0x4C,0x7F,0x04,0x93,0x4B,0x00,0x01,
	0x4C,0x7F,0x0A,0xFF,0x51,0x03,0x0D,0x14,
	0x37,0x0A,0xFF,0x51,0x03,0x0D,0x44,0xBD,
	0x02,0xFF,0x51,0x03,0x0D,0x14,0x37,0x01,
	0x90,0x4C,0x00,0x02,0xFF,0x51,0x03,0x0C,
	0xE5,0x0E,0x00,0x90,0x47,0x7F,0x03,0x93,
	0x4C,0x00,0x02,0xFF,0x51,0x03,0x0C,0xB7,
	0x35,0x00,0x93,0x47,0x7F,0x02,0xFF,0x51,
	0x03,0x0C,0x8A,0x9E,0x03,0xFF,0x51,0x03,
	0x0C,0x5F,0x3B,0x05,0xFF,0x51,0x03,0x0C,
	0x35,0x00,0x07,0xFF,0x51,0x03,0x0C,0x0B,
	0xE2,0x06,0x90,0x47,0x00,0x02,0x4A,0x7F,
	0x03,0x93,0x47,0x00,0x02,0x4A,0x7F,0x17,
	0x90,0x4A,0x00,0x03,0x48,0x7F,0x02,0x93,
	0x4A,0x00,0x03,0x48,0x7F,0x17,0x90,0x48,
	0x00,0x01,0x45,0x7F,0x01,0x91,0x2D,0x32,
	0x03,0x93,0x48,0x00,0x01,0x45,0x7F,0x02,
	0x92,0x2D,0x32,0x18,0x91,0x34,0x32,0x06,
	0x92,0x34,0x32,0x13,0x90,0x45,0x00,0x03,
	0x91,0x2D,0x00,0x01,0x39,0x32,0x01,0x93,
	0x45,0x00,0x04,0x92,0x2D,0x00,0x01,0x39,
	0x32,0x17,0x91,0x34,0x00,0x02,0x90,0x3C,
	0x7F,0x04,0x92,0x34,0x00,0x01,0x93,0x3C,
	0x7F,0x16,0x91,0x39,0x00,0x01,0x90,0x3C,
	0x00,0x01,0x40,0x7F,0x04,0x92,0x39,0x00,
	0x00,0x93,0x3C,0x00,0x01,0x40,0x7F,0x17,
	0x90,0x40,0x00,0x02,0x45,0x7F,0x03,0x93,
	0x40,0x00,0x02,0x45,0x7F,0x17,0x90,0x45,
	0x00,0x03,0x47,0x7F,0x00,0x91,0x28,0x32,
	0x02,0x93,0x45,0x00,0x03,0x47,0x7F,0x01,
	0x92,0x28,0x32,0x17,0x91,0x34,0x32,0x06,
	0x92,0x34,0x32,0x15,0x90,0x47,0x00,0x02,
	0x91,0x28,0x00,0x01,0x38,0x32,0x02,0x93,
	0x47,0x00,0x03,0x92,0x28,0x00,0x01,0x38,
	0x32,0x16,0x91,0x34,0x00,0x03,0x90,0x40,
	0x7F,0x03,0x92,0x34,0x00,0x02,0x93,0x40,
	0x7F,0x16,0x91,0x38,0x00,0x01,0x90,0x40,
	0x00,0x02,0x44,0x7F,0x03,0x92,0x38,0x00,
	0x00,0x93,0x40,0x00,0x02,0x44,0x7F,0x17,
	0x90,0x44,0x00,0x02,0x47,0x7F,0x03,0x93,
	0x44,0x00,0x02,0x47,0x7F,0x17,0x90,0x47,
	0x00,0x01,0x91,0x2D,0x32,0x01,0x90,0x48,
	0x7F,0x03,0x93,0x47,0x00,0x02,0x92,0x2D,
	0x32,0x00,0x93,0x48,0x7F,0x19,0x91,0x34,
	0x32,0x06,0x92,0x34,0x32,0x14,0x90,0x48,
	0x00,0x01,0x91,0x2D,0x00,0x02,0x39,0x32,
	0x02,0x93,0x48,0x00,0x02,0x92,0x2D,0x00,
	0x02,0x39,0x32,0x17,0x91,0x34,0x00,0x02,
	0x90,0x40,0x7F,0x04,0x92,0x34,0x00,0x01,
	0x93,0x40,0x7F,0x16,0x91,0x39,0x00,0x01,
	0x90,0x40,0x00,0x01,0x4C,0x7F,0x04,0x92,
	0x39,0x00,0x00,0x93,0x40,0x00,0x01,0x4C,
	0x7F,0x17,0x90,0x4C,0x00,0x02,0x4B,0x7F,
	0x03,0x93,0x4C,0x00,0x02,0x4B,0x7F,0x17,
	0x90,0x4B,0x00,0x03,0x4C,0x7F,0x02,0x93,
	0x4B,0x00,0x03,0x4C,0x7F,0x17,0x90,0x4C,
	0x00,0x02,0x4B,0x7F,0x03,0x93,0x4C,0x00,
	0x02,0x4B,0x7F,0x17,0x90,0x4B,0x00,0x01,
	0x4C,0x7F,0x04,0x93,0x4B,0x00,0x01,0x4C,
	0x7F,0x17,0x90,0x4C,0x00,0x03,0x47,0x7F,
	0x02,0x93,0x4C,0x00,0x03,0x47,0x7F,0x17,
	0x90,0x47,0x00,0x01,0x4A,0x7F,0x04,0x93,
	0x47,0x00,0x01,0x4A,0x7F,0x17,0x90,0x4A,
	0x00,0x03,0x48,0x7F,0x02,0x93,0x4A,0x00,
	0x03,0x48,0x7F,0x17,0x90,0x48,0x00,0x02,
	0x45,0x7F,0x00,0x91,0x2D,0x32,0x03,0x93,
	0x48,0x00,0x02,0x45,0x7F,0x01,0x92,0x2D,
	0x32,0x17,0x91,0x34,0x32,0x06,0x92,0x34,
	0x32,0x15,0x90,0x45,0x00,0x02,0x91,0x2D,
	0x00,0x01,0x39,0x32,0x02,0x93,0x45,0x00,
	0x03,0x92,0x2D,0x00,0x01,0x39,0x32,0x16,
	0x91,0x34,0x00,0x02,0x90,0x3C,0x7F,0x04,
	0x92,0x34,0x00,0x01,0x93,0x3C,0x7F,0x17,
	0x90,0x3C,0x00,0x00,0x91,0x39,0x00,0x02,
	0x90,0x40,0x7F,0x03,0x93,0x3C,0x00,0x01,
	0x92,0x39,0x00,0x01,0x93,0x40,0x7F,0x17,
	0x90,0x40,0x00,0x02,0x45,0x7F,0x03,0x93,
	0x40,0x00,0x02,0x45,0x7F,0x17,0x90,0x45,
	0x00,0x02,0x91,0x28,0x32,0x01,0x90,0x47,
	0x7F,0x02,0x93,0x45,0x00,0x03,0x92,0x28,
	0x32,0x00,0x93,0x47,0x7F,0x19,0x91,0x34,
	0x32,0x06,0x92,0x34,0x32,0x14,0x90,0x47,
	0x00,0x01,0x91,0x28,0x00,0x03,0x38,0x32,
	0x01,0x93,0x47,0x00,0x02,0x92,0x28,0x00,
	0x03,0x38,0x32,0x16,0x91,0x34,0x00,0x02,
	0x90,0x3E,0x7F,0x04,0x92,0x34,0x00,0x01,
	0x93,0x3E,0x7F,0x17,0x91,0x38,0x00,0x01,
	0x90,0x48,0x7F,0x05,0x92,0x38,0x00,0x00,
	0x93,0x48,0x7F,0x17,0x90,0x48,0x00,0x02,
	0x47,0x7F,0x03,0x93,0x48,0x00,0x02,0x47,
	0x7F,0x15,0x90,0x3E,0x00,0x02,0x47,0x00,
	0x02,0x45,0x7F,0x01,0x93,0x3E,0x00,0x00,
	0x90,0x3C,0x7F,0x00,0x91,0x2D,0x32,0x02,
	0x93,0x47,0x00,0x02,0x45,0x7F,0x01,0x3C,
	0x7F,0x01,0x92,0x2D,0x32,0x18,0x91,0x34,
	0x32,0x06,0x92,0x34,0x32,0x13,0x90,0x45,
	0x00,0x01,0x3C,0x00,0x02,0x91,0x2D,0x00,
	0x02,0x93,0x45,0x00,0x00,0x91,0x39,0x32,
	0x01,0x93,0x3C,0x00,0x03,0x92,0x2D,0x00,
	0x02,0x39,0x32,0x16,0x91,0x34,0x00,0x02,
	0x90,0x47,0x7F,0x04,0x92,0x34,0x00,0x01,
	0x93,0x47,0x7F,0x17,0x90,0x47,0x00,0x00,
	0x91,0x39,0x00,0x01,0x90,0x48,0x7F,0x04,
	0x93,0x47,0x00,0x01,0x92,0x39,0x00,0x00,
	0x93,0x48,0x7F,0x17,0x90,0x48,0x00,0x03,
	0x4A,0x7F,0x02,0x93,0x48,0x00,0x03,0x4A,
	0x7F,0x17,0x90,0x4A,0x00,0x01,0x4C,0x7F,
	0x01,0x91,0x30,0x32,0x03,0x93,0x4A,0x00,
	0x01,0x4C,0x7F,0x02,0x92,0x30,0x32,0x17,
	0x91,0x37,0x32,0x06,0x92,0x37,0x32,0x17,
	0x91,0x30,0x00,0x02,0x3C,0x32,0x04,0x92,
	0x30,0x00,0x02,0x3C,0x32,0x12,0x90,0x4C,
	0x00,0x03,0x91,0x37,0x00,0x02,0x93,0x4C,
	0x00,0x00,0x90,0x43,0x7F,0x04,0x92,0x37,
	0x00,0x01,0x93,0x43,0x7F,0x17,0x90,0x43,
	0x00,0x01,0x91,0x3C,0x00,0x01,0x90,0x4D,
	0x7F,0x03,0x93,0x43,0x00,0x02,0x92,0x3C,
	0x00,0x00,0x93,0x4D,0x7F,0x17,0x90,0x4D,
	0x00,0x02,0x4C,0x7F,0x03,0x93,0x4D,0x00,
	0x02,0x4C,0x7F,0x17,0x90,0x4C,0x00,0x03,
	0x4A,0x7F,0x00,0x91,0x2B,0x32,0x02,0x93,
	0x4C,0x00,0x03,0x4A,0x7F,0x01,0x92,0x2B,
	0x32,0x17,0x91,0x37,0x32,0x06,0x92,0x37,
	0x32,0x17,0x91,0x2B,0x00,0x02,0x3B,0x32,
	0x04,0x92,0x2B,0x00,0x02,0x3B,0x32,0x13,
	0x90,0x4A,0x00,0x02,0x91,0x37,0x00,0x03,
	0x93,0x4A,0x00,0x00,0x90,0x41,0x7F,0x03,
	0x92,0x37,0x00,0x02,0x93,0x41,0x7F,0x17,
	0x90,0x41,0x00,0x00,0x91,0x3B,0x00,0x02,
	0x90,0x4C,0x7F,0x03,0x93,0x41,0x00,0x01,
	0x92,0x3B,0x00,0x01,0x93,0x4C,0x7F,0x17,
	0x90,0x4C,0x00,0x02,0x4A,0x7F,0x03,0x93,
	0x4C,0x00,0x02,0x4A,0x7F,0x17,0x90,0x4A,
	0x00,0x01,0x48,0x7F,0x00,0x91,0x2D,0x32,
	0x04,0x93,0x4A,0x00,0x01,0x48,0x7F,0x01,
	0x92,0x2D,0x32,0x19,0x91,0x34,0x32,0x06,
	0x92,0x34,0x32,0x15,0x91,0x2D,0x00,0x02,
	0x39,0x32,0x04,0x92,0x2D,0x00,0x02,0x39,
	0x32,0x13,0x90,0x48,0x00,0x04,0x91,0x34,
	0x00,0x01,0x93,0x48,0x00,0x00,0x90,0x40,
	0x7F,0x05,0x92,0x34,0x00,0x00,0x93,0x40,
	0x7F,0x17,0x90,0x40,0x00,0x00,0x91,0x39,
	0x00,0x02,0x90,0x4A,0x7F,0x03,0x93,0x40,
	0x00,0x01,0x92,0x39,0x00,0x01,0x93,0x4A,
	0x7F,0x17,0x90,0x4A,0x00,0x03,0x48,0x7F,
	0x02,0x93,0x4A,0x00,0x03,0x48,0x7F,0x17,
	0x90,0x48,0x00,0x01,0x47,0x7F,0x00,0x91,
	0x28,0x32,0x04,0x93,0x48,0x00,0x01,0x47,
	0x7F,0x01,0x92,0x28,0x32,0x16,0x90,0x47,
	0x00,0x02,0x91,0x34,0x32,0x03,0x93,0x47,
	0x00,0x03,0x92,0x34,0x32,0x16,0x91,0x28,
	0x00,0x03,0x40,0x32,0x03,0x92,0x28,0x00,
	0x03,0x40,0x32,0x15,0x91,0x34,0x00,0x03,
	0x90,0x40,0x7F,0x03,0x92,0x34,0x00,0x02,
	0x93,0x40,0x7F,0x17,0x91,0x40,0x00,0x00,
	0x90,0x40,0x00,0x02,0x4C,0x7F,0x03,0x93,
	0x40,0x00,0x01,0x92,0x40,0x00,0x01,0x93,
	0x4C,0x7F,0x17,0x90,0x4C,0x00,0x02,0x91,
	0x40,0x32,0x03,0x93,0x4C,0x00,0x03,0x92,
	0x40,0x32,0x18,0x91,0x4C,0x32,0x06,0x92,
	0x4C,0x32,0x16,0x91,0x40,0x00,0x01,0x4C,
	0x00,0x01,0x90,0x4C,0x7F,0x04,0x92,0x40,
	0x00,0x01,0x4C,0x00,0x00,0x93,0x4C,0x7F,
	0x17,0x90,0x4C,0x00,0x02,0x58,0x7F,0x03,
	0x93,0x4C,0x00,0x02,0x58,0x7F,0x17,0x90,
	0x58,0x00,0x02,0x91,0x4B,0x32,0x03,0x93,
	0x58,0x00,0x03,0x92,0x4B,0x32,0x17,0x91,
	0x4B,0x00,0x00,0x4C,0x32,0x06,0x92,0x4B,
	0x00,0x00,0x4C,0x32,0x17,0x91,0x4C,0x00,
	0x01,0x90,0x4B,0x7F,0x05,0x92,0x4C,0x00,
	0x00,0x93,0x4B,0x7F,0x17,0x90,0x4B,0x00,
	0x03,0x4C,0x7F,0x02,0x93,0x4B,0x00,0x03,
	0x4C,0x7F,0x17,0x90,0x4C,0x00,0x02,0x91,
	0x4B,0x32,0x03,0x93,0x4C,0x00,0x03,0x92,
	0x4B,0x32,0x17,0x91,0x4B,0x00,0x00,0x4C,
	0x32,0x06,0x92,0x4B,0x00,0x00,0x4C,0x32,
	0x13,0xFF,0x51,0x03,0x0C,0x35,0x00,0x04,
	0x91,0x4C,0x00,0x01,0x90,0x4B,0x7F,0x05,
	0x92,0x4C,0x00,0x00,0x93,0x4B,0x7F,0x17,
	0x90,0x4B,0x00,0x03,0x4C,0x7F,0x02,0x93,
	0x4B,0x00,0x03,0x4C,0x7F,0x13,0xFF,0x51,
	0x03,0x0C,0x5F,0x3B,0x04,0x90,0x4C,0x00,
	0x02,0x4B,0x7F,0x03,0x93,0x4C,0x00,0x02,
	0x4B,0x7F,0x13,0xFF,0x51,0x03,0x0C,0x8A,
	0x9E,0x04,0x90,0x4B,0x00,0x01,0x4C,0x7F,
	0x04,0x93,0x4B,0x00,0x01,0x4C,0x7F,0x0A,
	0xFF,0x51,0x03,0x0C,0xB7,0x35,0x0D,0x90,
	0x4C,0x00,0x02,0x4B,0x7F,0x03,0x93,0x4C,
	0x00,0x02,0xFF,0x51,0x03,0x0C,0xE5,0x0E,
	0x00,0x93,0x4B,0x7F,0x0F,0xFF,0x51,0x03,
	0x0D,0x44,0xBD,0x05,0xFF,0x51,0x03,0x0D,
	0x76,0xB1,0x03,0x90,0x4B,0x00,0x02,0xFF,
	0x51,0x03,0x0D,0xAA,0x22,0x01,0x90,0x4C,
	0x7F,0x02,0x93,0x4B,0x00,0x02,0xFF,0x51,
	0x03,0x0D,0xDF,0x23,0x01,0x93,0x4C,0x7F,
	0x0E,0xFF,0x51,0x03,0x0E,0x15,0xC5,0x09,
	0x90,0x4C,0x00,0x02,0x47,0x7F,0x03,0x93,
	0x4C,0x00,0x01,0xFF,0x51,0x03,0x0E,0x4E,
	0x1C,0x01,0x93,0x47,0x7F,0x17,0x90,0x47,
	0x00,0x02,0x4A,0x7F,0x03,0x93,0x47,0x00,
	0x02,0x4A,0x7F,0x17,0x90,0x4A,0x00,0x01,
	0x48,0x7F,0x04,0x93,0x4A,0x00,0x01,0x48,
	0x7F,0x0A,0xFF,0x51,0x03,0x0E,0x15,0xC5,
	0x0D,0x90,0x48,0x00,0x02,0xFF,0x51,0x03,
	0x0D,0xDF,0x23,0x00,0x90,0x45,0x7F,0x01,
	0x91,0x2D,0x32,0x02,0x93,0x48,0x00,0x02,
	0xFF,0x51,0x03,0x0D,0xAA,0x22,0x00,0x93,
	0x45,0x7F,0x02,0x92,0x2D,0x32,0x08,0xFF,
	0x51,0x03,0x0D,0x76,0xB1,0x05,0xFF,0x51,
	0x03,0x0D,0x44,0xBD,0x0A,0xFF,0x51,0x03,
	0x0D,0x14,0x37,0x00,0x91,0x34,0x32,0x06,
	0x92,0x34,0x32,0x04,0xFF,0x51,0x03,0x0C,
	0xE5,0x0E,0x0A,0xFF,0x51,0x03,0x0C,0xB7,
	0x35,0x06,0x90,0x45,0x00,0x03,0x91,0x2D,
	0x00,0x01,0x39,0x32,0x01,0x93,0x45,0x00,
	0x04,0xFF,0x51,0x03,0x0C,0x8A,0x9E,0x00,
	0x92,0x2D,0x00,0x01,0x39,0x32,0x16,0x91,
	0x34,0x00,0x02,0xFF,0x51,0x03,0x0C,0x5F,
	0x3B,0x00,0x90,0x3C,0x7F,0x04,0x92,0x34,
	0x00,0x01,0x93,0x3C,0x7F,0x0A,0xFF,0x51,
	0x03,0x0C,0x35,0x00,0x0A,0xFF,0x51,0x03,
	0x0C,0x0B,0xE2,0x03,0x90,0x3C,0x00,0x00,
	0x91,0x39,0x00,0x02,0x90,0x40,0x7F,0x03,
	0x93,0x3C,0x00,0x01,0x92,0x39,0x00,0x01,
	0x93,0x40,0x7F,0x17,0x90,0x40,0x00,0x02,
	0x45,0x7F,0x03,0x93,0x40,0x00,0x02,0x45,
	0x7F,0x17,0x90,0x45,0x00,0x02,0x91,0x28,
	0x32,0x01,0x90,0x47,0x7F,0x02,0x93,0x45,
	0x00,0x03,0x92,0x28,0x32,0x00,0x93,0x47,
	0x7F,0x18,0x91,0x34,0x32,0x06,0x92,0x34,
	0x32,0x15,0x90,0x47,0x00,0x01,0x91,0x28,
	0x00,0x02,0x38,0x32,0x02,0x93,0x47,0x00,
	0x02,0x92,0x28,0x00,0x02,0x38,0x32,0x16,
	0x91,0x34,0x00,0x03,0x90,0x40,0x7F,0x03,
	0x92,0x34,0x00,0x02,0x93,0x40,0x7F,0x16,
	0x91,0x38,0x00,0x01,0x90,0x40,0x00,0x01,
	0x44,0x7F,0x04,0x92,0x38,0x00,0x00,0x93,
	0x40,0x00,0x01,0x44,0x7F,0x17,0x90,0x44,
	0x00,0x03,0x47,0x7F,0x02,0x93,0x44,0x00,
	0x03,0x47,0x7F,0x17,0x90,0x47,0x00,0x01,
	0x91,0x2D,0x32,0x01,0x90,0x48,0x7F,0x03,
	0x93,0x47,0x00,0x02,0x92,0x2D,0x32,0x00,
	0x93,0x48,0x7F,0x18,0x91,0x34,0x32,0x06,
	0x92,0x34,0x32,0x15,0x90,0x48,0x00,0x01,
	0x91,0x2D,0x00,0x02,0x39,0x32,0x02,0x93,
	0x48,0x00,0x02,0x92,0x2D,0x00,0x02,0x39,
	0x32,0x16,0x91,0x34,0x00,0x03,0x90,0x40,
	0x7F,0x03,0x92,0x34,0x00,0x02,0x93,0x40,
	0x7F,0x16,0x91,0x39,0x00,0x01,0x90,0x40,
	0x00,0x01,0x4C,0x7F,0x04,0x92,0x39,0x00,
	0x00,0x93,0x40,0x00,0x01,0x4C,0x7F,0x17,
	0x90,0x4C,0x00,0x03,0x4B,0x7F,0x02,0x93,
	0x4C,0x00,0x03,0x4B,0x7F,0x17,0x90,0x4B,
	0x00,0x02,0x4C,0x7F,0x03,0x93,0x4B,0x00,
	0x02,0x4C,0x7F,0x17,0x90,0x4C,0x00,0x01,
	0x4B,0x7F,0x04,0x93,0x4C,0x00,0x01,0x4B,
	0x7F,0x17,0x90,0x4B,0x00,0x03,0x4C,0x7F,
	0x02,0x93,0x4B,0x00,0x03,0x4C,0x7F,0x17,
	0x90,0x4C,0x00,0x01,0x47,0x7F,0x04,0x93,
	0x4C,0x00,0x01,0x47,0x7F,0x17,0x90,0x47,
	0x00,0x03,0x4A,0x7F,0x02,0x93,0x47,0x00,
	0x03,0x4A,0x7F,0x17,0x90,0x4A,0x00,0x02,
	0x48,0x7F,0x03,0x93,0x4A,0x00,0x02,0x48,
	0x7F,0x17,0x90,0x48,0x00,0x02,0x45,0x7F,
	0x00,0x91,0x2D,0x32,0x03,0x93,0x48,0x00,
	0x02,0x45,0x7F,0x01,0x92,0x2D,0x32,0x18,
	0x91,0x34,0x32,0x06,0x92,0x34,0x32,0x14,
	0x90,0x45,0x00,0x02,0x91,0x2D,0x00,0x01,
	0x39,0x32,0x02,0x93,0x45,0x00,0x03,0x92,
	0x2D,0x00,0x01,0x39,0x32,0x17,0x91,0x34,
	0x00,0x01,0x90,0x3C,0x7F,0x05,0x92,0x34,
	0x00,0x00,0x93,0x3C,0x7F,0x17,0x90,0x3C,
	0x00,0x00,0x91,0x39,0x00,0x02,0x90,0x40,
	0x7F,0x03,0x93,0x3C,0x00,0x01,0x92,0x39,
	0x00,0x01,0x93,0x40,0x7F,0x17,0x90,0x40,
	0x00,0x03,0x45,0x7F,0x02,0x93,0x40,0x00,
	0x03,0x45,0x7F,0x17,0x90,0x45,0x00,0x01,
	0x47,0x7F,0x00,0x91,0x28,0x32,0x04,0x93,
	0x45,0x00,0x01,0x47,0x7F,0x01,0x92,0x28,
	0x32,0x18,0x91,0x34,0x32,0x06,0x92,0x34,
	0x32,0x14,0x90,0x47,0x00,0x02,0x91,0x28,
	0x00,0x03,0x93,0x47,0x00,0x00,0x91,0x38,
	0x32,0x03,0x92,0x28,0x00,0x03,0x38,0x32,
	0x15,0x91,0x34,0x00,0x02,0x90,0x3E,0x7F,
	0x04,0x92,0x34,0x00,0x01,0x93,0x3E,0x7F,
	0x18,0x91,0x38,0x00,0x01,0x90,0x48,0x7F,
	0x05,0x92,0x38,0x00,0x00,0x93,0x48,0x7F,
	0x17,0x90,0x48,0x00,0x03,0x47,0x7F,0x02,
	0x93,0x48,0x00,0x03,0x47,0x7F,0x13,0x90,
	0x3E,0x00,0x04,0x47,0x00,0x01,0x93,0x3E,
	0x00,0x00,0x90,0x3C,0x7F,0x00,0x91,0x34,
	0x32,0x00,0x2D,0x32,0x01,0x90,0x45,0x7F,
	0x03,0x93,0x47,0x00,0x01,0x3C,0x7F,0x01,
	0x92,0x34,0x32,0x00,0x2D,0x32,0x00,0x93,
	0x45,0x7F,0x6B,0x90,0x3C,0x00,0x01,0x45,
	0x00,0x04,0x93,0x3C,0x00,0x01,0x45,0x00,
	0x01,0x91,0x2D,0x00,0x00,0x34,0x00,0x06,
	0x92,0x2D,0x00,0x00,0x34,0x00,0x00,0xFF,
	0x2F,0x00,
};

__align(4) static const unsigned char classical02_mid[] = {
	0x4D,0x54,0x68,0x64,0x00,0x00,0x00,0x06,
	0x00,0x00,0x00,0x01,0x00,0x78,0x4D,0x54,
	0x72,0x6B,0x00,0x00,0x13,0xF8,0x00,0xFF,
	0x03,0x08,0x75,0x6E,0x74,0x69,0x74,0x6C,
	0x65,0x64,0x00,0xFF,0x01,0x09,0x2E,0x75,
	0x2E,0x2E,0x66,0x2E,0x2E,0x72,0x0A,0x00,
	0xFF,0x58,0x04,0x04,0x02,0x18,0x08,0x00,
	0xFF,0x59,0x02,0x00,0x00,0x00,0xFF,0x51,
	0x03,0x0C,0xE5,0x0E,0x00,0xC0,0x47,0x00,
	0xB0,0x07,0x7F,0x00,0x0A,0x40,0x00,0xC1,
	0x6B,0x00,0xB1,0x07,0x7F,0x00,0x0A,0x40,
	0x00,0xC2,0x21,0x00,0xB2,0x07,0x7F,0x00,
	0x0A,0x40,0x00,0xC3,0x34,0x00,0xB3,0x07,
	0x64,0x00,0x0A,0x40,0x00,0xC6,0x0A,0x00,
	0xB6,0x07,0x55,0x00,0x0A,0x40,0x00,0xC7,
	0x2E,0x00,0xB7,0x07,0x72,0x00,0x0A,0x40,
	0x00,0xC8,0x47,0x00,0xB8,0x07,0x41,0x00,
	0x0A,0x40,0x00,0xC9,0x00,0x00,0xB9,0x07,
	0x7F,0x00,0x0A,0x40,0x1E,0x90,0x4A,0x7F,
	0x00,0x92,0x1F,0x7F,0x1E,0x1F,0x00,0x00,
	0x90,0x4A,0x00,0x00,0x4C,0x7F,0x00,0x92,
	0x21,0x7F,0x0F,0x98,0x4A,0x7F,0x0F,0x92,
	0x21,0x00,0x0F,0x98,0x4A,0x00,0x00,0x4C,
	0x7F,0x0F,0x90,0x4C,0x00,0x12,0x97,0x39,
	0x58,0x09,0x40,0x58,0x03,0x90,0x4C,0x7F,
	0x00,0x92,0x21,0x7F,0x00,0x93,0x45,0x66,
	0x00,0x96,0x58,0x7F,0x00,0x99,0x24,0x7F,
	0x00,0x2D,0x5F,0x00,0x2A,0x65,0x00,0x31,
	0x7F,0x03,0x97,0x45,0x4C,0x06,0x43,0x4C,
	0x01,0x48,0x5B,0x05,0x98,0x4C,0x00,0x06,
	0x97,0x4C,0x76,0x09,0x99,0x31,0x00,0x00,
	0x2A,0x00,0x00,0x90,0x4C,0x00,0x00,0x92,
	0x21,0x00,0x00,0x96,0x58,0x00,0x00,0x99,
	0x2A,0x65,0x0F,0x98,0x4C,0x7F,0x0F,0x99,
	0x2A,0x00,0x00,0x93,0x45,0x00,0x00,0x90,
	0x4C,0x7F,0x00,0x92,0x21,0x7F,0x00,0x93,
	0x47,0x5A,0x00,0x96,0x54,0x7F,0x00,0x99,
	0x2A,0x65,0x0F,0x90,0x4C,0x00,0x00,0x98,
	0x4C,0x00,0x0F,0x92,0x21,0x00,0x00,0x99,
	0x2A,0x00,0x00,0x96,0x54,0x00,0x00,0x90,
	0x4C,0x7F,0x00,0x99,0x2A,0x65,0x0F,0x90,
	0x4C,0x00,0x00,0x98,0x4C,0x7F,0x0F,0x4C,
	0x00,0x00,0x99,0x2D,0x00,0x00,0x24,0x00,
	0x00,0x2A,0x00,0x00,0x93,0x47,0x00,0x00,
	0x90,0x4C,0x7F,0x00,0x92,0x21,0x7F,0x00,
	0x93,0x48,0x60,0x00,0x96,0x56,0x7F,0x00,
	0x99,0x2A,0x65,0x0F,0x98,0x4C,0x7F,0x0F,
	0x4C,0x00,0x00,0x96,0x56,0x00,0x00,0x92,
	0x21,0x00,0x00,0x99,0x2A,0x00,0x00,0x2A,
	0x65,0x0F,0x98,0x4C,0x7F,0x0F,0x99,0x2A,
	0x00,0x00,0x90,0x4C,0x00,0x00,0x93,0x48,
	0x00,0x00,0x90,0x51,0x7F,0x00,0x92,0x21,
	0x7F,0x00,0x93,0x45,0x57,0x00,0x96,0x53,
	0x7F,0x00,0x99,0x2A,0x65,0x1E,0x2A,0x00,
	0x00,0x97,0x43,0x00,0x00,0x40,0x00,0x00,
	0x92,0x21,0x00,0x00,0x97,0x45,0x00,0x00,
	0x48,0x00,0x00,0x39,0x00,0x00,0x4C,0x00,
	0x00,0x96,0x53,0x00,0x00,0x99,0x2A,0x65,
	0x0F,0x98,0x4C,0x00,0x00,0x97,0x37,0x56,
	0x00,0x98,0x51,0x7F,0x08,0x97,0x43,0x49,
	0x04,0x3E,0x54,0x01,0x47,0x56,0x01,0x41,
	0x4F,0x01,0x90,0x51,0x00,0x00,0x99,0x2A,
	0x00,0x00,0x93,0x45,0x00,0x00,0x90,0x4F,
	0x7F,0x00,0x92,0x1F,0x7F,0x00,0x93,0x47,
	0x54,0x00,0x96,0x4F,0x7F,0x00,0x99,0x2D,
	0x5F,0x00,0x24,0x7F,0x00,0x2A,0x65,0x09,
	0x97,0x4A,0x7A,0x15,0x99,0x2A,0x00,0x00,
	0x96,0x4F,0x00,0x00,0x92,0x1F,0x00,0x00,
	0x99,0x24,0x00,0x00,0x2D,0x00,0x00,0x2A,
	0x65,0x0F,0x98,0x51,0x00,0x00,0x4F,0x7F,
	0x0F,0x90,0x4F,0x00,0x00,0x99,0x2A,0x00,
	0x00,0x93,0x47,0x00,0x00,0x90,0x4A,0x7F,
	0x00,0x92,0x1F,0x7F,0x00,0x93,0x48,0x57,
	0x00,0x96,0x51,0x7F,0x00,0x99,0x2D,0x5F,
	0x00,0x24,0x7F,0x00,0x2A,0x65,0x0F,0x90,
	0x4A,0x00,0x0F,0x96,0x51,0x00,0x00,0x92,
	0x1F,0x00,0x00,0x99,0x2A,0x00,0x00,0x2D,
	0x00,0x00,0x24,0x00,0x00,0x90,0x4A,0x7F,
	0x00,0x99,0x2A,0x65,0x0F,0x98,0x4F,0x00,
	0x00,0x4A,0x7F,0x0F,0x4A,0x00,0x00,0x99,
	0x2A,0x00,0x00,0x93,0x48,0x00,0x00,0x92,
	0x1F,0x7F,0x00,0x93,0x4A,0x5A,0x00,0x96,
	0x54,0x7F,0x00,0x99,0x2A,0x65,0x0F,0x98,
	0x4A,0x7F,0x0F,0x99,0x2A,0x00,0x00,0x96,
	0x54,0x00,0x00,0x92,0x1F,0x00,0x00,0x99,
	0x2A,0x65,0x1E,0x2A,0x00,0x00,0x97,0x37,
	0x00,0x00,0x93,0x4A,0x00,0x00,0x90,0x4A,
	0x00,0x00,0x97,0x43,0x00,0x00,0x92,0x1F,
	0x7F,0x00,0x93,0x47,0x54,0x00,0x96,0x58,
	0x7F,0x00,0x99,0x2A,0x65,0x1E,0x2A,0x00,
	0x00,0x97,0x4A,0x00,0x00,0x3E,0x00,0x00,
	0x96,0x58,0x00,0x00,0x97,0x41,0x00,0x00,
	0x92,0x1F,0x00,0x00,0x97,0x47,0x00,0x00,
	0x99,0x2A,0x65,0x08,0x97,0x32,0x56,0x07,
	0x98,0x4A,0x00,0x09,0x97,0x39,0x4A,0x01,
	0x41,0x58,0x03,0x3C,0x4F,0x02,0x93,0x47,
	0x00,0x00,0x99,0x2A,0x00,0x00,0x90,0x4D,
	0x7F,0x00,0x92,0x1A,0x7F,0x00,0x93,0x4C,
	0x57,0x00,0x96,0x54,0x7F,0x00,0x99,0x2D,
	0x5F,0x00,0x24,0x7F,0x00,0x2A,0x65,0x02,
	0x97,0x45,0x4F,0x09,0x48,0x76,0x13,0x99,
	0x2A,0x00,0x00,0x96,0x54,0x00,0x00,0x92,
	0x1A,0x00,0x00,0x90,0x4D,0x00,0x00,0x99,
	0x2A,0x65,0x0F,0x98,0x4D,0x7F,0x0F,0x99,
	0x2A,0x00,0x00,0x93,0x4C,0x00,0x00,0x90,
	0x4D,0x7F,0x00,0x92,0x1A,0x7F,0x00,0x93,
	0x4A,0x5D,0x00,0x96,0x51,0x7F,0x00,0x99,
	0x2A,0x65,0x0F,0x90,0x4D,0x00,0x00,0x98,
	0x4D,0x00,0x0F,0x92,0x1A,0x00,0x00,0x99,
	0x2D,0x00,0x00,0x24,0x00,0x00,0x2A,0x00,
	0x00,0x96,0x51,0x00,0x00,0x90,0x4D,0x7F,
	0x00,0x99,0x2A,0x65,0x0F,0x90,0x4D,0x00,
	0x00,0x98,0x4D,0x7F,0x0F,0x4D,0x00,0x00,
	0x99,0x2A,0x00,0x00,0x93,0x4A,0x00,0x00,
	0x90,0x4C,0x7F,0x00,0x92,0x1A,0x7F,0x00,
	0x93,0x48,0x54,0x00,0x96,0x58,0x7F,0x00,
	0x99,0x2A,0x65,0x0F,0x98,0x4D,0x7F,0x0F,
	0x4D,0x00,0x00,0x96,0x58,0x00,0x00,0x92,
	0x1A,0x00,0x00,0x99,0x2A,0x00,0x00,0x2A,
	0x65,0x0F,0x98,0x4C,0x7F,0x0F,0x99,0x2A,
	0x00,0x00,0x90,0x4C,0x00,0x00,0x93,0x48,
	0x00,0x00,0x97,0x39,0x00,0x00,0x90,0x4A,
	0x7F,0x00,0x92,0x1A,0x7F,0x00,0x93,0x47,
	0x4C,0x00,0x96,0x54,0x7F,0x00,0x99,0x2A,
	0x65,0x1E,0x2A,0x00,0x00,0x97,0x32,0x00,
	0x00,0x45,0x00,0x00,0x96,0x54,0x00,0x00,
	0x97,0x3C,0x00,0x00,0x41,0x00,0x00,0x92,
	0x1A,0x00,0x00,0x97,0x48,0x00,0x00,0x99,
	0x2A,0x65,0x0F,0x98,0x4C,0x00,0x00,0x4A,
	0x7F,0x02,0x97,0x39,0x56,0x08,0x40,0x4A,
	0x02,0x45,0x58,0x03,0x93,0x47,0x00,0x00,
	0x99,0x2A,0x00,0x00,0x90,0x4A,0x00,0x00,
	0x4C,0x7F,0x00,0x92,0x21,0x7F,0x00,0x93,
	0x45,0x52,0x00,0x96,0x51,0x7F,0x00,0x97,
	0x43,0x54,0x00,0x99,0x2D,0x5F,0x00,0x24,
	0x7F,0x00,0x2A,0x65,0x02,0x97,0x48,0x58,
	0x09,0x4C,0x73,0x13,0x99,0x2A,0x00,0x00,
	0x2D,0x00,0x00,0x96,0x51,0x00,0x00,0x92,
	0x21,0x00,0x00,0x99,0x24,0x00,0x00,0x2A,
	0x65,0x0F,0x98,0x4A,0x00,0x00,0x4C,0x7F,
	0x0F,0x99,0x2A,0x00,0x00,0x90,0x4C,0x00,
	0x00,0x45,0x7F,0x00,0x92,0x21,0x7F,0x00,
	0x96,0x4F,0x7F,0x00,0x99,0x2A,0x65,0x0F,
	0x90,0x45,0x00,0x0F,0x96,0x4F,0x00,0x00,
	0x92,0x21,0x00,0x00,0x99,0x2A,0x00,0x00,
	0x90,0x45,0x7F,0x00,0x99,0x2A,0x65,0x0F,
	0x98,0x4C,0x00,0x00,0x45,0x7F,0x0F,0x45,
	0x00,0x00,0x99,0x2A,0x00,0x00,0x93,0x45,
	0x00,0x00,0x92,0x21,0x7F,0x00,0x96,0x4C,
	0x7F,0x00,0x99,0x2A,0x65,0x0F,0x98,0x45,
	0x7F,0x0F,0x99,0x2A,0x00,0x00,0x96,0x4C,
	0x00,0x00,0x92,0x21,0x00,0x00,0x99,0x2A,
	0x65,0x1E,0x2A,0x00,0x00,0x90,0x45,0x00,
	0x00,0x92,0x21,0x7F,0x00,0x96,0x4F,0x7F,
	0x00,0x99,0x2A,0x65,0x1E,0x2A,0x00,0x00,
	0x97,0x4C,0x00,0x00,0x45,0x00,0x00,0x96,
	0x4F,0x00,0x00,0x97,0x39,0x00,0x00,0x48,
	0x00,0x00,0x92,0x21,0x00,0x00,0x97,0x40,
	0x00,0x00,0x43,0x00,0x00,0x99,0x2A,0x65,
	0x0E,0x97,0x35,0x51,0x01,0x98,0x45,0x00,
	0x0A,0x97,0x3C,0x58,0x04,0x45,0x58,0x01,
	0x99,0x2A,0x00,0x00,0x90,0x48,0x7F,0x00,
	0x92,0x1D,0x7F,0x00,0x93,0x41,0x52,0x00,
	0x96,0x4D,0x7F,0x00,0x99,0x2D,0x5F,0x00,
	0x24,0x7F,0x00,0x2A,0x65,0x02,0x97,0x41,
	0x4F,0x07,0x48,0x73,0x15,0x99,0x2A,0x00,
	0x00,0x96,0x4D,0x00,0x00,0x90,0x48,0x00,
	0x00,0x92,0x1D,0x00,0x00,0x99,0x2A,0x65,
	0x0F,0x98,0x48,0x7F,0x0F,0x99,0x2A,0x00,
	0x00,0x24,0x00,0x00,0x2D,0x00,0x00,0x93,
	0x41,0x00,0x00,0x90,0x48,0x7F,0x00,0x92,
	0x1D,0x7F,0x00,0x93,0x43,0x54,0x00,0x96,
	0x54,0x7F,0x00,0x99,0x2A,0x65,0x0F,0x90,
	0x48,0x00,0x00,0x98,0x48,0x00,0x0F,0x99,
	0x2A,0x00,0x00,0x96,0x54,0x00,0x00,0x92,
	0x1D,0x00,0x00,0x90,0x48,0x7F,0x00,0x99,
	0x2A,0x65,0x0F,0x90,0x48,0x00,0x00,0x98,
	0x48,0x7F,0x0F,0x48,0x00,0x00,0x99,0x2A,
	0x00,0x00,0x93,0x43,0x00,0x00,0x90,0x48,
	0x7F,0x00,0x92,0x1D,0x7F,0x00,0x93,0x45,
	0x57,0x00,0x96,0x51,0x7F,0x00,0x99,0x2A,
	0x65,0x0F,0x98,0x48,0x7F,0x0F,0x48,0x00,
	0x00,0x92,0x1D,0x00,0x00,0x99,0x2A,0x00,
	0x00,0x96,0x51,0x00,0x00,0x99,0x2A,0x65,
	0x0F,0x98,0x48,0x7F,0x0F,0x99,0x2A,0x00,
	0x00,0x93,0x45,0x00,0x00,0x90,0x48,0x00,
	0x00,0x97,0x3C,0x00,0x00,0x90,0x4C,0x7F,
	0x00,0x92,0x1D,0x7F,0x00,0x93,0x48,0x57,
	0x00,0x96,0x4D,0x7F,0x00,0x99,0x2A,0x65,
	0x1E,0x2A,0x00,0x00,0x97,0x41,0x00,0x00,
	0x96,0x4D,0x00,0x00,0x97,0x48,0x00,0x00,
	0x35,0x00,0x00,0x92,0x1D,0x00,0x00,0x97,
	0x45,0x00,0x00,0x99,0x2A,0x65,0x0F,0x98,
	0x48,0x00,0x00,0x4C,0x7F,0x07,0x97,0x37,
	0x5D,0x06,0x3E,0x5D,0x02,0x90,0x4C,0x00,
	0x00,0x99,0x2A,0x00,0x00,0x93,0x48,0x00,
	0x00,0x90,0x4A,0x7F,0x00,0x92,0x1F,0x7F,
	0x00,0x93,0x43,0x5A,0x00,0x96,0x53,0x7F,
	0x00,0x99,0x24,0x7F,0x00,0x2D,0x5F,0x00,
	0x2A,0x65,0x01,0x97,0x47,0x4F,0x06,0x43,
	0x4F,0x03,0x4A,0x73,0x14,0x99,0x2A,0x00,
	0x00,0x2D,0x00,0x00,0x96,0x53,0x00,0x00,
	0x99,0x24,0x00,0x00,0x92,0x1F,0x00,0x00,
	0x99,0x2A,0x65,0x0F,0x98,0x4C,0x00,0x00,
	0x4A,0x7F,0x0F,0x99,0x2A,0x00,0x00,0x90,
	0x4A,0x00,0x00,0x93,0x43,0x00,0x00,0x90,
	0x48,0x7F,0x00,0x92,0x1F,0x7F,0x00,0x93,
	0x45,0x52,0x00,0x96,0x4F,0x7F,0x00,0x99,
	0x2A,0x65,0x1E,0x2A,0x00,0x00,0x90,0x48,
	0x00,0x00,0x96,0x4F,0x00,0x00,0x92,0x1F,
	0x00,0x00,0x99,0x2A,0x65,0x0F,0x98,0x4A,
	0x00,0x00,0x48,0x7F,0x0F,0x99,0x2A,0x00,
	0x00,0x93,0x45,0x00,0x00,0x90,0x48,0x7F,
	0x00,0x92,0x1D,0x7F,0x00,0x93,0x47,0x54,
	0x00,0x96,0x53,0x7F,0x00,0x99,0x24,0x7F,
	0x00,0x2D,0x5F,0x00,0x2A,0x65,0x0F,0x98,
	0x48,0x00,0x0F,0x90,0x48,0x00,0x00,0x99,
	0x24,0x00,0x00,0x96,0x53,0x00,0x00,0x92,
	0x1D,0x00,0x00,0x99,0x2A,0x00,0x00,0x2D,
	0x00,0x00,0x90,0x4A,0x7F,0x00,0x92,0x1F,
	0x7F,0x00,0x99,0x24,0x7F,0x00,0x2D,0x5F,
	0x00,0x2A,0x65,0x00,0x31,0x7F,0x0F,0x98,
	0x48,0x7F,0x0F,0x99,0x31,0x00,0x00,0x2D,
	0x00,0x00,0x93,0x47,0x00,0x00,0x99,0x24,
	0x00,0x00,0x92,0x1F,0x00,0x00,0x99,0x2A,
	0x00,0x00,0x93,0x4A,0x5A,0x00,0x96,0x56,
	0x7F,0x00,0x99,0x2A,0x65,0x0F,0x98,0x48,
	0x00,0x00,0x4A,0x7F,0x0F,0x97,0x3E,0x00,
	0x00,0x99,0x2A,0x00,0x00,0x97,0x4A,0x00,
	0x00,0x90,0x4A,0x00,0x00,0x97,0x37,0x00,
	0x00,0x47,0x00,0x00,0x96,0x56,0x00,0x00,
	0x97,0x43,0x00,0x00,0x99,0x2A,0x65,0x0B,
	0x97,0x39,0x4A,0x09,0x45,0x4A,0x04,0x40,
	0x58,0x01,0x48,0x5B,0x03,0x43,0x51,0x02,
	0x99,0x2A,0x00,0x00,0x93,0x4A,0x00,0x00,
	0x90,0x4C,0x7F,0x00,0x92,0x21,0x7F,0x00,
	0x93,0x48,0x54,0x00,0x96,0x54,0x7F,0x00,
	0x99,0x24,0x7F,0x00,0x2D,0x5F,0x00,0x2A,
	0x65,0x00,0x31,0x7F,0x06,0x97,0x4C,0x7A,
	0x09,0x98,0x4A,0x00,0x0F,0x96,0x54,0x00,
	0x00,0x92,0x21,0x00,0x00,0x99,0x31,0x00,
	0x00,0x2A,0x00,0x00,0x2A,0x65,0x0F,0x98,
	0x4C,0x7F,0x0F,0x99,0x2A,0x00,0x00,0x24,
	0x00,0x00,0x2D,0x00,0x00,0x92,0x21,0x7F,
	0x00,0x96,0x51,0x7F,0x00,0x99,0x2A,0x65,
	0x1E,0x2A,0x00,0x00,0x92,0x21,0x00,0x00,
	0x96,0x51,0x00,0x00,0x99,0x2A,0x65,0x1E,
	0x2A,0x00,0x00,0x92,0x21,0x7F,0x00,0x96,
	0x4F,0x7F,0x00,0x99,0x2A,0x65,0x1E,0x2A,
	0x00,0x00,0x92,0x21,0x00,0x00,0x96,0x4F,
	0x00,0x00,0x99,0x2A,0x65,0x1E,0x2A,0x00,
	0x00,0x92,0x21,0x7F,0x00,0x96,0x51,0x7F,
	0x00,0x99,0x2A,0x65,0x1E,0x2A,0x00,0x00,
	0x97,0x48,0x00,0x00,0x40,0x00,0x00,0x92,
	0x21,0x00,0x00,0x97,0x45,0x00,0x00,0x96,
	0x51,0x00,0x00,0x97,0x39,0x00,0x00,0x43,
	0x00,0x00,0x99,0x2A,0x65,0x16,0x97,0x39,
	0x5B,0x03,0x45,0x4F,0x05,0x99,0x2A,0x00,
	0x00,0x93,0x48,0x00,0x00,0x97,0x4C,0x00,
	0x00,0x92,0x21,0x7F,0x00,0x96,0x53,0x7F,
	0x00,0x97,0x48,0x56,0x00,0x40,0x58,0x00,
	0x99,0x2D,0x5F,0x00,0x24,0x7F,0x00,0x2A,
	0x65,0x08,0x97,0x43,0x54,0x02,0x4C,0x76,
	0x14,0x99,0x2A,0x00,0x00,0x24,0x00,0x00,
	0x2D,0x00,0x00,0x96,0x53,0x00,0x00,0x92,
	0x21,0x00,0x00,0x99,0x2A,0x65,0x1E,0x2A,
	0x00,0x00,0x90,0x4C,0x00,0x00,0x92,0x21,
	0x7F,0x00,0x96,0x54,0x7F,0x00,0x99,0x2A,
	0x65,0x1E,0x2A,0x00,0x00,0x96,0x54,0x00,
	0x00,0x92,0x21,0x00,0x00,0x21,0x7F,0x00,
	0x99,0x24,0x7F,0x00,0x2D,0x5F,0x00,0x2A,
	0x65,0x0F,0x98,0x4C,0x00,0x0F,0x99,0x24,
	0x00,0x00,0x2A,0x00,0x00,0x92,0x21,0x00,
	0x00,0x99,0x2D,0x00,0x00,0x90,0x4A,0x7F,
	0x00,0x92,0x1F,0x7F,0x00,0x96,0x51,0x7F,
	0x00,0x99,0x24,0x7F,0x00,0x2D,0x5F,0x00,
	0x2A,0x65,0x1E,0x2A,0x00,0x00,0x24,0x00,
	0x00,0x92,0x1F,0x00,0x00,0x90,0x4A,0x00,
	0x00,0x96,0x51,0x00,0x00,0x99,0x2D,0x00,
	0x00,0x90,0x4C,0x7F,0x00,0x92,0x21,0x7F,
	0x00,0x99,0x2D,0x5F,0x00,0x24,0x7F,0x00,
	0x2A,0x65,0x0F,0x98,0x4A,0x7F,0x0F,0x99,
	0x2A,0x00,0x00,0x24,0x00,0x00,0x92,0x21,
	0x00,0x00,0x97,0x48,0x00,0x00,0x99,0x2D,
	0x00,0x00,0x96,0x4C,0x7F,0x00,0x99,0x2A,
	0x65,0x0F,0x98,0x4A,0x00,0x00,0x4C,0x7F,
	0x0F,0x97,0x4C,0x00,0x00,0x99,0x2A,0x00,
	0x00,0x96,0x4C,0x00,0x00,0x97,0x39,0x00,
	0x00,0x90,0x4C,0x00,0x00,0x97,0x40,0x00,
	0x00,0x43,0x00,0x00,0x45,0x00,0x00,0x99,
	0x2A,0x65,0x1A,0x97,0x39,0x58,0x04,0x99,
	0x2A,0x00,0x00,0x90,0x4C,0x7F,0x00,0x92,
	0x21,0x7F,0x00,0x93,0x45,0x5D,0x00,0x96,
	0x51,0x7F,0x00,0x99,0x24,0x7F,0x00,0x2D,
	0x5F,0x00,0x2A,0x65,0x03,0x97,0x45,0x58,
	0x00,0x40,0x5B,0x04,0x48,0x54,0x07,0x43,
	0x40,0x01,0x98,0x4C,0x00,0x00,0x97,0x4C,
	0x68,0x0F,0x99,0x2A,0x00,0x00,0x2D,0x00,
	0x00,0x92,0x21,0x00,0x00,0x99,0x24,0x00,
	0x00,0x90,0x4C,0x00,0x00,0x96,0x51,0x00,
	0x00,0x99,0x2A,0x65,0x0F,0x98,0x4C,0x7F,
	0x0F,0x99,0x2A,0x00,0x00,0x93,0x45,0x00,
	0x00,0x90,0x4C,0x7F,0x00,0x92,0x21,0x7F,
	0x00,0x93,0x47,0x54,0x00,0x96,0x4C,0x7F,
	0x00,0x99,0x2A,0x65,0x0F,0x90,0x4C,0x00,
	0x00,0x98,0x4C,0x00,0x0F,0x92,0x21,0x00,
	0x00,0x96,0x4C,0x00,0x00,0x99,0x2A,0x00,
	0x00,0x90,0x4C,0x7F,0x00,0x99,0x2A,0x65,
	0x0F,0x90,0x4C,0x00,0x00,0x98,0x4C,0x7F,
	0x0F,0x4C,0x00,0x00,0x99,0x2A,0x00,0x00,
	0x93,0x47,0x00,0x00,0x90,0x4C,0x7F,0x00,
	0x92,0x21,0x7F,0x00,0x93,0x48,0x5A,0x00,
	0x96,0x4F,0x7F,0x00,0x99,0x2A,0x65,0x0F,
	0x98,0x4C,0x7F,0x0F,0x4C,0x00,0x00,0x96,
	0x4F,0x00,0x00,0x92,0x21,0x00,0x00,0x99,
	0x2A,0x00,0x00,0x2A,0x65,0x0F,0x98,0x4C,
	0x7F,0x0F,0x99,0x2A,0x00,0x00,0x90,0x4C,
	0x00,0x00,0x93,0x48,0x00,0x00,0x90,0x51,
	0x7F,0x00,0x92,0x21,0x7F,0x00,0x93,0x45,
	0x5A,0x00,0x96,0x51,0x7F,0x00,0x99,0x2A,
	0x65,0x1E,0x2A,0x00,0x00,0x97,0x45,0x00,
	0x00,0x40,0x00,0x00,0x92,0x21,0x00,0x00,
	0x97,0x39,0x00,0x00,0x43,0x00,0x00,0x4C,
	0x00,0x00,0x48,0x00,0x00,0x96,0x51,0x00,
	0x00,0x99,0x2A,0x65,0x0A,0x97,0x37,0x58,
	0x05,0x98,0x4C,0x00,0x00,0x51,0x7F,0x04,
	0x97,0x3E,0x4C,0x02,0x43,0x54,0x06,0x47,
	0x46,0x00,0x41,0x58,0x03,0x99,0x2A,0x00,
	0x00,0x90,0x51,0x00,0x00,0x93,0x45,0x00,
	0x00,0x90,0x4F,0x7F,0x00,0x92,0x1F,0x7F,
	0x00,0x93,0x47,0x57,0x00,0x96,0x53,0x7F,
	0x00,0x99,0x2D,0x5F,0x00,0x24,0x7F,0x00,
	0x2A,0x65,0x06,0x97,0x4A,0x7F,0x18,0x99,
	0x2A,0x00,0x00,0x96,0x53,0x00,0x00,0x92,
	0x1F,0x00,0x00,0x99,0x24,0x00,0x00,0x2D,
	0x00,0x00,0x2A,0x65,0x0F,0x98,0x51,0x00,
	0x00,0x4F,0x7F,0x0F,0x90,0x4F,0x00,0x00,
	0x99,0x2A,0x00,0x00,0x93,0x47,0x00,0x00,
	0x90,0x4A,0x7F,0x00,0x92,0x1F,0x7F,0x00,
	0x93,0x48,0x52,0x00,0x96,0x4F,0x7F,0x00,
	0x99,0x24,0x7F,0x00,0x2D,0x5F,0x00,0x2A,
	0x65,0x0F,0x90,0x4A,0x00,0x0F,0x96,0x4F,
	0x00,0x00,0x92,0x1F,0x00,0x00,0x99,0x2A,
	0x00,0x00,0x24,0x00,0x00,0x2D,0x00,0x00,
	0x90,0x4A,0x7F,0x00,0x99,0x2A,0x65,0x0F,
	0x98,0x4F,0x00,0x00,0x4A,0x7F,0x0F,0x4A,
	0x00,0x00,0x99,0x2A,0x00,0x00,0x93,0x48,
	0x00,0x00,0x92,0x1F,0x7F,0x00,0x93,0x4A,
	0x54,0x00,0x96,0x53,0x7F,0x00,0x99,0x2A,
	0x65,0x0F,0x98,0x4A,0x7F,0x0F,0x99,0x2A,
	0x00,0x00,0x96,0x53,0x00,0x00,0x92,0x1F,
	0x00,0x00,0x99,0x2A,0x65,0x1E,0x2A,0x00,
	0x00,0x90,0x4A,0x00,0x00,0x93,0x4A,0x00,
	0x00,0x92,0x1F,0x7F,0x00,0x93,0x47,0x57,
	0x00,0x96,0x56,0x7F,0x00,0x99,0x2A,0x65,
	0x1E,0x2A,0x00,0x00,0x97,0x47,0x00,0x00,
	0x41,0x00,0x00,0x96,0x56,0x00,0x00,0x97,
	0x37,0x00,0x00,0x4A,0x00,0x00,0x3E,0x00,
	0x00,0x92,0x1F,0x00,0x00,0x97,0x43,0x00,
	0x00,0x99,0x2A,0x65,0x03,0x97,0x32,0x58,
	0x0A,0x39,0x4C,0x02,0x98,0x4A,0x00,0x06,
	0x97,0x41,0x4A,0x02,0x3C,0x46,0x04,0x45,
	0x5B,0x03,0x93,0x47,0x00,0x00,0x99,0x2A,
	0x00,0x00,0x90,0x4D,0x7F,0x00,0x92,0x1A,
	0x7F,0x00,0x93,0x4C,0x5D,0x00,0x96,0x54,
	0x7F,0x00,0x99,0x24,0x7F,0x00,0x2D,0x5F,
	0x00,0x2A,0x65,0x06,0x97,0x48,0x7A,0x18,
	0x99,0x2A,0x00,0x00,0x24,0x00,0x00,0x96,
	0x54,0x00,0x00,0x92,0x1A,0x00,0x00,0x99,
	0x2D,0x00,0x00,0x90,0x4D,0x00,0x00,0x99,
	0x2A,0x65,0x0F,0x98,0x4D,0x7F,0x0F,0x99,
	0x2A,0x00,0x00,0x93,0x4C,0x00,0x00,0x90,
	0x4D,0x7F,0x00,0x92,0x1A,0x7F,0x00,0x93,
	0x4A,0x52,0x00,0x96,0x58,0x7F,0x00,0x99,
	0x2A,0x65,0x0F,0x90,0x4D,0x00,0x00,0x98,
	0x4D,0x00,0x0F,0x92,0x1A,0x00,0x00,0x96,
	0x58,0x00,0x00,0x99,0x2A,0x00,0x00,0x90,
	0x4D,0x7F,0x00,0x99,0x2A,0x65,0x0F,0x90,
	0x4D,0x00,0x00,0x98,0x4D,0x7F,0x0F,0x4D,
	0x00,0x00,0x99,0x2A,0x00,0x00,0x93,0x4A,
	0x00,0x00,0x90,0x4C,0x7F,0x00,0x92,0x1A,
	0x7F,0x00,0x93,0x48,0x4E,0x00,0x96,0x54,
	0x7F,0x00,0x99,0x2A,0x65,0x0F,0x98,0x4D,
	0x7F,0x0F,0x4D,0x00,0x00,0x96,0x54,0x00,
	0x00,0x92,0x1A,0x00,0x00,0x99,0x2A,0x00,
	0x00,0x2A,0x65,0x0F,0x98,0x4C,0x7F,0x0F,
	0x99,0x2A,0x00,0x00,0x90,0x4C,0x00,0x00,
	0x93,0x48,0x00,0x00,0x90,0x4A,0x7F,0x00,
	0x92,0x1A,0x7F,0x00,0x93,0x47,0x4E,0x00,
	0x96,0x51,0x7F,0x00,0x99,0x2A,0x65,0x1E,
	0x2A,0x00,0x00,0x97,0x3C,0x00,0x00,0x39,
	0x00,0x00,0x92,0x1A,0x00,0x00,0x97,0x32,
	0x00,0x00,0x41,0x00,0x00,0x48,0x00,0x00,
	0x45,0x00,0x00,0x96,0x51,0x00,0x00,0x99,
	0x2A,0x65,0x0F,0x98,0x4C,0x00,0x00,0x4A,
	0x7F,0x02,0x97,0x39,0x58,0x05,0x40,0x58,
	0x08,0x90,0x4A,0x00,0x00,0x99,0x2A,0x00,
	0x00,0x93,0x47,0x00,0x00,0x90,0x4C,0x7F,
	0x00,0x92,0x21,0x7F,0x00,0x93,0x45,0x52,
	0x00,0x96,0x4F,0x7F,0x00,0x99,0x2D,0x5F,
	0x00,0x24,0x7F,0x00,0x2A,0x65,0x02,0x97,
	0x45,0x56,0x02,0x43,0x60,0x02,0x48,0x5B,
	0x09,0x4C,0x7E,0x0F,0x99,0x2A,0x00,0x00,
	0x24,0x00,0x00,0x96,0x4F,0x00,0x00,0x99,
	0x2D,0x00,0x00,0x92,0x21,0x00,0x00,0x99,
	0x2A,0x65,0x0F,0x98,0x4A,0x00,0x00,0x4C,
	0x7F,0x0F,0x99,0x2A,0x00,0x00,0x90,0x4C,
	0x00,0x00,0x45,0x7F,0x00,0x92,0x21,0x7F,
	0x00,0x96,0x51,0x7F,0x00,0x99,0x24,0x7F,
	0x00,0x2D,0x5F,0x00,0x2A,0x65,0x0F,0x90,
	0x45,0x00,0x0F,0x96,0x51,0x00,0x00,0x92,
	0x21,0x00,0x00,0x99,0x2A,0x00,0x00,0x24,
	0x00,0x00,0x2D,0x00,0x00,0x90,0x45,0x7F,
	0x00,0x99,0x2A,0x65,0x0F,0x98,0x4C,0x00,
	0x00,0x45,0x7F,0x0F,0x45,0x00,0x00,0x99,
	0x2A,0x00,0x00,0x93,0x45,0x00,0x00,0x92,
	0x21,0x7F,0x00,0x96,0x4F,0x7F,0x00,0x99,
	0x2A,0x65,0x0F,0x98,0x45,0x7F,0x0F,0x99,
	0x2A,0x00,0x00,0x96,0x4F,0x00,0x00,0x92,
	0x21,0x00,0x00,0x99,0x2A,0x65,0x1E,0x2A,
	0x00,0x00,0x90,0x45,0x00,0x00,0x92,0x21,
	0x7F,0x00,0x96,0x4C,0x7F,0x00,0x99,0x2A,
	0x65,0x1E,0x2A,0x00,0x00,0x97,0x39,0x00,
	0x00,0x40,0x00,0x00,0x96,0x4C,0x00,0x00,
	0x97,0x45,0x00,0x00,0x48,0x00,0x00,0x92,
	0x21,0x00,0x00,0x97,0x4C,0x00,0x00,0x43,
	0x00,0x00,0x99,0x2A,0x65,0x0E,0x97,0x35,
	0x5B,0x01,0x98,0x45,0x00,0x05,0x97,0x3C,
	0x46,0x0A,0x99,0x2A,0x00,0x00,0x90,0x48,
	0x7F,0x00,0x92,0x1D,0x7F,0x00,0x93,0x41,
	0x54,0x00,0x96,0x4D,0x7F,0x00,0x97,0x45,
	0x5D,0x00,0x41,0x54,0x00,0x99,0x24,0x7F,
	0x00,0x2D,0x5F,0x00,0x2A,0x65,0x06,0x97,
	0x48,0x5B,0x18,0x99,0x2A,0x00,0x00,0x2D,
	0x00,0x00,0x96,0x4D,0x00,0x00,0x90,0x48,
	0x00,0x00,0x99,0x24,0x00,0x00,0x92,0x1D,
	0x00,0x00,0x99,0x2A,0x65,0x0F,0x98,0x48,
	0x7F,0x0F,0x99,0x2A,0x00,0x00,0x93,0x41,
	0x00,0x00,0x90,0x48,0x7F,0x00,0x92,0x1D,
	0x7F,0x00,0x93,0x43,0x54,0x00,0x96,0x58,
	0x7F,0x00,0x99,0x2A,0x65,0x0F,0x90,0x48,
	0x00,0x00,0x98,0x48,0x00,0x0F,0x99,0x2A,
	0x00,0x00,0x96,0x58,0x00,0x00,0x92,0x1D,
	0x00,0x00,0x90,0x48,0x7F,0x00,0x99,0x2A,
	0x65,0x0F,0x90,0x48,0x00,0x00,0x98,0x48,
	0x7F,0x0F,0x48,0x00,0x00,0x99,0x2A,0x00,
	0x00,0x93,0x43,0x00,0x00,0x90,0x48,0x7F,
	0x00,0x92,0x1D,0x7F,0x00,0x93,0x45,0x52,
	0x00,0x96,0x54,0x7F,0x00,0x99,0x2A,0x65,
	0x0F,0x98,0x48,0x7F,0x0F,0x48,0x00,0x00,
	0x92,0x1D,0x00,0x00,0x99,0x2A,0x00,0x00,
	0x96,0x54,0x00,0x00,0x99,0x2A,0x65,0x0F,
	0x98,0x48,0x7F,0x0F,0x99,0x2A,0x00,0x00,
	0x93,0x45,0x00,0x00,0x90,0x48,0x00,0x00,
	0x4C,0x7F,0x00,0x92,0x1D,0x7F,0x00,0x93,
	0x48,0x57,0x00,0x96,0x51,0x7F,0x00,0x99,
	0x2A,0x65,0x1E,0x2A,0x00,0x00,0x97,0x48,
	0x00,0x00,0x41,0x00,0x00,0x96,0x51,0x00,
	0x00,0x97,0x35,0x00,0x00,0x3C,0x00,0x00,
	0x92,0x1D,0x00,0x00,0x97,0x45,0x00,0x00,
	0x99,0x2A,0x65,0x0F,0x98,0x48,0x00,0x00,
	0x4C,0x7F,0x01,0x97,0x37,0x5B,0x08,0x3E,
	0x58,0x06,0x93,0x48,0x00,0x00,0x99,0x2A,
	0x00,0x00,0x90,0x4C,0x00,0x00,0x4A,0x7F,
	0x00,0x92,0x1F,0x7F,0x00,0x93,0x43,0x54,
	0x00,0x96,0x4F,0x7F,0x00,0x97,0x47,0x56,
	0x00,0x99,0x2D,0x5F,0x00,0x24,0x7F,0x00,
	0x2A,0x65,0x03,0x97,0x43,0x54,0x07,0x4A,
	0x7A,0x14,0x99,0x2A,0x00,0x00,0x24,0x00,
	0x00,0x2D,0x00,0x00,0x96,0x4F,0x00,0x00,
	0x92,0x1F,0x00,0x00,0x99,0x2A,0x65,0x0F,
	0x98,0x4C,0x00,0x00,0x4A,0x7F,0x09,0x90,
	0x4A,0x00,0x06,0x99,0x2A,0x00,0x00,0x93,
	0x43,0x00,0x00,0x92,0x1F,0x7F,0x00,0x93,
	0x45,0x54,0x00,0x96,0x56,0x7F,0x00,0x99,
	0x2A,0x65,0x1E,0x2A,0x00,0x00,0x96,0x56,
	0x00,0x00,0x92,0x1F,0x00,0x00,0x99,0x2A,
	0x65,0x09,0x98,0x4A,0x00,0x15,0x99,0x2A,
	0x00,0x00,0x93,0x45,0x00,0x00,0x90,0x47,
	0x7F,0x00,0x92,0x1D,0x7F,0x00,0x93,0x47,
	0x50,0x00,0x96,0x53,0x7F,0x00,0x99,0x24,
	0x7F,0x00,0x2D,0x5F,0x00,0x2A,0x65,0x0F,
	0x90,0x47,0x00,0x0F,0x99,0x2D,0x00,0x00,
	0x24,0x00,0x00,0x96,0x53,0x00,0x00,0x99,
	0x2A,0x00,0x00,0x92,0x1D,0x00,0x00,0x90,
	0x47,0x7F,0x00,0x92,0x1F,0x7F,0x00,0x99,
	0x2D,0x5F,0x00,0x24,0x7F,0x00,0x2A,0x65,
	0x00,0x31,0x7F,0x0C,0xE0,0x00,0x41,0x02,
	0x00,0x43,0x01,0x00,0x45,0x00,0x98,0x47,
	0x7F,0x01,0xE0,0x00,0x47,0x02,0x00,0x49,
	0x01,0x00,0x4C,0x01,0x00,0x4E,0x02,0x00,
	0x50,0x01,0x00,0x52,0x02,0x00,0x54,0x01,
	0x00,0x57,0x01,0x00,0x59,0x02,0x00,0x5B,
	0x01,0x98,0x47,0x00,0x00,0x99,0x24,0x00,
	0x00,0x2D,0x00,0x00,0x93,0x47,0x00,0x00,
	0x99,0x31,0x00,0x00,0x2A,0x00,0x00,0xE0,
	0x00,0x5D,0x00,0x93,0x4A,0x54,0x00,0x96,
	0x4F,0x7F,0x00,0x99,0x2A,0x65,0x01,0xE0,
	0x00,0x60,0x0E,0x98,0x47,0x7F,0x0C,0xE8,
	0x00,0x41,0x02,0x00,0x43,0x01,0x99,0x2A,
	0x00,0x00,0x96,0x4F,0x00,0x00,0x97,0x3E,
	0x00,0x00,0x37,0x00,0x00,0x92,0x1F,0x00,
	0x00,0x97,0x47,0x00,0x00,0x43,0x00,0x00,
	0x4A,0x00,0x00,0xE8,0x00,0x45,0x00,0x99,
	0x2A,0x65,0x01,0xE8,0x00,0x47,0x02,0x00,
	0x49,0x01,0x00,0x4C,0x01,0x00,0x4E,0x02,
	0x00,0x50,0x01,0x00,0x52,0x02,0x00,0x54,
	0x01,0x00,0x57,0x01,0x00,0x59,0x02,0x00,
	0x5B,0x01,0x00,0x5D,0x01,0x00,0x60,0x06,
	0x97,0x39,0x58,0x08,0x99,0x2A,0x00,0x00,
	0x93,0x4A,0x00,0x00,0x90,0x47,0x00,0x00,
	0x48,0x7F,0x00,0x92,0x21,0x7F,0x00,0x93,
	0x48,0x4A,0x00,0x96,0x54,0x7F,0x00,0x99,
	0x24,0x7F,0x00,0x2D,0x5F,0x00,0x2A,0x65,
	0x00,0x31,0x7F,0x01,0xE0,0x00,0x40,0x00,
	0x97,0x40,0x4C,0x00,0x45,0x4F,0x04,0x43,
	0x58,0x03,0x48,0x49,0x09,0x4C,0x7A,0x0D,
	0x99,0x31,0x00,0x00,0x2A,0x00,0x00,0x24,
	0x00,0x00,0x2D,0x00,0x00,0x96,0x54,0x00,
	0x00,0x92,0x21,0x00,0x00,0x99,0x2A,0x65,
	0x0F,0x98,0x47,0x00,0x00,0x48,0x7F,0x01,
	0xE8,0x00,0x40,0x0E,0x99,0x2A,0x00,0x00,
	0x92,0x21,0x7F,0x00,0x96,0x4C,0x7F,0x00,
	0x99,0x2A,0x65,0x1E,0x2A,0x00,0x00,0x92,
	0x21,0x00,0x00,0x96,0x4C,0x00,0x00,0x99,
	0x2A,0x65,0x1E,0x2A,0x00,0x00,0x92,0x21,
	0x7F,0x00,0x96,0x51,0x7F,0x00,0x99,0x2A,
	0x65,0x1E,0x2A,0x00,0x00,0x92,0x21,0x00,
	0x00,0x96,0x51,0x00,0x00,0x99,0x2A,0x65,
	0x1E,0x2A,0x00,0x00,0x92,0x21,0x7F,0x00,
	0x96,0x4C,0x7F,0x00,0x99,0x2A,0x65,0x1E,
	0x2A,0x00,0x00,0x97,0x39,0x00,0x00,0x43,
	0x00,0x00,0x40,0x00,0x00,0x92,0x21,0x00,
	0x00,0x97,0x4C,0x00,0x00,0x48,0x00,0x00,
	0x45,0x00,0x00,0x96,0x4C,0x00,0x00,0x99,
	0x2A,0x65,0x0F,0x97,0x39,0x58,0x04,0x45,
	0x4C,0x02,0x40,0x4C,0x05,0x48,0x3E,0x04,
	0x99,0x2A,0x00,0x00,0x93,0x48,0x00,0x00,
	0x92,0x21,0x7F,0x00,0x96,0x51,0x7F,0x00,
	0x97,0x43,0x58,0x00,0x99,0x24,0x7F,0x00,
	0x2D,0x5F,0x00,0x2A,0x65,0x03,0x97,0x4C,
	0x7A,0x1B,0x99,0x2A,0x00,0x00,0x24,0x00,
	0x00,0x96,0x51,0x00,0x00,0x92,0x21,0x00,
	0x00,0x99,0x2D,0x00,0x00,0x2A,0x65,0x1E,
	0x2A,0x00,0x00,0x92,0x21,0x7F,0x00,0x96,
	0x4F,0x7F,0x00,0x99,0x2A,0x65,0x1E,0x2A,
	0x00,0x00,0x96,0x4F,0x00,0x00,0x92,0x21,
	0x00,0x00,0x99,0x2A,0x65,0x1E,0x2A,0x00,
	0x00,0x90,0x48,0x00,0x00,0x92,0x21,0x7F,
	0x00,0x96,0x4C,0x7F,0x00,0x99,0x2A,0x65,
	0x1E,0x2A,0x00,0x00,0x96,0x4C,0x00,0x00,
	0x92,0x21,0x00,0x00,0x99,0x2A,0x65,0x0F,
	0x98,0x48,0x00,0x0F,0x99,0x2A,0x00,0x00,
	0x92,0x21,0x7F,0x00,0x96,0x51,0x7F,0x00,
	0x99,0x2A,0x65,0x1E,0x2A,0x00,0x00,0x96,
	0x51,0x00,0x00,0x92,0x21,0x00,0x00,0x99,
	0x2A,0x65,0x04,0x97,0x43,0x00,0x01,0x45,
	0x00,0x03,0x4C,0x00,0x03,0x48,0x00,0x01,
	0x40,0x00,0x03,0x39,0x00,0x0F,0x99,0x2A,
	0x00,0x00,0x91,0x56,0x63,0x00,0x92,0x21,
	0x7F,0x00,0x93,0x48,0x46,0x00,0x4C,0x4A,
	0x00,0x99,0x24,0x7F,0x00,0x2D,0x5F,0x00,
	0x2A,0x65,0x00,0x31,0x7F,0x1E,0x31,0x00,
	0x00,0x2A,0x00,0x00,0x24,0x00,0x00,0x91,
	0x56,0x00,0x00,0x99,0x2D,0x00,0x00,0x91,
	0x58,0x52,0x00,0x99,0x2A,0x65,0x1E,0x2A,
	0x00,0x00,0x91,0x58,0x00,0x00,0x54,0x4E,
	0x00,0x99,0x2A,0x65,0x1E,0x2A,0x00,0x00,
	0x91,0x54,0x00,0x00,0x51,0x52,0x00,0x99,
	0x2A,0x65,0x1E,0x2A,0x00,0x00,0x92,0x21,
	0x00,0x00,0x91,0x51,0x00,0x00,0x54,0x54,
	0x00,0x92,0x24,0x7F,0x00,0x99,0x2A,0x65,
	0x1E,0x2A,0x00,0x00,0x91,0x54,0x00,0x00,
	0x51,0x4C,0x00,0x99,0x2A,0x65,0x1E,0x2A,
	0x00,0x00,0x91,0x51,0x00,0x00,0x4F,0x46,
	0x00,0x99,0x2A,0x65,0x1E,0x2A,0x00,0x00,
	0x91,0x4F,0x00,0x00,0x51,0x54,0x00,0x99,
	0x2A,0x65,0x1E,0x2A,0x00,0x00,0x93,0x4C,
	0x00,0x00,0x92,0x24,0x00,0x00,0x93,0x48,
	0x00,0x00,0x91,0x51,0x00,0x00,0x4C,0x54,
	0x00,0x92,0x1F,0x7F,0x00,0x93,0x47,0x40,
	0x00,0x4A,0x4A,0x00,0x99,0x24,0x7F,0x00,
	0x2D,0x5F,0x00,0x2A,0x65,0x1E,0x2A,0x00,
	0x00,0x24,0x00,0x00,0x91,0x4C,0x00,0x00,
	0x99,0x2D,0x00,0x00,0x91,0x4A,0x52,0x00,
	0x99,0x2A,0x65,0x1E,0x2A,0x00,0x00,0x91,
	0x4A,0x00,0x00,0x4F,0x48,0x00,0x99,0x2A,
	0x65,0x1E,0x2A,0x00,0x00,0x91,0x4F,0x00,
	0x00,0x4C,0x52,0x00,0x99,0x2A,0x65,0x1E,
	0x2A,0x00,0x00,0x92,0x1F,0x00,0x00,0x93,
	0x47,0x00,0x00,0x4A,0x00,0x00,0x91,0x4C,
	0x00,0x00,0x4A,0x57,0x00,0x92,0x1C,0x7F,
	0x00,0x93,0x43,0x50,0x00,0x99,0x2A,0x65,
	0x1E,0x2A,0x00,0x00,0x91,0x4A,0x00,0x00,
	0x4C,0x4A,0x00,0x99,0x2A,0x65,0x1E,0x2A,
	0x00,0x00,0x91,0x4C,0x00,0x00,0x48,0x48,
	0x00,0x99,0x2A,0x65,0x1E,0x2A,0x00,0x00,
	0x91,0x48,0x00,0x00,0x45,0x57,0x00,0x99,
	0x2A,0x65,0x1E,0x2A,0x00,0x00,0x92,0x1C,
	0x00,0x00,0x93,0x43,0x00,0x00,0x91,0x45,
	0x00,0x00,0x48,0x48,0x00,0x92,0x1D,0x7F,
	0x00,0x93,0x45,0x4E,0x00,0x99,0x24,0x7F,
	0x00,0x2D,0x5F,0x00,0x2A,0x65,0x1E,0x2A,
	0x00,0x00,0x24,0x00,0x00,0x91,0x48,0x00,
	0x00,0x99,0x2D,0x00,0x00,0x91,0x45,0x4A,
	0x00,0x99,0x2A,0x65,0x1E,0x2A,0x00,0x00,
	0x91,0x45,0x00,0x00,0x43,0x44,0x00,0x99,
	0x2A,0x65,0x1E,0x2A,0x00,0x00,0x91,0x43,
	0x00,0x00,0x45,0x4C,0x00,0x99,0x2A,0x65,
	0x1E,0x2A,0x00,0x00,0x93,0x45,0x00,0x00,
	0x92,0x1D,0x00,0x00,0x91,0x45,0x00,0x00,
	0x40,0x52,0x00,0x92,0x1F,0x7F,0x00,0x93,
	0x47,0x54,0x00,0x99,0x2A,0x65,0x1E,0x2A,
	0x00,0x00,0x91,0x40,0x00,0x00,0x3E,0x4A,
	0x00,0x99,0x2A,0x65,0x1E,0x2A,0x00,0x00,
	0x91,0x3E,0x00,0x00,0x43,0x52,0x00,0x99,
	0x2A,0x65,0x1E,0x2A,0x00,0x00,0x91,0x43,
	0x00,0x00,0x40,0x54,0x00,0x99,0x2A,0x65,
	0x1E,0x2A,0x00,0x00,0x92,0x1F,0x00,0x00,
	0x93,0x47,0x00,0x00,0x91,0x40,0x00,0x00,
	0x3E,0x40,0x00,0x92,0x21,0x7F,0x00,0x93,
	0x48,0x4E,0x00,0x99,0x24,0x7F,0x00,0x2D,
	0x5F,0x00,0x2A,0x65,0x1E,0x2A,0x00,0x00,
	0x24,0x00,0x00,0x91,0x3E,0x00,0x00,0x99,
	0x2D,0x00,0x00,0x91,0x40,0x46,0x00,0x99,
	0x2A,0x65,0x1E,0x2A,0x00,0x00,0x91,0x40,
	0x00,0x00,0x3C,0x3A,0x00,0x99,0x24,0x7F,
	0x00,0x2D,0x5F,0x00,0x2A,0x65,0x1E,0x2A,
	0x00,0x00,0x24,0x00,0x00,0x91,0x3C,0x00,
	0x00,0x99,0x2D,0x00,0x00,0x91,0x3E,0x46,
	0x00,0x99,0x2A,0x65,0x1E,0x2A,0x00,0x00,
	0x91,0x3E,0x00,0x00,0x92,0x21,0x00,0x00,
	0x91,0x3B,0x42,0x00,0x92,0x21,0x7F,0x00,
	0x99,0x2A,0x65,0x1E,0x2A,0x00,0x00,0x91,
	0x3B,0x00,0x00,0x3C,0x52,0x00,0x99,0x2A,
	0x65,0x1E,0x2A,0x00,0x00,0x91,0x3C,0x00,
	0x00,0x39,0x48,0x00,0x99,0x2A,0x65,0x1E,
	0x2A,0x00,0x00,0x91,0x39,0x00,0x00,0x99,
	0x24,0x7F,0x00,0x2D,0x5F,0x00,0x2A,0x65,
	0x1E,0x2A,0x00,0x00,0x24,0x00,0x00,0x93,
	0x48,0x00,0x00,0x92,0x21,0x00,0x00,0x99,
	0x2D,0x00,0x00,0xFF,0x2F,0x00,
};

__align(4) static const unsigned char classical10_mid[] = {
	0x4D,0x54,0x68,0x64,0x00,0x00,0x00,0x06,
	0x00,0x01,0x00,0x0C,0x01,0xE0,0x4D,0x54,
	0x72,0x6B,0x00,0x00,0x00,0x2E,0x00,0xFF,
	0x03,0x08,0x75,0x6E,0x74,0x69,0x74,0x6C,
	0x65,0x64,0x00,0xFF,0x58,0x04,0x01,0x02,
	0x18,0x08,0x00,0xFF,0x59,0x02,0x00,0x00,
	0x00,0xFF,0x51,0x03,0x0C,0x0B,0xE2,0x83,
	0x60,0xFF,0x58,0x04,0x04,0x02,0x18,0x08,
	0x00,0xFF,0x2F,0x00,0x4D,0x54,0x72,0x6B,
	0x00,0x00,0x01,0xB4,0x00,0xFF,0x03,0x06,
	0x4D,0x65,0x6C,0x6F,0x64,0x79,0x00,0xC0,
	0x47,0x00,0xB0,0x07,0x7F,0x00,0x0A,0x40,
	0x82,0x68,0x90,0x4C,0x7F,0x5C,0x4C,0x00,
	0x1C,0x54,0x7F,0x81,0x38,0x54,0x00,0x38,
	0x53,0x7F,0x81,0x38,0x53,0x00,0x38,0x51,
	0x7F,0x81,0x38,0x51,0x00,0x38,0x4F,0x7F,
	0x5C,0x4F,0x00,0x1C,0x54,0x7F,0x82,0x13,
	0x54,0x00,0x55,0x53,0x7F,0x81,0x38,0x53,
	0x00,0x38,0x51,0x7F,0x81,0x38,0x51,0x00,
	0x38,0x4F,0x7F,0x5C,0x4F,0x00,0x1C,0x51,
	0x7F,0x82,0x13,0x51,0x00,0x55,0x4F,0x7F,
	0x81,0x38,0x4F,0x00,0x38,0x4A,0x7F,0x81,
	0x38,0x4A,0x00,0x38,0x4F,0x7F,0x5C,0x4F,
	0x00,0x1C,0x4C,0x7F,0x83,0x4B,0x4C,0x00,
	0x82,0x7D,0x4A,0x7F,0x5C,0x4A,0x00,0x1C,
	0x48,0x7F,0x5C,0x48,0x00,0x1C,0x4A,0x7F,
	0x81,0x38,0x4A,0x00,0x38,0x4A,0x7F,0x81,
	0x38,0x4A,0x00,0x38,0x4A,0x7F,0x81,0x38,
	0x4A,0x00,0x38,0x48,0x7F,0x5C,0x48,0x00,
	0x1C,0x4A,0x7F,0x82,0x13,0x4A,0x00,0x55,
	0x4C,0x7F,0x82,0x6F,0x4C,0x00,0x71,0x4C,
	0x7F,0x5C,0x4C,0x00,0x1C,0x4F,0x7F,0x5C,
	0x4F,0x00,0x1C,0x51,0x7F,0x81,0x38,0x51,
	0x00,0x38,0x51,0x7F,0x81,0x38,0x51,0x00,
	0x38,0x51,0x7F,0x81,0x38,0x51,0x00,0x38,
	0x53,0x7F,0x5C,0x53,0x00,0x1C,0x51,0x7F,
	0x81,0x38,0x51,0x00,0x38,0x4F,0x7F,0x83,
	0x4B,0x4F,0x00,0x81,0x0D,0x4C,0x7F,0x5C,
	0x4C,0x00,0x1C,0x4C,0x7F,0x5C,0x4C,0x00,
	0x1C,0x54,0x7F,0x81,0x38,0x54,0x00,0x38,
	0x53,0x7F,0x81,0x38,0x53,0x00,0x38,0x51,
	0x7F,0x81,0x38,0x51,0x00,0x38,0x4F,0x7F,
	0x5C,0x4F,0x00,0x1C,0x54,0x7F,0x82,0x13,
	0x54,0x00,0x55,0x53,0x7F,0x81,0x38,0x53,
	0x00,0x38,0x51,0x7F,0x81,0x38,0x51,0x00,
	0x38,0x4F,0x7F,0x5C,0x4F,0x00,0x1C,0x51,
	0x7F,0x82,0x13,0x51,0x00,0x55,0x4F,0x7F,
	0x81,0x38,0x4F,0x00,0x38,0x4A,0x7F,0x81,
	0x38,0x4A,0x00,0x38,0x4F,0x7F,0x5C,0x4F,
	0x00,0x1C,0x4C,0x7F,0x83,0x4B,0x4C,0x00,
	0x82,0x7D,0x4A,0x7F,0x5C,0x4A,0x00,0x1C,
	0x48,0x7F,0x5C,0x48,0x00,0x1C,0x4A,0x7F,
	0x81,0x38,0x4A,0x00,0x38,0x4A,0x7F,0x81,
	0x38,0x4A,0x00,0x38,0x4A,0x7F,0x81,0x38,
	0x4A,0x00,0x38,0x48,0x7F,0x5C,0x48,0x00,
	0x1C,0x4A,0x7F,0x82,0x13,0x4A,0x00,0x55,
	0x4C,0x7F,0x82,0x6F,0x4C,0x00,0x71,0x4C,
	0x7F,0x5C,0x4C,0x00,0x1C,0x4F,0x7F,0x5C,
	0x4F,0x00,0x1C,0x51,0x7F,0x85,0x03,0x51,
	0x00,0x81,0x45,0x53,0x7F,0x82,0x13,0x53,
	0x00,0x55,0x4F,0x7F,0x81,0x38,0x4F,0x00,
	0x38,0x54,0x7F,0x81,0x38,0x54,0x00,0x38,
	0x53,0x7F,0x5C,0x53,0x00,0x1C,0x51,0x7F,
	0x8C,0x19,0x51,0x00,0x00,0xFF,0x2F,0x00,
	0x4D,0x54,0x72,0x6B,0x00,0x00,0x01,0x1D,
	0x00,0xFF,0x03,0x06,0x53,0x74,0x72,0x69,
	0x6E,0x67,0x00,0xC1,0x31,0x00,0xB1,0x07,
	0x2D,0x00,0x0A,0x6E,0x00,0x91,0x47,0x5F,
	0x00,0x43,0x5F,0x83,0x60,0x43,0x00,0x00,
	0x47,0x00,0x00,0x45,0x5F,0x00,0x41,0x5F,
	0x83,0x60,0x41,0x00,0x00,0x45,0x00,0x00,
	0x47,0x5F,0x00,0x43,0x5F,0x8B,0x20,0x43,
	0x00,0x00,0x47,0x00,0x00,0x48,0x5F,0x00,
	0x43,0x5F,0x83,0x60,0x43,0x00,0x00,0x48,
	0x00,0x00,0x47,0x5F,0x00,0x43,0x5F,0x83,
	0x60,0x43,0x00,0x00,0x47,0x00,0x00,0x45,
	0x5F,0x00,0x40,0x5F,0x87,0x40,0x40,0x00,
	0x00,0x45,0x00,0x00,0x45,0x5F,0x00,0x41,
	0x5F,0x87,0x40,0x41,0x00,0x00,0x45,0x00,
	0x00,0x47,0x5F,0x00,0x43,0x5F,0x87,0x40,
	0x43,0x00,0x00,0x47,0x00,0x00,0x45,0x5F,
	0x00,0x41,0x5F,0x83,0x60,0x41,0x00,0x00,
	0x45,0x00,0x00,0x47,0x5F,0x00,0x43,0x5F,
	0x8B,0x20,0x43,0x00,0x00,0x47,0x00,0x00,
	0x45,0x5F,0x00,0x41,0x5F,0x83,0x60,0x41,
	0x00,0x00,0x45,0x00,0x00,0x47,0x5F,0x00,
	0x43,0x5F,0x8B,0x20,0x43,0x00,0x00,0x47,
	0x00,0x00,0x48,0x5F,0x00,0x43,0x5F,0x83,
	0x60,0x43,0x00,0x00,0x48,0x00,0x00,0x47,
	0x5F,0x00,0x43,0x5F,0x83,0x60,0x43,0x00,
	0x00,0x47,0x00,0x00,0x45,0x5F,0x00,0x40,
	0x5F,0x87,0x40,0x40,0x00,0x00,0x45,0x00,
	0x00,0x45,0x5F,0x00,0x41,0x5F,0x87,0x40,
	0x41,0x00,0x00,0x45,0x00,0x00,0x47,0x5F,
	0x00,0x43,0x5F,0x87,0x40,0x43,0x00,0x00,
	0x47,0x00,0x00,0x45,0x5F,0x00,0x41,0x5F,
	0x83,0x60,0x41,0x00,0x00,0x45,0x00,0x00,
	0x47,0x5F,0x00,0x43,0x5F,0x8B,0x20,0x43,
	0x00,0x00,0x47,0x00,0x00,0x45,0x5F,0x00,
	0x40,0x5F,0x8B,0x20,0x40,0x00,0x00,0x45,
	0x00,0x00,0xFF,0x2F,0x00,0x4D,0x54,0x72,
	0x6B,0x00,0x00,0x00,0xA4,0x00,0xFF,0x03,
	0x05,0x43,0x68,0x6F,0x72,0x64,0x00,0xC2,
	0x66,0x00,0xB2,0x07,0x37,0x00,0x0A,0x18,
	0x00,0x92,0x4F,0x5F,0x83,0x60,0x4F,0x00,
	0x00,0x4D,0x5F,0x83,0x60,0x4D,0x00,0x00,
	0x4F,0x5F,0x8B,0x20,0x4F,0x00,0x00,0x54,
	0x5F,0x83,0x60,0x54,0x00,0x00,0x53,0x5F,
	0x83,0x60,0x53,0x00,0x00,0x51,0x5F,0x87,
	0x40,0x51,0x00,0x00,0x4A,0x5F,0x87,0x40,
	0x4A,0x00,0x00,0x4C,0x5F,0x87,0x40,0x4C,
	0x00,0x00,0x4D,0x5F,0x83,0x60,0x4D,0x00,
	0x00,0x4F,0x5F,0x8B,0x20,0x4F,0x00,0x00,
	0x4D,0x5F,0x83,0x60,0x4D,0x00,0x00,0x4F,
	0x5F,0x8B,0x20,0x4F,0x00,0x00,0x54,0x5F,
	0x83,0x60,0x54,0x00,0x00,0x53,0x5F,0x83,
	0x60,0x53,0x00,0x00,0x51,0x5F,0x87,0x40,
	0x51,0x00,0x00,0x4A,0x5F,0x87,0x40,0x4A,
	0x00,0x00,0x4C,0x5F,0x87,0x40,0x4C,0x00,
	0x00,0x4D,0x5F,0x83,0x60,0x4D,0x00,0x00,
	0x4F,0x5F,0x8B,0x20,0x4F,0x00,0x00,0x51,
	0x5F,0x8A,0x40,0x51,0x00,0x00,0xFF,0x2F,
	0x00,0x4D,0x54,0x72,0x6B,0x00,0x00,0x05,
	0x3A,0x00,0xFF,0x03,0x03,0x44,0x69,0x73,
	0x00,0xC3,0x1D,0x00,0xB3,0x07,0x49,0x00,
	0x0A,0x60,0x83,0x60,0x93,0x29,0x5B,0x02,
	0x30,0x5B,0x03,0x35,0x5B,0x81,0x4E,0x30,
	0x00,0x00,0x29,0x00,0x01,0x35,0x00,0x1C,
	0x29,0x5B,0x02,0x30,0x5B,0x03,0x35,0x5B,
	0x81,0x4E,0x30,0x00,0x00,0x29,0x00,0x01,
	0x35,0x00,0x1C,0x39,0x5B,0x02,0x3C,0x5B,
	0x03,0x41,0x5B,0x81,0x4E,0x3C,0x00,0x00,
	0x39,0x00,0x01,0x41,0x00,0x1C,0x37,0x6B,
	0x00,0x32,0x6B,0x12,0x32,0x00,0x00,0x37,
	0x00,0x66,0x2B,0x5B,0x02,0x32,0x5B,0x03,
	0x37,0x5B,0x81,0x4E,0x32,0x00,0x00,0x2B,
	0x00,0x01,0x37,0x00,0x1C,0x2B,0x5B,0x02,
	0x35,0x5B,0x03,0x37,0x5B,0x81,0x4E,0x35,
	0x00,0x00,0x2B,0x00,0x01,0x37,0x00,0x1C,
	0x32,0x6B,0x00,0x2D,0x6B,0x12,0x2D,0x00,
	0x00,0x32,0x00,0x66,0x3B,0x5B,0x00,0x37,
	0x5B,0x00,0x30,0x5B,0x81,0x53,0x30,0x00,
	0x00,0x37,0x00,0x00,0x3B,0x00,0x1D,0x2D,
	0x6B,0x02,0x32,0x6B,0x10,0x2D,0x00,0x02,
	0x32,0x00,0x64,0x32,0x6B,0x02,0x2D,0x6B,
	0x10,0x32,0x00,0x02,0x2D,0x00,0x64,0x30,
	0x5B,0x02,0x37,0x5B,0x81,0x51,0x37,0x00,
	0x00,0x30,0x00,0x1D,0x30,0x5B,0x02,0x37,
	0x5B,0x81,0x51,0x37,0x00,0x00,0x30,0x00,
	0x1D,0x34,0x5B,0x02,0x3B,0x5B,0x03,0x40,
	0x5B,0x81,0x4E,0x3B,0x00,0x00,0x34,0x00,
	0x01,0x40,0x00,0x1C,0x32,0x6B,0x00,0x2D,
	0x6B,0x12,0x2D,0x00,0x00,0x32,0x00,0x66,
	0x32,0x6B,0x00,0x2D,0x6B,0x12,0x2D,0x00,
	0x00,0x32,0x00,0x66,0x2D,0x5B,0x02,0x34,
	0x5B,0x03,0x39,0x5B,0x81,0x4E,0x34,0x00,
	0x00,0x2D,0x00,0x01,0x39,0x00,0x1C,0x2D,
	0x5B,0x02,0x34,0x5B,0x03,0x39,0x5B,0x81,
	0x4E,0x34,0x00,0x00,0x2D,0x00,0x01,0x39,
	0x00,0x1C,0x34,0x5B,0x02,0x39,0x5B,0x03,
	0x3C,0x5B,0x81,0x4E,0x39,0x00,0x00,0x34,
	0x00,0x01,0x3C,0x00,0x1C,0x32,0x5B,0x00,
	0x2D,0x5B,0x12,0x2D,0x00,0x00,0x32,0x00,
	0x2A,0x32,0x5B,0x00,0x2D,0x5B,0x12,0x2D,
	0x00,0x00,0x32,0x00,0x2A,0x32,0x5B,0x00,
	0x2D,0x5B,0x12,0x2D,0x00,0x00,0x32,0x00,
	0x2A,0x32,0x5B,0x00,0x2D,0x5B,0x12,0x2D,
	0x00,0x00,0x32,0x00,0x2A,0x32,0x5B,0x02,
	0x39,0x5B,0x81,0x51,0x39,0x00,0x00,0x32,
	0x00,0x1D,0x32,0x5B,0x02,0x39,0x5B,0x81,
	0x51,0x39,0x00,0x00,0x32,0x00,0x1D,0x39,
	0x5B,0x02,0x3E,0x5B,0x81,0x51,0x3E,0x00,
	0x00,0x39,0x00,0x1D,0x37,0x6B,0x00,0x32,
	0x6B,0x12,0x32,0x00,0x00,0x37,0x00,0x66,
	0x37,0x6B,0x00,0x32,0x6B,0x12,0x32,0x00,
	0x00,0x37,0x00,0x66,0x34,0x5B,0x02,0x3B,
	0x5B,0x81,0x51,0x3B,0x00,0x00,0x34,0x00,
	0x1D,0x34,0x5B,0x02,0x3B,0x5B,0x81,0x51,
	0x3B,0x00,0x00,0x34,0x00,0x1D,0x34,0x5B,
	0x02,0x3B,0x5B,0x03,0x40,0x5B,0x81,0x4E,
	0x3B,0x00,0x00,0x34,0x00,0x01,0x40,0x00,
	0x1C,0x32,0x6B,0x00,0x2D,0x6B,0x12,0x2D,
	0x00,0x00,0x32,0x00,0x66,0x32,0x6B,0x00,
	0x2D,0x6B,0x12,0x2D,0x00,0x00,0x32,0x00,
	0x66,0x29,0x5B,0x02,0x30,0x5B,0x03,0x35,
	0x5B,0x81,0x4E,0x30,0x00,0x00,0x29,0x00,
	0x01,0x35,0x00,0x1C,0x29,0x5B,0x02,0x30,
	0x5B,0x03,0x35,0x5B,0x81,0x4E,0x30,0x00,
	0x00,0x29,0x00,0x01,0x35,0x00,0x1C,0x39,
	0x5B,0x02,0x3C,0x5B,0x03,0x41,0x5B,0x81,
	0x4E,0x3C,0x00,0x00,0x39,0x00,0x01,0x41,
	0x00,0x1C,0x37,0x6B,0x00,0x32,0x6B,0x12,
	0x32,0x00,0x00,0x37,0x00,0x66,0x2B,0x5B,
	0x02,0x32,0x5B,0x03,0x37,0x5B,0x81,0x4E,
	0x32,0x00,0x00,0x2B,0x00,0x01,0x37,0x00,
	0x1C,0x2B,0x5B,0x02,0x35,0x5B,0x03,0x37,
	0x5B,0x81,0x4E,0x35,0x00,0x00,0x2B,0x00,
	0x01,0x37,0x00,0x1C,0x32,0x5B,0x00,0x2D,
	0x5B,0x12,0x2D,0x00,0x00,0x32,0x00,0x2A,
	0x32,0x6B,0x00,0x2D,0x6B,0x12,0x2D,0x00,
	0x00,0x32,0x00,0x2A,0x3B,0x5B,0x00,0x37,
	0x5B,0x00,0x30,0x5B,0x81,0x53,0x30,0x00,
	0x00,0x37,0x00,0x00,0x3B,0x00,0x1D,0x2D,
	0x6B,0x02,0x32,0x6B,0x10,0x2D,0x00,0x02,
	0x32,0x00,0x64,0x32,0x6B,0x02,0x2D,0x6B,
	0x10,0x32,0x00,0x02,0x2D,0x00,0x64,0x29,
	0x5B,0x02,0x30,0x5B,0x03,0x35,0x5B,0x81,
	0x4E,0x30,0x00,0x00,0x29,0x00,0x01,0x35,
	0x00,0x1C,0x29,0x5B,0x02,0x30,0x5B,0x03,
	0x35,0x5B,0x81,0x4E,0x30,0x00,0x00,0x29,
	0x00,0x01,0x35,0x00,0x1C,0x39,0x5B,0x02,
	0x3C,0x5B,0x03,0x41,0x5B,0x81,0x4E,0x3C,
	0x00,0x00,0x39,0x00,0x01,0x41,0x00,0x1C,
	0x37,0x6B,0x00,0x32,0x6B,0x12,0x32,0x00,
	0x00,0x37,0x00,0x66,0x2B,0x5B,0x02,0x32,
	0x5B,0x03,0x37,0x5B,0x81,0x4E,0x32,0x00,
	0x00,0x2B,0x00,0x01,0x37,0x00,0x1C,0x2B,
	0x5B,0x02,0x35,0x5B,0x03,0x37,0x5B,0x81,
	0x4E,0x35,0x00,0x00,0x2B,0x00,0x01,0x37,
	0x00,0x1C,0x32,0x6B,0x00,0x2D,0x6B,0x12,
	0x2D,0x00,0x00,0x32,0x00,0x66,0x3B,0x5B,
	0x00,0x37,0x5B,0x00,0x30,0x5B,0x81,0x53,
	0x30,0x00,0x00,0x37,0x00,0x00,0x3B,0x00,
	0x1D,0x2D,0x6B,0x02,0x32,0x6B,0x10,0x2D,
	0x00,0x02,0x32,0x00,0x64,0x32,0x6B,0x02,
	0x2D,0x6B,0x10,0x32,0x00,0x02,0x2D,0x00,
	0x64,0x30,0x5B,0x02,0x37,0x5B,0x81,0x51,
	0x37,0x00,0x00,0x30,0x00,0x1D,0x30,0x5B,
	0x02,0x37,0x5B,0x81,0x51,0x37,0x00,0x00,
	0x30,0x00,0x1D,0x34,0x5B,0x02,0x3B,0x5B,
	0x03,0x40,0x5B,0x81,0x4E,0x3B,0x00,0x00,
	0x34,0x00,0x01,0x40,0x00,0x1C,0x32,0x6B,
	0x00,0x2D,0x6B,0x12,0x2D,0x00,0x00,0x32,
	0x00,0x66,0x32,0x6B,0x00,0x2D,0x6B,0x12,
	0x2D,0x00,0x00,0x32,0x00,0x66,0x2D,0x5B,
	0x02,0x34,0x5B,0x03,0x39,0x5B,0x81,0x4E,
	0x34,0x00,0x00,0x2D,0x00,0x01,0x39,0x00,
	0x1C,0x2D,0x5B,0x02,0x34,0x5B,0x03,0x39,
	0x5B,0x81,0x4E,0x34,0x00,0x00,0x2D,0x00,
	0x01,0x39,0x00,0x1C,0x34,0x5B,0x02,0x39,
	0x5B,0x03,0x3C,0x5B,0x81,0x4E,0x39,0x00,
	0x00,0x34,0x00,0x01,0x3C,0x00,0x1C,0x32,
	0x5B,0x00,0x2D,0x5B,0x12,0x2D,0x00,0x00,
	0x32,0x00,0x2A,0x32,0x5B,0x00,0x2D,0x5B,
	0x12,0x2D,0x00,0x00,0x32,0x00,0x2A,0x32,
	0x5B,0x00,0x2D,0x5B,0x12,0x2D,0x00,0x00,
	0x32,0x00,0x2A,0x32,0x5B,0x00,0x2D,0x5B,
	0x12,0x2D,0x00,0x00,0x32,0x00,0x2A,0x32,
	0x5B,0x02,0x39,0x5B,0x81,0x51,0x39,0x00,
	0x00,0x32,0x00,0x1D,0x32,0x5B,0x02,0x39,
	0x5B,0x81,0x51,0x39,0x00,0x00,0x32,0x00,
	0x1D,0x39,0x5B,0x02,0x3E,0x5B,0x81,0x51,
	0x3E,0x00,0x00,0x39,0x00,0x1D,0x37,0x6B,
	0x00,0x32,0x6B,0x12,0x32,0x00,0x00,0x37,
	0x00,0x66,0x37,0x6B,0x00,0x32,0x6B,0x12,
	0x32,0x00,0x00,0x37,0x00,0x66,0x34,0x5B,
	0x02,0x3B,0x5B,0x81,0x51,0x3B,0x00,0x00,
	0x34,0x00,0x1D,0x34,0x5B,0x02,0x3B,0x5B,
	0x81,0x51,0x3B,0x00,0x00,0x34,0x00,0x1D,
	0x34,0x5B,0x02,0x3B,0x5B,0x03,0x40,0x5B,
	0x81,0x4E,0x3B,0x00,0x00,0x34,0x00,0x01,
	0x40,0x00,0x1C,0x32,0x5B,0x00,0x2D,0x5B,
	0x12,0x2D,0x00,0x00,0x32,0x00,0x2A,0x32,
	0x6B,0x00,0x2D,0x6B,0x12,0x2D,0x00,0x00,
	0x32,0x00,0x2A,0x32,0x6B,0x00,0x2D,0x6B,
	0x12,0x2D,0x00,0x00,0x32,0x00,0x66,0x29,
	0x5B,0x02,0x30,0x5B,0x03,0x35,0x5B,0x81,
	0x4E,0x30,0x00,0x00,0x29,0x00,0x01,0x35,
	0x00,0x1C,0x29,0x5B,0x02,0x30,0x5B,0x03,
	0x35,0x5B,0x81,0x4E,0x30,0x00,0x00,0x29,
	0x00,0x01,0x35,0x00,0x1C,0x39,0x5B,0x02,
	0x3C,0x5B,0x03,0x41,0x5B,0x81,0x4E,0x3C,
	0x00,0x00,0x39,0x00,0x01,0x41,0x00,0x1C,
	0x37,0x6B,0x00,0x32,0x6B,0x12,0x32,0x00,
	0x00,0x37,0x00,0x66,0x2B,0x5B,0x02,0x32,
	0x5B,0x03,0x37,0x5B,0x81,0x4E,0x32,0x00,
	0x00,0x2B,0x00,0x01,0x37,0x00,0x1C,0x2B,
	0x5B,0x02,0x35,0x5B,0x03,0x37,0x5B,0x81,
	0x4E,0x35,0x00,0x00,0x2B,0x00,0x01,0x37,
	0x00,0x1C,0x32,0x5B,0x00,0x2D,0x5B,0x12,
	0x2D,0x00,0x00,0x32,0x00,0x2A,0x32,0x6B,
	0x00,0x2D,0x6B,0x12,0x2D,0x00,0x00,0x32,
	0x00,0x2A,0x3B,0x5B,0x00,0x37,0x5B,0x00,
	0x30,0x5B,0x81,0x53,0x30,0x00,0x00,0x37,
	0x00,0x00,0x3B,0x00,0x1D,0x2D,0x6B,0x02,
	0x32,0x6B,0x10,0x2D,0x00,0x02,0x32,0x00,
	0x64,0x32,0x6B,0x02,0x2D,0x6B,0x10,0x32,
	0x00,0x02,0x2D,0x00,0x64,0x2D,0x5B,0x02,
	0x34,0x5B,0x03,0x39,0x5B,0x89,0x6E,0x34,
	0x00,0x00,0x2D,0x00,0x01,0x39,0x00,0x00,
	0xFF,0x2F,0x00,0x4D,0x54,0x72,0x6B,0x00,
	0x00,0x04,0x8E,0x00,0xFF,0x03,0x09,0x47,
	0x74,0x73,0x20,0x52,0x68,0x74,0x68,0x6D,
	0x00,0xC4,0x19,0x00,0xB4,0x07,0x53,0x00,
	0x0A,0x30,0x83,0x60,0x94,0x39,0x5F,0x02,
	0x3C,0x5F,0x03,0x41,0x5F,0x83,0x5B,0x41,
	0x00,0x00,0x3C,0x00,0x00,0x39,0x00,0x00,
	0x3C,0x5F,0x02,0x41,0x5F,0x03,0x45,0x5F,
	0x81,0x6B,0x45,0x00,0x00,0x41,0x00,0x00,
	0x3C,0x00,0x00,0x37,0x5F,0x02,0x3B,0x5F,
	0x03,0x3E,0x5F,0x03,0x43,0x5F,0x82,0x60,
	0x43,0x00,0x00,0x37,0x00,0x00,0x3B,0x00,
	0x00,0x3E,0x00,0x00,0x43,0x5F,0x02,0x3E,
	0x5F,0x03,0x3B,0x5F,0x81,0x6B,0x3B,0x00,
	0x00,0x3E,0x00,0x00,0x43,0x00,0x00,0x43,
	0x4F,0x02,0x3E,0x4F,0x76,0x3E,0x00,0x00,
	0x43,0x00,0x00,0x3B,0x5F,0x02,0x3E,0x5F,
	0x03,0x43,0x5F,0x81,0x6B,0x43,0x00,0x00,
	0x3E,0x00,0x00,0x3B,0x00,0x00,0x3E,0x5F,
	0x02,0x43,0x5F,0x76,0x43,0x00,0x00,0x3E,
	0x00,0x00,0x43,0x4F,0x02,0x3E,0x4F,0x76,
	0x3E,0x00,0x00,0x43,0x00,0x00,0x30,0x5F,
	0x02,0x37,0x5F,0x03,0x3C,0x5F,0x81,0x6B,
	0x3C,0x00,0x00,0x37,0x00,0x00,0x30,0x00,
	0x00,0x30,0x5F,0x02,0x37,0x5F,0x03,0x3C,
	0x5F,0x81,0x6B,0x3C,0x00,0x00,0x37,0x00,
	0x00,0x30,0x00,0x00,0x3C,0x5F,0x02,0x40,
	0x5F,0x03,0x43,0x5F,0x81,0x6B,0x43,0x00,
	0x00,0x40,0x00,0x00,0x3C,0x00,0x00,0x40,
	0x5F,0x02,0x43,0x5F,0x76,0x43,0x00,0x00,
	0x40,0x00,0x00,0x43,0x5F,0x02,0x40,0x5F,
	0x76,0x40,0x00,0x00,0x43,0x00,0x00,0x39,
	0x5F,0x02,0x3C,0x5F,0x03,0x40,0x5F,0x73,
	0x40,0x00,0x00,0x3C,0x00,0x00,0x39,0x00,
	0x00,0x45,0x5F,0x02,0x40,0x5F,0x03,0x3C,
	0x5F,0x81,0x6B,0x3C,0x00,0x00,0x40,0x00,
	0x00,0x45,0x00,0x00,0x45,0x4F,0x02,0x40,
	0x4F,0x76,0x40,0x00,0x00,0x45,0x00,0x00,
	0x3C,0x5F,0x02,0x40,0x5F,0x03,0x45,0x5F,
	0x81,0x6B,0x45,0x00,0x00,0x40,0x00,0x00,
	0x3C,0x00,0x00,0x40,0x4F,0x02,0x45,0x4F,
	0x76,0x45,0x00,0x00,0x40,0x00,0x00,0x45,
	0x4F,0x02,0x40,0x4F,0x76,0x40,0x00,0x00,
	0x45,0x00,0x00,0x39,0x5F,0x02,0x3E,0x5F,
	0x03,0x41,0x5F,0x03,0x45,0x5F,0x83,0x58,
	0x45,0x00,0x00,0x39,0x00,0x00,0x3E,0x00,
	0x00,0x41,0x00,0x00,0x3E,0x5F,0x02,0x41,
	0x5F,0x03,0x45,0x5F,0x81,0x6B,0x45,0x00,
	0x00,0x41,0x00,0x00,0x3E,0x00,0x00,0x41,
	0x4F,0x02,0x45,0x4F,0x76,0x45,0x00,0x00,
	0x41,0x00,0x00,0x45,0x4F,0x02,0x41,0x4F,
	0x76,0x41,0x00,0x00,0x45,0x00,0x83,0x60,
	0x40,0x4F,0x02,0x43,0x4F,0x76,0x43,0x00,
	0x00,0x40,0x00,0x00,0x40,0x5F,0x02,0x43,
	0x5F,0x03,0x47,0x5F,0x81,0x6B,0x47,0x00,
	0x00,0x43,0x00,0x00,0x40,0x00,0x00,0x47,
	0x4F,0x02,0x43,0x4F,0x76,0x43,0x00,0x00,
	0x47,0x00,0x00,0x39,0x5F,0x02,0x3C,0x5F,
	0x03,0x41,0x5F,0x83,0x5B,0x41,0x00,0x00,
	0x3C,0x00,0x00,0x39,0x00,0x00,0x3C,0x5F,
	0x02,0x41,0x5F,0x03,0x45,0x5F,0x81,0x6B,
	0x45,0x00,0x00,0x41,0x00,0x00,0x3C,0x00,
	0x00,0x37,0x5F,0x02,0x3B,0x5F,0x03,0x3E,
	0x5F,0x03,0x43,0x5F,0x82,0x60,0x43,0x00,
	0x00,0x37,0x00,0x00,0x3B,0x00,0x00,0x3E,
	0x00,0x00,0x43,0x5F,0x02,0x3E,0x5F,0x03,
	0x3B,0x5F,0x81,0x6B,0x3B,0x00,0x00,0x3E,
	0x00,0x00,0x43,0x00,0x00,0x43,0x4F,0x02,
	0x3E,0x4F,0x76,0x3E,0x00,0x00,0x43,0x00,
	0x00,0x3B,0x5F,0x02,0x3E,0x5F,0x03,0x43,
	0x5F,0x81,0x6B,0x43,0x00,0x00,0x3E,0x00,
	0x00,0x3B,0x00,0x00,0x3E,0x5F,0x02,0x43,
	0x5F,0x76,0x43,0x00,0x00,0x3E,0x00,0x00,
	0x43,0x4F,0x02,0x3E,0x4F,0x76,0x3E,0x00,
	0x00,0x43,0x00,0x00,0x39,0x5F,0x02,0x3C,
	0x5F,0x03,0x41,0x5F,0x83,0x5B,0x41,0x00,
	0x00,0x3C,0x00,0x00,0x39,0x00,0x00,0x3C,
	0x5F,0x02,0x41,0x5F,0x03,0x45,0x5F,0x81,
	0x6B,0x45,0x00,0x00,0x41,0x00,0x00,0x3C,
	0x00,0x00,0x37,0x5F,0x02,0x3B,0x5F,0x03,
	0x3E,0x5F,0x03,0x43,0x5F,0x82,0x60,0x43,
	0x00,0x00,0x37,0x00,0x00,0x3B,0x00,0x00,
	0x3E,0x00,0x00,0x43,0x5F,0x02,0x3E,0x5F,
	0x03,0x3B,0x5F,0x81,0x6B,0x3B,0x00,0x00,
	0x3E,0x00,0x00,0x43,0x00,0x00,0x43,0x4F,
	0x02,0x3E,0x4F,0x76,0x3E,0x00,0x00,0x43,
	0x00,0x00,0x3B,0x5F,0x02,0x3E,0x5F,0x03,
	0x43,0x5F,0x81,0x6B,0x43,0x00,0x00,0x3E,
	0x00,0x00,0x3B,0x00,0x00,0x3E,0x5F,0x02,
	0x43,0x5F,0x76,0x43,0x00,0x00,0x3E,0x00,
	0x00,0x43,0x4F,0x02,0x3E,0x4F,0x76,0x3E,
	0x00,0x00,0x43,0x00,0x00,0x30,0x5F,0x02,
	0x37,0x5F,0x03,0x3C,0x5F,0x81,0x6B,0x3C,
	0x00,0x00,0x37,0x00,0x00,0x30,0x00,0x00,
	0x30,0x5F,0x02,0x37,0x5F,0x03,0x3C,0x5F,
	0x81,0x6B,0x3C,0x00,0x00,0x37,0x00,0x00,
	0x30,0x00,0x00,0x3C,0x5F,0x02,0x40,0x5F,
	0x03,0x43,0x5F,0x81,0x6B,0x43,0x00,0x00,
	0x40,0x00,0x00,0x3C,0x00,0x00,0x40,0x5F,
	0x02,0x43,0x5F,0x76,0x43,0x00,0x00,0x40,
	0x00,0x00,0x43,0x5F,0x02,0x40,0x5F,0x76,
	0x40,0x00,0x00,0x43,0x00,0x00,0x39,0x5F,
	0x02,0x3C,0x5F,0x03,0x40,0x5F,0x73,0x40,
	0x00,0x00,0x3C,0x00,0x00,0x39,0x00,0x00,
	0x45,0x5F,0x02,0x40,0x5F,0x03,0x3C,0x5F,
	0x81,0x6B,0x3C,0x00,0x00,0x40,0x00,0x00,
	0x45,0x00,0x00,0x45,0x4F,0x02,0x40,0x4F,
	0x76,0x40,0x00,0x00,0x45,0x00,0x00,0x3C,
	0x5F,0x02,0x40,0x5F,0x03,0x45,0x5F,0x81,
	0x6B,0x45,0x00,0x00,0x40,0x00,0x00,0x3C,
	0x00,0x00,0x40,0x4F,0x02,0x45,0x4F,0x76,
	0x45,0x00,0x00,0x40,0x00,0x00,0x45,0x4F,
	0x02,0x40,0x4F,0x76,0x40,0x00,0x00,0x45,
	0x00,0x00,0x39,0x5F,0x02,0x3E,0x5F,0x03,
	0x41,0x5F,0x03,0x45,0x5F,0x83,0x58,0x45,
	0x00,0x00,0x39,0x00,0x00,0x3E,0x00,0x00,
	0x41,0x00,0x00,0x3E,0x5F,0x02,0x41,0x5F,
	0x03,0x45,0x5F,0x81,0x6B,0x45,0x00,0x00,
	0x41,0x00,0x00,0x3E,0x00,0x00,0x41,0x4F,
	0x02,0x45,0x4F,0x76,0x45,0x00,0x00,0x41,
	0x00,0x00,0x45,0x4F,0x02,0x41,0x4F,0x76,
	0x41,0x00,0x00,0x45,0x00,0x83,0x60,0x40,
	0x4F,0x02,0x43,0x4F,0x76,0x43,0x00,0x00,
	0x40,0x00,0x00,0x40,0x5F,0x02,0x43,0x5F,
	0x03,0x47,0x5F,0x81,0x6B,0x47,0x00,0x00,
	0x43,0x00,0x00,0x40,0x00,0x00,0x47,0x4F,
	0x02,0x43,0x4F,0x76,0x43,0x00,0x00,0x47,
	0x00,0x00,0x39,0x5F,0x02,0x3C,0x5F,0x03,
	0x41,0x5F,0x03,0x45,0x5F,0x83,0x58,0x45,
	0x00,0x00,0x39,0x00,0x00,0x3C,0x00,0x00,
	0x41,0x00,0x00,0x37,0x4F,0x02,0x3B,0x4F,
	0x81,0x6E,0x3B,0x00,0x00,0x37,0x00,0x00,
	0x37,0x5F,0x02,0x3B,0x5F,0x81,0x6E,0x3B,
	0x00,0x00,0x37,0x00,0x00,0x3E,0x5F,0x02,
	0x43,0x5F,0x03,0x47,0x5F,0x82,0x63,0x47,
	0x00,0x00,0x43,0x00,0x00,0x3E,0x00,0x00,
	0x43,0x4F,0x02,0x47,0x4F,0x76,0x47,0x00,
	0x00,0x43,0x00,0x00,0x3B,0x4F,0x02,0x3E,
	0x4F,0x76,0x3E,0x00,0x00,0x3B,0x00,0x00,
	0x47,0x5F,0x02,0x43,0x5F,0x03,0x3E,0x4F,
	0x81,0x6B,0x3E,0x00,0x00,0x43,0x00,0x00,
	0x47,0x00,0x00,0x47,0x4F,0x02,0x43,0x4F,
	0x76,0x43,0x00,0x00,0x47,0x00,0x00,0x40,
	0x5F,0x00,0x3C,0x5F,0x00,0x39,0x5F,0x00,
	0x34,0x5F,0x00,0x2D,0x5F,0x8F,0x00,0x2D,
	0x00,0x00,0x39,0x00,0x00,0x40,0x00,0x00,
	0x3C,0x00,0x00,0x34,0x00,0x00,0xFF,0x2F,
	0x00,0x4D,0x54,0x72,0x6B,0x00,0x00,0x02,
	0x55,0x00,0xFF,0x03,0x04,0x47,0x74,0x73,
	0x31,0x00,0xC5,0x19,0x00,0xB5,0x07,0x5A,
	0x00,0x0A,0x48,0x83,0x60,0x95,0x35,0x5F,
	0x81,0x70,0x35,0x00,0x00,0x39,0x5F,0x81,
	0x70,0x39,0x00,0x00,0x3C,0x5F,0x81,0x70,
	0x3C,0x00,0x00,0x41,0x5F,0x81,0x70,0x41,
	0x00,0x00,0x2B,0x5F,0x81,0x70,0x2B,0x00,
	0x00,0x37,0x5F,0x81,0x70,0x37,0x00,0x00,
	0x43,0x5F,0x81,0x70,0x43,0x00,0x00,0x3B,
	0x5F,0x78,0x3B,0x00,0x00,0x37,0x5F,0x78,
	0x37,0x00,0x00,0x3C,0x5F,0x00,0x30,0x5F,
	0x81,0x70,0x30,0x00,0x00,0x3C,0x00,0x00,
	0x37,0x5F,0x78,0x37,0x00,0x00,0x3C,0x5F,
	0x78,0x3C,0x00,0x00,0x40,0x5F,0x00,0x28,
	0x5F,0x81,0x70,0x28,0x00,0x00,0x40,0x00,
	0x00,0x37,0x5F,0x78,0x37,0x00,0x00,0x3B,
	0x5F,0x78,0x3B,0x00,0x00,0x2D,0x5F,0x81,
	0x70,0x2D,0x00,0x00,0x39,0x5F,0x81,0x70,
	0x39,0x00,0x00,0x40,0x5F,0x81,0x70,0x40,
	0x00,0x00,0x3C,0x5F,0x78,0x3C,0x00,0x00,
	0x39,0x5F,0x78,0x39,0x00,0x00,0x32,0x5F,
	0x81,0x70,0x32,0x00,0x00,0x39,0x5F,0x81,
	0x70,0x39,0x00,0x00,0x41,0x5F,0x81,0x70,
	0x41,0x00,0x00,0x3E,0x5F,0x78,0x3E,0x00,
	0x00,0x39,0x5F,0x78,0x39,0x00,0x00,0x34,
	0x5F,0x81,0x70,0x34,0x00,0x00,0x37,0x5F,
	0x81,0x70,0x37,0x00,0x00,0x40,0x5F,0x81,
	0x70,0x40,0x00,0x00,0x3B,0x5F,0x81,0x70,
	0x3B,0x00,0x00,0x35,0x5F,0x81,0x70,0x35,
	0x00,0x00,0x39,0x5F,0x78,0x39,0x00,0x00,
	0x3C,0x5F,0x78,0x3C,0x00,0x00,0x43,0x5F,
	0x00,0x2B,0x5F,0x81,0x70,0x2B,0x00,0x00,
	0x43,0x00,0x00,0x37,0x5F,0x78,0x37,0x00,
	0x00,0x3B,0x5F,0x78,0x3B,0x00,0x00,0x32,
	0x5F,0x81,0x70,0x32,0x00,0x00,0x37,0x5F,
	0x81,0x70,0x37,0x00,0x00,0x3B,0x5F,0x81,
	0x70,0x3B,0x00,0x00,0x43,0x5F,0x81,0x70,
	0x43,0x00,0x00,0x35,0x5F,0x81,0x70,0x35,
	0x00,0x00,0x39,0x5F,0x81,0x70,0x39,0x00,
	0x00,0x3C,0x5F,0x81,0x70,0x3C,0x00,0x00,
	0x41,0x5F,0x81,0x70,0x41,0x00,0x00,0x2B,
	0x5F,0x81,0x70,0x2B,0x00,0x00,0x37,0x5F,
	0x81,0x70,0x37,0x00,0x00,0x43,0x5F,0x81,
	0x70,0x43,0x00,0x00,0x3B,0x5F,0x78,0x3B,
	0x00,0x00,0x37,0x5F,0x78,0x37,0x00,0x00,
	0x3C,0x5F,0x00,0x30,0x5F,0x81,0x70,0x30,
	0x00,0x00,0x3C,0x00,0x00,0x37,0x5F,0x78,
	0x37,0x00,0x00,0x3C,0x5F,0x78,0x3C,0x00,
	0x00,0x40,0x5F,0x00,0x28,0x5F,0x81,0x70,
	0x28,0x00,0x00,0x40,0x00,0x00,0x37,0x5F,
	0x78,0x37,0x00,0x00,0x3B,0x5F,0x78,0x3B,
	0x00,0x00,0x2D,0x5F,0x81,0x70,0x2D,0x00,
	0x00,0x39,0x5F,0x81,0x70,0x39,0x00,0x00,
	0x40,0x5F,0x81,0x70,0x40,0x00,0x00,0x3C,
	0x5F,0x78,0x3C,0x00,0x00,0x39,0x5F,0x78,
	0x39,0x00,0x00,0x32,0x5F,0x81,0x70,0x32,
	0x00,0x00,0x39,0x5F,0x81,0x70,0x39,0x00,
	0x00,0x41,0x5F,0x81,0x70,0x41,0x00,0x00,
	0x3E,0x5F,0x78,0x3E,0x00,0x00,0x39,0x5F,
	0x78,0x39,0x00,0x00,0x34,0x5F,0x81,0x70,
	0x34,0x00,0x00,0x37,0x5F,0x81,0x70,0x37,
	0x00,0x00,0x40,0x5F,0x81,0x70,0x40,0x00,
	0x00,0x3B,0x5F,0x81,0x70,0x3B,0x00,0x00,
	0x35,0x5F,0x81,0x70,0x35,0x00,0x00,0x39,
	0x5F,0x78,0x39,0x00,0x00,0x3C,0x5F,0x78,
	0x3C,0x00,0x00,0x43,0x5F,0x00,0x2B,0x5F,
	0x81,0x70,0x2B,0x00,0x00,0x43,0x00,0x00,
	0x37,0x5F,0x78,0x37,0x00,0x00,0x3B,0x5F,
	0x78,0x3B,0x00,0x00,0x32,0x5F,0x81,0x70,
	0x32,0x00,0x00,0x37,0x5F,0x81,0x70,0x37,
	0x00,0x00,0x3B,0x5F,0x81,0x70,0x3B,0x00,
	0x00,0x43,0x5F,0x81,0x70,0x43,0x00,0x00,
	0x40,0x5F,0x00,0x3C,0x5F,0x00,0x39,0x5F,
	0x8F,0x00,0x39,0x00,0x00,0x3C,0x00,0x00,
	0x40,0x00,0x00,0xFF,0x2F,0x00,0x4D,0x54,
	0x72,0x6B,0x00,0x00,0x01,0x1D,0x00,0xFF,
	0x03,0x04,0x42,0x41,0x53,0x53,0x00,0xC6,
	0x21,0x00,0xB6,0x07,0x5F,0x00,0x0A,0x40,
	0x83,0x60,0x96,0x29,0x5F,0x82,0x52,0x29,
	0x00,0x81,0x0E,0x29,0x5F,0x81,0x7E,0x29,
	0x00,0x6A,0x2B,0x5F,0x81,0x29,0x2B,0x00,
	0x47,0x26,0x5F,0x55,0x26,0x00,0x23,0x2B,
	0x5F,0x83,0x7B,0x2B,0x00,0x81,0x55,0x24,
	0x5F,0x82,0x52,0x24,0x00,0x81,0x0E,0x23,
	0x5F,0x82,0x52,0x23,0x00,0x81,0x0E,0x21,
	0x5F,0x55,0x21,0x00,0x81,0x1B,0x21,0x5F,
	0x83,0x7B,0x21,0x00,0x81,0x55,0x26,0x5F,
	0x85,0x24,0x26,0x00,0x82,0x1C,0x28,0x5F,
	0x55,0x28,0x00,0x81,0x1B,0x28,0x5F,0x83,
	0x7B,0x28,0x00,0x81,0x55,0x29,0x5F,0x82,
	0x52,0x29,0x00,0x81,0x0E,0x29,0x5F,0x81,
	0x7E,0x29,0x00,0x6A,0x2B,0x5F,0x81,0x29,
	0x2B,0x00,0x47,0x26,0x5F,0x55,0x26,0x00,
	0x23,0x2B,0x5F,0x83,0x7B,0x2B,0x00,0x81,
	0x55,0x29,0x5F,0x82,0x52,0x29,0x00,0x81,
	0x0E,0x29,0x5F,0x81,0x7E,0x29,0x00,0x6A,
	0x2B,0x5F,0x81,0x29,0x2B,0x00,0x47,0x26,
	0x5F,0x55,0x26,0x00,0x23,0x2B,0x5F,0x83,
	0x7B,0x2B,0x00,0x81,0x55,0x24,0x5F,0x82,
	0x52,0x24,0x00,0x81,0x0E,0x23,0x5F,0x82,
	0x52,0x23,0x00,0x81,0x0E,0x21,0x5F,0x55,
	0x21,0x00,0x81,0x1B,0x21,0x5F,0x83,0x7B,
	0x21,0x00,0x81,0x55,0x26,0x5F,0x85,0x24,
	0x26,0x00,0x82,0x1C,0x28,0x5F,0x55,0x28,
	0x00,0x81,0x1B,0x28,0x5F,0x83,0x7B,0x28,
	0x00,0x81,0x55,0x29,0x5F,0x82,0x52,0x29,
	0x00,0x81,0x0E,0x2B,0x5F,0x81,0x29,0x2B,
	0x00,0x47,0x2B,0x5F,0x82,0x52,0x2B,0x00,
	0x81,0x0E,0x26,0x5F,0x81,0x29,0x26,0x00,
	0x47,0x2B,0x5F,0x82,0x52,0x2B,0x00,0x81,
	0x0E,0x21,0x5F,0x8A,0x48,0x21,0x00,0x00,
	0xFF,0x2F,0x00,0x4D,0x54,0x72,0x6B,0x00,
	0x00,0x01,0x6E,0x00,0xFF,0x03,0x05,0x44,
	0x72,0x75,0x6D,0x73,0x00,0xC9,0x00,0x00,
	0xB9,0x07,0x6A,0x00,0x0A,0x40,0x00,0x99,
	0x26,0x64,0x78,0x2F,0x6E,0x6C,0x26,0x00,
	0x0C,0x2F,0x00,0x00,0x2D,0x6E,0x81,0x70,
	0x2D,0x00,0x00,0x23,0x64,0x82,0x20,0x23,
	0x00,0x81,0x40,0x26,0x6E,0x82,0x20,0x26,
	0x00,0x81,0x40,0x23,0x64,0x82,0x20,0x23,
	0x00,0x81,0x40,0x26,0x6E,0x82,0x20,0x26,
	0x00,0x81,0x40,0x23,0x64,0x82,0x20,0x23,
	0x00,0x81,0x40,0x26,0x6E,0x82,0x20,0x26,
	0x00,0x81,0x40,0x23,0x64,0x81,0x10,0x23,
	0x00,0x60,0x23,0x64,0x81,0x10,0x23,0x00,
	0x60,0x26,0x6E,0x82,0x20,0x26,0x00,0x81,
	0x40,0x23,0x64,0x82,0x20,0x23,0x00,0x81,
	0x40,0x26,0x6E,0x82,0x20,0x26,0x00,0x81,
	0x40,0x23,0x64,0x82,0x20,0x23,0x00,0x81,
	0x40,0x26,0x6E,0x82,0x20,0x26,0x00,0x81,
	0x40,0x23,0x64,0x82,0x20,0x23,0x00,0x81,
	0x40,0x26,0x6E,0x82,0x20,0x26,0x00,0x81,
	0x40,0x23,0x64,0x81,0x10,0x23,0x00,0x60,
	0x26,0x6E,0x81,0x10,0x26,0x00,0x60,0x26,
	0x6E,0x48,0x26,0x00,0x30,0x26,0x6E,0x48,
	0x26,0x00,0x30,0x2F,0x6E,0x78,0x2F,0x00,
	0x00,0x2D,0x6E,0x78,0x2D,0x00,0x00,0x23,
	0x64,0x82,0x20,0x23,0x00,0x81,0x40,0x26,
	0x6E,0x82,0x20,0x26,0x00,0x81,0x40,0x23,
	0x64,0x82,0x20,0x23,0x00,0x81,0x40,0x26,
	0x6E,0x82,0x20,0x26,0x00,0x81,0x40,0x23,
	0x64,0x82,0x20,0x23,0x00,0x81,0x40,0x26,
	0x6E,0x82,0x20,0x26,0x00,0x81,0x40,0x23,
	0x64,0x81,0x10,0x23,0x00,0x60,0x23,0x64,
	0x81,0x10,0x23,0x00,0x60,0x26,0x6E,0x82,
	0x20,0x26,0x00,0x81,0x40,0x23,0x64,0x82,
	0x20,0x23,0x00,0x81,0x40,0x26,0x6E,0x82,
	0x20,0x26,0x00,0x81,0x40,0x23,0x64,0x82,
	0x20,0x23,0x00,0x81,0x40,0x26,0x6E,0x82,
	0x20,0x26,0x00,0x81,0x40,0x23,0x64,0x82,
	0x20,0x23,0x00,0x81,0x40,0x26,0x6E,0x82,
	0x20,0x26,0x00,0x81,0x40,0x23,0x64,0x81,
	0x10,0x23,0x00,0x60,0x23,0x64,0x81,0x10,
	0x23,0x00,0x60,0x26,0x6E,0x82,0x20,0x26,
	0x00,0x81,0x40,0x23,0x64,0x82,0x20,0x23,
	0x00,0x81,0x40,0x26,0x6E,0x81,0x10,0x26,
	0x00,0x60,0x26,0x6E,0x48,0x26,0x00,0x30,
	0x26,0x6E,0x48,0x26,0x00,0x00,0xFF,0x2F,
	0x00,0x4D,0x54,0x72,0x6B,0x00,0x00,0x02,
	0x21,0x00,0xFF,0x03,0x05,0x44,0x72,0x75,
	0x6D,0x73,0x00,0xC9,0x00,0x00,0xB9,0x07,
	0x6A,0x00,0x0A,0x40,0x83,0x60,0x99,0x31,
	0x69,0x81,0x70,0x31,0x00,0x00,0x2A,0x69,
	0x81,0x70,0x2A,0x00,0x00,0x2A,0x69,0x81,
	0x70,0x2A,0x00,0x00,0x2A,0x69,0x78,0x2A,
	0x00,0x00,0x2A,0x69,0x78,0x2A,0x00,0x00,
	0x2A,0x69,0x81,0x70,0x2A,0x00,0x00,0x2A,
	0x69,0x81,0x70,0x2A,0x00,0x00,0x2A,0x69,
	0x81,0x70,0x2A,0x00,0x00,0x2A,0x69,0x81,
	0x70,0x2A,0x00,0x00,0x2A,0x69,0x81,0x70,
	0x2A,0x00,0x00,0x2A,0x69,0x81,0x70,0x2A,
	0x00,0x00,0x2A,0x69,0x81,0x70,0x2A,0x00,
	0x00,0x2A,0x69,0x81,0x70,0x2A,0x00,0x00,
	0x2A,0x69,0x81,0x70,0x2A,0x00,0x00,0x2A,
	0x69,0x81,0x70,0x2A,0x00,0x00,0x2A,0x69,
	0x78,0x2A,0x00,0x00,0x2A,0x69,0x78,0x2A,
	0x00,0x00,0x2E,0x69,0x81,0x70,0x2E,0x00,
	0x00,0x2A,0x69,0x81,0x70,0x2A,0x00,0x00,
	0x2A,0x69,0x81,0x70,0x2A,0x00,0x00,0x2A,
	0x69,0x81,0x70,0x2A,0x00,0x00,0x2A,0x69,
	0x78,0x2A,0x00,0x00,0x2A,0x69,0x78,0x2A,
	0x00,0x00,0x2A,0x69,0x81,0x70,0x2A,0x00,
	0x00,0x2A,0x69,0x81,0x70,0x2A,0x00,0x00,
	0x2A,0x69,0x81,0x70,0x2A,0x00,0x00,0x2A,
	0x69,0x81,0x70,0x2A,0x00,0x00,0x2A,0x69,
	0x81,0x70,0x2A,0x00,0x00,0x2A,0x69,0x81,
	0x70,0x2A,0x00,0x00,0x2A,0x69,0x81,0x70,
	0x2A,0x00,0x00,0x2A,0x69,0x78,0x2A,0x00,
	0x00,0x2A,0x69,0x78,0x2A,0x00,0x00,0x2A,
	0x69,0x81,0x70,0x2A,0x00,0x00,0x2A,0x69,
	0x81,0x70,0x2A,0x00,0x83,0x60,0x31,0x69,
	0x81,0x70,0x31,0x00,0x00,0x2A,0x69,0x81,
	0x70,0x2A,0x00,0x00,0x2A,0x69,0x81,0x70,
	0x2A,0x00,0x00,0x2A,0x69,0x78,0x2A,0x00,
	0x00,0x2A,0x69,0x78,0x2A,0x00,0x00,0x2A,
	0x69,0x81,0x70,0x2A,0x00,0x00,0x2A,0x69,
	0x81,0x70,0x2A,0x00,0x00,0x2A,0x69,0x81,
	0x70,0x2A,0x00,0x00,0x2A,0x69,0x81,0x70,
	0x2A,0x00,0x00,0x2A,0x69,0x81,0x70,0x2A,
	0x00,0x00,0x2A,0x69,0x81,0x70,0x2A,0x00,
	0x00,0x2A,0x69,0x81,0x70,0x2A,0x00,0x00,
	0x2A,0x69,0x78,0x2A,0x00,0x00,0x2A,0x69,
	0x78,0x2A,0x00,0x00,0x2A,0x69,0x81,0x70,
	0x2A,0x00,0x00,0x2A,0x69,0x81,0x70,0x2A,
	0x00,0x00,0x2A,0x69,0x78,0x2A,0x00,0x00,
	0x2A,0x69,0x78,0x2A,0x00,0x00,0x2E,0x69,
	0x81,0x70,0x2E,0x00,0x00,0x2A,0x69,0x81,
	0x70,0x2A,0x00,0x00,0x2A,0x69,0x81,0x70,
	0x2A,0x00,0x00,0x2A,0x69,0x81,0x70,0x2A,
	0x00,0x00,0x2A,0x69,0x78,0x2A,0x00,0x00,
	0x2A,0x69,0x78,0x2A,0x00,0x00,0x2A,0x69,
	0x81,0x70,0x2A,0x00,0x00,0x2E,0x69,0x81,
	0x70,0x2E,0x00,0x00,0x2A,0x69,0x81,0x70,
	0x2A,0x00,0x00,0x2A,0x69,0x78,0x2A,0x00,
	0x00,0x2A,0x69,0x78,0x2A,0x00,0x00,0x31,
	0x69,0x81,0x70,0x31,0x00,0x00,0x2A,0x69,
	0x81,0x70,0x2A,0x00,0x00,0x2A,0x69,0x81,
	0x70,0x2A,0x00,0x00,0x2A,0x69,0x81,0x70,
	0x2A,0x00,0x00,0x2A,0x69,0x81,0x70,0x2A,
	0x00,0x00,0x2A,0x69,0x81,0x70,0x2A,0x00,
	0x00,0x2A,0x69,0x81,0x70,0x2A,0x00,0x00,
	0x2A,0x69,0x78,0x2A,0x00,0x00,0x2A,0x69,
	0x78,0x2A,0x00,0x00,0x2A,0x69,0x81,0x70,
	0x2A,0x00,0x00,0x2A,0x69,0x81,0x70,0x2A,
	0x00,0x00,0x2A,0x69,0x81,0x70,0x2A,0x00,
	0x00,0x2A,0x69,0x81,0x70,0x2A,0x00,0x00,
	0x31,0x69,0x87,0x40,0x31,0x00,0x00,0xFF,
	0x2F,0x00,0x4D,0x54,0x72,0x6B,0x00,0x00,
	0x00,0x90,0x00,0xFF,0x03,0x05,0x44,0x72,
	0x75,0x6D,0x73,0x00,0xC9,0x00,0x00,0xB9,
	0x07,0x6A,0x00,0x0A,0x40,0x87,0x40,0x99,
	0x36,0x69,0x82,0x20,0x36,0x00,0x85,0x20,
	0x36,0x69,0x82,0x20,0x36,0x00,0x85,0x20,
	0x36,0x69,0x82,0x20,0x36,0x00,0x85,0x20,
	0x36,0x69,0x82,0x20,0x36,0x00,0x85,0x20,
	0x36,0x69,0x82,0x20,0x36,0x00,0x85,0x20,
	0x36,0x69,0x82,0x20,0x36,0x00,0x85,0x20,
	0x36,0x69,0x82,0x20,0x36,0x00,0x8C,0x60,
	0x36,0x69,0x82,0x20,0x36,0x00,0x85,0x20,
	0x36,0x69,0x82,0x20,0x36,0x00,0x85,0x20,
	0x36,0x69,0x82,0x20,0x36,0x00,0x85,0x20,
	0x36,0x69,0x82,0x20,0x36,0x00,0x85,0x20,
	0x36,0x69,0x82,0x20,0x36,0x00,0x85,0x20,
	0x36,0x69,0x82,0x20,0x36,0x00,0x85,0x20,
	0x36,0x69,0x82,0x20,0x36,0x00,0x85,0x20,
	0x36,0x69,0x82,0x20,0x36,0x00,0x00,0xFF,
	0x2F,0x00,0x4D,0x54,0x72,0x6B,0x00,0x00,
	0x00,0x99,0x00,0xFF,0x03,0x08,0xC7,0xC3,
	0xBB,0xF7,0xC0,0xD6,0xC6,0xF7,0x00,0xC9,
	0x00,0x00,0xB9,0x07,0x6A,0x00,0x0A,0x40,
	0x9A,0x20,0x99,0x4B,0x50,0x78,0x4B,0x00,
	0x00,0x4D,0x50,0x78,0x4D,0x00,0x00,0x4C,
	0x50,0x81,0x70,0x4C,0x00,0x00,0x4D,0x50,
	0x83,0x60,0x4D,0x00,0x87,0x40,0x4C,0x50,
	0x81,0x70,0x4C,0x00,0x00,0x4D,0x50,0x85,
	0x50,0x4D,0x00,0x00,0x4D,0x50,0x83,0x60,
	0x4D,0x00,0x81,0x70,0x4D,0x50,0x78,0x4D,
	0x00,0x00,0x4C,0x50,0x82,0x68,0x4C,0x00,
	0x9C,0x10,0x4B,0x50,0x78,0x4B,0x00,0x00,
	0x4D,0x50,0x78,0x4D,0x00,0x00,0x4C,0x50,
	0x81,0x70,0x4C,0x00,0x00,0x4D,0x50,0x83,
	0x60,0x4D,0x00,0x87,0x40,0x4C,0x50,0x81,
	0x70,0x4C,0x00,0x00,0x4D,0x50,0x85,0x50,
	0x4D,0x00,0x00,0x4D,0x50,0x83,0x60,0x4D,
	0x00,0x81,0x70,0x4D,0x50,0x78,0x4D,0x00,
	0x00,0x4C,0x50,0x82,0x68,0x4C,0x00,0x00,
	0xFF,0x2F,0x00,0x00,
};

__align(4) static const unsigned char classical19_mid[] = {
	0x4D,0x54,0x68,0x64,0x00,0x00,0x00,0x06,
	0x00,0x01,0x00,0x0B,0x00,0x30,0x4D,0x54,
	0x72,0x6B,0x00,0x00,0x00,0x2D,0x00,0xFF,
	0x03,0x0B,0x6D,0x6D,0x73,0x2E,0x74,0x6F,
	0x6D,0x2E,0x63,0x6F,0x6D,0x00,0xFF,0x01,
	0x01,0x0A,0x00,0xFF,0x58,0x04,0x04,0x02,
	0x18,0x08,0x00,0xFF,0x59,0x02,0x02,0x00,
	0x00,0xFF,0x51,0x03,0x07,0x44,0x1E,0x00,
	0xFF,0x2F,0x00,0x4D,0x54,0x72,0x6B,0x00,
	0x00,0x04,0xE0,0x00,0xC0,0x69,0x00,0xB0,
	0x07,0x7F,0x18,0x90,0x49,0x7F,0x06,0x49,
	0x00,0x00,0x49,0x7F,0x06,0x49,0x00,0x00,
	0x49,0x7F,0x06,0x49,0x00,0x00,0x49,0x7F,
	0x06,0x49,0x00,0x00,0x49,0x7F,0x18,0x49,
	0x00,0x00,0x4C,0x7F,0x18,0x4C,0x00,0x00,
	0x4A,0x7F,0x18,0x4A,0x00,0x00,0x49,0x7F,
	0x00,0xE0,0x00,0x00,0x01,0x00,0x09,0x01,
	0x00,0x14,0x01,0x00,0x1F,0x02,0x00,0x2A,
	0x01,0x00,0x35,0x01,0x00,0x40,0x11,0x90,
	0x49,0x00,0x00,0x47,0x7F,0x18,0x47,0x00,
	0x00,0x45,0x7F,0x18,0x45,0x00,0x00,0x43,
	0x7F,0x18,0x43,0x00,0x00,0x47,0x7F,0x18,
	0x47,0x00,0x00,0x45,0x7F,0x18,0x45,0x00,
	0x00,0x43,0x7F,0x0C,0x43,0x00,0x00,0x42,
	0x7F,0x0C,0x42,0x00,0x00,0x40,0x7F,0x06,
	0x40,0x00,0x00,0x40,0x7F,0x06,0x40,0x00,
	0x00,0x40,0x7F,0x06,0x40,0x00,0x00,0x40,
	0x7F,0x06,0x40,0x00,0x00,0x40,0x7F,0x06,
	0x40,0x00,0x00,0x40,0x7F,0x06,0x40,0x00,
	0x00,0x40,0x7F,0x06,0x40,0x00,0x00,0x40,
	0x7F,0x06,0x40,0x00,0x00,0x40,0x7F,0x06,
	0x40,0x00,0x00,0x40,0x7F,0x06,0x40,0x00,
	0x00,0x40,0x7F,0x06,0x40,0x00,0x00,0x40,
	0x7F,0x06,0x40,0x00,0x30,0x49,0x7F,0x06,
	0x49,0x00,0x00,0x49,0x7F,0x06,0x49,0x00,
	0x00,0x49,0x7F,0x06,0x49,0x00,0x00,0x49,
	0x7F,0x06,0x49,0x00,0x00,0x49,0x7F,0x18,
	0x49,0x00,0x00,0x4C,0x7F,0x18,0x4C,0x00,
	0x00,0x4A,0x7F,0x18,0x4A,0x00,0x00,0x49,
	0x7F,0x00,0xE0,0x00,0x00,0x01,0x00,0x09,
	0x01,0x00,0x14,0x01,0x00,0x1F,0x02,0x00,
	0x2A,0x01,0x00,0x35,0x01,0x00,0x40,0x11,
	0x90,0x49,0x00,0x00,0x47,0x7F,0x18,0x47,
	0x00,0x00,0x45,0x7F,0x18,0x45,0x00,0x00,
	0x4A,0x7F,0x06,0x4A,0x00,0x00,0x4A,0x7F,
	0x06,0x4A,0x00,0x00,0x4A,0x7F,0x06,0x4A,
	0x00,0x00,0x4A,0x7F,0x06,0x4A,0x00,0x00,
	0x4A,0x7F,0x06,0x4A,0x00,0x00,0x4A,0x7F,
	0x06,0x4A,0x00,0x00,0x4A,0x7F,0x06,0x4A,
	0x00,0x00,0x4A,0x7F,0x06,0x4A,0x00,0x00,
	0x4A,0x7F,0x06,0x4A,0x00,0x00,0x4A,0x7F,
	0x06,0x4A,0x00,0x00,0x4A,0x7F,0x06,0x4A,
	0x00,0x00,0x4A,0x7F,0x06,0x4A,0x00,0x00,
	0x4A,0x7F,0x06,0x4A,0x00,0x00,0x4A,0x7F,
	0x06,0x4A,0x00,0x00,0x4A,0x7F,0x06,0x4A,
	0x00,0x00,0x4A,0x7F,0x06,0x4A,0x00,0x00,
	0x4A,0x7F,0x06,0x4A,0x00,0x00,0x4A,0x7F,
	0x06,0x4A,0x00,0x00,0x4A,0x7F,0x06,0x4A,
	0x00,0x00,0x4A,0x7F,0x06,0x4A,0x00,0x00,
	0x4A,0x7F,0x06,0x4A,0x00,0x00,0x4A,0x7F,
	0x06,0x4A,0x00,0x00,0x4A,0x7F,0x06,0x4A,
	0x00,0x00,0x4A,0x7F,0x06,0x4A,0x00,0x48,
	0x49,0x7F,0x06,0x49,0x00,0x00,0x49,0x7F,
	0x06,0x49,0x00,0x00,0x49,0x7F,0x06,0x49,
	0x00,0x00,0x49,0x7F,0x06,0x49,0x00,0x00,
	0x49,0x7F,0x18,0x49,0x00,0x00,0x4C,0x7F,
	0x18,0x4C,0x00,0x00,0x4A,0x7F,0x18,0x4A,
	0x00,0x00,0xE0,0x00,0x00,0x00,0x90,0x49,
	0x7F,0x01,0xE0,0x00,0x09,0x01,0x00,0x14,
	0x01,0x00,0x1F,0x02,0x00,0x2A,0x01,0x00,
	0x35,0x01,0x00,0x40,0x11,0x90,0x49,0x00,
	0x00,0x47,0x7F,0x18,0x47,0x00,0x00,0x45,
	0x7F,0x18,0x45,0x00,0x00,0x43,0x7F,0x18,
	0x43,0x00,0x00,0x47,0x7F,0x18,0x47,0x00,
	0x00,0x45,0x7F,0x18,0x45,0x00,0x00,0x43,
	0x7F,0x0C,0x43,0x00,0x00,0x42,0x7F,0x0C,
	0x42,0x00,0x00,0x40,0x7F,0x06,0x40,0x00,
	0x00,0x40,0x7F,0x06,0x40,0x00,0x00,0x40,
	0x7F,0x06,0x40,0x00,0x00,0x40,0x7F,0x06,
	0x40,0x00,0x00,0x40,0x7F,0x06,0x40,0x00,
	0x00,0x40,0x7F,0x06,0x40,0x00,0x00,0x40,
	0x7F,0x06,0x40,0x00,0x00,0x40,0x7F,0x06,
	0x40,0x00,0x00,0x40,0x7F,0x06,0x40,0x00,
	0x00,0x40,0x7F,0x06,0x40,0x00,0x00,0x40,
	0x7F,0x06,0x40,0x00,0x00,0x40,0x7F,0x06,
	0x40,0x00,0x00,0x40,0x7F,0x0C,0x40,0x00,
	0x00,0x42,0x7F,0x0C,0x42,0x00,0x00,0x43,
	0x7F,0x06,0x43,0x00,0x00,0x43,0x7F,0x06,
	0x43,0x00,0x00,0x43,0x7F,0x06,0x43,0x00,
	0x00,0x43,0x7F,0x06,0x43,0x00,0x00,0x43,
	0x7F,0x06,0x43,0x00,0x00,0x43,0x7F,0x06,
	0x43,0x00,0x00,0x43,0x7F,0x06,0x43,0x00,
	0x00,0x43,0x7F,0x06,0x43,0x00,0x18,0x47,
	0x7F,0x18,0x47,0x00,0x00,0x45,0x7F,0x00,
	0xE0,0x00,0x00,0x01,0x00,0x09,0x01,0x00,
	0x14,0x01,0x00,0x1F,0x02,0x00,0x2A,0x01,
	0x00,0x35,0x01,0x00,0x40,0x11,0x90,0x45,
	0x00,0x18,0x43,0x7F,0x18,0x43,0x00,0x00,
	0x42,0x7F,0x18,0x42,0x00,0x00,0x40,0x7F,
	0x06,0x40,0x00,0x00,0x40,0x7F,0x06,0x40,
	0x00,0x00,0x40,0x7F,0x06,0x40,0x00,0x00,
	0x40,0x7F,0x06,0x40,0x00,0x00,0x40,0x7F,
	0x06,0x40,0x00,0x00,0x40,0x7F,0x06,0x40,
	0x00,0x00,0x40,0x7F,0x06,0x40,0x00,0x00,
	0x40,0x7F,0x06,0x40,0x00,0x00,0x40,0x7F,
	0x06,0x40,0x00,0x00,0x40,0x7F,0x06,0x40,
	0x00,0x00,0x40,0x7F,0x06,0x40,0x00,0x00,
	0x40,0x7F,0x06,0x40,0x00,0x81,0x10,0x49,
	0x7F,0x00,0xE0,0x00,0x00,0x01,0x00,0x09,
	0x01,0x00,0x14,0x01,0x00,0x1F,0x02,0x00,
	0x2A,0x01,0x00,0x35,0x01,0x00,0x40,0x11,
	0x90,0x49,0x00,0x18,0x4C,0x7F,0x18,0x4C,
	0x00,0x00,0x4A,0x7F,0x18,0x4A,0x00,0x00,
	0x49,0x7F,0x00,0xE0,0x00,0x00,0x01,0x00,
	0x09,0x01,0x00,0x14,0x01,0x00,0x1F,0x02,
	0x00,0x2A,0x01,0x00,0x35,0x01,0x00,0x40,
	0x11,0x90,0x49,0x00,0x00,0x47,0x7F,0x18,
	0x47,0x00,0x00,0x45,0x7F,0x18,0x45,0x00,
	0x00,0x43,0x7F,0x18,0x43,0x00,0x00,0x47,
	0x7F,0x18,0x47,0x00,0x00,0x45,0x7F,0x18,
	0x45,0x00,0x00,0x43,0x7F,0x18,0x43,0x00,
	0x00,0x40,0x7F,0x30,0x40,0x00,0x48,0x49,
	0x7F,0x00,0xE0,0x00,0x00,0x01,0x00,0x09,
	0x01,0x00,0x14,0x01,0x00,0x1F,0x02,0x00,
	0x2A,0x01,0x00,0x35,0x01,0x00,0x40,0x11,
	0x90,0x49,0x00,0x18,0x4C,0x7F,0x18,0x4C,
	0x00,0x00,0x4A,0x7F,0x18,0x4A,0x00,0x00,
	0x49,0x7F,0x00,0xE0,0x00,0x00,0x01,0x00,
	0x09,0x01,0x00,0x14,0x01,0x00,0x1F,0x02,
	0x00,0x2A,0x01,0x00,0x35,0x01,0x00,0x40,
	0x11,0x90,0x49,0x00,0x00,0x47,0x7F,0x18,
	0x47,0x00,0x00,0x45,0x7F,0x18,0x45,0x00,
	0x00,0x4A,0x7F,0x00,0xE0,0x00,0x00,0x01,
	0x00,0x09,0x01,0x00,0x14,0x01,0x00,0x1F,
	0x02,0x00,0x2A,0x01,0x00,0x35,0x01,0x00,
	0x40,0x41,0x90,0x4A,0x00,0x81,0x10,0xE0,
	0x00,0x00,0x00,0x90,0x49,0x7F,0x01,0xE0,
	0x00,0x09,0x01,0x00,0x14,0x01,0x00,0x1F,
	0x02,0x00,0x2A,0x01,0x00,0x35,0x01,0x00,
	0x40,0x11,0x90,0x49,0x00,0x18,0x4C,0x7F,
	0x18,0x4C,0x00,0x00,0x4A,0x7F,0x18,0x4A,
	0x00,0x00,0xE0,0x00,0x00,0x00,0x90,0x49,
	0x7F,0x01,0xE0,0x00,0x09,0x01,0x00,0x14,
	0x01,0x00,0x1F,0x02,0x00,0x2A,0x01,0x00,
	0x35,0x01,0x00,0x40,0x11,0x90,0x49,0x00,
	0x00,0x47,0x7F,0x18,0x47,0x00,0x00,0x45,
	0x7F,0x18,0x45,0x00,0x00,0x43,0x7F,0x00,
	0xE0,0x00,0x00,0x01,0x00,0x09,0x01,0x00,
	0x14,0x01,0x00,0x1F,0x02,0x00,0x2A,0x01,
	0x00,0x35,0x01,0x00,0x40,0x11,0x90,0x43,
	0x00,0x00,0x47,0x7F,0x18,0x47,0x00,0x00,
	0x45,0x7F,0x18,0x45,0x00,0x00,0x43,0x7F,
	0x18,0x43,0x00,0x00,0x40,0x7F,0x00,0xE0,
	0x00,0x00,0x01,0x00,0x09,0x01,0x00,0x14,
	0x01,0x00,0x1F,0x02,0x00,0x2A,0x01,0x00,
	0x35,0x01,0x00,0x40,0x29,0x90,0x40,0x00,
	0x18,0x40,0x7F,0x0C,0x40,0x00,0x00,0x42,
	0x7F,0x0C,0x42,0x00,0x00,0x43,0x7F,0x30,
	0x43,0x00,0x18,0x47,0x7F,0x18,0x47,0x00,
	0x00,0x45,0x7F,0x00,0xE0,0x00,0x00,0x01,
	0x00,0x09,0x01,0x00,0x14,0x01,0x00,0x1F,
	0x02,0x00,0x2A,0x01,0x00,0x35,0x01,0x00,
	0x40,0x29,0x90,0x45,0x00,0x00,0x43,0x7F,
	0x18,0x43,0x00,0x00,0x43,0x7F,0x18,0x43,
	0x00,0x00,0x40,0x7F,0x60,0x40,0x00,0x00,
	0xFF,0x2F,0x00,0x4D,0x54,0x72,0x6B,0x00,
	0x00,0x02,0x1E,0x00,0xC1,0x21,0x00,0x91,
	0x21,0x7F,0x18,0x21,0x00,0x00,0x21,0x7F,
	0x18,0x21,0x00,0x18,0x21,0x7F,0x18,0x21,
	0x00,0x00,0x21,0x7F,0x18,0x21,0x00,0x00,
	0x21,0x7F,0x18,0x21,0x00,0x18,0x21,0x7F,
	0x18,0x21,0x00,0x00,0x21,0x7F,0x18,0x21,
	0x00,0x00,0x21,0x7F,0x18,0x21,0x00,0x18,
	0x21,0x7F,0x18,0x21,0x00,0x00,0x21,0x7F,
	0x18,0x21,0x00,0x18,0x1F,0x7F,0x18,0x1F,
	0x00,0x18,0x21,0x7F,0x18,0x21,0x00,0x00,
	0x21,0x7F,0x18,0x21,0x00,0x18,0x21,0x7F,
	0x18,0x21,0x00,0x00,0x21,0x7F,0x18,0x21,
	0x00,0x00,0x21,0x7F,0x18,0x21,0x00,0x18,
	0x21,0x7F,0x18,0x21,0x00,0x00,0x1F,0x7F,
	0x18,0x1F,0x00,0x00,0x1F,0x7F,0x18,0x1F,
	0x00,0x18,0x1F,0x7F,0x18,0x1F,0x00,0x00,
	0x1F,0x7F,0x18,0x1F,0x00,0x18,0x1F,0x7F,
	0x18,0x1F,0x00,0x18,0x21,0x7F,0x18,0x21,
	0x00,0x00,0x21,0x7F,0x18,0x21,0x00,0x18,
	0x21,0x7F,0x18,0x21,0x00,0x00,0x21,0x7F,
	0x18,0x21,0x00,0x00,0x21,0x7F,0x18,0x21,
	0x00,0x18,0x21,0x7F,0x18,0x21,0x00,0x00,
	0x21,0x7F,0x18,0x21,0x00,0x00,0x21,0x7F,
	0x18,0x21,0x00,0x18,0x21,0x7F,0x18,0x21,
	0x00,0x00,0x21,0x7F,0x18,0x21,0x00,0x18,
	0x21,0x7F,0x18,0x21,0x00,0x18,0x1F,0x7F,
	0x18,0x1F,0x00,0x00,0x1F,0x7F,0x18,0x1F,
	0x00,0x18,0x1F,0x7F,0x18,0x1F,0x00,0x00,
	0x1F,0x7F,0x18,0x1F,0x00,0x00,0x1F,0x7F,
	0x18,0x1F,0x00,0x18,0x1F,0x7F,0x18,0x1F,
	0x00,0x00,0x21,0x7F,0x18,0x21,0x00,0x00,
	0x21,0x7F,0x18,0x21,0x00,0x18,0x21,0x7F,
	0x18,0x21,0x00,0x00,0x21,0x7F,0x18,0x21,
	0x00,0x18,0x1F,0x7F,0x18,0x1F,0x00,0x18,
	0x21,0x7F,0x18,0x21,0x00,0x00,0x21,0x7F,
	0x18,0x21,0x00,0x18,0x21,0x7F,0x18,0x21,
	0x00,0x00,0x21,0x7F,0x18,0x21,0x00,0x00,
	0x21,0x7F,0x18,0x21,0x00,0x18,0x21,0x7F,
	0x18,0x21,0x00,0x00,0x21,0x7F,0x18,0x21,
	0x00,0x00,0x21,0x7F,0x18,0x21,0x00,0x18,
	0x21,0x7F,0x18,0x21,0x00,0x00,0x21,0x7F,
	0x18,0x21,0x00,0x18,0x1F,0x7F,0x18,0x1F,
	0x00,0x18,0x21,0x7F,0x18,0x21,0x00,0x00,
	0x21,0x7F,0x18,0x21,0x00,0x18,0x21,0x7F,
	0x18,0x21,0x00,0x00,0x21,0x7F,0x18,0x21,
	0x00,0x00,0x21,0x7F,0x18,0x21,0x00,0x18,
	0x21,0x7F,0x18,0x21,0x00,0x00,0x1F,0x7F,
	0x18,0x1F,0x00,0x00,0x1F,0x7F,0x18,0x1F,
	0x00,0x18,0x1F,0x7F,0x18,0x1F,0x00,0x00,
	0x1F,0x7F,0x18,0x1F,0x00,0x18,0x1F,0x7F,
	0x18,0x1F,0x00,0x18,0x21,0x7F,0x18,0x21,
	0x00,0x00,0x21,0x7F,0x18,0x21,0x00,0x18,
	0x21,0x7F,0x18,0x21,0x00,0x00,0x21,0x7F,
	0x18,0x21,0x00,0x00,0x21,0x7F,0x18,0x21,
	0x00,0x18,0x21,0x7F,0x18,0x21,0x00,0x00,
	0x21,0x7F,0x18,0x21,0x00,0x00,0x21,0x7F,
	0x18,0x21,0x00,0x18,0x21,0x7F,0x18,0x21,
	0x00,0x00,0x21,0x7F,0x18,0x21,0x00,0x18,
	0x21,0x7F,0x18,0x21,0x00,0x18,0x1F,0x7F,
	0x18,0x1F,0x00,0x00,0x1F,0x7F,0x18,0x1F,
	0x00,0x18,0x1F,0x7F,0x18,0x1F,0x00,0x00,
	0x1F,0x7F,0x18,0x1F,0x00,0x00,0x1F,0x7F,
	0x18,0x1F,0x00,0x18,0x1F,0x7F,0x18,0x1F,
	0x00,0x00,0x21,0x7F,0x18,0x21,0x00,0x00,
	0x21,0x7F,0x18,0x21,0x00,0x18,0x21,0x7F,
	0x18,0x21,0x00,0x00,0x21,0x7F,0x18,0x21,
	0x00,0x18,0x1F,0x7F,0x18,0x1F,0x00,0x18,
	0x21,0x7F,0x18,0x21,0x00,0x00,0xFF,0x2F,
	0x00,0x4D,0x54,0x72,0x6B,0x00,0x00,0x00,
	0x63,0x00,0xC2,0x37,0x00,0xB2,0x07,0x5A,
	0x00,0x0A,0x6B,0x00,0x92,0x39,0x64,0x18,
	0x39,0x00,0x82,0x38,0x37,0x64,0x18,0x37,
	0x00,0x18,0x39,0x64,0x18,0x39,0x00,0x82,
	0x38,0x37,0x64,0x18,0x37,0x00,0x18,0x39,
	0x64,0x18,0x39,0x00,0x85,0x38,0x37,0x64,
	0x18,0x37,0x00,0x18,0x39,0x64,0x18,0x39,
	0x00,0x82,0x38,0x37,0x64,0x18,0x37,0x00,
	0x18,0x39,0x64,0x18,0x39,0x00,0x82,0x38,
	0x37,0x64,0x18,0x37,0x00,0x18,0x39,0x64,
	0x18,0x39,0x00,0x85,0x38,0x37,0x64,0x18,
	0x37,0x00,0x18,0x39,0x64,0x18,0x39,0x00,
	0x00,0xFF,0x2F,0x00,0x4D,0x54,0x72,0x6B,
	0x00,0x00,0x04,0x3B,0x00,0xC3,0x19,0x00,
	0xB3,0x07,0x60,0x00,0x0A,0x16,0x00,0x93,
	0x39,0x7F,0x00,0x40,0x64,0x18,0x40,0x00,
	0x00,0x39,0x00,0x00,0x40,0x64,0x00,0x39,
	0x7F,0x18,0x39,0x00,0x00,0x40,0x00,0x18,
	0x39,0x7F,0x00,0x40,0x64,0x18,0x40,0x00,
	0x00,0x39,0x00,0x00,0x40,0x64,0x00,0x39,
	0x7F,0x18,0x39,0x00,0x00,0x40,0x00,0x00,
	0x39,0x7F,0x00,0x40,0x64,0x18,0x40,0x00,
	0x00,0x39,0x00,0x18,0x40,0x64,0x00,0x39,
	0x7F,0x18,0x39,0x00,0x00,0x40,0x00,0x00,
	0x40,0x64,0x00,0x39,0x7F,0x18,0x39,0x00,
	0x00,0x40,0x00,0x00,0x39,0x7F,0x00,0x40,
	0x64,0x18,0x40,0x00,0x00,0x39,0x00,0x18,
	0x40,0x64,0x00,0x39,0x7F,0x18,0x39,0x00,
	0x00,0x40,0x00,0x00,0x39,0x7F,0x00,0x40,
	0x64,0x18,0x40,0x00,0x00,0x39,0x00,0x18,
	0x3E,0x64,0x00,0x37,0x7F,0x18,0x37,0x00,
	0x00,0x3E,0x00,0x18,0x39,0x7F,0x00,0x40,
	0x64,0x18,0x40,0x00,0x00,0x39,0x00,0x00,
	0x40,0x64,0x00,0x39,0x7F,0x18,0x39,0x00,
	0x00,0x40,0x00,0x18,0x39,0x7F,0x00,0x40,
	0x64,0x18,0x40,0x00,0x00,0x39,0x00,0x00,
	0x40,0x64,0x00,0x39,0x7F,0x18,0x39,0x00,
	0x00,0x40,0x00,0x00,0x39,0x7F,0x00,0x40,
	0x64,0x18,0x40,0x00,0x00,0x39,0x00,0x18,
	0x40,0x64,0x00,0x39,0x7F,0x18,0x39,0x00,
	0x00,0x40,0x00,0x00,0x3E,0x64,0x00,0x37,
	0x7F,0x18,0x37,0x00,0x00,0x3E,0x00,0x00,
	0x37,0x7F,0x00,0x3E,0x64,0x18,0x3E,0x00,
	0x00,0x37,0x00,0x18,0x3E,0x64,0x00,0x37,
	0x7F,0x18,0x37,0x00,0x00,0x3E,0x00,0x00,
	0x37,0x7F,0x00,0x3E,0x64,0x18,0x3E,0x00,
	0x00,0x37,0x00,0x18,0x3E,0x64,0x00,0x37,
	0x7F,0x18,0x37,0x00,0x00,0x3E,0x00,0x18,
	0x39,0x7F,0x00,0x40,0x64,0x18,0x40,0x00,
	0x00,0x39,0x00,0x00,0x40,0x64,0x00,0x39,
	0x7F,0x18,0x39,0x00,0x00,0x40,0x00,0x18,
	0x39,0x7F,0x00,0x40,0x64,0x18,0x40,0x00,
	0x00,0x39,0x00,0x00,0x40,0x64,0x00,0x39,
	0x7F,0x18,0x39,0x00,0x00,0x40,0x00,0x00,
	0x39,0x7F,0x00,0x40,0x64,0x18,0x40,0x00,
	0x00,0x39,0x00,0x18,0x40,0x64,0x00,0x39,
	0x7F,0x18,0x39,0x00,0x00,0x40,0x00,0x00,
	0x40,0x64,0x00,0x39,0x7F,0x18,0x39,0x00,
	0x00,0x40,0x00,0x00,0x39,0x7F,0x00,0x40,
	0x64,0x18,0x40,0x00,0x00,0x39,0x00,0x18,
	0x40,0x64,0x00,0x39,0x7F,0x18,0x39,0x00,
	0x00,0x40,0x00,0x00,0x39,0x7F,0x00,0x40,
	0x64,0x18,0x40,0x00,0x00,0x39,0x00,0x18,
	0x40,0x64,0x00,0x39,0x7F,0x18,0x39,0x00,
	0x00,0x40,0x00,0x18,0x37,0x7F,0x00,0x3E,
	0x64,0x18,0x3E,0x00,0x00,0x37,0x00,0x00,
	0x3E,0x64,0x00,0x37,0x7F,0x18,0x37,0x00,
	0x00,0x3E,0x00,0x18,0x37,0x7F,0x00,0x3E,
	0x64,0x18,0x3E,0x00,0x00,0x37,0x00,0x00,
	0x3E,0x64,0x00,0x37,0x7F,0x18,0x37,0x00,
	0x00,0x3E,0x00,0x00,0x37,0x7F,0x00,0x3E,
	0x64,0x18,0x3E,0x00,0x00,0x37,0x00,0x18,
	0x3E,0x64,0x00,0x37,0x7F,0x18,0x37,0x00,
	0x00,0x3E,0x00,0x00,0x40,0x64,0x00,0x39,
	0x7F,0x18,0x39,0x00,0x00,0x40,0x00,0x00,
	0x39,0x7F,0x00,0x40,0x64,0x18,0x40,0x00,
	0x00,0x39,0x00,0x18,0x40,0x64,0x00,0x39,
	0x7F,0x18,0x39,0x00,0x00,0x40,0x00,0x00,
	0x39,0x7F,0x00,0x40,0x64,0x18,0x40,0x00,
	0x00,0x39,0x00,0x18,0x3E,0x64,0x00,0x37,
	0x7F,0x18,0x37,0x00,0x00,0x3E,0x00,0x18,
	0x39,0x7F,0x00,0x40,0x64,0x18,0x40,0x00,
	0x00,0x39,0x00,0x00,0x40,0x64,0x00,0x39,
	0x7F,0x18,0x39,0x00,0x00,0x40,0x00,0x18,
	0x39,0x7F,0x00,0x40,0x64,0x18,0x40,0x00,
	0x00,0x39,0x00,0x00,0x40,0x64,0x00,0x39,
	0x7F,0x18,0x39,0x00,0x00,0x40,0x00,0x00,
	0x39,0x7F,0x00,0x40,0x64,0x18,0x40,0x00,
	0x00,0x39,0x00,0x18,0x40,0x64,0x00,0x39,
	0x7F,0x18,0x39,0x00,0x00,0x40,0x00,0x00,
	0x40,0x64,0x00,0x39,0x7F,0x18,0x39,0x00,
	0x00,0x40,0x00,0x00,0x39,0x7F,0x00,0x40,
	0x64,0x18,0x40,0x00,0x00,0x39,0x00,0x18,
	0x40,0x64,0x00,0x39,0x7F,0x18,0x39,0x00,
	0x00,0x40,0x00,0x00,0x39,0x7F,0x00,0x40,
	0x64,0x18,0x40,0x00,0x00,0x39,0x00,0x18,
	0x3E,0x64,0x00,0x37,0x7F,0x18,0x37,0x00,
	0x00,0x3E,0x00,0x18,0x39,0x7F,0x00,0x40,
	0x64,0x18,0x40,0x00,0x00,0x39,0x00,0x00,
	0x40,0x64,0x00,0x39,0x7F,0x18,0x39,0x00,
	0x00,0x40,0x00,0x18,0x39,0x7F,0x00,0x40,
	0x64,0x18,0x40,0x00,0x00,0x39,0x00,0x00,
	0x40,0x64,0x00,0x39,0x7F,0x18,0x39,0x00,
	0x00,0x40,0x00,0x00,0x39,0x7F,0x00,0x40,
	0x64,0x18,0x40,0x00,0x00,0x39,0x00,0x18,
	0x40,0x64,0x00,0x39,0x7F,0x18,0x39,0x00,
	0x00,0x40,0x00,0x00,0x3E,0x64,0x00,0x37,
	0x7F,0x18,0x37,0x00,0x00,0x3E,0x00,0x00,
	0x37,0x7F,0x00,0x3E,0x64,0x18,0x3E,0x00,
	0x00,0x37,0x00,0x18,0x3E,0x64,0x00,0x37,
	0x7F,0x18,0x37,0x00,0x00,0x3E,0x00,0x00,
	0x37,0x7F,0x00,0x3E,0x64,0x18,0x3E,0x00,
	0x00,0x37,0x00,0x18,0x3E,0x64,0x00,0x37,
	0x7F,0x18,0x37,0x00,0x00,0x3E,0x00,0x18,
	0x39,0x7F,0x00,0x40,0x64,0x18,0x40,0x00,
	0x00,0x39,0x00,0x00,0x40,0x64,0x00,0x39,
	0x7F,0x18,0x39,0x00,0x00,0x40,0x00,0x18,
	0x39,0x7F,0x00,0x40,0x64,0x18,0x40,0x00,
	0x00,0x39,0x00,0x00,0x40,0x64,0x00,0x39,
	0x7F,0x18,0x39,0x00,0x00,0x40,0x00,0x00,
	0x39,0x7F,0x00,0x40,0x64,0x18,0x40,0x00,
	0x00,0x39,0x00,0x18,0x40,0x64,0x00,0x39,
	0x7F,0x18,0x39,0x00,0x00,0x40,0x00,0x00,
	0x40,0x64,0x00,0x39,0x7F,0x18,0x39,0x00,
	0x00,0x40,0x00,0x00,0x39,0x7F,0x00,0x40,
	0x64,0x18,0x40,0x00,0x00,0x39,0x00,0x18,
	0x40,0x64,0x00,0x39,0x7F,0x18,0x39,0x00,
	0x00,0x40,0x00,0x00,0x39,0x7F,0x00,0x40,
	0x64,0x18,0x40,0x00,0x00,0x39,0x00,0x18,
	0x40,0x64,0x00,0x39,0x7F,0x18,0x39,0x00,
	0x00,0x40,0x00,0x18,0x37,0x7F,0x00,0x3E,
	0x64,0x18,0x3E,0x00,0x00,0x37,0x00,0x00,
	0x3E,0x64,0x00,0x37,0x7F,0x18,0x37,0x00,
	0x00,0x3E,0x00,0x18,0x37,0x7F,0x00,0x3E,
	0x64,0x18,0x3E,0x00,0x00,0x37,0x00,0x00,
	0x3E,0x64,0x00,0x37,0x7F,0x18,0x37,0x00,
	0x00,0x3E,0x00,0x00,0x37,0x7F,0x00,0x3E,
	0x64,0x18,0x3E,0x00,0x00,0x37,0x00,0x18,
	0x3E,0x64,0x00,0x37,0x7F,0x18,0x37,0x00,
	0x00,0x3E,0x00,0x00,0x40,0x64,0x00,0x39,
	0x7F,0x18,0x39,0x00,0x00,0x40,0x00,0x00,
	0x39,0x7F,0x00,0x40,0x64,0x18,0x40,0x00,
	0x00,0x39,0x00,0x18,0x40,0x64,0x00,0x39,
	0x7F,0x18,0x39,0x00,0x00,0x40,0x00,0x00,
	0x39,0x7F,0x00,0x40,0x64,0x18,0x40,0x00,
	0x00,0x39,0x00,0x18,0x3E,0x64,0x00,0x37,
	0x7F,0x18,0x37,0x00,0x00,0x3E,0x00,0x18,
	0x39,0x7F,0x00,0x40,0x64,0x18,0x40,0x00,
	0x00,0x39,0x00,0x00,0xFF,0x2F,0x00,0x4D,
	0x54,0x72,0x6B,0x00,0x00,0x00,0x0E,0x00,
	0xC4,0x30,0x00,0xB4,0x07,0x5E,0x00,0x0A,
	0x5B,0x00,0xFF,0x2F,0x00,0x4D,0x54,0x72,
	0x6B,0x00,0x00,0x02,0xD3,0x00,0xC5,0x0B,
	0x00,0xB5,0x07,0x57,0x00,0x0A,0x1B,0x00,
	0x95,0x39,0x66,0x18,0x39,0x00,0x00,0x45,
	0x4B,0x18,0x45,0x00,0x00,0x49,0x5D,0x18,
	0x49,0x00,0x00,0x45,0x4B,0x18,0x45,0x00,
	0x18,0x49,0x61,0x18,0x49,0x00,0x00,0x3D,
	0x51,0x18,0x3D,0x00,0x00,0x49,0x54,0x18,
	0x49,0x00,0x00,0x34,0x65,0x18,0x34,0x00,
	0x00,0x45,0x48,0x18,0x45,0x00,0x00,0x49,
	0x60,0x18,0x49,0x00,0x00,0x45,0x4B,0x18,
	0x45,0x00,0x18,0x49,0x67,0x18,0x49,0x00,
	0x00,0x39,0x52,0x18,0x39,0x00,0x00,0x49,
	0x53,0x18,0x49,0x00,0x00,0x39,0x66,0x18,
	0x39,0x00,0x00,0x45,0x4B,0x18,0x45,0x00,
	0x00,0x49,0x5D,0x18,0x49,0x00,0x00,0x45,
	0x4B,0x18,0x45,0x00,0x00,0x49,0x50,0x18,
	0x49,0x00,0x00,0x4C,0x61,0x18,0x4C,0x00,
	0x00,0x3D,0x51,0x18,0x3D,0x00,0x00,0x49,
	0x54,0x18,0x49,0x00,0x00,0x3E,0x65,0x18,
	0x3E,0x00,0x00,0x4A,0x48,0x18,0x4A,0x00,
	0x00,0x4F,0x60,0x18,0x4F,0x00,0x00,0x4A,
	0x4B,0x18,0x4A,0x00,0x18,0x4F,0x67,0x18,
	0x4F,0x00,0x00,0x37,0x52,0x18,0x37,0x00,
	0x00,0x4F,0x53,0x18,0x4F,0x00,0x00,0x39,
	0x66,0x18,0x39,0x00,0x00,0x45,0x4B,0x18,
	0x45,0x00,0x00,0x49,0x5D,0x18,0x49,0x00,
	0x00,0x45,0x4B,0x18,0x45,0x00,0x00,0x49,
	0x50,0x18,0x49,0x00,0x00,0x4C,0x61,0x18,
	0x4C,0x00,0x00,0x3D,0x51,0x18,0x3D,0x00,
	0x00,0x49,0x54,0x18,0x49,0x00,0x00,0x39,
	0x65,0x18,0x39,0x00,0x00,0x40,0x48,0x18,
	0x40,0x00,0x00,0x49,0x60,0x18,0x49,0x00,
	0x00,0x40,0x4B,0x18,0x40,0x00,0x00,0x49,
	0x54,0x18,0x49,0x00,0x18,0x3D,0x52,0x18,
	0x3D,0x00,0x00,0x49,0x53,0x18,0x49,0x00,
	0x00,0x37,0x66,0x18,0x37,0x00,0x00,0x4A,
	0x4B,0x18,0x4A,0x00,0x00,0x4F,0x5D,0x18,
	0x4F,0x00,0x00,0x4A,0x4B,0x18,0x4A,0x00,
	0x00,0x4F,0x50,0x18,0x4F,0x00,0x00,0x53,
	0x61,0x18,0x53,0x00,0x00,0x43,0x51,0x18,
	0x43,0x00,0x00,0x4F,0x54,0x18,0x4F,0x00,
	0x00,0x34,0x65,0x18,0x34,0x00,0x00,0x45,
	0x48,0x18,0x45,0x00,0x00,0x49,0x60,0x18,
	0x49,0x00,0x00,0x45,0x4B,0x18,0x45,0x00,
	0x18,0x49,0x67,0x18,0x49,0x00,0x00,0x39,
	0x52,0x18,0x39,0x00,0x00,0x49,0x53,0x18,
	0x49,0x00,0x00,0x3D,0x66,0x18,0x3D,0x00,
	0x00,0x45,0x4B,0x18,0x45,0x00,0x00,0x49,
	0x5D,0x18,0x49,0x00,0x00,0x45,0x4B,0x18,
	0x45,0x00,0x18,0x49,0x61,0x18,0x49,0x00,
	0x00,0x3D,0x51,0x18,0x3D,0x00,0x00,0x49,
	0x54,0x18,0x49,0x00,0x00,0x39,0x65,0x18,
	0x39,0x00,0x00,0x40,0x48,0x18,0x40,0x00,
	0x00,0x49,0x60,0x18,0x49,0x00,0x00,0x40,
	0x4B,0x18,0x40,0x00,0x00,0x49,0x54,0x18,
	0x49,0x00,0x18,0x3D,0x52,0x18,0x3D,0x00,
	0x00,0x49,0x53,0x18,0x49,0x00,0x00,0x39,
	0x66,0x18,0x39,0x00,0x00,0x45,0x4B,0x18,
	0x45,0x00,0x00,0x49,0x5D,0x18,0x49,0x00,
	0x00,0x45,0x4B,0x18,0x45,0x00,0x18,0x49,
	0x61,0x18,0x49,0x00,0x00,0x3D,0x51,0x18,
	0x3D,0x00,0x00,0x49,0x54,0x18,0x49,0x00,
	0x00,0x37,0x65,0x18,0x37,0x00,0x00,0x47,
	0x48,0x18,0x47,0x00,0x00,0x4F,0x60,0x18,
	0x4F,0x00,0x00,0x47,0x4B,0x18,0x47,0x00,
	0x00,0x4F,0x54,0x18,0x4F,0x00,0x18,0x43,
	0x52,0x18,0x43,0x00,0x00,0x4F,0x53,0x18,
	0x4F,0x00,0x00,0x39,0x66,0x18,0x39,0x00,
	0x00,0x45,0x4B,0x18,0x45,0x00,0x00,0x49,
	0x5D,0x18,0x49,0x00,0x00,0x45,0x4B,0x18,
	0x45,0x00,0x00,0x49,0x50,0x18,0x49,0x00,
	0x00,0x4C,0x61,0x18,0x4C,0x00,0x00,0x3D,
	0x51,0x18,0x3D,0x00,0x00,0x49,0x54,0x18,
	0x49,0x00,0x00,0x34,0x65,0x18,0x34,0x00,
	0x00,0x45,0x48,0x18,0x45,0x00,0x00,0x49,
	0x60,0x18,0x49,0x00,0x00,0x45,0x4B,0x18,
	0x45,0x00,0x18,0x49,0x67,0x18,0x49,0x00,
	0x00,0x39,0x52,0x18,0x39,0x00,0x00,0x49,
	0x53,0x18,0x49,0x00,0x00,0x37,0x66,0x18,
	0x37,0x00,0x00,0x47,0x4B,0x18,0x47,0x00,
	0x00,0x4F,0x5D,0x18,0x4F,0x00,0x00,0x47,
	0x4B,0x18,0x47,0x00,0x00,0x4A,0x50,0x18,
	0x4A,0x00,0x00,0x4F,0x61,0x18,0x4F,0x00,
	0x00,0x43,0x51,0x18,0x43,0x00,0x00,0x4A,
	0x54,0x18,0x4A,0x00,0x00,0x34,0x65,0x18,
	0x34,0x00,0x00,0x45,0x48,0x18,0x45,0x00,
	0x00,0x49,0x60,0x18,0x49,0x00,0x00,0x45,
	0x4B,0x18,0x45,0x00,0x18,0x49,0x67,0x18,
	0x49,0x00,0x00,0x39,0x52,0x18,0x39,0x00,
	0x00,0x49,0x53,0x18,0x49,0x00,0x00,0x39,
	0x66,0x18,0x39,0x00,0x00,0xFF,0x2F,0x00,
	0x4D,0x54,0x72,0x6B,0x00,0x00,0x00,0x0E,
	0x00,0xC6,0x58,0x00,0xB6,0x07,0x58,0x00,
	0x0A,0x5B,0x00,0xFF,0x2F,0x00,0x4D,0x54,
	0x72,0x6B,0x00,0x00,0x01,0x51,0x00,0xC7,
	0x5F,0x00,0xB7,0x07,0x59,0x00,0x0A,0x2E,
	0x00,0x97,0x3D,0x25,0x00,0x40,0x25,0x00,
	0x49,0x25,0x81,0x40,0x49,0x00,0x00,0x40,
	0x00,0x00,0x3D,0x00,0x00,0x3D,0x28,0x00,
	0x40,0x28,0x00,0x34,0x28,0x81,0x40,0x34,
	0x00,0x00,0x40,0x00,0x00,0x3D,0x00,0x00,
	0x3D,0x25,0x00,0x40,0x25,0x00,0x49,0x25,
	0x81,0x40,0x49,0x00,0x00,0x40,0x00,0x00,
	0x3D,0x00,0x00,0x43,0x28,0x00,0x47,0x28,
	0x00,0x3B,0x28,0x81,0x40,0x3B,0x00,0x00,
	0x47,0x00,0x00,0x43,0x00,0x00,0x3D,0x25,
	0x00,0x40,0x25,0x00,0x49,0x25,0x81,0x40,
	0x49,0x00,0x00,0x40,0x00,0x00,0x3D,0x00,
	0x00,0x3D,0x28,0x00,0x40,0x28,0x00,0x34,
	0x28,0x81,0x40,0x34,0x00,0x00,0x40,0x00,
	0x00,0x3D,0x00,0x00,0x43,0x25,0x00,0x47,
	0x25,0x00,0x4F,0x25,0x81,0x40,0x4F,0x00,
	0x00,0x47,0x00,0x00,0x43,0x00,0x00,0x3D,
	0x28,0x00,0x40,0x28,0x00,0x34,0x28,0x81,
	0x40,0x34,0x00,0x00,0x40,0x00,0x00,0x3D,
	0x00,0x00,0x3D,0x25,0x00,0x40,0x25,0x00,
	0x49,0x25,0x81,0x40,0x49,0x00,0x00,0x40,
	0x00,0x00,0x3D,0x00,0x00,0x3D,0x28,0x00,
	0x40,0x28,0x00,0x34,0x28,0x81,0x40,0x34,
	0x00,0x00,0x40,0x00,0x00,0x3D,0x00,0x00,
	0x3D,0x25,0x00,0x40,0x25,0x00,0x49,0x25,
	0x81,0x40,0x49,0x00,0x00,0x40,0x00,0x00,
	0x3D,0x00,0x00,0x43,0x28,0x00,0x47,0x28,
	0x00,0x3B,0x28,0x81,0x40,0x3B,0x00,0x00,
	0x47,0x00,0x00,0x43,0x00,0x00,0x3D,0x25,
	0x00,0x40,0x25,0x00,0x49,0x25,0x81,0x40,
	0x49,0x00,0x00,0x40,0x00,0x00,0x3D,0x00,
	0x00,0x3D,0x28,0x00,0x40,0x28,0x00,0x34,
	0x28,0x81,0x40,0x34,0x00,0x00,0x40,0x00,
	0x00,0x3D,0x00,0x00,0x43,0x25,0x00,0x47,
	0x25,0x00,0x4F,0x25,0x81,0x40,0x4F,0x00,
	0x00,0x47,0x00,0x00,0x43,0x00,0x00,0x3D,
	0x28,0x00,0x40,0x28,0x00,0x34,0x28,0x81,
	0x40,0x34,0x00,0x00,0x40,0x00,0x00,0x3D,
	0x00,0x00,0x3D,0x25,0x00,0x40,0x25,0x00,
	0x49,0x25,0x18,0x49,0x00,0x00,0x40,0x00,
	0x00,0x3D,0x00,0x00,0xFF,0x2F,0x00,0x4D,
	0x54,0x72,0x6B,0x00,0x00,0x04,0xE3,0x00,
	0xC8,0x50,0x00,0xB8,0x07,0x44,0x00,0x0A,
	0x59,0x31,0x98,0x49,0x7F,0x06,0x49,0x00,
	0x00,0x49,0x7F,0x06,0x49,0x00,0x00,0x49,
	0x7F,0x06,0x49,0x00,0x00,0x49,0x7F,0x06,
	0x49,0x00,0x00,0x49,0x7F,0x18,0x49,0x00,
	0x00,0x4C,0x7F,0x18,0x4C,0x00,0x00,0x4A,
	0x7F,0x18,0x4A,0x00,0x00,0x49,0x7F,0x00,
	0xE8,0x00,0x00,0x01,0x00,0x09,0x01,0x00,
	0x14,0x01,0x00,0x1F,0x02,0x00,0x2A,0x01,
	0x00,0x35,0x01,0x00,0x40,0x11,0x98,0x49,
	0x00,0x00,0x47,0x7F,0x18,0x47,0x00,0x00,
	0x45,0x7F,0x18,0x45,0x00,0x00,0x43,0x7F,
	0x18,0x43,0x00,0x00,0x47,0x7F,0x18,0x47,
	0x00,0x00,0x45,0x7F,0x18,0x45,0x00,0x00,
	0x43,0x7F,0x0C,0x43,0x00,0x00,0x42,0x7F,
	0x0C,0x42,0x00,0x00,0x40,0x7F,0x06,0x40,
	0x00,0x00,0x40,0x7F,0x06,0x40,0x00,0x00,
	0x40,0x7F,0x06,0x40,0x00,0x00,0x40,0x7F,
	0x06,0x40,0x00,0x00,0x40,0x7F,0x06,0x40,
	0x00,0x00,0x40,0x7F,0x06,0x40,0x00,0x00,
	0x40,0x7F,0x06,0x40,0x00,0x00,0x40,0x7F,
	0x06,0x40,0x00,0x00,0x40,0x7F,0x06,0x40,
	0x00,0x00,0x40,0x7F,0x06,0x40,0x00,0x00,
	0x40,0x7F,0x06,0x40,0x00,0x00,0x40,0x7F,
	0x06,0x40,0x00,0x30,0x49,0x7F,0x06,0x49,
	0x00,0x00,0x49,0x7F,0x06,0x49,0x00,0x00,
	0x49,0x7F,0x06,0x49,0x00,0x00,0x49,0x7F,
	0x06,0x49,0x00,0x00,0x49,0x7F,0x18,0x49,
	0x00,0x00,0x4C,0x7F,0x18,0x4C,0x00,0x00,
	0x4A,0x7F,0x18,0x4A,0x00,0x00,0x49,0x7F,
	0x00,0xE8,0x00,0x00,0x01,0x00,0x09,0x01,
	0x00,0x14,0x01,0x00,0x1F,0x02,0x00,0x2A,
	0x01,0x00,0x35,0x01,0x00,0x40,0x11,0x98,
	0x49,0x00,0x00,0x47,0x7F,0x18,0x47,0x00,
	0x00,0x45,0x7F,0x18,0x45,0x00,0x00,0x4A,
	0x7F,0x06,0x4A,0x00,0x00,0x4A,0x7F,0x06,
	0x4A,0x00,0x00,0x4A,0x7F,0x06,0x4A,0x00,
	0x00,0x4A,0x7F,0x06,0x4A,0x00,0x00,0x4A,
	0x7F,0x06,0x4A,0x00,0x00,0x4A,0x7F,0x06,
	0x4A,0x00,0x00,0x4A,0x7F,0x06,0x4A,0x00,
	0x00,0x4A,0x7F,0x06,0x4A,0x00,0x00,0x4A,
	0x7F,0x06,0x4A,0x00,0x00,0x4A,0x7F,0x06,
	0x4A,0x00,0x00,0x4A,0x7F,0x06,0x4A,0x00,
	0x00,0x4A,0x7F,0x06,0x4A,0x00,0x00,0x4A,
	0x7F,0x06,0x4A,0x00,0x00,0x4A,0x7F,0x06,
	0x4A,0x00,0x00,0x4A,0x7F,0x06,0x4A,0x00,
	0x00,0x4A,0x7F,0x06,0x4A,0x00,0x00,0x4A,
	0x7F,0x06,0x4A,0x00,0x00,0x4A,0x7F,0x06,
	0x4A,0x00,0x00,0x4A,0x7F,0x06,0x4A,0x00,
	0x00,0x4A,0x7F,0x06,0x4A,0x00,0x00,0x4A,
	0x7F,0x06,0x4A,0x00,0x00,0x4A,0x7F,0x06,
	0x4A,0x00,0x00,0x4A,0x7F,0x06,0x4A,0x00,
	0x00,0x4A,0x7F,0x06,0x4A,0x00,0x48,0x49,
	0x7F,0x06,0x49,0x00,0x00,0x49,0x7F,0x06,
	0x49,0x00,0x00,0x49,0x7F,0x06,0x49,0x00,
	0x00,0x49,0x7F,0x06,0x49,0x00,0x00,0x49,
	0x7F,0x18,0x49,0x00,0x00,0x4C,0x7F,0x18,
	0x4C,0x00,0x00,0x4A,0x7F,0x18,0x4A,0x00,
	0x00,0xE8,0x00,0x00,0x00,0x98,0x49,0x7F,
	0x01,0xE8,0x00,0x09,0x01,0x00,0x14,0x01,
	0x00,0x1F,0x02,0x00,0x2A,0x01,0x00,0x35,
	0x01,0x00,0x40,0x11,0x98,0x49,0x00,0x00,
	0x47,0x7F,0x18,0x47,0x00,0x00,0x45,0x7F,
	0x18,0x45,0x00,0x00,0x43,0x7F,0x18,0x43,
	0x00,0x00,0x47,0x7F,0x18,0x47,0x00,0x00,
	0x45,0x7F,0x18,0x45,0x00,0x00,0x43,0x7F,
	0x0C,0x43,0x00,0x00,0x42,0x7F,0x0C,0x42,
	0x00,0x00,0x40,0x7F,0x06,0x40,0x00,0x00,
	0x40,0x7F,0x06,0x40,0x00,0x00,0x40,0x7F,
	0x06,0x40,0x00,0x00,0x40,0x7F,0x06,0x40,
	0x00,0x00,0x40,0x7F,0x06,0x40,0x00,0x00,
	0x40,0x7F,0x06,0x40,0x00,0x00,0x40,0x7F,
	0x06,0x40,0x00,0x00,0x40,0x7F,0x06,0x40,
	0x00,0x00,0x40,0x7F,0x06,0x40,0x00,0x00,
	0x40,0x7F,0x06,0x40,0x00,0x00,0x40,0x7F,
	0x06,0x40,0x00,0x00,0x40,0x7F,0x06,0x40,
	0x00,0x00,0x40,0x7F,0x0C,0x40,0x00,0x00,
	0x42,0x7F,0x0C,0x42,0x00,0x00,0x43,0x7F,
	0x06,0x43,0x00,0x00,0x43,0x7F,0x06,0x43,
	0x00,0x00,0x43,0x7F,0x06,0x43,0x00,0x00,
	0x43,0x7F,0x06,0x43,0x00,0x00,0x43,0x7F,
	0x06,0x43,0x00,0x00,0x43,0x7F,0x06,0x43,
	0x00,0x00,0x43,0x7F,0x06,0x43,0x00,0x00,
	0x43,0x7F,0x06,0x43,0x00,0x18,0x47,0x7F,
	0x18,0x47,0x00,0x00,0x45,0x7F,0x00,0xE8,
	0x00,0x00,0x01,0x00,0x09,0x01,0x00,0x14,
	0x01,0x00,0x1F,0x02,0x00,0x2A,0x01,0x00,
	0x35,0x01,0x00,0x40,0x11,0x98,0x45,0x00,
	0x18,0x43,0x7F,0x18,0x43,0x00,0x00,0x42,
	0x7F,0x18,0x42,0x00,0x00,0x40,0x7F,0x06,
	0x40,0x00,0x00,0x40,0x7F,0x06,0x40,0x00,
	0x00,0x40,0x7F,0x06,0x40,0x00,0x00,0x40,
	0x7F,0x06,0x40,0x00,0x00,0x40,0x7F,0x06,
	0x40,0x00,0x00,0x40,0x7F,0x06,0x40,0x00,
	0x00,0x40,0x7F,0x06,0x40,0x00,0x00,0x40,
	0x7F,0x06,0x40,0x00,0x00,0x40,0x7F,0x06,
	0x40,0x00,0x00,0x40,0x7F,0x06,0x40,0x00,
	0x00,0x40,0x7F,0x06,0x40,0x00,0x00,0x40,
	0x7F,0x06,0x40,0x00,0x81,0x10,0x49,0x7F,
	0x00,0xE8,0x00,0x00,0x01,0x00,0x09,0x01,
	0x00,0x14,0x01,0x00,0x1F,0x02,0x00,0x2A,
	0x01,0x00,0x35,0x01,0x00,0x40,0x11,0x98,
	0x49,0x00,0x18,0x4C,0x7F,0x18,0x4C,0x00,
	0x00,0x4A,0x7F,0x18,0x4A,0x00,0x00,0x49,
	0x7F,0x00,0xE8,0x00,0x00,0x01,0x00,0x09,
	0x01,0x00,0x14,0x01,0x00,0x1F,0x02,0x00,
	0x2A,0x01,0x00,0x35,0x01,0x00,0x40,0x11,
	0x98,0x49,0x00,0x00,0x47,0x7F,0x18,0x47,
	0x00,0x00,0x45,0x7F,0x18,0x45,0x00,0x00,
	0x43,0x7F,0x18,0x43,0x00,0x00,0x47,0x7F,
	0x18,0x47,0x00,0x00,0x45,0x7F,0x18,0x45,
	0x00,0x00,0x43,0x7F,0x18,0x43,0x00,0x00,
	0x40,0x7F,0x30,0x40,0x00,0x48,0x49,0x7F,
	0x00,0xE8,0x00,0x00,0x01,0x00,0x09,0x01,
	0x00,0x14,0x01,0x00,0x1F,0x02,0x00,0x2A,
	0x01,0x00,0x35,0x01,0x00,0x40,0x11,0x98,
	0x49,0x00,0x18,0x4C,0x7F,0x18,0x4C,0x00,
	0x00,0x4A,0x7F,0x18,0x4A,0x00,0x00,0x49,
	0x7F,0x00,0xE8,0x00,0x00,0x01,0x00,0x09,
	0x01,0x00,0x14,0x01,0x00,0x1F,0x02,0x00,
	0x2A,0x01,0x00,0x35,0x01,0x00,0x40,0x11,
	0x98,0x49,0x00,0x00,0x47,0x7F,0x18,0x47,
	0x00,0x00,0x45,0x7F,0x18,0x45,0x00,0x00,
	0x4A,0x7F,0x00,0xE8,0x00,0x00,0x01,0x00,
	0x09,0x01,0x00,0x14,0x01,0x00,0x1F,0x02,
	0x00,0x2A,0x01,0x00,0x35,0x01,0x00,0x40,
	0x41,0x98,0x4A,0x00,0x81,0x10,0xE8,0x00,
	0x00,0x00,0x98,0x49,0x7F,0x01,0xE8,0x00,
	0x09,0x01,0x00,0x14,0x01,0x00,0x1F,0x02,
	0x00,0x2A,0x01,0x00,0x35,0x01,0x00,0x40,
	0x11,0x98,0x49,0x00,0x18,0x4C,0x7F,0x18,
	0x4C,0x00,0x00,0x4A,0x7F,0x18,0x4A,0x00,
	0x00,0xE8,0x00,0x00,0x00,0x98,0x49,0x7F,
	0x01,0xE8,0x00,0x09,0x01,0x00,0x14,0x01,
	0x00,0x1F,0x02,0x00,0x2A,0x01,0x00,0x35,
	0x01,0x00,0x40,0x11,0x98,0x49,0x00,0x00,
	0x47,0x7F,0x18,0x47,0x00,0x00,0x45,0x7F,
	0x18,0x45,0x00,0x00,0x43,0x7F,0x00,0xE8,
	0x00,0x00,0x01,0x00,0x09,0x01,0x00,0x14,
	0x01,0x00,0x1F,0x02,0x00,0x2A,0x01,0x00,
	0x35,0x01,0x00,0x40,0x11,0x98,0x43,0x00,
	0x00,0x47,0x7F,0x18,0x47,0x00,0x00,0x45,
	0x7F,0x18,0x45,0x00,0x00,0x43,0x7F,0x18,
	0x43,0x00,0x00,0x40,0x7F,0x00,0xE8,0x00,
	0x00,0x01,0x00,0x09,0x01,0x00,0x14,0x01,
	0x00,0x1F,0x02,0x00,0x2A,0x01,0x00,0x35,
	0x01,0x00,0x40,0x29,0x98,0x40,0x00,0x18,
	0x40,0x7F,0x0C,0x40,0x00,0x00,0x42,0x7F,
	0x0C,0x42,0x00,0x00,0x43,0x7F,0x30,0x43,
	0x00,0x18,0x47,0x7F,0x18,0x47,0x00,0x00,
	0x45,0x7F,0x00,0xE8,0x00,0x00,0x01,0x00,
	0x09,0x01,0x00,0x14,0x01,0x00,0x1F,0x02,
	0x00,0x2A,0x01,0x00,0x35,0x01,0x00,0x40,
	0x29,0x98,0x45,0x00,0x00,0x43,0x7F,0x18,
	0x43,0x00,0x00,0x43,0x7F,0x18,0x43,0x00,
	0x00,0x40,0x7F,0x60,0x40,0x00,0x00,0xFF,
	0x2F,0x00,0x4D,0x54,0x72,0x6B,0x00,0x00,
	0x06,0x27,0x00,0xC9,0x00,0x00,0xB9,0x07,
	0x78,0x00,0x0A,0x40,0x00,0x99,0x31,0x7F,
	0x00,0x24,0x7F,0x0C,0x24,0x00,0x00,0x31,
	0x00,0x0C,0x2C,0x7F,0x00,0x24,0x7F,0x0C,
	0x24,0x00,0x00,0x2C,0x00,0x0C,0x2C,0x7F,
	0x00,0x28,0x7F,0x0C,0x28,0x00,0x00,0x2C,
	0x00,0x0C,0x2C,0x7F,0x00,0x24,0x7F,0x0C,
	0x24,0x00,0x00,0x2C,0x00,0x0C,0x2C,0x7F,
	0x00,0x24,0x7F,0x0C,0x24,0x00,0x00,0x2C,
	0x00,0x0C,0x2C,0x7F,0x00,0x24,0x7F,0x0C,
	0x24,0x00,0x00,0x2C,0x00,0x0C,0x2C,0x7F,
	0x00,0x28,0x7F,0x0C,0x28,0x00,0x00,0x2C,
	0x00,0x0C,0x2C,0x7F,0x00,0x24,0x7F,0x0C,
	0x24,0x00,0x00,0x2C,0x00,0x0C,0x24,0x7F,
	0x00,0x2C,0x7F,0x0C,0x2C,0x00,0x00,0x24,
	0x00,0x0C,0x2C,0x7F,0x00,0x24,0x7F,0x0C,
	0x24,0x00,0x00,0x2C,0x00,0x0C,0x2C,0x7F,
	0x00,0x28,0x7F,0x0C,0x28,0x00,0x00,0x2C,
	0x00,0x0C,0x24,0x7F,0x00,0x2C,0x7F,0x0C,
	0x2C,0x00,0x00,0x24,0x00,0x0C,0x2C,0x7F,
	0x00,0x24,0x7F,0x0C,0x24,0x00,0x00,0x2C,
	0x00,0x0C,0x2C,0x7F,0x00,0x24,0x7F,0x0C,
	0x24,0x00,0x00,0x2C,0x00,0x0C,0x28,0x7F,
	0x00,0x2C,0x7F,0x0C,0x2C,0x00,0x00,0x28,
	0x00,0x0C,0x2C,0x7F,0x00,0x24,0x7F,0x0C,
	0x24,0x00,0x00,0x2C,0x00,0x0C,0x2C,0x7F,
	0x00,0x24,0x7F,0x0C,0x24,0x00,0x00,0x2C,
	0x00,0x0C,0x2C,0x7F,0x00,0x24,0x7F,0x0C,
	0x24,0x00,0x00,0x2C,0x00,0x0C,0x28,0x7F,
	0x00,0x2C,0x7F,0x0C,0x2C,0x00,0x00,0x28,
	0x00,0x0C,0x2C,0x7F,0x00,0x24,0x7F,0x0C,
	0x24,0x00,0x00,0x2C,0x00,0x0C,0x2C,0x7F,
	0x00,0x24,0x7F,0x0C,0x24,0x00,0x00,0x2C,
	0x00,0x0C,0x24,0x7F,0x00,0x2C,0x7F,0x0C,
	0x2C,0x00,0x00,0x24,0x00,0x0C,0x2C,0x7F,
	0x00,0x28,0x7F,0x0C,0x28,0x00,0x00,0x2C,
	0x00,0x0C,0x2C,0x7F,0x00,0x24,0x7F,0x0C,
	0x24,0x00,0x00,0x2C,0x00,0x0C,0x2C,0x7F,
	0x00,0x24,0x7F,0x0C,0x24,0x00,0x00,0x2C,
	0x00,0x0C,0x24,0x7F,0x00,0x2C,0x7F,0x0C,
	0x2C,0x00,0x00,0x24,0x00,0x0C,0x28,0x7F,
	0x00,0x2C,0x7F,0x0C,0x2C,0x00,0x00,0x28,
	0x00,0x0C,0x2C,0x7F,0x00,0x24,0x7F,0x0C,
	0x24,0x00,0x00,0x2C,0x00,0x0C,0x24,0x7F,
	0x00,0x2C,0x7F,0x0C,0x2C,0x00,0x00,0x24,
	0x00,0x0C,0x24,0x7F,0x00,0x2C,0x7F,0x0C,
	0x2C,0x00,0x00,0x24,0x00,0x0C,0x2C,0x7F,
	0x00,0x28,0x7F,0x0C,0x28,0x00,0x00,0x2C,
	0x00,0x0C,0x24,0x7F,0x00,0x2C,0x7F,0x0C,
	0x2C,0x00,0x00,0x24,0x00,0x00,0x28,0x7F,
	0x0C,0x28,0x00,0x00,0x31,0x7F,0x00,0x24,
	0x7F,0x0C,0x24,0x00,0x00,0x31,0x00,0x0C,
	0x24,0x7F,0x00,0x2C,0x7F,0x0C,0x2C,0x00,
	0x00,0x24,0x00,0x0C,0x2C,0x7F,0x00,0x28,
	0x7F,0x0C,0x28,0x00,0x00,0x2C,0x00,0x0C,
	0x2C,0x7F,0x00,0x24,0x7F,0x0C,0x24,0x00,
	0x00,0x2C,0x00,0x0C,0x24,0x7F,0x00,0x2C,
	0x7F,0x0C,0x2C,0x00,0x00,0x24,0x00,0x0C,
	0x2C,0x7F,0x00,0x24,0x7F,0x0C,0x24,0x00,
	0x00,0x2C,0x00,0x0C,0x2C,0x7F,0x00,0x28,
	0x7F,0x0C,0x28,0x00,0x00,0x2C,0x00,0x0C,
	0x2C,0x7F,0x00,0x24,0x7F,0x0C,0x24,0x00,
	0x00,0x2C,0x00,0x0C,0x24,0x7F,0x00,0x2C,
	0x7F,0x0C,0x2C,0x00,0x00,0x24,0x00,0x0C,
	0x24,0x7F,0x00,0x2C,0x7F,0x0C,0x2C,0x00,
	0x00,0x24,0x00,0x0C,0x28,0x7F,0x00,0x2C,
	0x7F,0x0C,0x2C,0x00,0x00,0x28,0x00,0x0C,
	0x2C,0x7F,0x00,0x24,0x7F,0x0C,0x24,0x00,
	0x00,0x2C,0x00,0x0C,0x2C,0x7F,0x00,0x24,
	0x7F,0x0C,0x24,0x00,0x00,0x2C,0x00,0x0C,
	0x2C,0x7F,0x00,0x24,0x7F,0x0C,0x24,0x00,
	0x00,0x2C,0x00,0x0C,0x2C,0x7F,0x00,0x28,
	0x7F,0x0C,0x28,0x00,0x00,0x2C,0x00,0x0C,
	0x24,0x7F,0x00,0x2C,0x7F,0x0C,0x2C,0x00,
	0x00,0x24,0x00,0x0C,0x2C,0x7F,0x00,0x24,
	0x7F,0x0C,0x24,0x00,0x00,0x2C,0x00,0x0C,
	0x24,0x7F,0x00,0x2C,0x7F,0x0C,0x2C,0x00,
	0x00,0x24,0x00,0x0C,0x28,0x7F,0x00,0x2C,
	0x7F,0x0C,0x2C,0x00,0x00,0x28,0x00,0x0C,
	0x24,0x7F,0x00,0x2C,0x7F,0x0C,0x2C,0x00,
	0x00,0x24,0x00,0x0C,0x2C,0x7F,0x00,0x24,
	0x7F,0x0C,0x24,0x00,0x00,0x2C,0x00,0x0C,
	0x2C,0x7F,0x00,0x24,0x7F,0x0C,0x24,0x00,
	0x00,0x2C,0x00,0x0C,0x2C,0x7F,0x00,0x28,
	0x7F,0x0C,0x28,0x00,0x00,0x2C,0x00,0x0C,
	0x24,0x7F,0x00,0x2C,0x7F,0x0C,0x2C,0x00,
	0x00,0x24,0x00,0x0C,0x24,0x7F,0x00,0x2C,
	0x7F,0x0C,0x2C,0x00,0x00,0x24,0x00,0x0C,
	0x24,0x7F,0x00,0x2C,0x7F,0x0C,0x2C,0x00,
	0x00,0x24,0x00,0x0C,0x28,0x7F,0x00,0x2C,
	0x7F,0x0C,0x2C,0x00,0x00,0x28,0x00,0x0C,
	0x24,0x7F,0x00,0x2C,0x7F,0x0C,0x2C,0x00,
	0x00,0x24,0x00,0x00,0x28,0x7F,0x0C,0x28,
	0x00,0x00,0x2C,0x7F,0x00,0x24,0x7F,0x0C,
	0x24,0x00,0x00,0x2C,0x00,0x0C,0x2C,0x7F,
	0x0C,0x2C,0x00,0x0C,0x2C,0x7F,0x00,0x28,
	0x7F,0x0C,0x28,0x00,0x00,0x2C,0x00,0x0C,
	0x2C,0x7F,0x00,0x24,0x7F,0x0C,0x24,0x00,
	0x00,0x2C,0x00,0x0C,0x24,0x7F,0x00,0x31,
	0x7F,0x0C,0x31,0x00,0x00,0x24,0x00,0x0C,
	0x24,0x7F,0x00,0x2C,0x7F,0x0C,0x2C,0x00,
	0x00,0x24,0x00,0x0C,0x2C,0x7F,0x00,0x28,
	0x7F,0x0C,0x28,0x00,0x00,0x2C,0x00,0x0C,
	0x2C,0x7F,0x00,0x24,0x7F,0x0C,0x24,0x00,
	0x00,0x2C,0x00,0x0C,0x24,0x7F,0x00,0x2C,
	0x7F,0x0C,0x2C,0x00,0x00,0x24,0x00,0x0C,
	0x2C,0x7F,0x00,0x24,0x7F,0x0C,0x24,0x00,
	0x00,0x2C,0x00,0x0C,0x2C,0x7F,0x00,0x28,
	0x7F,0x0C,0x28,0x00,0x00,0x2C,0x00,0x0C,
	0x24,0x7F,0x00,0x2C,0x7F,0x0C,0x2C,0x00,
	0x00,0x24,0x00,0x0C,0x2C,0x7F,0x00,0x24,
	0x7F,0x0C,0x24,0x00,0x00,0x2C,0x00,0x0C,
	0x2C,0x7F,0x00,0x24,0x7F,0x0C,0x24,0x00,
	0x00,0x2C,0x00,0x0C,0x2C,0x7F,0x00,0x28,
	0x7F,0x0C,0x28,0x00,0x00,0x2C,0x00,0x0C,
	0x2C,0x7F,0x00,0x24,0x7F,0x0C,0x24,0x00,
	0x00,0x2C,0x00,0x0C,0x2C,0x7F,0x00,0x24,
	0x7F,0x0C,0x24,0x00,0x00,0x2C,0x00,0x0C,
	0x2C,0x7F,0x00,0x24,0x7F,0x0C,0x24,0x00,
	0x00,0x2C,0x00,0x0C,0x28,0x7F,0x00,0x2C,
	0x7F,0x0C,0x2C,0x00,0x00,0x28,0x00,0x0C,
	0x2C,0x7F,0x00,0x24,0x7F,0x0C,0x24,0x00,
	0x00,0x2C,0x00,0x0C,0x2C,0x7F,0x00,0x24,
	0x7F,0x0C,0x24,0x00,0x00,0x2C,0x00,0x0C,
	0x2C,0x7F,0x00,0x24,0x7F,0x0C,0x24,0x00,
	0x00,0x2C,0x00,0x0C,0x2C,0x7F,0x00,0x28,
	0x7F,0x0C,0x28,0x00,0x00,0x2C,0x00,0x0C,
	0x2C,0x7F,0x00,0x24,0x7F,0x0C,0x24,0x00,
	0x00,0x2C,0x00,0x0C,0x2C,0x7F,0x00,0x24,
	0x7F,0x0C,0x24,0x00,0x00,0x2C,0x00,0x0C,
	0x2C,0x7F,0x00,0x24,0x7F,0x0C,0x24,0x00,
	0x00,0x2C,0x00,0x0C,0x2C,0x7F,0x00,0x28,
	0x7F,0x0C,0x28,0x00,0x00,0x2C,0x00,0x0C,
	0x2C,0x7F,0x00,0x24,0x7F,0x0C,0x24,0x00,
	0x00,0x2C,0x00,0x0C,0x24,0x7F,0x00,0x2C,
	0x7F,0x0C,0x2C,0x00,0x00,0x24,0x00,0x0C,
	0x24,0x7F,0x00,0x2C,0x7F,0x0C,0x2C,0x00,
	0x00,0x24,0x00,0x0C,0x2C,0x7F,0x00,0x28,
	0x7F,0x0C,0x28,0x00,0x00,0x2C,0x00,0x0C,
	0x2C,0x7F,0x00,0x24,0x7F,0x0C,0x24,0x00,
	0x00,0x2C,0x00,0x0C,0x24,0x7F,0x00,0x2C,
	0x7F,0x0C,0x2C,0x00,0x00,0x24,0x00,0x0C,
	0x24,0x7F,0x00,0x2C,0x7F,0x0C,0x2C,0x00,
	0x00,0x24,0x00,0x0C,0x2C,0x7F,0x00,0x28,
	0x7F,0x0C,0x28,0x00,0x00,0x2C,0x00,0x0C,
	0x2C,0x7F,0x00,0x24,0x7F,0x0C,0x24,0x00,
	0x00,0x2C,0x00,0x00,0x28,0x7F,0x0C,0x28,
	0x00,0x00,0x24,0x7F,0x00,0x31,0x7F,0x0C,
	0x31,0x00,0x00,0x24,0x00,0x0C,0x2C,0x7F,
	0x00,0x24,0x7F,0x0C,0x24,0x00,0x00,0x2C,
	0x00,0x0C,0x28,0x7F,0x00,0x2C,0x7F,0x0C,
	0x2C,0x00,0x00,0x28,0x00,0x0C,0x24,0x7F,
	0x00,0x2C,0x7F,0x0C,0x2C,0x00,0x00,0x24,
	0x00,0x0C,0x24,0x7F,0x00,0x2C,0x7F,0x0C,
	0x2C,0x00,0x00,0x24,0x00,0x0C,0x24,0x7F,
	0x00,0x2C,0x7F,0x0C,0x2C,0x00,0x00,0x24,
	0x00,0x0C,0x28,0x7F,0x00,0x2C,0x7F,0x0C,
	0x2C,0x00,0x00,0x28,0x00,0x0C,0x24,0x7F,
	0x00,0x2C,0x7F,0x0C,0x2C,0x00,0x00,0x24,
	0x00,0x0C,0x2C,0x7F,0x00,0x24,0x7F,0x0C,
	0x24,0x00,0x00,0x2C,0x00,0x0C,0x24,0x7F,
	0x00,0x2C,0x7F,0x0C,0x2C,0x00,0x00,0x24,
	0x00,0x0C,0x2C,0x7F,0x00,0x28,0x7F,0x0C,
	0x28,0x00,0x00,0x2C,0x00,0x0C,0x24,0x7F,
	0x00,0x2C,0x7F,0x0C,0x2C,0x00,0x00,0x24,
	0x00,0x0C,0x24,0x7F,0x00,0x2C,0x7F,0x0C,
	0x2C,0x00,0x00,0x24,0x00,0x0C,0x24,0x7F,
	0x00,0x2C,0x7F,0x0C,0x2C,0x00,0x00,0x24,
	0x00,0x0C,0x2C,0x7F,0x00,0x28,0x7F,0x0C,
	0x28,0x00,0x00,0x2C,0x00,0x0C,0x24,0x7F,
	0x00,0x2C,0x7F,0x0C,0x2C,0x00,0x00,0x24,
	0x00,0x0C,0x24,0x7F,0x00,0x2C,0x7F,0x0C,
	0x2C,0x00,0x00,0x24,0x00,0x0C,0x24,0x7F,
	0x00,0x2C,0x7F,0x0C,0x2C,0x00,0x00,0x24,
	0x00,0x0C,0x2C,0x7F,0x00,0x28,0x7F,0x0C,
	0x28,0x00,0x00,0x2C,0x00,0x0C,0x2C,0x7F,
	0x00,0x24,0x7F,0x0C,0x24,0x00,0x00,0x2C,
	0x00,0x0C,0x24,0x7F,0x00,0x2C,0x7F,0x0C,
	0x2C,0x00,0x00,0x24,0x00,0x0C,0x2C,0x7F,
	0x00,0x24,0x7F,0x0C,0x24,0x00,0x00,0x2C,
	0x00,0x0C,0x28,0x7F,0x00,0x2C,0x7F,0x0C,
	0x2C,0x00,0x00,0x28,0x00,0x0C,0x2C,0x7F,
	0x00,0x24,0x7F,0x0C,0x24,0x00,0x00,0x2C,
	0x00,0x0C,0x2C,0x7F,0x00,0x24,0x7F,0x0C,
	0x24,0x00,0x00,0x2C,0x00,0x0C,0x24,0x7F,
	0x00,0x2C,0x7F,0x0C,0x2C,0x00,0x00,0x24,
	0x00,0x0C,0x28,0x7F,0x00,0x2C,0x7F,0x0C,
	0x2C,0x00,0x00,0x28,0x00,0x0C,0x2C,0x7F,
	0x00,0x24,0x7F,0x0C,0x24,0x00,0x00,0x2C,
	0x00,0x00,0x28,0x7F,0x0C,0x28,0x00,0x00,
	0x2C,0x7F,0x00,0x24,0x7F,0x0C,0x24,0x00,
	0x00,0x2C,0x00,0x0C,0x2C,0x7F,0x0C,0x2C,
	0x00,0x0C,0x28,0x7F,0x00,0x2C,0x7F,0x0C,
	0x2C,0x00,0x00,0x28,0x00,0x0C,0x2C,0x7F,
	0x00,0x24,0x7F,0x0C,0x24,0x00,0x00,0x2C,
	0x00,0x0C,0x31,0x7F,0x00,0x24,0x7F,0x0C,
	0x24,0x00,0x00,0x31,0x00,0x00,0xFF,0x2F,
	0x00,
};

__align(4) static const unsigned char classical24_mid[] = {
    0x4D,0x54,0x68,0x64,0x00,0x00,0x00,0x06,
	0x00,0x00,0x00,0x01,0x00,0x78,0x4D,0x54,
	0x72,0x6B,0x00,0x00,0x07,0x95,0x00,0xFF,
	0x03,0x0B,0x6D,0x6D,0x73,0x2E,0x74,0x6F,
	0x6D,0x2E,0x63,0x6F,0x6D,0x00,0xFF,0x01,
	0x0E,0x50,0x73,0x6D,0x50,0x6C,0x61,0x79,
	0x65,0x72,0x20,0x56,0x35,0x2E,0x30,0x00,
	0xF0,0x05,0x7E,0x7F,0x09,0x01,0xF7,0x00,
	0xFF,0x51,0x03,0x08,0xB8,0x24,0x00,0xF0,
	0x07,0x7F,0x7F,0x04,0x01,0x7F,0x7F,0xF7,
	0x00,0xC0,0x0B,0x00,0xB0,0x07,0x7F,0x00,
	0xC1,0x0B,0x00,0xB1,0x07,0x7F,0x00,0xC2,
	0x21,0x00,0xB2,0x07,0x7F,0x00,0xC9,0x00,
	0x00,0xB9,0x07,0x7F,0x00,0xFF,0x58,0x04,
	0x04,0x02,0x18,0x08,0x00,0xFF,0x59,0x02,
	0x00,0x00,0x00,0xFF,0x21,0x01,0x00,0x00,
	0xFF,0x21,0x01,0x00,0x00,0xFF,0x21,0x01,
	0x00,0x00,0xFF,0x21,0x01,0x00,0x00,0x90,
	0x4A,0x73,0x00,0x91,0x32,0x64,0x00,0x92,
	0x26,0x58,0x00,0x99,0x40,0x54,0x1E,0x89,
	0x40,0x00,0x1E,0x80,0x4A,0x00,0x00,0x81,
	0x32,0x00,0x00,0x90,0x4A,0x73,0x00,0x91,
	0x3E,0x64,0x3C,0x80,0x4A,0x00,0x00,0x81,
	0x3E,0x00,0x00,0x90,0x4A,0x73,0x00,0x91,
	0x41,0x64,0x3C,0x82,0x26,0x00,0x00,0x80,
	0x4A,0x00,0x00,0x81,0x41,0x00,0x00,0x90,
	0x4D,0x73,0x00,0x91,0x45,0x64,0x00,0x92,
	0x29,0x58,0x00,0x99,0x4B,0x7F,0x1E,0x89,
	0x4B,0x00,0x1E,0x80,0x4D,0x00,0x00,0x90,
	0x4D,0x73,0x3C,0x81,0x45,0x00,0x00,0x80,
	0x4D,0x00,0x00,0x90,0x4D,0x73,0x00,0x91,
	0x41,0x64,0x3C,0x82,0x29,0x00,0x00,0x80,
	0x4D,0x00,0x00,0x81,0x41,0x00,0x00,0x90,
	0x51,0x73,0x00,0x91,0x30,0x64,0x00,0x92,
	0x2D,0x58,0x00,0x99,0x40,0x56,0x1E,0x89,
	0x40,0x00,0x1E,0x80,0x51,0x00,0x00,0x81,
	0x30,0x00,0x00,0x82,0x2D,0x00,0x00,0x90,
	0x4F,0x73,0x00,0x91,0x3C,0x64,0x00,0x92,
	0x2B,0x58,0x3C,0x81,0x3C,0x00,0x00,0x91,
	0x40,0x64,0x3C,0x81,0x40,0x00,0x00,0x91,
	0x48,0x64,0x01,0x99,0x4B,0x7F,0x1E,0x89,
	0x4B,0x00,0x59,0x80,0x4F,0x00,0x00,0x82,
	0x2B,0x00,0x00,0x81,0x48,0x00,0x00,0x91,
	0x40,0x64,0x3C,0x81,0x40,0x00,0x00,0x90,
	0x4C,0x73,0x00,0x91,0x35,0x64,0x00,0x92,
	0x28,0x58,0x00,0x99,0x40,0x56,0x1E,0x89,
	0x40,0x00,0x1E,0x80,0x4C,0x00,0x00,0x81,
	0x35,0x00,0x00,0x90,0x4C,0x73,0x00,0x91,
	0x3C,0x64,0x3C,0x80,0x4C,0x00,0x00,0x81,
	0x3C,0x00,0x00,0x90,0x4C,0x73,0x00,0x91,
	0x40,0x64,0x3C,0x80,0x4C,0x00,0x00,0x81,
	0x40,0x00,0x00,0x90,0x4C,0x73,0x00,0x91,
	0x48,0x64,0x01,0x99,0x4B,0x7F,0x1E,0x89,
	0x4B,0x00,0x1D,0x82,0x28,0x00,0x00,0x80,
	0x4C,0x00,0x00,0x90,0x48,0x73,0x00,0x92,
	0x24,0x58,0x3C,0x81,0x48,0x00,0x00,0x80,
	0x48,0x00,0x00,0x82,0x24,0x00,0x00,0x90,
	0x48,0x73,0x00,0x91,0x40,0x64,0x3C,0x80,
	0x48,0x00,0x00,0x81,0x40,0x00,0x00,0x90,
	0x4A,0x73,0x00,0x91,0x32,0x64,0x00,0x92,
	0x26,0x58,0x00,0x99,0x40,0x56,0x1E,0x89,
	0x40,0x00,0x1E,0x81,0x32,0x00,0x00,0x91,
	0x3E,0x64,0x3C,0x81,0x3E,0x00,0x00,0x91,
	0x41,0x64,0x3C,0x80,0x4A,0x00,0x00,0x82,
	0x26,0x00,0x00,0x81,0x41,0x00,0x00,0x90,
	0x51,0x73,0x00,0x91,0x45,0x64,0x00,0x92,
	0x2D,0x58,0x01,0x99,0x4B,0x7F,0x1E,0x89,
	0x4B,0x00,0x59,0x80,0x51,0x00,0x00,0x81,
	0x45,0x00,0x00,0x90,0x4A,0x73,0x00,0x91,
	0x41,0x64,0x1E,0x80,0x4A,0x00,0x00,0x90,
	0x4A,0x73,0x1E,0x82,0x2D,0x00,0x00,0x81,
	0x41,0x00,0x00,0x80,0x4A,0x00,0x00,0x90,
	0x54,0x73,0x00,0x91,0x35,0x64,0x00,0x92,
	0x30,0x58,0x00,0x99,0x40,0x54,0x1E,0x89,
	0x40,0x00,0x1E,0x80,0x54,0x00,0x00,0x81,
	0x35,0x00,0x00,0x90,0x54,0x73,0x00,0x91,
	0x3C,0x64,0x3C,0x80,0x54,0x00,0x00,0x81,
	0x3C,0x00,0x00,0x90,0x54,0x73,0x00,0x91,
	0x41,0x64,0x3C,0x82,0x30,0x00,0x00,0x80,
	0x54,0x00,0x00,0x81,0x41,0x00,0x00,0x90,
	0x54,0x73,0x00,0x91,0x45,0x64,0x00,0x92,
	0x29,0x58,0x01,0x99,0x4B,0x7F,0x1E,0x89,
	0x4B,0x00,0x1D,0x80,0x54,0x00,0x00,0x90,
	0x4D,0x73,0x3C,0x81,0x45,0x00,0x00,0x80,
	0x4D,0x00,0x00,0x90,0x4D,0x73,0x00,0x91,
	0x41,0x64,0x3C,0x82,0x29,0x00,0x00,0x80,
	0x4D,0x00,0x00,0x81,0x41,0x00,0x00,0x90,
	0x4F,0x73,0x00,0x91,0x30,0x64,0x00,0x92,
	0x2B,0x58,0x00,0x99,0x40,0x54,0x1E,0x89,
	0x40,0x00,0x1E,0x80,0x4F,0x00,0x00,0x81,
	0x30,0x00,0x00,0x90,0x4F,0x73,0x00,0x91,
	0x3C,0x64,0x3C,0x80,0x4F,0x00,0x00,0x81,
	0x3C,0x00,0x00,0x90,0x51,0x73,0x00,0x91,
	0x40,0x64,0x3C,0x82,0x2B,0x00,0x00,0x80,
	0x51,0x00,0x00,0x81,0x40,0x00,0x00,0x90,
	0x4F,0x73,0x00,0x91,0x48,0x64,0x00,0x92,
	0x30,0x58,0x01,0x99,0x4B,0x7F,0x1E,0x89,
	0x4B,0x00,0x59,0x80,0x4F,0x00,0x00,0x81,
	0x48,0x00,0x00,0x90,0x48,0x73,0x00,0x91,
	0x40,0x64,0x3C,0x82,0x30,0x00,0x00,0x80,
	0x48,0x00,0x00,0x81,0x40,0x00,0x00,0x90,
	0x4F,0x73,0x00,0x91,0x30,0x64,0x00,0x92,
	0x2B,0x58,0x00,0x99,0x40,0x54,0x1E,0x89,
	0x40,0x00,0x1E,0x80,0x4F,0x00,0x00,0x81,
	0x30,0x00,0x00,0x90,0x4F,0x73,0x00,0x91,
	0x3C,0x64,0x3C,0x80,0x4F,0x00,0x00,0x81,
	0x3C,0x00,0x00,0x90,0x4F,0x73,0x00,0x91,
	0x40,0x64,0x3C,0x82,0x2B,0x00,0x00,0x80,
	0x4F,0x00,0x00,0x81,0x40,0x00,0x00,0x90,
	0x4F,0x73,0x00,0x91,0x48,0x64,0x01,0x99,
	0x4B,0x7F,0x1E,0x89,0x4B,0x00,0x1D,0x80,
	0x4F,0x00,0x00,0x90,0x4F,0x73,0x3C,0x81,
	0x48,0x00,0x00,0x80,0x4F,0x00,0x00,0x90,
	0x4D,0x73,0x00,0x91,0x40,0x64,0x00,0x92,
	0x35,0x58,0x1E,0x80,0x4D,0x00,0x00,0x82,
	0x35,0x00,0x00,0x90,0x4C,0x73,0x00,0x92,
	0x34,0x58,0x1E,0x81,0x40,0x00,0x00,0x80,
	0x4C,0x00,0x00,0x82,0x34,0x00,0x00,0x90,
	0x4A,0x73,0x00,0x91,0x32,0x64,0x00,0x92,
	0x32,0x58,0x00,0x99,0x40,0x54,0x1E,0x89,
	0x40,0x00,0x1E,0x81,0x32,0x00,0x00,0x91,
	0x39,0x64,0x3C,0x81,0x39,0x00,0x00,0x91,
	0x3E,0x64,0x3C,0x80,0x4A,0x00,0x00,0x82,
	0x32,0x00,0x00,0x81,0x3E,0x00,0x00,0x91,
	0x41,0x64,0x01,0x99,0x4B,0x7F,0x1E,0x89,
	0x4B,0x00,0x59,0x81,0x41,0x00,0x00,0x90,
	0x45,0x7F,0x00,0x91,0x3E,0x64,0x00,0x92,
	0x2D,0x58,0x1E,0x80,0x45,0x00,0x00,0x82,
	0x2D,0x00,0x00,0x90,0x45,0x7F,0x00,0x92,
	0x2D,0x58,0x1E,0x81,0x3E,0x00,0x00,0x80,
	0x45,0x00,0x00,0x82,0x2D,0x00,0x00,0x90,
	0x4A,0x73,0x00,0x91,0x32,0x64,0x00,0x92,
	0x32,0x58,0x00,0x99,0x40,0x54,0x1E,0x89,
	0x40,0x00,0x1E,0x80,0x4A,0x00,0x00,0x81,
	0x32,0x00,0x00,0x90,0x4A,0x73,0x00,0x91,
	0x39,0x64,0x3C,0x80,0x4A,0x00,0x00,0x81,
	0x39,0x00,0x00,0x90,0x4A,0x73,0x00,0x91,
	0x3E,0x64,0x3C,0x82,0x32,0x00,0x00,0x80,
	0x4A,0x00,0x00,0x81,0x3E,0x00,0x00,0x90,
	0x4D,0x73,0x00,0x91,0x41,0x64,0x00,0x92,
	0x29,0x58,0x01,0x99,0x4B,0x7F,0x1E,0x89,
	0x4B,0x00,0x1D,0x80,0x4D,0x00,0x00,0x90,
	0x4D,0x73,0x3C,0x81,0x41,0x00,0x00,0x80,
	0x4D,0x00,0x00,0x90,0x4D,0x73,0x00,0x91,
	0x3E,0x64,0x3C,0x82,0x29,0x00,0x00,0x80,
	0x4D,0x00,0x00,0x81,0x3E,0x00,0x00,0x90,
	0x51,0x73,0x00,0x91,0x30,0x64,0x00,0x92,
	0x2D,0x58,0x00,0x99,0x40,0x54,0x1E,0x89,
	0x40,0x00,0x1E,0x80,0x51,0x00,0x00,0x81,
	0x30,0x00,0x00,0x90,0x4F,0x73,0x00,0x91,
	0x3C,0x64,0x3C,0x80,0x4F,0x00,0x00,0x81,
	0x3C,0x00,0x00,0x90,0x51,0x73,0x00,0x91,
	0x40,0x64,0x3C,0x82,0x2D,0x00,0x00,0x80,
	0x51,0x00,0x00,0x81,0x40,0x00,0x00,0x90,
	0x4F,0x73,0x00,0x91,0x48,0x64,0x00,0x92,
	0x2B,0x58,0x01,0x99,0x4B,0x7F,0x1E,0x89,
	0x4B,0x00,0x59,0x81,0x48,0x00,0x00,0x91,
	0x40,0x64,0x3C,0x80,0x4F,0x00,0x00,0x82,
	0x2B,0x00,0x00,0x81,0x40,0x00,0x00,0x90,
	0x4C,0x73,0x00,0x91,0x35,0x64,0x00,0x92,
	0x28,0x58,0x00,0x99,0x40,0x54,0x1E,0x89,
	0x40,0x00,0x1E,0x80,0x4C,0x00,0x00,0x81,
	0x35,0x00,0x00,0x90,0x4C,0x73,0x00,0x91,
	0x3C,0x64,0x3C,0x80,0x4C,0x00,0x00,0x81,
	0x3C,0x00,0x00,0x90,0x4C,0x73,0x00,0x91,
	0x40,0x64,0x3C,0x82,0x28,0x00,0x00,0x80,
	0x4C,0x00,0x00,0x81,0x40,0x00,0x00,0x90,
	0x4C,0x73,0x00,0x91,0x48,0x64,0x00,0x92,
	0x24,0x58,0x01,0x99,0x4B,0x7F,0x1E,0x89,
	0x4B,0x00,0x1D,0x80,0x4C,0x00,0x00,0x90,
	0x4C,0x73,0x3C,0x81,0x48,0x00,0x00,0x90,
	0x48,0x73,0x00,0x91,0x40,0x64,0x3C,0x82,
	0x24,0x00,0x00,0x80,0x48,0x00,0x00,0x81,
	0x40,0x00,0x00,0x90,0x4A,0x73,0x00,0x91,
	0x32,0x64,0x00,0x92,0x32,0x58,0x00,0x99,
	0x40,0x54,0x1E,0x89,0x40,0x00,0x1E,0x80,
	0x4C,0x00,0x00,0x81,0x32,0x00,0x00,0x91,
	0x39,0x64,0x3C,0x81,0x39,0x00,0x00,0x91,
	0x3E,0x64,0x3C,0x80,0x4A,0x00,0x00,0x82,
	0x32,0x00,0x00,0x81,0x3E,0x00,0x00,0x90,
	0x51,0x73,0x00,0x91,0x41,0x64,0x00,0x92,
	0x39,0x58,0x01,0x99,0x4B,0x7F,0x1E,0x89,
	0x4B,0x00,0x59,0x81,0x41,0x00,0x00,0x91,
	0x3E,0x64,0x3C,0x80,0x51,0x00,0x00,0x82,
	0x39,0x00,0x00,0x81,0x3E,0x00,0x00,0x90,
	0x54,0x73,0x00,0x91,0x35,0x64,0x00,0x92,
	0x24,0x58,0x00,0x99,0x40,0x54,0x1E,0x89,
	0x40,0x00,0x1E,0x80,0x54,0x00,0x00,0x81,
	0x35,0x00,0x00,0x90,0x54,0x73,0x00,0x91,
	0x39,0x64,0x3C,0x80,0x54,0x00,0x00,0x81,
	0x39,0x00,0x00,0x90,0x54,0x73,0x00,0x91,
	0x3C,0x64,0x3C,0x82,0x24,0x00,0x00,0x80,
	0x54,0x00,0x00,0x81,0x3C,0x00,0x00,0x90,
	0x54,0x73,0x00,0x91,0x41,0x64,0x00,0x92,
	0x29,0x58,0x01,0x99,0x4B,0x7F,0x1E,0x89,
	0x4B,0x00,0x1D,0x80,0x54,0x00,0x00,0x90,
	0x4D,0x73,0x3C,0x81,0x41,0x00,0x00,0x80,
	0x4D,0x00,0x00,0x90,0x4D,0x73,0x00,0x91,
	0x3C,0x64,0x3C,0x82,0x29,0x00,0x00,0x80,
	0x4D,0x00,0x00,0x81,0x3C,0x00,0x00,0x90,
	0x4F,0x73,0x00,0x91,0x30,0x64,0x00,0x92,
	0x2B,0x58,0x00,0x99,0x40,0x54,0x1E,0x89,
	0x40,0x00,0x1E,0x80,0x4F,0x00,0x00,0x81,
	0x30,0x00,0x00,0x90,0x4F,0x73,0x00,0x91,
	0x37,0x64,0x3C,0x80,0x4F,0x00,0x00,0x81,
	0x37,0x00,0x00,0x90,0x51,0x73,0x00,0x91,
	0x3C,0x64,0x3C,0x82,0x2B,0x00,0x00,0x80,
	0x51,0x00,0x00,0x81,0x3C,0x00,0x00,0x90,
	0x4F,0x73,0x00,0x91,0x40,0x64,0x01,0x99,
	0x4B,0x7F,0x1E,0x89,0x4B,0x00,0x59,0x80,
	0x4F,0x00,0x00,0x81,0x40,0x00,0x00,0x90,
	0x48,0x73,0x00,0x91,0x3C,0x64,0x00,0x92,
	0x24,0x58,0x1E,0x80,0x48,0x00,0x00,0x82,
	0x24,0x00,0x00,0x90,0x48,0x73,0x00,0x92,
	0x24,0x58,0x1E,0x81,0x3C,0x00,0x00,0x80,
	0x48,0x00,0x00,0x82,0x24,0x00,0x00,0x90,
	0x4F,0x73,0x00,0x91,0x30,0x64,0x00,0x92,
	0x2B,0x58,0x00,0x99,0x40,0x54,0x1E,0x89,
	0x40,0x00,0x1E,0x80,0x4F,0x00,0x00,0x81,
	0x30,0x00,0x00,0x90,0x4F,0x73,0x00,0x91,
	0x37,0x64,0x3C,0x80,0x4F,0x00,0x00,0x81,
	0x37,0x00,0x00,0x90,0x4F,0x73,0x00,0x91,
	0x3C,0x64,0x3C,0x82,0x2B,0x00,0x00,0x80,
	0x4F,0x00,0x00,0x81,0x3C,0x00,0x00,0x90,
	0x4F,0x73,0x00,0x91,0x40,0x64,0x01,0x99,
	0x4B,0x7F,0x1E,0x89,0x4B,0x00,0x1D,0x80,
	0x4F,0x00,0x00,0x90,0x4D,0x73,0x00,0x92,
	0x29,0x58,0x1E,0x80,0x4D,0x00,0x00,0x82,
	0x29,0x00,0x00,0x90,0x4A,0x73,0x00,0x92,
	0x26,0x58,0x1E,0x81,0x40,0x00,0x00,0x80,
	0x4A,0x00,0x00,0x82,0x26,0x00,0x00,0x90,
	0x48,0x73,0x00,0x91,0x3C,0x64,0x00,0x92,
	0x24,0x58,0x3C,0x80,0x48,0x00,0x00,0x81,
	0x3C,0x00,0x00,0x82,0x24,0x00,0x00,0x90,
	0x4A,0x73,0x00,0x91,0x32,0x64,0x00,0x92,
	0x26,0x58,0x00,0x99,0x40,0x54,0x1E,0x89,
	0x40,0x00,0x1E,0x80,0x4A,0x00,0x00,0x81,
	0x32,0x00,0x00,0x90,0x4D,0x73,0x00,0x91,
	0x3E,0x64,0x3C,0x81,0x3E,0x00,0x00,0x91,
	0x41,0x64,0x3C,0x82,0x26,0x00,0x00,0x80,
	0x4D,0x00,0x00,0x81,0x41,0x00,0x00,0x90,
	0x4A,0x73,0x00,0x91,0x45,0x64,0x01,0x99,
	0x4B,0x7F,0x1E,0x89,0x4B,0x00,0x59,0x81,
	0x45,0x00,0x00,0x91,0x41,0x64,0x82,0x1D,
	0x80,0x4A,0x00,0x00,0x81,0x41,0x00,0x00,
	0xFF,0x2F,0x00,0x00,
};

__align(4) static const unsigned char classical33_mid[] = {
    0x4D,0x54,0x68,0x64,0x00,0x00,0x00,0x06,
	0x00,0x01,0x00,0x0A,0x00,0x78,0x4D,0x54,
	0x72,0x6B,0x00,0x00,0x00,0x25,0x00,0xFF,
    0x03,0x08,0x75,0x6E,0x74,0x69,0x74,0x6C,
	0x65,0x64,0x00,0xFF,0x58,0x04,0x04,0x02,
	0x18,0x08,0x00,0xFF,0x59,0x02,0x00,0x00,
	0x00,0xFF,0x51,0x03,0x08,0x52,0xAF,0x00,
	0xFF,0x2F,0x00,0x4D,0x54,0x72,0x6B,0x00,
	0x00,0x02,0x3A,0x00,0xC0,0x50,0x00,0xB0,
	0x07,0x7F,0x7F,0xE0,0x00,0x01,0x00,0x90,
	0x54,0x73,0x01,0xE0,0x00,0x06,0x01,0x00,
	0x0B,0x01,0x00,0x10,0x01,0x00,0x16,0x02,
	0x00,0x1B,0x01,0x00,0x20,0x01,0x00,0x25,
	0x01,0x00,0x2B,0x01,0x00,0x30,0x02,0x00,
	0x35,0x01,0x00,0x3A,0x01,0x00,0x40,0x10,
	0x90,0x54,0x00,0x1E,0x51,0x71,0x1E,0x51,
	0x00,0x1E,0x54,0x77,0x01,0xE0,0x00,0x02,
	0x01,0x00,0x07,0x01,0x00,0x0D,0x01,0x00,
	0x12,0x02,0x00,0x18,0x01,0x00,0x1E,0x01,
	0x00,0x23,0x01,0x00,0x29,0x01,0x00,0x2F,
	0x02,0x00,0x34,0x01,0x00,0x3A,0x01,0x00,
	0x40,0x10,0x90,0x54,0x00,0x1E,0x51,0x77,
	0x1E,0x51,0x00,0x1E,0x54,0x73,0x01,0xE0,
	0x00,0x02,0x01,0x00,0x07,0x01,0x00,0x0D,
	0x01,0x00,0x12,0x02,0x00,0x18,0x01,0x00,
	0x1E,0x01,0x00,0x23,0x01,0x00,0x29,0x01,
	0x00,0x2F,0x02,0x00,0x34,0x01,0x00,0x3A,
	0x01,0x00,0x40,0x10,0x90,0x54,0x00,0x1E,
	0x51,0x75,0x1E,0x51,0x00,0x1E,0x4D,0x66,
	0x24,0xE0,0x00,0x40,0x01,0x00,0x3D,0x01,
	0x00,0x39,0x01,0x00,0x36,0x01,0x00,0x32,
	0x02,0x00,0x2F,0x01,0x00,0x2B,0x01,0x00,
	0x28,0x01,0x00,0x24,0x01,0x00,0x21,0x02,
	0x00,0x1D,0x01,0x00,0x1A,0x01,0x00,0x16,
	0x01,0x00,0x13,0x01,0x00,0x0F,0x02,0x00,
	0x0C,0x01,0x00,0x08,0x01,0x00,0x05,0x01,
	0x00,0x01,0x03,0x90,0x4D,0x00,0x03,0xE0,
	0x00,0x40,0x39,0x90,0x4F,0x75,0x1E,0x4F,
	0x00,0x1E,0x52,0x79,0x1E,0x52,0x00,0x1E,
	0x51,0x6F,0x1E,0x51,0x00,0x1E,0x4F,0x71,
	0x1E,0x4F,0x00,0x1E,0xE0,0x00,0x01,0x00,
	0x90,0x54,0x5E,0x01,0xE0,0x00,0x06,0x01,
	0x00,0x0B,0x01,0x00,0x10,0x01,0x00,0x16,
	0x02,0x00,0x1B,0x01,0x00,0x20,0x01,0x00,
	0x25,0x01,0x00,0x2B,0x01,0x00,0x30,0x02,
	0x00,0x35,0x01,0x00,0x3A,0x01,0x00,0x40,
	0x10,0x90,0x54,0x00,0x81,0x52,0xE0,0x00,
	0x02,0x00,0x90,0x54,0x71,0x01,0xE0,0x00,
	0x06,0x01,0x00,0x0B,0x01,0x00,0x10,0x01,
	0x00,0x15,0x02,0x00,0x19,0x01,0x00,0x1E,
	0x01,0x00,0x23,0x01,0x00,0x28,0x01,0x00,
	0x2C,0x02,0x00,0x31,0x01,0x00,0x36,0x01,
	0x00,0x3B,0x01,0x00,0x40,0x0F,0x90,0x54,
	0x00,0x1E,0x51,0x73,0x1E,0x51,0x00,0x1E,
	0x54,0x73,0x01,0xE0,0x00,0x01,0x01,0x00,
	0x06,0x01,0x00,0x0B,0x01,0x00,0x10,0x02,
	0x00,0x16,0x01,0x00,0x1B,0x01,0x00,0x20,
	0x01,0x00,0x25,0x01,0x00,0x2B,0x02,0x00,
	0x30,0x01,0x00,0x35,0x01,0x00,0x3A,0x01,
	0x00,0x40,0x0F,0x90,0x54,0x00,0x1E,0x51,
	0x71,0x1E,0x51,0x00,0x1E,0xE0,0x00,0x02,
	0x00,0x90,0x54,0x75,0x01,0xE0,0x00,0x06,
	0x01,0x00,0x0B,0x01,0x00,0x10,0x01,0x00,
	0x15,0x02,0x00,0x19,0x01,0x00,0x1E,0x01,
	0x00,0x23,0x01,0x00,0x28,0x01,0x00,0x2C,
	0x02,0x00,0x31,0x01,0x00,0x36,0x01,0x00,
	0x3B,0x01,0x00,0x40,0x0F,0x90,0x54,0x00,
	0x1E,0x51,0x77,0x1E,0x51,0x00,0x1E,0x4D,
	0x64,0x2B,0xE0,0x00,0x40,0x01,0x00,0x3C,
	0x01,0x00,0x38,0x01,0x00,0x34,0x02,0x00,
	0x30,0x01,0x00,0x2C,0x01,0x00,0x28,0x01,
	0x00,0x24,0x01,0x00,0x1F,0x02,0x00,0x1B,
	0x01,0x00,0x17,0x01,0x00,0x13,0x01,0x00,
	0x0F,0x01,0x00,0x0B,0x02,0x90,0x4D,0x00,
	0x00,0xE0,0x00,0x07,0x01,0x00,0x02,0x03,
	0x00,0x40,0x38,0x90,0x4F,0x6F,0x1E,0x4F,
	0x00,0x1E,0x52,0x79,0x1E,0x52,0x00,0x1E,
	0x51,0x75,0x1E,0x51,0x00,0x1E,0x4F,0x6D,
	0x1E,0x4F,0x00,0x1E,0x4D,0x61,0x3C,0x4D,
	0x00,0x00,0xFF,0x2F,0x00,0x4D,0x54,0x72,
	0x6B,0x00,0x00,0x01,0x51,0x00,0xC1,0x2D,
	0x00,0xB1,0x07,0x50,0x7F,0x91,0x35,0x78,
	0x1E,0x35,0x00,0x1E,0x41,0x6D,0x00,0x3C,
	0x57,0x00,0x45,0x6D,0x1E,0x45,0x00,0x00,
	0x3C,0x00,0x00,0x41,0x00,0x1E,0x30,0x6D,
	0x1E,0x30,0x00,0x1E,0x41,0x6D,0x00,0x3C,
	0x64,0x00,0x45,0x73,0x1E,0x45,0x00,0x00,
	0x3C,0x00,0x00,0x41,0x00,0x1E,0x35,0x61,
	0x1E,0x35,0x00,0x1E,0x45,0x73,0x00,0x3C,
	0x6D,0x00,0x41,0x75,0x1E,0x41,0x00,0x00,
	0x3C,0x00,0x00,0x45,0x00,0x1E,0x30,0x6D,
	0x1E,0x30,0x00,0x5A,0x37,0x71,0x1E,0x37,
	0x00,0x1E,0x48,0x69,0x00,0x40,0x69,0x00,
	0x43,0x6B,0x1E,0x43,0x00,0x00,0x40,0x00,
	0x00,0x48,0x00,0x1E,0x30,0x66,0x1E,0x30,
	0x00,0x1E,0x48,0x71,0x00,0x40,0x66,0x00,
	0x43,0x6B,0x1E,0x43,0x00,0x00,0x40,0x00,
	0x00,0x48,0x00,0x1E,0x37,0x77,0x00,0x48,
	0x78,0x00,0x40,0x75,0x00,0x43,0x77,0x1E,
	0x43,0x00,0x00,0x37,0x00,0x00,0x48,0x00,
	0x00,0x40,0x00,0x81,0x52,0x35,0x75,0x1E,
	0x35,0x00,0x1E,0x45,0x6D,0x00,0x41,0x69,
	0x00,0x3C,0x69,0x1E,0x3C,0x00,0x00,0x41,
	0x00,0x00,0x45,0x00,0x1E,0x30,0x5E,0x1E,
	0x30,0x00,0x1E,0x3C,0x6B,0x00,0x41,0x71,
	0x00,0x45,0x71,0x1E,0x45,0x00,0x00,0x41,
	0x00,0x00,0x3C,0x00,0x1E,0x35,0x6B,0x1E,
	0x35,0x00,0x1E,0x45,0x6F,0x00,0x41,0x6D,
	0x00,0x3C,0x6D,0x1E,0x3C,0x00,0x00,0x41,
	0x00,0x00,0x45,0x00,0x1E,0x30,0x66,0x00,
	0x45,0x71,0x00,0x3C,0x6D,0x00,0x41,0x6D,
	0x1E,0x41,0x00,0x00,0x30,0x00,0x00,0x45,
	0x00,0x00,0x3C,0x00,0x5A,0x30,0x6F,0x1E,
	0x30,0x00,0x1E,0x46,0x73,0x00,0x48,0x6D,
	0x00,0x43,0x6F,0x00,0x40,0x5C,0x1E,0x40,
	0x00,0x00,0x46,0x00,0x00,0x48,0x00,0x00,
	0x43,0x00,0x1E,0x2B,0x6F,0x1E,0x2B,0x00,
	0x1E,0x48,0x6B,0x00,0x40,0x5A,0x00,0x43,
	0x4B,0x1E,0x43,0x00,0x00,0x40,0x00,0x00,
	0x48,0x00,0x1E,0x29,0x73,0x00,0x45,0x71,
	0x00,0x41,0x6D,0x00,0x3C,0x6D,0x1E,0x3C,
	0x00,0x00,0x29,0x00,0x00,0x45,0x00,0x00,
	0x41,0x00,0x00,0xFF,0x2F,0x00,0x4D,0x54,
	0x72,0x6B,0x00,0x00,0x00,0xDA,0x00,0xC2,
	0x44,0x00,0xB2,0x07,0x64,0x81,0x3B,0x92,
	0x3C,0x75,0x00,0x41,0x71,0x0F,0x3C,0x00,
	0x0F,0x41,0x00,0x5A,0x3C,0x77,0x00,0x41,
	0x77,0x0F,0x41,0x00,0x00,0x3C,0x00,0x69,
	0x3C,0x77,0x00,0x41,0x75,0x0F,0x41,0x00,
	0x00,0x3C,0x00,0x2D,0x41,0x78,0x00,0x3C,
	0x78,0x0F,0x3C,0x00,0x00,0x41,0x00,0x2D,
	0x41,0x78,0x00,0x3C,0x7A,0x0F,0x3C,0x00,
	0x00,0x41,0x00,0x69,0x3C,0x73,0x00,0x43,
	0x77,0x0F,0x3C,0x00,0x0F,0x43,0x00,0x1E,
	0x3C,0x39,0x0F,0x3C,0x00,0x2D,0x3C,0x77,
	0x00,0x43,0x77,0x0F,0x43,0x00,0x00,0x3C,
	0x00,0x2D,0x43,0x75,0x00,0x3C,0x77,0x0F,
	0x3C,0x00,0x00,0x43,0x00,0x82,0x1D,0x3C,
	0x77,0x00,0x41,0x75,0x0F,0x41,0x00,0x00,
	0x3C,0x00,0x69,0x3C,0x78,0x00,0x41,0x75,
	0x0F,0x41,0x00,0x00,0x3C,0x00,0x69,0x3C,
	0x78,0x00,0x41,0x77,0x0F,0x41,0x00,0x00,
	0x3C,0x00,0x2D,0x41,0x77,0x00,0x3C,0x77,
	0x0F,0x3C,0x00,0x00,0x41,0x00,0x2D,0x41,
	0x77,0x00,0x3C,0x79,0x0F,0x3C,0x00,0x00,
	0x41,0x00,0x2D,0x3C,0x39,0x0F,0x3C,0x00,
	0x2D,0x3C,0x78,0x00,0x40,0x78,0x0F,0x40,
	0x00,0x00,0x3C,0x00,0x69,0x40,0x79,0x00,
	0x3C,0x77,0x0F,0x3C,0x00,0x00,0x40,0x00,
	0x2D,0x41,0x77,0x00,0x3C,0x77,0x0F,0x3C,
	0x00,0x0F,0x41,0x00,0x00,0xFF,0x2F,0x00,
	0x4D,0x54,0x72,0x6B,0x00,0x00,0x00,0x92,
	0x00,0xC3,0x47,0x00,0xB3,0x07,0x7F,0x84,
	0x5F,0x93,0x37,0x75,0x1E,0x37,0x00,0x00,
	0x39,0x51,0x1E,0x39,0x00,0x00,0x3A,0x7A,
	0x1E,0x3A,0x00,0x00,0x3B,0x66,0x1E,0x3B,
	0x00,0x00,0x3C,0x5C,0x1E,0x3C,0x00,0x00,
	0x3D,0x7A,0x1E,0x3D,0x00,0x00,0x3E,0x75,
	0x1E,0x3E,0x00,0x00,0x3F,0x7A,0x1E,0x3F,
	0x00,0x00,0x40,0x6B,0x1E,0x40,0x00,0x82,
	0x0E,0x41,0x49,0x1E,0x41,0x00,0x5A,0x41,
	0x69,0x1E,0x41,0x00,0x5A,0x41,0x48,0x1E,
	0x41,0x00,0x1E,0x41,0x5A,0x1E,0x41,0x00,
	0x5A,0x3C,0x6F,0x1E,0x3C,0x00,0x00,0x3D,
	0x78,0x1E,0x3D,0x00,0x00,0x3E,0x77,0x1E,
	0x3E,0x00,0x00,0x3F,0x7A,0x1E,0x3F,0x00,
	0x00,0x40,0x71,0x1E,0x40,0x00,0x00,0x41,
	0x69,0x1E,0x41,0x00,0x00,0x42,0x79,0x1E,
	0x42,0x00,0x00,0x43,0x5A,0x1E,0x43,0x00,
	0x00,0x45,0x73,0x1E,0x45,0x00,0x00,0xFF,
	0x2F,0x00,0x4D,0x54,0x72,0x6B,0x00,0x00,
	0x01,0x33,0x00,0xC4,0x0B,0x00,0xB4,0x07,
	0x64,0x00,0x94,0x35,0x71,0x02,0x37,0x6D,
	0x05,0x35,0x00,0x02,0x39,0x4C,0x05,0x37,
	0x00,0x01,0x3B,0x51,0x03,0x39,0x00,0x02,
	0x3C,0x64,0x02,0x3B,0x00,0x03,0x3E,0x77,
	0x01,0x3C,0x00,0x03,0x40,0x6B,0x03,0x3E,
	0x00,0x02,0x41,0x5E,0x02,0x40,0x00,0x03,
	0x43,0x69,0x02,0x41,0x00,0x03,0x45,0x6F,
	0x02,0x43,0x00,0x02,0x47,0x79,0x02,0x45,
	0x00,0x03,0x48,0x78,0x02,0x47,0x00,0x03,
	0x4A,0x78,0x02,0x48,0x00,0x03,0x4C,0x78,
	0x02,0x4A,0x00,0x03,0x4D,0x78,0x03,0x4C,
	0x00,0x02,0x4F,0x78,0x01,0x4D,0x00,0x03,
	0x51,0x77,0x02,0x4F,0x00,0x03,0x53,0x75,
	0x02,0x51,0x00,0x03,0x53,0x00,0x00,0x54,
	0x78,0x01,0x53,0x2D,0x00,0x53,0x00,0x03,
	0x56,0x77,0x02,0x54,0x00,0x03,0x58,0x77,
	0x02,0x56,0x00,0x03,0x59,0x79,0x01,0x58,
	0x00,0x04,0x59,0x00,0x00,0x5B,0x77,0x03,
	0x5B,0x00,0x03,0x5D,0x4D,0x01,0x5D,0x00,
	0x0E,0x54,0x73,0x1E,0x54,0x00,0x1E,0x51,
	0x71,0x1E,0x51,0x00,0x1E,0x54,0x77,0x1E,
	0x54,0x00,0x1E,0x51,0x77,0x1E,0x51,0x00,
	0x1E,0x54,0x73,0x1E,0x54,0x00,0x1E,0x51,
	0x75,0x1E,0x51,0x00,0x1E,0x4D,0x66,0x3C,
	0x4D,0x00,0x3C,0x4F,0x75,0x1E,0x4F,0x00,
	0x1E,0x52,0x79,0x1E,0x52,0x00,0x1E,0x51,
	0x6F,0x1E,0x51,0x00,0x1E,0x4F,0x71,0x1E,
	0x4F,0x00,0x1E,0x54,0x5E,0x1E,0x54,0x00,
	0x81,0x52,0x54,0x71,0x1E,0x54,0x00,0x1E,
	0x51,0x73,0x1E,0x51,0x00,0x1E,0x54,0x73,
	0x1E,0x54,0x00,0x1E,0x51,0x71,0x1E,0x51,
	0x00,0x1E,0x54,0x75,0x1E,0x54,0x00,0x1E,
	0x51,0x77,0x1E,0x51,0x00,0x1E,0x4D,0x64,
	0x3C,0x4D,0x00,0x3C,0x4F,0x6F,0x1E,0x4F,
	0x00,0x1E,0x52,0x79,0x1E,0x52,0x00,0x1E,
	0x51,0x75,0x1E,0x51,0x00,0x1E,0x4F,0x6D,
	0x1E,0x4F,0x00,0x1E,0x4D,0x61,0x3C,0x4D,
	0x00,0x00,0xFF,0x2F,0x00,0x4D,0x54,0x72,
	0x6B,0x00,0x00,0x00,0xDB,0x00,0xC5,0x6A,
	0x00,0xB5,0x07,0x7F,0x87,0x11,0x01,0x04,
	0x03,0x01,0x10,0x03,0x01,0x1A,0x01,0x01,
	0x23,0x02,0x01,0x2A,0x02,0x01,0x33,0x02,
	0x01,0x3C,0x02,0x01,0x44,0x03,0x01,0x4D,
	0x02,0x01,0x55,0x03,0x01,0x5B,0x02,0x01,
	0x60,0x02,0x01,0x64,0x03,0x01,0x68,0x01,
	0x01,0x6B,0x03,0x01,0x6F,0x02,0x01,0x72,
	0x03,0x01,0x75,0x02,0x01,0x77,0x02,0x01,
	0x79,0x02,0x01,0x7C,0x02,0x01,0x7E,0x02,
	0x01,0x7F,0x05,0x95,0x3C,0x7E,0x81,0x07,
	0xB5,0x01,0x7A,0x03,0x01,0x75,0x02,0x01,
	0x72,0x02,0x01,0x6D,0x02,0x01,0x68,0x02,
	0x01,0x64,0x03,0x01,0x60,0x02,0x01,0x5D,
	0x03,0x01,0x59,0x02,0x01,0x55,0x02,0x01,
	0x50,0x02,0x01,0x4B,0x03,0x01,0x45,0x02,
	0x01,0x3E,0x02,0x01,0x39,0x02,0x01,0x34,
	0x02,0x01,0x30,0x02,0x01,0x2C,0x03,0x01,
	0x28,0x02,0x01,0x23,0x03,0x01,0x1E,0x02,
	0x01,0x19,0x03,0x01,0x14,0x02,0x01,0x0E,
	0x02,0x01,0x09,0x03,0x01,0x00,0x11,0x95,
	0x3C,0x00,0x85,0x1F,0xB5,0x01,0x04,0x02,
	0x01,0x0C,0x03,0x01,0x14,0x02,0x01,0x1C,
	0x02,0x01,0x26,0x02,0x01,0x31,0x02,0x01,
	0x39,0x02,0x01,0x43,0x02,0x01,0x4C,0x02,
	0x01,0x56,0x02,0x01,0x5F,0x02,0x01,0x67,
	0x02,0x01,0x6E,0x02,0x01,0x74,0x02,0x01,
	0x7D,0x02,0x01,0x7F,0x00,0xFF,0x2F,0x00,
	0x4D,0x54,0x72,0x6B,0x00,0x00,0x00,0x9D,
	0x00,0xC6,0x39,0x00,0xB6,0x07,0x70,0x7F,
	0x96,0x41,0x77,0x0F,0x41,0x00,0x2D,0x3C,
	0x75,0x0F,0x3C,0x00,0x2D,0x41,0x77,0x0F,
	0x41,0x00,0x2D,0x3C,0x77,0x0F,0x3C,0x00,
	0x2D,0x41,0x78,0x0F,0x41,0x00,0x2D,0x3C,
	0x78,0x0F,0x3C,0x00,0x2D,0x39,0x73,0x5A,
	0x39,0x00,0x1E,0x3A,0x7C,0x0F,0x3A,0x00,
	0x2D,0x40,0x78,0x0F,0x40,0x00,0x2D,0x3E,
	0x79,0x0F,0x3E,0x00,0x2D,0x3C,0x71,0x0F,
	0x3C,0x00,0x2D,0x40,0x7A,0x3C,0x40,0x00,
	0x81,0x34,0x41,0x78,0x0F,0x41,0x00,0x2D,
	0x3C,0x77,0x0F,0x3C,0x00,0x2D,0x41,0x77,
	0x0F,0x41,0x00,0x2D,0x3C,0x77,0x0F,0x3C,
	0x00,0x2D,0x41,0x77,0x0F,0x41,0x00,0x2D,
	0x3C,0x77,0x0F,0x3C,0x00,0x2D,0x39,0x75,
	0x5A,0x39,0x00,0x1E,0x3A,0x7A,0x0F,0x3A,
	0x00,0x2D,0x40,0x78,0x1E,0x40,0x00,0x1E,
	0x3E,0x78,0x0F,0x3E,0x00,0x2D,0x3C,0x6B,
	0x0F,0x3C,0x00,0x2D,0x39,0x77,0x2D,0x39,
	0x00,0x00,0xFF,0x2F,0x00,0x4D,0x54,0x72,
	0x6B,0x00,0x00,0x00,0x56,0x00,0xC7,0x20,
	0x00,0xB7,0x07,0x7F,0x81,0x02,0x97,0x29,
	0x78,0x1E,0x29,0x00,0x5A,0x24,0x6D,0x1E,
	0x24,0x00,0x5A,0x29,0x61,0x1E,0x29,0x00,
	0x5A,0x24,0x6D,0x1E,0x24,0x00,0x5A,0x2B,
	0x71,0x1E,0x2B,0x00,0x5A,0x24,0x66,0x1E,
	0x24,0x00,0x5A,0x2B,0x77,0x1E,0x2B,0x00,
	0x81,0x52,0x29,0x75,0x1E,0x29,0x00,0x5A,
	0x24,0x5E,0x1E,0x24,0x00,0x5A,0x29,0x6B,
	0x1E,0x29,0x00,0x5A,0x24,0x66,0x1E,0x24,
	0x00,0x5A,0x24,0x6F,0x1E,0x24,0x00,0x00,
	0xFF,0x2F,0x00,0x4D,0x54,0x72,0x6B,0x00,
	0x00,0x01,0x45,0x00,0xC9,0x00,0x00,0xB9,
	0x07,0x7F,0x7F,0x99,0x4C,0x75,0x1E,0x4C,
	0x00,0x00,0x4C,0x75,0x1E,0x4C,0x00,0x00,
	0x38,0x79,0x1E,0x38,0x00,0x1E,0x4C,0x7C,
	0x00,0x46,0x79,0x1E,0x46,0x00,0x00,0x4C,
	0x00,0x00,0x52,0x6F,0x1E,0x52,0x00,0x00,
	0x38,0x78,0x00,0x52,0x6F,0x1E,0x52,0x00,
	0x00,0x38,0x00,0x1E,0x4C,0x78,0x00,0x46,
	0x79,0x1E,0x46,0x00,0x00,0x4C,0x00,0x00,
	0x4C,0x75,0x1E,0x4C,0x00,0x00,0x38,0x78,
	0x1E,0x38,0x00,0x1E,0x4C,0x7A,0x00,0x46,
	0x79,0x00,0x52,0x7C,0x1E,0x52,0x00,0x00,
	0x46,0x00,0x00,0x4C,0x00,0x5A,0x4C,0x7A,
	0x00,0x46,0x77,0x1E,0x46,0x00,0x00,0x4C,
	0x00,0x00,0x4C,0x73,0x00,0x52,0x5E,0x1E,
	0x52,0x00,0x00,0x4C,0x00,0x00,0x38,0x78,
	0x00,0x52,0x77,0x1E,0x52,0x00,0x00,0x38,
	0x00,0x1E,0x4C,0x79,0x00,0x46,0x79,0x1E,
	0x46,0x00,0x00,0x4C,0x00,0x1E,0x38,0x77,
	0x00,0x52,0x78,0x1E,0x52,0x00,0x00,0x38,
	0x00,0x81,0x16,0x45,0x78,0x1E,0x45,0x00,
	0x1E,0x45,0x78,0x1E,0x45,0x00,0x1E,0x4C,
	0x79,0x1E,0x4C,0x00,0x00,0x4C,0x69,0x1E,
	0x4C,0x00,0x00,0x38,0x6F,0x00,0x52,0x71,
	0x1E,0x52,0x00,0x00,0x38,0x00,0x00,0x52,
	0x69,0x1E,0x52,0x00,0x00,0x4C,0x78,0x00,
	0x46,0x77,0x1E,0x46,0x00,0x00,0x4C,0x00,
	0x00,0x4C,0x5E,0x1E,0x4C,0x00,0x00,0x38,
	0x3E,0x00,0x38,0x00,0x00,0x52,0x78,0x1E,
	0x52,0x00,0x1E,0x4C,0x78,0x1E,0x4C,0x00,
	0x1E,0x38,0x77,0x00,0x4B,0x32,0x00,0x4B,
	0x00,0x1E,0x38,0x00,0x1E,0x4C,0x7A,0x00,
	0x4B,0x75,0x1E,0x4C,0x00,0x1E,0x4B,0x00,
	0x3C,0x4C,0x7D,0x00,0x46,0x75,0x1E,0x46,
	0x00,0x00,0x4C,0x00,0x00,0x4C,0x6F,0x1E,
	0x4C,0x00,0x00,0x38,0x79,0x00,0x4A,0x78,
	0x1E,0x4A,0x00,0x00,0x38,0x00,0x1E,0x4C,
	0x7A,0x1E,0x4C,0x00,0x1E,0x38,0x79,0x00,
	0x4A,0x77,0x1E,0x4A,0x00,0x00,0x38,0x00,
	0x1E,0x4C,0x7D,0x00,0x4A,0x79,0x1E,0x4C,
	0x00,0x1E,0x4A,0x00,0x00,0xFF,0x2F,0x00,
};

__align(4) static const unsigned char classical35_mid[] = {
    0x4D,0x54,0x68,0x64,0x00,0x00,0x00,0x06,
	0x00,0x00,0x00,0x01,0x01,0xE0,0x4D,0x54,
	0x72,0x6B,0x00,0x00,0x0E,0x7A,0x00,0xFF,
	0x03,0x06,0xBB,0xFA,0xC6,0xF7,0xC3,0xA8,
	0x00,0xFF,0x58,0x04,0x04,0x02,0x18,0x08,
	0x00,0xFF,0x51,0x03,0x06,0xAE,0xC4,0x00,
	0xFF,0x01,0x09,0x2E,0x75,0x2E,0x2E,0x66,
	0x2E,0x2E,0x72,0x0A,0x00,0xFF,0x59,0x02,
	0x00,0x00,0x00,0xB1,0x07,0x6E,0x00,0x0A,
	0x40,0x00,0xB2,0x07,0x78,0x00,0x0A,0x14,
	0x00,0x00,0x00,0x00,0x07,0x5F,0x00,0x0A,
	0x2F,0x00,0xB3,0x00,0x00,0x00,0x07,0x7F,
	0x00,0x0A,0x40,0x00,0x00,0x08,0x00,0x07,
	0x7F,0x00,0x0A,0x40,0x00,0xB7,0x07,0x5F,
	0x00,0x0A,0x60,0x00,0xB8,0x07,0x78,0x00,
	0x0A,0x0F,0x00,0xC9,0x00,0x00,0xB9,0x07,
	0x7F,0x00,0x0A,0x40,0x00,0xC9,0x10,0x00,
	0xB9,0x07,0x7F,0x00,0x0A,0x40,0x00,0x93,
	0x4D,0x7F,0x04,0xB7,0x20,0x00,0x00,0xB1,
	0x00,0x00,0x00,0x00,0x00,0x00,0xB2,0x00,
	0x00,0x00,0x00,0x00,0x00,0xB3,0x00,0x08,
	0x00,0xB7,0x00,0x00,0x00,0xB8,0x00,0x00,
	0x00,0xB1,0x20,0x00,0x00,0xB2,0x20,0x00,
	0x00,0xB1,0x20,0x00,0x00,0xB3,0x20,0x00,
	0x00,0xB7,0x20,0x00,0x00,0xB2,0x20,0x00,
	0x00,0xB8,0x20,0x00,0x04,0xB2,0x20,0x00,
	0x00,0xC2,0x3D,0x00,0xC1,0x26,0x00,0x21,
	0x00,0xB1,0x20,0x00,0x00,0xC3,0x50,0x00,
	0xC2,0x19,0x00,0xB2,0x20,0x00,0x00,0xC7,
	0x3D,0x00,0xB8,0x20,0x00,0x00,0xB3,0x20,
	0x00,0x00,0xB1,0x20,0x00,0x00,0xC8,0x0B,
	0x04,0x99,0x2A,0x5C,0x00,0x91,0x2E,0x59,
	0x00,0x99,0x36,0x36,0x00,0x98,0x41,0x48,
	0x08,0x99,0x24,0x46,0x04,0x92,0x46,0x5C,
	0x08,0x4A,0x60,0x00,0x4D,0x5D,0x32,0x89,
	0x36,0x40,0x00,0x24,0x40,0x04,0x2A,0x40,
	0x81,0x18,0x83,0x4D,0x40,0x4C,0x82,0x46,
	0x40,0x00,0x4A,0x40,0x00,0x4D,0x40,0x06,
	0x99,0x28,0x3D,0x00,0x2A,0x4C,0x00,0x36,
	0x46,0x04,0x92,0x46,0x59,0x00,0x4A,0x62,
	0x00,0x4D,0x60,0x02,0x81,0x2E,0x40,0x22,
	0x93,0x52,0x7F,0x0E,0x89,0x36,0x40,0x0C,
	0x82,0x46,0x40,0x08,0x89,0x28,0x40,0x04,
	0x2A,0x40,0x00,0x82,0x4A,0x40,0x04,0x4D,
	0x40,0x4C,0x83,0x52,0x40,0x02,0x99,0x2A,
	0x5C,0x00,0x93,0x52,0x7F,0x04,0x91,0x2D,
	0x56,0x00,0x99,0x36,0x36,0x04,0x24,0x46,
	0x4A,0x89,0x36,0x40,0x0C,0x2A,0x40,0x0C,
	0x24,0x40,0x81,0x04,0x83,0x52,0x40,0x4C,
	0x81,0x2D,0x40,0x06,0x99,0x28,0x3D,0x00,
	0x2A,0x4C,0x00,0x36,0x46,0x04,0x92,0x46,
	0x5D,0x00,0x4A,0x5C,0x00,0x4D,0x5C,0x22,
	0x89,0x36,0x40,0x02,0x93,0x56,0x7F,0x12,
	0x89,0x2A,0x40,0x10,0x28,0x40,0x04,0x82,
	0x4A,0x40,0x08,0x46,0x40,0x08,0x4D,0x40,
	0x40,0x83,0x56,0x40,0x02,0x99,0x2A,0x5C,
	0x00,0x93,0x5B,0x7F,0x04,0x91,0x2B,0x56,
	0x04,0x99,0x24,0x46,0x00,0x36,0x36,0x3A,
	0x89,0x36,0x40,0x10,0x24,0x40,0x10,0x2A,
	0x40,0x81,0x0C,0x83,0x5B,0x40,0x52,0x99,
	0x2A,0x4C,0x00,0x36,0x46,0x04,0x28,0x3D,
	0x00,0x92,0x46,0x5D,0x00,0x4A,0x5C,0x08,
	0x4D,0x60,0x06,0x81,0x2B,0x40,0x16,0x93,
	0x56,0x7F,0x0A,0x89,0x2A,0x40,0x00,0x36,
	0x40,0x10,0x82,0x4A,0x40,0x0C,0x89,0x28,
	0x40,0x00,0x82,0x46,0x40,0x10,0x4D,0x40,
	0x40,0x83,0x56,0x40,0x02,0x93,0x59,0x7F,
	0x04,0x91,0x29,0x58,0x04,0x99,0x24,0x46,
	0x00,0x2A,0x5C,0x00,0x36,0x36,0x3E,0x89,
	0x36,0x40,0x14,0x24,0x40,0x00,0x2A,0x40,
	0x81,0x14,0x83,0x59,0x40,0x50,0x81,0x29,
	0x40,0x02,0x99,0x36,0x46,0x04,0x28,0x3D,
	0x00,0x2A,0x4C,0x00,0x92,0x46,0x5A,0x08,
	0x4A,0x60,0x00,0x4D,0x5A,0x1E,0x89,0x36,
	0x40,0x04,0x2A,0x40,0x08,0x82,0x4A,0x40,
	0x14,0x89,0x28,0x40,0x00,0x82,0x46,0x40,
	0x08,0x4D,0x40,0x48,0x88,0x41,0x40,0x06,
	0x93,0x59,0x7F,0x04,0x98,0x4D,0x48,0x04,
	0x91,0x2E,0x59,0x00,0x99,0x36,0x36,0x04,
	0x24,0x46,0x00,0x2A,0x5C,0x04,0x92,0x46,
	0x5F,0x04,0x4A,0x60,0x04,0x4D,0x61,0x32,
	0x89,0x24,0x40,0x08,0x36,0x40,0x04,0x2A,
	0x40,0x81,0x18,0x83,0x59,0x40,0x48,0x81,
	0x2E,0x40,0x04,0x82,0x46,0x40,0x00,0x4A,
	0x40,0x00,0x4D,0x40,0x06,0x99,0x28,0x3D,
	0x00,0x2A,0x4C,0x00,0x36,0x46,0x04,0x92,
	0x46,0x5A,0x00,0x4A,0x61,0x00,0x4D,0x60,
	0x24,0x93,0x5B,0x7F,0x0E,0x89,0x36,0x40,
	0x04,0x82,0x46,0x40,0x08,0x4A,0x40,0x00,
	0x4D,0x40,0x04,0x89,0x28,0x40,0x08,0x2A,
	0x40,0x50,0x83,0x5B,0x40,0x02,0x99,0x2A,
	0x5C,0x00,0x93,0x59,0x7F,0x04,0x91,0x29,
	0x56,0x00,0x99,0x36,0x36,0x04,0x24,0x46,
	0x4A,0x89,0x36,0x40,0x00,0x24,0x40,0x0C,
	0x2A,0x40,0x81,0x10,0x83,0x59,0x40,0x52,
	0x99,0x28,0x3D,0x00,0x2A,0x4C,0x00,0x36,
	0x46,0x0E,0x81,0x29,0x40,0x18,0x89,0x36,
	0x40,0x02,0x93,0x56,0x7F,0x12,0x89,0x2A,
	0x40,0x10,0x28,0x40,0x54,0x83,0x56,0x40,
	0x02,0x99,0x2A,0x5C,0x00,0x93,0x57,0x7F,
	0x04,0x91,0x30,0x56,0x04,0x99,0x24,0x46,
	0x00,0x36,0x36,0x04,0x92,0x45,0x5D,0x00,
	0x48,0x61,0x04,0x4D,0x5F,0x32,0x89,0x36,
	0x40,0x04,0x24,0x40,0x1C,0x2A,0x40,0x81,
	0x0C,0x83,0x57,0x40,0x24,0x81,0x30,0x40,
	0x28,0x82,0x45,0x40,0x00,0x48,0x40,0x00,
	0x4D,0x40,0x06,0x99,0x28,0x3D,0x00,0x2A,
	0x4C,0x00,0x36,0x46,0x00,0x92,0x45,0x5D,
	0x04,0x48,0x62,0x00,0x4D,0x60,0x24,0x93,
	0x56,0x7F,0x0A,0x89,0x2A,0x40,0x00,0x36,
	0x40,0x18,0x82,0x48,0x40,0x04,0x89,0x28,
	0x40,0x00,0x82,0x45,0x40,0x14,0x4D,0x40,
	0x3A,0x91,0x29,0x57,0x02,0x83,0x56,0x40,
	0x02,0x99,0x2A,0x5C,0x00,0x93,0x54,0x7F,
	0x04,0x99,0x24,0x46,0x00,0x36,0x36,0x3E,
	0x89,0x36,0x40,0x08,0x24,0x40,0x14,0x2A,
	0x40,0x81,0x10,0x83,0x54,0x40,0x52,0x99,
	0x28,0x3D,0x00,0x2A,0x4C,0x00,0x36,0x46,
	0x1A,0x81,0x29,0x40,0x10,0x89,0x36,0x40,
	0x08,0x2A,0x40,0x18,0x28,0x40,0x50,0x88,
	0x4D,0x40,0x06,0x93,0x4F,0x7F,0x08,0x91,
	0x30,0x58,0x04,0x99,0x24,0x46,0x00,0x2A,
	0x5C,0x00,0x36,0x36,0x00,0x98,0x43,0x48,
	0x0C,0x92,0x43,0x60,0x00,0x48,0x60,0x08,
	0x4B,0x61,0x26,0x89,0x24,0x40,0x0C,0x36,
	0x40,0x04,0x2A,0x40,0x81,0x64,0x82,0x43,
	0x40,0x00,0x48,0x40,0x00,0x4B,0x40,0x06,
	0x99,0x28,0x3D,0x00,0x2A,0x4C,0x00,0x36,
	0x46,0x04,0x92,0x43,0x60,0x00,0x48,0x63,
	0x00,0x4B,0x63,0x22,0x83,0x4F,0x40,0x02,
	0x93,0x54,0x7F,0x0E,0x89,0x36,0x40,0x10,
	0x81,0x30,0x40,0x04,0x89,0x28,0x40,0x00,
	0x82,0x43,0x40,0x04,0x89,0x2A,0x40,0x04,
	0x82,0x48,0x40,0x18,0x4B,0x40,0x32,0x91,
	0x30,0x57,0x02,0x83,0x54,0x40,0x02,0x99,
	0x24,0x46,0x00,0x93,0x54,0x7F,0x04,0x99,
	0x2A,0x5C,0x00,0x36,0x36,0x4A,0x89,0x24,
	0x40,0x04,0x36,0x40,0x0C,0x2A,0x40,0x81,
	0x10,0x83,0x54,0x40,0x50,0x81,0x30,0x40,
	0x02,0x99,0x28,0x3D,0x00,0x2A,0x4C,0x00,
	0x36,0x46,0x26,0x89,0x36,0x40,0x02,0x93,
	0x57,0x7F,0x12,0x89,0x28,0x40,0x04,0x2A,
	0x40,0x5E,0x91,0x29,0x57,0x02,0x83,0x57,
	0x40,0x02,0x93,0x5D,0x7F,0x04,0x99,0x36,
	0x36,0x04,0x24,0x46,0x00,0x2A,0x5C,0x08,
	0x92,0x45,0x5C,0x00,0x48,0x63,0x04,0x4D,
	0x63,0x2E,0x89,0x36,0x40,0x0C,0x24,0x40,
	0x14,0x2A,0x40,0x81,0x0C,0x83,0x5D,0x40,
	0x4C,0x82,0x45,0x40,0x00,0x48,0x40,0x00,
	0x4D,0x40,0x06,0x99,0x28,0x3D,0x00,0x2A,
	0x4C,0x00,0x36,0x46,0x04,0x92,0x45,0x60,
	0x00,0x48,0x63,0x00,0x4D,0x66,0x02,0x81,
	0x29,0x40,0x22,0x93,0x5D,0x7F,0x0A,0x89,
	0x2A,0x40,0x00,0x36,0x40,0x08,0x28,0x40,
	0x24,0x82,0x45,0x40,0x00,0x48,0x40,0x18,
	0x4D,0x40,0x26,0x91,0x30,0x58,0x02,0x83,
	0x5D,0x40,0x02,0x99,0x24,0x46,0x00,0x93,
	0x5B,0x7F,0x04,0x99,0x2A,0x5C,0x00,0x36,
	0x36,0x46,0x89,0x36,0x40,0x08,0x24,0x40,
	0x0C,0x2A,0x40,0x81,0x10,0x83,0x5B,0x40,
	0x52,0x99,0x28,0x3D,0x00,0x2A,0x4C,0x00,
	0x36,0x46,0x0E,0x81,0x30,0x40,0x1A,0x93,
	0x59,0x7F,0x02,0x89,0x36,0x40,0x08,0x2A,
	0x40,0x04,0x28,0x40,0x64,0x88,0x43,0x40,
	0x04,0x83,0x59,0x40,0x02,0x93,0x57,0x7F,
	0x04,0x91,0x33,0x58,0x00,0x98,0x4B,0x48,
	0x04,0x99,0x2A,0x5C,0x00,0x36,0x36,0x04,
	0x24,0x46,0x04,0x92,0x43,0x60,0x00,0x46,
	0x67,0x04,0x4B,0x69,0x2E,0x89,0x24,0x40,
	0x10,0x36,0x40,0x04,0x2A,0x40,0x81,0x64,
	0x82,0x43,0x40,0x00,0x46,0x40,0x00,0x4B,
	0x40,0x06,0x99,0x28,0x3D,0x00,0x2A,0x4C,
	0x00,0x36,0x46,0x04,0x92,0x43,0x5D,0x00,
	0x46,0x62,0x00,0x4B,0x66,0x02,0x81,0x33,
	0x40,0x20,0x83,0x57,0x40,0x10,0x89,0x36,
	0x40,0x10,0x28,0x40,0x04,0x82,0x43,0x40,
	0x04,0x89,0x2A,0x40,0x00,0x82,0x46,0x40,
	0x00,0x4B,0x40,0x4E,0x91,0x2B,0x56,0x04,
	0x99,0x24,0x46,0x00,0x93,0x57,0x7F,0x04,
	0x99,0x2A,0x5C,0x00,0x36,0x36,0x46,0x89,
	0x24,0x40,0x08,0x36,0x40,0x0C,0x2A,0x40,
	0x81,0x10,0x83,0x57,0x40,0x52,0x99,0x28,
	0x3D,0x00,0x2A,0x4C,0x00,0x36,0x46,0x04,
	0x92,0x43,0x5E,0x00,0x46,0x5D,0x00,0x4B,
	0x5F,0x22,0x89,0x36,0x40,0x02,0x93,0x56,
	0x7F,0x12,0x81,0x2B,0x40,0x00,0x89,0x2A,
	0x40,0x10,0x82,0x43,0x40,0x04,0x89,0x28,
	0x40,0x14,0x82,0x46,0x40,0x04,0x4B,0x40,
	0x36,0x91,0x33,0x56,0x02,0x83,0x56,0x40,
	0x02,0x93,0x4F,0x7F,0x04,0x99,0x36,0x36,
	0x04,0x24,0x46,0x00,0x2A,0x5C,0x3A,0x89,
	0x36,0x40,0x0C,0x24,0x40,0x14,0x2A,0x40,
	0x81,0x5E,0x99,0x28,0x3D,0x00,0x2A,0x4C,
	0x00,0x36,0x46,0x04,0x92,0x43,0x60,0x00,
	0x46,0x63,0x00,0x4B,0x61,0x1A,0x81,0x33,
	0x40,0x08,0x83,0x4F,0x40,0x02,0x93,0x51,
	0x7F,0x0A,0x89,0x2A,0x40,0x00,0x36,0x40,
	0x18,0x28,0x40,0x00,0x82,0x43,0x40,0x20,
	0x46,0x40,0x08,0x4B,0x40,0x2A,0x91,0x32,
	0x55,0x04,0x99,0x24,0x46,0x04,0x36,0x36,
	0x04,0x2A,0x5C,0x42,0x89,0x36,0x40,0x10,
	0x2A,0x40,0x08,0x24,0x40,0x14,0x83,0x51,
	0x40,0x7A,0x93,0x52,0x7F,0x50,0x99,0x2A,
	0x4C,0x00,0x36,0x46,0x04,0x28,0x3D,0x06,
	0x81,0x32,0x40,0x02,0x92,0x43,0x5C,0x00,
	0x46,0x58,0x00,0x4B,0x5A,0x1E,0x89,0x36,
	0x40,0x08,0x2A,0x40,0x14,0x82,0x43,0x40,
	0x00,0x46,0x40,0x08,0x89,0x28,0x40,0x10,
	0x82,0x4B,0x40,0x3C,0x88,0x4B,0x40,0x04,
	0x83,0x52,0x40,0x02,0x93,0x54,0x7F,0x04,
	0x91,0x30,0x56,0x00,0x98,0x41,0x48,0x04,
	0x99,0x2A,0x5C,0x00,0x36,0x36,0x04,0x24,
	0x46,0x04,0x92,0x45,0x60,0x00,0x48,0x60,
	0x04,0x4D,0x63,0x3E,0x89,0x36,0x40,0x00,
	0x24,0x40,0x04,0x2A,0x40,0x81,0x64,0x82,
	0x45,0x40,0x00,0x48,0x40,0x00,0x4D,0x40,
	0x06,0x99,0x2A,0x4C,0x00,0x36,0x46,0x04,
	0x28,0x3D,0x08,0x92,0x45,0x62,0x00,0x48,
	0x64,0x00,0x4D,0x67,0x02,0x81,0x30,0x40,
	0x28,0x89,0x36,0x40,0x14,0x28,0x40,0x04,
	0x2A,0x40,0x04,0x82,0x48,0x40,0x04,0x45,
	0x40,0x18,0x4D,0x40,0x36,0x91,0x29,0x56,
	0x04,0x99,0x24,0x46,0x00,0x2A,0x5C,0x00,
	0x36,0x36,0x1C,0xB3,0x01,0x32,0x2E,0x89,
	0x36,0x40,0x08,0x2A,0x40,0x10,0x24,0x40,
	0x81,0x56,0x99,0x2A,0x4C,0x00,0x36,0x46,
	0x04,0x28,0x3D,0x08,0x92,0x45,0x60,0x00,
	0x48,0x61,0x00,0x4D,0x63,0x16,0x81,0x29,
	0x40,0x04,0x89,0x36,0x40,0x14,0x2A,0x40,
	0x10,0x28,0x40,0x10,0x82,0x45,0x40,0x04,
	0x48,0x40,0x14,0x4D,0x40,0x32,0x91,0x29,
	0x56,0x04,0x99,0x24,0x46,0x00,0x2A,0x5C,
	0x00,0x36,0x36,0x3A,0x89,0x36,0x40,0x20,
	0x2A,0x40,0x18,0x24,0x40,0x48,0x81,0x29,
	0x40,0x7A,0x91,0x29,0x56,0x08,0x99,0x28,
	0x3D,0x00,0x2A,0x4C,0x00,0x36,0x46,0x08,
	0x92,0x45,0x60,0x04,0x48,0x61,0x00,0x4D,
	0x62,0x1E,0x89,0x2A,0x40,0x00,0x36,0x40,
	0x1C,0x28,0x40,0x10,0x82,0x45,0x40,0x04,
	0x48,0x40,0x14,0x4D,0x40,0x04,0x81,0x29,
	0x40,0x28,0x83,0x54,0x40,0x06,0x91,0x2B,
	0x56,0x04,0x99,0x24,0x46,0x00,0x28,0x2D,
	0x00,0x36,0x36,0x32,0x89,0x24,0x40,0x0C,
	0x28,0x40,0x00,0x36,0x40,0x5A,0x99,0x28,
	0x2D,0x42,0x81,0x2B,0x40,0x08,0x89,0x28,
	0x40,0x52,0x91,0x2D,0x57,0x04,0x99,0x28,
	0x3D,0x04,0x36,0x46,0x00,0x92,0x45,0x62,
	0x00,0x48,0x63,0x00,0x4D,0x69,0x26,0x89,
	0x36,0x40,0x10,0x28,0x40,0x10,0x82,0x45,
	0x40,0x14,0x81,0x2D,0x40,0x08,0x82,0x48,
	0x40,0x04,0x4D,0x40,0x30,0x88,0x41,0x40,
	0x06,0x93,0x4D,0x7F,0x08,0x91,0x2E,0x58,
	0x04,0x99,0x24,0x46,0x00,0x2A,0x5C,0x00,
	0x36,0x36,0x00,0x98,0x41,0x48,0x08,0x92,
	0x46,0x5C,0x04,0xB3,0x01,0x00,0x00,0x92,
	0x4A,0x60,0x00,0x4D,0x5D,0x3A,0x89,0x24,
	0x40,0x00,0x36,0x40,0x04,0x2A,0x40,0x81,
	0x18,0x83,0x4D,0x40,0x30,0x81,0x2E,0x40,
	0x1C,0x82,0x46,0x40,0x00,0x4A,0x40,0x00,
	0x4D,0x40,0x06,0x99,0x28,0x3D,0x00,0x36,
	0x46,0x04,0x2A,0x4C,0x00,0x92,0x46,0x59,
	0x00,0x4A,0x62,0x00,0x4D,0x60,0x24,0x93,
	0x52,0x7F,0x0E,0x89,0x36,0x40,0x08,0x82,
	0x46,0x40,0x0C,0x89,0x28,0x40,0x04,0x2A,
	0x40,0x00,0x82,0x4A,0x40,0x04,0x4D,0x40,
	0x4C,0x83,0x52,0x40,0x02,0x99,0x24,0x46,
	0x00,0x93,0x52,0x7F,0x04,0x91,0x2D,0x59,
	0x04,0x99,0x2A,0x5C,0x00,0x36,0x36,0x4A,
	0x89,0x36,0x40,0x08,0x2A,0x40,0x14,0x24,
	0x40,0x81,0x00,0x83,0x52,0x40,0x30,0x81,
	0x2D,0x40,0x22,0x99,0x28,0x3D,0x00,0x36,
	0x46,0x04,0x2A,0x4C,0x00,0x92,0x46,0x5D,
	0x00,0x4A,0x5C,0x00,0x4D,0x5C,0x22,0x89,
	0x36,0x40,0x02,0x93,0x56,0x7F,0x12,0x89,
	0x2A,0x40,0x10,0x28,0x40,0x04,0x82,0x4A,
	0x40,0x08,0x46,0x40,0x0C,0x4D,0x40,0x3C,
	0x83,0x56,0x40,0x02,0x99,0x24,0x46,0x00,
	0x93,0x5B,0x7F,0x04,0x91,0x2B,0x56,0x04,
	0x99,0x2A,0x5C,0x00,0x36,0x36,0x3A,0x89,
	0x36,0x40,0x10,0x24,0x40,0x10,0x2A,0x40,
	0x81,0x0C,0x83,0x5B,0x40,0x52,0x99,0x36,
	0x46,0x04,0x28,0x3D,0x00,0x2A,0x4C,0x00,
	0x92,0x46,0x5D,0x02,0x81,0x2B,0x40,0x06,
	0x92,0x4A,0x5C,0x00,0x4D,0x60,0x1C,0x93,
	0x56,0x7F,0x06,0x89,0x2A,0x40,0x04,0x36,
	0x40,0x10,0x82,0x4A,0x40,0x0C,0x89,0x28,
	0x40,0x00,0x82,0x46,0x40,0x10,0x4D,0x40,
	0x40,0x83,0x56,0x40,0x02,0x93,0x59,0x7F,
	0x04,0x91,0x29,0x58,0x04,0x99,0x24,0x46,
	0x00,0x2A,0x5C,0x00,0x36,0x36,0x3E,0x89,
	0x36,0x40,0x14,0x24,0x40,0x00,0x2A,0x40,
	0x81,0x14,0x83,0x59,0x40,0x52,0x99,0x2A,
	0x4C,0x00,0x36,0x46,0x04,0x28,0x3D,0x00,
	0x92,0x46,0x5A,0x00,0x4A,0x60,0x02,0x81,
	0x29,0x40,0x06,0x92,0x4D,0x5A,0x1E,0x89,
	0x36,0x40,0x08,0x2A,0x40,0x04,0x82,0x4A,
	0x40,0x14,0x89,0x28,0x40,0x00,0x82,0x46,
	0x40,0x08,0x4D,0x40,0x48,0x88,0x41,0x40,
	0x06,0x93,0x59,0x7F,0x08,0x91,0x2E,0x59,
	0x04,0x99,0x24,0x46,0x00,0x2A,0x5C,0x00,
	0x36,0x36,0x00,0x98,0x4D,0x48,0x08,0x92,
	0x46,0x5F,0x04,0x4A,0x60,0x00,0x4D,0x61,
	0x32,0x89,0x24,0x40,0x08,0x36,0x40,0x04,
	0x2A,0x40,0x81,0x18,0x83,0x59,0x40,0x2C,
	0x81,0x2E,0x40,0x20,0x82,0x46,0x40,0x00,
	0x4A,0x40,0x00,0x4D,0x40,0x06,0x99,0x28,
	0x3D,0x00,0x36,0x46,0x04,0x2A,0x4C,0x00,
	0x92,0x46,0x5A,0x00,0x4A,0x61,0x00,0x4D,
	0x60,0x24,0x93,0x5B,0x7F,0x0E,0x89,0x36,
	0x40,0x04,0x82,0x46,0x40,0x08,0x4A,0x40,
	0x00,0x4D,0x40,0x04,0x89,0x28,0x40,0x08,
	0x2A,0x40,0x50,0x83,0x5B,0x40,0x02,0x99,
	0x24,0x46,0x00,0x93,0x59,0x7F,0x04,0x91,
	0x29,0x58,0x04,0x99,0x2A,0x5C,0x00,0x36,
	0x36,0x4A,0x89,0x24,0x40,0x00,0x36,0x40,
	0x08,0x2A,0x40,0x81,0x14,0x83,0x59,0x40,
	0x52,0x99,0x28,0x3D,0x00,0x36,0x46,0x04,
	0x2A,0x4C,0x02,0x81,0x29,0x40,0x20,0x89,
	0x36,0x40,0x02,0x93,0x56,0x7F,0x12,0x89,
	0x2A,0x40,0x10,0x28,0x40,0x54,0x83,0x56,
	0x40,0x02,0x99,0x24,0x46,0x00,0x93,0x57,
	0x7F,0x04,0x91,0x30,0x57,0x04,0x99,0x2A,
	0x5C,0x00,0x36,0x36,0x04,0x92,0x45,0x5D,
	0x04,0x48,0x61,0x00,0x4D,0x5F,0x32,0x89,
	0x36,0x40,0x08,0x24,0x40,0x18,0x2A,0x40,
	0x81,0x0C,0x83,0x57,0x40,0x24,0x81,0x30,
	0x40,0x28,0x82,0x45,0x40,0x00,0x48,0x40,
	0x00,0x4D,0x40,0x06,0x99,0x28,0x3D,0x00,
	0x36,0x46,0x04,0x2A,0x4C,0x00,0x92,0x45,
	0x5D,0x00,0x48,0x62,0x00,0x4D,0x60,0x24,
	0x93,0x56,0x7F,0x06,0x89,0x2A,0x40,0x04,
	0x36,0x40,0x18,0x82,0x48,0x40,0x04,0x89,
	0x28,0x40,0x00,0x82,0x45,0x40,0x14,0x4D,
	0x40,0x3C,0x83,0x56,0x40,0x02,0x99,0x24,
	0x46,0x00,0x93,0x54,0x7F,0x04,0x91,0x29,
	0x59,0x00,0x99,0x36,0x36,0x04,0x2A,0x5C,
	0x42,0x89,0x24,0x40,0x00,0x36,0x40,0x10,
	0x2A,0x40,0x81,0x14,0x83,0x54,0x40,0x28,
	0x81,0x29,0x40,0x2A,0x99,0x28,0x3D,0x00,
	0x2A,0x4C,0x00,0x36,0x46,0x2A,0x89,0x36,
	0x40,0x08,0x2A,0x40,0x18,0x28,0x40,0x50,
	0x88,0x4D,0x40,0x06,0x93,0x4F,0x7F,0x0C,
	0x99,0x2A,0x5C,0x00,0x91,0x30,0x57,0x00,
	0x99,0x36,0x36,0x00,0x98,0x43,0x48,0x08,
	0x99,0x24,0x46,0x04,0x92,0x43,0x60,0x08,
	0x48,0x60,0x00,0x4B,0x61,0x2A,0x89,0x24,
	0x40,0x08,0x36,0x40,0x04,0x2A,0x40,0x81,
	0x18,0x83,0x4F,0x40,0x48,0x81,0x30,0x40,
	0x04,0x82,0x43,0x40,0x00,0x48,0x40,0x00,
	0x4B,0x40,0x06,0x99,0x28,0x3D,0x00,0x36,
	0x46,0x04,0x2A,0x4C,0x00,0x92,0x43,0x60,
	0x00,0x48,0x63,0x00,0x4B,0x63,0x24,0x93,
	0x54,0x7F,0x0E,0x89,0x36,0x40,0x14,0x28,
	0x40,0x00,0x82,0x43,0x40,0x04,0x89,0x2A,
	0x40,0x04,0x82,0x48,0x40,0x18,0x4B,0x40,
	0x34,0x83,0x54,0x40,0x02,0x99,0x24,0x46,
	0x00,0x93,0x54,0x7F,0x04,0x91,0x29,0x56,
	0x00,0x99,0x36,0x36,0x04,0x2A,0x5C,0x46,
	0x89,0x24,0x40,0x04,0x36,0x40,0x08,0x2A,
	0x40,0x81,0x66,0x99,0x28,0x3D,0x00,0x36,
	0x46,0x04,0x2A,0x4C,0x22,0x83,0x54,0x40,
	0x00,0x89,0x36,0x40,0x02,0x93,0x57,0x7F,
	0x02,0x81,0x29,0x40,0x10,0x89,0x28,0x40,
	0x04,0x2A,0x40,0x60,0x83,0x57,0x40,0x02,
	0x93,0x5D,0x7F,0x04,0x91,0x30,0x56,0x00,
	0x99,0x36,0x36,0x04,0x24,0x46,0x00,0x2A,
	0x5C,0x08,0x92,0x45,0x5C,0x00,0x48,0x63,
	0x00,0x4D,0x63,0x32,0x89,0x36,0x40,0x0C,
	0x24,0x40,0x14,0x2A,0x40,0x81,0x58,0x81,
	0x30,0x40,0x00,0x82,0x45,0x40,0x00,0x48,
	0x40,0x00,0x4D,0x40,0x06,0x99,0x28,0x3D,
	0x00,0x36,0x46,0x04,0x2A,0x4C,0x00,0x92,
	0x45,0x60,0x00,0x48,0x63,0x08,0x4D,0x66,
	0x1A,0x83,0x5D,0x40,0x08,0x89,0x2A,0x40,
	0x04,0x36,0x40,0x08,0x28,0x40,0x24,0x82,
	0x45,0x40,0x00,0x48,0x40,0x1C,0x4D,0x40,
	0x26,0x99,0x24,0x46,0x00,0x93,0x5B,0x7F,
	0x04,0x91,0x29,0x55,0x00,0x99,0x36,0x36,
	0x04,0x2A,0x5C,0x42,0x89,0x36,0x40,0x08,
	0x24,0x40,0x08,0x2A,0x40,0x81,0x14,0x83,
	0x5B,0x40,0x52,0x99,0x28,0x3D,0x00,0x36,
	0x46,0x04,0x2A,0x4C,0x0E,0x81,0x29,0x40,
	0x16,0x93,0x59,0x7F,0x02,0x89,0x36,0x40,
	0x04,0x2A,0x40,0x08,0x28,0x40,0x64,0x88,
	0x43,0x40,0x04,0x83,0x59,0x40,0x02,0x93,
	0x57,0x7F,0x04,0x91,0x30,0x56,0x00,0x98,
	0x4B,0x48,0x04,0x99,0x36,0x36,0x04,0x24,
	0x46,0x00,0x2A,0x5C,0x00,0x98,0x4B,0x48,
	0x08,0x92,0x43,0x60,0x04,0x48,0x61,0x00,
	0x4B,0x62,0x2E,0x89,0x24,0x40,0x0C,0x36,
	0x40,0x04,0x2A,0x40,0x81,0x18,0x83,0x57,
	0x40,0x4C,0x81,0x30,0x40,0x00,0x82,0x43,
	0x40,0x00,0x48,0x40,0x00,0x4B,0x40,0x06,
	0x99,0x28,0x3D,0x00,0x2A,0x4C,0x00,0x36,
	0x46,0x00,0x92,0x43,0x5D,0x04,0x48,0x62,
	0x00,0x4B,0x60,0x24,0x93,0x57,0x7F,0x0E,
	0x89,0x36,0x40,0x10,0x28,0x40,0x08,0x2A,
	0x40,0x50,0x83,0x57,0x40,0x02,0x99,0x24,
	0x46,0x00,0x93,0x56,0x7F,0x04,0x91,0x29,
	0x56,0x00,0x99,0x36,0x36,0x04,0x2A,0x5C,
	0x02,0x82,0x43,0x40,0x10,0x48,0x40,0x08,
	0x4B,0x40,0x28,0x89,0x24,0x40,0x08,0x36,
	0x40,0x08,0x2A,0x40,0x81,0x14,0x83,0x56,
	0x40,0x52,0x99,0x28,0x3D,0x00,0x2A,0x4C,
	0x00,0x36,0x46,0x26,0x81,0x29,0x40,0x00,
	0x89,0x36,0x40,0x02,0x93,0x54,0x7F,0x12,
	0x89,0x2A,0x40,0x14,0x28,0x40,0x4E,0x91,
	0x30,0x56,0x02,0x83,0x54,0x40,0x02,0x93,
	0x51,0x7F,0x04,0x99,0x36,0x36,0x04,0x24,
	0x46,0x00,0x2A,0x5C,0x08,0x92,0x41,0x63,
	0x00,0x45,0x64,0x04,0x48,0x64,0x2E,0x89,
	0x36,0x40,0x0C,0x24,0x40,0x14,0x2A,0x40,
	0x81,0x58,0x81,0x30,0x40,0x00,0x82,0x41,
	0x40,0x00,0x45,0x40,0x00,0x48,0x40,0x06,
	0x99,0x36,0x46,0x04,0x28,0x3D,0x00,0x2A,
	0x4C,0x08,0x92,0x41,0x5F,0x00,0x45,0x62,
	0x04,0x48,0x62,0x1E,0x89,0x2A,0x40,0x04,
	0x36,0x40,0x18,0x28,0x40,0x50,0x82,0x48,
	0x40,0x02,0x91,0x29,0x55,0x02,0x83,0x51,
	0x40,0x02,0x93,0x54,0x7F,0x04,0x99,0x36,
	0x36,0x04,0x24,0x46,0x00,0x2A,0x5C,0x06,
	0x82,0x41,0x40,0x08,0x45,0x40,0x34,0x89,
	0x36,0x40,0x10,0x2A,0x40,0x08,0x24,0x40,
	0x81,0x58,0x81,0x29,0x40,0x06,0x99,0x36,
	0x46,0x04,0x28,0x3D,0x00,0x2A,0x4C,0x26,
	0x89,0x36,0x40,0x04,0x2A,0x40,0x20,0x28,
	0x40,0x4C,0x88,0x4B,0x40,0x00,0x4B,0x40,
	0x04,0x83,0x54,0x40,0x02,0x93,0x52,0x7F,
	0x0C,0x91,0x2E,0x55,0x00,0x99,0x36,0x36,
	0x00,0x98,0x46,0x48,0x08,0x99,0x2A,0x5C,
	0x04,0x24,0x46,0x00,0x92,0x41,0x67,0x08,
	0x46,0x67,0x00,0x4A,0x67,0x32,0x89,0x36,
	0x40,0x00,0x24,0x40,0x08,0x2A,0x40,0x81,
	0x60,0x81,0x2E,0x40,0x00,0x82,0x41,0x40,
	0x00,0x46,0x40,0x00,0x4A,0x40,0x06,0x99,
	0x36,0x46,0x04,0x28,0x3D,0x00,0x2A,0x4C,
	0x08,0x92,0x41,0x5B,0x00,0x46,0x5F,0x04,
	0x4A,0x61,0x26,0x89,0x36,0x40,0x14,0x28,
	0x40,0x04,0x2A,0x40,0x4C,0x82,0x46,0x40,
	0x00,0x4A,0x40,0x06,0x91,0x28,0x64,0x08,
	0x99,0x2A,0x5C,0x00,0x36,0x36,0x04,0x24,
	0x46,0x0E,0x82,0x41,0x40,0x16,0xB3,0x01,
	0x32,0x22,0x89,0x36,0x40,0x08,0x2A,0x40,
	0x10,0x24,0x40,0x81,0x40,0x81,0x28,0x40,
	0x16,0x99,0x2A,0x4C,0x00,0x36,0x46,0x04,
	0x28,0x3D,0x08,0x92,0x41,0x5E,0x00,0x46,
	0x60,0x00,0x4A,0x62,0x1A,0x89,0x36,0x40,
	0x14,0x2A,0x40,0x10,0x28,0x40,0x38,0x82,
	0x4A,0x40,0x0C,0x46,0x40,0x0C,0x41,0x40,
	0x06,0x91,0x2E,0x64,0x00,0x92,0x41,0x65,
	0x00,0x46,0x65,0x00,0x4A,0x65,0x08,0x99,
	0x36,0x36,0x04,0x36,0x36,0x08,0x2A,0x5C,
	0x04,0x24,0x46,0x2A,0x89,0x36,0x40,0x10,
	0x36,0x40,0x00,0x24,0x40,0x08,0x2A,0x40,
	0x1C,0x82,0x41,0x40,0x00,0x46,0x40,0x00,
	0x4A,0x40,0x81,0x34,0x81,0x2E,0x40,0x16,
	0x99,0x36,0x46,0x04,0x28,0x3D,0x00,0x2A,
	0x4C,0x32,0x89,0x36,0x40,0x14,0x28,0x40,
	0x04,0x2A,0x40,0x50,0x83,0x52,0x40,0x0A,
	0x99,0x2A,0x5C,0x00,0x36,0x36,0x04,0x24,
	0x46,0x46,0x89,0x36,0x40,0x08,0x2A,0x40,
	0x10,0x24,0x40,0x81,0x56,0x99,0x2A,0x4C,
	0x00,0x36,0x46,0x04,0x28,0x3D,0x22,0x89,
	0x36,0x40,0x14,0x2A,0x40,0x10,0x28,0x40,
	0x50,0x88,0x46,0x40,0x8F,0x06,0xFF,0x51,
	0x03,0x06,0x50,0x61,0x00,0xFF,0x2F,0x00,
};

__align(4) static const unsigned char classical40_mid[] = {
    0x4D,0x54,0x68,0x64,0x00,0x00,0x00,0x06,
	0x00,0x00,0x00,0x01,0x00,0x78,0x4D,0x54,
	0x72,0x6B,0x00,0x00,0x0F,0x79,0x00,0xFF,
    0x03,0x08,0x75,0x6E,0x74,0x69,0x74,0x6C,
	0x65,0x64,0x00,0xFF,0x01,0x09,0x2E,0x75,
	0x2E,0x2E,0x66,0x2E,0x2E,0x72,0x0A,0x00,
	0xFF,0x58,0x04,0x04,0x02,0x18,0x08,0x00,
	0xFF,0x59,0x02,0x00,0x00,0x00,0xFF,0x51,
	0x03,0x08,0x7A,0x24,0x00,0xC0,0x47,0x00,
	0xB0,0x07,0x7F,0x00,0x0A,0x3C,0x00,0x90,
	0x47,0x79,0x00,0xC1,0x47,0x00,0xB1,0x07,
	0x44,0x00,0x0A,0x2D,0x00,0xC2,0x21,0x00,
	0xB2,0x07,0x6E,0x00,0xC3,0x18,0x00,0xB3,
	0x07,0x6D,0x00,0x0A,0x78,0x00,0xC4,0x19,
	0x00,0xB4,0x07,0x60,0x00,0x0A,0x0A,0x00,
	0xC5,0x30,0x00,0xB5,0x07,0x46,0x3C,0x90,
	0x47,0x00,0x00,0x47,0x79,0x04,0x91,0x47,
	0x79,0x38,0x90,0x47,0x00,0x00,0x51,0x79,
	0x04,0x91,0x47,0x00,0x00,0x47,0x79,0x3C,
	0x47,0x00,0x00,0x51,0x79,0x1A,0x90,0x51,
	0x00,0x00,0x50,0x79,0x1E,0x93,0x4C,0x6F,
	0x22,0x91,0x51,0x00,0x00,0x50,0x79,0x1A,
	0x90,0x50,0x00,0x00,0x4E,0x79,0x3C,0x4E,
	0x00,0x00,0x91,0x50,0x00,0x00,0x93,0x4C,
	0x00,0x00,0xE0,0x00,0x23,0x00,0x90,0x53,
	0x79,0x00,0x91,0x4E,0x79,0x00,0x92,0x28,
	0x6F,0x00,0x93,0x47,0x6C,0x00,0x94,0x34,
	0x61,0x00,0x95,0x47,0x61,0x00,0x3B,0x61,
	0x08,0xE0,0x00,0x30,0x0A,0x00,0x39,0x0E,
	0x00,0x40,0x1C,0x91,0x4E,0x00,0x00,0x94,
	0x3B,0x55,0x04,0xE1,0x00,0x23,0x00,0x91,
	0x53,0x79,0x08,0xE1,0x00,0x30,0x0A,0x00,
	0x39,0x0E,0x00,0x40,0x18,0x95,0x47,0x00,
	0x00,0x3B,0x00,0x00,0x94,0x38,0x56,0x00,
	0x95,0x44,0x56,0x00,0x38,0x56,0x3C,0x94,
	0x34,0x00,0x00,0x3B,0x00,0x00,0x3B,0x50,
	0x00,0x40,0x73,0x3C,0x95,0x38,0x00,0x00,
	0x44,0x00,0x00,0x42,0x5E,0x00,0x36,0x5E,
	0x3C,0x94,0x3B,0x00,0x00,0x34,0x55,0x3C,
	0x95,0x36,0x00,0x00,0x42,0x00,0x00,0x94,
	0x38,0x00,0x00,0x38,0x5D,0x00,0x95,0x44,
	0x5C,0x00,0x38,0x5C,0x3C,0x94,0x34,0x00,
	0x00,0x34,0x4B,0x1E,0x93,0x47,0x00,0x1E,
	0x95,0x44,0x00,0x00,0x90,0x53,0x00,0x00,
	0x94,0x38,0x00,0x00,0x92,0x28,0x00,0x00,
	0x94,0x34,0x00,0x00,0x95,0x38,0x00,0x00,
	0x94,0x40,0x00,0x00,0x92,0x27,0x74,0x00,
	0x94,0x33,0x59,0x00,0x95,0x42,0x65,0x00,
	0x36,0x65,0x3A,0xE0,0x00,0x2F,0x02,0x90,
	0x53,0x79,0x00,0x94,0x36,0x5A,0x04,0x91,
	0x53,0x00,0x0C,0xE0,0x00,0x40,0x2C,0x94,
	0x3B,0x5F,0x02,0xE1,0x00,0x2F,0x02,0x91,
	0x53,0x79,0x10,0xE1,0x00,0x40,0x28,0x90,
	0x53,0x00,0x00,0x94,0x33,0x00,0x00,0x90,
	0x53,0x79,0x00,0x94,0x3F,0x79,0x3C,0x90,
	0x53,0x00,0x00,0x95,0x42,0x00,0x00,0x94,
	0x36,0x00,0x00,0x95,0x36,0x00,0x00,0x90,
	0x53,0x79,0x00,0x94,0x33,0x58,0x00,0x95,
	0x47,0x66,0x00,0x3B,0x66,0x04,0x91,0x53,
	0x00,0x00,0x53,0x79,0x38,0x94,0x3B,0x00,
	0x00,0x3B,0x60,0x04,0x91,0x53,0x00,0x00,
	0x53,0x79,0x1A,0x90,0x53,0x00,0x00,0x51,
	0x79,0x1E,0x94,0x33,0x00,0x00,0x36,0x6C,
	0x22,0x91,0x53,0x00,0x00,0x51,0x79,0x1A,
	0x94,0x3B,0x00,0x00,0x90,0x51,0x00,0x00,
	0x50,0x79,0x00,0x94,0x33,0x4B,0x3C,0x33,
	0x00,0x00,0x90,0x50,0x00,0x00,0x95,0x3B,
	0x00,0x00,0x92,0x27,0x00,0x00,0x94,0x3F,
	0x00,0x00,0x36,0x00,0x00,0x95,0x47,0x00,
	0x00,0x90,0x4E,0x79,0x00,0x92,0x25,0x6D,
	0x00,0x94,0x31,0x60,0x00,0x95,0x40,0x64,
	0x00,0x34,0x64,0x04,0x91,0x51,0x00,0x00,
	0x50,0x79,0x38,0x94,0x38,0x5A,0x04,0x91,
	0x50,0x00,0x00,0x4E,0x79,0x38,0x90,0x4E,
	0x00,0x00,0x4C,0x79,0x00,0x94,0x3D,0x62,
	0x3C,0x31,0x00,0x00,0x40,0x79,0x04,0x91,
	0x4E,0x00,0x00,0x4C,0x79,0x38,0x94,0x38,
	0x00,0x00,0x95,0x40,0x00,0x00,0x90,0x4C,
	0x00,0x00,0x95,0x34,0x00,0x00,0x90,0x4C,
	0x79,0x00,0x94,0x31,0x58,0x00,0x95,0x4C,
	0x68,0x00,0x40,0x68,0x3C,0x90,0x4C,0x00,
	0x00,0x94,0x3D,0x00,0x00,0x90,0x4E,0x79,
	0x00,0x94,0x3D,0x6D,0x04,0x91,0x4C,0x00,
	0x00,0x4C,0x79,0x38,0x94,0x40,0x00,0x00,
	0x38,0x66,0x04,0x91,0x4C,0x00,0x00,0x4E,
	0x79,0x38,0x94,0x3D,0x00,0x00,0x90,0x4E,
	0x00,0x00,0x94,0x31,0x00,0x00,0xE0,0x00,
	0x1E,0x00,0x90,0x50,0x79,0x00,0x94,0x31,
	0x46,0x12,0xE0,0x00,0x40,0x2A,0x94,0x31,
	0x00,0x00,0x92,0x25,0x00,0x00,0x94,0x38,
	0x00,0x00,0x95,0x40,0x00,0x00,0x4C,0x00,
	0x00,0x92,0x23,0x6C,0x00,0x94,0x2F,0x59,
	0x00,0x95,0x4B,0x69,0x00,0x3F,0x69,0x04,
	0x91,0x4E,0x00,0x00,0xE1,0x00,0x1E,0x00,
	0x91,0x50,0x79,0x12,0xE1,0x00,0x40,0x26,
	0x94,0x34,0x5F,0x3C,0x95,0x4B,0x00,0x00,
	0x3F,0x00,0x00,0x93,0x47,0x70,0x00,0x94,
	0x38,0x68,0x00,0x95,0x49,0x66,0x00,0x3D,
	0x66,0x3C,0x93,0x47,0x00,0x00,0x94,0x2F,
	0x00,0x00,0x90,0x50,0x00,0x00,0x93,0x47,
	0x7D,0x00,0x94,0x40,0x79,0x01,0xE3,0x00,
	0x41,0x14,0x00,0x43,0x02,0x00,0x41,0x0C,
	0x00,0x3E,0x06,0x00,0x3F,0x08,0x00,0x42,
	0x09,0xE0,0x00,0x1D,0x02,0x95,0x49,0x00,
	0x00,0x3D,0x00,0x00,0x94,0x34,0x00,0x00,
	0x90,0x4E,0x79,0x00,0x94,0x2F,0x58,0x00,
	0x95,0x47,0x69,0x00,0x3B,0x69,0x04,0x91,
	0x50,0x00,0x01,0xE3,0x00,0x3E,0x0C,0xE0,
	0x00,0x40,0x0C,0xE3,0x00,0x3E,0x06,0x00,
	0x42,0x06,0x00,0x40,0x08,0x00,0x3F,0x0B,
	0x94,0x38,0x00,0x00,0x3B,0x6D,0x02,0xE1,
	0x00,0x1D,0x02,0x91,0x4E,0x79,0x05,0xE3,
	0x00,0x41,0x06,0x00,0x42,0x06,0xE1,0x00,
	0x40,0x09,0x90,0x4E,0x00,0x00,0x4C,0x79,
	0x0D,0xE3,0x00,0x3D,0x11,0x95,0x47,0x00,
	0x00,0x3B,0x00,0x00,0x94,0x40,0x00,0x00,
	0x38,0x67,0x00,0x95,0x49,0x6A,0x00,0x3D,
	0x6A,0x07,0xE3,0x00,0x40,0x1B,0x91,0x4E,
	0x00,0x00,0x4C,0x79,0x1A,0x94,0x3B,0x00,
	0x00,0x90,0x4C,0x00,0x00,0x94,0x2F,0x00,
	0x00,0x90,0x4B,0x79,0x00,0x94,0x2F,0x46,
	0x3C,0x2F,0x00,0x00,0x90,0x4B,0x00,0x00,
	0x92,0x23,0x00,0x00,0x95,0x3D,0x00,0x00,
	0x49,0x00,0x00,0x94,0x38,0x00,0x00,0x90,
	0x49,0x79,0x00,0x92,0x21,0x70,0x00,0x94,
	0x2D,0x60,0x00,0x95,0x49,0x61,0x00,0x3D,
	0x61,0x04,0x91,0x4C,0x00,0x00,0x4B,0x79,
	0x38,0x94,0x34,0x5A,0x04,0x91,0x4B,0x00,
	0x00,0x49,0x79,0x38,0x94,0x39,0x62,0x1E,
	0x93,0x47,0x00,0x1E,0x94,0x39,0x00,0x00,
	0x2D,0x00,0x00,0x40,0x42,0x00,0x3B,0x6E,
	0x3C,0x95,0x3D,0x00,0x00,0x94,0x34,0x00,
	0x00,0x95,0x49,0x00,0x00,0x90,0x49,0x00,
	0x00,0x4E,0x79,0x00,0x94,0x2D,0x58,0x00,
	0x95,0x4B,0x64,0x00,0x3F,0x64,0x3C,0x94,
	0x40,0x00,0x00,0x3B,0x00,0x00,0x3B,0x62,
	0x04,0x91,0x49,0x00,0x00,0x4E,0x79,0x1A,
	0x90,0x4E,0x00,0x00,0x4C,0x79,0x1E,0x95,
	0x3F,0x00,0x00,0x4B,0x00,0x00,0x94,0x39,
	0x67,0x00,0x95,0x4C,0x67,0x00,0x40,0x67,
	0x22,0x91,0x4E,0x00,0x00,0x4C,0x79,0x1A,
	0x94,0x3B,0x00,0x00,0x2D,0x00,0x00,0x90,
	0x4C,0x00,0x00,0xE0,0x00,0x18,0x00,0x90,
	0x50,0x79,0x00,0x94,0x2D,0x4B,0x14,0xE0,
	0x00,0x40,0x28,0x94,0x2D,0x00,0x00,0x95,
	0x4C,0x00,0x00,0x40,0x00,0x00,0x92,0x21,
	0x00,0x00,0x94,0x39,0x00,0x00,0x92,0x20,
	0x6A,0x00,0x94,0x2F,0x58,0x00,0x95,0x47,
	0x67,0x00,0x3B,0x67,0x04,0x91,0x4C,0x00,
	0x00,0xE1,0x00,0x18,0x00,0x91,0x50,0x79,
	0x14,0xE1,0x00,0x40,0x24,0x90,0x50,0x00,
	0x00,0x47,0x79,0x00,0x94,0x34,0x5A,0x3C,
	0x38,0x62,0x04,0x91,0x50,0x00,0x00,0x47,
	0x79,0x38,0x94,0x2F,0x00,0x00,0x40,0x79,
	0x3C,0x95,0x47,0x00,0x00,0x94,0x34,0x00,
	0x00,0x95,0x3B,0x00,0x00,0x94,0x2F,0x54,
	0x00,0x95,0x4C,0x67,0x00,0x40,0x67,0x3C,
	0x94,0x38,0x00,0x00,0x90,0x47,0x00,0x00,
	0xE0,0x00,0x12,0x00,0x90,0x53,0x79,0x00,
	0x94,0x3B,0x68,0x15,0xE0,0x00,0x40,0x27,
	0x94,0x40,0x00,0x00,0x92,0x20,0x00,0x00,
	0x2C,0x68,0x00,0x94,0x38,0x6B,0x04,0x91,
	0x47,0x00,0x00,0xE1,0x00,0x12,0x00,0x91,
	0x53,0x79,0x15,0xE1,0x00,0x40,0x23,0x94,
	0x2F,0x00,0x00,0x3B,0x00,0x00,0x90,0x53,
	0x00,0x00,0x53,0x79,0x00,0x94,0x2F,0x47,
	0x3C,0x2F,0x00,0x00,0x95,0x40,0x00,0x00,
	0x92,0x2C,0x00,0x00,0x95,0x4C,0x00,0x00,
	0x94,0x38,0x00,0x00,0x90,0x53,0x00,0x00,
	0xE0,0x00,0x27,0x00,0x90,0x53,0x79,0x00,
	0x92,0x1E,0x6A,0x00,0x94,0x2A,0x58,0x00,
	0x95,0x45,0x6B,0x00,0x39,0x6B,0x04,0x91,
	0x53,0x00,0x00,0x53,0x79,0x0A,0xE0,0x00,
	0x40,0x2E,0x94,0x34,0x57,0x04,0x91,0x53,
	0x00,0x00,0xE1,0x00,0x27,0x00,0x91,0x53,
	0x79,0x0E,0xE1,0x00,0x40,0x2A,0x90,0x53,
	0x00,0x00,0x51,0x79,0x00,0x94,0x39,0x5F,
	0x3C,0x90,0x51,0x00,0x00,0x94,0x2A,0x00,
	0x00,0x90,0x51,0x79,0x00,0x94,0x40,0x69,
	0x04,0x91,0x53,0x00,0x00,0x51,0x79,0x38,
	0x94,0x34,0x00,0x00,0x90,0x51,0x00,0x00,
	0xE0,0x00,0x17,0x00,0x90,0x51,0x79,0x00,
	0x94,0x2A,0x58,0x04,0x91,0x51,0x00,0x00,
	0x51,0x79,0x0A,0xE0,0x00,0x40,0x2E,0x94,
	0x39,0x00,0x00,0x36,0x63,0x04,0x91,0x51,
	0x00,0x00,0xE1,0x00,0x17,0x00,0x91,0x51,
	0x79,0x0E,0xE1,0x00,0x40,0x2A,0x95,0x39,
	0x00,0x00,0x45,0x00,0x00,0x94,0x40,0x00,
	0x00,0x90,0x51,0x00,0x00,0x50,0x79,0x00,
	0x94,0x39,0x6D,0x00,0x95,0x47,0x5D,0x00,
	0x3B,0x5D,0x3C,0x90,0x50,0x00,0x00,0x94,
	0x2A,0x00,0x00,0x36,0x00,0x00,0x90,0x4C,
	0x79,0x00,0x94,0x2A,0x3D,0x04,0x91,0x51,
	0x00,0x00,0x50,0x79,0x38,0x90,0x4C,0x00,
	0x00,0x92,0x1E,0x00,0x00,0x95,0x47,0x00,
	0x00,0x3B,0x00,0x00,0x94,0x39,0x00,0x00,
	0x2A,0x00,0x00,0xE0,0x00,0x11,0x00,0x90,
	0x4E,0x79,0x00,0x92,0x23,0x6B,0x00,0x94,
	0x2F,0x43,0x00,0x95,0x49,0x65,0x00,0x3D,
	0x65,0x02,0x94,0x36,0x44,0x02,0x91,0x50,
	0x00,0x00,0x4C,0x79,0x00,0x94,0x39,0x59,
	0x03,0xE0,0x00,0x21,0x05,0x00,0x2B,0x08,
	0x00,0x35,0x07,0x00,0x3C,0x06,0x00,0x40,
	0x1B,0xE3,0x00,0x17,0x00,0x93,0x3D,0x66,
	0x04,0x91,0x4C,0x00,0x00,0xE1,0x00,0x11,
	0x00,0x91,0x4E,0x79,0x07,0xE1,0x00,0x21,
	0x05,0x00,0x2B,0x07,0xE3,0x00,0x40,0x01,
	0xE1,0x00,0x35,0x07,0x00,0x3C,0x06,0x00,
	0x40,0x17,0x95,0x49,0x00,0x00,0x93,0x3D,
	0x00,0x00,0x94,0x39,0x00,0x00,0x36,0x00,
	0x00,0x2F,0x00,0x00,0x95,0x3D,0x00,0x00,
	0x93,0x45,0x70,0x00,0x94,0x2F,0x5E,0x00,
	0x95,0x4B,0x63,0x00,0x3F,0x63,0x02,0x94,
	0x36,0x5E,0x02,0x39,0x62,0x38,0x39,0x00,
	0x00,0x93,0x45,0x00,0x00,0x94,0x36,0x00,
	0x00,0x2F,0x00,0x00,0x93,0x3D,0x6B,0x00,
	0x94,0x2F,0x5D,0x02,0x36,0x54,0x02,0x39,
	0x4C,0x38,0x39,0x00,0x00,0x90,0x4E,0x00,
	0x00,0x94,0x36,0x00,0x00,0x95,0x4B,0x00,
	0x00,0x3F,0x00,0x00,0x94,0x2F,0x00,0x00,
	0x93,0x3D,0x00,0x00,0x3F,0x6B,0x00,0x94,
	0x33,0x5A,0x00,0x95,0x4C,0x65,0x00,0x40,
	0x65,0x02,0x94,0x36,0x5D,0x02,0x3B,0x60,
	0x38,0x93,0x3F,0x00,0x00,0x47,0x6B,0x04,
	0x91,0x4E,0x00,0x38,0x95,0x4C,0x00,0x00,
	0x94,0x36,0x00,0x00,0x93,0x47,0x00,0x00,
	0x94,0x33,0x00,0x00,0x3B,0x00,0x00,0x95,
	0x40,0x00,0x00,0x90,0x47,0x79,0x00,0x92,
	0x23,0x70,0x00,0x93,0x42,0x6B,0x00,0x94,
	0x33,0x5B,0x00,0x95,0x4E,0x6A,0x00,0x42,
	0x6A,0x02,0x94,0x36,0x5D,0x02,0x3B,0x69,
	0x1A,0x92,0x23,0x00,0x1E,0x93,0x42,0x00,
	0x00,0x44,0x70,0x04,0x91,0x47,0x79,0x1A,
	0x93,0x44,0x00,0x00,0x45,0x74,0x1E,0x45,
	0x00,0x00,0x94,0x3B,0x00,0x00,0x90,0x47,
	0x00,0x00,0x95,0x4E,0x00,0x00,0x94,0x36,
	0x00,0x00,0x33,0x00,0x00,0x95,0x42,0x00,
	0x00,0xE0,0x00,0x18,0x00,0x90,0x53,0x79,
	0x00,0x92,0x28,0x71,0x00,0x93,0x44,0x79,
	0x00,0x94,0x34,0x61,0x00,0x95,0x44,0x6C,
	0x00,0x50,0x6C,0x0C,0xE0,0x00,0x40,0x0A,
	0xE3,0x00,0x42,0x08,0x92,0x23,0x00,0x1E,
	0x94,0x3B,0x55,0x02,0xE3,0x00,0x3D,0x02,
	0x91,0x47,0x00,0x00,0xE1,0x00,0x18,0x00,
	0x91,0x53,0x79,0x0C,0xE1,0x00,0x40,0x14,
	0xE3,0x00,0x45,0x04,0x00,0x44,0x14,0x94,
	0x38,0x56,0x12,0xE3,0x00,0x41,0x28,0x00,
	0x3F,0x02,0x94,0x3B,0x00,0x00,0x34,0x00,
	0x00,0x3B,0x50,0x00,0x40,0x73,0x32,0xE3,
	0x00,0x40,0x0A,0x95,0x50,0x00,0x00,0x44,
	0x00,0x00,0x47,0x68,0x00,0x53,0x68,0x3C,
	0x94,0x3B,0x00,0x00,0x90,0x53,0x00,0x00,
	0x51,0x79,0x00,0x94,0x34,0x55,0x1E,0x93,
	0x44,0x00,0x1E,0x90,0x51,0x00,0x00,0x94,
	0x38,0x00,0x00,0x90,0x50,0x79,0x00,0x94,
	0x38,0x5D,0x04,0x91,0x53,0x00,0x00,0x51,
	0x79,0x38,0x94,0x34,0x00,0x00,0x90,0x50,
	0x00,0x00,0x4E,0x79,0x00,0x93,0x45,0x70,
	0x00,0x94,0x34,0x4B,0x04,0x91,0x51,0x00,
	0x00,0x50,0x79,0x1A,0xE3,0x00,0x20,0x1E,
	0x95,0x53,0x00,0x00,0x94,0x34,0x00,0x00,
	0x93,0x45,0x00,0x00,0x95,0x47,0x00,0x00,
	0x94,0x40,0x00,0x00,0x92,0x28,0x00,0x00,
	0x94,0x38,0x00,0x00,0x92,0x27,0x6E,0x00,
	0x93,0x42,0x74,0x00,0x94,0x33,0x59,0x00,
	0x95,0x4E,0x75,0x00,0x5A,0x75,0x04,0x91,
	0x50,0x00,0x00,0x4E,0x79,0x06,0xE3,0x00,
	0x40,0x32,0x90,0x4E,0x00,0x00,0xE0,0x00,
	0x26,0x00,0x90,0x53,0x79,0x00,0x94,0x36,
	0x5A,0x0A,0xE0,0x00,0x40,0x32,0x94,0x3B,
	0x5F,0x04,0x91,0x4E,0x00,0x00,0xE1,0x00,
	0x26,0x00,0x91,0x53,0x79,0x0A,0xE1,0x00,
	0x40,0x2E,0x94,0x33,0x00,0x00,0x90,0x53,
	0x00,0x00,0x53,0x79,0x00,0x94,0x3F,0x79,
	0x3C,0x90,0x53,0x00,0x00,0x94,0x36,0x00,
	0x00,0x95,0x4E,0x00,0x00,0x5A,0x00,0x00,
	0xE0,0x00,0x19,0x00,0x90,0x53,0x79,0x00,
	0x94,0x33,0x58,0x00,0x95,0x4C,0x73,0x00,
	0x58,0x73,0x04,0x91,0x53,0x00,0x00,0x53,
	0x79,0x0E,0xE0,0x00,0x40,0x2A,0x94,0x3B,
	0x00,0x00,0x3B,0x60,0x04,0x91,0x53,0x00,
	0x00,0xE1,0x00,0x19,0x00,0x91,0x53,0x79,
	0x12,0xE1,0x00,0x40,0x08,0x93,0x42,0x00,
	0x00,0x90,0x53,0x00,0x00,0x51,0x79,0x1E,
	0x95,0x58,0x00,0x00,0x94,0x3F,0x00,0x00,
	0x95,0x4C,0x00,0x00,0x94,0x36,0x6C,0x00,
	0x95,0x4B,0x6E,0x00,0x57,0x6E,0x22,0x91,
	0x53,0x00,0x00,0x51,0x79,0x1A,0x94,0x3B,
	0x00,0x00,0x90,0x51,0x00,0x00,0x94,0x33,
	0x00,0x00,0x90,0x50,0x79,0x00,0x93,0x40,
	0x6C,0x00,0x94,0x33,0x4B,0x1E,0xE3,0x7F,
	0x7F,0x1E,0x94,0x33,0x00,0x00,0x93,0x40,
	0x00,0x00,0x94,0x36,0x00,0x00,0x95,0x4B,
	0x00,0x00,0x92,0x27,0x00,0x00,0x95,0x57,
	0x00,0x00,0x90,0x50,0x00,0x00,0x4E,0x79,
	0x00,0x92,0x25,0x6C,0x00,0xE3,0x00,0x40,
	0x00,0x93,0x40,0x73,0x00,0x94,0x31,0x60,
	0x00,0x95,0x4C,0x71,0x00,0x58,0x71,0x04,
	0x91,0x51,0x00,0x00,0x50,0x79,0x38,0x94,
	0x38,0x5A,0x04,0x91,0x50,0x00,0x00,0x4E,
	0x79,0x38,0x90,0x4E,0x00,0x00,0x4C,0x79,
	0x00,0x94,0x3D,0x62,0x3C,0x90,0x4C,0x00,
	0x00,0x94,0x31,0x00,0x00,0x90,0x4C,0x79,
	0x00,0x94,0x40,0x79,0x04,0x91,0x4E,0x00,
	0x00,0x4C,0x79,0x38,0x94,0x38,0x00,0x00,
	0x31,0x58,0x04,0x91,0x4C,0x00,0x00,0x4C,
	0x79,0x1A,0x93,0x40,0x00,0x1E,0x94,0x3D,
	0x00,0x00,0x90,0x4C,0x00,0x00,0x4E,0x79,
	0x00,0x94,0x3D,0x6D,0x3C,0x40,0x00,0x00,
	0x95,0x4C,0x00,0x00,0x58,0x00,0x00,0x94,
	0x38,0x66,0x00,0x95,0x4B,0x68,0x00,0x57,
	0x68,0x04,0x91,0x4C,0x00,0x00,0x4E,0x79,
	0x38,0x94,0x3D,0x00,0x00,0x31,0x00,0x00,
	0x90,0x4E,0x00,0x00,0xE0,0x00,0x16,0x00,
	0x90,0x50,0x79,0x00,0x94,0x31,0x46,0x10,
	0xE0,0x00,0x40,0x2C,0x94,0x31,0x00,0x00,
	0x95,0x4B,0x00,0x00,0x57,0x00,0x00,0x92,
	0x25,0x00,0x00,0x94,0x38,0x00,0x00,0x92,
	0x23,0x6B,0x00,0x94,0x2F,0x59,0x00,0x95,
	0x4C,0x6E,0x00,0x58,0x6E,0x04,0x91,0x4E,
	0x00,0x00,0xE1,0x00,0x16,0x00,0x91,0x50,
	0x79,0x10,0xE1,0x00,0x40,0x28,0x94,0x34,
	0x5F,0x3C,0x95,0x4C,0x00,0x00,0x58,0x00,
	0x00,0x93,0x3D,0x65,0x00,0x94,0x38,0x68,
	0x00,0x95,0x4B,0x63,0x00,0x57,0x63,0x3C,
	0x93,0x3D,0x00,0x00,0x94,0x2F,0x00,0x00,
	0x90,0x50,0x00,0x00,0x93,0x3F,0x69,0x00,
	0x94,0x40,0x79,0x3C,0x93,0x3F,0x00,0x00,
	0x95,0x57,0x00,0x00,0x94,0x34,0x00,0x00,
	0x95,0x4B,0x00,0x00,0xE0,0x00,0x15,0x00,
	0x90,0x4E,0x79,0x00,0x93,0x40,0x68,0x00,
	0x94,0x2F,0x58,0x00,0x95,0x47,0x64,0x00,
	0x53,0x64,0x04,0x91,0x50,0x00,0x0C,0xE0,
	0x00,0x40,0x2C,0x94,0x38,0x00,0x00,0x3B,
	0x6D,0x04,0xE1,0x00,0x15,0x00,0x91,0x4E,
	0x79,0x10,0xE1,0x00,0x40,0x0A,0x90,0x4E,
	0x00,0x00,0x93,0x40,0x00,0x00,0x90,0x4C,
	0x79,0x00,0x93,0x47,0x7C,0x1E,0x94,0x40,
	0x00,0x00,0x95,0x53,0x00,0x00,0x47,0x00,
	0x00,0x94,0x38,0x67,0x00,0x95,0x44,0x67,
	0x00,0x50,0x67,0x22,0x91,0x4E,0x00,0x00,
	0x4C,0x79,0x1A,0x94,0x3B,0x00,0x00,0x93,
	0x47,0x00,0x00,0x90,0x4C,0x00,0x00,0x94,
	0x2F,0x00,0x00,0x90,0x4B,0x79,0x00,0x93,
	0x40,0x6C,0x00,0x94,0x2F,0x46,0x3C,0x2F,
	0x00,0x00,0x95,0x50,0x00,0x00,0x92,0x23,
	0x00,0x00,0x94,0x38,0x00,0x00,0x93,0x40,
	0x00,0x00,0x95,0x44,0x00,0x00,0x90,0x4B,
	0x00,0x00,0x49,0x79,0x00,0x92,0x21,0x6B,
	0x00,0x93,0x40,0x77,0x00,0x94,0x2D,0x60,
	0x00,0x95,0x49,0x6F,0x00,0x55,0x6F,0x04,
	0x91,0x4C,0x00,0x00,0x4B,0x79,0x38,0x94,
	0x34,0x5A,0x04,0x91,0x4B,0x00,0x00,0x49,
	0x79,0x38,0x94,0x39,0x62,0x3C,0x2D,0x00,
	0x00,0x3B,0x6E,0x3C,0x90,0x49,0x00,0x00,
	0x94,0x39,0x00,0x00,0x34,0x00,0x00,0x90,
	0x4E,0x79,0x00,0x94,0x3D,0x59,0x00,0x2D,
	0x58,0x3C,0x3B,0x00,0x00,0x40,0x62,0x04,
	0x91,0x49,0x00,0x00,0x4E,0x79,0x1A,0x90,
	0x4E,0x00,0x00,0x93,0x40,0x00,0x00,0x90,
	0x4C,0x79,0x1D,0xE3,0x00,0x16,0x01,0x94,
	0x3D,0x00,0x00,0x93,0x3D,0x70,0x00,0x94,
	0x39,0x67,0x19,0xE3,0x00,0x40,0x09,0x91,
	0x4E,0x00,0x00,0x4C,0x79,0x1A,0x90,0x4C,
	0x00,0x00,0x94,0x40,0x00,0x00,0x2D,0x00,
	0x00,0x90,0x55,0x79,0x00,0x94,0x2D,0x4B,
	0x1E,0x93,0x3D,0x00,0x1E,0x94,0x2D,0x00,
	0x00,0x39,0x00,0x00,0x92,0x21,0x00,0x00,
	0x95,0x49,0x00,0x00,0x55,0x00,0x00,0x92,
	0x20,0x6B,0x00,0x93,0x3B,0x70,0x00,0x94,
	0x2F,0x58,0x00,0x95,0x47,0x64,0x00,0x53,
	0x64,0x02,0xE0,0x00,0x3E,0x02,0x91,0x4C,
	0x00,0x00,0x55,0x79,0x03,0xE0,0x00,0x37,
	0x04,0x00,0x27,0x04,0x00,0x10,0x09,0x00,
	0x01,0x24,0x90,0x55,0x00,0x00,0xE0,0x00,
	0x40,0x00,0x90,0x53,0x79,0x00,0x94,0x34,
	0x5A,0x06,0xE1,0x00,0x3E,0x05,0x00,0x37,
	0x04,0x00,0x27,0x04,0x00,0x10,0x09,0x00,
	0x01,0x20,0x94,0x38,0x62,0x04,0x91,0x55,
	0x00,0x00,0xE1,0x00,0x40,0x00,0x91,0x53,
	0x79,0x38,0x94,0x2F,0x00,0x00,0x40,0x79,
	0x3C,0x34,0x00,0x00,0x95,0x47,0x00,0x00,
	0x53,0x00,0x00,0x94,0x2F,0x54,0x00,0x95,
	0x40,0x64,0x00,0x4C,0x64,0x1E,0x90,0x53,
	0x00,0x1D,0xE0,0x00,0x22,0x01,0x94,0x38,
	0x00,0x00,0x90,0x53,0x79,0x00,0x94,0x3B,
	0x68,0x0C,0xE0,0x00,0x40,0x16,0x91,0x53,
	0x00,0x1A,0x94,0x40,0x00,0x00,0x38,0x6B,
	0x03,0xE1,0x00,0x22,0x01,0x91,0x53,0x79,
	0x0C,0xE1,0x00,0x40,0x2C,0x90,0x53,0x00,
	0x00,0x94,0x3B,0x00,0x00,0x2F,0x00,0x00,
	0x93,0x3B,0x00,0x00,0x90,0x53,0x79,0x00,
	0x94,0x34,0x5D,0x3C,0x34,0x00,0x00,0x38,
	0x00,0x00,0x92,0x20,0x00,0x00,0x95,0x4C,
	0x00,0x00,0x40,0x00,0x00,0x90,0x53,0x00,
	0x00,0x53,0x79,0x00,0x92,0x1E,0x6D,0x00,
	0x94,0x2A,0x58,0x00,0x95,0x45,0x6C,0x00,
	0x51,0x6C,0x04,0x91,0x53,0x00,0x00,0x53,
	0x79,0x38,0x94,0x34,0x57,0x04,0x91,0x53,
	0x00,0x00,0x53,0x79,0x1A,0x90,0x53,0x00,
	0x00,0x51,0x79,0x1E,0x94,0x39,0x5F,0x22,
	0x91,0x53,0x00,0x00,0x51,0x79,0x1A,0x94,
	0x2A,0x00,0x00,0x90,0x51,0x00,0x00,0x51,
	0x79,0x00,0x94,0x40,0x69,0x3C,0x90,0x51,
	0x00,0x00,0x94,0x34,0x00,0x00,0x90,0x51,
	0x79,0x00,0x94,0x2A,0x58,0x04,0x91,0x51,
	0x00,0x00,0x51,0x79,0x38,0x94,0x39,0x00,
	0x00,0x34,0x63,0x04,0x91,0x51,0x00,0x00,
	0x51,0x79,0x1A,0x90,0x51,0x00,0x00,0x53,
	0x79,0x1E,0x95,0x51,0x00,0x00,0x45,0x00,
	0x00,0x94,0x40,0x00,0x00,0x39,0x6D,0x00,
	0x95,0x44,0x6A,0x00,0x50,0x6A,0x22,0x91,
	0x51,0x00,0x00,0x53,0x79,0x1A,0x90,0x53,
	0x00,0x00,0x94,0x34,0x00,0x00,0x2A,0x00,
	0x00,0xE0,0x00,0x18,0x00,0x90,0x55,0x79,
	0x00,0x94,0x3B,0x57,0x10,0xE0,0x00,0x40,
	0x2C,0x94,0x39,0x00,0x00,0x95,0x50,0x00,
	0x00,0x92,0x1E,0x00,0x00,0x95,0x44,0x00,
	0x00,0x92,0x23,0x6D,0x00,0x94,0x2A,0x60,
	0x00,0x95,0x42,0x61,0x00,0x4E,0x61,0x04,
	0x91,0x53,0x00,0x00,0xE1,0x00,0x18,0x00,
	0x91,0x55,0x79,0x10,0xE1,0x00,0x40,0x28,
	0x94,0x3B,0x00,0x00,0x36,0x5A,0x3C,0x90,
	0x55,0x00,0x00,0x4E,0x79,0x00,0x94,0x39,
	0x62,0x3C,0x2A,0x00,0x00,0x3D,0x79,0x04,
	0x91,0x55,0x00,0x00,0x4E,0x79,0x38,0x94,
	0x36,0x00,0x00,0x31,0x58,0x3C,0x39,0x00,
	0x00,0x39,0x6D,0x3B,0xE3,0x00,0x01,0x01,
	0x94,0x3D,0x00,0x00,0x92,0x23,0x00,0x00,
	0x1E,0x6A,0x00,0x93,0x49,0x70,0x00,0x94,
	0x36,0x56,0x1B,0xE3,0x00,0x40,0x21,0x94,
	0x36,0x00,0x00,0x39,0x00,0x00,0x31,0x00,
	0x00,0x36,0x5D,0x1E,0x3B,0x57,0x1E,0x95,
	0x42,0x00,0x00,0x93,0x49,0x00,0x00,0x95,
	0x4E,0x00,0x00,0x92,0x1E,0x00,0x00,0x23,
	0x6F,0x00,0x93,0x47,0x70,0x00,0x94,0x3F,
	0x6A,0x78,0x90,0x4E,0x00,0x00,0x47,0x79,
	0x3C,0x47,0x00,0x00,0x47,0x79,0x04,0x91,
	0x4E,0x00,0x00,0x47,0x79,0x38,0x90,0x47,
	0x00,0x00,0xE0,0x00,0x23,0x00,0x90,0x51,
	0x79,0x04,0x91,0x47,0x00,0x00,0x47,0x79,
	0x07,0xE0,0x00,0x40,0x35,0x91,0x47,0x00,
	0x00,0xE1,0x00,0x23,0x00,0x91,0x51,0x79,
	0x0B,0xE1,0x00,0x40,0x0F,0x90,0x51,0x00,
	0x00,0x50,0x79,0x40,0x91,0x51,0x00,0x00,
	0x50,0x79,0x1A,0x93,0x47,0x00,0x00,0x90,
	0x50,0x00,0x00,0x4C,0x79,0x1E,0x94,0x3B,
	0x00,0x00,0x36,0x00,0x00,0x3F,0x00,0x1E,
	0x90,0x4C,0x00,0x00,0x92,0x23,0x00,0x00,
	0xE0,0x00,0x0C,0x00,0x90,0x4C,0x79,0x00,
	0x92,0x28,0x6F,0x00,0x93,0x44,0x66,0x00,
	0x94,0x34,0x59,0x00,0x44,0x6F,0x04,0x91,
	0x50,0x00,0x00,0x4C,0x79,0x06,0xE0,0x00,
	0x1A,0x0C,0x00,0x25,0x09,0x00,0x31,0x08,
	0x00,0x38,0x06,0x00,0x3C,0x09,0x00,0x40,
	0x0A,0x91,0x4C,0x00,0x00,0xE1,0x00,0x0C,
	0x00,0x91,0x4C,0x79,0x0A,0xE1,0x00,0x1A,
	0x0C,0x00,0x25,0x09,0x00,0x31,0x08,0x00,
	0x38,0x06,0x00,0x3C,0x09,0x00,0x40,0x02,
	0x94,0x44,0x00,0x00,0x3B,0x59,0x00,0x95,
	0x44,0x64,0x00,0x50,0x64,0x3C,0x94,0x34,
	0x00,0x00,0x44,0x6C,0x3C,0x95,0x50,0x00,
	0x00,0x44,0x00,0x00,0x94,0x3B,0x00,0x00,
	0x40,0x50,0x00,0x95,0x42,0x64,0x00,0x4E,
	0x64,0x3C,0x94,0x44,0x00,0x00,0x3B,0x6F,
	0x3C,0x95,0x4E,0x00,0x00,0x93,0x44,0x00,
	0x00,0x95,0x42,0x00,0x00,0x93,0x45,0x5B,
	0x00,0x94,0x44,0x68,0x00,0x95,0x44,0x64,
	0x00,0x50,0x64,0x3C,0x93,0x45,0x00,0x00,
	0x94,0x3B,0x00,0x00,0x92,0x28,0x00,0x00,
	0x94,0x40,0x00,0x00,0x92,0x28,0x6F,0x00,
	0x93,0x47,0x5F,0x00,0x94,0x3B,0x5C,0x3C,
	0x93,0x47,0x00,0x00,0x95,0x44,0x00,0x00,
	0x90,0x4C,0x00,0x00,0x94,0x44,0x00,0x00,
	0x95,0x50,0x00,0x00,0x92,0x28,0x00,0x00,
	0x27,0x6F,0x00,0x93,0x42,0x65,0x00,0x94,
	0x33,0x69,0x00,0x42,0x69,0x00,0x95,0x42,
	0x64,0x00,0x4E,0x64,0x3C,0x94,0x3B,0x00,
	0x00,0x3F,0x58,0x04,0x91,0x4C,0x00,0x38,
	0x94,0x42,0x00,0x00,0x3B,0x62,0x3C,0x3F,
	0x00,0x00,0x33,0x00,0x00,0x42,0x74,0x3C,
	0x95,0x4E,0x00,0x00,0x42,0x00,0x00,0x94,
	0x3B,0x00,0x00,0x3F,0x59,0x00,0x95,0x47,
	0x63,0x00,0x53,0x63,0x3C,0x94,0x42,0x00,
	0x00,0x3B,0x67,0x3C,0x3F,0x00,0x00,0x93,
	0x42,0x00,0x00,0x44,0x5C,0x00,0x94,0x42,
	0x53,0x3C,0x93,0x44,0x00,0x00,0x94,0x3B,
	0x00,0x00,0x93,0x45,0x53,0x00,0x94,0x3F,
	0x6B,0x3C,0x3F,0x00,0x00,0x42,0x00,0x00,
	0x95,0x47,0x00,0x00,0x92,0x27,0x00,0x00,
	0x93,0x45,0x00,0x00,0x95,0x53,0x00,0x00,
	0x92,0x28,0x66,0x00,0x93,0x44,0x5D,0x00,
	0x94,0x38,0x57,0x00,0x95,0x40,0x5C,0x00,
	0x4C,0x5C,0x06,0x94,0x3B,0x59,0x06,0x40,
	0x62,0x82,0x5C,0x38,0x00,0x3C,0x3B,0x00,
	0x00,0x93,0x44,0x00,0x00,0x94,0x40,0x00,
	0x3C,0x92,0x28,0x00,0x00,0x95,0x40,0x00,
	0x00,0x4C,0x00,0x00,0xFF,0x2F,0x00,0x00,
};

__align(4) static const unsigned char classical45_mid[] = {
    0x4D,0x54,0x68,0x64,0x00,0x00,0x00,0x06,
    0x00,0x00,0x00,0x01,0x03,0xC0,0x4D,0x54,
    0x72,0x6B,0x00,0x00,0x10,0xB2,0x00,0xFF,
    0x03,0x08,0x75,0x6E,0x74,0x69,0x74,0x6C,
    0x65,0x64,0x00,0xFF,0x58,0x04,0x04,0x02,
    0x18,0x08,0x00,0xFF,0x59,0x02,0x02,0x00,
    0x00,0xFF,0x51,0x03,0x07,0xA1,0x20,0x00,
    0xC0,0x64,0x00,0xB0,0x07,0x4E,0x00,0x5B,
    0x60,0x00,0x5D,0x0A,0x00,0x90,0x4E,0x7F,
    0x00,0xC1,0x49,0x00,0xB1,0x07,0x7A,0x00,
    0x07,0x54,0x00,0x91,0x42,0x5C,0x00,0xC2,
    0x4F,0x00,0xB2,0x07,0x62,0x00,0x5B,0x2A,
    0x00,0x5D,0x3D,0x00,0x5B,0x1D,0x00,0x5D,
    0x39,0x00,0xC3,0x10,0x00,0xB3,0x07,0x55,
    0x00,0x5B,0x16,0x00,0x5D,0x3E,0x00,0x93,
    0x39,0x4C,0x00,0xC4,0x15,0x00,0xB4,0x07,
    0x5C,0x00,0x5B,0x14,0x00,0x5D,0x06,0x00,
    0x5D,0x1E,0x00,0x94,0x3E,0x64,0x00,0xC5,
    0x46,0x00,0xB5,0x07,0x42,0x00,0x5B,0x16,
    0x00,0x5D,0x08,0x00,0x95,0x39,0x64,0x50,
    0xB1,0x07,0x52,0x30,0x07,0x51,0x30,0x07,
    0x50,0x10,0x07,0x4F,0x30,0x07,0x4E,0x30,
    0x07,0x4D,0x60,0x07,0x4C,0x60,0x95,0x39,
    0x00,0x00,0x90,0x4E,0x00,0x00,0x91,0x42,
    0x00,0x00,0x90,0x4C,0x7F,0x00,0x91,0x40,
    0x5C,0x00,0x95,0x37,0x64,0x10,0xB1,0x07,
    0x4B,0x30,0x07,0x4A,0x81,0x20,0x07,0x49,
    0x40,0x07,0x48,0x10,0x07,0x47,0x50,0x07,
    0x46,0x60,0x95,0x37,0x00,0x00,0x90,0x4C,
    0x00,0x00,0x94,0x3E,0x00,0x00,0x93,0x39,
    0x00,0x00,0x91,0x40,0x00,0x00,0x90,0x4A,
    0x7F,0x00,0xB1,0x07,0x45,0x00,0x91,0x3E,
    0x5C,0x00,0x92,0x3E,0x4F,0x00,0x93,0x32,
    0x4C,0x00,0x94,0x39,0x64,0x00,0x95,0x36,
    0x64,0x40,0xB1,0x07,0x42,0x40,0x07,0x41,
    0x30,0x07,0x40,0x81,0x00,0x07,0x3F,0x40,
    0x07,0x3E,0x50,0x07,0x3D,0x20,0x92,0x3E,
    0x00,0x00,0x45,0x4F,0x81,0x00,0xB1,0x07,
    0x3C,0x60,0x07,0x3B,0x50,0x07,0x3A,0x81,
    0x00,0x07,0x39,0x30,0x92,0x45,0x00,0x00,
    0xB1,0x07,0x38,0x00,0x92,0x4E,0x4F,0x40,
    0xB1,0x07,0x37,0x40,0x07,0x36,0x20,0x07,
    0x35,0x60,0x07,0x34,0x20,0x07,0x33,0x70,
    0x07,0x31,0x50,0x92,0x4E,0x00,0x00,0x90,
    0x4A,0x00,0x00,0x91,0x3E,0x00,0x00,0x90,
    0x4C,0x7F,0x00,0x91,0x40,0x5C,0x00,0x92,
    0x4A,0x4F,0x81,0x50,0xB1,0x07,0x32,0x82,
    0x00,0x07,0x33,0x10,0x92,0x4A,0x00,0x00,
    0x94,0x39,0x00,0x00,0x95,0x36,0x00,0x00,
    0x90,0x4C,0x00,0x00,0x91,0x40,0x00,0x00,
    0x90,0x4E,0x7F,0x00,0x91,0x42,0x5C,0x00,
    0x92,0x51,0x4F,0x00,0x94,0x3E,0x64,0x00,
    0x95,0x3E,0x64,0x81,0x50,0xB1,0x07,0x34,
    0x70,0x07,0x35,0x30,0x07,0x36,0x40,0x07,
    0x37,0x30,0x91,0x42,0x00,0x00,0x90,0x4E,
    0x00,0x00,0x4F,0x7F,0x00,0xB1,0x07,0x38,
    0x00,0x91,0x43,0x5C,0x40,0xB1,0x07,0x39,
    0x70,0x07,0x3A,0x81,0x20,0x07,0x3B,0x60,
    0x07,0x3C,0x30,0x91,0x43,0x00,0x00,0x95,
    0x3E,0x00,0x00,0x94,0x3E,0x00,0x00,0x93,
    0x32,0x00,0x00,0x90,0x4F,0x00,0x00,0x92,
    0x51,0x00,0x00,0x90,0x51,0x7F,0x00,0x91,
    0x45,0x5C,0x00,0x92,0x42,0x4F,0x00,0x93,
    0x36,0x4C,0x00,0x94,0x40,0x64,0x00,0x95,
    0x3D,0x64,0x40,0xB1,0x07,0x3D,0x40,0x07,
    0x3E,0x1A,0x01,0x06,0x0C,0x01,0x08,0x10,
    0x01,0x0A,0x0F,0x01,0x0E,0x0B,0x07,0x3F,
    0x02,0x01,0x10,0x0C,0x01,0x12,0x0D,0x01,
    0x14,0x12,0x01,0x16,0x0D,0x01,0x18,0x0C,
    0x01,0x1A,0x0A,0x07,0x40,0x13,0x01,0x1C,
    0x10,0x01,0x1E,0x18,0x01,0x20,0x05,0x07,
    0x41,0x18,0x01,0x22,0x48,0x07,0x42,0x20,
    0x92,0x42,0x00,0x00,0x4A,0x4F,0x30,0xB1,
    0x07,0x43,0x40,0x07,0x44,0x81,0x10,0x07,
    0x45,0x40,0x07,0x46,0x81,0x20,0x92,0x4A,
    0x00,0x00,0x51,0x4F,0x30,0xB1,0x07,0x47,
    0x40,0x07,0x48,0x50,0x07,0x49,0x30,0x07,
    0x4A,0x30,0x07,0x4B,0x50,0x07,0x4C,0x30,
    0x07,0x4D,0x20,0x07,0x4E,0x20,0x92,0x51,
    0x00,0x00,0x4E,0x4F,0x10,0xB1,0x07,0x4F,
    0x20,0x07,0x50,0x40,0x07,0x51,0x60,0x07,
    0x52,0x70,0x07,0x53,0x1A,0x01,0x1C,0x0C,
    0x01,0x1A,0x0D,0x01,0x18,0x0D,0x01,0x16,
    0x10,0x07,0x54,0x00,0x01,0x12,0x10,0x01,
    0x0E,0x0D,0x01,0x0A,0x03,0x07,0x55,0x0A,
    0x01,0x06,0x10,0x01,0x02,0x14,0x01,0x00,
    0x02,0x92,0x4E,0x00,0x00,0x95,0x3D,0x00,
    0x00,0x90,0x51,0x00,0x00,0x94,0x40,0x00,
    0x00,0x91,0x45,0x00,0x00,0x90,0x53,0x7F,
    0x00,0x91,0x47,0x5C,0x00,0x92,0x56,0x4F,
    0x00,0x94,0x40,0x64,0x00,0x95,0x3B,0x64,
    0x30,0xB1,0x07,0x56,0x50,0x07,0x57,0x40,
    0x07,0x58,0x60,0x07,0x59,0x30,0x07,0x5A,
    0x70,0x07,0x5B,0x20,0x91,0x47,0x00,0x00,
    0x90,0x53,0x00,0x00,0x55,0x7F,0x00,0x91,
    0x49,0x5C,0x83,0x40,0xB1,0x07,0x5C,0x20,
    0x91,0x49,0x00,0x00,0x95,0x3B,0x00,0x00,
    0x94,0x40,0x00,0x00,0x93,0x36,0x00,0x00,
    0x90,0x55,0x00,0x00,0x92,0x56,0x00,0x00,
    0x90,0x56,0x7F,0x00,0x91,0x4A,0x5C,0x00,
    0x92,0x43,0x4F,0x00,0x93,0x37,0x4C,0x00,
    0x94,0x45,0x64,0x00,0x95,0x39,0x64,0x83,
    0x10,0xB1,0x07,0x5D,0x50,0x92,0x43,0x00,
    0x00,0x4A,0x4F,0x83,0x60,0x4A,0x00,0x00,
    0x91,0x4A,0x00,0x00,0x90,0x56,0x00,0x00,
    0x55,0x7F,0x00,0x91,0x49,0x5C,0x00,0x92,
    0x53,0x4F,0x83,0x60,0x53,0x00,0x00,0x4F,
    0x4F,0x82,0x30,0xB1,0x07,0x5C,0x81,0x20,
    0x07,0x5B,0x10,0x92,0x4F,0x00,0x00,0x91,
    0x49,0x00,0x00,0x95,0x39,0x00,0x00,0x90,
    0x55,0x00,0x00,0x94,0x45,0x00,0x00,0x90,
    0x53,0x7F,0x00,0x91,0x47,0x5C,0x00,0x92,
    0x56,0x4F,0x00,0x94,0x43,0x64,0x00,0x95,
    0x3B,0x64,0x20,0xB1,0x07,0x5A,0x60,0x07,
    0x59,0x70,0x07,0x58,0x60,0x07,0x57,0x81,
    0x10,0x95,0x3B,0x00,0x00,0x92,0x56,0x00,
    0x00,0x53,0x4F,0x00,0x95,0x3D,0x64,0x30,
    0xB1,0x07,0x56,0x83,0x10,0x07,0x55,0x20,
    0x95,0x3D,0x00,0x00,0x90,0x53,0x00,0x00,
    0x94,0x43,0x00,0x00,0x93,0x37,0x00,0x00,
    0x92,0x53,0x00,0x00,0x91,0x47,0x00,0x00,
    0x90,0x51,0x7F,0x00,0x91,0x45,0x5C,0x00,
    0x92,0x42,0x4F,0x00,0x93,0x32,0x4C,0x00,
    0x94,0x42,0x64,0x00,0x95,0x3E,0x64,0x20,
    0xB1,0x07,0x54,0x70,0x07,0x53,0x40,0x07,
    0x52,0x2A,0x01,0x04,0x0C,0x01,0x06,0x1D,
    0x01,0x08,0x0D,0x07,0x51,0x38,0x01,0x0A,
    0x50,0x01,0x0C,0x08,0x07,0x50,0x06,0x01,
    0x0E,0x0C,0x01,0x10,0x0E,0x92,0x42,0x00,
    0x00,0x4A,0x4F,0x10,0xB1,0x01,0x12,0x0E,
    0x01,0x14,0x0D,0x01,0x16,0x0F,0x01,0x18,
    0x16,0x07,0x4F,0x05,0x01,0x1A,0x36,0x01,
    0x1C,0x05,0x07,0x4E,0x30,0x07,0x4D,0x20,
    0x07,0x4C,0x30,0x07,0x4B,0x50,0x07,0x4A,
    0x40,0x07,0x49,0x40,0x92,0x4A,0x00,0x00,
    0xB1,0x07,0x48,0x00,0x92,0x51,0x4F,0x50,
    0xB1,0x07,0x47,0x50,0x07,0x46,0x50,0x07,
    0x45,0x50,0x07,0x44,0x81,0x20,0x92,0x51,
    0x00,0x00,0x4E,0x4F,0x81,0x6B,0xB1,0x01,
    0x16,0x1A,0x01,0x14,0x0D,0x01,0x12,0x1C,
    0x01,0x10,0x0F,0x01,0x0E,0x0E,0x01,0x0C,
    0x0E,0x01,0x0A,0x0C,0x01,0x06,0x10,0x01,
    0x00,0x6B,0x92,0x4E,0x00,0x00,0x95,0x3E,
    0x00,0x00,0x90,0x51,0x00,0x00,0x94,0x42,
    0x00,0x00,0x91,0x45,0x00,0x00,0x90,0x53,
    0x7F,0x00,0x91,0x47,0x5C,0x00,0x92,0x56,
    0x4F,0x00,0x94,0x3E,0x64,0x00,0x95,0x3B,
    0x64,0x81,0x30,0xB1,0x07,0x48,0x60,0x07,
    0x49,0x81,0x00,0x07,0x4A,0x50,0x95,0x3B,
    0x00,0x00,0x90,0x53,0x00,0x00,0x91,0x47,
    0x00,0x00,0x94,0x3E,0x00,0x00,0x90,0x55,
    0x7F,0x00,0xB1,0x07,0x4B,0x00,0x91,0x49,
    0x5C,0x00,0x94,0x40,0x64,0x00,0x95,0x39,
    0x64,0x30,0xB1,0x07,0x4C,0x40,0x07,0x4D,
    0x70,0x07,0x4E,0x82,0x00,0x95,0x39,0x00,
    0x00,0x93,0x32,0x00,0x00,0x90,0x55,0x00,
    0x00,0x92,0x56,0x00,0x00,0x94,0x40,0x00,
    0x00,0x91,0x49,0x00,0x00,0x90,0x56,0x7F,
    0x00,0xB1,0x07,0x4F,0x00,0x91,0x4A,0x5C,
    0x00,0x92,0x43,0x4F,0x00,0x93,0x37,0x4C,
    0x00,0x94,0x45,0x64,0x00,0x95,0x39,0x64,
    0x30,0xB1,0x07,0x50,0x30,0x07,0x51,0x40,
    0x07,0x52,0x40,0x07,0x53,0x30,0x07,0x54,
    0x20,0x07,0x55,0x20,0x07,0x56,0x30,0x07,
    0x57,0x50,0x07,0x58,0x10,0x92,0x43,0x00,
    0x00,0x4A,0x4F,0x83,0x60,0x4A,0x00,0x00,
    0x91,0x4A,0x00,0x00,0x90,0x56,0x00,0x00,
    0x94,0x45,0x00,0x00,0x90,0x55,0x7F,0x00,
    0x91,0x49,0x5C,0x00,0x92,0x53,0x4F,0x00,
    0x94,0x42,0x64,0x50,0xB1,0x07,0x57,0x40,
    0x07,0x56,0x40,0x07,0x55,0x81,0x10,0x07,
    0x54,0x81,0x00,0x92,0x53,0x00,0x00,0x4F,
    0x4F,0x81,0x20,0xB1,0x07,0x53,0x81,0x60,
    0x07,0x52,0x60,0x92,0x4F,0x00,0x00,0x94,
    0x42,0x00,0x00,0x90,0x55,0x00,0x00,0x91,
    0x49,0x00,0x00,0x95,0x39,0x00,0x00,0x90,
    0x53,0x7F,0x00,0x91,0x47,0x5C,0x00,0x92,
    0x56,0x4F,0x00,0x94,0x43,0x64,0x00,0x95,
    0x3D,0x64,0x82,0x00,0xB1,0x07,0x51,0x50,
    0x07,0x50,0x70,0x07,0x4F,0x81,0x30,0x07,
    0x4E,0x81,0x10,0x07,0x4D,0x81,0x10,0x07,
    0x4C,0x30,0x95,0x3D,0x00,0x00,0x90,0x53,
    0x00,0x00,0x91,0x47,0x00,0x00,0x93,0x37,
    0x00,0x00,0x94,0x43,0x00,0x00,0x92,0x56,
    0x00,0x00,0x90,0x51,0x7F,0x00,0x91,0x45,
    0x5C,0x00,0x92,0x42,0x4F,0x00,0x93,0x36,
    0x4C,0x00,0x94,0x45,0x64,0x00,0x95,0x3E,
    0x64,0x20,0xB1,0x07,0x4B,0x30,0x07,0x4A,
    0x30,0x07,0x49,0x40,0x07,0x48,0x30,0x07,
    0x47,0x81,0x00,0x07,0x46,0x70,0x92,0x42,
    0x00,0x00,0x4A,0x4F,0x83,0x60,0x4A,0x00,
    0x00,0x95,0x3E,0x00,0x00,0x90,0x51,0x00,
    0x00,0x94,0x45,0x00,0x00,0x91,0x45,0x00,
    0x00,0x90,0x53,0x7F,0x00,0x91,0x47,0x5C,
    0x00,0x92,0x51,0x4F,0x00,0x94,0x3E,0x64,
    0x00,0x95,0x3B,0x64,0x81,0x60,0xB1,0x07,
    0x47,0x20,0x07,0x48,0x60,0x07,0x4A,0x30,
    0x07,0x4B,0x50,0x92,0x51,0x00,0x00,0xB1,
    0x07,0x4C,0x00,0x92,0x4E,0x4F,0x40,0xB1,
    0x07,0x4D,0x40,0x07,0x4E,0x20,0x07,0x4F,
    0x20,0x07,0x50,0x30,0x07,0x51,0x81,0x70,
    0x92,0x4E,0x00,0x00,0x95,0x3B,0x00,0x00,
    0x91,0x47,0x00,0x00,0x93,0x36,0x00,0x00,
    0x90,0x53,0x00,0x00,0x94,0x3E,0x00,0x00,
    0x90,0x55,0x7F,0x00,0x91,0x49,0x5C,0x00,
    0x92,0x56,0x4F,0x00,0x93,0x37,0x4C,0x00,
    0x94,0x43,0x64,0x00,0x95,0x37,0x64,0x81,
    0x00,0xB1,0x07,0x52,0x81,0x40,0x07,0x53,
    0x60,0x07,0x54,0x40,0x92,0x56,0x00,0x00,
    0xB1,0x07,0x55,0x00,0x92,0x51,0x4F,0x40,
    0xB1,0x07,0x56,0x70,0x07,0x57,0x30,0x07,
    0x58,0x40,0x07,0x59,0x50,0x07,0x5A,0x30,
    0x07,0x5B,0x20,0x07,0x5C,0x10,0x07,0x5D,
    0x10,0x92,0x51,0x00,0x00,0x95,0x37,0x00,
    0x00,0x93,0x37,0x00,0x00,0x90,0x55,0x00,
    0x00,0x91,0x49,0x00,0x00,0x94,0x43,0x00,
    0x00,0x90,0x56,0x7F,0x00,0x91,0x4A,0x5C,
    0x00,0x92,0x40,0x4F,0x00,0x93,0x39,0x4C,
    0x00,0x94,0x42,0x64,0x00,0x95,0x36,0x64,
    0x10,0xB1,0x07,0x5E,0x20,0x07,0x5F,0x40,
    0x07,0x60,0x30,0x07,0x61,0x30,0x07,0x62,
    0x81,0x70,0x07,0x63,0x20,0x95,0x36,0x00,
    0x00,0x92,0x40,0x00,0x00,0x47,0x4F,0x00,
    0x95,0x37,0x64,0x81,0x60,0xB1,0x07,0x64,
    0x81,0x20,0x07,0x65,0x60,0x95,0x37,0x00,
    0x00,0x91,0x4A,0x00,0x00,0x90,0x56,0x00,
    0x00,0x92,0x47,0x00,0x00,0x90,0x51,0x7F,
    0x00,0x91,0x45,0x5C,0x00,0x92,0x4F,0x4F,
    0x00,0x95,0x39,0x64,0x70,0xB1,0x07,0x64,
    0x50,0x07,0x63,0x30,0x07,0x62,0x30,0x07,
    0x61,0x20,0x07,0x60,0x30,0x07,0x5F,0x20,
    0x07,0x5E,0x40,0x07,0x5D,0x10,0x92,0x4F,
    0x00,0x00,0xB1,0x07,0x5C,0x00,0x92,0x4A,
    0x4F,0x20,0xB1,0x07,0x5B,0x50,0x07,0x5A,
    0x40,0x07,0x59,0x40,0x07,0x58,0x50,0x07,
    0x57,0x30,0x07,0x56,0x10,0x07,0x53,0x20,
    0x07,0x53,0x10,0x07,0x52,0x30,0x92,0x4A,
    0x00,0x00,0x95,0x39,0x00,0x00,0x90,0x51,
    0x00,0x00,0x94,0x42,0x00,0x00,0x93,0x39,
    0x00,0x00,0x91,0x45,0x00,0x00,0x90,0x4F,
    0x7F,0x00,0xB1,0x07,0x51,0x00,0x91,0x43,
    0x5C,0x00,0x92,0x53,0x4F,0x00,0x93,0x2D,
    0x4C,0x00,0x94,0x40,0x64,0x00,0x95,0x2D,
    0x64,0x30,0xB1,0x07,0x50,0x81,0x00,0x07,
    0x4F,0x81,0x10,0x07,0x4E,0x81,0x20,0x92,
    0x53,0x00,0x00,0x4F,0x4F,0x81,0x00,0xB1,
    0x07,0x4D,0x81,0x70,0x07,0x4C,0x70,0x92,
    0x4F,0x00,0x00,0x95,0x2D,0x00,0x00,0x93,
    0x2D,0x00,0x00,0x90,0x4F,0x00,0x00,0x91,
    0x43,0x00,0x00,0x94,0x40,0x00,0x00,0x90,
    0x4E,0x7F,0x00,0xB1,0x07,0x4B,0x00,0x91,
    0x42,0x5C,0x00,0x92,0x3E,0x4F,0x00,0x93,
    0x32,0x4C,0x00,0x94,0x3E,0x64,0x00,0x95,
    0x32,0x64,0x0A,0xB1,0x01,0x02,0x1C,0x01,
    0x0A,0x0F,0x01,0x0E,0x0E,0x01,0x12,0x13,
    0x01,0x14,0x0F,0x01,0x16,0x81,0x56,0x01,
    0x18,0x08,0x07,0x34,0x10,0x01,0x1A,0x0A,
    0x07,0x34,0x01,0x07,0x34,0x14,0x01,0x1C,
    0x0E,0x01,0x1E,0x1A,0x01,0x20,0x29,0x01,
    0x22,0x1D,0x92,0x3E,0x00,0x00,0x45,0x4F,
    0x40,0xB1,0x01,0x24,0x83,0x20,0x92,0x45,
    0x00,0x00,0x4E,0x4F,0x83,0x60,0x4E,0x00,
    0x00,0x49,0x4F,0x32,0xB1,0x07,0x35,0x1B,
    0x01,0x1E,0x81,0x10,0x01,0x1C,0x13,0x90,
    0x4E,0x00,0x00,0x91,0x42,0x00,0x2A,0xB1,
    0x01,0x1A,0x30,0x07,0x34,0x10,0x01,0x18,
    0x1D,0x01,0x16,0x1C,0x01,0x14,0x0D,0x01,
    0x12,0x1D,0x01,0x10,0x0E,0x01,0x0E,0x0F,
    0x01,0x0C,0x06,0x94,0x3E,0x00,0x00,0x93,
    0x32,0x00,0x00,0x92,0x49,0x00,0x00,0x95,
    0x32,0x00,0x00,0x90,0x4E,0x7F,0x00,0x91,
    0x42,0x5C,0x00,0x92,0x51,0x4F,0x00,0x93,
    0x2D,0x4C,0x00,0x94,0x3D,0x64,0x00,0x95,
    0x39,0x64,0x06,0xB1,0x01,0x0A,0x14,0x01,
    0x08,0x06,0x07,0x4C,0x06,0x01,0x06,0x0F,
    0x01,0x04,0x0D,0x01,0x02,0x0E,0x01,0x00,
    0x60,0x07,0x4B,0x50,0x07,0x4A,0x81,0x30,
    0x07,0x49,0x30,0x95,0x39,0x00,0x00,0x91,
    0x42,0x00,0x00,0x90,0x4E,0x00,0x00,0x92,
    0x51,0x00,0x00,0x90,0x4C,0x7F,0x00,0x91,
    0x40,0x5C,0x00,0x92,0x45,0x4F,0x00,0x95,
    0x37,0x64,0x40,0xB1,0x07,0x48,0x70,0x07,
    0x47,0x50,0x07,0x46,0x81,0x10,0x07,0x45,
    0x30,0x07,0x44,0x20,0x95,0x37,0x00,0x00,
    0x93,0x2D,0x00,0x00,0x90,0x4C,0x00,0x00,
    0x94,0x3D,0x00,0x00,0x92,0x45,0x00,0x00,
    0x91,0x40,0x00,0x00,0x90,0x4A,0x7F,0x00,
    0x91,0x3E,0x5C,0x00,0x92,0x3E,0x4F,0x00,
    0x93,0x32,0x4C,0x00,0x94,0x39,0x64,0x00,
    0x95,0x36,0x64,0x30,0xB1,0x07,0x43,0x60,
    0x07,0x42,0x81,0x10,0x07,0x41,0x81,0x40,
    0x92,0x3E,0x00,0x00,0x45,0x4F,0x83,0x30,
    0xB1,0x07,0x40,0x30,0x92,0x45,0x00,0x00,
    0x4E,0x4F,0x83,0x60,0x4E,0x00,0x00,0x90,
    0x4A,0x00,0x00,0x91,0x3E,0x00,0x00,0x90,
    0x4C,0x7F,0x00,0x91,0x40,0x5C,0x00,0x92,
    0x4A,0x4F,0x83,0x10,0xB1,0x07,0x41,0x10,
    0x07,0x42,0x30,0x07,0x43,0x10,0x92,0x4A,
    0x00,0x00,0x94,0x39,0x00,0x00,0x95,0x36,
    0x00,0x00,0x90,0x4C,0x00,0x00,0x91,0x40,
    0x00,0x00,0x90,0x4E,0x7F,0x00,0x91,0x42,
    0x5C,0x00,0x92,0x51,0x4F,0x00,0x94,0x3E,
    0x64,0x00,0x95,0x2F,0x64,0x30,0xB1,0x07,
    0x44,0x30,0x07,0x45,0x20,0x07,0x46,0x20,
    0x07,0x47,0x40,0x07,0x48,0x20,0x07,0x49,
    0x20,0x07,0x4A,0x50,0x07,0x4B,0x30,0x07,
    0x4C,0x20,0x07,0x4D,0x20,0x91,0x42,0x00,
    0x00,0x90,0x4E,0x00,0x00,0x4F,0x7F,0x00,
    0xB1,0x07,0x4E,0x00,0x91,0x43,0x5C,0x81,
    0x00,0xB1,0x07,0x4F,0x81,0x40,0x07,0x50,
    0x50,0x07,0x51,0x20,0x07,0x52,0x20,0x07,
    0x53,0x10,0x91,0x43,0x00,0x00,0x95,0x2F,
    0x00,0x00,0x94,0x3E,0x00,0x00,0x93,0x32,
    0x00,0x00,0x90,0x4F,0x00,0x00,0x92,0x51,
    0x00,0x00,0x90,0x51,0x7F,0x00,0x91,0x45,
    0x5C,0x00,0x92,0x42,0x4F,0x00,0x93,0x36,
    0x4C,0x00,0x94,0x40,0x64,0x00,0x95,0x2D,
    0x64,0x20,0xB1,0x07,0x54,0x20,0x07,0x55,
    0x10,0x07,0x56,0x20,0x07,0x57,0x30,0x07,
    0x58,0x20,0x07,0x59,0x0D,0x01,0x08,0x0D,
    0x01,0x0E,0x0C,0x01,0x10,0x0A,0x07,0x5A,
    0x02,0x01,0x14,0x10,0x01,0x16,0x1E,0x07,
    0x5B,0x60,0x07,0x5C,0x08,0x01,0x12,0x58,
    0x92,0x42,0x00,0x00,0x4A,0x4F,0x81,0x0D,
    0xB1,0x01,0x18,0x13,0x07,0x5D,0x06,0x01,
    0x1A,0x2C,0x01,0x1C,0x18,0x01,0x1E,0x1E,
    0x01,0x20,0x18,0x07,0x5E,0x02,0x01,0x22,
    0x29,0x01,0x24,0x05,0x07,0x5F,0x0A,0x01,
    0x26,0x16,0x07,0x60,0x13,0x01,0x28,0x1D,
    0x07,0x61,0x30,0x07,0x62,0x10,0x92,0x4A,
    0x00,0x00,0x95,0x2D,0x00,0x00,0x92,0x51,
    0x4F,0x00,0x95,0x3D,0x64,0x30,0xB1,0x07,
    0x63,0x30,0x07,0x64,0x30,0x07,0x65,0x40,
    0x07,0x66,0x40,0x07,0x67,0x30,0x07,0x68,
    0x30,0x07,0x69,0x40,0x07,0x6A,0x30,0x92,
    0x51,0x00,0x00,0x4E,0x4F,0x10,0xB1,0x07,
    0x6B,0x7E,0x01,0x22,0x22,0x07,0x6C,0x1E,
    0x01,0x20,0x38,0x01,0x1E,0x1A,0x07,0x6D,
    0x10,0x01,0x1C,0x1B,0x01,0x1A,0x1D,0x01,
    0x18,0x08,0x07,0x6E,0x0D,0x01,0x16,0x09,
    0x01,0x14,0x0F,0x01,0x12,0x23,0x01,0x10,
    0x0B,0x01,0x0E,0x0E,0x01,0x0C,0x0C,0x01,
    0x0A,0x03,0x92,0x4E,0x00,0x00,0x95,0x3D,
    0x00,0x00,0x94,0x40,0x00,0x00,0x90,0x51,
    0x00,0x00,0x91,0x45,0x00,0x00,0x90,0x56,
    0x7F,0x00,0x91,0x4A,0x5C,0x00,0x92,0x56,
    0x4F,0x00,0x94,0x40,0x64,0x00,0x95,0x37,
    0x64,0x0D,0xB1,0x01,0x08,0x0E,0x01,0x06,
    0x0D,0x01,0x04,0x0E,0x01,0x02,0x0D,0x01,
    0x00,0x81,0x3D,0x07,0x6D,0x30,0x07,0x6C,
    0x20,0x07,0x6B,0x40,0x07,0x6A,0x20,0x07,
    0x69,0x30,0x91,0x4A,0x00,0x00,0x90,0x56,
    0x00,0x00,0x55,0x7F,0x00,0xB1,0x07,0x68,
    0x00,0x91,0x49,0x5C,0x20,0xB1,0x07,0x67,
    0x30,0x07,0x66,0x30,0x07,0x65,0x30,0x07,
    0x64,0x40,0x07,0x63,0x40,0x07,0x62,0x50,
    0x07,0x61,0x30,0x07,0x60,0x30,0x91,0x49,
    0x00,0x00,0x95,0x37,0x00,0x00,0x94,0x40,
    0x00,0x00,0x93,0x36,0x00,0x00,0x90,0x55,
    0x00,0x00,0x92,0x56,0x00,0x00,0x90,0x53,
    0x7F,0x00,0x91,0x47,0x5C,0x00,0x92,0x43,
    0x4F,0x00,0x93,0x37,0x4C,0x00,0x94,0x45,
    0x64,0x00,0x95,0x36,0x64,0x10,0xB1,0x07,
    0x5F,0x60,0x07,0x5E,0x70,0x07,0x5D,0x40,
    0x07,0x5C,0x20,0x07,0x5B,0x50,0x07,0x5A,
    0x20,0x07,0x59,0x20,0x07,0x58,0x10,0x92,
    0x43,0x00,0x00,0x4A,0x4F,0x7E,0xB1,0x07,
    0x38,0x82,0x62,0x92,0x4A,0x00,0x00,0x4F,
    0x4F,0x2E,0xB1,0x07,0x39,0x83,0x10,0x07,
    0x3A,0x22,0x92,0x4F,0x00,0x00,0x90,0x53,
    0x00,0x00,0x91,0x47,0x00,0x00,0x90,0x55,
    0x7F,0x00,0x91,0x49,0x5C,0x00,0x92,0x4A,
    0x4F,0x50,0xB1,0x07,0x5A,0x83,0x10,0x92,
    0x4A,0x00,0x00,0x94,0x45,0x00,0x00,0x95,
    0x36,0x00,0x00,0x90,0x55,0x00,0x00,0x91,
    0x49,0x00,0x00,0x90,0x56,0x7F,0x00,0xB1,
    0x07,0x5B,0x00,0x91,0x4A,0x5C,0x00,0x92,
    0x53,0x4F,0x00,0x94,0x43,0x64,0x00,0x95,
    0x3B,0x64,0x81,0x20,0xB1,0x07,0x5C,0x30,
    0x07,0x5D,0x30,0x07,0x5E,0x30,0x07,0x5F,
    0x20,0x07,0x60,0x40,0x07,0x61,0x20,0x07,
    0x62,0x30,0x95,0x3B,0x00,0x00,0x90,0x56,
    0x00,0x00,0x91,0x4A,0x00,0x00,0x90,0x58,
    0x7F,0x00,0xB1,0x07,0x63,0x00,0x91,0x4C,
    0x5C,0x00,0x95,0x3D,0x64,0x30,0xB1,0x07,
    0x64,0x50,0x07,0x65,0x30,0x07,0x66,0x30,
    0x07,0x67,0x30,0x07,0x68,0x40,0x07,0x69,
    0x40,0x07,0x6A,0x30,0x07,0x6B,0x20,0x95,
    0x3D,0x00,0x00,0x92,0x53,0x00,0x00,0x93,
    0x37,0x00,0x00,0x94,0x43,0x00,0x00,0x91,
    0x4C,0x00,0x00,0x90,0x58,0x00,0x00,0x5A,
    0x7F,0x00,0xB1,0x07,0x6C,0x00,0x91,0x4E,
    0x5C,0x00,0x92,0x42,0x4F,0x00,0x93,0x32,
    0x4C,0x00,0x94,0x42,0x64,0x00,0x95,0x3E,
    0x64,0x40,0xB1,0x07,0x6D,0x40,0x07,0x6E,
    0x20,0x07,0x6F,0x30,0x07,0x70,0x81,0x10,
    0x07,0x71,0x81,0x00,0x92,0x42,0x00,0x00,
    0xB1,0x07,0x72,0x00,0x92,0x4A,0x4F,0x30,
    0xB1,0x07,0x73,0x20,0x07,0x74,0x50,0x07,
    0x75,0x2B,0x01,0x06,0x05,0x07,0x76,0x81,
    0x00,0x01,0x08,0x50,0x07,0x77,0x2B,0x01,
    0x0A,0x15,0x92,0x4A,0x00,0x00,0x4E,0x4F,
    0x30,0xB1,0x01,0x0C,0x0D,0x01,0x0E,0x38,
    0x01,0x10,0x4E,0x01,0x12,0x45,0x01,0x14,
    0x1D,0x01,0x16,0x26,0x01,0x18,0x2A,0x01,
    0x1A,0x6B,0x92,0x4E,0x00,0x00,0x4A,0x4F,
    0x81,0x00,0xB1,0x07,0x76,0x4A,0x01,0x14,
    0x1B,0x01,0x12,0x1B,0x07,0x75,0x0E,0x01,
    0x10,0x0F,0x01,0x0E,0x13,0x07,0x74,0x05,
    0x01,0x0C,0x10,0x01,0x0A,0x1D,0x01,0x06,
    0x0C,0x01,0x04,0x0D,0x01,0x02,0x12,0x01,
    0x00,0x03,0x07,0x73,0x30,0x07,0x72,0x20,
    0x92,0x4A,0x00,0x00,0x95,0x3E,0x00,0x00,
    0x90,0x5A,0x00,0x00,0x94,0x42,0x00,0x00,
    0x91,0x4E,0x00,0x00,0x90,0x58,0x7F,0x00,
    0x91,0x4C,0x5C,0x00,0x92,0x51,0x4F,0x00,
    0x94,0x3E,0x64,0x00,0x95,0x37,0x64,0x20,
    0xB1,0x07,0x71,0x40,0x07,0x70,0x30,0x07,
    0x6F,0x30,0x07,0x6E,0x30,0x07,0x6D,0x20,
    0x07,0x6C,0x30,0x07,0x6B,0x50,0x07,0x6A,
    0x20,0x07,0x6A,0x20,0x07,0x69,0x10,0x95,
    0x37,0x00,0x00,0x94,0x3E,0x00,0x00,0x40,
    0x64,0x00,0x95,0x39,0x64,0x10,0xB1,0x07,
    0x68,0x30,0x07,0x67,0x40,0x07,0x66,0x30,
    0x07,0x65,0x50,0x07,0x64,0x60,0x07,0x63,
    0x50,0x07,0x62,0x30,0x95,0x39,0x00,0x00,
    0x90,0x58,0x00,0x00,0x92,0x51,0x00,0x00,
    0x93,0x32,0x00,0x00,0x94,0x40,0x00,0x00,
    0x91,0x4C,0x00,0x00,0x90,0x56,0x7F,0x00,
    0x91,0x4A,0x5C,0x00,0x92,0x43,0x4F,0x00,
    0x93,0x37,0x4C,0x00,0x94,0x45,0x64,0x00,
    0x95,0x36,0x64,0x82,0x10,0xB1,0x07,0x61,
    0x81,0x10,0x07,0x60,0x40,0x92,0x43,0x00,
    0x00,0x4A,0x4F,0x82,0x20,0xB1,0x07,0x5F,
    0x81,0x40,0x92,0x4A,0x00,0x00,0x95,0x36,
    0x00,0x00,0x90,0x56,0x00,0x00,0x94,0x45,
    0x00,0x00,0x91,0x4A,0x00,0x00,0x90,0x55,
    0x7F,0x00,0x91,0x49,0x5C,0x00,0x92,0x4F,
    0x4F,0x00,0x94,0x42,0x64,0x00,0x95,0x32,
    0x64,0x83,0x60,0x92,0x4F,0x00,0x00,0x4A,
    0x4F,0x82,0x40,0xB1,0x07,0x5E,0x81,0x20,
    0x92,0x4A,0x00,0x00,0x95,0x32,0x00,0x00,
    0x91,0x49,0x00,0x00,0x94,0x42,0x00,0x00,
    0x90,0x55,0x00,0x00,0x53,0x7F,0x00,0x91,
    0x47,0x5C,0x00,0x92,0x51,0x4F,0x00,0x94,
    0x43,0x64,0x00,0x95,0x3D,0x64,0x50,0xB1,
    0x07,0x5D,0x81,0x40,0x07,0x5C,0x40,0x07,
    0x5B,0x50,0x07,0x5A,0x40,0x92,0x51,0x00,
    0x00,0x4F,0x4F,0x20,0xB1,0x07,0x59,0x40,
    0x07,0x58,0x30,0x07,0x57,0x81,0x30,0x07,
    0x56,0x70,0x07,0x55,0x30,0x92,0x4F,0x00,
    0x00,0x95,0x3D,0x00,0x00,0x91,0x47,0x00,
    0x00,0x93,0x37,0x00,0x00,0x90,0x53,0x00,
    0x00,0x94,0x43,0x00,0x00,0x90,0x51,0x7F,
    0x00,0x91,0x45,0x5C,0x00,0x92,0x42,0x4F,
    0x00,0x93,0x36,0x4C,0x00,0x94,0x45,0x64,
    0x00,0x95,0x3E,0x64,0x20,0xB1,0x07,0x54,
    0x81,0x00,0x07,0x53,0x30,0x07,0x52,0x81,
    0x10,0x07,0x51,0x81,0x00,0x92,0x42,0x00,
    0x00,0x4A,0x4F,0x83,0x60,0x4A,0x00,0x00,
    0x91,0x45,0x00,0x00,0x90,0x51,0x00,0x00,
    0x94,0x45,0x00,0x00,0x90,0x53,0x7F,0x00,
    0x91,0x47,0x5C,0x00,0x92,0x4E,0x4F,0x00,
    0x94,0x43,0x64,0x82,0x00,0xB1,0x07,0x52,
    0x70,0x07,0x53,0x60,0x07,0x54,0x10,0x92,
    0x4E,0x00,0x00,0x4A,0x4F,0x20,0xB1,0x07,
    0x55,0x30,0x07,0x56,0x20,0x07,0x57,0x20,
    0x07,0x58,0x30,0x07,0x59,0x20,0x07,0x5A,
    0x50,0x07,0x5B,0x81,0x10,0x07,0x5C,0x20,
    0x92,0x4A,0x00,0x00,0x93,0x36,0x00,0x00,
    0x90,0x53,0x00,0x00,0x95,0x3E,0x00,0x00,
    0x91,0x47,0x00,0x00,0x90,0x55,0x7F,0x00,
    0x91,0x49,0x5C,0x00,0x92,0x51,0x4F,0x00,
    0x93,0x37,0x4C,0x00,0x95,0x34,0x64,0x50,
    0xB1,0x07,0x5D,0x30,0x07,0x5E,0x50,0x07,
    0x60,0x60,0x07,0x61,0x40,0x07,0x62,0x60,
    0x07,0x63,0x10,0x92,0x51,0x00,0x00,0x4E,
    0x4F,0x20,0xB1,0x07,0x64,0x81,0x00,0x07,
    0x65,0x30,0x07,0x66,0x60,0x07,0x67,0x81,
    0x20,0x07,0x68,0x10,0x92,0x4E,0x00,0x00,
    0x95,0x34,0x00,0x00,0x91,0x49,0x00,0x00,
    0x94,0x43,0x00,0x00,0x90,0x55,0x00,0x00,
    0x93,0x37,0x00,0x00,0x90,0x56,0x7F,0x00,
    0x91,0x4A,0x5C,0x00,0x92,0x40,0x4F,0x00,
    0x93,0x39,0x4C,0x00,0x94,0x42,0x64,0x00,
    0x95,0x36,0x64,0x83,0x60,0x36,0x00,0x00,
    0x92,0x40,0x00,0x00,0x4A,0x4F,0x00,0x95,
    0x37,0x64,0x83,0x60,0x37,0x00,0x00,0x91,
    0x4A,0x00,0x00,0x90,0x56,0x00,0x00,0x93,
    0x39,0x00,0x00,0x92,0x4A,0x00,0x00,0x90,
    0x51,0x7F,0x00,0x91,0x45,0x5C,0x00,0x92,
    0x4F,0x4F,0x00,0x93,0x2D,0x4C,0x00,0x95,
    0x3E,0x64,0x81,0x60,0xB1,0x07,0x68,0x20,
    0x07,0x67,0x60,0x07,0x66,0x20,0x07,0x65,
    0x50,0x07,0x64,0x10,0x92,0x4F,0x00,0x00,
    0x49,0x4F,0x20,0xB1,0x07,0x63,0x70,0x07,
    0x62,0x50,0x07,0x61,0x30,0x07,0x60,0x40,
    0x07,0x5F,0x50,0x07,0x5E,0x40,0x92,0x49,
    0x00,0x00,0x95,0x3E,0x00,0x00,0x91,0x45,
    0x00,0x00,0x94,0x42,0x00,0x00,0x90,0x51,
    0x00,0x00,0x93,0x2D,0x00,0x00,0x90,0x4F,
    0x7F,0x00,0x91,0x43,0x5C,0x00,0x92,0x47,
    0x4F,0x00,0x93,0x37,0x4C,0x00,0x94,0x40,
    0x64,0x00,0x95,0x3D,0x64,0x20,0xB1,0x07,
    0x5D,0x81,0x10,0x07,0x5C,0x70,0x07,0x5B,
    0x81,0x30,0x07,0x5A,0x10,0x92,0x47,0x00,
    0x00,0x45,0x4F,0x81,0x50,0xB1,0x07,0x59,
    0x70,0x07,0x58,0x40,0x07,0x57,0x10,0x07,
    0x54,0x50,0x92,0x45,0x00,0x00,0x95,0x3D,
    0x00,0x00,0x93,0x37,0x00,0x00,0x90,0x4F,
    0x00,0x00,0x91,0x43,0x00,0x00,0x94,0x40,
    0x00,0x00,0x90,0x4E,0x7F,0x00,0x91,0x42,
    0x5C,0x00,0x92,0x3E,0x4F,0x00,0x93,0x32,
    0x4C,0x00,0x36,0x4C,0x00,0x94,0x3E,0x64,
    0x00,0x95,0x39,0x64,0x10,0xB1,0x07,0x53,
    0x02,0x01,0x08,0x0C,0x01,0x0E,0x10,0x01,
    0x12,0x0E,0x01,0x18,0x04,0x07,0x52,0x0B,
    0x01,0x1E,0x0B,0x01,0x20,0x0D,0x01,0x24,
    0x0D,0x07,0x51,0x03,0x01,0x26,0x0D,0x01,
    0x28,0x0E,0x01,0x2A,0x35,0x01,0x2C,0x76,
    0x07,0x3B,0x81,0x27,0x92,0x3E,0x00,0x00,
    0x45,0x4F,0x81,0x19,0xB1,0x07,0x3A,0x82,
    0x40,0x07,0x39,0x07,0x92,0x45,0x00,0x00,
    0x4A,0x4F,0x00,0x4E,0x4F,0x12,0xB1,0x01,
    0x26,0x24,0x01,0x24,0x0D,0x01,0x22,0x38,
    0x01,0x20,0x37,0x01,0x1E,0x43,0x01,0x1C,
    0x44,0x07,0x38,0x81,0x1D,0x01,0x1A,0x55,
    0x01,0x18,0x0B,0x01,0x16,0x1C,0x01,0x14,
    0x0E,0x01,0x12,0x19,0x07,0x37,0x11,0x01,
    0x10,0x0C,0x01,0x0E,0x2B,0x01,0x0C,0x0D,
    0x01,0x0A,0x2A,0x01,0x08,0x0D,0x01,0x06,
    0x0D,0x01,0x04,0x0E,0x01,0x02,0x0E,0x01,
    0x00,0x81,0x0B,0x07,0x36,0x07,0x92,0x4E,
    0x00,0x00,0x90,0x4E,0x00,0x00,0x94,0x3E,
    0x00,0x00,0x91,0x42,0x00,0x00,0x93,0x32,
    0x00,0x00,0x36,0x00,0x00,0x95,0x39,0x00,
    0x00,0x92,0x4A,0x00,0x00,0xFF,0x2F,0x00,
};
    
__align(4) static const unsigned char Fest02_mid[] = {
	0x4D,0x54,0x68,0x64,0x00,0x00,0x00,0x06,
	0x00,0x01,0x00,0x11,0x00,0x78,0x4D,0x54,
	0x72,0x6B,0x00,0x00,0x00,0x3F,0x00,0xFF,
	0x03,0x08,0x75,0x6E,0x74,0x69,0x74,0x6C,
	0x65,0x64,0x00,0xFF,0x01,0x0E,0x4B,0x65,
	0x69,0x74,0x68,0x20,0x4D,0x61,0x6E,0x6E,
	0x65,0x72,0x73,0x0A,0x00,0xFF,0x58,0x04,
	0x04,0x02,0x18,0x08,0x00,0xFF,0x59,0x02,
	0x00,0x00,0x00,0xFF,0x51,0x03,0x06,0xE2,
	0x38,0x8F,0x00,0xFF,0x51,0x03,0x06,0xE2,
	0x38,0x00,0xFF,0x2F,0x00,0x4D,0x54,0x72,
	0x6B,0x00,0x00,0x01,0x72,0x00,0xB9,0x0A,
	0x40,0x00,0x99,0x24,0x7F,0x00,0x29,0x7F,
	0x00,0x23,0x7F,0x0F,0x23,0x00,0x00,0x29,
	0x00,0x00,0x24,0x00,0x69,0x24,0x7F,0x00,
	0x29,0x7F,0x00,0x23,0x7F,0x0F,0x23,0x00,
	0x00,0x29,0x00,0x00,0x24,0x00,0x69,0x24,
	0x7F,0x00,0x29,0x7F,0x00,0x23,0x7F,0x0F,
	0x23,0x00,0x00,0x29,0x00,0x00,0x24,0x00,
	0x69,0x24,0x7F,0x00,0x29,0x7F,0x00,0x23,
	0x7F,0x0F,0x23,0x00,0x00,0x29,0x00,0x00,
	0x24,0x00,0x69,0x24,0x7F,0x00,0x29,0x7F,
	0x00,0x23,0x7F,0x0F,0x23,0x00,0x00,0x29,
	0x00,0x00,0x24,0x00,0x69,0x24,0x7F,0x00,
	0x29,0x7F,0x00,0x23,0x7F,0x0F,0x23,0x00,
	0x00,0x29,0x00,0x00,0x24,0x00,0x69,0x24,
	0x7F,0x00,0x29,0x7F,0x00,0x23,0x7F,0x0F,
	0x23,0x00,0x00,0x29,0x00,0x00,0x24,0x00,
	0x69,0x24,0x7F,0x00,0x29,0x7F,0x00,0x23,
	0x7F,0x0F,0x23,0x00,0x00,0x29,0x00,0x00,
	0x24,0x00,0x69,0x24,0x7F,0x00,0x29,0x7F,
	0x00,0x23,0x7F,0x0F,0x23,0x00,0x00,0x29,
	0x00,0x00,0x24,0x00,0x69,0x24,0x7F,0x00,
	0x29,0x7F,0x00,0x23,0x7F,0x0F,0x23,0x00,
	0x00,0x29,0x00,0x00,0x24,0x00,0x69,0x24,
	0x7F,0x00,0x29,0x7F,0x00,0x23,0x7F,0x0F,
	0x23,0x00,0x00,0x29,0x00,0x00,0x24,0x00,
	0x69,0x24,0x7F,0x00,0x29,0x7F,0x00,0x23,
	0x7F,0x0F,0x23,0x00,0x00,0x29,0x00,0x00,
	0x24,0x00,0x84,0x49,0x24,0x7F,0x00,0x29,
	0x7F,0x00,0x23,0x7F,0x0F,0x23,0x00,0x00,
	0x29,0x00,0x00,0x24,0x00,0x69,0x24,0x7F,
	0x00,0x29,0x7F,0x00,0x23,0x7F,0x0F,0x23,
	0x00,0x00,0x29,0x00,0x00,0x24,0x00,0x69,
	0x24,0x7F,0x00,0x29,0x7F,0x00,0x23,0x7F,
	0x0F,0x23,0x00,0x00,0x29,0x00,0x00,0x24,
	0x00,0x69,0x24,0x7F,0x00,0x29,0x7F,0x00,
	0x23,0x7F,0x0F,0x23,0x00,0x00,0x29,0x00,
	0x00,0x24,0x00,0x69,0x24,0x7F,0x00,0x29,
	0x7F,0x00,0x23,0x7F,0x0F,0x23,0x00,0x00,
	0x29,0x00,0x00,0x24,0x00,0x69,0x24,0x7F,
	0x00,0x29,0x7F,0x00,0x23,0x7F,0x0F,0x23,
	0x00,0x00,0x29,0x00,0x00,0x24,0x00,0x69,
	0x24,0x7F,0x00,0x29,0x7F,0x00,0x23,0x7F,
	0x0F,0x23,0x00,0x00,0x29,0x00,0x00,0x24,
	0x00,0x69,0x24,0x7F,0x00,0x29,0x7F,0x00,
	0x23,0x7F,0x0F,0x23,0x00,0x00,0x29,0x00,
	0x00,0x24,0x00,0x00,0xFF,0x2F,0x00,0x4D,
	0x54,0x72,0x6B,0x00,0x00,0x01,0x2F,0x00,
	0xB9,0x0A,0x40,0x00,0x99,0x37,0x7F,0x0F,
	0x37,0x00,0x2D,0x2E,0x67,0x4B,0x2E,0x00,
	0x00,0x2C,0x38,0x0F,0x2C,0x00,0x1E,0x2E,
	0x64,0x4B,0x2E,0x00,0x00,0x2C,0x37,0x0F,
	0x2C,0x00,0x1E,0x2E,0x61,0x4B,0x2E,0x00,
	0x00,0x2C,0x37,0x0F,0x2C,0x00,0x1E,0x2E,
	0x69,0x4B,0x2E,0x00,0x00,0x2C,0x37,0x0F,
	0x2C,0x00,0x1E,0x2E,0x67,0x4B,0x2E,0x00,
	0x00,0x2C,0x38,0x0F,0x2C,0x00,0x1E,0x2E,
	0x64,0x4B,0x2E,0x00,0x00,0x2C,0x37,0x0F,
	0x2C,0x00,0x1E,0x2E,0x61,0x4B,0x2E,0x00,
	0x00,0x2C,0x37,0x0F,0x2C,0x00,0x1E,0x2E,
	0x69,0x4B,0x2E,0x00,0x00,0x2C,0x37,0x0F,
	0x2C,0x00,0x1E,0x2E,0x67,0x4B,0x2E,0x00,
	0x00,0x2C,0x38,0x0F,0x2C,0x00,0x1E,0x2E,
	0x64,0x4B,0x2E,0x00,0x00,0x2C,0x37,0x0F,
	0x2C,0x00,0x1E,0x2E,0x61,0x4B,0x2E,0x00,
	0x00,0x2C,0x37,0x0F,0x2C,0x00,0x1E,0x2E,
	0x69,0x4B,0x2E,0x00,0x00,0x2C,0x37,0x0F,
	0x2C,0x00,0x1E,0x2E,0x67,0x4B,0x2E,0x00,
	0x00,0x2C,0x38,0x0F,0x2C,0x00,0x1E,0x2E,
	0x64,0x4B,0x2E,0x00,0x00,0x2C,0x37,0x0F,
	0x2C,0x00,0x1E,0x2E,0x61,0x4B,0x2E,0x00,
	0x00,0x2C,0x37,0x0F,0x2C,0x00,0x1E,0x2E,
	0x69,0x4B,0x2E,0x00,0x00,0x2C,0x37,0x0F,
	0x2C,0x00,0x1E,0x2E,0x67,0x4B,0x2E,0x00,
	0x00,0x2C,0x38,0x0F,0x2C,0x00,0x1E,0x2E,
	0x64,0x4B,0x2E,0x00,0x00,0x2C,0x37,0x0F,
	0x2C,0x00,0x1E,0x2E,0x61,0x4B,0x2E,0x00,
	0x00,0x2C,0x37,0x0F,0x2C,0x00,0x1E,0x2E,
	0x69,0x4B,0x2E,0x00,0x00,0x2C,0x37,0x0F,
	0x2C,0x00,0x1E,0x2E,0x67,0x4B,0x2E,0x00,
	0x00,0x2C,0x38,0x0F,0x2C,0x00,0x1E,0x2E,
	0x64,0x4B,0x2E,0x00,0x00,0x2C,0x37,0x0F,
	0x2C,0x00,0x1E,0x2E,0x61,0x4B,0x2E,0x00,
	0x00,0x2C,0x37,0x0F,0x2C,0x00,0x1E,0x2E,
	0x69,0x4B,0x2E,0x00,0x00,0x2C,0x37,0x0F,
	0x2C,0x00,0x00,0xFF,0x2F,0x00,0x4D,0x54,
	0x72,0x6B,0x00,0x00,0x01,0x35,0x00,0xB9,
	0x0A,0x40,0x00,0x99,0x3C,0x57,0x0F,0x3C,
	0x00,0x0F,0x3E,0x7F,0x0F,0x3E,0x00,0x81,
	0x07,0x3D,0x2F,0x0F,0x3D,0x00,0x0F,0x3E,
	0x7F,0x0F,0x3E,0x00,0x0F,0x3C,0x3A,0x0F,
	0x3C,0x00,0x0F,0x3E,0x57,0x0F,0x3E,0x00,
	0x81,0x07,0x3D,0x2F,0x0F,0x3D,0x00,0x0F,
	0x3E,0x7F,0x0F,0x3E,0x00,0x0F,0x3C,0x41,
	0x0F,0x3C,0x00,0x0F,0x3E,0x7F,0x0F,0x3E,
	0x00,0x81,0x07,0x3D,0x2F,0x0F,0x3D,0x00,
	0x0F,0x3E,0x7F,0x0F,0x3E,0x00,0x0F,0x3C,
	0x3A,0x0F,0x3C,0x00,0x0F,0x3E,0x58,0x0F,
	0x3E,0x00,0x81,0x07,0x3D,0x2F,0x0F,0x3D,
	0x00,0x0F,0x3E,0x7F,0x0F,0x3E,0x00,0x0F,
	0x3C,0x47,0x0F,0x3C,0x00,0x0F,0x3E,0x7F,
	0x0F,0x3E,0x00,0x81,0x07,0x3D,0x2F,0x0F,
	0x3D,0x00,0x0F,0x3E,0x7F,0x0F,0x3E,0x00,
	0x0F,0x3C,0x3A,0x0F,0x3C,0x00,0x0F,0x3E,
	0x58,0x0F,0x3E,0x00,0x81,0x07,0x3D,0x2E,
	0x0F,0x3D,0x00,0x0F,0x3E,0x7F,0x0F,0x3E,
	0x00,0x0F,0x3C,0x42,0x0F,0x3C,0x00,0x0F,
	0x3E,0x7F,0x0F,0x3E,0x00,0x81,0x07,0x3D,
	0x2F,0x0F,0x3D,0x00,0x0F,0x3E,0x7F,0x0F,
	0x3E,0x00,0x0F,0x3C,0x3A,0x0F,0x3C,0x00,
	0x0F,0x3E,0x58,0x0F,0x3E,0x00,0x81,0x07,
	0x3D,0x2F,0x0F,0x3D,0x00,0x0F,0x3E,0x7F,
	0x0F,0x3E,0x00,0x0F,0x3C,0x46,0x0F,0x3C,
	0x00,0x0F,0x3E,0x7F,0x0F,0x3E,0x00,0x81,
	0x07,0x3D,0x2F,0x0F,0x3D,0x00,0x0F,0x3E,
	0x7F,0x0F,0x3E,0x00,0x0F,0x3C,0x3A,0x0F,
	0x3C,0x00,0x0F,0x3E,0x58,0x0F,0x3E,0x00,
	0x81,0x07,0x3D,0x2F,0x0F,0x3D,0x00,0x0F,
	0x3E,0x7F,0x0F,0x3E,0x00,0x0F,0x3C,0x46,
	0x0F,0x3C,0x00,0x0F,0x3E,0x7F,0x0F,0x3E,
	0x00,0x81,0x07,0x3D,0x2F,0x0F,0x3D,0x00,
	0x0F,0x3E,0x7F,0x0F,0x3E,0x00,0x0F,0x3C,
	0x3A,0x0F,0x3C,0x00,0x0F,0x3E,0x58,0x0F,
	0x3E,0x00,0x81,0x07,0x3D,0x2F,0x0F,0x3D,
	0x00,0x0F,0x3E,0x7F,0x0F,0x3E,0x00,0x00,
	0xFF,0x2F,0x00,0x4D,0x54,0x72,0x6B,0x00,
	0x00,0x00,0xA4,0x00,0xB9,0x0A,0x40,0x78,
	0x99,0x27,0x7F,0x00,0x28,0x45,0x0F,0x28,
	0x00,0x00,0x27,0x00,0x81,0x61,0x27,0x7F,
	0x00,0x28,0x45,0x0F,0x28,0x00,0x00,0x27,
	0x00,0x81,0x61,0x27,0x72,0x00,0x28,0x45,
	0x0F,0x28,0x00,0x00,0x27,0x00,0x81,0x61,
	0x27,0x7F,0x00,0x28,0x45,0x0F,0x28,0x00,
	0x00,0x27,0x00,0x81,0x61,0x27,0x7F,0x00,
	0x28,0x45,0x0F,0x28,0x00,0x00,0x27,0x00,
	0x81,0x61,0x27,0x7F,0x00,0x28,0x45,0x0F,
	0x28,0x00,0x00,0x27,0x00,0x81,0x61,0x27,
	0x7F,0x00,0x28,0x45,0x0F,0x28,0x00,0x00,
	0x27,0x00,0x81,0x61,0x27,0x7F,0x00,0x28,
	0x45,0x0F,0x28,0x00,0x00,0x27,0x00,0x81,
	0x61,0x27,0x7F,0x00,0x28,0x45,0x0F,0x28,
	0x00,0x00,0x27,0x00,0x81,0x61,0x27,0x7F,
	0x00,0x28,0x45,0x0F,0x28,0x00,0x00,0x27,
	0x00,0x81,0x61,0x27,0x7F,0x00,0x28,0x45,
	0x0F,0x28,0x00,0x00,0x27,0x00,0x81,0x61,
	0x27,0x7F,0x00,0x28,0x45,0x0F,0x28,0x00,
	0x00,0x27,0x00,0x00,0xFF,0x2F,0x00,0x4D,
	0x54,0x72,0x6B,0x00,0x00,0x01,0x91,0x00,
	0xB9,0x0A,0x40,0x87,0x40,0x99,0x26,0x26,
	0x1E,0x26,0x00,0x00,0x26,0x2B,0x1E,0x26,
	0x00,0x00,0x26,0x2F,0x1E,0x26,0x00,0x00,
	0x26,0x33,0x1E,0x26,0x00,0x00,0x26,0x37,
	0x1E,0x26,0x00,0x00,0x26,0x3A,0x1E,0x26,
	0x00,0x00,0x26,0x3E,0x1E,0x26,0x00,0x00,
	0x26,0x41,0x1E,0x26,0x00,0x00,0x26,0x44,
	0x1E,0x26,0x00,0x00,0x26,0x47,0x1E,0x26,
	0x00,0x00,0x26,0x49,0x1E,0x26,0x00,0x00,
	0x26,0x4D,0x1E,0x26,0x00,0x00,0x26,0x50,
	0x1E,0x26,0x00,0x00,0x26,0x51,0x1E,0x26,
	0x00,0x00,0x26,0x52,0x1E,0x26,0x00,0x00,
	0x26,0x55,0x1E,0x26,0x00,0x00,0x26,0x55,
	0x1E,0x26,0x00,0x00,0x26,0x57,0x1E,0x26,
	0x00,0x00,0x26,0x58,0x1E,0x26,0x00,0x00,
	0x26,0x5B,0x1E,0x26,0x00,0x00,0x26,0x5F,
	0x1E,0x26,0x00,0x00,0x26,0x62,0x1E,0x26,
	0x00,0x00,0x26,0x65,0x1E,0x26,0x00,0x00,
	0x26,0x69,0x1E,0x26,0x00,0x00,0x26,0x6C,
	0x1E,0x26,0x00,0x00,0x26,0x73,0x1E,0x26,
	0x00,0x00,0x26,0x79,0x1E,0x26,0x00,0x00,
	0x26,0x7F,0x1E,0x26,0x00,0x00,0x26,0x7F,
	0x1E,0x26,0x00,0x00,0x26,0x7F,0x1E,0x26,
	0x00,0x00,0x26,0x7F,0x1E,0x26,0x00,0x00,
	0x26,0x7F,0x1E,0x26,0x00,0x00,0x26,0x7F,
	0x1E,0x26,0x00,0x87,0x22,0x26,0x24,0x1E,
	0x26,0x00,0x00,0x26,0x28,0x1E,0x26,0x00,
	0x00,0x26,0x2B,0x1E,0x26,0x00,0x00,0x26,
	0x2B,0x1E,0x26,0x00,0x00,0x26,0x2F,0x1E,
	0x26,0x00,0x00,0x26,0x30,0x1E,0x26,0x00,
	0x00,0x26,0x32,0x1E,0x26,0x00,0x00,0x26,
	0x33,0x1E,0x26,0x00,0x00,0x26,0x35,0x1E,
	0x26,0x00,0x00,0x26,0x38,0x1E,0x26,0x00,
	0x00,0x26,0x3C,0x1E,0x26,0x00,0x00,0x26,
	0x41,0x1E,0x26,0x00,0x00,0x26,0x44,0x1E,
	0x26,0x00,0x00,0x26,0x47,0x1E,0x26,0x00,
	0x00,0x26,0x49,0x1E,0x26,0x00,0x00,0x26,
	0x4C,0x1E,0x26,0x00,0x00,0x26,0x4E,0x1E,
	0x26,0x00,0x00,0x26,0x50,0x1E,0x26,0x00,
	0x00,0x26,0x53,0x1E,0x26,0x00,0x00,0x26,
	0x57,0x1E,0x26,0x00,0x00,0x26,0x5B,0x1E,
	0x26,0x00,0x00,0x26,0x5F,0x1E,0x26,0x00,
	0x00,0x26,0x62,0x1E,0x26,0x00,0x00,0x26,
	0x66,0x1E,0x26,0x00,0x00,0x26,0x6B,0x1E,
	0x26,0x00,0x00,0x26,0x6E,0x1E,0x26,0x00,
	0x00,0x26,0x71,0x1E,0x26,0x00,0x00,0x26,
	0x75,0x1E,0x26,0x00,0x00,0x26,0x79,0x1E,
	0x26,0x00,0x00,0x26,0x7F,0x1E,0x26,0x00,
	0x00,0x26,0x7F,0x1E,0x26,0x00,0x00,0x26,
	0x7F,0x1E,0x26,0x00,0x00,0xFF,0x2F,0x00,
	0x4D,0x54,0x72,0x6B,0x00,0x00,0x01,0xA7,
	0x00,0xC0,0x2D,0x00,0xB0,0x07,0x7F,0x00,
	0x0A,0x7F,0x41,0x90,0x5A,0x7F,0x00,0x5E,
	0x7F,0x00,0x52,0x7F,0x1E,0x52,0x00,0x00,
	0x5E,0x00,0x00,0x5A,0x00,0x1E,0x52,0x7F,
	0x00,0x5E,0x7F,0x00,0x5A,0x7F,0x1E,0x5A,
	0x00,0x00,0x5E,0x00,0x00,0x52,0x00,0x1E,
	0x52,0x7F,0x00,0x5A,0x7F,0x00,0x5E,0x7F,
	0x1E,0x5E,0x00,0x00,0x5A,0x00,0x00,0x52,
	0x00,0x78,0x5A,0x7F,0x00,0x5A,0x7F,0x00,
	0x5E,0x7F,0x00,0x52,0x7F,0x1E,0x52,0x00,
	0x00,0x5A,0x00,0x00,0x5A,0x00,0x00,0x5E,
	0x00,0x3C,0x50,0x7F,0x00,0x50,0x7F,0x00,
	0x50,0x7F,0x00,0x55,0x7F,0x00,0x5C,0x7F,
	0x1E,0x5C,0x00,0x00,0x50,0x00,0x00,0x50,
	0x00,0x00,0x50,0x00,0x00,0x55,0x00,0x78,
	0x50,0x7F,0x00,0x50,0x7F,0x00,0x50,0x7F,
	0x00,0x50,0x7F,0x00,0x50,0x7F,0x00,0x5C,
	0x7F,0x00,0x55,0x7F,0x1E,0x55,0x00,0x00,
	0x50,0x00,0x00,0x50,0x00,0x00,0x50,0x00,
	0x00,0x50,0x00,0x00,0x5C,0x00,0x00,0x50,
	0x00,0x3C,0x50,0x7F,0x00,0x50,0x7F,0x00,
	0x5C,0x7F,0x00,0x55,0x7F,0x1E,0x55,0x00,
	0x00,0x50,0x00,0x00,0x50,0x00,0x00,0x5C,
	0x00,0x78,0x50,0x7F,0x00,0x50,0x7F,0x00,
	0x50,0x7F,0x00,0x5C,0x7F,0x00,0x55,0x7F,
	0x1E,0x55,0x00,0x00,0x50,0x00,0x00,0x50,
	0x00,0x00,0x50,0x00,0x00,0x5C,0x00,0x3C,
	0x50,0x7F,0x00,0x55,0x7F,0x00,0x5C,0x7F,
	0x1E,0x5C,0x00,0x00,0x55,0x00,0x00,0x50,
	0x00,0x5A,0x5A,0x7F,0x00,0x5A,0x7F,0x00,
	0x5A,0x7F,0x00,0x5A,0x7F,0x00,0x5E,0x7F,
	0x00,0x52,0x7F,0x1E,0x52,0x00,0x00,0x5A,
	0x00,0x00,0x5A,0x00,0x00,0x5A,0x00,0x00,
	0x5E,0x00,0x00,0x5A,0x00,0x1E,0x52,0x7F,
	0x00,0x5E,0x7F,0x00,0x5A,0x7F,0x1E,0x5A,
	0x00,0x00,0x5E,0x00,0x00,0x52,0x00,0x1E,
	0x52,0x7F,0x00,0x5A,0x7F,0x00,0x5E,0x7F,
	0x1E,0x5E,0x00,0x00,0x5A,0x00,0x00,0x52,
	0x00,0x78,0x5A,0x7F,0x00,0x5E,0x7F,0x00,
	0x52,0x7F,0x1E,0x52,0x00,0x00,0x5E,0x00,
	0x00,0x5A,0x00,0x3C,0x50,0x7F,0x00,0x55,
	0x7F,0x00,0x5C,0x7F,0x1E,0x5C,0x00,0x00,
	0x55,0x00,0x00,0x50,0x00,0x78,0x50,0x7F,
	0x00,0x5C,0x7F,0x00,0x55,0x7F,0x1E,0x55,
	0x00,0x00,0x5C,0x00,0x00,0x50,0x00,0x3C,
	0x50,0x7F,0x00,0x5C,0x7F,0x00,0x55,0x7F,
	0x1E,0x55,0x00,0x00,0x5C,0x00,0x00,0x50,
	0x00,0x78,0x50,0x7F,0x00,0x50,0x7F,0x00,
	0x5C,0x7F,0x00,0x55,0x7F,0x1E,0x55,0x00,
	0x00,0x50,0x00,0x00,0x50,0x00,0x00,0x5C,
	0x00,0x3C,0x50,0x7F,0x00,0x55,0x7F,0x00,
	0x5C,0x7F,0x1E,0x5C,0x00,0x00,0x55,0x00,
	0x00,0x50,0x00,0x00,0xFF,0x2F,0x00,0x4D,
	0x54,0x72,0x6B,0x00,0x00,0x02,0x97,0x00,
	0xC1,0x51,0x00,0xB1,0x07,0x7F,0x00,0x0A,
	0x00,0x00,0x91,0x5A,0x6C,0x1E,0x5A,0x00,
	0x1E,0x4E,0x7F,0x00,0x52,0x7F,0x00,0x46,
	0x7F,0x1E,0x46,0x00,0x00,0x52,0x00,0x00,
	0x4E,0x00,0x1E,0x46,0x7F,0x00,0x52,0x7F,
	0x00,0x4E,0x7F,0x1E,0x4E,0x00,0x00,0x52,
	0x00,0x00,0x46,0x00,0x1E,0x46,0x7F,0x00,
	0x4E,0x7F,0x00,0x52,0x7F,0x1E,0x52,0x00,
	0x00,0x4E,0x00,0x00,0x46,0x00,0x78,0x4E,
	0x7F,0x00,0x4E,0x7F,0x00,0x52,0x7F,0x00,
	0x46,0x7F,0x1E,0x46,0x00,0x00,0x4E,0x00,
	0x00,0x4E,0x00,0x00,0x52,0x00,0x3C,0x44,
	0x7F,0x00,0x44,0x7F,0x00,0x44,0x7F,0x00,
	0x49,0x7F,0x00,0x50,0x7F,0x1E,0x50,0x00,
	0x00,0x44,0x00,0x00,0x44,0x00,0x00,0x44,
	0x00,0x00,0x49,0x00,0x78,0x44,0x7F,0x00,
	0x44,0x7F,0x00,0x44,0x7F,0x00,0x44,0x7F,
	0x00,0x44,0x7F,0x00,0x50,0x7F,0x00,0x49,
	0x7F,0x1E,0x49,0x00,0x00,0x44,0x00,0x00,
	0x44,0x00,0x00,0x44,0x00,0x00,0x44,0x00,
	0x00,0x50,0x00,0x00,0x44,0x00,0x3C,0x44,
	0x7F,0x00,0x44,0x7F,0x00,0x50,0x7F,0x00,
	0x49,0x7F,0x1E,0x49,0x00,0x00,0x44,0x00,
	0x00,0x44,0x00,0x00,0x50,0x00,0x78,0x44,
	0x7F,0x00,0x44,0x7F,0x00,0x44,0x7F,0x00,
	0x50,0x7F,0x00,0x49,0x7F,0x1E,0x49,0x00,
	0x00,0x44,0x00,0x00,0x44,0x00,0x00,0x44,
	0x00,0x00,0x50,0x00,0x3C,0x44,0x7F,0x00,
	0x49,0x7F,0x00,0x50,0x7F,0x1E,0x50,0x00,
	0x00,0x49,0x00,0x00,0x44,0x00,0x5A,0x4E,
	0x7F,0x00,0x4E,0x7F,0x00,0x4E,0x7F,0x00,
	0x4E,0x7F,0x00,0x52,0x7F,0x00,0x46,0x7F,
	0x1E,0x46,0x00,0x00,0x4E,0x00,0x00,0x4E,
	0x00,0x00,0x4E,0x00,0x00,0x52,0x00,0x00,
	0x4E,0x00,0x1E,0x46,0x7F,0x00,0x52,0x7F,
	0x00,0x4E,0x7F,0x1E,0x4E,0x00,0x00,0x52,
	0x00,0x00,0x46,0x00,0x1E,0x46,0x7F,0x00,
	0x4E,0x7F,0x00,0x52,0x7F,0x1E,0x52,0x00,
	0x00,0x4E,0x00,0x00,0x46,0x00,0x78,0x4E,
	0x7F,0x00,0x52,0x7F,0x00,0x46,0x7F,0x1E,
	0x46,0x00,0x00,0x52,0x00,0x00,0x4E,0x00,
	0x3C,0x44,0x7F,0x00,0x49,0x7F,0x00,0x50,
	0x7F,0x1E,0x50,0x00,0x00,0x49,0x00,0x00,
	0x44,0x00,0x78,0x44,0x7F,0x00,0x50,0x7F,
	0x00,0x49,0x7F,0x1E,0x49,0x00,0x00,0x50,
	0x00,0x00,0x44,0x00,0x3C,0x44,0x7F,0x00,
	0x50,0x7F,0x00,0x49,0x7F,0x1E,0x49,0x00,
	0x00,0x50,0x00,0x00,0x44,0x00,0x78,0x44,
	0x7F,0x00,0x44,0x7F,0x00,0x50,0x7F,0x00,
	0x49,0x7F,0x1E,0x49,0x00,0x00,0x44,0x00,
	0x00,0x44,0x00,0x00,0x50,0x00,0x3C,0x44,
	0x7F,0x00,0x49,0x7F,0x00,0x50,0x7F,0x1E,
	0x50,0x00,0x00,0x49,0x00,0x00,0x44,0x00,
	0x1E,0x4B,0x7F,0x0F,0x4B,0x00,0x0F,0x4B,
	0x7F,0x0F,0x4B,0x00,0x0F,0x49,0x7F,0x1E,
	0x49,0x00,0x3C,0x4B,0x7F,0x0F,0x4B,0x00,
	0x0F,0x49,0x7F,0x1E,0x49,0x00,0x1E,0x4B,
	0x7F,0x0F,0x4B,0x00,0x0F,0x3F,0x7F,0x0F,
	0x3F,0x00,0x0F,0x44,0x7F,0x0F,0x44,0x00,
	0x0F,0x46,0x7F,0x0F,0x46,0x00,0x2D,0x44,
	0x7F,0x0F,0x44,0x00,0x0F,0x42,0x7F,0x0F,
	0x42,0x00,0x0F,0x44,0x7F,0x0F,0x44,0x00,
	0x4B,0x44,0x7F,0x0F,0x44,0x00,0x2D,0x3D,
	0x7F,0x0F,0x3D,0x00,0x0F,0x3F,0x7F,0x0F,
	0x3F,0x00,0x0F,0x42,0x7F,0x0F,0x42,0x00,
	0x69,0x3A,0x7F,0x0F,0x3A,0x00,0x4B,0x38,
	0x7F,0x0F,0x38,0x00,0x0F,0x36,0x7F,0x0F,
	0x36,0x00,0x0F,0x38,0x7F,0x0F,0x38,0x00,
	0x2D,0x33,0x7F,0x1E,0x33,0x00,0x00,0x38,
	0x7F,0x1E,0x38,0x00,0x1E,0x3A,0x7F,0x1E,
	0x3A,0x00,0x1E,0x3D,0x7F,0x1E,0x3D,0x00,
	0x3C,0x44,0x7F,0x0F,0x44,0x00,0x4B,0x46,
	0x7F,0x0F,0x46,0x00,0x4B,0x46,0x7F,0x0F,
	0x46,0x00,0x0F,0x46,0x7F,0x0F,0x46,0x00,
	0x0F,0x42,0x7F,0x0F,0x42,0x00,0x0F,0x49,
	0x7F,0x0F,0x49,0x00,0x0F,0x4B,0x7F,0x0F,
	0x4B,0x00,0x2D,0x42,0x7F,0x0F,0x42,0x00,
	0x0F,0x4E,0x7F,0x0F,0x4E,0x00,0x2D,0x42,
	0x7F,0x0F,0x42,0x00,0x0F,0x50,0x7F,0x0F,
	0x50,0x00,0x2D,0x44,0x7B,0x0F,0x44,0x00,
	0x0F,0x52,0x79,0x0F,0x52,0x00,0x2D,0x50,
	0x6C,0x0F,0x50,0x00,0x0F,0x57,0x5F,0x0F,
	0x57,0x00,0x00,0xFF,0x2F,0x00,0x4D,0x54,
	0x72,0x6B,0x00,0x00,0x02,0xB5,0x00,0xC2,
	0x2D,0x00,0xB2,0x07,0x7F,0x00,0x0A,0x64,
	0x3C,0x92,0x4E,0x65,0x00,0x52,0x65,0x00,
	0x46,0x65,0x1E,0x46,0x00,0x00,0x52,0x00,
	0x00,0x4E,0x00,0x1E,0x46,0x65,0x00,0x52,
	0x65,0x00,0x4E,0x65,0x1E,0x4E,0x00,0x00,
	0x52,0x00,0x00,0x46,0x00,0x1E,0x46,0x65,
	0x00,0x4E,0x65,0x00,0x52,0x65,0x1E,0x52,
	0x00,0x00,0x4E,0x00,0x00,0x46,0x00,0x1E,
	0x46,0x40,0x00,0x4E,0x40,0x00,0x52,0x40,
	0x1E,0x52,0x00,0x00,0x4E,0x00,0x00,0x46,
	0x00,0x1E,0x46,0x40,0x00,0x4E,0x40,0x00,
	0x52,0x40,0x1E,0x52,0x00,0x00,0x4E,0x00,
	0x00,0x46,0x00,0x00,0x4E,0x65,0x00,0x4E,
	0x65,0x00,0x52,0x65,0x00,0x46,0x65,0x1E,
	0x46,0x00,0x00,0x4E,0x00,0x00,0x4E,0x00,
	0x00,0x52,0x00,0x3C,0x44,0x65,0x00,0x44,
	0x65,0x00,0x44,0x65,0x00,0x49,0x65,0x00,
	0x50,0x65,0x1E,0x50,0x00,0x00,0x44,0x00,
	0x00,0x44,0x00,0x00,0x44,0x00,0x00,0x49,
	0x00,0x00,0x46,0x2E,0x00,0x4E,0x2E,0x00,
	0x52,0x2E,0x1E,0x52,0x00,0x00,0x4E,0x00,
	0x00,0x46,0x00,0x3C,0x44,0x40,0x00,0x49,
	0x40,0x00,0x50,0x40,0x1E,0x50,0x00,0x00,
	0x49,0x00,0x00,0x44,0x00,0x00,0x44,0x65,
	0x00,0x44,0x65,0x00,0x44,0x65,0x00,0x44,
	0x65,0x00,0x44,0x65,0x00,0x50,0x65,0x00,
	0x49,0x65,0x1E,0x49,0x00,0x00,0x44,0x00,
	0x00,0x44,0x00,0x00,0x44,0x00,0x00,0x44,
	0x00,0x00,0x50,0x00,0x00,0x44,0x00,0x3C,
	0x44,0x65,0x00,0x44,0x65,0x00,0x50,0x65,
	0x00,0x49,0x65,0x1E,0x49,0x00,0x00,0x44,
	0x00,0x00,0x44,0x00,0x00,0x50,0x00,0x00,
	0x44,0x3C,0x00,0x49,0x3C,0x00,0x50,0x3C,
	0x1E,0x50,0x00,0x00,0x49,0x00,0x00,0x44,
	0x00,0x3C,0x44,0x3C,0x00,0x49,0x3C,0x00,
	0x50,0x3C,0x1E,0x50,0x00,0x00,0x49,0x00,
	0x00,0x44,0x00,0x00,0x44,0x65,0x00,0x44,
	0x65,0x00,0x44,0x65,0x00,0x50,0x65,0x00,
	0x49,0x65,0x1E,0x49,0x00,0x00,0x44,0x00,
	0x00,0x44,0x00,0x00,0x44,0x00,0x00,0x50,
	0x00,0x3C,0x44,0x65,0x00,0x49,0x65,0x00,
	0x50,0x65,0x1E,0x50,0x00,0x00,0x49,0x00,
	0x00,0x44,0x00,0x3C,0x44,0x34,0x00,0x49,
	0x34,0x00,0x50,0x34,0x1E,0x50,0x00,0x00,
	0x49,0x00,0x00,0x44,0x00,0x00,0x4E,0x65,
	0x00,0x4E,0x65,0x00,0x4E,0x65,0x00,0x4E,
	0x65,0x00,0x52,0x65,0x00,0x46,0x65,0x1E,
	0x46,0x00,0x00,0x4E,0x00,0x00,0x4E,0x00,
	0x00,0x4E,0x00,0x00,0x52,0x00,0x00,0x4E,
	0x00,0x1E,0x46,0x65,0x00,0x52,0x65,0x00,
	0x4E,0x65,0x1E,0x4E,0x00,0x00,0x52,0x00,
	0x00,0x46,0x00,0x1E,0x46,0x65,0x00,0x4E,
	0x65,0x00,0x52,0x65,0x1E,0x52,0x00,0x00,
	0x4E,0x00,0x00,0x46,0x00,0x1E,0x46,0x40,
	0x00,0x4E,0x40,0x00,0x52,0x40,0x1E,0x52,
	0x00,0x00,0x4E,0x00,0x00,0x46,0x00,0x1E,
	0x46,0x40,0x00,0x4E,0x40,0x00,0x52,0x40,
	0x1E,0x52,0x00,0x00,0x4E,0x00,0x00,0x46,
	0x00,0x00,0x4E,0x65,0x00,0x52,0x65,0x00,
	0x46,0x65,0x1E,0x46,0x00,0x00,0x52,0x00,
	0x00,0x4E,0x00,0x3C,0x44,0x65,0x00,0x49,
	0x65,0x00,0x50,0x65,0x1E,0x50,0x00,0x00,
	0x49,0x00,0x00,0x44,0x00,0x00,0x46,0x2E,
	0x00,0x4E,0x2E,0x00,0x52,0x2E,0x1E,0x52,
	0x00,0x00,0x4E,0x00,0x00,0x46,0x00,0x3C,
	0x44,0x41,0x00,0x49,0x41,0x00,0x50,0x41,
	0x1E,0x50,0x00,0x00,0x49,0x00,0x00,0x44,
	0x00,0x00,0x44,0x65,0x00,0x50,0x65,0x00,
	0x49,0x65,0x1E,0x49,0x00,0x00,0x50,0x00,
	0x00,0x44,0x00,0x3C,0x44,0x65,0x00,0x50,
	0x65,0x00,0x49,0x65,0x1E,0x49,0x00,0x00,
	0x50,0x00,0x00,0x44,0x00,0x00,0x44,0x3C,
	0x00,0x49,0x3C,0x00,0x50,0x3C,0x1E,0x50,
	0x00,0x00,0x49,0x00,0x00,0x44,0x00,0x3C,
	0x44,0x48,0x00,0x49,0x48,0x00,0x50,0x48,
	0x1E,0x50,0x00,0x00,0x49,0x00,0x00,0x44,
	0x00,0x00,0x44,0x65,0x00,0x44,0x65,0x00,
	0x50,0x65,0x00,0x49,0x65,0x1E,0x49,0x00,
	0x00,0x44,0x00,0x00,0x44,0x00,0x00,0x50,
	0x00,0x3C,0x44,0x65,0x00,0x49,0x65,0x00,
	0x50,0x65,0x1E,0x50,0x00,0x00,0x49,0x00,
	0x00,0x44,0x00,0x00,0x44,0x41,0x00,0x49,
	0x41,0x00,0x50,0x41,0x1E,0x50,0x00,0x00,
	0x49,0x00,0x00,0x44,0x00,0x3C,0x44,0x35,
	0x00,0x49,0x35,0x00,0x50,0x35,0x1E,0x50,
	0x00,0x00,0x49,0x00,0x00,0x44,0x00,0x00,
	0xFF,0x2F,0x00,0x4D,0x54,0x72,0x6B,0x00,
	0x00,0x00,0x9F,0x00,0xC3,0x2D,0x00,0xB3,
	0x07,0x7F,0x00,0x0A,0x50,0x3C,0x93,0x4E,
	0x65,0x1E,0x4E,0x00,0x1E,0x4E,0x65,0x1E,
	0x4E,0x00,0x1E,0x4E,0x65,0x1E,0x4E,0x00,
	0x5A,0x4E,0x52,0x1E,0x4E,0x00,0x00,0x4E,
	0x65,0x1E,0x4E,0x00,0x3C,0x4E,0x65,0x1E,
	0x4E,0x00,0x5A,0x4E,0x53,0x1E,0x4E,0x00,
	0x00,0x4E,0x65,0x1E,0x4E,0x00,0x3C,0x4E,
	0x65,0x1E,0x4E,0x00,0x5A,0x4E,0x4E,0x1E,
	0x4E,0x00,0x00,0x4E,0x65,0x1E,0x4E,0x00,
	0x3C,0x4E,0x65,0x1E,0x4E,0x00,0x5A,0x4E,
	0x65,0x1E,0x4E,0x00,0x1E,0x4E,0x65,0x1E,
	0x4E,0x00,0x1E,0x4E,0x65,0x1E,0x4E,0x00,
	0x5A,0x4E,0x52,0x1E,0x4E,0x00,0x00,0x4E,
	0x65,0x1E,0x4E,0x00,0x3C,0x4E,0x65,0x1E,
	0x4E,0x00,0x5A,0x4E,0x53,0x1E,0x4E,0x00,
	0x00,0x4E,0x65,0x1E,0x4E,0x00,0x3C,0x4E,
	0x65,0x1E,0x4E,0x00,0x5A,0x4E,0x4E,0x1E,
	0x4E,0x00,0x00,0x4E,0x65,0x1E,0x4E,0x00,
	0x3C,0x4E,0x65,0x1E,0x4E,0x00,0x00,0xFF,
	0x2F,0x00,0x4D,0x54,0x72,0x6B,0x00,0x00,
	0x01,0xA8,0x00,0xC4,0x2D,0x00,0xB4,0x07,
	0x7F,0x00,0x0A,0x28,0x81,0x16,0x94,0x4E,
	0x53,0x00,0x52,0x53,0x00,0x46,0x53,0x1E,
	0x46,0x00,0x00,0x52,0x00,0x00,0x4E,0x00,
	0x1E,0x46,0x53,0x00,0x52,0x53,0x00,0x4E,
	0x53,0x1E,0x4E,0x00,0x00,0x52,0x00,0x00,
	0x46,0x00,0x1E,0x46,0x53,0x00,0x4E,0x53,
	0x00,0x52,0x53,0x1E,0x52,0x00,0x00,0x4E,
	0x00,0x00,0x46,0x00,0x78,0x4E,0x53,0x00,
	0x4E,0x53,0x00,0x52,0x53,0x00,0x46,0x53,
	0x1E,0x46,0x00,0x00,0x4E,0x00,0x00,0x4E,
	0x00,0x00,0x52,0x00,0x3C,0x44,0x53,0x00,
	0x44,0x53,0x00,0x44,0x53,0x00,0x49,0x53,
	0x00,0x50,0x53,0x1E,0x50,0x00,0x00,0x44,
	0x00,0x00,0x44,0x00,0x00,0x44,0x00,0x00,
	0x49,0x00,0x78,0x44,0x53,0x00,0x44,0x53,
	0x00,0x44,0x53,0x00,0x44,0x53,0x00,0x44,
	0x53,0x00,0x50,0x53,0x00,0x49,0x53,0x1E,
	0x49,0x00,0x00,0x44,0x00,0x00,0x44,0x00,
	0x00,0x44,0x00,0x00,0x44,0x00,0x00,0x50,
	0x00,0x00,0x44,0x00,0x3C,0x44,0x53,0x00,
	0x44,0x53,0x00,0x50,0x53,0x00,0x49,0x53,
	0x1E,0x49,0x00,0x00,0x44,0x00,0x00,0x44,
	0x00,0x00,0x50,0x00,0x78,0x44,0x53,0x00,
	0x44,0x53,0x00,0x44,0x53,0x00,0x50,0x53,
	0x00,0x49,0x53,0x1E,0x49,0x00,0x00,0x44,
	0x00,0x00,0x44,0x00,0x00,0x44,0x00,0x00,
	0x50,0x00,0x3C,0x44,0x53,0x00,0x49,0x53,
	0x00,0x50,0x53,0x1E,0x50,0x00,0x00,0x49,
	0x00,0x00,0x44,0x00,0x5A,0x4E,0x53,0x00,
	0x4E,0x53,0x00,0x4E,0x53,0x00,0x4E,0x53,
	0x00,0x52,0x53,0x00,0x46,0x53,0x1E,0x46,
	0x00,0x00,0x4E,0x00,0x00,0x4E,0x00,0x00,
	0x4E,0x00,0x00,0x52,0x00,0x00,0x4E,0x00,
	0x1E,0x46,0x53,0x00,0x52,0x53,0x00,0x4E,
	0x53,0x1E,0x4E,0x00,0x00,0x52,0x00,0x00,
	0x46,0x00,0x1E,0x46,0x53,0x00,0x4E,0x53,
	0x00,0x52,0x53,0x1E,0x52,0x00,0x00,0x4E,
	0x00,0x00,0x46,0x00,0x78,0x4E,0x53,0x00,
	0x52,0x53,0x00,0x46,0x53,0x1E,0x46,0x00,
	0x00,0x52,0x00,0x00,0x4E,0x00,0x3C,0x44,
	0x53,0x00,0x49,0x53,0x00,0x50,0x53,0x1E,
	0x50,0x00,0x00,0x49,0x00,0x00,0x44,0x00,
	0x78,0x44,0x53,0x00,0x50,0x53,0x00,0x49,
	0x53,0x1E,0x49,0x00,0x00,0x50,0x00,0x00,
	0x44,0x00,0x3C,0x44,0x53,0x00,0x50,0x53,
	0x00,0x49,0x53,0x1E,0x49,0x00,0x00,0x50,
	0x00,0x00,0x44,0x00,0x78,0x44,0x53,0x00,
	0x44,0x53,0x00,0x50,0x53,0x00,0x49,0x53,
	0x1E,0x49,0x00,0x00,0x44,0x00,0x00,0x44,
	0x00,0x00,0x50,0x00,0x3C,0x44,0x53,0x00,
	0x49,0x53,0x00,0x50,0x53,0x1E,0x50,0x00,
	0x00,0x49,0x00,0x00,0x44,0x00,0x00,0xFF,
	0x2F,0x00,0x4D,0x54,0x72,0x6B,0x00,0x00,
	0x01,0xE4,0x00,0xC5,0x50,0x00,0xB5,0x07,
	0x7F,0x00,0x0A,0x00,0x00,0x95,0x5A,0x6C,
	0x1E,0x5A,0x00,0x8E,0x62,0x57,0x7F,0x00,
	0x4B,0x7F,0x0F,0x4B,0x00,0x00,0x57,0x00,
	0x0F,0x57,0x7F,0x00,0x4B,0x7F,0x0F,0x4B,
	0x00,0x00,0x57,0x00,0x0F,0x55,0x7F,0x00,
	0x49,0x7F,0x1E,0x49,0x00,0x00,0x55,0x00,
	0x3C,0x57,0x7F,0x00,0x4B,0x7F,0x0F,0x4B,
	0x00,0x00,0x57,0x00,0x0F,0x55,0x7F,0x00,
	0x49,0x7F,0x1E,0x49,0x00,0x00,0x55,0x00,
	0x1E,0x57,0x7F,0x00,0x4B,0x7F,0x0F,0x4B,
	0x00,0x00,0x57,0x00,0x0F,0x4B,0x7F,0x00,
	0x3F,0x7F,0x0F,0x3F,0x00,0x00,0x4B,0x00,
	0x0F,0x50,0x7F,0x00,0x44,0x7F,0x0F,0x44,
	0x00,0x00,0x50,0x00,0x0F,0x52,0x7F,0x00,
	0x46,0x7F,0x0F,0x46,0x00,0x00,0x52,0x00,
	0x2D,0x50,0x7F,0x00,0x44,0x7F,0x0F,0x44,
	0x00,0x00,0x50,0x00,0x0F,0x4E,0x7F,0x00,
	0x42,0x7F,0x0F,0x42,0x00,0x00,0x4E,0x00,
	0x0F,0x50,0x7F,0x00,0x44,0x7F,0x0F,0x44,
	0x00,0x00,0x50,0x00,0x4B,0x50,0x7F,0x00,
	0x44,0x7F,0x0F,0x44,0x00,0x00,0x50,0x00,
	0x2D,0x49,0x7F,0x00,0x3D,0x7F,0x0F,0x3D,
	0x00,0x00,0x49,0x00,0x0F,0x4B,0x7F,0x00,
	0x3F,0x7F,0x0F,0x3F,0x00,0x00,0x4B,0x00,
	0x0F,0x4E,0x7F,0x00,0x42,0x7F,0x0F,0x42,
	0x00,0x00,0x4E,0x00,0x69,0x46,0x7F,0x00,
	0x3A,0x7F,0x0F,0x3A,0x00,0x00,0x46,0x00,
	0x4B,0x44,0x7F,0x00,0x38,0x7F,0x0F,0x38,
	0x00,0x00,0x44,0x00,0x0F,0x42,0x7F,0x00,
	0x36,0x7F,0x0F,0x36,0x00,0x00,0x42,0x00,
	0x0F,0x44,0x7F,0x00,0x38,0x7F,0x0F,0x38,
	0x00,0x00,0x44,0x00,0x2D,0x3F,0x7F,0x00,
	0x33,0x7F,0x1E,0x33,0x00,0x00,0x3F,0x00,
	0x00,0x44,0x7F,0x00,0x38,0x7F,0x1E,0x38,
	0x00,0x00,0x44,0x00,0x1E,0x46,0x7F,0x00,
	0x3A,0x7F,0x1E,0x3A,0x00,0x00,0x46,0x00,
	0x1E,0x49,0x7F,0x00,0x3D,0x7F,0x1E,0x3D,
	0x00,0x00,0x49,0x00,0x3C,0x50,0x7F,0x00,
	0x44,0x7F,0x0F,0x44,0x00,0x00,0x50,0x00,
	0x4B,0x52,0x7F,0x00,0x46,0x7F,0x0F,0x46,
	0x00,0x00,0x52,0x00,0x4B,0x52,0x7F,0x00,
	0x46,0x7F,0x0F,0x46,0x00,0x00,0x52,0x00,
	0x0F,0x52,0x7F,0x00,0x46,0x7F,0x0F,0x46,
	0x00,0x00,0x52,0x00,0x0F,0x4E,0x7F,0x00,
	0x42,0x7F,0x0F,0x42,0x00,0x00,0x4E,0x00,
	0x0F,0x55,0x7F,0x00,0x49,0x7F,0x0F,0x49,
	0x00,0x00,0x55,0x00,0x0F,0x57,0x7F,0x00,
	0x4B,0x7F,0x0F,0x4B,0x00,0x00,0x57,0x00,
	0x2D,0x4E,0x7F,0x00,0x42,0x7F,0x0F,0x42,
	0x00,0x00,0x4E,0x00,0x0F,0x5A,0x7F,0x00,
	0x4E,0x7F,0x0F,0x4E,0x00,0x00,0x5A,0x00,
	0x2D,0x4E,0x7F,0x00,0x42,0x7F,0x0F,0x42,
	0x00,0x00,0x4E,0x00,0x0F,0x5C,0x7F,0x00,
	0x50,0x7F,0x0F,0x50,0x00,0x00,0x5C,0x00,
	0x2D,0x50,0x7B,0x00,0x44,0x7B,0x0F,0x44,
	0x00,0x00,0x50,0x00,0x0F,0x5E,0x79,0x00,
	0x52,0x79,0x0F,0x52,0x00,0x00,0x5E,0x00,
	0x2D,0x5C,0x6C,0x00,0x50,0x6C,0x0F,0x50,
	0x00,0x00,0x5C,0x00,0x0F,0x57,0x5F,0x0F,
	0x57,0x00,0x00,0xFF,0x2F,0x00,0x4D,0x54,
	0x72,0x6B,0x00,0x00,0x00,0x3C,0x00,0xC6,
	0x5F,0x00,0xB6,0x07,0x7F,0x00,0x0A,0x50,
	0x8F,0x00,0x96,0x36,0x58,0x00,0x3D,0x58,
	0x00,0x42,0x58,0x00,0x33,0x58,0x87,0x40,
	0x33,0x00,0x00,0x36,0x00,0x00,0x3D,0x00,
	0x00,0x42,0x00,0x00,0x3D,0x5D,0x00,0x42,
	0x5D,0x00,0x36,0x5D,0x87,0x40,0x36,0x00,
	0x00,0x42,0x00,0x00,0x3D,0x00,0x00,0xFF,
	0x2F,0x00,0x4D,0x54,0x72,0x6B,0x00,0x00,
	0x00,0xEE,0x00,0xC7,0x51,0x00,0xB7,0x07,
	0x7F,0x00,0x0A,0x0A,0x8F,0x5A,0x97,0x57,
	0x63,0x0F,0x57,0x00,0x0F,0x57,0x63,0x0F,
	0x57,0x00,0x0F,0x55,0x63,0x1E,0x55,0x00,
	0x3C,0x57,0x63,0x0F,0x57,0x00,0x0F,0x55,
	0x63,0x1E,0x55,0x00,0x1E,0x57,0x63,0x0F,
	0x57,0x00,0x0F,0x4B,0x63,0x0F,0x4B,0x00,
	0x0F,0x50,0x63,0x0F,0x50,0x00,0x0F,0x52,
	0x63,0x0F,0x52,0x00,0x2D,0x50,0x63,0x0F,
	0x50,0x00,0x0F,0x4E,0x63,0x0F,0x4E,0x00,
	0x0F,0x50,0x63,0x0F,0x50,0x00,0x4B,0x50,
	0x63,0x0F,0x50,0x00,0x2D,0x49,0x63,0x0F,
	0x49,0x00,0x0F,0x4B,0x63,0x0F,0x4B,0x00,
	0x0F,0x4E,0x63,0x0F,0x4E,0x00,0x69,0x46,
	0x63,0x0F,0x46,0x00,0x4B,0x44,0x63,0x0F,
	0x44,0x00,0x0F,0x42,0x63,0x0F,0x42,0x00,
	0x0F,0x44,0x63,0x0F,0x44,0x00,0x2D,0x3F,
	0x63,0x1E,0x3F,0x00,0x00,0x44,0x63,0x1E,
	0x44,0x00,0x1E,0x46,0x63,0x1E,0x46,0x00,
	0x1E,0x49,0x63,0x1E,0x49,0x00,0x3C,0x50,
	0x63,0x0F,0x50,0x00,0x4B,0x52,0x63,0x0F,
	0x52,0x00,0x4B,0x52,0x63,0x0F,0x52,0x00,
	0x0F,0x52,0x63,0x0F,0x52,0x00,0x0F,0x4E,
	0x63,0x0F,0x4E,0x00,0x0F,0x55,0x63,0x0F,
	0x55,0x00,0x0F,0x57,0x63,0x0F,0x57,0x00,
	0x2D,0x4E,0x63,0x0F,0x4E,0x00,0x0F,0x5A,
	0x63,0x0F,0x5A,0x00,0x2D,0x4E,0x63,0x0F,
	0x4E,0x00,0x0F,0x5C,0x63,0x0F,0x5C,0x00,
	0x2D,0x50,0x63,0x0F,0x50,0x00,0x0F,0x5E,
	0x63,0x0F,0x5E,0x00,0x00,0xFF,0x2F,0x00,
	0x4D,0x54,0x72,0x6B,0x00,0x00,0x00,0xE2,
	0x00,0xC8,0x51,0x00,0xB8,0x07,0x7F,0x00,
	0x0A,0x14,0x90,0x34,0x98,0x57,0x4B,0x0F,
	0x57,0x00,0x0F,0x57,0x4B,0x0F,0x57,0x00,
	0x0F,0x55,0x4B,0x1E,0x55,0x00,0x3C,0x57,
	0x4B,0x0F,0x57,0x00,0x0F,0x55,0x4B,0x1E,
	0x55,0x00,0x1E,0x57,0x4B,0x0F,0x57,0x00,
	0x0F,0x4B,0x4B,0x0F,0x4B,0x00,0x0F,0x50,
	0x4B,0x0F,0x50,0x00,0x0F,0x52,0x4B,0x0F,
	0x52,0x00,0x2D,0x50,0x4B,0x0F,0x50,0x00,
	0x0F,0x4E,0x4B,0x0F,0x4E,0x00,0x0F,0x50,
	0x4B,0x0F,0x50,0x00,0x4B,0x50,0x4B,0x0F,
	0x50,0x00,0x2D,0x49,0x4B,0x0F,0x49,0x00,
	0x0F,0x4B,0x4B,0x0F,0x4B,0x00,0x0F,0x4E,
	0x4B,0x0F,0x4E,0x00,0x69,0x46,0x4B,0x0F,
	0x46,0x00,0x4B,0x44,0x4B,0x0F,0x44,0x00,
	0x0F,0x42,0x4B,0x0F,0x42,0x00,0x0F,0x44,
	0x4B,0x0F,0x44,0x00,0x2D,0x3F,0x4B,0x1E,
	0x3F,0x00,0x00,0x44,0x4B,0x1E,0x44,0x00,
	0x1E,0x46,0x4B,0x1E,0x46,0x00,0x1E,0x49,
	0x4B,0x1E,0x49,0x00,0x3C,0x50,0x4B,0x0F,
	0x50,0x00,0x4B,0x52,0x4B,0x0F,0x52,0x00,
	0x4B,0x52,0x4B,0x0F,0x52,0x00,0x0F,0x52,
	0x4B,0x0F,0x52,0x00,0x0F,0x4E,0x4B,0x0F,
	0x4E,0x00,0x0F,0x55,0x4B,0x0F,0x55,0x00,
	0x0F,0x57,0x4B,0x0F,0x57,0x00,0x2D,0x4E,
	0x4B,0x0F,0x4E,0x00,0x0F,0x5A,0x4B,0x0F,
	0x5A,0x00,0x2D,0x4E,0x4B,0x0F,0x4E,0x00,
	0x0F,0x5C,0x4B,0x0F,0x5C,0x00,0x00,0xFF,
	0x2F,0x00,0x4D,0x54,0x72,0x6B,0x00,0x00,
	0x01,0x00,0x00,0xCA,0x51,0x00,0xBA,0x07,
	0x7F,0x00,0x0A,0x7F,0x00,0x9A,0x66,0x6C,
	0x1E,0x66,0x00,0x8E,0x62,0x57,0x7F,0x0F,
	0x57,0x00,0x0F,0x57,0x7F,0x0F,0x57,0x00,
	0x0F,0x55,0x7F,0x1E,0x55,0x00,0x3C,0x57,
	0x7F,0x0F,0x57,0x00,0x0F,0x55,0x7F,0x1E,
	0x55,0x00,0x1E,0x57,0x7F,0x0F,0x57,0x00,
	0x0F,0x4B,0x7F,0x0F,0x4B,0x00,0x0F,0x50,
	0x7F,0x0F,0x50,0x00,0x0F,0x52,0x7F,0x0F,
	0x52,0x00,0x2D,0x50,0x7F,0x0F,0x50,0x00,
	0x0F,0x4E,0x7F,0x0F,0x4E,0x00,0x0F,0x50,
	0x7F,0x0F,0x50,0x00,0x4B,0x50,0x7F,0x0F,
	0x50,0x00,0x2D,0x49,0x7F,0x0F,0x49,0x00,
	0x0F,0x4B,0x7F,0x0F,0x4B,0x00,0x0F,0x4E,
	0x7F,0x0F,0x4E,0x00,0x69,0x46,0x7F,0x0F,
	0x46,0x00,0x4B,0x44,0x7F,0x0F,0x44,0x00,
	0x0F,0x42,0x7F,0x0F,0x42,0x00,0x0F,0x44,
	0x7F,0x0F,0x44,0x00,0x2D,0x3F,0x7F,0x1E,
	0x3F,0x00,0x00,0x44,0x7F,0x1E,0x44,0x00,
	0x1E,0x46,0x7F,0x1E,0x46,0x00,0x1E,0x49,
	0x7F,0x1E,0x49,0x00,0x3C,0x50,0x7F,0x0F,
	0x50,0x00,0x4B,0x52,0x7F,0x0F,0x52,0x00,
	0x4B,0x52,0x7F,0x0F,0x52,0x00,0x0F,0x52,
	0x7F,0x0F,0x52,0x00,0x0F,0x4E,0x7F,0x0F,
	0x4E,0x00,0x0F,0x55,0x7F,0x0F,0x55,0x00,
	0x0F,0x57,0x7F,0x0F,0x57,0x00,0x2D,0x4E,
	0x7F,0x0F,0x4E,0x00,0x0F,0x5A,0x7F,0x0F,
	0x5A,0x00,0x2D,0x4E,0x7F,0x0F,0x4E,0x00,
	0x0F,0x5C,0x7F,0x0F,0x5C,0x00,0x2D,0x50,
	0x7B,0x0F,0x50,0x00,0x0F,0x5E,0x79,0x0F,
	0x5E,0x00,0x2D,0x5C,0x6C,0x0F,0x5C,0x00,
	0x0F,0x63,0x5F,0x0F,0x63,0x00,0x00,0xFF,
	0x2F,0x00,0x4D,0x54,0x72,0x6B,0x00,0x00,
	0x00,0x3C,0x00,0xCB,0x5F,0x00,0xBB,0x07,
	0x7F,0x00,0x0A,0x32,0x8F,0x00,0x9B,0x42,
	0x46,0x00,0x49,0x46,0x00,0x4E,0x46,0x00,
	0x3F,0x46,0x87,0x40,0x3F,0x00,0x00,0x42,
	0x00,0x00,0x49,0x00,0x00,0x4E,0x00,0x00,
	0x49,0x4A,0x00,0x4E,0x4A,0x00,0x42,0x4A,
	0x87,0x40,0x42,0x00,0x00,0x4E,0x00,0x00,
	0x49,0x00,0x00,0xFF,0x2F,0x00,0x00,0x00,
};

__align(4) static const unsigned char Fest05_mid[] = {
    0x4D,0x54,0x68,0x64,0x00,0x00,0x00,0x06,
	0x00,0x01,0x00,0x06,0x00,0x78,0x4D,0x54,
	0x72,0x6B,0x00,0x00,0x00,0xC5,0x00,0xFF,
    0x03,0x08,0x75,0x6E,0x74,0x69,0x74,0x6C,
	0x65,0x64,0x00,0xFF,0x58,0x04,0x04,0x02,
	0x18,0x08,0x00,0xFF,0x59,0x02,0x02,0x00,
	0x00,0xFF,0x51,0x03,0x07,0xD3,0x35,0x81,
	0x7D,0xFF,0x51,0x03,0x07,0xD3,0x35,0x83,
	0x61,0xFF,0x51,0x03,0x07,0xD3,0x35,0x83,
	0x61,0xFF,0x51,0x03,0x07,0xD3,0x35,0x83,
	0x61,0xFF,0x51,0x03,0x07,0xD3,0x35,0x83,
	0x61,0xFF,0x51,0x03,0x07,0xD3,0x35,0x83,
	0x61,0xFF,0x51,0x03,0x07,0xD3,0x35,0x83,
	0x61,0xFF,0x51,0x03,0x07,0xD3,0x35,0x83,
	0x61,0xFF,0x51,0x03,0x07,0xD3,0x35,0x83,
	0x61,0xFF,0x51,0x03,0x07,0xD3,0x35,0x83,
	0x61,0xFF,0x51,0x03,0x07,0xD3,0x35,0x83,
	0x61,0xFF,0x51,0x03,0x07,0xD3,0x35,0x83,
	0x61,0xFF,0x51,0x03,0x07,0xD3,0x35,0x83,
	0x61,0xFF,0x51,0x03,0x07,0xD3,0x35,0x83,
	0x61,0xFF,0x51,0x03,0x07,0xD3,0x35,0x83,
	0x61,0xFF,0x51,0x03,0x07,0xD3,0x35,0x83,
	0x61,0xFF,0x51,0x03,0x07,0xD3,0x35,0x83,
	0x61,0xFF,0x51,0x03,0x07,0xD3,0x35,0x83,
	0x61,0xFF,0x51,0x03,0x07,0xD3,0x35,0x83,
	0x61,0xFF,0x51,0x03,0x07,0xD3,0x35,0x83,
	0x61,0xFF,0x51,0x03,0x07,0xD3,0x35,0x00,
	0xFF,0x2F,0x00,0x4D,0x54,0x72,0x6B,0x00,
	0x00,0x05,0x3B,0x00,0xFF,0x03,0x09,0x6B,
	0x6F,0x74,0x6F,0x2D,0x63,0x68,0x69,0x6E,
	0x00,0xC2,0x6B,0x00,0xB2,0x07,0x7F,0x00,
	0x0A,0x40,0x81,0x6F,0x92,0x45,0x7F,0x00,
	0x40,0x7F,0x30,0x40,0x00,0x00,0x45,0x00,
	0x0C,0x47,0x7F,0x18,0x47,0x00,0x06,0x4A,
	0x7F,0x18,0x4A,0x00,0x06,0x47,0x7F,0x00,
	0x4C,0x7F,0x30,0x4C,0x00,0x00,0x47,0x00,
	0x0C,0x45,0x7F,0x00,0x4A,0x7F,0x30,0x4A,
	0x00,0x00,0x45,0x00,0x0C,0x47,0x7F,0x00,
	0x4C,0x7F,0x30,0x4C,0x00,0x00,0x47,0x00,
	0x0C,0x4C,0x7F,0x18,0x4C,0x00,0x06,0x4C,
	0x7F,0x18,0x4C,0x00,0x06,0x4C,0x7F,0x30,
	0x4C,0x00,0x0C,0x49,0x7F,0x00,0x4E,0x7F,
	0x30,0x4E,0x00,0x00,0x49,0x00,0x0C,0x40,
	0x7F,0x00,0x45,0x7F,0x30,0x45,0x00,0x00,
	0x40,0x00,0x0C,0x47,0x7F,0x18,0x47,0x00,
	0x06,0x4A,0x7F,0x18,0x4A,0x00,0x06,0x4C,
	0x7F,0x00,0x47,0x7F,0x30,0x47,0x00,0x00,
	0x4C,0x00,0x0C,0x4A,0x7F,0x00,0x45,0x7F,
	0x30,0x45,0x00,0x00,0x4A,0x00,0x0C,0x4C,
	0x7F,0x00,0x47,0x7F,0x30,0x47,0x00,0x00,
	0x4C,0x00,0x0C,0x4C,0x7F,0x18,0x4C,0x00,
	0x06,0x4C,0x7F,0x18,0x4C,0x00,0x06,0x4C,
	0x7F,0x30,0x4C,0x00,0x0C,0x4C,0x7F,0x30,
	0x4C,0x00,0x0C,0x51,0x7F,0x00,0x45,0x7F,
	0x30,0x45,0x00,0x00,0x51,0x00,0x0C,0x51,
	0x7F,0x18,0x51,0x00,0x06,0x51,0x7F,0x18,
	0x51,0x00,0x06,0x51,0x7F,0x00,0x4E,0x7F,
	0x30,0x4E,0x00,0x00,0x51,0x00,0x0C,0x4A,
	0x7F,0x00,0x4E,0x7F,0x30,0x4E,0x00,0x00,
	0x4A,0x00,0x0C,0x40,0x7F,0x00,0x4C,0x7F,
	0x30,0x4C,0x00,0x00,0x40,0x00,0x0C,0x4C,
	0x7F,0x18,0x4C,0x00,0x06,0x4C,0x7F,0x18,
	0x4C,0x00,0x06,0x4C,0x7F,0x30,0x4C,0x00,
	0x0C,0x4A,0x7F,0x00,0x4E,0x7F,0x30,0x4E,
	0x00,0x00,0x4A,0x00,0x0C,0x4A,0x7F,0x00,
	0x3E,0x7F,0x30,0x3E,0x00,0x00,0x4A,0x00,
	0x0C,0x4C,0x7F,0x18,0x4C,0x00,0x06,0x4E,
	0x7F,0x18,0x4E,0x00,0x06,0x47,0x7F,0x00,
	0x4C,0x7F,0x30,0x4C,0x00,0x00,0x47,0x00,
	0x0C,0x4A,0x7F,0x00,0x47,0x7F,0x30,0x47,
	0x00,0x00,0x4A,0x00,0x0C,0x47,0x7F,0x00,
	0x3B,0x7F,0x30,0x3B,0x00,0x00,0x47,0x00,
	0x0C,0x47,0x7F,0x18,0x47,0x00,0x06,0x47,
	0x7F,0x18,0x47,0x00,0x06,0x47,0x7F,0x30,
	0x47,0x00,0x0C,0x47,0x7F,0x30,0x47,0x00,
	0x0C,0x4C,0x7F,0x00,0x40,0x7F,0x30,0x40,
	0x00,0x00,0x4C,0x00,0x0C,0x4C,0x7F,0x18,
	0x4C,0x00,0x06,0x4C,0x7F,0x18,0x4C,0x00,
	0x06,0x47,0x7F,0x00,0x4C,0x7F,0x30,0x4C,
	0x00,0x00,0x47,0x00,0x0C,0x4E,0x7F,0x00,
	0x4A,0x7F,0x30,0x4A,0x00,0x00,0x4E,0x00,
	0x0C,0x3E,0x7F,0x00,0x4A,0x7F,0x30,0x4A,
	0x00,0x00,0x3E,0x00,0x0C,0x4A,0x7F,0x18,
	0x4A,0x00,0x06,0x4A,0x7F,0x18,0x4A,0x00,
	0x06,0x4A,0x7F,0x30,0x4A,0x00,0x0C,0x4E,
	0x7F,0x00,0x4A,0x7F,0x30,0x4A,0x00,0x00,
	0x4E,0x00,0x0C,0x40,0x7F,0x00,0x4C,0x7F,
	0x30,0x4C,0x00,0x00,0x40,0x00,0x0C,0x4C,
	0x7F,0x18,0x4C,0x00,0x06,0x4E,0x7F,0x18,
	0x4E,0x00,0x06,0x47,0x7F,0x00,0x4A,0x7F,
	0x30,0x4A,0x00,0x00,0x47,0x00,0x0C,0x47,
	0x7F,0x00,0x43,0x7F,0x30,0x43,0x00,0x00,
	0x47,0x00,0x0C,0x39,0x7F,0x00,0x45,0x7F,
	0x30,0x45,0x00,0x00,0x39,0x00,0x0C,0x45,
	0x7F,0x18,0x45,0x00,0x06,0x45,0x7F,0x18,
	0x45,0x00,0x06,0x45,0x7F,0x30,0x45,0x00,
	0x0C,0x45,0x7F,0x30,0x45,0x00,0x0C,0x40,
	0x7F,0x00,0x4C,0x7F,0x30,0x4C,0x00,0x00,
	0x40,0x00,0x0C,0x4C,0x7F,0x18,0x4C,0x00,
	0x06,0x4C,0x7F,0x18,0x4C,0x00,0x06,0x4C,
	0x7F,0x00,0x47,0x7F,0x30,0x47,0x00,0x00,
	0x4C,0x00,0x0C,0x4A,0x7F,0x00,0x4E,0x7F,
	0x30,0x4E,0x00,0x00,0x4A,0x00,0x0C,0x4A,
	0x7F,0x00,0x3E,0x7F,0x30,0x3E,0x00,0x00,
	0x4A,0x00,0x0C,0x4A,0x7F,0x18,0x4A,0x00,
	0x06,0x4A,0x7F,0x18,0x4A,0x00,0x06,0x47,
	0x7F,0x00,0x4A,0x7F,0x30,0x4A,0x00,0x00,
	0x47,0x00,0x0C,0x47,0x7F,0x00,0x43,0x7F,
	0x30,0x43,0x00,0x00,0x47,0x00,0x0C,0x45,
	0x7F,0x00,0x42,0x7F,0x60,0x42,0x00,0x00,
	0x45,0x00,0x18,0x44,0x7F,0x00,0x47,0x7F,
	0x60,0x47,0x00,0x00,0x44,0x00,0x18,0x45,
	0x7F,0x00,0x42,0x7F,0x81,0x40,0x42,0x00,
	0x00,0x45,0x00,0x30,0x40,0x7F,0x00,0x45,
	0x7F,0x30,0x45,0x00,0x00,0x40,0x00,0x0C,
	0x47,0x7F,0x18,0x47,0x00,0x06,0x4A,0x7F,
	0x18,0x4A,0x00,0x06,0x4C,0x7F,0x00,0x47,
	0x7F,0x30,0x47,0x00,0x00,0x4C,0x00,0x0C,
	0x4A,0x7F,0x00,0x45,0x7F,0x30,0x45,0x00,
	0x00,0x4A,0x00,0x0C,0x4C,0x7F,0x00,0x47,
	0x7F,0x30,0x47,0x00,0x00,0x4C,0x00,0x0C,
	0x4C,0x7F,0x18,0x4C,0x00,0x06,0x4C,0x7F,
	0x18,0x4C,0x00,0x06,0x4C,0x7F,0x30,0x4C,
	0x00,0x0C,0x4E,0x7F,0x00,0x49,0x7F,0x30,
	0x49,0x00,0x00,0x4E,0x00,0x0C,0x45,0x7F,
	0x00,0x40,0x7F,0x30,0x40,0x00,0x00,0x45,
	0x00,0x0C,0x47,0x7F,0x18,0x47,0x00,0x06,
	0x4A,0x7F,0x18,0x4A,0x00,0x06,0x47,0x7F,
	0x00,0x4C,0x7F,0x30,0x4C,0x00,0x00,0x47,
	0x00,0x0C,0x45,0x7F,0x00,0x4A,0x7F,0x30,
	0x4A,0x00,0x00,0x45,0x00,0x0C,0x47,0x7F,
	0x00,0x4C,0x7F,0x30,0x4C,0x00,0x00,0x47,
	0x00,0x0C,0x4C,0x7F,0x18,0x4C,0x00,0x06,
	0x4C,0x7F,0x18,0x4C,0x00,0x06,0x4C,0x7F,
	0x30,0x4C,0x00,0x0C,0x4C,0x7F,0x30,0x4C,
	0x00,0x0C,0x45,0x7F,0x00,0x51,0x7F,0x30,
	0x51,0x00,0x00,0x45,0x00,0x0C,0x51,0x7F,
	0x18,0x51,0x00,0x06,0x51,0x7F,0x18,0x51,
	0x00,0x06,0x4E,0x7F,0x00,0x51,0x7F,0x30,
	0x51,0x00,0x00,0x4E,0x00,0x0C,0x4E,0x7F,
	0x00,0x4A,0x7F,0x30,0x4A,0x00,0x00,0x4E,
	0x00,0x0C,0x4C,0x7F,0x00,0x40,0x7F,0x30,
	0x40,0x00,0x00,0x4C,0x00,0x0C,0x4C,0x7F,
	0x18,0x4C,0x00,0x06,0x4C,0x7F,0x18,0x4C,
	0x00,0x06,0x4C,0x7F,0x30,0x4C,0x00,0x0C,
	0x4E,0x7F,0x00,0x4A,0x7F,0x30,0x4A,0x00,
	0x00,0x4E,0x00,0x0C,0x3E,0x7F,0x00,0x4A,
	0x7F,0x30,0x4A,0x00,0x00,0x3E,0x00,0x0C,
	0x4C,0x7F,0x18,0x4C,0x00,0x06,0x4E,0x7F,
	0x18,0x4E,0x00,0x06,0x4C,0x7F,0x00,0x47,
	0x7F,0x30,0x47,0x00,0x00,0x4C,0x00,0x0C,
	0x47,0x7F,0x00,0x4A,0x7F,0x30,0x4A,0x00,
	0x00,0x47,0x00,0x0C,0x3B,0x7F,0x00,0x47,
	0x7F,0x30,0x47,0x00,0x00,0x3B,0x00,0x0C,
	0x47,0x7F,0x18,0x47,0x00,0x06,0x47,0x7F,
	0x18,0x47,0x00,0x06,0x47,0x7F,0x30,0x47,
	0x00,0x0C,0x47,0x7F,0x30,0x47,0x00,0x0C,
	0x40,0x7F,0x00,0x4C,0x7F,0x30,0x4C,0x00,
	0x00,0x40,0x00,0x0C,0x4C,0x7F,0x18,0x4C,
	0x00,0x06,0x4C,0x7F,0x18,0x4C,0x00,0x06,
	0x4C,0x7F,0x00,0x47,0x7F,0x30,0x47,0x00,
	0x00,0x4C,0x00,0x0C,0x4A,0x7F,0x00,0x4E,
	0x7F,0x30,0x4E,0x00,0x00,0x4A,0x00,0x0C,
	0x4A,0x7F,0x00,0x3E,0x7F,0x30,0x3E,0x00,
	0x00,0x4A,0x00,0x0C,0x4A,0x7F,0x18,0x4A,
	0x00,0x06,0x4A,0x7F,0x18,0x4A,0x00,0x06,
	0x4A,0x7F,0x30,0x4A,0x00,0x0C,0x4A,0x7F,
	0x00,0x4E,0x7F,0x30,0x4E,0x00,0x00,0x4A,
	0x00,0x0C,0x4C,0x7F,0x00,0x40,0x7F,0x30,
	0x40,0x00,0x00,0x4C,0x00,0x0C,0x4C,0x7F,
	0x18,0x4C,0x00,0x06,0x4E,0x7F,0x18,0x4E,
	0x00,0x06,0x4A,0x7F,0x00,0x47,0x7F,0x30,
	0x47,0x00,0x00,0x4A,0x00,0x0C,0x43,0x7F,
	0x00,0x47,0x7F,0x30,0x47,0x00,0x00,0x43,
	0x00,0x0C,0x45,0x7F,0x00,0x39,0x7F,0x30,
	0x39,0x00,0x00,0x45,0x00,0x0C,0x45,0x7F,
	0x18,0x45,0x00,0x06,0x45,0x7F,0x18,0x45,
	0x00,0x06,0x45,0x7F,0x30,0x45,0x00,0x0C,
	0x45,0x7F,0x30,0x45,0x00,0x0C,0x4C,0x7F,
	0x00,0x40,0x7F,0x30,0x40,0x00,0x00,0x4C,
	0x00,0x0C,0x4C,0x7F,0x18,0x4C,0x00,0x06,
	0x4C,0x7F,0x18,0x4C,0x00,0x06,0x47,0x7F,
	0x00,0x4C,0x7F,0x30,0x4C,0x00,0x00,0x47,
	0x00,0x0C,0x4E,0x7F,0x00,0x4A,0x7F,0x30,
	0x4A,0x00,0x00,0x4E,0x00,0x0C,0x3E,0x7F,
	0x00,0x4A,0x7F,0x30,0x4A,0x00,0x00,0x3E,
	0x00,0x0C,0x4A,0x7F,0x18,0x4A,0x00,0x06,
	0x4A,0x7F,0x18,0x4A,0x00,0x06,0x4A,0x7F,
	0x00,0x47,0x7F,0x30,0x47,0x00,0x00,0x4A,
	0x00,0x0C,0x43,0x7F,0x00,0x47,0x7F,0x30,
	0x47,0x00,0x00,0x43,0x00,0x0C,0x42,0x7F,
	0x00,0x45,0x7F,0x60,0x45,0x00,0x00,0x42,
	0x00,0x18,0x47,0x7F,0x00,0x44,0x7F,0x60,
	0x44,0x00,0x00,0x47,0x00,0x18,0x42,0x7F,
	0x00,0x45,0x7F,0x81,0x40,0x45,0x00,0x00,
	0x42,0x00,0x00,0xFF,0x2F,0x00,0x4D,0x54,
	0x72,0x6B,0x00,0x00,0x03,0x70,0x00,0xFF,
	0x03,0x06,0x67,0x74,0x2D,0x72,0x75,0x6E,
	0x00,0xC3,0x69,0x00,0xB3,0x07,0x7F,0x00,
	0x0A,0x40,0x81,0x6F,0x93,0x45,0x7F,0x39,
	0x45,0x00,0x03,0x47,0x7F,0x1D,0x47,0x00,
	0x01,0x4A,0x7F,0x1D,0x4A,0x00,0x01,0x4C,
	0x7F,0x39,0x4C,0x00,0x03,0x4A,0x7F,0x39,
	0x4A,0x00,0x03,0x4C,0x7F,0x30,0x4C,0x00,
	0x0C,0x4C,0x7F,0x18,0x4C,0x00,0x06,0x4C,
	0x7F,0x18,0x4C,0x00,0x06,0x4C,0x7F,0x30,
	0x4C,0x00,0x0C,0x4E,0x7F,0x30,0x4E,0x00,
	0x0C,0x45,0x7F,0x39,0x45,0x00,0x03,0x47,
	0x7F,0x1D,0x47,0x00,0x01,0x4A,0x7F,0x1D,
	0x4A,0x00,0x01,0x4C,0x7F,0x39,0x4C,0x00,
	0x03,0x4A,0x7F,0x39,0x4A,0x00,0x03,0x4C,
	0x7F,0x30,0x4C,0x00,0x0C,0x4C,0x7F,0x18,
	0x4C,0x00,0x06,0x4C,0x7F,0x18,0x4C,0x00,
	0x06,0x4C,0x7F,0x60,0x4C,0x00,0x18,0x51,
	0x7F,0x30,0x51,0x00,0x0C,0x51,0x7F,0x18,
	0x51,0x00,0x06,0x51,0x7F,0x18,0x51,0x00,
	0x06,0x51,0x7F,0x30,0x51,0x00,0x0C,0x4E,
	0x7F,0x30,0x4E,0x00,0x0C,0x4C,0x7F,0x30,
	0x4C,0x00,0x0C,0x4C,0x7F,0x18,0x4C,0x00,
	0x06,0x4C,0x7F,0x18,0x4C,0x00,0x06,0x4C,
	0x7F,0x30,0x4C,0x00,0x0C,0x4E,0x7F,0x30,
	0x4E,0x00,0x0C,0x4A,0x7F,0x39,0x4A,0x00,
	0x03,0x4C,0x7F,0x1D,0x4C,0x00,0x01,0x4E,
	0x7F,0x1D,0x4E,0x00,0x01,0x4C,0x7F,0x39,
	0x4C,0x00,0x03,0x4A,0x7F,0x39,0x4A,0x00,
	0x03,0x47,0x7F,0x30,0x47,0x00,0x0C,0x47,
	0x7F,0x18,0x47,0x00,0x06,0x47,0x7F,0x18,
	0x47,0x00,0x06,0x47,0x7F,0x60,0x47,0x00,
	0x18,0x4C,0x7F,0x30,0x4C,0x00,0x0C,0x4C,
	0x7F,0x18,0x4C,0x00,0x06,0x4C,0x7F,0x18,
	0x4C,0x00,0x06,0x4C,0x7F,0x30,0x4C,0x00,
	0x0C,0x4E,0x7F,0x30,0x4E,0x00,0x0C,0x4A,
	0x7F,0x30,0x4A,0x00,0x0C,0x4A,0x7F,0x18,
	0x4A,0x00,0x06,0x4A,0x7F,0x18,0x4A,0x00,
	0x06,0x4A,0x7F,0x30,0x4A,0x00,0x0C,0x4E,
	0x7F,0x30,0x4E,0x00,0x0C,0x4C,0x7F,0x30,
	0x4C,0x00,0x0C,0x4C,0x7F,0x18,0x4C,0x00,
	0x06,0x4E,0x7F,0x18,0x4E,0x00,0x06,0x4A,
	0x7F,0x30,0x4A,0x00,0x0C,0x47,0x7F,0x30,
	0x47,0x00,0x0C,0x45,0x7F,0x30,0x45,0x00,
	0x0C,0x45,0x7F,0x18,0x45,0x00,0x06,0x45,
	0x7F,0x18,0x45,0x00,0x06,0x45,0x7F,0x30,
	0x45,0x00,0x0C,0x45,0x7F,0x30,0x45,0x00,
	0x0C,0x4C,0x7F,0x30,0x4C,0x00,0x0C,0x4C,
	0x7F,0x18,0x4C,0x00,0x06,0x4C,0x7F,0x18,
	0x4C,0x00,0x06,0x4C,0x7F,0x30,0x4C,0x00,
	0x0C,0x4E,0x7F,0x30,0x4E,0x00,0x0C,0x4A,
	0x7F,0x30,0x4A,0x00,0x0C,0x4A,0x7F,0x18,
	0x4A,0x00,0x06,0x4A,0x7F,0x18,0x4A,0x00,
	0x06,0x4A,0x7F,0x30,0x4A,0x00,0x0C,0x47,
	0x7F,0x30,0x47,0x00,0x0C,0x45,0x7F,0x60,
	0x45,0x00,0x18,0x44,0x7F,0x60,0x44,0x00,
	0x18,0x45,0x7F,0x81,0x40,0x45,0x00,0x30,
	0x45,0x7F,0x39,0x45,0x00,0x03,0x47,0x7F,
	0x1D,0x47,0x00,0x01,0x4A,0x7F,0x1D,0x4A,
	0x00,0x01,0x4C,0x7F,0x39,0x4C,0x00,0x03,
	0x4A,0x7F,0x39,0x4A,0x00,0x03,0x4C,0x7F,
	0x30,0x4C,0x00,0x0C,0x4C,0x7F,0x18,0x4C,
	0x00,0x06,0x4C,0x7F,0x18,0x4C,0x00,0x06,
	0x4C,0x7F,0x30,0x4C,0x00,0x0C,0x4E,0x7F,
	0x30,0x4E,0x00,0x0C,0x45,0x7F,0x39,0x45,
	0x00,0x03,0x47,0x7F,0x1D,0x47,0x00,0x01,
	0x4A,0x7F,0x1D,0x4A,0x00,0x01,0x4C,0x7F,
	0x39,0x4C,0x00,0x03,0x4A,0x7F,0x39,0x4A,
	0x00,0x03,0x4C,0x7F,0x30,0x4C,0x00,0x0C,
	0x4C,0x7F,0x18,0x4C,0x00,0x06,0x4C,0x7F,
	0x18,0x4C,0x00,0x06,0x4C,0x7F,0x60,0x4C,
	0x00,0x18,0x51,0x7F,0x30,0x51,0x00,0x0C,
	0x51,0x7F,0x18,0x51,0x00,0x06,0x51,0x7F,
	0x18,0x51,0x00,0x06,0x51,0x7F,0x30,0x51,
	0x00,0x0C,0x4E,0x7F,0x30,0x4E,0x00,0x0C,
	0x4C,0x7F,0x30,0x4C,0x00,0x0C,0x4C,0x7F,
	0x18,0x4C,0x00,0x06,0x4C,0x7F,0x18,0x4C,
	0x00,0x06,0x4C,0x7F,0x30,0x4C,0x00,0x0C,
	0x4E,0x7F,0x30,0x4E,0x00,0x0C,0x4A,0x7F,
	0x39,0x4A,0x00,0x03,0x4C,0x7F,0x1D,0x4C,
	0x00,0x01,0x4E,0x7F,0x1D,0x4E,0x00,0x01,
	0x4C,0x7F,0x39,0x4C,0x00,0x03,0x4A,0x7F,
	0x39,0x4A,0x00,0x03,0x47,0x7F,0x30,0x47,
	0x00,0x0C,0x47,0x7F,0x18,0x47,0x00,0x06,
	0x47,0x7F,0x18,0x47,0x00,0x06,0x47,0x7F,
	0x60,0x47,0x00,0x18,0x4C,0x7F,0x30,0x4C,
	0x00,0x0C,0x4C,0x7F,0x18,0x4C,0x00,0x06,
	0x4C,0x7F,0x18,0x4C,0x00,0x06,0x4C,0x7F,
	0x30,0x4C,0x00,0x0C,0x4E,0x7F,0x30,0x4E,
	0x00,0x0C,0x4A,0x7F,0x30,0x4A,0x00,0x0C,
	0x4A,0x7F,0x18,0x4A,0x00,0x06,0x4A,0x7F,
	0x18,0x4A,0x00,0x06,0x4A,0x7F,0x30,0x4A,
	0x00,0x0C,0x4E,0x7F,0x30,0x4E,0x00,0x0C,
	0x4C,0x7F,0x30,0x4C,0x00,0x0C,0x4C,0x7F,
	0x18,0x4C,0x00,0x06,0x4E,0x7F,0x18,0x4E,
	0x00,0x06,0x4A,0x7F,0x30,0x4A,0x00,0x0C,
	0x47,0x7F,0x30,0x47,0x00,0x0C,0x45,0x7F,
	0x30,0x45,0x00,0x0C,0x45,0x7F,0x18,0x45,
	0x00,0x06,0x45,0x7F,0x18,0x45,0x00,0x06,
	0x45,0x7F,0x30,0x45,0x00,0x0C,0x45,0x7F,
	0x30,0x45,0x00,0x0C,0x4C,0x7F,0x30,0x4C,
	0x00,0x0C,0x4C,0x7F,0x18,0x4C,0x00,0x06,
	0x4C,0x7F,0x18,0x4C,0x00,0x06,0x4C,0x7F,
	0x30,0x4C,0x00,0x0C,0x4E,0x7F,0x30,0x4E,
	0x00,0x0C,0x4A,0x7F,0x30,0x4A,0x00,0x0C,
	0x4A,0x7F,0x18,0x4A,0x00,0x06,0x4A,0x7F,
	0x18,0x4A,0x00,0x06,0x4A,0x7F,0x30,0x4A,
	0x00,0x0C,0x47,0x7F,0x30,0x47,0x00,0x0C,
	0x45,0x7F,0x60,0x45,0x00,0x18,0x44,0x7F,
	0x60,0x44,0x00,0x18,0x45,0x7F,0x81,0x40,
	0x45,0x00,0x00,0xFF,0x2F,0x00,0x4D,0x54,
	0x72,0x6B,0x00,0x00,0x01,0x9D,0x00,0xFF,
	0x03,0x04,0x62,0x61,0x73,0x73,0x00,0xC1,
	0x21,0x00,0xB1,0x07,0x7F,0x00,0x0A,0x40,
	0x81,0x6F,0x91,0x26,0x7F,0x60,0x26,0x00,
	0x54,0x26,0x7F,0x30,0x26,0x00,0x0C,0x28,
	0x7F,0x60,0x28,0x00,0x18,0x26,0x7F,0x30,
	0x26,0x00,0x0C,0x23,0x7F,0x30,0x23,0x00,
	0x0C,0x26,0x7F,0x60,0x26,0x00,0x54,0x26,
	0x7F,0x30,0x26,0x00,0x0C,0x28,0x7F,0x60,
	0x28,0x00,0x18,0x26,0x7F,0x30,0x26,0x00,
	0x0C,0x23,0x7F,0x30,0x23,0x00,0x0C,0x26,
	0x7F,0x60,0x26,0x00,0x54,0x26,0x7F,0x30,
	0x26,0x00,0x0C,0x28,0x7F,0x60,0x28,0x00,
	0x18,0x28,0x7F,0x60,0x28,0x00,0x18,0x26,
	0x7F,0x60,0x26,0x00,0x54,0x26,0x7F,0x30,
	0x26,0x00,0x0C,0x28,0x7F,0x60,0x28,0x00,
	0x54,0x28,0x7F,0x30,0x28,0x00,0x0C,0x28,
	0x7F,0x60,0x28,0x00,0x54,0x28,0x7F,0x30,
	0x28,0x00,0x0C,0x26,0x7F,0x60,0x26,0x00,
	0x81,0x10,0x28,0x7F,0x60,0x28,0x00,0x54,
	0x28,0x7F,0x30,0x28,0x00,0x0C,0x21,0x7F,
	0x60,0x21,0x00,0x81,0x10,0x28,0x7F,0x60,
	0x28,0x00,0x54,0x28,0x7F,0x30,0x28,0x00,
	0x0C,0x26,0x7F,0x60,0x26,0x00,0x18,0x26,
	0x7F,0x30,0x26,0x00,0x0C,0x23,0x7F,0x30,
	0x23,0x00,0x0C,0x21,0x7F,0x60,0x21,0x00,
	0x18,0x23,0x7F,0x60,0x23,0x00,0x18,0x21,
	0x7F,0x60,0x21,0x00,0x81,0x10,0x26,0x7F,
	0x60,0x26,0x00,0x54,0x26,0x7F,0x30,0x26,
	0x00,0x0C,0x28,0x7F,0x60,0x28,0x00,0x18,
	0x26,0x7F,0x30,0x26,0x00,0x0C,0x23,0x7F,
	0x30,0x23,0x00,0x0C,0x26,0x7F,0x60,0x26,
	0x00,0x54,0x26,0x7F,0x30,0x26,0x00,0x0C,
	0x28,0x7F,0x60,0x28,0x00,0x18,0x26,0x7F,
	0x30,0x26,0x00,0x0C,0x23,0x7F,0x30,0x23,
	0x00,0x0C,0x26,0x7F,0x60,0x26,0x00,0x54,
	0x26,0x7F,0x30,0x26,0x00,0x0C,0x28,0x7F,
	0x60,0x28,0x00,0x18,0x28,0x7F,0x60,0x28,
	0x00,0x18,0x26,0x7F,0x60,0x26,0x00,0x54,
	0x26,0x7F,0x30,0x26,0x00,0x0C,0x28,0x7F,
	0x60,0x28,0x00,0x54,0x28,0x7F,0x30,0x28,
	0x00,0x0C,0x28,0x7F,0x60,0x28,0x00,0x54,
	0x28,0x7F,0x30,0x28,0x00,0x0C,0x26,0x7F,
	0x60,0x26,0x00,0x81,0x10,0x28,0x7F,0x60,
	0x28,0x00,0x54,0x28,0x7F,0x30,0x28,0x00,
	0x0C,0x21,0x7F,0x60,0x21,0x00,0x81,0x10,
	0x28,0x7F,0x60,0x28,0x00,0x54,0x28,0x7F,
	0x30,0x28,0x00,0x0C,0x26,0x7F,0x60,0x26,
	0x00,0x18,0x26,0x7F,0x30,0x26,0x00,0x0C,
	0x23,0x7F,0x30,0x23,0x00,0x0C,0x21,0x7F,
	0x60,0x21,0x00,0x18,0x23,0x7F,0x60,0x23,
	0x00,0x18,0x21,0x7F,0x60,0x21,0x00,0x00,
	0xFF,0x2F,0x00,0x4D,0x54,0x72,0x6B,0x00,
	0x00,0x09,0xD5,0x00,0xFF,0x03,0x02,0x73,
	0x64,0x00,0xC9,0x00,0x00,0xB9,0x07,0x7F,
	0x00,0x0A,0x40,0x3B,0x99,0x4B,0x7F,0x00,
	0x2A,0x7F,0x0C,0x4B,0x00,0x03,0x4B,0x7F,
	0x0C,0x4B,0x00,0x03,0x4B,0x7F,0x0C,0x4B,
	0x00,0x03,0x4B,0x7F,0x0C,0x4B,0x00,0x00,
	0x2A,0x00,0x03,0x26,0x7F,0x00,0x4C,0x7F,
	0x00,0x2A,0x7F,0x30,0x4C,0x00,0x09,0x2A,
	0x00,0x00,0x26,0x00,0x03,0x26,0x7F,0x00,
	0x4D,0x7F,0x00,0x2A,0x7F,0x30,0x4D,0x00,
	0x09,0x2A,0x00,0x00,0x26,0x00,0x03,0x2A,
	0x7F,0x00,0x23,0x7F,0x39,0x2A,0x00,0x03,
	0x2A,0x7F,0x39,0x2A,0x00,0x03,0x26,0x7F,
	0x00,0x2A,0x7F,0x33,0x23,0x00,0x06,0x2A,
	0x00,0x03,0x2A,0x7F,0x00,0x23,0x7F,0x36,
	0x26,0x00,0x03,0x23,0x00,0x00,0x2A,0x00,
	0x03,0x2A,0x7F,0x00,0x23,0x7F,0x39,0x2A,
	0x00,0x03,0x2A,0x7F,0x36,0x23,0x00,0x03,
	0x2A,0x00,0x03,0x26,0x7F,0x00,0x2A,0x7F,
	0x39,0x2A,0x00,0x00,0x26,0x00,0x03,0x26,
	0x7F,0x00,0x2A,0x7F,0x39,0x2A,0x00,0x00,
	0x26,0x00,0x03,0x2A,0x7F,0x00,0x23,0x7F,
	0x39,0x2A,0x00,0x03,0x2A,0x7F,0x39,0x2A,
	0x00,0x03,0x26,0x7F,0x00,0x2A,0x7F,0x33,
	0x23,0x00,0x06,0x2A,0x00,0x03,0x2A,0x7F,
	0x00,0x23,0x7F,0x36,0x26,0x00,0x03,0x23,
	0x00,0x00,0x2A,0x00,0x03,0x2A,0x7F,0x00,
	0x23,0x7F,0x39,0x2A,0x00,0x03,0x2A,0x7F,
	0x36,0x23,0x00,0x03,0x2A,0x00,0x03,0x26,
	0x7F,0x00,0x2A,0x7F,0x39,0x2A,0x00,0x00,
	0x26,0x00,0x03,0x26,0x7F,0x00,0x2A,0x7F,
	0x39,0x2A,0x00,0x00,0x26,0x00,0x03,0x2A,
	0x7F,0x00,0x23,0x7F,0x39,0x2A,0x00,0x03,
	0x2A,0x7F,0x39,0x2A,0x00,0x03,0x26,0x7F,
	0x00,0x2A,0x7F,0x33,0x23,0x00,0x06,0x2A,
	0x00,0x03,0x2A,0x7F,0x00,0x23,0x7F,0x36,
	0x26,0x00,0x03,0x23,0x00,0x00,0x2A,0x00,
	0x03,0x2A,0x7F,0x00,0x23,0x7F,0x39,0x2A,
	0x00,0x03,0x2A,0x7F,0x36,0x23,0x00,0x03,
	0x2A,0x00,0x03,0x26,0x7F,0x00,0x2A,0x7F,
	0x39,0x2A,0x00,0x00,0x26,0x00,0x03,0x26,
	0x7F,0x00,0x2A,0x7F,0x39,0x2A,0x00,0x00,
	0x26,0x00,0x03,0x2A,0x7F,0x00,0x23,0x7F,
	0x39,0x2A,0x00,0x03,0x2A,0x7F,0x39,0x2A,
	0x00,0x03,0x26,0x7F,0x00,0x2A,0x7F,0x33,
	0x23,0x00,0x06,0x2A,0x00,0x03,0x2A,0x7F,
	0x00,0x23,0x7F,0x36,0x26,0x00,0x03,0x23,
	0x00,0x00,0x2A,0x00,0x03,0x2A,0x7F,0x00,
	0x23,0x7F,0x39,0x2A,0x00,0x03,0x2A,0x7F,
	0x36,0x23,0x00,0x03,0x2A,0x00,0x03,0x26,
	0x7F,0x00,0x2A,0x7F,0x39,0x2A,0x00,0x00,
	0x26,0x00,0x03,0x26,0x7F,0x00,0x2A,0x7F,
	0x39,0x2A,0x00,0x00,0x26,0x00,0x03,0x2A,
	0x7F,0x00,0x23,0x7F,0x39,0x2A,0x00,0x03,
	0x2A,0x7F,0x39,0x2A,0x00,0x03,0x26,0x7F,
	0x00,0x2A,0x7F,0x33,0x23,0x00,0x06,0x2A,
	0x00,0x03,0x2A,0x7F,0x00,0x23,0x7F,0x36,
	0x26,0x00,0x03,0x23,0x00,0x00,0x2A,0x00,
	0x03,0x2A,0x7F,0x00,0x23,0x7F,0x39,0x2A,
	0x00,0x03,0x2A,0x7F,0x36,0x23,0x00,0x03,
	0x2A,0x00,0x03,0x26,0x7F,0x00,0x2A,0x7F,
	0x39,0x2A,0x00,0x00,0x26,0x00,0x03,0x26,
	0x7F,0x00,0x2A,0x7F,0x39,0x2A,0x00,0x00,
	0x26,0x00,0x03,0x2A,0x7F,0x00,0x23,0x7F,
	0x39,0x2A,0x00,0x03,0x2A,0x7F,0x39,0x2A,
	0x00,0x03,0x26,0x7F,0x00,0x2A,0x7F,0x33,
	0x23,0x00,0x06,0x2A,0x00,0x03,0x2A,0x7F,
	0x00,0x23,0x7F,0x36,0x26,0x00,0x03,0x23,
	0x00,0x00,0x2A,0x00,0x03,0x2A,0x7F,0x00,
	0x23,0x7F,0x39,0x2A,0x00,0x03,0x2A,0x7F,
	0x36,0x23,0x00,0x03,0x2A,0x00,0x03,0x26,
	0x7F,0x00,0x2A,0x7F,0x39,0x2A,0x00,0x00,
	0x26,0x00,0x03,0x26,0x7F,0x00,0x2A,0x7F,
	0x39,0x2A,0x00,0x00,0x26,0x00,0x03,0x2A,
	0x7F,0x00,0x23,0x7F,0x39,0x2A,0x00,0x03,
	0x2A,0x7F,0x39,0x2A,0x00,0x03,0x26,0x7F,
	0x00,0x2A,0x7F,0x33,0x23,0x00,0x06,0x2A,
	0x00,0x03,0x2A,0x7F,0x00,0x23,0x7F,0x36,
	0x26,0x00,0x03,0x23,0x00,0x00,0x2A,0x00,
	0x03,0x2A,0x7F,0x00,0x23,0x7F,0x39,0x2A,
	0x00,0x03,0x2A,0x7F,0x36,0x23,0x00,0x03,
	0x2A,0x00,0x03,0x26,0x7F,0x00,0x2A,0x7F,
	0x39,0x2A,0x00,0x00,0x26,0x00,0x03,0x26,
	0x7F,0x00,0x2A,0x7F,0x39,0x2A,0x00,0x00,
	0x26,0x00,0x03,0x2A,0x7F,0x00,0x23,0x7F,
	0x39,0x2A,0x00,0x03,0x2A,0x7F,0x39,0x2A,
	0x00,0x03,0x26,0x7F,0x00,0x2A,0x7F,0x33,
	0x23,0x00,0x06,0x2A,0x00,0x03,0x2A,0x7F,
	0x00,0x23,0x7F,0x36,0x26,0x00,0x03,0x23,
	0x00,0x00,0x2A,0x00,0x03,0x2A,0x7F,0x00,
	0x23,0x7F,0x39,0x2A,0x00,0x03,0x2A,0x7F,
	0x36,0x23,0x00,0x03,0x2A,0x00,0x03,0x26,
	0x7F,0x00,0x2A,0x7F,0x39,0x2A,0x00,0x00,
	0x26,0x00,0x03,0x26,0x7F,0x00,0x2A,0x7F,
	0x39,0x2A,0x00,0x00,0x26,0x00,0x03,0x4D,
	0x7F,0x00,0x2A,0x7F,0x00,0x23,0x7F,0x30,
	0x4D,0x00,0x09,0x2A,0x00,0x03,0x4B,0x7F,
	0x00,0x2A,0x7F,0x18,0x4B,0x00,0x06,0x4B,
	0x7F,0x18,0x4B,0x00,0x03,0x2A,0x00,0x03,
	0x26,0x7F,0x00,0x4B,0x7F,0x00,0x2A,0x7F,
	0x30,0x4B,0x00,0x03,0x23,0x00,0x06,0x2A,
	0x00,0x03,0x4B,0x7F,0x00,0x2A,0x7F,0x00,
	0x23,0x7F,0x30,0x4B,0x00,0x06,0x26,0x00,
	0x03,0x2A,0x00,0x00,0x23,0x00,0x03,0x4C,
	0x7F,0x00,0x2A,0x7F,0x00,0x23,0x7F,0x30,
	0x4C,0x00,0x09,0x2A,0x00,0x03,0x4B,0x7F,
	0x00,0x2A,0x7F,0x30,0x4B,0x00,0x06,0x23,
	0x00,0x03,0x2A,0x00,0x03,0x26,0x7F,0x00,
	0x4B,0x7F,0x00,0x2A,0x7F,0x39,0x2A,0x00,
	0x00,0x26,0x00,0x03,0x26,0x7F,0x00,0x2A,
	0x7F,0x24,0x4B,0x00,0x15,0x2A,0x00,0x00,
	0x26,0x00,0x03,0x4D,0x7F,0x00,0x2A,0x7F,
	0x00,0x23,0x7F,0x30,0x4D,0x00,0x09,0x2A,
	0x00,0x03,0x4B,0x7F,0x00,0x2A,0x7F,0x18,
	0x4B,0x00,0x06,0x4B,0x7F,0x18,0x4B,0x00,
	0x03,0x2A,0x00,0x03,0x26,0x7F,0x00,0x4B,
	0x7F,0x00,0x2A,0x7F,0x30,0x4B,0x00,0x03,
	0x23,0x00,0x06,0x2A,0x00,0x03,0x4B,0x7F,
	0x00,0x2A,0x7F,0x00,0x23,0x7F,0x30,0x4B,
	0x00,0x06,0x26,0x00,0x03,0x2A,0x00,0x00,
	0x23,0x00,0x03,0x4C,0x7F,0x00,0x2A,0x7F,
	0x00,0x23,0x7F,0x30,0x4C,0x00,0x09,0x2A,
	0x00,0x03,0x4B,0x7F,0x00,0x2A,0x7F,0x30,
	0x4B,0x00,0x06,0x23,0x00,0x03,0x2A,0x00,
	0x03,0x26,0x7F,0x00,0x4B,0x7F,0x00,0x2A,
	0x7F,0x30,0x4B,0x00,0x09,0x2A,0x00,0x00,
	0x26,0x00,0x03,0x26,0x7F,0x00,0x4B,0x7F,
	0x00,0x2A,0x7F,0x0C,0x4B,0x00,0x03,0x4B,
	0x7F,0x0C,0x4B,0x00,0x03,0x4B,0x7F,0x0C,
	0x4B,0x00,0x03,0x4B,0x7F,0x0C,0x4B,0x00,
	0x00,0x2A,0x00,0x00,0x26,0x00,0x03,0x4D,
	0x7F,0x00,0x2A,0x7F,0x00,0x23,0x7F,0x30,
	0x4D,0x00,0x09,0x2A,0x00,0x03,0x4B,0x7F,
	0x00,0x2A,0x7F,0x18,0x4B,0x00,0x06,0x4B,
	0x7F,0x18,0x4B,0x00,0x03,0x2A,0x00,0x03,
	0x26,0x7F,0x00,0x4B,0x7F,0x00,0x2A,0x7F,
	0x30,0x4B,0x00,0x03,0x23,0x00,0x06,0x2A,
	0x00,0x03,0x4B,0x7F,0x00,0x2A,0x7F,0x00,
	0x23,0x7F,0x30,0x4B,0x00,0x06,0x26,0x00,
	0x03,0x2A,0x00,0x00,0x23,0x00,0x03,0x4C,
	0x7F,0x00,0x2A,0x7F,0x00,0x23,0x7F,0x30,
	0x4C,0x00,0x09,0x2A,0x00,0x03,0x4B,0x7F,
	0x00,0x2A,0x7F,0x30,0x4B,0x00,0x06,0x23,
	0x00,0x03,0x2A,0x00,0x03,0x26,0x7F,0x00,
	0x4B,0x7F,0x00,0x2A,0x7F,0x39,0x2A,0x00,
	0x00,0x26,0x00,0x03,0x26,0x7F,0x00,0x2A,
	0x7F,0x24,0x4B,0x00,0x15,0x2A,0x00,0x00,
	0x26,0x00,0x03,0x4D,0x7F,0x00,0x2A,0x7F,
	0x00,0x23,0x7F,0x30,0x4D,0x00,0x09,0x2A,
	0x00,0x03,0x4B,0x7F,0x00,0x2A,0x7F,0x18,
	0x4B,0x00,0x06,0x4B,0x7F,0x18,0x4B,0x00,
	0x03,0x2A,0x00,0x03,0x26,0x7F,0x00,0x4B,
	0x7F,0x00,0x2A,0x7F,0x30,0x4B,0x00,0x03,
	0x23,0x00,0x06,0x2A,0x00,0x03,0x4B,0x7F,
	0x00,0x2A,0x7F,0x00,0x23,0x7F,0x30,0x4B,
	0x00,0x06,0x26,0x00,0x03,0x2A,0x00,0x00,
	0x23,0x00,0x03,0x4C,0x7F,0x00,0x2A,0x7F,
	0x00,0x23,0x7F,0x30,0x4C,0x00,0x09,0x2A,
	0x00,0x03,0x4B,0x7F,0x00,0x2A,0x7F,0x30,
	0x4B,0x00,0x06,0x23,0x00,0x03,0x2A,0x00,
	0x03,0x26,0x7F,0x00,0x4B,0x7F,0x00,0x2A,
	0x7F,0x30,0x4B,0x00,0x09,0x2A,0x00,0x00,
	0x26,0x00,0x03,0x26,0x7F,0x00,0x4B,0x7F,
	0x00,0x2A,0x7F,0x0C,0x4B,0x00,0x03,0x4B,
	0x7F,0x0C,0x4B,0x00,0x03,0x4B,0x7F,0x0C,
	0x4B,0x00,0x03,0x4B,0x7F,0x0C,0x4B,0x00,
	0x00,0x2A,0x00,0x00,0x26,0x00,0x03,0x4D,
	0x7F,0x00,0x2A,0x7F,0x00,0x23,0x7F,0x30,
	0x4D,0x00,0x09,0x2A,0x00,0x03,0x4B,0x7F,
	0x00,0x2A,0x7F,0x18,0x4B,0x00,0x06,0x4B,
	0x7F,0x18,0x4B,0x00,0x03,0x2A,0x00,0x03,
	0x26,0x7F,0x00,0x4B,0x7F,0x00,0x2A,0x7F,
	0x30,0x4B,0x00,0x03,0x23,0x00,0x06,0x2A,
	0x00,0x03,0x4B,0x7F,0x00,0x2A,0x7F,0x00,
	0x23,0x7F,0x30,0x4B,0x00,0x06,0x26,0x00,
	0x03,0x2A,0x00,0x00,0x23,0x00,0x03,0x4C,
	0x7F,0x00,0x2A,0x7F,0x00,0x23,0x7F,0x30,
	0x4C,0x00,0x09,0x2A,0x00,0x03,0x4B,0x7F,
	0x00,0x2A,0x7F,0x30,0x4B,0x00,0x06,0x23,
	0x00,0x03,0x2A,0x00,0x03,0x26,0x7F,0x00,
	0x4B,0x7F,0x00,0x2A,0x7F,0x39,0x2A,0x00,
	0x00,0x26,0x00,0x03,0x26,0x7F,0x00,0x2A,
	0x7F,0x24,0x4B,0x00,0x15,0x2A,0x00,0x00,
	0x26,0x00,0x03,0x4D,0x7F,0x00,0x2A,0x7F,
	0x00,0x23,0x7F,0x30,0x4D,0x00,0x09,0x2A,
	0x00,0x03,0x4B,0x7F,0x00,0x2A,0x7F,0x18,
	0x4B,0x00,0x06,0x4B,0x7F,0x18,0x4B,0x00,
	0x03,0x2A,0x00,0x03,0x26,0x7F,0x00,0x4B,
	0x7F,0x00,0x2A,0x7F,0x30,0x4B,0x00,0x03,
	0x23,0x00,0x06,0x2A,0x00,0x03,0x4B,0x7F,
	0x00,0x2A,0x7F,0x00,0x23,0x7F,0x30,0x4B,
	0x00,0x06,0x26,0x00,0x03,0x2A,0x00,0x00,
	0x23,0x00,0x03,0x4C,0x7F,0x00,0x2A,0x7F,
	0x00,0x23,0x7F,0x30,0x4C,0x00,0x09,0x2A,
	0x00,0x03,0x4B,0x7F,0x00,0x2A,0x7F,0x30,
	0x4B,0x00,0x06,0x23,0x00,0x03,0x2A,0x00,
	0x03,0x26,0x7F,0x00,0x4B,0x7F,0x00,0x2A,
	0x7F,0x30,0x4B,0x00,0x09,0x2A,0x00,0x00,
	0x26,0x00,0x03,0x26,0x7F,0x00,0x4B,0x7F,
	0x00,0x2A,0x7F,0x0C,0x4B,0x00,0x03,0x4B,
	0x7F,0x0C,0x4B,0x00,0x03,0x4B,0x7F,0x0C,
	0x4B,0x00,0x03,0x4B,0x7F,0x0C,0x4B,0x00,
	0x00,0x2A,0x00,0x00,0x26,0x00,0x03,0x4D,
	0x7F,0x00,0x2A,0x7F,0x00,0x23,0x7F,0x30,
	0x4D,0x00,0x09,0x2A,0x00,0x03,0x4B,0x7F,
	0x00,0x2A,0x7F,0x18,0x4B,0x00,0x06,0x4B,
	0x7F,0x18,0x4B,0x00,0x03,0x2A,0x00,0x03,
	0x26,0x7F,0x00,0x4B,0x7F,0x00,0x2A,0x7F,
	0x30,0x4B,0x00,0x03,0x23,0x00,0x06,0x2A,
	0x00,0x03,0x4B,0x7F,0x00,0x2A,0x7F,0x00,
	0x23,0x7F,0x30,0x4B,0x00,0x06,0x26,0x00,
	0x03,0x2A,0x00,0x00,0x23,0x00,0x03,0x4C,
	0x7F,0x00,0x2A,0x7F,0x00,0x23,0x7F,0x30,
	0x4C,0x00,0x09,0x2A,0x00,0x03,0x4B,0x7F,
	0x00,0x2A,0x7F,0x30,0x4B,0x00,0x06,0x23,
	0x00,0x03,0x2A,0x00,0x03,0x26,0x7F,0x00,
	0x4B,0x7F,0x00,0x2A,0x7F,0x39,0x2A,0x00,
	0x00,0x26,0x00,0x03,0x26,0x7F,0x00,0x2A,
	0x7F,0x24,0x4B,0x00,0x15,0x2A,0x00,0x00,
	0x26,0x00,0x03,0x4D,0x7F,0x00,0x2A,0x7F,
	0x00,0x23,0x7F,0x30,0x4D,0x00,0x09,0x2A,
	0x00,0x03,0x4B,0x7F,0x00,0x2A,0x7F,0x18,
	0x4B,0x00,0x06,0x4B,0x7F,0x18,0x4B,0x00,
	0x03,0x2A,0x00,0x03,0x26,0x7F,0x00,0x4B,
	0x7F,0x00,0x2A,0x7F,0x30,0x4B,0x00,0x03,
	0x23,0x00,0x06,0x2A,0x00,0x03,0x4B,0x7F,
	0x00,0x2A,0x7F,0x00,0x23,0x7F,0x30,0x4B,
	0x00,0x06,0x26,0x00,0x03,0x2A,0x00,0x00,
	0x23,0x00,0x03,0x4C,0x7F,0x00,0x2A,0x7F,
	0x00,0x23,0x7F,0x30,0x4C,0x00,0x09,0x2A,
	0x00,0x03,0x26,0x7F,0x00,0x4B,0x7F,0x00,
	0x2A,0x7F,0x30,0x4B,0x00,0x00,0x26,0x00,
	0x06,0x23,0x00,0x03,0x2A,0x00,0x03,0x26,
	0x7F,0x00,0x4B,0x7F,0x00,0x2A,0x7F,0x30,
	0x4B,0x00,0x00,0x26,0x00,0x09,0x2A,0x00,
	0x03,0x26,0x7F,0x00,0x4B,0x7F,0x00,0x2A,
	0x7F,0x0C,0x4B,0x00,0x03,0x4B,0x7F,0x0C,
	0x4B,0x00,0x03,0x4B,0x7F,0x0C,0x4B,0x00,
	0x03,0x4B,0x7F,0x03,0x26,0x00,0x09,0x4B,
	0x00,0x00,0x2A,0x00,0x03,0x4D,0x7F,0x00,
	0x2A,0x7F,0x00,0x23,0x7F,0x30,0x4D,0x00,
	0x09,0x2A,0x00,0x03,0x4B,0x7F,0x00,0x2A,
	0x7F,0x18,0x4B,0x00,0x06,0x4B,0x7F,0x18,
	0x4B,0x00,0x03,0x2A,0x00,0x03,0x26,0x7F,
	0x00,0x4B,0x7F,0x00,0x2A,0x7F,0x30,0x4B,
	0x00,0x03,0x23,0x00,0x06,0x2A,0x00,0x03,
	0x4B,0x7F,0x00,0x2A,0x7F,0x00,0x23,0x7F,
	0x30,0x4B,0x00,0x06,0x26,0x00,0x03,0x2A,
	0x00,0x00,0x23,0x00,0x03,0x4C,0x7F,0x00,
	0x2A,0x7F,0x00,0x23,0x7F,0x30,0x4C,0x00,
	0x09,0x2A,0x00,0x03,0x4B,0x7F,0x00,0x2A,
	0x7F,0x30,0x4B,0x00,0x06,0x23,0x00,0x03,
	0x2A,0x00,0x03,0x26,0x7F,0x00,0x4B,0x7F,
	0x00,0x2A,0x7F,0x39,0x2A,0x00,0x00,0x26,
	0x00,0x03,0x26,0x7F,0x00,0x2A,0x7F,0x24,
	0x4B,0x00,0x15,0x2A,0x00,0x00,0x26,0x00,
	0x03,0x4D,0x7F,0x00,0x2A,0x7F,0x00,0x23,
	0x7F,0x30,0x4D,0x00,0x09,0x2A,0x00,0x03,
	0x4B,0x7F,0x00,0x2A,0x7F,0x18,0x4B,0x00,
	0x06,0x4B,0x7F,0x18,0x4B,0x00,0x03,0x2A,
	0x00,0x03,0x26,0x7F,0x00,0x4B,0x7F,0x00,
	0x2A,0x7F,0x30,0x4B,0x00,0x03,0x23,0x00,
	0x06,0x2A,0x00,0x03,0x4B,0x7F,0x00,0x2A,
	0x7F,0x00,0x23,0x7F,0x30,0x4B,0x00,0x06,
	0x26,0x00,0x03,0x2A,0x00,0x00,0x23,0x00,
	0x03,0x4C,0x7F,0x00,0x2A,0x7F,0x00,0x23,
	0x7F,0x30,0x4C,0x00,0x09,0x2A,0x00,0x03,
	0x26,0x7F,0x00,0x4B,0x7F,0x00,0x2A,0x7F,
	0x30,0x4B,0x00,0x06,0x23,0x00,0x03,0x26,
	0x00,0x00,0x2A,0x00,0x03,0x26,0x7F,0x00,
	0x4B,0x7F,0x00,0x2A,0x7F,0x30,0x4B,0x00,
	0x09,0x2A,0x00,0x00,0x26,0x00,0x03,0x26,
	0x7F,0x00,0x4B,0x7F,0x00,0x2A,0x7F,0x0C,
	0x4B,0x00,0x03,0x4B,0x7F,0x0C,0x4B,0x00,
	0x03,0x4B,0x7F,0x0C,0x4B,0x00,0x03,0x4B,
	0x7F,0x0C,0x4B,0x00,0x00,0x2A,0x00,0x00,
	0x26,0x00,0x03,0x4D,0x7F,0x00,0x2A,0x7F,
	0x00,0x23,0x7F,0x30,0x4D,0x00,0x09,0x2A,
	0x00,0x03,0x4B,0x7F,0x00,0x2A,0x7F,0x18,
	0x4B,0x00,0x06,0x4B,0x7F,0x18,0x4B,0x00,
	0x03,0x2A,0x00,0x03,0x26,0x7F,0x00,0x4B,
	0x7F,0x00,0x2A,0x7F,0x30,0x4B,0x00,0x03,
	0x23,0x00,0x06,0x2A,0x00,0x03,0x4B,0x7F,
	0x00,0x2A,0x7F,0x00,0x23,0x7F,0x30,0x4B,
	0x00,0x06,0x26,0x00,0x03,0x2A,0x00,0x00,
	0x23,0x00,0x03,0x4C,0x7F,0x00,0x2A,0x7F,
	0x00,0x23,0x7F,0x30,0x4C,0x00,0x09,0x2A,
	0x00,0x03,0x4B,0x7F,0x00,0x2A,0x7F,0x30,
	0x4B,0x00,0x06,0x23,0x00,0x03,0x2A,0x00,
	0x03,0x26,0x7F,0x00,0x4B,0x7F,0x00,0x2A,
	0x7F,0x39,0x2A,0x00,0x00,0x26,0x00,0x03,
	0x26,0x7F,0x00,0x2A,0x7F,0x24,0x4B,0x00,
	0x15,0x2A,0x00,0x00,0x26,0x00,0x03,0x4D,
	0x7F,0x00,0x2A,0x7F,0x00,0x23,0x7F,0x30,
	0x4D,0x00,0x09,0x2A,0x00,0x03,0x4B,0x7F,
	0x00,0x2A,0x7F,0x18,0x4B,0x00,0x06,0x4B,
	0x7F,0x18,0x4B,0x00,0x03,0x2A,0x00,0x03,
	0x26,0x7F,0x00,0x4B,0x7F,0x00,0x2A,0x7F,
	0x30,0x4B,0x00,0x03,0x23,0x00,0x06,0x2A,
	0x00,0x03,0x4B,0x7F,0x00,0x2A,0x7F,0x00,
	0x23,0x7F,0x30,0x4B,0x00,0x06,0x26,0x00,
	0x03,0x2A,0x00,0x00,0x23,0x00,0x03,0x4C,
	0x7F,0x00,0x2A,0x7F,0x00,0x23,0x7F,0x30,
	0x4C,0x00,0x09,0x2A,0x00,0x03,0x26,0x7F,
	0x00,0x4B,0x7F,0x00,0x2A,0x7F,0x30,0x4B,
	0x00,0x06,0x23,0x00,0x03,0x26,0x00,0x00,
	0x2A,0x00,0x03,0x26,0x7F,0x00,0x4B,0x7F,
	0x00,0x2A,0x7F,0x30,0x4B,0x00,0x09,0x2A,
	0x00,0x00,0x26,0x00,0x03,0x26,0x7F,0x00,
	0x4B,0x7F,0x00,0x2A,0x7F,0x0C,0x4B,0x00,
	0x03,0x4B,0x7F,0x0C,0x4B,0x00,0x03,0x4B,
	0x7F,0x0C,0x4B,0x00,0x03,0x4B,0x7F,0x0C,
	0x4B,0x00,0x00,0x2A,0x00,0x00,0x26,0x00,
	0x03,0x4C,0x7F,0x01,0x39,0x7F,0x5F,0x4C,
	0x00,0x19,0x39,0x00,0x00,0xFF,0x2F,0x00,
	0x4D,0x54,0x72,0x6B,0x00,0x00,0x00,0xA0,
	0x00,0xB8,0x07,0x00,0x00,0x0A,0x01,0x00,
	0x98,0x01,0x64,0x81,0x7D,0x01,0x64,0x81,
	0x63,0x01,0x00,0x81,0x7D,0x01,0x00,0x01,
	0x01,0x64,0x83,0x60,0x01,0x00,0x01,0x01,
	0x64,0x83,0x60,0x01,0x00,0x01,0x01,0x64,
	0x83,0x60,0x01,0x00,0x01,0x01,0x64,0x83,
	0x60,0x01,0x00,0x01,0x01,0x64,0x83,0x60,
	0x01,0x00,0x01,0x01,0x64,0x83,0x60,0x01,
	0x00,0x01,0x01,0x64,0x83,0x60,0x01,0x00,
	0x01,0x01,0x64,0x83,0x60,0x01,0x00,0x01,
	0x01,0x64,0x83,0x60,0x01,0x00,0x01,0x01,
	0x64,0x83,0x60,0x01,0x00,0x01,0x01,0x64,
	0x83,0x60,0x01,0x00,0x01,0x01,0x64,0x83,
	0x60,0x01,0x00,0x01,0x01,0x64,0x83,0x60,
	0x01,0x00,0x01,0x01,0x64,0x83,0x60,0x01,
	0x00,0x01,0x01,0x64,0x83,0x60,0x01,0x00,
	0x01,0x01,0x64,0x83,0x60,0x01,0x00,0x01,
	0x01,0x64,0x83,0x60,0x01,0x00,0x01,0x01,
	0x64,0x83,0x60,0x01,0x00,0x01,0x01,0x64,
	0x83,0x60,0x01,0x00,0x00,0xFF,0x2F,0x00,
};

__align(4) static const unsigned char Fest10_mid[] = {
    0x4D,0x54,0x68,0x64,0x00,0x00,0x00,0x06,
	0x00,0x01,0x00,0x0C,0x01,0xE0,0x4D,0x54,
	0x72,0x6B,0x00,0x00,0x00,0x19,0x00,0xFF,
	0x58,0x04,0x04,0x02,0x18,0x08,0x00,0xFF,
	0x59,0x02,0x00,0x00,0x00,0xFF,0x51,0x03,
	0x0B,0x07,0xCC,0x00,0xFF,0x2F,0x00,0x4D,
	0x54,0x72,0x6B,0x00,0x00,0x01,0xFA,0x00,
	0xFF,0x03,0x06,0x4D,0x65,0x6C,0x6F,0x64,
	0x79,0x00,0xC0,0x50,0x00,0xB0,0x07,0x7F,
	0x00,0x0A,0x40,0x00,0x90,0x53,0x7F,0x81,
	0x40,0x53,0x00,0x30,0x50,0x7F,0x81,0x40,
	0x50,0x00,0x30,0x53,0x7F,0x81,0x40,0x53,
	0x00,0x30,0x50,0x7F,0x81,0x40,0x50,0x00,
	0x30,0x53,0x7F,0x60,0x53,0x00,0x18,0x50,
	0x7F,0x60,0x50,0x00,0x18,0x53,0x7F,0x60,
	0x53,0x00,0x18,0x55,0x7F,0x60,0x55,0x00,
	0x18,0x53,0x7F,0x81,0x40,0x53,0x00,0x30,
	0x4E,0x7F,0x81,0x40,0x4E,0x00,0x30,0x50,
	0x7F,0x81,0x40,0x50,0x00,0x30,0x4C,0x7F,
	0x81,0x40,0x4C,0x00,0x30,0x50,0x7F,0x81,
	0x40,0x50,0x00,0x30,0x4C,0x7F,0x81,0x40,
	0x4C,0x00,0x30,0x50,0x7F,0x22,0xE0,0x00,
	0x39,0x11,0x00,0x3B,0x11,0x00,0x3C,0x11,
	0x00,0x3D,0x0B,0x90,0x50,0x00,0x06,0xE0,
	0x00,0x3E,0x12,0x00,0x40,0x00,0x90,0x4E,
	0x7F,0x22,0xE0,0x00,0x42,0x11,0x00,0x44,
	0x11,0x00,0x45,0x11,0x00,0x46,0x0B,0x90,
	0x4E,0x00,0x18,0xE0,0x00,0x48,0x00,0x00,
	0x40,0x00,0x90,0x50,0x7F,0x60,0x50,0x00,
	0x18,0x51,0x7F,0x60,0x51,0x00,0x18,0x50,
	0x7F,0x81,0x40,0x50,0x00,0x30,0x4E,0x7F,
	0x60,0x4E,0x00,0x18,0x4C,0x7F,0x60,0x4C,
	0x00,0x18,0x4C,0x7F,0x81,0x40,0x4C,0x00,
	0x30,0x55,0x7F,0x83,0x00,0x55,0x00,0x60,
	0x53,0x7F,0x81,0x40,0x53,0x00,0x30,0x53,
	0x7F,0x81,0x40,0x53,0x00,0x30,0x50,0x7F,
	0x83,0x00,0x50,0x00,0x60,0x4E,0x7F,0x60,
	0x4E,0x00,0x18,0x4C,0x7F,0x60,0x4C,0x00,
	0x18,0x4C,0x7F,0x81,0x40,0x4C,0x00,0x30,
	0x4C,0x7F,0x81,0x40,0x4C,0x00,0x30,0x51,
	0x7F,0x81,0x40,0x51,0x00,0x30,0x50,0x7F,
	0x60,0x50,0x00,0x18,0x4E,0x7F,0x83,0x60,
	0x4E,0x00,0x84,0x58,0x53,0x7F,0x81,0x40,
	0x53,0x00,0x30,0x50,0x7F,0x81,0x40,0x50,
	0x00,0x30,0x53,0x7F,0x81,0x40,0x53,0x00,
	0x30,0x50,0x7F,0x81,0x40,0x50,0x00,0x30,
	0x53,0x7F,0x60,0x53,0x00,0x18,0x50,0x7F,
	0x60,0x50,0x00,0x18,0x53,0x7F,0x60,0x53,
	0x00,0x18,0x55,0x7F,0x60,0x55,0x00,0x18,
	0x53,0x7F,0x81,0x40,0x53,0x00,0x30,0x4E,
	0x7F,0x81,0x40,0x4E,0x00,0x30,0x50,0x7F,
	0x81,0x40,0x50,0x00,0x30,0x4C,0x7F,0x81,
	0x40,0x4C,0x00,0x30,0x50,0x7F,0x81,0x40,
	0x50,0x00,0x30,0x4C,0x7F,0x81,0x40,0x4C,
	0x00,0x30,0x50,0x7F,0x60,0x50,0x00,0x18,
	0x4E,0x7F,0x60,0x4E,0x00,0x18,0x50,0x7F,
	0x60,0x50,0x00,0x18,0x51,0x7F,0x60,0x51,
	0x00,0x18,0x50,0x7F,0x81,0x40,0x50,0x00,
	0x30,0x4E,0x7F,0x60,0x4E,0x00,0x18,0x4C,
	0x7F,0x60,0x4C,0x00,0x18,0x4C,0x7F,0x81,
	0x40,0x4C,0x00,0x30,0x55,0x7F,0x83,0x00,
	0x55,0x00,0x60,0x53,0x7F,0x81,0x40,0x53,
	0x00,0x30,0x53,0x7F,0x81,0x40,0x53,0x00,
	0x30,0x50,0x7F,0x83,0x00,0x50,0x00,0x60,
	0x4E,0x7F,0x60,0x4E,0x00,0x18,0x4C,0x7F,
	0x60,0x4C,0x00,0x18,0x4C,0x7F,0x81,0x40,
	0x4C,0x00,0x30,0x4C,0x7F,0x81,0x40,0x4C,
	0x00,0x30,0x50,0x7F,0x81,0x40,0x50,0x00,
	0x30,0x4E,0x7F,0x60,0x4E,0x00,0x18,0x4C,
	0x7F,0x83,0x60,0x4C,0x00,0x00,0xFF,0x2F,
	0x00,0x4D,0x54,0x72,0x6B,0x00,0x00,0x00,
	0xFE,0x00,0xFF,0x03,0x04,0x42,0x41,0x53,
	0x53,0x00,0xC1,0x21,0x00,0xB1,0x07,0x5A,
	0x00,0x0A,0x40,0x00,0x91,0x1C,0x5F,0x83,
	0x00,0x1C,0x00,0x60,0x1C,0x5F,0x83,0x00,
	0x1C,0x00,0x60,0x23,0x5F,0x83,0x00,0x23,
	0x00,0x60,0x23,0x5F,0x83,0x00,0x23,0x00,
	0x60,0x25,0x5F,0x83,0x00,0x25,0x00,0x60,
	0x25,0x5F,0x83,0x00,0x25,0x00,0x60,0x20,
	0x5F,0x83,0x00,0x20,0x00,0x60,0x20,0x5F,
	0x83,0x00,0x20,0x00,0x60,0x21,0x5F,0x83,
	0x00,0x21,0x00,0x60,0x21,0x5F,0x83,0x00,
	0x21,0x00,0x60,0x28,0x5F,0x83,0x00,0x28,
	0x00,0x60,0x28,0x5F,0x83,0x00,0x28,0x00,
	0x60,0x21,0x5F,0x83,0x00,0x21,0x00,0x60,
	0x21,0x5F,0x83,0x00,0x21,0x00,0x60,0x23,
	0x5F,0x83,0x00,0x23,0x00,0x60,0x23,0x5F,
	0x83,0x00,0x23,0x00,0x60,0x1C,0x5F,0x83,
	0x00,0x1C,0x00,0x60,0x1C,0x5F,0x83,0x00,
	0x1C,0x00,0x60,0x23,0x5F,0x83,0x00,0x23,
	0x00,0x60,0x23,0x5F,0x83,0x00,0x23,0x00,
	0x60,0x25,0x5F,0x83,0x00,0x25,0x00,0x60,
	0x25,0x5F,0x83,0x00,0x25,0x00,0x60,0x20,
	0x5F,0x83,0x00,0x20,0x00,0x60,0x20,0x5F,
	0x83,0x00,0x20,0x00,0x60,0x21,0x5F,0x83,
	0x00,0x21,0x00,0x60,0x21,0x5F,0x83,0x00,
	0x21,0x00,0x60,0x1C,0x5F,0x83,0x00,0x1C,
	0x00,0x60,0x1C,0x5F,0x83,0x00,0x1C,0x00,
	0x60,0x1C,0x5F,0x83,0x00,0x1C,0x00,0x60,
	0x23,0x5F,0x83,0x00,0x23,0x00,0x60,0x1C,
	0x5F,0x81,0x40,0x1C,0x00,0x30,0x1C,0x5F,
	0x81,0x40,0x1C,0x00,0x30,0x1C,0x5F,0x83,
	0x00,0x1C,0x00,0x00,0xFF,0x2F,0x00,0x4D,
	0x54,0x72,0x6B,0x00,0x00,0x03,0x49,0x00,
	0xFF,0x03,0x03,0x47,0x74,0x73,0x00,0xC2,
	0x19,0x00,0xB2,0x07,0x5A,0x00,0x0A,0x18,
	0x00,0x92,0x34,0x5F,0x81,0x06,0x34,0x00,
	0x6A,0x40,0x5F,0x00,0x3B,0x5F,0x00,0x38,
	0x5F,0x81,0x06,0x38,0x00,0x00,0x3B,0x00,
	0x00,0x40,0x00,0x6A,0x34,0x5F,0x81,0x06,
	0x34,0x00,0x6A,0x40,0x5F,0x00,0x3B,0x5F,
	0x00,0x38,0x5F,0x81,0x06,0x38,0x00,0x00,
	0x3B,0x00,0x00,0x40,0x00,0x6A,0x2F,0x5F,
	0x81,0x06,0x2F,0x00,0x6A,0x42,0x5F,0x00,
	0x3F,0x5F,0x00,0x3B,0x5F,0x81,0x06,0x3B,
	0x00,0x00,0x3F,0x00,0x00,0x42,0x00,0x6A,
	0x2F,0x5F,0x81,0x06,0x2F,0x00,0x6A,0x42,
	0x5F,0x00,0x3F,0x5F,0x00,0x3B,0x5F,0x81,
	0x06,0x3B,0x00,0x00,0x3F,0x00,0x00,0x42,
	0x00,0x6A,0x31,0x5F,0x81,0x06,0x31,0x00,
	0x6A,0x44,0x5F,0x00,0x40,0x5F,0x00,0x3D,
	0x5F,0x81,0x06,0x3D,0x00,0x00,0x40,0x00,
	0x00,0x44,0x00,0x6A,0x31,0x5F,0x81,0x06,
	0x31,0x00,0x6A,0x44,0x5F,0x00,0x40,0x5F,
	0x00,0x3D,0x5F,0x81,0x06,0x3D,0x00,0x00,
	0x40,0x00,0x00,0x44,0x00,0x6A,0x2C,0x5F,
	0x81,0x06,0x2C,0x00,0x6A,0x44,0x5F,0x00,
	0x3F,0x5F,0x00,0x3B,0x5F,0x81,0x06,0x3B,
	0x00,0x00,0x3F,0x00,0x00,0x44,0x00,0x6A,
	0x2C,0x5F,0x81,0x06,0x2C,0x00,0x6A,0x44,
	0x5F,0x00,0x3F,0x5F,0x00,0x3B,0x5F,0x81,
	0x06,0x3B,0x00,0x00,0x3F,0x00,0x00,0x44,
	0x00,0x6A,0x2D,0x5F,0x81,0x06,0x2D,0x00,
	0x6A,0x40,0x5F,0x00,0x3D,0x5F,0x00,0x39,
	0x5F,0x81,0x06,0x39,0x00,0x00,0x3D,0x00,
	0x00,0x40,0x00,0x6A,0x2D,0x5F,0x81,0x06,
	0x2D,0x00,0x6A,0x40,0x5F,0x00,0x3D,0x5F,
	0x00,0x39,0x5F,0x81,0x06,0x39,0x00,0x00,
	0x3D,0x00,0x00,0x40,0x00,0x6A,0x34,0x5F,
	0x81,0x06,0x34,0x00,0x6A,0x40,0x5F,0x00,
	0x3B,0x5F,0x00,0x38,0x5F,0x81,0x06,0x38,
	0x00,0x00,0x3B,0x00,0x00,0x40,0x00,0x6A,
	0x34,0x5F,0x81,0x06,0x34,0x00,0x6A,0x40,
	0x5F,0x00,0x3B,0x5F,0x00,0x38,0x5F,0x81,
	0x06,0x38,0x00,0x00,0x3B,0x00,0x00,0x40,
	0x00,0x6A,0x2D,0x5F,0x81,0x06,0x2D,0x00,
	0x6A,0x40,0x5F,0x00,0x3D,0x5F,0x00,0x39,
	0x5F,0x81,0x06,0x39,0x00,0x00,0x3D,0x00,
	0x00,0x40,0x00,0x6A,0x2D,0x5F,0x81,0x06,
	0x2D,0x00,0x6A,0x40,0x5F,0x00,0x3D,0x5F,
	0x00,0x39,0x5F,0x81,0x06,0x39,0x00,0x00,
	0x3D,0x00,0x00,0x40,0x00,0x6A,0x2F,0x5F,
	0x81,0x06,0x2F,0x00,0x6A,0x42,0x5F,0x00,
	0x3F,0x5F,0x00,0x3B,0x5F,0x81,0x06,0x3B,
	0x00,0x00,0x3F,0x00,0x00,0x42,0x00,0x6A,
	0x2F,0x5F,0x81,0x06,0x2F,0x00,0x6A,0x42,
	0x5F,0x00,0x3F,0x5F,0x00,0x3B,0x5F,0x81,
	0x06,0x3B,0x00,0x00,0x3F,0x00,0x00,0x42,
	0x00,0x6A,0x34,0x5F,0x81,0x06,0x34,0x00,
	0x6A,0x40,0x5F,0x00,0x3B,0x5F,0x00,0x38,
	0x5F,0x81,0x06,0x38,0x00,0x00,0x3B,0x00,
	0x00,0x40,0x00,0x6A,0x34,0x5F,0x81,0x06,
	0x34,0x00,0x6A,0x40,0x5F,0x00,0x3B,0x5F,
	0x00,0x38,0x5F,0x81,0x06,0x38,0x00,0x00,
	0x3B,0x00,0x00,0x40,0x00,0x6A,0x2F,0x5F,
	0x81,0x06,0x2F,0x00,0x6A,0x42,0x5F,0x00,
	0x3F,0x5F,0x00,0x3B,0x5F,0x81,0x06,0x3B,
	0x00,0x00,0x3F,0x00,0x00,0x42,0x00,0x6A,
	0x2F,0x5F,0x81,0x06,0x2F,0x00,0x6A,0x42,
	0x5F,0x00,0x3F,0x5F,0x00,0x3B,0x5F,0x81,
	0x06,0x3B,0x00,0x00,0x3F,0x00,0x00,0x42,
	0x00,0x6A,0x31,0x5F,0x81,0x06,0x31,0x00,
	0x6A,0x44,0x5F,0x00,0x40,0x5F,0x00,0x3D,
	0x5F,0x81,0x06,0x3D,0x00,0x00,0x40,0x00,
	0x00,0x44,0x00,0x6A,0x31,0x5F,0x81,0x06,
	0x31,0x00,0x6A,0x44,0x5F,0x00,0x40,0x5F,
	0x00,0x3D,0x5F,0x81,0x06,0x3D,0x00,0x00,
	0x40,0x00,0x00,0x44,0x00,0x6A,0x38,0x5F,
	0x81,0x06,0x38,0x00,0x6A,0x44,0x5F,0x00,
	0x3F,0x5F,0x00,0x3B,0x5F,0x81,0x06,0x3B,
	0x00,0x00,0x3F,0x00,0x00,0x44,0x00,0x6A,
	0x38,0x5F,0x81,0x06,0x38,0x00,0x6A,0x44,
	0x5F,0x00,0x3F,0x5F,0x00,0x3B,0x5F,0x81,
	0x06,0x3B,0x00,0x00,0x3F,0x00,0x00,0x44,
	0x00,0x6A,0x2D,0x5F,0x81,0x06,0x2D,0x00,
	0x6A,0x40,0x5F,0x00,0x3D,0x5F,0x00,0x39,
	0x5F,0x81,0x06,0x39,0x00,0x00,0x3D,0x00,
	0x00,0x40,0x00,0x6A,0x2D,0x5F,0x81,0x06,
	0x2D,0x00,0x6A,0x40,0x5F,0x00,0x3D,0x5F,
	0x00,0x39,0x5F,0x81,0x06,0x39,0x00,0x00,
	0x3D,0x00,0x00,0x40,0x00,0x6A,0x34,0x5F,
	0x81,0x06,0x34,0x00,0x6A,0x40,0x5F,0x00,
	0x3B,0x5F,0x00,0x38,0x5F,0x81,0x06,0x38,
	0x00,0x00,0x3B,0x00,0x00,0x40,0x00,0x6A,
	0x34,0x5F,0x81,0x06,0x34,0x00,0x6A,0x40,
	0x5F,0x00,0x3B,0x5F,0x00,0x38,0x5F,0x81,
	0x06,0x38,0x00,0x00,0x3B,0x00,0x00,0x40,
	0x00,0x6A,0x34,0x5F,0x81,0x06,0x34,0x00,
	0x6A,0x40,0x5F,0x00,0x3B,0x5F,0x00,0x38,
	0x5F,0x81,0x06,0x38,0x00,0x00,0x3B,0x00,
	0x00,0x40,0x00,0x6A,0x34,0x5F,0x81,0x06,
	0x34,0x00,0x6A,0x40,0x5F,0x00,0x3B,0x5F,
	0x00,0x38,0x5F,0x81,0x06,0x38,0x00,0x00,
	0x3B,0x00,0x00,0x40,0x00,0x6A,0x3B,0x5F,
	0x00,0x38,0x5F,0x81,0x06,0x38,0x00,0x00,
	0x3B,0x00,0x6A,0x3B,0x5F,0x00,0x38,0x5F,
	0x81,0x06,0x38,0x00,0x00,0x3B,0x00,0x6A,
	0x3B,0x5F,0x00,0x38,0x5F,0x81,0x06,0x38,
	0x00,0x00,0x3B,0x00,0x00,0xFF,0x2F,0x00,
	0x4D,0x54,0x72,0x6B,0x00,0x00,0x03,0x0C,
	0x00,0xFF,0x03,0x05,0x50,0x69,0x61,0x6E,
	0x6F,0x00,0xC3,0x03,0x00,0xB3,0x07,0x55,
	0x00,0x0A,0x64,0x00,0x93,0x40,0x5F,0x76,
	0x40,0x00,0x7A,0x53,0x5F,0x00,0x50,0x5F,
	0x00,0x4C,0x5F,0x76,0x4C,0x00,0x00,0x50,
	0x00,0x00,0x53,0x00,0x7A,0x40,0x5F,0x76,
	0x40,0x00,0x7A,0x53,0x5F,0x00,0x50,0x5F,
	0x00,0x4C,0x5F,0x76,0x4C,0x00,0x00,0x50,
	0x00,0x00,0x53,0x00,0x7A,0x47,0x5F,0x76,
	0x47,0x00,0x7A,0x53,0x5F,0x00,0x4E,0x5F,
	0x00,0x4B,0x5F,0x76,0x4B,0x00,0x00,0x4E,
	0x00,0x00,0x53,0x00,0x7A,0x47,0x5F,0x76,
	0x47,0x00,0x7A,0x53,0x5F,0x00,0x4E,0x5F,
	0x00,0x4B,0x5F,0x76,0x4B,0x00,0x00,0x4E,
	0x00,0x00,0x53,0x00,0x7A,0x49,0x5F,0x76,
	0x49,0x00,0x7A,0x55,0x5F,0x00,0x50,0x5F,
	0x00,0x4C,0x5F,0x76,0x4C,0x00,0x00,0x50,
	0x00,0x00,0x55,0x00,0x7A,0x49,0x5F,0x76,
	0x49,0x00,0x7A,0x55,0x5F,0x00,0x50,0x5F,
	0x00,0x4C,0x5F,0x76,0x4C,0x00,0x00,0x50,
	0x00,0x00,0x55,0x00,0x7A,0x4B,0x5F,0x76,
	0x4B,0x00,0x7A,0x57,0x5F,0x00,0x53,0x5F,
	0x00,0x50,0x5F,0x76,0x50,0x00,0x00,0x53,
	0x00,0x00,0x57,0x00,0x7A,0x4B,0x5F,0x76,
	0x4B,0x00,0x7A,0x57,0x5F,0x00,0x53,0x5F,
	0x00,0x50,0x5F,0x76,0x50,0x00,0x00,0x53,
	0x00,0x00,0x57,0x00,0x7A,0x45,0x5F,0x76,
	0x45,0x00,0x7A,0x4C,0x5F,0x00,0x51,0x5F,
	0x00,0x49,0x5F,0x76,0x49,0x00,0x00,0x51,
	0x00,0x00,0x4C,0x00,0x7A,0x45,0x5F,0x76,
	0x45,0x00,0x7A,0x4C,0x5F,0x00,0x51,0x5F,
	0x00,0x49,0x5F,0x76,0x49,0x00,0x00,0x51,
	0x00,0x00,0x4C,0x00,0x7A,0x45,0x5F,0x76,
	0x45,0x00,0x7A,0x4C,0x5F,0x00,0x51,0x5F,
	0x00,0x49,0x5F,0x76,0x49,0x00,0x00,0x51,
	0x00,0x00,0x4C,0x00,0x7A,0x45,0x5F,0x76,
	0x45,0x00,0x7A,0x4C,0x5F,0x00,0x51,0x5F,
	0x00,0x49,0x5F,0x76,0x49,0x00,0x00,0x51,
	0x00,0x00,0x4C,0x00,0x7A,0x45,0x5F,0x76,
	0x45,0x00,0x7A,0x4C,0x5F,0x00,0x51,0x5F,
	0x00,0x49,0x5F,0x76,0x49,0x00,0x00,0x51,
	0x00,0x00,0x4C,0x00,0x7A,0x45,0x5F,0x76,
	0x45,0x00,0x7A,0x4C,0x5F,0x00,0x51,0x5F,
	0x00,0x49,0x5F,0x76,0x49,0x00,0x00,0x51,
	0x00,0x00,0x4C,0x00,0x7A,0x47,0x5F,0x76,
	0x47,0x00,0x7A,0x53,0x5F,0x00,0x4E,0x5F,
	0x00,0x4B,0x5F,0x76,0x4B,0x00,0x00,0x4E,
	0x00,0x00,0x53,0x00,0x7A,0x47,0x5F,0x76,
	0x47,0x00,0x7A,0x53,0x5F,0x00,0x4E,0x5F,
	0x00,0x4B,0x5F,0x76,0x4B,0x00,0x00,0x4E,
	0x00,0x00,0x53,0x00,0x7A,0x40,0x5F,0x76,
	0x40,0x00,0x7A,0x53,0x5F,0x00,0x50,0x5F,
	0x00,0x4C,0x5F,0x76,0x4C,0x00,0x00,0x50,
	0x00,0x00,0x53,0x00,0x7A,0x40,0x5F,0x76,
	0x40,0x00,0x7A,0x53,0x5F,0x00,0x50,0x5F,
	0x00,0x4C,0x5F,0x76,0x4C,0x00,0x00,0x50,
	0x00,0x00,0x53,0x00,0x7A,0x47,0x5F,0x76,
	0x47,0x00,0x7A,0x53,0x5F,0x00,0x4E,0x5F,
	0x00,0x4B,0x5F,0x76,0x4B,0x00,0x00,0x4E,
	0x00,0x00,0x53,0x00,0x7A,0x47,0x5F,0x76,
	0x47,0x00,0x7A,0x53,0x5F,0x00,0x4E,0x5F,
	0x00,0x4B,0x5F,0x76,0x4B,0x00,0x00,0x4E,
	0x00,0x00,0x53,0x00,0x7A,0x49,0x5F,0x76,
	0x49,0x00,0x7A,0x55,0x5F,0x00,0x50,0x5F,
	0x00,0x4C,0x5F,0x76,0x4C,0x00,0x00,0x50,
	0x00,0x00,0x55,0x00,0x7A,0x49,0x5F,0x76,
	0x49,0x00,0x7A,0x55,0x5F,0x00,0x50,0x5F,
	0x00,0x4C,0x5F,0x76,0x4C,0x00,0x00,0x50,
	0x00,0x00,0x55,0x00,0x7A,0x4B,0x5F,0x76,
	0x4B,0x00,0x7A,0x57,0x5F,0x00,0x53,0x5F,
	0x00,0x50,0x5F,0x76,0x50,0x00,0x00,0x53,
	0x00,0x00,0x57,0x00,0x7A,0x4B,0x5F,0x76,
	0x4B,0x00,0x7A,0x57,0x5F,0x00,0x53,0x5F,
	0x00,0x50,0x5F,0x76,0x50,0x00,0x00,0x53,
	0x00,0x00,0x57,0x00,0x7A,0x45,0x5F,0x76,
	0x45,0x00,0x7A,0x4C,0x5F,0x00,0x51,0x5F,
	0x00,0x49,0x5F,0x76,0x49,0x00,0x00,0x51,
	0x00,0x00,0x4C,0x00,0x7A,0x45,0x5F,0x76,
	0x45,0x00,0x7A,0x4C,0x5F,0x00,0x51,0x5F,
	0x00,0x49,0x5F,0x76,0x49,0x00,0x00,0x51,
	0x00,0x00,0x4C,0x00,0x7A,0x40,0x5F,0x76,
	0x40,0x00,0x7A,0x4C,0x5F,0x00,0x53,0x5F,
	0x00,0x50,0x5F,0x76,0x50,0x00,0x00,0x53,
	0x00,0x00,0x4C,0x00,0x7A,0x40,0x5F,0x76,
	0x40,0x00,0x7A,0x4C,0x5F,0x00,0x53,0x5F,
	0x00,0x50,0x5F,0x76,0x50,0x00,0x00,0x53,
	0x00,0x00,0x4C,0x00,0x7A,0x40,0x5F,0x76,
	0x40,0x00,0x7A,0x4C,0x5F,0x00,0x53,0x5F,
	0x00,0x50,0x5F,0x76,0x50,0x00,0x00,0x53,
	0x00,0x00,0x4C,0x00,0x7A,0x40,0x5F,0x76,
	0x40,0x00,0x7A,0x4C,0x5F,0x00,0x53,0x5F,
	0x00,0x50,0x5F,0x76,0x50,0x00,0x00,0x53,
	0x00,0x00,0x4C,0x00,0x7A,0x4C,0x5F,0x00,
	0x50,0x5F,0x76,0x50,0x00,0x00,0x4C,0x00,
	0x7A,0x4C,0x5F,0x00,0x50,0x5F,0x76,0x50,
	0x00,0x00,0x4C,0x00,0x7A,0x4C,0x5F,0x00,
	0x50,0x5F,0x76,0x50,0x00,0x00,0x4C,0x00,
	0x00,0xFF,0x2F,0x00,0x4D,0x54,0x72,0x6B,
	0x00,0x00,0x00,0xDC,0x00,0xFF,0x03,0x06,
	0x53,0x74,0x72,0x69,0x6E,0x67,0x00,0xC4,
	0x30,0x00,0xB4,0x07,0x38,0x00,0x0A,0x28,
	0x00,0x94,0x4C,0x5F,0x00,0x47,0x5F,0x87,
	0x40,0x47,0x00,0x00,0x4C,0x00,0x00,0x4B,
	0x5F,0x00,0x47,0x5F,0x87,0x40,0x47,0x00,
	0x00,0x4B,0x00,0x00,0x4C,0x5F,0x00,0x49,
	0x5F,0x87,0x40,0x49,0x00,0x00,0x4C,0x00,
	0x00,0x47,0x5F,0x00,0x44,0x5F,0x87,0x40,
	0x44,0x00,0x00,0x47,0x00,0x00,0x49,0x5F,
	0x00,0x45,0x5F,0x87,0x40,0x45,0x00,0x00,
	0x49,0x00,0x00,0x4C,0x5F,0x00,0x47,0x5F,
	0x87,0x40,0x47,0x00,0x00,0x4C,0x00,0x00,
	0x49,0x5F,0x00,0x45,0x5F,0x87,0x40,0x45,
	0x00,0x00,0x49,0x00,0x00,0x4B,0x5F,0x00,
	0x47,0x5F,0x87,0x40,0x47,0x00,0x00,0x4B,
	0x00,0x00,0x4C,0x5F,0x00,0x47,0x5F,0x87,
	0x40,0x47,0x00,0x00,0x4C,0x00,0x00,0x4B,
	0x5F,0x00,0x47,0x5F,0x87,0x40,0x47,0x00,
	0x00,0x4B,0x00,0x00,0x4C,0x5F,0x00,0x49,
	0x5F,0x87,0x40,0x49,0x00,0x00,0x4C,0x00,
	0x00,0x47,0x5F,0x00,0x44,0x5F,0x87,0x40,
	0x44,0x00,0x00,0x47,0x00,0x00,0x49,0x5F,
	0x00,0x45,0x5F,0x87,0x40,0x45,0x00,0x00,
	0x49,0x00,0x00,0x4C,0x5F,0x00,0x47,0x5F,
	0x87,0x40,0x47,0x00,0x00,0x4C,0x00,0x00,
	0x4C,0x5F,0x00,0x47,0x5F,0x8B,0x20,0x47,
	0x00,0x00,0x4C,0x00,0x00,0xFF,0x2F,0x00,
	0x4D,0x54,0x72,0x6B,0x00,0x00,0x03,0x6E,
	0x00,0xFF,0x03,0x04,0x53,0x6F,0x6C,0x6F,
	0x00,0xC5,0x04,0x00,0xB5,0x07,0x4B,0x00,
	0x0A,0x70,0x00,0x95,0x58,0x5F,0x60,0x58,
	0x00,0x18,0x58,0x5F,0x30,0x58,0x00,0x0C,
	0x58,0x5F,0x30,0x58,0x00,0x0C,0x58,0x5F,
	0x30,0x58,0x00,0x0C,0x58,0x5F,0x60,0x58,
	0x00,0x18,0x58,0x5F,0x60,0x58,0x00,0x18,
	0x58,0x5F,0x60,0x58,0x00,0x18,0x58,0x5F,
	0x30,0x58,0x00,0x0C,0x58,0x5F,0x30,0x58,
	0x00,0x0C,0x58,0x5F,0x60,0x58,0x00,0x18,
	0x53,0x5F,0x60,0x53,0x00,0x18,0x53,0x5F,
	0x30,0x53,0x00,0x0C,0x53,0x5F,0x30,0x53,
	0x00,0x0C,0x53,0x5F,0x30,0x53,0x00,0x0C,
	0x53,0x5F,0x60,0x53,0x00,0x18,0x53,0x5F,
	0x60,0x53,0x00,0x18,0x53,0x5F,0x60,0x53,
	0x00,0x18,0x53,0x5F,0x60,0x53,0x00,0x18,
	0x53,0x5F,0x30,0x53,0x00,0x0C,0x53,0x5F,
	0x30,0x53,0x00,0x0C,0x53,0x5F,0x60,0x53,
	0x00,0x18,0x55,0x5F,0x60,0x55,0x00,0x18,
	0x55,0x5F,0x60,0x55,0x00,0x18,0x55,0x5F,
	0x60,0x55,0x00,0x18,0x55,0x5F,0x60,0x55,
	0x00,0x18,0x55,0x5F,0x60,0x55,0x00,0x18,
	0x55,0x5F,0x60,0x55,0x00,0x18,0x55,0x5F,
	0x60,0x55,0x00,0x18,0x55,0x5F,0x60,0x55,
	0x00,0x18,0x50,0x5F,0x60,0x50,0x00,0x18,
	0x50,0x5F,0x30,0x50,0x00,0x0C,0x50,0x5F,
	0x30,0x50,0x00,0x0C,0x50,0x5F,0x60,0x50,
	0x00,0x18,0x50,0x5F,0x60,0x50,0x00,0x18,
	0x50,0x5F,0x60,0x50,0x00,0x18,0x50,0x5F,
	0x30,0x50,0x00,0x0C,0x50,0x5F,0x30,0x50,
	0x00,0x0C,0x50,0x5F,0x60,0x50,0x00,0x18,
	0x50,0x5F,0x60,0x50,0x00,0x18,0x51,0x5F,
	0x60,0x51,0x00,0x18,0x51,0x5F,0x60,0x51,
	0x00,0x18,0x51,0x5F,0x60,0x51,0x00,0x18,
	0x51,0x5F,0x60,0x51,0x00,0x18,0x55,0x5F,
	0x60,0x55,0x00,0x18,0x55,0x5F,0x30,0x55,
	0x00,0x0C,0x55,0x5F,0x30,0x55,0x00,0x0C,
	0x55,0x5F,0x60,0x55,0x00,0x18,0x55,0x5F,
	0x60,0x55,0x00,0x18,0x53,0x5F,0x60,0x53,
	0x00,0x18,0x53,0x5F,0x60,0x53,0x00,0x18,
	0x53,0x5F,0x60,0x53,0x00,0x18,0x53,0x5F,
	0x60,0x53,0x00,0x18,0x50,0x5F,0x60,0x50,
	0x00,0x18,0x50,0x5F,0x60,0x50,0x00,0x18,
	0x50,0x5F,0x60,0x50,0x00,0x18,0x50,0x5F,
	0x60,0x50,0x00,0x18,0x51,0x5F,0x60,0x51,
	0x00,0x18,0x51,0x5F,0x60,0x51,0x00,0x18,
	0x51,0x5F,0x60,0x51,0x00,0x18,0x51,0x5F,
	0x60,0x51,0x00,0x18,0x51,0x5F,0x60,0x51,
	0x00,0x18,0x51,0x5F,0x30,0x51,0x00,0x0C,
	0x51,0x5F,0x30,0x51,0x00,0x0C,0x51,0x5F,
	0x60,0x51,0x00,0x18,0x51,0x5F,0x60,0x51,
	0x00,0x18,0x53,0x5F,0x60,0x53,0x00,0x18,
	0x53,0x5F,0x60,0x53,0x00,0x18,0x53,0x5F,
	0x60,0x53,0x00,0x18,0x53,0x5F,0x60,0x53,
	0x00,0x18,0x53,0x5F,0x60,0x53,0x00,0x18,
	0x53,0x5F,0x30,0x53,0x00,0x0C,0x53,0x5F,
	0x30,0x53,0x00,0x0C,0x53,0x5F,0x60,0x53,
	0x00,0x18,0x53,0x5F,0x60,0x53,0x00,0x18,
	0x58,0x5F,0x60,0x58,0x00,0x18,0x58,0x5F,
	0x30,0x58,0x00,0x0C,0x58,0x5F,0x30,0x58,
	0x00,0x0C,0x58,0x5F,0x30,0x58,0x00,0x0C,
	0x58,0x5F,0x60,0x58,0x00,0x18,0x58,0x5F,
	0x60,0x58,0x00,0x18,0x58,0x5F,0x60,0x58,
	0x00,0x18,0x58,0x5F,0x30,0x58,0x00,0x0C,
	0x58,0x5F,0x30,0x58,0x00,0x0C,0x58,0x5F,
	0x60,0x58,0x00,0x18,0x53,0x5F,0x60,0x53,
	0x00,0x18,0x53,0x5F,0x30,0x53,0x00,0x0C,
	0x53,0x5F,0x30,0x53,0x00,0x0C,0x53,0x5F,
	0x30,0x53,0x00,0x0C,0x53,0x5F,0x60,0x53,
	0x00,0x18,0x53,0x5F,0x60,0x53,0x00,0x18,
	0x53,0x5F,0x60,0x53,0x00,0x18,0x53,0x5F,
	0x60,0x53,0x00,0x18,0x53,0x5F,0x30,0x53,
	0x00,0x0C,0x53,0x5F,0x30,0x53,0x00,0x0C,
	0x53,0x5F,0x60,0x53,0x00,0x18,0x55,0x5F,
	0x60,0x55,0x00,0x18,0x55,0x5F,0x60,0x55,
	0x00,0x18,0x55,0x5F,0x60,0x55,0x00,0x18,
	0x55,0x5F,0x60,0x55,0x00,0x18,0x55,0x5F,
	0x60,0x55,0x00,0x18,0x55,0x5F,0x60,0x55,
	0x00,0x18,0x55,0x5F,0x60,0x55,0x00,0x18,
	0x55,0x5F,0x60,0x55,0x00,0x18,0x50,0x5F,
	0x60,0x50,0x00,0x18,0x50,0x5F,0x30,0x50,
	0x00,0x0C,0x50,0x5F,0x30,0x50,0x00,0x0C,
	0x50,0x5F,0x60,0x50,0x00,0x18,0x50,0x5F,
	0x60,0x50,0x00,0x18,0x50,0x5F,0x60,0x50,
	0x00,0x18,0x50,0x5F,0x30,0x50,0x00,0x0C,
	0x50,0x5F,0x30,0x50,0x00,0x0C,0x50,0x5F,
	0x60,0x50,0x00,0x18,0x50,0x5F,0x60,0x50,
	0x00,0x18,0x51,0x5F,0x60,0x51,0x00,0x18,
	0x51,0x5F,0x60,0x51,0x00,0x18,0x51,0x5F,
	0x60,0x51,0x00,0x18,0x51,0x5F,0x60,0x51,
	0x00,0x18,0x55,0x5F,0x60,0x55,0x00,0x18,
	0x55,0x5F,0x30,0x55,0x00,0x0C,0x55,0x5F,
	0x30,0x55,0x00,0x0C,0x55,0x5F,0x60,0x55,
	0x00,0x18,0x55,0x5F,0x60,0x55,0x00,0x18,
	0x53,0x5F,0x60,0x53,0x00,0x18,0x53,0x5F,
	0x60,0x53,0x00,0x18,0x53,0x5F,0x60,0x53,
	0x00,0x18,0x53,0x5F,0x60,0x53,0x00,0x18,
	0x50,0x5F,0x60,0x50,0x00,0x18,0x50,0x5F,
	0x60,0x50,0x00,0x18,0x50,0x5F,0x60,0x50,
	0x00,0x18,0x50,0x5F,0x60,0x50,0x00,0x18,
	0x58,0x5F,0x60,0x58,0x00,0x18,0x58,0x5F,
	0x60,0x58,0x00,0x18,0x58,0x5F,0x60,0x58,
	0x00,0x18,0x58,0x5F,0x60,0x58,0x00,0x18,
	0x53,0x5F,0x60,0x53,0x00,0x18,0x53,0x5F,
	0x30,0x53,0x00,0x0C,0x53,0x5F,0x30,0x53,
	0x00,0x0C,0x53,0x5F,0x60,0x53,0x00,0x18,
	0x53,0x5F,0x60,0x53,0x00,0x18,0x53,0x5F,
	0x81,0x40,0x53,0x00,0x30,0x50,0x5F,0x81,
	0x40,0x50,0x00,0x30,0x50,0x5F,0x81,0x40,
	0x50,0x00,0x00,0xFF,0x2F,0x00,0x4D,0x54,
	0x72,0x6B,0x00,0x00,0x01,0xCE,0x00,0xFF,
	0x03,0x05,0x44,0x72,0x75,0x6D,0x73,0x00,
	0xB9,0x07,0x6A,0x00,0x0A,0x40,0x00,0x99,
	0x23,0x6E,0x81,0x10,0x23,0x00,0x60,0x26,
	0x6E,0x81,0x10,0x26,0x00,0x60,0x23,0x6E,
	0x81,0x10,0x23,0x00,0x60,0x26,0x6E,0x81,
	0x10,0x26,0x00,0x60,0x23,0x6E,0x81,0x10,
	0x23,0x00,0x60,0x26,0x6E,0x81,0x10,0x26,
	0x00,0x60,0x23,0x6E,0x81,0x10,0x23,0x00,
	0x60,0x26,0x6E,0x81,0x10,0x26,0x00,0x60,
	0x23,0x6E,0x81,0x10,0x23,0x00,0x60,0x26,
	0x6E,0x81,0x10,0x26,0x00,0x60,0x23,0x6E,
	0x81,0x10,0x23,0x00,0x60,0x26,0x6E,0x81,
	0x10,0x26,0x00,0x60,0x23,0x6E,0x81,0x10,
	0x23,0x00,0x60,0x26,0x6E,0x81,0x10,0x26,
	0x00,0x60,0x23,0x6E,0x81,0x10,0x23,0x00,
	0x60,0x26,0x6E,0x81,0x10,0x26,0x00,0x60,
	0x23,0x6E,0x81,0x10,0x23,0x00,0x60,0x26,
	0x6E,0x81,0x10,0x26,0x00,0x60,0x23,0x6E,
	0x81,0x10,0x23,0x00,0x60,0x26,0x6E,0x81,
	0x10,0x26,0x00,0x60,0x23,0x6E,0x81,0x10,
	0x23,0x00,0x60,0x26,0x6E,0x81,0x10,0x26,
	0x00,0x60,0x23,0x6E,0x81,0x10,0x23,0x00,
	0x60,0x26,0x6E,0x81,0x10,0x26,0x00,0x60,
	0x23,0x6E,0x81,0x10,0x23,0x00,0x60,0x26,
	0x6E,0x81,0x10,0x26,0x00,0x60,0x23,0x6E,
	0x81,0x10,0x23,0x00,0x60,0x26,0x6E,0x81,
	0x10,0x26,0x00,0x60,0x23,0x6E,0x81,0x10,
	0x23,0x00,0x60,0x26,0x6E,0x81,0x10,0x26,
	0x00,0x60,0x23,0x6E,0x81,0x10,0x23,0x00,
	0x60,0x26,0x6E,0x81,0x10,0x26,0x00,0x60,
	0x23,0x6E,0x81,0x10,0x23,0x00,0x60,0x26,
	0x6E,0x81,0x10,0x26,0x00,0x60,0x23,0x6E,
	0x81,0x10,0x23,0x00,0x60,0x26,0x6E,0x81,
	0x10,0x26,0x00,0x60,0x23,0x6E,0x81,0x10,
	0x23,0x00,0x60,0x26,0x6E,0x81,0x10,0x26,
	0x00,0x60,0x23,0x6E,0x81,0x10,0x23,0x00,
	0x60,0x26,0x6E,0x81,0x10,0x26,0x00,0x60,
	0x23,0x6E,0x81,0x10,0x23,0x00,0x60,0x26,
	0x6E,0x81,0x10,0x26,0x00,0x60,0x23,0x6E,
	0x81,0x10,0x23,0x00,0x60,0x26,0x6E,0x81,
	0x10,0x26,0x00,0x60,0x23,0x6E,0x81,0x10,
	0x23,0x00,0x60,0x26,0x6E,0x81,0x10,0x26,
	0x00,0x60,0x23,0x6E,0x81,0x10,0x23,0x00,
	0x60,0x26,0x6E,0x81,0x10,0x26,0x00,0x60,
	0x23,0x6E,0x81,0x10,0x23,0x00,0x60,0x26,
	0x6E,0x81,0x10,0x26,0x00,0x60,0x23,0x6E,
	0x81,0x10,0x23,0x00,0x60,0x26,0x6E,0x81,
	0x10,0x26,0x00,0x60,0x23,0x6E,0x81,0x10,
	0x23,0x00,0x60,0x26,0x6E,0x81,0x10,0x26,
	0x00,0x60,0x23,0x6E,0x81,0x10,0x23,0x00,
	0x60,0x26,0x6E,0x81,0x10,0x26,0x00,0x60,
	0x23,0x6E,0x81,0x10,0x23,0x00,0x60,0x26,
	0x6E,0x81,0x10,0x26,0x00,0x60,0x23,0x6E,
	0x81,0x10,0x23,0x00,0x60,0x26,0x6E,0x81,
	0x10,0x26,0x00,0x60,0x26,0x6E,0x81,0x10,
	0x26,0x00,0x60,0x26,0x6E,0x81,0x10,0x26,
	0x00,0x60,0x26,0x6E,0x81,0x10,0x26,0x00,
	0x00,0xFF,0x2F,0x00,0x4D,0x54,0x72,0x6B,
	0x00,0x00,0x01,0x19,0x00,0xFF,0x03,0x04,
	0x50,0x61,0x70,0x61,0x00,0xB9,0x07,0x6A,
	0x00,0x0A,0x40,0x81,0x70,0x99,0x27,0x5F,
	0x81,0x10,0x27,0x00,0x82,0x50,0x27,0x5F,
	0x81,0x10,0x27,0x00,0x82,0x50,0x27,0x5F,
	0x81,0x10,0x27,0x00,0x82,0x50,0x27,0x5F,
	0x81,0x10,0x27,0x00,0x82,0x50,0x27,0x5F,
	0x81,0x10,0x27,0x00,0x82,0x50,0x27,0x5F,
	0x81,0x10,0x27,0x00,0x82,0x50,0x27,0x5F,
	0x81,0x10,0x27,0x00,0x82,0x50,0x27,0x5F,
	0x81,0x10,0x27,0x00,0x82,0x50,0x27,0x5F,
	0x81,0x10,0x27,0x00,0x82,0x50,0x27,0x5F,
	0x81,0x10,0x27,0x00,0x82,0x50,0x27,0x5F,
	0x81,0x10,0x27,0x00,0x82,0x50,0x27,0x5F,
	0x81,0x10,0x27,0x00,0x82,0x50,0x27,0x5F,
	0x81,0x10,0x27,0x00,0x82,0x50,0x27,0x5F,
	0x81,0x10,0x27,0x00,0x82,0x50,0x27,0x5F,
	0x81,0x10,0x27,0x00,0x82,0x50,0x27,0x5F,
	0x81,0x10,0x27,0x00,0x82,0x50,0x27,0x5F,
	0x81,0x10,0x27,0x00,0x82,0x50,0x27,0x5F,
	0x81,0x10,0x27,0x00,0x82,0x50,0x27,0x5F,
	0x81,0x10,0x27,0x00,0x82,0x50,0x27,0x5F,
	0x81,0x10,0x27,0x00,0x82,0x50,0x27,0x5F,
	0x81,0x10,0x27,0x00,0x82,0x50,0x27,0x5F,
	0x81,0x10,0x27,0x00,0x82,0x50,0x27,0x5F,
	0x81,0x10,0x27,0x00,0x82,0x50,0x27,0x5F,
	0x81,0x10,0x27,0x00,0x82,0x50,0x27,0x5F,
	0x81,0x10,0x27,0x00,0x82,0x50,0x27,0x5F,
	0x81,0x10,0x27,0x00,0x82,0x50,0x27,0x5F,
	0x81,0x10,0x27,0x00,0x82,0x50,0x27,0x5F,
	0x81,0x10,0x27,0x00,0x82,0x50,0x27,0x5F,
	0x81,0x10,0x27,0x00,0x82,0x50,0x27,0x5F,
	0x81,0x10,0x27,0x00,0x60,0x27,0x5F,0x81,
	0x10,0x27,0x00,0x60,0x27,0x5F,0x81,0x10,
	0x27,0x00,0x60,0x27,0x5F,0x81,0x10,0x27,
	0x00,0x00,0xFF,0x2F,0x00,0x4D,0x54,0x72,
	0x6B,0x00,0x00,0x01,0xCE,0x00,0xFF,0x03,
	0x05,0x44,0x72,0x75,0x6D,0x73,0x00,0xB9,
	0x07,0x6A,0x00,0x0A,0x40,0x00,0x99,0x2A,
	0x69,0x81,0x70,0x2A,0x00,0x00,0x2A,0x69,
	0x81,0x70,0x2A,0x00,0x00,0x2A,0x69,0x81,
	0x70,0x2A,0x00,0x00,0x2A,0x69,0x81,0x70,
	0x2A,0x00,0x00,0x2A,0x69,0x81,0x70,0x2A,
	0x00,0x00,0x2A,0x69,0x81,0x70,0x2A,0x00,
	0x00,0x2A,0x69,0x81,0x70,0x2A,0x00,0x00,
	0x2A,0x69,0x81,0x70,0x2A,0x00,0x00,0x2A,
	0x69,0x81,0x70,0x2A,0x00,0x00,0x2A,0x69,
	0x81,0x70,0x2A,0x00,0x00,0x2A,0x69,0x81,
	0x70,0x2A,0x00,0x00,0x2A,0x69,0x81,0x70,
	0x2A,0x00,0x00,0x2A,0x69,0x81,0x70,0x2A,
	0x00,0x00,0x2A,0x69,0x81,0x70,0x2A,0x00,
	0x00,0x2A,0x69,0x81,0x70,0x2A,0x00,0x00,
	0x2A,0x69,0x81,0x70,0x2A,0x00,0x00,0x2A,
	0x69,0x81,0x70,0x2A,0x00,0x00,0x2A,0x69,
	0x81,0x70,0x2A,0x00,0x00,0x2A,0x69,0x81,
	0x70,0x2A,0x00,0x00,0x2A,0x69,0x81,0x70,
	0x2A,0x00,0x00,0x2A,0x69,0x81,0x70,0x2A,
	0x00,0x00,0x2A,0x69,0x81,0x70,0x2A,0x00,
	0x00,0x2A,0x69,0x81,0x70,0x2A,0x00,0x00,
	0x2A,0x69,0x81,0x70,0x2A,0x00,0x00,0x2A,
	0x69,0x81,0x70,0x2A,0x00,0x00,0x2A,0x69,
	0x81,0x70,0x2A,0x00,0x00,0x2A,0x69,0x81,
	0x70,0x2A,0x00,0x00,0x2A,0x69,0x81,0x70,
	0x2A,0x00,0x00,0x2A,0x69,0x81,0x70,0x2A,
	0x00,0x00,0x2A,0x69,0x81,0x70,0x2A,0x00,
	0x00,0x2A,0x69,0x81,0x70,0x2A,0x00,0x00,
	0x2A,0x69,0x81,0x70,0x2A,0x00,0x00,0x2A,
	0x69,0x81,0x70,0x2A,0x00,0x00,0x2A,0x69,
	0x81,0x70,0x2A,0x00,0x00,0x2A,0x69,0x81,
	0x70,0x2A,0x00,0x00,0x2A,0x69,0x81,0x70,
	0x2A,0x00,0x00,0x2A,0x69,0x81,0x70,0x2A,
	0x00,0x00,0x2A,0x69,0x81,0x70,0x2A,0x00,
	0x00,0x2A,0x69,0x81,0x70,0x2A,0x00,0x00,
	0x2A,0x69,0x81,0x70,0x2A,0x00,0x00,0x2A,
	0x69,0x81,0x70,0x2A,0x00,0x00,0x2A,0x69,
	0x81,0x70,0x2A,0x00,0x00,0x2A,0x69,0x81,
	0x70,0x2A,0x00,0x00,0x2A,0x69,0x81,0x70,
	0x2A,0x00,0x00,0x2A,0x69,0x81,0x70,0x2A,
	0x00,0x00,0x2A,0x69,0x81,0x70,0x2A,0x00,
	0x00,0x2A,0x69,0x81,0x70,0x2A,0x00,0x00,
	0x2A,0x69,0x81,0x70,0x2A,0x00,0x00,0x2A,
	0x69,0x81,0x70,0x2A,0x00,0x00,0x2A,0x69,
	0x81,0x70,0x2A,0x00,0x00,0x2A,0x69,0x81,
	0x70,0x2A,0x00,0x00,0x2A,0x69,0x81,0x70,
	0x2A,0x00,0x00,0x2A,0x69,0x81,0x70,0x2A,
	0x00,0x00,0x2A,0x69,0x81,0x70,0x2A,0x00,
	0x00,0x2A,0x69,0x81,0x70,0x2A,0x00,0x00,
	0x2A,0x69,0x81,0x70,0x2A,0x00,0x00,0x2A,
	0x69,0x81,0x70,0x2A,0x00,0x00,0x2A,0x69,
	0x81,0x70,0x2A,0x00,0x00,0x2A,0x69,0x81,
	0x70,0x2A,0x00,0x00,0x2A,0x69,0x81,0x70,
	0x2A,0x00,0x00,0x2A,0x69,0x81,0x70,0x2A,
	0x00,0x00,0x2A,0x69,0x81,0x70,0x2A,0x00,
	0x00,0x2A,0x69,0x81,0x70,0x2A,0x00,0x00,
	0xFF,0x2F,0x00,0x4D,0x54,0x72,0x6B,0x00,
	0x00,0x02,0x9B,0x00,0xFF,0x03,0x05,0x44,
	0x72,0x75,0x6D,0x73,0x00,0xB9,0x07,0x6A,
	0x00,0x0A,0x40,0x00,0x99,0x52,0x69,0x81,
	0x70,0x52,0x00,0x00,0x52,0x59,0x78,0x52,
	0x00,0x00,0x52,0x59,0x78,0x52,0x00,0x00,
	0x52,0x49,0x81,0x70,0x52,0x00,0x00,0x52,
	0x69,0x78,0x52,0x00,0x00,0x52,0x59,0x78,
	0x52,0x00,0x00,0x52,0x59,0x81,0x70,0x52,
	0x00,0x00,0x52,0x49,0x78,0x52,0x00,0x00,
	0x52,0x69,0x78,0x52,0x00,0x00,0x52,0x59,
	0x78,0x52,0x00,0x00,0x52,0x59,0x78,0x52,
	0x00,0x00,0x52,0x49,0x78,0x52,0x00,0x00,
	0x52,0x69,0x78,0x52,0x00,0x00,0x52,0x69,
	0x81,0x70,0x52,0x00,0x00,0x52,0x59,0x78,
	0x52,0x00,0x00,0x52,0x59,0x78,0x52,0x00,
	0x00,0x52,0x69,0x78,0x52,0x00,0x00,0x52,
	0x49,0x78,0x52,0x00,0x00,0x52,0x69,0x78,
	0x52,0x00,0x00,0x52,0x59,0x78,0x52,0x00,
	0x00,0x52,0x59,0x81,0x70,0x52,0x00,0x00,
	0x52,0x49,0x78,0x52,0x00,0x00,0x52,0x69,
	0x78,0x52,0x00,0x00,0x52,0x59,0x78,0x52,
	0x00,0x00,0x52,0x59,0x78,0x52,0x00,0x00,
	0x52,0x49,0x78,0x52,0x00,0x00,0x52,0x69,
	0x78,0x52,0x00,0x00,0x52,0x69,0x81,0x70,
	0x52,0x00,0x00,0x52,0x59,0x78,0x52,0x00,
	0x00,0x52,0x59,0x78,0x52,0x00,0x00,0x52,
	0x49,0x81,0x70,0x52,0x00,0x00,0x52,0x69,
	0x78,0x52,0x00,0x00,0x52,0x59,0x78,0x52,
	0x00,0x00,0x52,0x59,0x81,0x70,0x52,0x00,
	0x00,0x52,0x49,0x78,0x52,0x00,0x00,0x52,
	0x69,0x78,0x52,0x00,0x00,0x52,0x59,0x78,
	0x52,0x00,0x00,0x52,0x59,0x78,0x52,0x00,
	0x00,0x52,0x49,0x78,0x52,0x00,0x00,0x52,
	0x69,0x78,0x52,0x00,0x00,0x52,0x69,0x81,
	0x70,0x52,0x00,0x00,0x52,0x59,0x78,0x52,
	0x00,0x00,0x52,0x59,0x78,0x52,0x00,0x00,
	0x52,0x69,0x78,0x52,0x00,0x00,0x52,0x49,
	0x78,0x52,0x00,0x00,0x52,0x69,0x78,0x52,
	0x00,0x00,0x52,0x59,0x78,0x52,0x00,0x00,
	0x52,0x59,0x81,0x70,0x52,0x00,0x00,0x52,
	0x49,0x78,0x52,0x00,0x00,0x52,0x69,0x78,
	0x52,0x00,0x00,0x52,0x59,0x78,0x52,0x00,
	0x00,0x52,0x59,0x78,0x52,0x00,0x00,0x52,
	0x49,0x78,0x52,0x00,0x00,0x52,0x69,0x78,
	0x52,0x00,0x00,0x52,0x69,0x81,0x70,0x52,
	0x00,0x00,0x52,0x59,0x78,0x52,0x00,0x00,
	0x52,0x59,0x78,0x52,0x00,0x00,0x52,0x49,
	0x81,0x70,0x52,0x00,0x00,0x52,0x69,0x78,
	0x52,0x00,0x00,0x52,0x59,0x78,0x52,0x00,
	0x00,0x52,0x59,0x81,0x70,0x52,0x00,0x00,
	0x52,0x49,0x78,0x52,0x00,0x00,0x52,0x69,
	0x78,0x52,0x00,0x00,0x52,0x59,0x78,0x52,
	0x00,0x00,0x52,0x59,0x78,0x52,0x00,0x00,
	0x52,0x49,0x78,0x52,0x00,0x00,0x52,0x69,
	0x78,0x52,0x00,0x00,0x52,0x69,0x81,0x70,
	0x52,0x00,0x00,0x52,0x59,0x78,0x52,0x00,
	0x00,0x52,0x59,0x78,0x52,0x00,0x00,0x52,
	0x69,0x78,0x52,0x00,0x00,0x52,0x49,0x78,
	0x52,0x00,0x00,0x52,0x69,0x78,0x52,0x00,
	0x00,0x52,0x59,0x78,0x52,0x00,0x00,0x52,
	0x59,0x81,0x70,0x52,0x00,0x00,0x52,0x49,
	0x78,0x52,0x00,0x00,0x52,0x69,0x78,0x52,
	0x00,0x00,0x52,0x59,0x78,0x52,0x00,0x00,
	0x52,0x59,0x78,0x52,0x00,0x00,0x52,0x49,
	0x78,0x52,0x00,0x00,0x52,0x69,0x78,0x52,
	0x00,0x00,0x52,0x69,0x81,0x70,0x52,0x00,
	0x00,0x52,0x59,0x78,0x52,0x00,0x00,0x52,
	0x59,0x78,0x52,0x00,0x00,0x52,0x69,0x78,
	0x52,0x00,0x00,0x52,0x49,0x78,0x52,0x00,
	0x00,0x52,0x69,0x78,0x52,0x00,0x00,0x52,
	0x59,0x78,0x52,0x00,0x00,0x52,0x59,0x81,
	0x70,0x52,0x00,0x00,0x52,0x49,0x78,0x52,
	0x00,0x00,0x52,0x69,0x78,0x52,0x00,0x00,
	0x52,0x59,0x78,0x52,0x00,0x00,0x52,0x59,
	0x78,0x52,0x00,0x00,0x52,0x49,0x78,0x52,
	0x00,0x00,0x52,0x69,0x78,0x52,0x00,0x00,
	0x52,0x69,0x81,0x70,0x52,0x00,0x00,0x52,
	0x59,0x78,0x52,0x00,0x00,0x52,0x59,0x78,
	0x52,0x00,0x00,0x52,0x49,0x81,0x70,0x52,
	0x00,0x00,0x52,0x69,0x78,0x52,0x00,0x00,
	0x52,0x59,0x78,0x52,0x00,0x00,0x52,0x69,
	0x81,0x70,0x52,0x00,0x00,0x52,0x69,0x81,
	0x70,0x52,0x00,0x00,0x52,0x69,0x81,0x70,
	0x52,0x00,0x00,0xFF,0x2F,0x00,0x4D,0x54,
	0x72,0x6B,0x00,0x00,0x00,0x6C,0x00,0xFF,
	0x03,0x05,0x44,0x72,0x75,0x6D,0x73,0x00,
	0xB9,0x07,0x6A,0x00,0x0A,0x40,0x9A,0x20,
	0x99,0x1B,0x69,0x78,0x1B,0x00,0x00,0x1B,
	0x69,0x78,0x1B,0x00,0x00,0x1B,0x69,0x78,
	0x1B,0x00,0x00,0x1B,0x69,0x78,0x1B,0x00,
	0x98,0x30,0x1B,0x69,0x78,0x1B,0x00,0x00,
	0x1B,0x69,0x78,0x1B,0x00,0x00,0x1B,0x69,
	0x78,0x1B,0x00,0x00,0x1B,0x69,0x78,0x1B,
	0x00,0x00,0x1B,0x69,0x78,0x1B,0x00,0x00,
	0x1B,0x69,0x78,0x1B,0x00,0x9A,0x20,0x1B,
	0x69,0x78,0x1B,0x00,0x00,0x1B,0x69,0x78,
	0x1B,0x00,0x00,0x1B,0x69,0x78,0x1B,0x00,
	0x00,0x1B,0x69,0x78,0x1B,0x00,0x00,0xFF,
	0x2F,0x00,0x00,0x00,
};

__align(4) static const unsigned char s1mtcall05_mid[] = {
    0x4D,0x54,0x68,0x64,0x00,0x00,0x00,0x06,
	0x00,0x01,0x00,0x07,0x00,0x78,0x4D,0x54,
	0x72,0x6B,0x00,0x00,0x00,0x31,0x00,0xFF,
	0x03,0x09,0x43,0x72,0x61,0x7A,0x79,0x54,
	0x61,0x6E,0x6B,0x00,0xFF,0x02,0x07,0x6A,
	0x61,0x73,0x6D,0x69,0x6E,0x65,0x00,0xFF,
	0x58,0x04,0x04,0x02,0x18,0x08,0x00,0xFF,
	0x59,0x02,0x00,0x00,0x00,0xFF,0x51,0x03,
	0x05,0xCB,0x63,0x00,0xFF,0x2F,0x00,0x4D,
	0x54,0x72,0x6B,0x00,0x00,0x03,0xCA,0x00,
	0xB0,0x00,0x7C,0x00,0x20,0x00,0x00,0xC0,
	0x50,0x00,0xB0,0x07,0x78,0x00,0x0A,0x40,
	0x00,0x90,0x3E,0x7F,0x31,0x3E,0x00,0x0B,
	0x3E,0x57,0x31,0x3E,0x00,0x0B,0x4A,0x7F,
	0x31,0x4A,0x00,0x0B,0x4A,0x57,0x31,0x4A,
	0x00,0x0B,0x45,0x7F,0x31,0x45,0x00,0x0B,
	0x43,0x7F,0x00,0x45,0x57,0x31,0x45,0x00,
	0x00,0x43,0x00,0x0B,0x42,0x7F,0x00,0x43,
	0x57,0x31,0x43,0x00,0x00,0x42,0x00,0x0B,
	0x3E,0x7F,0x00,0x42,0x57,0x31,0x42,0x00,
	0x00,0x3E,0x00,0x0B,0x40,0x7F,0x00,0x3E,
	0x57,0x31,0x3E,0x00,0x00,0x40,0x00,0x0B,
	0x40,0x57,0x1E,0x42,0x7F,0x13,0x40,0x00,
	0x1E,0x42,0x00,0x0B,0x42,0x57,0x1E,0x43,
	0x7F,0x13,0x42,0x00,0x1E,0x43,0x00,0x0B,
	0x40,0x43,0x31,0x40,0x00,0x29,0x42,0x43,
	0x31,0x42,0x00,0x29,0x43,0x43,0x31,0x43,
	0x00,0x0B,0x3E,0x7F,0x31,0x3E,0x00,0x0B,
	0x3E,0x57,0x31,0x3E,0x00,0x0B,0x4A,0x7F,
	0x31,0x4A,0x00,0x0B,0x4A,0x57,0x31,0x4A,
	0x00,0x0B,0x49,0x7F,0x31,0x49,0x00,0x0B,
	0x45,0x7F,0x00,0x49,0x57,0x31,0x49,0x00,
	0x00,0x45,0x00,0x0B,0x43,0x7F,0x00,0x45,
	0x57,0x31,0x45,0x00,0x00,0x43,0x00,0x0B,
	0x42,0x7F,0x00,0x43,0x57,0x31,0x43,0x00,
	0x00,0x42,0x00,0x0B,0x43,0x7F,0x00,0x42,
	0x57,0x31,0x42,0x00,0x00,0x43,0x00,0x0B,
	0x43,0x57,0x1E,0x42,0x7F,0x13,0x43,0x00,
	0x1E,0x42,0x00,0x0B,0x42,0x57,0x1E,0x40,
	0x7F,0x13,0x42,0x00,0x1E,0x40,0x00,0x0B,
	0x43,0x43,0x31,0x43,0x00,0x29,0x42,0x43,
	0x1E,0x3E,0x7F,0x13,0x42,0x00,0x1E,0x3E,
	0x00,0x0B,0x40,0x7F,0x00,0x3E,0x57,0x31,
	0x3E,0x00,0x00,0x40,0x00,0x0B,0x41,0x7F,
	0x00,0x40,0x57,0x31,0x40,0x00,0x00,0x41,
	0x00,0x0B,0x41,0x57,0x31,0x41,0x00,0x0B,
	0x46,0x7F,0x31,0x46,0x00,0x0B,0x46,0x57,
	0x31,0x46,0x00,0x0B,0x4A,0x7F,0x31,0x4A,
	0x00,0x0B,0x48,0x7F,0x00,0x4A,0x57,0x31,
	0x4A,0x00,0x00,0x48,0x00,0x0B,0x46,0x7F,
	0x00,0x48,0x57,0x31,0x48,0x00,0x00,0x46,
	0x00,0x0B,0x41,0x7F,0x00,0x46,0x57,0x31,
	0x46,0x00,0x00,0x41,0x00,0x0B,0x40,0x7F,
	0x00,0x41,0x57,0x31,0x41,0x00,0x00,0x40,
	0x00,0x0B,0x40,0x57,0x1E,0x41,0x7F,0x13,
	0x40,0x00,0x1E,0x41,0x00,0x0B,0x41,0x57,
	0x1E,0x43,0x7F,0x13,0x41,0x00,0x1E,0x43,
	0x00,0x0B,0x43,0x57,0x31,0x43,0x00,0x47,
	0x40,0x7F,0x31,0x40,0x00,0x0B,0x40,0x57,
	0x31,0x40,0x00,0x0B,0x43,0x7F,0x31,0x43,
	0x00,0x0B,0x43,0x57,0x1D,0x43,0x00,0x01,
	0x43,0x7F,0x31,0x43,0x00,0x0B,0x43,0x57,
	0x1E,0x42,0x7F,0x13,0x43,0x00,0x1E,0x42,
	0x00,0x0B,0x43,0x43,0x31,0x43,0x00,0x29,
	0x43,0x43,0x31,0x43,0x00,0x29,0x42,0x43,
	0x31,0x42,0x00,0x0B,0x43,0x7F,0x31,0x43,
	0x00,0x0B,0x43,0x57,0x1D,0x43,0x00,0x01,
	0x43,0x7F,0x31,0x43,0x00,0x0B,0x43,0x57,
	0x1E,0x45,0x7F,0x13,0x43,0x00,0x1E,0x45,
	0x00,0x0B,0x43,0x43,0x31,0x43,0x00,0x29,
	0x43,0x43,0x31,0x43,0x00,0x29,0x45,0x43,
	0x31,0x45,0x00,0x0B,0x3E,0x7F,0x31,0x3E,
	0x00,0x0B,0x3E,0x57,0x31,0x3E,0x00,0x0B,
	0x4A,0x7F,0x31,0x4A,0x00,0x0B,0x4A,0x57,
	0x31,0x4A,0x00,0x0B,0x45,0x7F,0x31,0x45,
	0x00,0x0B,0x43,0x7F,0x00,0x45,0x57,0x31,
	0x45,0x00,0x00,0x43,0x00,0x0B,0x42,0x7F,
	0x00,0x43,0x57,0x31,0x43,0x00,0x00,0x42,
	0x00,0x0B,0x3E,0x7F,0x00,0x42,0x57,0x31,
	0x42,0x00,0x00,0x3E,0x00,0x0B,0x40,0x7F,
	0x00,0x3E,0x57,0x31,0x3E,0x00,0x00,0x40,
	0x00,0x0B,0x40,0x57,0x1E,0x42,0x7F,0x13,
	0x40,0x00,0x1E,0x42,0x00,0x0B,0x42,0x57,
	0x1E,0x43,0x7F,0x13,0x42,0x00,0x1E,0x43,
	0x00,0x0B,0x40,0x43,0x31,0x40,0x00,0x29,
	0x42,0x43,0x31,0x42,0x00,0x29,0x43,0x43,
	0x31,0x43,0x00,0x0B,0x3E,0x7F,0x31,0x3E,
	0x00,0x0B,0x3E,0x57,0x31,0x3E,0x00,0x0B,
	0x4A,0x7F,0x31,0x4A,0x00,0x0B,0x4A,0x57,
	0x31,0x4A,0x00,0x0B,0x49,0x7F,0x31,0x49,
	0x00,0x0B,0x45,0x7F,0x00,0x49,0x57,0x31,
	0x49,0x00,0x00,0x45,0x00,0x0B,0x43,0x7F,
	0x00,0x45,0x57,0x31,0x45,0x00,0x00,0x43,
	0x00,0x0B,0x42,0x7F,0x00,0x43,0x57,0x31,
	0x43,0x00,0x00,0x42,0x00,0x0B,0x43,0x7F,
	0x00,0x42,0x57,0x31,0x42,0x00,0x00,0x43,
	0x00,0x0B,0x43,0x57,0x1E,0x42,0x7F,0x13,
	0x43,0x00,0x1E,0x42,0x00,0x0B,0x42,0x57,
	0x1E,0x40,0x7F,0x13,0x42,0x00,0x1E,0x40,
	0x00,0x0B,0x43,0x43,0x31,0x43,0x00,0x29,
	0x42,0x43,0x1E,0x3E,0x7F,0x13,0x42,0x00,
	0x1E,0x3E,0x00,0x0B,0x40,0x7F,0x00,0x3E,
	0x57,0x31,0x3E,0x00,0x00,0x40,0x00,0x0B,
	0x41,0x7F,0x00,0x40,0x57,0x31,0x40,0x00,
	0x00,0x41,0x00,0x0B,0x41,0x57,0x31,0x41,
	0x00,0x0B,0x46,0x7F,0x31,0x46,0x00,0x0B,
	0x46,0x57,0x31,0x46,0x00,0x0B,0x4A,0x7F,
	0x31,0x4A,0x00,0x0B,0x48,0x7F,0x00,0x4A,
	0x57,0x31,0x4A,0x00,0x00,0x48,0x00,0x0B,
	0x46,0x7F,0x00,0x48,0x57,0x31,0x48,0x00,
	0x00,0x46,0x00,0x0B,0x41,0x7F,0x00,0x46,
	0x57,0x31,0x46,0x00,0x00,0x41,0x00,0x0B,
	0x40,0x7F,0x00,0x41,0x57,0x31,0x41,0x00,
	0x00,0x40,0x00,0x0B,0x40,0x57,0x1E,0x41,
	0x7F,0x13,0x40,0x00,0x1E,0x41,0x00,0x0B,
	0x41,0x57,0x1E,0x43,0x7F,0x13,0x41,0x00,
	0x1E,0x43,0x00,0x0B,0x43,0x57,0x31,0x43,
	0x00,0x47,0x40,0x7F,0x31,0x40,0x00,0x0B,
	0x40,0x57,0x31,0x40,0x00,0x0B,0x43,0x7F,
	0x31,0x43,0x00,0x0B,0x43,0x57,0x1D,0x43,
	0x00,0x01,0x43,0x7F,0x31,0x43,0x00,0x0B,
	0x43,0x57,0x1E,0x42,0x7F,0x13,0x43,0x00,
	0x1E,0x42,0x00,0x0B,0x43,0x43,0x31,0x43,
	0x00,0x29,0x43,0x43,0x31,0x43,0x00,0x29,
	0x42,0x43,0x31,0x42,0x00,0x0B,0x43,0x7F,
	0x31,0x43,0x00,0x0B,0x43,0x57,0x1D,0x43,
	0x00,0x01,0x43,0x7F,0x31,0x43,0x00,0x0B,
	0x43,0x57,0x1E,0x45,0x7F,0x13,0x43,0x00,
	0x1E,0x45,0x00,0x0B,0x43,0x43,0x31,0x43,
	0x00,0x29,0x43,0x43,0x31,0x43,0x00,0x29,
	0x45,0x43,0x31,0x45,0x00,0x00,0xFF,0x2F,
	0x00,0x4D,0x54,0x72,0x6B,0x00,0x00,0x04,
	0x96,0x00,0xB1,0x00,0x7C,0x00,0x20,0x00,
	0x00,0xC1,0x21,0x00,0xB1,0x07,0x6E,0x00,
	0x0A,0x20,0x00,0x91,0x26,0x7F,0x1D,0x26,
	0x00,0x1F,0x26,0x7F,0x1D,0x26,0x00,0x01,
	0x26,0x7F,0x1D,0x26,0x00,0x01,0x26,0x7F,
	0x1D,0x26,0x00,0x01,0x26,0x7F,0x1D,0x26,
	0x00,0x01,0x26,0x7F,0x1D,0x26,0x00,0x01,
	0x26,0x7F,0x1D,0x26,0x00,0x01,0x26,0x7F,
	0x1D,0x26,0x00,0x1F,0x1F,0x7F,0x1D,0x1F,
	0x00,0x1F,0x21,0x7F,0x1D,0x21,0x00,0x1F,
	0x26,0x7F,0x1D,0x26,0x00,0x1F,0x24,0x7F,
	0x1D,0x24,0x00,0x01,0x24,0x7F,0x1D,0x24,
	0x00,0x01,0x24,0x7F,0x1D,0x24,0x00,0x01,
	0x24,0x7F,0x1D,0x24,0x00,0x01,0x24,0x7F,
	0x1D,0x24,0x00,0x01,0x24,0x7F,0x1D,0x24,
	0x00,0x01,0x24,0x7F,0x1D,0x24,0x00,0x01,
	0x24,0x7F,0x1D,0x24,0x00,0x01,0x24,0x7F,
	0x1D,0x24,0x00,0x1F,0x28,0x7F,0x1D,0x28,
	0x00,0x1F,0x26,0x7F,0x1D,0x26,0x00,0x1F,
	0x24,0x7F,0x1D,0x24,0x00,0x1F,0x26,0x7F,
	0x1D,0x26,0x00,0x1F,0x26,0x7F,0x1D,0x26,
	0x00,0x01,0x26,0x7F,0x1D,0x26,0x00,0x01,
	0x26,0x7F,0x1D,0x26,0x00,0x01,0x26,0x7F,
	0x1D,0x26,0x00,0x01,0x26,0x7F,0x1D,0x26,
	0x00,0x01,0x26,0x7F,0x1D,0x26,0x00,0x01,
	0x26,0x7F,0x1D,0x26,0x00,0x1F,0x1F,0x7F,
	0x1D,0x1F,0x00,0x1F,0x21,0x7F,0x1D,0x21,
	0x00,0x1F,0x26,0x7F,0x1D,0x26,0x00,0x1F,
	0x24,0x7F,0x1D,0x24,0x00,0x01,0x24,0x7F,
	0x1D,0x24,0x00,0x01,0x24,0x7F,0x1D,0x24,
	0x00,0x01,0x24,0x7F,0x1D,0x24,0x00,0x01,
	0x24,0x7F,0x1D,0x24,0x00,0x01,0x24,0x7F,
	0x1D,0x24,0x00,0x01,0x24,0x7F,0x1D,0x24,
	0x00,0x01,0x24,0x7F,0x1D,0x24,0x00,0x01,
	0x24,0x7F,0x1D,0x24,0x00,0x1F,0x28,0x7F,
	0x1D,0x28,0x00,0x1F,0x26,0x7F,0x1D,0x26,
	0x00,0x1F,0x24,0x7F,0x1D,0x24,0x00,0x1F,
	0x22,0x7F,0x1D,0x22,0x00,0x1F,0x22,0x7F,
	0x1D,0x22,0x00,0x01,0x22,0x7F,0x1D,0x22,
	0x00,0x01,0x22,0x7F,0x1D,0x22,0x00,0x01,
	0x22,0x7F,0x1D,0x22,0x00,0x01,0x22,0x7F,
	0x1D,0x22,0x00,0x01,0x22,0x7F,0x1D,0x22,
	0x00,0x01,0x22,0x7F,0x1D,0x22,0x00,0x1F,
	0x29,0x7F,0x1D,0x29,0x00,0x1F,0x28,0x7F,
	0x1D,0x28,0x00,0x1F,0x26,0x7F,0x1D,0x26,
	0x00,0x1F,0x24,0x7F,0x1D,0x24,0x00,0x01,
	0x24,0x7F,0x1D,0x24,0x00,0x01,0x24,0x7F,
	0x1D,0x24,0x00,0x01,0x24,0x7F,0x1D,0x24,
	0x00,0x01,0x24,0x7F,0x1D,0x24,0x00,0x01,
	0x24,0x7F,0x1D,0x24,0x00,0x01,0x24,0x7F,
	0x1D,0x24,0x00,0x01,0x24,0x7F,0x1D,0x24,
	0x00,0x01,0x24,0x7F,0x1D,0x24,0x00,0x1F,
	0x28,0x7F,0x1D,0x28,0x00,0x1F,0x26,0x7F,
	0x1D,0x26,0x00,0x1F,0x24,0x7F,0x1D,0x24,
	0x00,0x1F,0x26,0x7F,0x1D,0x26,0x00,0x1F,
	0x26,0x7F,0x1D,0x26,0x00,0x01,0x26,0x7F,
	0x1D,0x26,0x00,0x01,0x26,0x7F,0x1D,0x26,
	0x00,0x01,0x26,0x7F,0x1D,0x26,0x00,0x01,
	0x26,0x7F,0x1D,0x26,0x00,0x01,0x26,0x7F,
	0x1D,0x26,0x00,0x01,0x26,0x7F,0x1D,0x26,
	0x00,0x1F,0x21,0x7F,0x1D,0x21,0x00,0x1F,
	0x23,0x7F,0x1D,0x23,0x00,0x1F,0x26,0x7F,
	0x1D,0x26,0x00,0x1F,0x26,0x7F,0x1D,0x26,
	0x00,0x01,0x26,0x7F,0x1D,0x26,0x00,0x01,
	0x26,0x7F,0x1D,0x26,0x00,0x01,0x26,0x7F,
	0x1D,0x26,0x00,0x01,0x26,0x7F,0x1D,0x26,
	0x00,0x01,0x26,0x7F,0x1D,0x26,0x00,0x01,
	0x26,0x7F,0x1D,0x26,0x00,0x01,0x26,0x7F,
	0x1D,0x26,0x00,0x01,0x26,0x7F,0x1D,0x26,
	0x00,0x1F,0x2A,0x7F,0x1D,0x2A,0x00,0x1F,
	0x28,0x7F,0x1D,0x28,0x00,0x1F,0x26,0x7F,
	0x1D,0x26,0x00,0x1F,0x26,0x7F,0x1D,0x26,
	0x00,0x1F,0x26,0x7F,0x1D,0x26,0x00,0x01,
	0x26,0x7F,0x1D,0x26,0x00,0x01,0x26,0x7F,
	0x1D,0x26,0x00,0x01,0x26,0x7F,0x1D,0x26,
	0x00,0x01,0x26,0x7F,0x1D,0x26,0x00,0x01,
	0x26,0x7F,0x1D,0x26,0x00,0x01,0x26,0x7F,
	0x1D,0x26,0x00,0x1F,0x1F,0x7F,0x1D,0x1F,
	0x00,0x1F,0x21,0x7F,0x1D,0x21,0x00,0x1F,
	0x26,0x7F,0x1D,0x26,0x00,0x1F,0x24,0x7F,
	0x1D,0x24,0x00,0x01,0x24,0x7F,0x1D,0x24,
	0x00,0x01,0x24,0x7F,0x1D,0x24,0x00,0x01,
	0x24,0x7F,0x1D,0x24,0x00,0x01,0x24,0x7F,
	0x1D,0x24,0x00,0x01,0x24,0x7F,0x1D,0x24,
	0x00,0x01,0x24,0x7F,0x1D,0x24,0x00,0x01,
	0x24,0x7F,0x1D,0x24,0x00,0x01,0x24,0x7F,
	0x1D,0x24,0x00,0x1F,0x28,0x7F,0x1D,0x28,
	0x00,0x1F,0x26,0x7F,0x1D,0x26,0x00,0x1F,
	0x24,0x7F,0x1D,0x24,0x00,0x1F,0x26,0x7F,
	0x1D,0x26,0x00,0x1F,0x26,0x7F,0x1D,0x26,
	0x00,0x01,0x26,0x7F,0x1D,0x26,0x00,0x01,
	0x26,0x7F,0x1D,0x26,0x00,0x01,0x26,0x7F,
	0x1D,0x26,0x00,0x01,0x26,0x7F,0x1D,0x26,
	0x00,0x01,0x26,0x7F,0x1D,0x26,0x00,0x01,
	0x26,0x7F,0x1D,0x26,0x00,0x1F,0x1F,0x7F,
	0x1D,0x1F,0x00,0x1F,0x21,0x7F,0x1D,0x21,
	0x00,0x1F,0x26,0x7F,0x1D,0x26,0x00,0x1F,
	0x24,0x7F,0x1D,0x24,0x00,0x01,0x24,0x7F,
	0x1D,0x24,0x00,0x01,0x24,0x7F,0x1D,0x24,
	0x00,0x01,0x24,0x7F,0x1D,0x24,0x00,0x01,
	0x24,0x7F,0x1D,0x24,0x00,0x01,0x24,0x7F,
	0x1D,0x24,0x00,0x01,0x24,0x7F,0x1D,0x24,
	0x00,0x01,0x24,0x7F,0x1D,0x24,0x00,0x01,
	0x24,0x7F,0x1D,0x24,0x00,0x1F,0x28,0x7F,
	0x1D,0x28,0x00,0x1F,0x26,0x7F,0x1D,0x26,
	0x00,0x1F,0x24,0x7F,0x1D,0x24,0x00,0x1F,
	0x22,0x7F,0x1D,0x22,0x00,0x1F,0x22,0x7F,
	0x1D,0x22,0x00,0x01,0x22,0x7F,0x1D,0x22,
	0x00,0x01,0x22,0x7F,0x1D,0x22,0x00,0x01,
	0x22,0x7F,0x1D,0x22,0x00,0x01,0x22,0x7F,
	0x1D,0x22,0x00,0x01,0x22,0x7F,0x1D,0x22,
	0x00,0x01,0x22,0x7F,0x1D,0x22,0x00,0x1F,
	0x29,0x7F,0x1D,0x29,0x00,0x1F,0x28,0x7F,
	0x1D,0x28,0x00,0x1F,0x26,0x7F,0x1D,0x26,
	0x00,0x1F,0x24,0x7F,0x1D,0x24,0x00,0x01,
	0x24,0x7F,0x1D,0x24,0x00,0x01,0x24,0x7F,
	0x1D,0x24,0x00,0x01,0x24,0x7F,0x1D,0x24,
	0x00,0x01,0x24,0x7F,0x1D,0x24,0x00,0x01,
	0x24,0x7F,0x1D,0x24,0x00,0x01,0x24,0x7F,
	0x1D,0x24,0x00,0x01,0x24,0x7F,0x1D,0x24,
	0x00,0x01,0x24,0x7F,0x1D,0x24,0x00,0x1F,
	0x28,0x7F,0x1D,0x28,0x00,0x1F,0x26,0x7F,
	0x1D,0x26,0x00,0x1F,0x24,0x7F,0x1D,0x24,
	0x00,0x1F,0x26,0x7F,0x1D,0x26,0x00,0x1F,
	0x26,0x7F,0x1D,0x26,0x00,0x01,0x26,0x7F,
	0x1D,0x26,0x00,0x01,0x26,0x7F,0x1D,0x26,
	0x00,0x01,0x26,0x7F,0x1D,0x26,0x00,0x01,
	0x26,0x7F,0x1D,0x26,0x00,0x01,0x26,0x7F,
	0x1D,0x26,0x00,0x01,0x26,0x7F,0x1D,0x26,
	0x00,0x1F,0x21,0x7F,0x1D,0x21,0x00,0x1F,
	0x23,0x7F,0x1D,0x23,0x00,0x1F,0x26,0x7F,
	0x1D,0x26,0x00,0x1F,0x28,0x7F,0x1D,0x28,
	0x00,0x1F,0x28,0x7F,0x1D,0x28,0x00,0x01,
	0x28,0x7F,0x1D,0x28,0x00,0x01,0x2A,0x7F,
	0x1D,0x2A,0x00,0x1F,0x2A,0x7F,0x1D,0x2A,
	0x00,0x01,0x2A,0x7F,0x1D,0x2A,0x00,0x01,
	0x2B,0x7F,0x1D,0x2B,0x00,0x1F,0x2B,0x7F,
	0x1D,0x2B,0x00,0x1F,0x2D,0x7F,0x09,0x2D,
	0x00,0x01,0x2F,0x7F,0x09,0x2F,0x00,0x01,
	0x31,0x7F,0x09,0x31,0x00,0x01,0x32,0x7F,
	0x09,0x32,0x00,0x01,0x34,0x7F,0x09,0x34,
	0x00,0x01,0x36,0x7F,0x09,0x36,0x00,0x01,
	0x37,0x7F,0x09,0x37,0x00,0x01,0x39,0x7F,
	0x09,0x39,0x00,0x01,0x3B,0x7F,0x09,0x3B,
	0x00,0x01,0x3D,0x7F,0x09,0x3D,0x00,0x01,
	0x3E,0x7F,0x09,0x3E,0x00,0x01,0x40,0x7F,
	0x09,0x40,0x00,0x00,0xFF,0x2F,0x00,0x4D,
	0x54,0x72,0x6B,0x00,0x00,0x01,0xA5,0x00,
	0xB2,0x00,0x7C,0x00,0x07,0x55,0x00,0x0A,
	0x59,0x01,0x20,0x00,0x01,0xC2,0x14,0x81,
	0x6E,0x92,0x4E,0x63,0x00,0x45,0x5D,0x20,
	0x45,0x00,0x00,0x4E,0x00,0x3A,0x45,0x5D,
	0x00,0x4E,0x61,0x1A,0x45,0x00,0x02,0x4E,
	0x00,0x82,0x6A,0x43,0x5B,0x00,0x4C,0x63,
	0x21,0x4C,0x00,0x04,0x43,0x00,0x35,0x43,
	0x5A,0x00,0x4C,0x62,0x1D,0x4C,0x00,0x03,
	0x43,0x00,0x82,0x66,0x45,0x5D,0x00,0x4E,
	0x60,0x1C,0x4E,0x00,0x00,0x45,0x00,0x3E,
	0x4E,0x5E,0x00,0x45,0x5E,0x1D,0x45,0x00,
	0x01,0x4E,0x00,0x82,0x68,0x48,0x62,0x00,
	0x4F,0x62,0x1C,0x48,0x00,0x04,0x4F,0x00,
	0x3A,0x48,0x5F,0x00,0x4F,0x62,0x18,0x48,
	0x00,0x08,0x4F,0x00,0x82,0x66,0x4D,0x5E,
	0x00,0x46,0x5D,0x20,0x46,0x00,0x01,0x4D,
	0x00,0x39,0x46,0x5A,0x00,0x4D,0x63,0x1D,
	0x46,0x00,0x04,0x4D,0x00,0x82,0x65,0x4C,
	0x62,0x00,0x43,0x60,0x20,0x4C,0x00,0x02,
	0x43,0x00,0x38,0x43,0x5C,0x00,0x4C,0x61,
	0x1E,0x4C,0x00,0x01,0x43,0x00,0x82,0x67,
	0x4E,0x5A,0x00,0x45,0x60,0x22,0x45,0x00,
	0x00,0x4E,0x00,0x38,0x4E,0x61,0x00,0x45,
	0x5E,0x1B,0x45,0x00,0x06,0x4E,0x00,0x82,
	0x65,0x45,0x5D,0x00,0x4E,0x63,0x1F,0x4E,
	0x00,0x00,0x45,0x00,0x3B,0x4E,0x61,0x00,
	0x45,0x5A,0x1E,0x45,0x00,0x06,0x4E,0x00,
	0x82,0x62,0x4E,0x63,0x00,0x45,0x5D,0x20,
	0x45,0x00,0x00,0x4E,0x00,0x3A,0x45,0x5D,
	0x00,0x4E,0x61,0x1A,0x45,0x00,0x02,0x4E,
	0x00,0x82,0x6A,0x43,0x5B,0x00,0x4C,0x63,
	0x21,0x4C,0x00,0x04,0x43,0x00,0x35,0x43,
	0x5A,0x00,0x4C,0x62,0x1D,0x4C,0x00,0x03,
	0x43,0x00,0x82,0x66,0x45,0x5D,0x00,0x4E,
	0x60,0x1C,0x4E,0x00,0x00,0x45,0x00,0x3E,
	0x4E,0x5E,0x00,0x45,0x5E,0x1D,0x45,0x00,
	0x01,0x4E,0x00,0x82,0x68,0x48,0x62,0x00,
	0x4F,0x62,0x1C,0x48,0x00,0x04,0x4F,0x00,
	0x3A,0x48,0x5F,0x00,0x4F,0x62,0x18,0x48,
	0x00,0x08,0x4F,0x00,0x82,0x66,0x4D,0x5E,
	0x00,0x46,0x5D,0x20,0x46,0x00,0x01,0x4D,
	0x00,0x39,0x46,0x5A,0x00,0x4D,0x63,0x1D,
	0x46,0x00,0x04,0x4D,0x00,0x82,0x65,0x4C,
	0x62,0x00,0x43,0x60,0x20,0x4C,0x00,0x02,
	0x43,0x00,0x38,0x43,0x5C,0x00,0x4C,0x61,
	0x1E,0x4C,0x00,0x01,0x43,0x00,0x82,0x67,
	0x4E,0x5A,0x00,0x45,0x60,0x22,0x45,0x00,
	0x00,0x4E,0x00,0x38,0x4E,0x61,0x00,0x45,
	0x5E,0x1B,0x45,0x00,0x06,0x4E,0x00,0x82,
	0x65,0x45,0x5D,0x00,0x4E,0x63,0x1F,0x4E,
	0x00,0x00,0x45,0x00,0x3B,0x4E,0x61,0x00,
	0x45,0x5A,0x1E,0x45,0x00,0x06,0x4E,0x00,
	0x00,0xFF,0x2F,0x00,0x4D,0x54,0x72,0x6B,
	0x00,0x00,0x03,0x6A,0x00,0xB3,0x00,0x7C,
	0x00,0x20,0x00,0x00,0xC3,0x08,0x00,0xB3,
	0x07,0x4B,0x00,0x0A,0x1B,0x00,0x93,0x4F,
	0x5E,0x00,0x4A,0x57,0x22,0x4A,0x00,0x03,
	0x4F,0x00,0x17,0x4E,0x5C,0x24,0x4E,0x00,
	0x18,0x4C,0x5C,0x1F,0x4C,0x00,0x1D,0x4A,
	0x5B,0x19,0x4A,0x00,0x23,0x4A,0x56,0x00,
	0x4F,0x5B,0x20,0x4F,0x00,0x04,0x4A,0x00,
	0x18,0x4E,0x5F,0x24,0x4E,0x00,0x18,0x4C,
	0x5E,0x22,0x4C,0x00,0x1A,0x4A,0x5F,0x25,
	0x4A,0x00,0x17,0x4F,0x62,0x24,0x4F,0x00,
	0x18,0x4E,0x58,0x23,0x4E,0x00,0x19,0x4C,
	0x5B,0x1E,0x4C,0x00,0x1E,0x4F,0x63,0x23,
	0x4F,0x00,0x19,0x4E,0x5E,0x24,0x4E,0x00,
	0x18,0x4C,0x61,0x22,0x4C,0x00,0x1A,0x4A,
	0x59,0x26,0x4A,0x00,0x16,0x4C,0x5B,0x1B,
	0x4C,0x00,0x21,0x4A,0x60,0x00,0x4F,0x5B,
	0x1D,0x4F,0x00,0x07,0x4A,0x00,0x18,0x4E,
	0x59,0x00,0x4A,0x41,0x0C,0x4A,0x00,0x12,
	0x4E,0x00,0x1E,0x4C,0x59,0x1E,0x4C,0x00,
	0x1E,0x4A,0x57,0x1D,0x4A,0x00,0x1F,0x4F,
	0x5E,0x00,0x4A,0x5A,0x1E,0x4F,0x00,0x04,
	0x4A,0x00,0x1A,0x4E,0x5B,0x24,0x4E,0x00,
	0x18,0x4C,0x5C,0x23,0x4C,0x00,0x19,0x4A,
	0x5B,0x21,0x4A,0x00,0x1B,0x4F,0x65,0x23,
	0x4F,0x00,0x19,0x4E,0x5B,0x22,0x4E,0x00,
	0x1A,0x4C,0x5A,0x1F,0x4C,0x00,0x1D,0x4F,
	0x64,0x21,0x4F,0x00,0x1B,0x4E,0x60,0x21,
	0x4E,0x00,0x1B,0x4C,0x5C,0x21,0x4C,0x00,
	0x1B,0x4A,0x5F,0x23,0x4A,0x00,0x19,0x4C,
	0x63,0x1B,0x4C,0x00,0x21,0x4D,0x6A,0x1C,
	0x4D,0x00,0x20,0x4C,0x63,0x1B,0x4C,0x00,
	0x21,0x4A,0x5C,0x20,0x4A,0x00,0x1C,0x4D,
	0x69,0x19,0x4D,0x00,0x23,0x4C,0x60,0x18,
	0x4C,0x00,0x24,0x4A,0x5B,0x22,0x4A,0x00,
	0x1A,0x4D,0x6B,0x20,0x4D,0x00,0x1C,0x4C,
	0x5C,0x1A,0x4C,0x00,0x22,0x4F,0x5E,0x21,
	0x4F,0x00,0x1B,0x4D,0x6B,0x22,0x4D,0x00,
	0x1A,0x4C,0x61,0x1B,0x4C,0x00,0x21,0x4F,
	0x5F,0x20,0x4F,0x00,0x1C,0x4D,0x6A,0x22,
	0x4D,0x00,0x1A,0x4C,0x5F,0x1D,0x4C,0x00,
	0x1F,0x4F,0x5B,0x1E,0x4F,0x00,0x1E,0x4D,
	0x6B,0x1B,0x4D,0x00,0x21,0x4F,0x5B,0x26,
	0x4F,0x00,0x16,0x4E,0x65,0x20,0x4E,0x00,
	0x1C,0x4C,0x61,0x1F,0x4C,0x00,0x1D,0x4A,
	0x5F,0x26,0x4A,0x00,0x16,0x4C,0x5F,0x1F,
	0x4C,0x00,0x1D,0x4E,0x5C,0x1E,0x4E,0x00,
	0x1E,0x4F,0x60,0x23,0x4F,0x00,0x19,0x4E,
	0x62,0x1E,0x4E,0x00,0x1E,0x4F,0x63,0x24,
	0x4F,0x00,0x18,0x4E,0x64,0x20,0x4E,0x00,
	0x1C,0x4C,0x61,0x1C,0x4C,0x00,0x20,0x4A,
	0x5E,0x26,0x4A,0x00,0x16,0x4C,0x5C,0x20,
	0x4C,0x00,0x1C,0x4E,0x5E,0x20,0x4E,0x00,
	0x1C,0x4F,0x5C,0x24,0x4F,0x00,0x18,0x4E,
	0x5E,0x1A,0x4E,0x00,0x22,0x4A,0x63,0x00,
	0x4F,0x60,0x24,0x4F,0x00,0x02,0x4A,0x00,
	0x16,0x4E,0x5C,0x25,0x4E,0x00,0x17,0x4C,
	0x59,0x20,0x4C,0x00,0x1C,0x4A,0x5E,0x1E,
	0x4A,0x00,0x1E,0x4A,0x59,0x00,0x4F,0x5F,
	0x20,0x4F,0x00,0x07,0x4A,0x00,0x15,0x4E,
	0x5E,0x27,0x4E,0x00,0x15,0x4C,0x5C,0x1F,
	0x4C,0x00,0x1D,0x4A,0x59,0x22,0x4A,0x00,
	0x1A,0x4F,0x62,0x24,0x4F,0x00,0x18,0x4E,
	0x57,0x2A,0x4E,0x00,0x12,0x4C,0x60,0x1D,
	0x4C,0x00,0x1F,0x4E,0x5F,0x22,0x4E,0x00,
	0x1A,0x4F,0x5A,0x25,0x4F,0x00,0x17,0x4E,
	0x5A,0x2B,0x4E,0x00,0x11,0x4C,0x5C,0x21,
	0x4C,0x00,0x1B,0x4A,0x59,0x22,0x4A,0x00,
	0x1A,0x4A,0x5C,0x00,0x4F,0x64,0x26,0x4A,
	0x00,0x01,0x4F,0x00,0x15,0x4E,0x5A,0x2A,
	0x4E,0x00,0x12,0x4C,0x5C,0x23,0x4C,0x00,
	0x19,0x4A,0x5B,0x23,0x4A,0x00,0x19,0x4A,
	0x55,0x00,0x4F,0x63,0x20,0x4A,0x00,0x02,
	0x4F,0x00,0x1A,0x4E,0x61,0x2A,0x4E,0x00,
	0x12,0x4C,0x63,0x25,0x4C,0x00,0x17,0x4A,
	0x5C,0x20,0x4A,0x00,0x1C,0x4F,0x62,0x28,
	0x4F,0x00,0x14,0x4E,0x5B,0x2C,0x4E,0x00,
	0x10,0x4C,0x60,0x1F,0x4C,0x00,0x1D,0x4E,
	0x63,0x25,0x4E,0x00,0x17,0x4F,0x62,0x25,
	0x4F,0x00,0x17,0x4E,0x60,0x28,0x4E,0x00,
	0x14,0x4C,0x60,0x1D,0x4C,0x00,0x1F,0x4E,
	0x55,0x19,0x4E,0x00,0x23,0x4D,0x6B,0x27,
	0x4D,0x00,0x15,0x4C,0x5C,0x28,0x4C,0x00,
	0x14,0x4A,0x62,0x24,0x4A,0x00,0x18,0x4C,
	0x64,0x1D,0x4C,0x00,0x1F,0x4D,0x6B,0x20,
	0x4D,0x00,0x1C,0x4C,0x63,0x1D,0x4C,0x00,
	0x1F,0x4A,0x5F,0x2D,0x4A,0x00,0x0F,0x4D,
	0x6B,0x1C,0x4D,0x00,0x20,0x4C,0x61,0x23,
	0x4C,0x00,0x19,0x4D,0x62,0x25,0x4D,0x00,
	0x17,0x4F,0x5F,0x27,0x4F,0x00,0x15,0x4C,
	0x66,0x1D,0x4C,0x00,0x1F,0x4D,0x6B,0x1C,
	0x4D,0x00,0x20,0x4F,0x5B,0x27,0x4F,0x00,
	0x15,0x4D,0x65,0x23,0x4D,0x00,0x19,0x4C,
	0x62,0x1A,0x4C,0x00,0x22,0x4F,0x61,0x2A,
	0x4F,0x00,0x12,0x4E,0x61,0x22,0x4E,0x00,
	0x1A,0x4C,0x5E,0x21,0x4C,0x00,0x1B,0x4A,
	0x61,0x00,0x4F,0x62,0x23,0x4F,0x00,0x03,
	0x4A,0x00,0x16,0x4E,0x61,0x28,0x4E,0x00,
	0x14,0x4C,0x5F,0x1E,0x4C,0x00,0x1E,0x4A,
	0x5F,0x00,0x4F,0x63,0x24,0x4F,0x00,0x02,
	0x4A,0x00,0x16,0x4E,0x62,0x1F,0x4E,0x00,
	0x1D,0x4A,0x5F,0x00,0x4F,0x5B,0x24,0x4F,
	0x00,0x00,0x4A,0x00,0x18,0x4E,0x5C,0x2A,
	0x4E,0x00,0x12,0x4C,0x57,0x2B,0x4C,0x00,
	0x11,0x4A,0x5C,0x00,0x4F,0x5B,0x19,0x4F,
	0x00,0x0B,0x4A,0x00,0x18,0x4F,0x62,0x1E,
	0x4A,0x45,0x08,0x4A,0x00,0x07,0x4F,0x00,
	0x0F,0x4E,0x63,0x33,0x4E,0x00,0x09,0x4C,
	0x62,0x29,0x4C,0x00,0x13,0x4A,0x61,0x1C,
	0x4A,0x00,0x00,0xFF,0x2F,0x00,0x4D,0x54,
	0x72,0x6B,0x00,0x00,0x00,0xDF,0x00,0xB4,
	0x00,0x7C,0x00,0x20,0x00,0x00,0xC4,0x50,
	0x00,0xB4,0x07,0x50,0x00,0x0A,0x66,0x00,
	0x94,0x4A,0x78,0x20,0x4A,0x00,0x85,0x6C,
	0x4F,0x77,0x22,0x4F,0x00,0x1A,0x4E,0x73,
	0x1F,0x4E,0x00,0x1D,0x4C,0x75,0x1B,0x4C,
	0x00,0x21,0x4E,0x78,0x1E,0x4E,0x00,0x85,
	0x6E,0x4C,0x74,0x1D,0x4C,0x00,0x1F,0x4E,
	0x6F,0x1C,0x4E,0x00,0x20,0x4F,0x73,0x23,
	0x4F,0x00,0x19,0x51,0x7A,0x2C,0x51,0x00,
	0x81,0x44,0x4A,0x78,0x32,0x4A,0x00,0x46,
	0x51,0x78,0x29,0x51,0x00,0x13,0x4F,0x7F,
	0x2F,0x4F,0x00,0x81,0x7D,0x4F,0x72,0x2D,
	0x4F,0x00,0x4B,0x48,0x7F,0x15,0x48,0x00,
	0x27,0x4A,0x7A,0x4A,0x4A,0x00,0x85,0x7E,
	0x43,0x6F,0x31,0x43,0x00,0x0B,0x45,0x6E,
	0x2F,0x45,0x00,0x0D,0x4A,0x6B,0x2A,0x4A,
	0x00,0x12,0x4A,0x6E,0x35,0x4A,0x00,0x85,
	0x57,0x4C,0x77,0x2A,0x4C,0x00,0x12,0x4E,
	0x6A,0x24,0x4E,0x00,0x18,0x4F,0x73,0x27,
	0x4F,0x00,0x15,0x4E,0x7D,0x27,0x4E,0x00,
	0x85,0x65,0x4C,0x75,0x20,0x4C,0x00,0x1C,
	0x4E,0x77,0x1B,0x4E,0x00,0x21,0x4F,0x76,
	0x25,0x4F,0x00,0x17,0x51,0x79,0x35,0x51,
	0x00,0x81,0x3B,0x4A,0x73,0x3E,0x4A,0x00,
	0x76,0x4F,0x7D,0x49,0x4F,0x00,0x81,0x63,
	0x4F,0x7A,0x60,0x4F,0x00,0x18,0x50,0x7F,
	0x1D,0x50,0x00,0x1F,0x51,0x7A,0x46,0x51,
	0x00,0x00,0xFF,0x2F,0x00,0x4D,0x54,0x72,
	0x6B,0x00,0x00,0x07,0x18,0x00,0xB9,0x00,
	0x7D,0x00,0x20,0x00,0x00,0xC9,0x18,0x00,
	0xB9,0x07,0x6E,0x00,0x0A,0x40,0x00,0x99,
	0x3D,0x75,0x00,0x50,0x57,0x00,0x24,0x7F,
	0x09,0x24,0x00,0x0C,0x50,0x00,0x0C,0x3D,
	0x00,0x1B,0x24,0x7F,0x09,0x24,0x00,0x33,
	0x51,0x4E,0x00,0x26,0x7F,0x09,0x26,0x00,
	0x22,0x51,0x00,0x11,0x3D,0x73,0x1E,0x26,
	0x57,0x08,0x3D,0x00,0x01,0x26,0x00,0x15,
	0x24,0x7F,0x09,0x24,0x00,0x15,0x26,0x57,
	0x09,0x26,0x00,0x15,0x24,0x7F,0x09,0x24,
	0x00,0x33,0x26,0x7F,0x09,0x26,0x00,0x6F,
	0x3D,0x74,0x00,0x24,0x7F,0x09,0x24,0x00,
	0x19,0x3D,0x00,0x1A,0x24,0x7F,0x09,0x24,
	0x00,0x33,0x50,0x51,0x00,0x26,0x7F,0x09,
	0x26,0x00,0x0E,0x50,0x00,0x25,0x3D,0x6F,
	0x00,0x50,0x47,0x14,0x50,0x00,0x02,0x3D,
	0x00,0x08,0x26,0x57,0x09,0x26,0x00,0x15,
	0x3F,0x74,0x00,0x51,0x51,0x00,0x24,0x7F,
	0x09,0x24,0x00,0x0F,0x3F,0x00,0x06,0x26,
	0x57,0x09,0x26,0x00,0x15,0x3F,0x70,0x00,
	0x24,0x7F,0x09,0x24,0x00,0x0F,0x3F,0x00,
	0x24,0x26,0x7F,0x09,0x26,0x00,0x3E,0x51,
	0x00,0x13,0x26,0x57,0x09,0x26,0x00,0x15,
	0x3D,0x73,0x00,0x50,0x51,0x00,0x24,0x7F,
	0x09,0x24,0x00,0x11,0x50,0x00,0x0B,0x3D,
	0x00,0x17,0x24,0x7F,0x09,0x24,0x00,0x33,
	0x51,0x50,0x00,0x26,0x7F,0x09,0x26,0x00,
	0x1C,0x51,0x00,0x17,0x3D,0x73,0x1B,0x3D,
	0x00,0x03,0x26,0x57,0x09,0x26,0x00,0x15,
	0x24,0x7F,0x09,0x24,0x00,0x15,0x26,0x57,
	0x09,0x26,0x00,0x15,0x24,0x7F,0x09,0x24,
	0x00,0x33,0x26,0x7F,0x09,0x26,0x00,0x33,
	0x3D,0x74,0x1E,0x3D,0x00,0x1E,0x3D,0x6B,
	0x00,0x24,0x7F,0x09,0x24,0x00,0x15,0x3D,
	0x00,0x1E,0x24,0x7F,0x09,0x24,0x00,0x33,
	0x50,0x4E,0x00,0x26,0x7F,0x09,0x26,0x00,
	0x0E,0x50,0x00,0x25,0x3D,0x6D,0x00,0x50,
	0x50,0x12,0x3D,0x00,0x02,0x50,0x00,0x0A,
	0x26,0x57,0x09,0x26,0x00,0x15,0x3F,0x74,
	0x00,0x51,0x52,0x00,0x24,0x7F,0x09,0x24,
	0x00,0x0F,0x3F,0x00,0x06,0x26,0x57,0x09,
	0x26,0x00,0x15,0x3F,0x70,0x00,0x24,0x7F,
	0x09,0x24,0x00,0x05,0x51,0x00,0x0A,0x3F,
	0x00,0x24,0x26,0x7F,0x09,0x26,0x00,0x33,
	0x51,0x4E,0x18,0x51,0x00,0x06,0x26,0x57,
	0x09,0x26,0x00,0x15,0x3D,0x75,0x00,0x50,
	0x57,0x00,0x24,0x7F,0x09,0x24,0x00,0x0C,
	0x50,0x00,0x0C,0x3D,0x00,0x1B,0x24,0x7F,
	0x09,0x24,0x00,0x33,0x51,0x4E,0x00,0x26,
	0x7F,0x09,0x26,0x00,0x22,0x51,0x00,0x11,
	0x3D,0x73,0x1E,0x26,0x57,0x08,0x3D,0x00,
	0x01,0x26,0x00,0x15,0x24,0x7F,0x09,0x24,
	0x00,0x15,0x26,0x57,0x09,0x26,0x00,0x15,
	0x24,0x7F,0x09,0x24,0x00,0x33,0x26,0x7F,
	0x09,0x26,0x00,0x6F,0x3D,0x74,0x00,0x24,
	0x7F,0x09,0x24,0x00,0x19,0x3D,0x00,0x1A,
	0x24,0x7F,0x09,0x24,0x00,0x33,0x50,0x51,
	0x00,0x26,0x7F,0x09,0x26,0x00,0x0E,0x50,
	0x00,0x25,0x3D,0x6F,0x00,0x50,0x47,0x14,
	0x50,0x00,0x02,0x3D,0x00,0x08,0x26,0x57,
	0x09,0x26,0x00,0x15,0x3F,0x74,0x00,0x51,
	0x51,0x00,0x24,0x7F,0x09,0x24,0x00,0x0F,
	0x3F,0x00,0x06,0x26,0x57,0x09,0x26,0x00,
	0x15,0x3F,0x70,0x00,0x24,0x7F,0x09,0x24,
	0x00,0x0F,0x3F,0x00,0x24,0x26,0x7F,0x09,
	0x26,0x00,0x3E,0x51,0x00,0x13,0x26,0x57,
	0x09,0x26,0x00,0x15,0x3D,0x73,0x00,0x50,
	0x51,0x00,0x24,0x7F,0x09,0x24,0x00,0x11,
	0x50,0x00,0x0B,0x3D,0x00,0x17,0x24,0x7F,
	0x09,0x24,0x00,0x33,0x51,0x50,0x00,0x26,
	0x7F,0x09,0x26,0x00,0x1C,0x51,0x00,0x17,
	0x3D,0x73,0x1B,0x3D,0x00,0x03,0x26,0x57,
	0x09,0x26,0x00,0x15,0x24,0x7F,0x09,0x24,
	0x00,0x15,0x26,0x57,0x09,0x26,0x00,0x15,
	0x24,0x7F,0x09,0x24,0x00,0x33,0x26,0x7F,
	0x09,0x26,0x00,0x33,0x3D,0x74,0x1E,0x3D,
	0x00,0x1E,0x3D,0x6B,0x00,0x24,0x7F,0x09,
	0x24,0x00,0x15,0x3D,0x00,0x1E,0x24,0x7F,
	0x09,0x24,0x00,0x33,0x50,0x4E,0x00,0x26,
	0x7F,0x09,0x26,0x00,0x0E,0x50,0x00,0x25,
	0x3D,0x6D,0x00,0x50,0x50,0x12,0x3D,0x00,
	0x02,0x50,0x00,0x0A,0x26,0x57,0x09,0x26,
	0x00,0x15,0x3F,0x74,0x00,0x51,0x52,0x00,
	0x26,0x7F,0x09,0x26,0x00,0x0F,0x3F,0x00,
	0x06,0x3F,0x74,0x18,0x3F,0x00,0x06,0x3F,
	0x70,0x00,0x24,0x7F,0x00,0x2A,0x61,0x09,
	0x24,0x00,0x05,0x51,0x00,0x0A,0x3F,0x00,
	0x06,0x2A,0x00,0x00,0x2A,0x61,0x1E,0x2A,
	0x00,0x00,0x26,0x7F,0x00,0x2A,0x61,0x09,
	0x26,0x00,0x15,0x2A,0x00,0x1E,0x51,0x4E,
	0x00,0x24,0x7F,0x09,0x24,0x00,0x0F,0x51,
	0x00,0x06,0x26,0x7F,0x09,0x26,0x00,0x15,
	0x3D,0x75,0x00,0x24,0x7F,0x00,0x50,0x57,
	0x00,0x2A,0x61,0x09,0x24,0x00,0x0C,0x50,
	0x00,0x09,0x2A,0x00,0x03,0x3D,0x00,0x1B,
	0x2A,0x61,0x00,0x24,0x7F,0x09,0x24,0x00,
	0x15,0x2A,0x00,0x1E,0x26,0x7F,0x00,0x51,
	0x4E,0x00,0x2A,0x61,0x09,0x26,0x00,0x15,
	0x2A,0x00,0x0D,0x51,0x00,0x11,0x2A,0x61,
	0x00,0x3D,0x73,0x1E,0x2A,0x00,0x00,0x26,
	0x57,0x08,0x3D,0x00,0x01,0x26,0x00,0x15,
	0x2A,0x61,0x00,0x24,0x7F,0x09,0x24,0x00,
	0x15,0x2A,0x00,0x00,0x26,0x57,0x09,0x26,
	0x00,0x15,0x2A,0x61,0x00,0x24,0x7F,0x09,
	0x24,0x00,0x15,0x2A,0x00,0x1E,0x26,0x7F,
	0x00,0x2A,0x61,0x09,0x26,0x00,0x15,0x2A,
	0x00,0x1E,0x2A,0x61,0x1E,0x2A,0x00,0x1E,
	0x2A,0x61,0x00,0x3D,0x74,0x00,0x24,0x7F,
	0x09,0x24,0x00,0x15,0x2A,0x00,0x04,0x3D,
	0x00,0x1A,0x24,0x7F,0x00,0x2A,0x61,0x09,
	0x24,0x00,0x15,0x2A,0x00,0x1E,0x2A,0x61,
	0x00,0x50,0x51,0x00,0x26,0x7F,0x09,0x26,
	0x00,0x0E,0x50,0x00,0x07,0x2A,0x00,0x1E,
	0x3D,0x6F,0x00,0x50,0x47,0x00,0x2A,0x61,
	0x14,0x50,0x00,0x02,0x3D,0x00,0x08,0x2A,
	0x00,0x00,0x26,0x57,0x09,0x26,0x00,0x15,
	0x3F,0x74,0x00,0x24,0x7F,0x00,0x51,0x51,
	0x09,0x24,0x00,0x0F,0x3F,0x00,0x06,0x26,
	0x57,0x09,0x26,0x00,0x15,0x2A,0x61,0x00,
	0x24,0x7F,0x00,0x3F,0x70,0x09,0x24,0x00,
	0x0F,0x3F,0x00,0x06,0x2A,0x00,0x1E,0x2A,
	0x61,0x00,0x26,0x7F,0x09,0x26,0x00,0x15,
	0x2A,0x00,0x1E,0x2A,0x61,0x0B,0x51,0x00,
	0x13,0x2A,0x00,0x00,0x26,0x57,0x09,0x26,
	0x00,0x15,0x2A,0x61,0x00,0x3D,0x73,0x00,
	0x50,0x51,0x00,0x24,0x7F,0x09,0x24,0x00,
	0x11,0x50,0x00,0x04,0x2A,0x00,0x07,0x3D,
	0x00,0x17,0x2A,0x61,0x00,0x24,0x7F,0x09,
	0x24,0x00,0x15,0x2A,0x00,0x1E,0x2A,0x61,
	0x00,0x51,0x50,0x00,0x26,0x7F,0x09,0x26,
	0x00,0x15,0x2A,0x00,0x07,0x51,0x00,0x17,
	0x3D,0x73,0x00,0x2A,0x61,0x1B,0x3D,0x00,
	0x03,0x2A,0x00,0x00,0x26,0x57,0x09,0x26,
	0x00,0x15,0x24,0x7F,0x00,0x2A,0x61,0x09,
	0x24,0x00,0x15,0x2A,0x00,0x00,0x26,0x57,
	0x09,0x26,0x00,0x15,0x2A,0x61,0x00,0x24,
	0x7F,0x09,0x24,0x00,0x15,0x2A,0x00,0x1E,
	0x26,0x7F,0x00,0x2A,0x61,0x09,0x26,0x00,
	0x15,0x2A,0x00,0x1E,0x3D,0x74,0x00,0x2A,
	0x61,0x1E,0x2A,0x00,0x00,0x3D,0x00,0x1E,
	0x3D,0x6B,0x00,0x24,0x7F,0x00,0x2A,0x61,
	0x09,0x24,0x00,0x15,0x2A,0x00,0x00,0x3D,
	0x00,0x1E,0x24,0x7F,0x00,0x2A,0x61,0x09,
	0x24,0x00,0x15,0x2A,0x00,0x1E,0x50,0x4E,
	0x00,0x26,0x7F,0x00,0x2A,0x61,0x09,0x26,
	0x00,0x0E,0x50,0x00,0x07,0x2A,0x00,0x1E,
	0x3D,0x6D,0x00,0x50,0x50,0x00,0x2A,0x61,
	0x12,0x3D,0x00,0x02,0x50,0x00,0x0A,0x2A,
	0x00,0x00,0x26,0x57,0x09,0x26,0x00,0x15,
	0x51,0x52,0x00,0x3F,0x74,0x00,0x24,0x7F,
	0x09,0x24,0x00,0x0F,0x3F,0x00,0x06,0x26,
	0x57,0x09,0x26,0x00,0x15,0x24,0x7F,0x00,
	0x2A,0x61,0x00,0x3F,0x70,0x09,0x24,0x00,
	0x05,0x51,0x00,0x0A,0x3F,0x00,0x06,0x2A,
	0x00,0x1E,0x26,0x7F,0x00,0x2A,0x61,0x09,
	0x26,0x00,0x15,0x2A,0x00,0x1E,0x51,0x4E,
	0x00,0x2A,0x61,0x18,0x51,0x00,0x06,0x2A,
	0x00,0x00,0x26,0x57,0x09,0x26,0x00,0x15,
	0x3D,0x75,0x00,0x50,0x57,0x00,0x24,0x7F,
	0x00,0x2A,0x61,0x09,0x24,0x00,0x0C,0x50,
	0x00,0x09,0x2A,0x00,0x03,0x3D,0x00,0x1B,
	0x2A,0x61,0x00,0x24,0x7F,0x09,0x24,0x00,
	0x15,0x2A,0x00,0x1E,0x51,0x4E,0x00,0x26,
	0x7F,0x00,0x2A,0x61,0x09,0x26,0x00,0x15,
	0x2A,0x00,0x0D,0x51,0x00,0x11,0x2A,0x61,
	0x00,0x3D,0x73,0x1E,0x2A,0x00,0x00,0x26,
	0x57,0x08,0x3D,0x00,0x01,0x26,0x00,0x15,
	0x24,0x7F,0x00,0x2A,0x61,0x09,0x24,0x00,
	0x15,0x2A,0x00,0x00,0x26,0x57,0x09,0x26,
	0x00,0x15,0x2A,0x61,0x00,0x24,0x7F,0x09,
	0x24,0x00,0x15,0x2A,0x00,0x1E,0x2A,0x61,
	0x00,0x26,0x7F,0x09,0x26,0x00,0x15,0x2A,
	0x00,0x1E,0x2A,0x61,0x1E,0x2A,0x00,0x1E,
	0x3D,0x74,0x00,0x24,0x7F,0x00,0x2A,0x61,
	0x09,0x24,0x00,0x15,0x2A,0x00,0x04,0x3D,
	0x00,0x1A,0x2A,0x61,0x00,0x24,0x7F,0x09,
	0x24,0x00,0x15,0x2A,0x00,0x1E,0x50,0x51,
	0x00,0x26,0x7F,0x00,0x2A,0x61,0x09,0x26,
	0x00,0x0E,0x50,0x00,0x07,0x2A,0x00,0x1E,
	0x50,0x47,0x00,0x3D,0x6F,0x00,0x2A,0x61,
	0x14,0x50,0x00,0x02,0x3D,0x00,0x08,0x2A,
	0x00,0x00,0x26,0x57,0x09,0x26,0x00,0x15,
	0x3F,0x74,0x00,0x24,0x7F,0x00,0x51,0x51,
	0x09,0x24,0x00,0x0F,0x3F,0x00,0x06,0x26,
	0x57,0x09,0x26,0x00,0x15,0x2A,0x61,0x00,
	0x3F,0x70,0x00,0x24,0x7F,0x09,0x24,0x00,
	0x0F,0x3F,0x00,0x06,0x2A,0x00,0x1E,0x26,
	0x7F,0x00,0x2A,0x61,0x09,0x26,0x00,0x15,
	0x2A,0x00,0x1E,0x2A,0x61,0x0B,0x51,0x00,
	0x13,0x2A,0x00,0x00,0x26,0x57,0x09,0x26,
	0x00,0x15,0x3D,0x73,0x00,0x50,0x51,0x00,
	0x24,0x7F,0x00,0x2A,0x61,0x09,0x24,0x00,
	0x11,0x50,0x00,0x04,0x2A,0x00,0x07,0x3D,
	0x00,0x17,0x24,0x7F,0x00,0x2A,0x61,0x09,
	0x24,0x00,0x15,0x2A,0x00,0x1E,0x51,0x50,
	0x00,0x26,0x7F,0x00,0x2A,0x61,0x09,0x26,
	0x00,0x15,0x2A,0x00,0x07,0x51,0x00,0x17,
	0x2A,0x61,0x00,0x3D,0x73,0x1B,0x3D,0x00,
	0x03,0x2A,0x00,0x00,0x26,0x57,0x09,0x26,
	0x00,0x15,0x2A,0x61,0x00,0x24,0x7F,0x09,
	0x24,0x00,0x15,0x2A,0x00,0x00,0x26,0x57,
	0x09,0x26,0x00,0x15,0x2A,0x61,0x00,0x24,
	0x7F,0x09,0x24,0x00,0x15,0x2A,0x00,0x1E,
	0x26,0x7F,0x00,0x2A,0x61,0x09,0x26,0x00,
	0x15,0x2A,0x00,0x1E,0x3D,0x74,0x00,0x2A,
	0x61,0x1E,0x2A,0x00,0x00,0x3D,0x00,0x1E,
	0x24,0x7F,0x00,0x2A,0x61,0x00,0x3D,0x6B,
	0x09,0x24,0x00,0x15,0x3D,0x00,0x00,0x2A,
	0x00,0x00,0x26,0x57,0x09,0x26,0x00,0x15,
	0x26,0x7F,0x00,0x2A,0x61,0x09,0x26,0x00,
	0x15,0x2A,0x00,0x1E,0x26,0x7F,0x00,0x50,
	0x4E,0x00,0x2A,0x61,0x09,0x26,0x00,0x0E,
	0x50,0x00,0x07,0x2A,0x00,0x1E,0x3D,0x6D,
	0x00,0x2A,0x61,0x00,0x50,0x50,0x12,0x3D,
	0x00,0x02,0x50,0x00,0x0A,0x2A,0x00,0x00,
	0x26,0x57,0x09,0x26,0x00,0x15,0x3F,0x74,
	0x00,0x51,0x52,0x00,0x24,0x7F,0x00,0x39,
	0x5A,0x00,0x2A,0x61,0x09,0x24,0x00,0x0F,
	0x3F,0x00,0x06,0x2A,0x00,0x00,0x3F,0x74,
	0x0E,0x39,0x00,0x0A,0x3F,0x00,0x06,0x3F,
	0x70,0x00,0x26,0x7F,0x00,0x2A,0x61,0x09,
	0x26,0x00,0x05,0x51,0x00,0x0A,0x3F,0x00,
	0x06,0x2A,0x00,0x1E,0x24,0x7F,0x09,0x24,
	0x00,0x15,0x26,0x7F,0x09,0x26,0x00,0x15,
	0x26,0x7F,0x00,0x2A,0x61,0x00,0x51,0x4E,
	0x09,0x26,0x00,0x0F,0x51,0x00,0x06,0x2A,
	0x00,0x00,0xFF,0x2F,0x00,0x00,0x00,0x00,
};

__align(4) static const unsigned char s3mtcall04_mid[] = {
	0x4D,0x54,0x68,0x64,0x00,0x00,0x00,0x06,
	0x00,0x00,0x00,0x01,0x01,0xE0,0x4D,0x54,
	0x72,0x6B,0x00,0x00,0x1B,0x6D,0x00,0xFF,
	0x03,0x10,0x20,0x20,0x20,0x20,0x20,0x20,
	0x20,0x20,0x20,0x20,0x20,0x20,0x20,0x20,
	0x20,0x20,0x00,0xFF,0x58,0x04,0x04,0x02,
	0x18,0x08,0x00,0xFF,0x59,0x02,0x00,0x00,
	0x00,0xFF,0x51,0x03,0x0E,0xDC,0xCA,0x00,
	0xFF,0x7F,0x09,0x43,0x7B,0x00,0x58,0x46,
	0x30,0x32,0x00,0x02,0x00,0xC0,0x47,0x00,
	0xB0,0x07,0x7F,0x00,0xC1,0x21,0x00,0xC2,
	0x04,0x00,0xB2,0x07,0x52,0x00,0x0A,0x66,
	0x00,0xC3,0x19,0x00,0xB3,0x0A,0x0E,0x00,
	0xC4,0x1B,0x00,0xB4,0x0A,0x61,0x00,0xC5,
	0x47,0x00,0xB5,0x07,0x37,0x00,0x99,0x23,
	0x64,0x36,0x23,0x00,0x06,0x23,0x64,0x36,
	0x23,0x00,0x06,0x28,0x64,0x6C,0x28,0x00,
	0x0C,0x90,0x4B,0x7F,0x00,0x99,0x30,0x64,
	0x6C,0x30,0x00,0x00,0x90,0x4B,0x00,0x0C,
	0x4B,0x7F,0x00,0x99,0x2F,0x64,0x6C,0x2F,
	0x00,0x00,0x90,0x4B,0x00,0x0C,0x4E,0x7F,
	0x00,0x95,0x4B,0x64,0x00,0x99,0x2D,0x64,
	0x6C,0x2D,0x00,0x00,0x95,0x4B,0x00,0x00,
	0x90,0x4E,0x00,0x0C,0x50,0x7F,0x00,0x91,
	0x20,0x78,0x00,0x92,0x38,0x3F,0x00,0x42,
	0x3C,0x00,0x4B,0x4B,0x00,0x47,0x45,0x00,
	0x3F,0x3C,0x00,0x93,0x38,0x61,0x00,0x3F,
	0x3A,0x00,0x47,0x64,0x00,0x94,0x44,0x6E,
	0x00,0x95,0x4B,0x64,0x00,0x99,0x23,0x64,
	0x00,0x31,0x64,0x23,0x94,0x44,0x00,0x00,
	0x91,0x20,0x00,0x49,0x99,0x31,0x00,0x00,
	0x95,0x4B,0x00,0x00,0x99,0x23,0x00,0x02,
	0x93,0x3F,0x00,0x0A,0x91,0x20,0x78,0x00,
	0x93,0x3F,0x3B,0x00,0x94,0x44,0x58,0x00,
	0x95,0x4E,0x64,0x00,0x99,0x23,0x64,0x00,
	0x2A,0x64,0x0F,0x94,0x44,0x00,0x51,0x90,
	0x50,0x00,0x0C,0x99,0x2A,0x00,0x00,0x95,
	0x4E,0x00,0x00,0x99,0x23,0x00,0x0C,0x90,
	0x50,0x7F,0x00,0x93,0x44,0x4E,0x00,0x94,
	0x47,0x6E,0x00,0x4B,0x6E,0x00,0x95,0x50,
	0x64,0x00,0x99,0x2C,0x64,0x17,0x91,0x20,
	0x00,0x52,0x93,0x47,0x00,0x03,0x90,0x50,
	0x00,0x00,0x99,0x2C,0x00,0x07,0x94,0x47,
	0x00,0x00,0x4B,0x00,0x05,0x90,0x50,0x7F,
	0x00,0x91,0x20,0x70,0x00,0xB2,0x40,0x7F,
	0x00,0x93,0x47,0x5D,0x00,0x94,0x47,0x58,
	0x00,0x4B,0x58,0x00,0x99,0x23,0x64,0x00,
	0x2A,0x64,0x2D,0x91,0x20,0x00,0x0F,0x92,
	0x3F,0x00,0x00,0x94,0x4B,0x00,0x02,0x92,
	0x38,0x00,0x03,0x94,0x47,0x00,0x03,0x92,
	0x4B,0x00,0x05,0x42,0x00,0x0D,0x47,0x00,
	0x0A,0x95,0x50,0x00,0x0A,0x93,0x44,0x00,
	0x02,0x99,0x23,0x00,0x00,0x2A,0x00,0x00,
	0x90,0x50,0x00,0x0C,0x50,0x7F,0x00,0x91,
	0x20,0x75,0x00,0x93,0x44,0x50,0x00,0x94,
	0x44,0x6E,0x00,0x47,0x6E,0x00,0x95,0x50,
	0x64,0x00,0x99,0x28,0x64,0x00,0x2E,0x64,
	0x0B,0x94,0x47,0x00,0x00,0x44,0x00,0x61,
	0x99,0x28,0x00,0x00,0x95,0x50,0x00,0x00,
	0x99,0x2E,0x00,0x02,0x93,0x3F,0x00,0x0A,
	0x3F,0x57,0x00,0x94,0x44,0x58,0x00,0x47,
	0x58,0x00,0x95,0x50,0x64,0x00,0x99,0x2A,
	0x64,0x0A,0x94,0x47,0x00,0x0B,0x44,0x00,
	0x4B,0x90,0x50,0x00,0x0C,0x95,0x50,0x00,
	0x00,0x99,0x2A,0x00,0x0C,0x90,0x50,0x7F,
	0x00,0x93,0x4B,0x57,0x00,0x94,0x44,0x37,
	0x00,0x95,0x50,0x64,0x00,0x99,0x2C,0x64,
	0x33,0x94,0x44,0x00,0x04,0x91,0x20,0x00,
	0x35,0x99,0x2C,0x00,0x00,0x90,0x50,0x00,
	0x02,0x93,0x47,0x00,0x0A,0x90,0x52,0x7F,
	0x00,0x91,0x20,0x75,0x00,0x93,0x47,0x55,
	0x00,0x94,0x44,0x5E,0x00,0x99,0x23,0x64,
	0x00,0x2A,0x64,0x14,0x94,0x44,0x00,0x4B,
	0x91,0x20,0x00,0x01,0x95,0x50,0x00,0x0C,
	0x99,0x23,0x00,0x00,0x2A,0x00,0x00,0x90,
	0x52,0x00,0x0B,0x93,0x38,0x00,0x01,0x90,
	0x50,0x7F,0x00,0x91,0x27,0x77,0x00,0xD1,
	0x0B,0x00,0x18,0x00,0x1D,0x00,0x1A,0x00,
	0x0C,0x00,0x00,0x00,0x92,0x33,0x3C,0x00,
	0x3F,0x33,0x00,0x42,0x3F,0x00,0x46,0x45,
	0x00,0x49,0x49,0x00,0xB2,0x40,0x00,0x00,
	0x93,0x33,0x49,0x00,0x94,0x47,0x6E,0x00,
	0x4B,0x6E,0x00,0x95,0x50,0x64,0x00,0x99,
	0x23,0x64,0x00,0x2C,0x64,0x69,0x93,0x3F,
	0x00,0x03,0x99,0x2C,0x00,0x00,0x23,0x00,
	0x00,0x90,0x50,0x00,0x00,0x95,0x50,0x00,
	0x07,0x94,0x47,0x00,0x00,0x4B,0x00,0x05,
	0x90,0x4E,0x7F,0x00,0xB2,0x40,0x7F,0x00,
	0x93,0x3A,0x55,0x00,0x94,0x3F,0x58,0x00,
	0x95,0x52,0x64,0x00,0x99,0x28,0x64,0x00,
	0x2A,0x64,0x0F,0x94,0x3F,0x00,0x5D,0x99,
	0x2A,0x00,0x00,0x90,0x4E,0x00,0x00,0x99,
	0x28,0x00,0x00,0x95,0x52,0x00,0x02,0x93,
	0x44,0x00,0x09,0x92,0x46,0x00,0x01,0x90,
	0x4B,0x7F,0x00,0x93,0x3F,0x5B,0x00,0x94,
	0x42,0x56,0x00,0x46,0x56,0x00,0x95,0x50,
	0x64,0x00,0x99,0x23,0x64,0x00,0x2C,0x64,
	0x10,0x92,0x49,0x00,0x08,0x42,0x00,0x4D,
	0x33,0x00,0x07,0x99,0x2C,0x00,0x00,0x90,
	0x4B,0x00,0x00,0x95,0x50,0x00,0x00,0x99,
	0x23,0x00,0x02,0x93,0x47,0x00,0x05,0x94,
	0x42,0x00,0x00,0x46,0x00,0x05,0x90,0x4B,
	0x7F,0x00,0x93,0x42,0x57,0x00,0x94,0x42,
	0x65,0x00,0x95,0x4E,0x64,0x00,0x99,0x2A,
	0x64,0x0E,0x92,0x3F,0x00,0x06,0x94,0x42,
	0x00,0x58,0x95,0x4E,0x00,0x00,0x99,0x2A,
	0x00,0x03,0x93,0x3F,0x00,0x09,0x3F,0x4C,
	0x00,0x94,0x42,0x6E,0x00,0x46,0x6E,0x00,
	0x95,0x4B,0x64,0x00,0x99,0x28,0x64,0x00,
	0x2E,0x64,0x4B,0x94,0x46,0x00,0x00,0x42,
	0x00,0x21,0x99,0x28,0x00,0x00,0x95,0x4B,
	0x00,0x00,0x99,0x2E,0x00,0x07,0x93,0x3A,
	0x00,0x05,0x3A,0x45,0x00,0x94,0x3F,0x58,
	0x00,0x95,0x4B,0x64,0x00,0x99,0x2A,0x64,
	0x0F,0x94,0x3F,0x00,0x5D,0x99,0x2A,0x00,
	0x02,0x93,0x4B,0x00,0x04,0x91,0x27,0x00,
	0x06,0x25,0x75,0x00,0x93,0x46,0x5B,0x00,
	0x94,0x42,0x58,0x00,0x46,0x58,0x00,0x99,
	0x2C,0x64,0x14,0x94,0x46,0x00,0x00,0x42,
	0x00,0x58,0x90,0x4B,0x00,0x00,0x99,0x2C,
	0x00,0x05,0x91,0x25,0x00,0x02,0x93,0x42,
	0x00,0x05,0x90,0x49,0x7F,0x00,0x91,0x27,
	0x61,0x00,0x93,0x42,0x52,0x00,0x94,0x42,
	0x6E,0x00,0x99,0x28,0x64,0x00,0x2A,0x64,
	0x02,0x94,0x42,0x00,0x5D,0x91,0x27,0x00,
	0x0D,0x99,0x28,0x00,0x00,0x2A,0x00,0x00,
	0x90,0x49,0x00,0x01,0x93,0x42,0x00,0x00,
	0x3F,0x00,0x01,0x46,0x00,0x00,0x3A,0x00,
	0x08,0x33,0x00,0x02,0x90,0x4B,0x7F,0x00,
	0x91,0x23,0x6A,0x00,0x92,0x3B,0x3F,0x00,
	0xB2,0x40,0x00,0x00,0x92,0x47,0x3F,0x00,
	0x4B,0x43,0x00,0x4E,0x3D,0x00,0x93,0x33,
	0x55,0x00,0x94,0x3F,0x6E,0x00,0x99,0x23,
	0x64,0x00,0x2C,0x64,0x23,0x94,0x3F,0x00,
	0x0D,0x91,0x23,0x00,0x3C,0x99,0x23,0x00,
	0x00,0x95,0x4B,0x00,0x00,0x99,0x2C,0x00,
	0x00,0x90,0x4B,0x00,0x0C,0x4B,0x7F,0x00,
	0x91,0x23,0x75,0x00,0x93,0x3B,0x55,0x00,
	0x94,0x3F,0x58,0x00,0x95,0x49,0x64,0x00,
	0x99,0x23,0x64,0x00,0x2A,0x64,0x0F,0x94,
	0x3F,0x00,0x5D,0x99,0x23,0x00,0x00,0x95,
	0x49,0x00,0x00,0x90,0x4B,0x00,0x00,0x99,
	0x2A,0x00,0x0C,0x90,0x4B,0x7F,0x00,0x93,
	0x3F,0x5B,0x00,0x94,0x42,0x6E,0x00,0x47,
	0x6E,0x00,0x95,0x4B,0x64,0x00,0x99,0x2C,
	0x64,0x29,0x91,0x23,0x00,0x43,0x90,0x4B,
	0x00,0x00,0x99,0x2C,0x00,0x00,0x95,0x4B,
	0x00,0x07,0x94,0x47,0x00,0x00,0x42,0x00,
	0x05,0x90,0x4B,0x7F,0x00,0x91,0x23,0x6E,
	0x00,0xB2,0x40,0x7F,0x00,0x93,0x42,0x52,
	0x00,0x94,0x42,0x58,0x00,0x47,0x58,0x00,
	0x95,0x4B,0x64,0x00,0x99,0x23,0x64,0x00,
	0x2A,0x64,0x29,0x92,0x4B,0x00,0x01,0x4E,
	0x00,0x04,0x47,0x00,0x01,0x91,0x23,0x00,
	0x15,0x92,0x3B,0x00,0x0B,0x94,0x42,0x00,
	0x00,0x47,0x00,0x1A,0x93,0x3F,0x00,0x03,
	0x90,0x4B,0x00,0x00,0x99,0x23,0x00,0x00,
	0x95,0x4B,0x00,0x00,0x99,0x2A,0x00,0x0C,
	0x90,0x4B,0x7F,0x00,0x91,0x23,0x70,0x00,
	0x93,0x3F,0x50,0x00,0x94,0x3F,0x6E,0x00,
	0x42,0x6E,0x00,0x95,0x4B,0x64,0x00,0x99,
	0x28,0x64,0x00,0x2E,0x64,0x0A,0x94,0x42,
	0x00,0x00,0x3F,0x00,0x62,0x99,0x28,0x00,
	0x00,0x95,0x4B,0x00,0x00,0x99,0x2E,0x00,
	0x00,0x90,0x4B,0x00,0x07,0x93,0x3B,0x00,
	0x05,0x90,0x4B,0x7F,0x00,0x93,0x3B,0x4B,
	0x00,0x94,0x3F,0x58,0x00,0x42,0x58,0x00,
	0x95,0x4B,0x64,0x00,0x99,0x2A,0x64,0x0B,
	0x94,0x42,0x00,0x09,0x3F,0x00,0x58,0x95,
	0x4B,0x00,0x00,0x99,0x2A,0x00,0x00,0x90,
	0x4B,0x00,0x0C,0x4B,0x7F,0x00,0x93,0x47,
	0x5D,0x00,0x94,0x3F,0x37,0x00,0x95,0x4B,
	0x64,0x00,0x99,0x2C,0x64,0x0A,0x94,0x3F,
	0x00,0x1D,0x91,0x23,0x00,0x45,0x95,0x4B,
	0x00,0x00,0x99,0x2C,0x00,0x00,0x90,0x4B,
	0x00,0x02,0x93,0x42,0x00,0x0A,0x90,0x4E,
	0x7F,0x00,0x91,0x23,0x6E,0x00,0x93,0x42,
	0x5D,0x00,0x94,0x3F,0x5E,0x00,0x95,0x4B,
	0x64,0x00,0x99,0x23,0x64,0x00,0x2A,0x64,
	0x14,0x94,0x3F,0x00,0x40,0x91,0x23,0x00,
	0x15,0x93,0x33,0x00,0x03,0x90,0x4E,0x00,
	0x00,0x99,0x23,0x00,0x00,0x95,0x4B,0x00,
	0x00,0x99,0x2A,0x00,0x0C,0x90,0x4B,0x7F,
	0x00,0x91,0x22,0x76,0x00,0x92,0x46,0x3C,
	0x00,0x49,0x45,0x00,0x41,0x45,0x00,0x3A,
	0x3A,0x00,0xB2,0x40,0x00,0x00,0x93,0x35,
	0x61,0x00,0x94,0x49,0x6E,0x00,0x95,0x4B,
	0x64,0x00,0x99,0x2C,0x64,0x69,0x93,0x3B,
	0x00,0x03,0x90,0x4B,0x00,0x00,0x99,0x2C,
	0x00,0x00,0x95,0x4B,0x00,0x07,0x94,0x49,
	0x00,0x05,0x90,0x49,0x7F,0x00,0xB2,0x40,
	0x7F,0x00,0x93,0x3D,0x67,0x00,0x94,0x41,
	0x58,0x00,0x95,0x4E,0x64,0x00,0x99,0x23,
	0x64,0x00,0x2A,0x64,0x0F,0x94,0x41,0x00,
	0x5D,0x95,0x4E,0x00,0x00,0x99,0x2A,0x00,
	0x00,0x90,0x49,0x00,0x00,0x99,0x23,0x00,
	0x07,0x93,0x3F,0x00,0x05,0x90,0x49,0x7F,
	0x00,0x93,0x41,0x5B,0x00,0x94,0x46,0x6B,
	0x00,0x49,0x6B,0x00,0x95,0x4B,0x64,0x00,
	0x99,0x2C,0x64,0x6C,0x2C,0x00,0x00,0x95,
	0x4B,0x00,0x00,0x90,0x49,0x00,0x02,0x93,
	0x42,0x00,0x04,0x94,0x46,0x00,0x00,0x49,
	0x00,0x06,0x90,0x46,0x7F,0x00,0x93,0x46,
	0x55,0x00,0x94,0x46,0x56,0x00,0x49,0x56,
	0x00,0x95,0x49,0x64,0x00,0x99,0x23,0x64,
	0x00,0x2A,0x64,0x4A,0x92,0x41,0x00,0x01,
	0x46,0x00,0x15,0x49,0x00,0x04,0x94,0x49,
	0x00,0x00,0x46,0x00,0x05,0x93,0x41,0x00,
	0x03,0x95,0x49,0x00,0x00,0x99,0x2A,0x00,
	0x00,0x90,0x46,0x00,0x00,0x99,0x23,0x00,
	0x0C,0x90,0x46,0x7F,0x00,0x93,0x41,0x57,
	0x00,0x94,0x46,0x6E,0x00,0x49,0x6E,0x00,
	0x95,0x49,0x64,0x00,0x99,0x28,0x64,0x00,
	0x2E,0x64,0x1C,0x92,0x3A,0x00,0x50,0x95,
	0x49,0x00,0x00,0x99,0x2E,0x00,0x00,0x28,
	0x00,0x02,0x93,0x46,0x00,0x05,0x94,0x46,
	0x00,0x00,0x49,0x00,0x05,0x93,0x46,0x57,
	0x00,0x94,0x41,0x58,0x00,0x95,0x46,0x64,
	0x00,0x99,0x2A,0x64,0x10,0x94,0x41,0x00,
	0x06,0x91,0x22,0x00,0x56,0x95,0x46,0x00,
	0x00,0x99,0x2A,0x00,0x02,0x93,0x47,0x00,
	0x0A,0x91,0x22,0x6C,0x00,0x93,0x49,0x57,
	0x00,0x94,0x46,0x58,0x00,0x49,0x58,0x00,
	0x95,0x46,0x64,0x00,0x99,0x2C,0x64,0x14,
	0x94,0x49,0x00,0x00,0x46,0x00,0x58,0x90,
	0x46,0x00,0x00,0x99,0x2C,0x00,0x02,0x93,
	0x46,0x00,0x0A,0x91,0x22,0x00,0x00,0x90,
	0x46,0x7F,0x00,0x91,0x25,0x6C,0x00,0x93,
	0x46,0x55,0x00,0x94,0x46,0x6E,0x00,0x49,
	0x6E,0x00,0x99,0x28,0x64,0x00,0x2A,0x64,
	0x6C,0x2A,0x00,0x00,0x90,0x46,0x00,0x00,
	0x99,0x28,0x00,0x02,0x93,0x35,0x00,0x00,
	0x41,0x00,0x04,0x94,0x46,0x00,0x00,0x49,
	0x00,0x01,0x93,0x46,0x00,0x00,0x49,0x00,
	0x05,0x3D,0x00,0x00,0x90,0x44,0x7F,0x00,
	0x91,0x20,0x76,0x00,0x92,0x47,0x45,0x00,
	0x42,0x37,0x00,0x4B,0x43,0x00,0x38,0x43,
	0x00,0xB2,0x40,0x00,0x00,0x93,0x33,0x61,
	0x00,0x3B,0x3A,0x00,0x44,0x64,0x00,0x94,
	0x3F,0x6E,0x00,0x99,0x23,0x64,0x00,0x2C,
	0x64,0x01,0x91,0x25,0x00,0x22,0x94,0x3F,
	0x00,0x0F,0x91,0x20,0x00,0x3A,0x95,0x46,
	0x00,0x00,0x99,0x23,0x00,0x00,0x90,0x44,
	0x00,0x00,0x99,0x2C,0x00,0x02,0x93,0x3B,
	0x00,0x0A,0x90,0x46,0x7F,0x00,0x91,0x20,
	0x78,0x00,0xB2,0x40,0x7F,0x00,0x93,0x3B,
	0x3B,0x00,0x94,0x3F,0x58,0x00,0x95,0x46,
	0x64,0x00,0x99,0x23,0x64,0x00,0x2A,0x64,
	0x0F,0x94,0x3F,0x00,0x5D,0x95,0x46,0x00,
	0x00,0x90,0x46,0x00,0x00,0x99,0x2A,0x00,
	0x00,0x23,0x00,0x0C,0x90,0x44,0x7F,0x00,
	0x93,0x3F,0x4E,0x00,0x94,0x44,0x6E,0x00,
	0x47,0x6E,0x00,0x95,0x44,0x64,0x00,0x99,
	0x2C,0x64,0x15,0x91,0x20,0x00,0x11,0x92,
	0x4B,0x00,0x02,0x38,0x00,0x0C,0x47,0x00,
	0x09,0x42,0x00,0x2C,0x93,0x44,0x00,0x03,
	0x90,0x44,0x00,0x00,0x95,0x44,0x00,0x00,
	0x99,0x2C,0x00,0x08,0x94,0x44,0x00,0x00,
	0x47,0x00,0x04,0x90,0x42,0x7F,0x00,0x91,
	0x20,0x6E,0x00,0x93,0x44,0x5D,0x00,0x94,
	0x44,0x58,0x00,0x47,0x58,0x00,0x95,0x46,
	0x64,0x00,0x99,0x23,0x64,0x00,0x2A,0x64,
	0x2E,0x91,0x20,0x00,0x10,0x94,0x47,0x00,
	0x03,0x44,0x00,0x28,0x93,0x3F,0x00,0x03,
	0x95,0x46,0x00,0x00,0x99,0x23,0x00,0x00,
	0x2A,0x00,0x0C,0x91,0x20,0x6C,0x00,0x93,
	0x3F,0x50,0x00,0x94,0x3F,0x6E,0x00,0x44,
	0x6E,0x00,0x95,0x44,0x64,0x00,0x99,0x28,
	0x64,0x00,0x2E,0x64,0x0A,0x94,0x44,0x00,
	0x00,0x3F,0x00,0x62,0x99,0x28,0x00,0x00,
	0x95,0x44,0x00,0x00,0x99,0x2E,0x00,0x00,
	0x90,0x42,0x00,0x02,0x93,0x3B,0x00,0x0A,
	0x90,0x3F,0x7F,0x00,0x93,0x3B,0x57,0x00,
	0x94,0x3F,0x58,0x00,0x44,0x58,0x00,0x95,
	0x42,0x64,0x00,0x99,0x2A,0x64,0x0A,0x94,
	0x44,0x00,0x0A,0x3F,0x00,0x58,0x99,0x2A,
	0x00,0x0C,0x93,0x47,0x57,0x00,0x94,0x3F,
	0x37,0x00,0x99,0x2C,0x64,0x1B,0x91,0x20,
	0x00,0x17,0x94,0x3F,0x00,0x3A,0x90,0x3F,
	0x00,0x00,0x95,0x42,0x00,0x00,0x99,0x2C,
	0x00,0x02,0x93,0x44,0x00,0x0A,0x90,0x46,
	0x7F,0x00,0x91,0x20,0x72,0x00,0x93,0x44,
	0x55,0x00,0x94,0x3F,0x5E,0x00,0x95,0x3F,
	0x64,0x00,0x99,0x23,0x64,0x00,0x2A,0x64,
	0x14,0x94,0x3F,0x00,0x52,0x91,0x20,0x00,
	0x06,0x99,0x23,0x00,0x00,0x2A,0x00,0x00,
	0x90,0x46,0x00,0x02,0x93,0x33,0x00,0x0A,
	0x90,0x44,0x7F,0x00,0x91,0x27,0x78,0x00,
	0xD1,0x08,0x00,0x14,0x00,0x18,0x00,0x14,
	0x00,0x04,0x00,0x00,0x00,0x92,0x33,0x45,
	0x00,0x46,0x3C,0x00,0x49,0x47,0x00,0x3F,
	0x34,0x00,0x42,0x45,0x00,0xB2,0x40,0x00,
	0x00,0x93,0x33,0x49,0x00,0x94,0x42,0x6E,
	0x00,0x46,0x6E,0x00,0x99,0x23,0x64,0x00,
	0x2C,0x64,0x69,0x93,0x3B,0x00,0x03,0x99,
	0x2C,0x00,0x00,0x23,0x00,0x00,0x95,0x3F,
	0x00,0x00,0x90,0x44,0x00,0x07,0x94,0x42,
	0x00,0x00,0x46,0x00,0x05,0x90,0x46,0x7F,
	0x00,0xB2,0x40,0x7F,0x00,0x93,0x3A,0x55,
	0x00,0x94,0x3F,0x58,0x00,0x95,0x46,0x64,
	0x00,0x99,0x28,0x64,0x00,0x2A,0x64,0x0E,
	0x94,0x3F,0x00,0x5E,0x99,0x2A,0x00,0x00,
	0x90,0x46,0x00,0x00,0x99,0x28,0x00,0x00,
	0x95,0x46,0x00,0x01,0x92,0x49,0x00,0x01,
	0x93,0x3F,0x00,0x07,0x92,0x46,0x00,0x02,
	0x42,0x00,0x01,0x90,0x44,0x7F,0x00,0x93,
	0x3F,0x5B,0x00,0x94,0x42,0x56,0x00,0x46,
	0x56,0x00,0x95,0x44,0x64,0x00,0x99,0x23,
	0x64,0x00,0x2C,0x64,0x0D,0x92,0x33,0x00,
	0x0E,0x3F,0x00,0x51,0x90,0x44,0x00,0x00,
	0x99,0x2C,0x00,0x00,0x95,0x44,0x00,0x00,
	0x99,0x23,0x00,0x02,0x93,0x44,0x00,0x05,
	0x94,0x46,0x00,0x00,0x42,0x00,0x05,0x90,
	0x42,0x7F,0x00,0x93,0x42,0x57,0x00,0x94,
	0x42,0x65,0x00,0x95,0x46,0x64,0x00,0x99,
	0x2A,0x64,0x14,0x94,0x42,0x00,0x58,0x99,
	0x2A,0x00,0x00,0x95,0x46,0x00,0x02,0x93,
	0x3F,0x00,0x0A,0x3F,0x4C,0x00,0x94,0x42,
	0x6E,0x00,0x46,0x6E,0x00,0x95,0x44,0x64,
	0x00,0x99,0x28,0x64,0x00,0x2E,0x64,0x4A,
	0x94,0x46,0x00,0x00,0x42,0x00,0x22,0x95,
	0x44,0x00,0x00,0x90,0x42,0x00,0x00,0x99,
	0x28,0x00,0x00,0x2E,0x00,0x07,0x93,0x3A,
	0x00,0x05,0x90,0x3F,0x7F,0x00,0x93,0x3A,
	0x45,0x00,0x94,0x3F,0x58,0x00,0x95,0x42,
	0x64,0x00,0x99,0x2A,0x64,0x0F,0x94,0x3F,
	0x00,0x5D,0x99,0x2A,0x00,0x02,0x93,0x47,
	0x00,0x0A,0x46,0x5B,0x00,0x94,0x42,0x58,
	0x00,0x46,0x58,0x00,0x99,0x2C,0x64,0x14,
	0x94,0x46,0x00,0x00,0x42,0x00,0x02,0x91,
	0x27,0x00,0x56,0x95,0x42,0x00,0x00,0x99,
	0x2C,0x00,0x00,0x90,0x3F,0x00,0x07,0x93,
	0x42,0x00,0x05,0x90,0x3F,0x7F,0x00,0x91,
	0x27,0x6E,0x00,0xD1,0x06,0x00,0x00,0x00,
	0x93,0x42,0x52,0x00,0x94,0x42,0x6E,0x00,
	0x95,0x3F,0x64,0x00,0x99,0x28,0x64,0x00,
	0x2A,0x64,0x02,0x94,0x42,0x00,0x6A,0x90,
	0x3F,0x00,0x00,0x99,0x2A,0x00,0x00,0x28,
	0x00,0x01,0x91,0x27,0x00,0x01,0x93,0x42,
	0x00,0x00,0x3F,0x00,0x00,0x3A,0x00,0x01,
	0x46,0x00,0x07,0x33,0x00,0x02,0x90,0x4B,
	0x7F,0x00,0x91,0x23,0x75,0x00,0x92,0x4B,
	0x45,0x00,0x42,0x3B,0x00,0x47,0x45,0x00,
	0x3B,0x3C,0x00,0xB2,0x40,0x00,0x00,0x93,
	0x33,0x55,0x00,0x94,0x3F,0x6E,0x00,0x99,
	0x23,0x64,0x00,0x2C,0x64,0x22,0x94,0x3F,
	0x00,0x0E,0x91,0x23,0x00,0x3C,0x99,0x23,
	0x00,0x00,0x95,0x3F,0x00,0x00,0x99,0x2C,
	0x00,0x00,0x90,0x4B,0x00,0x0C,0x4B,0x7F,
	0x00,0x91,0x23,0x77,0x00,0xB2,0x40,0x7F,
	0x00,0x93,0x3B,0x55,0x00,0x94,0x42,0x58,
	0x00,0x95,0x3F,0x64,0x00,0x99,0x23,0x64,
	0x00,0x2A,0x64,0x0F,0x94,0x42,0x00,0x5D,
	0x99,0x23,0x00,0x00,0x95,0x3F,0x00,0x00,
	0x90,0x4B,0x00,0x00,0x99,0x2A,0x00,0x00,
	0x92,0x47,0x00,0x01,0x4B,0x00,0x02,0x3B,
	0x00,0x09,0x90,0x4B,0x7F,0x00,0x93,0x3F,
	0x5B,0x00,0x94,0x47,0x6E,0x00,0x4B,0x6E,
	0x00,0x95,0x4B,0x64,0x00,0x99,0x2C,0x64,
	0x0C,0x91,0x23,0x00,0x01,0x92,0x42,0x00,
	0x5F,0x90,0x4B,0x00,0x00,0x95,0x4B,0x00,
	0x00,0x99,0x2C,0x00,0x07,0x94,0x4B,0x00,
	0x00,0x47,0x00,0x05,0x90,0x4B,0x7F,0x00,
	0x91,0x23,0x76,0x00,0x93,0x42,0x52,0x00,
	0x94,0x47,0x58,0x00,0x4B,0x58,0x00,0x95,
	0x4B,0x64,0x00,0x99,0x23,0x64,0x00,0x2A,
	0x64,0x2E,0x91,0x23,0x00,0x22,0x94,0x4B,
	0x00,0x00,0x47,0x00,0x19,0x93,0x3F,0x00,
	0x03,0x95,0x4B,0x00,0x00,0x99,0x23,0x00,
	0x00,0x2A,0x00,0x00,0x90,0x4B,0x00,0x0C,
	0x4B,0x7F,0x00,0x91,0x23,0x75,0x00,0x93,
	0x3F,0x50,0x00,0x94,0x42,0x6E,0x00,0x47,
	0x6E,0x00,0x95,0x4B,0x64,0x00,0x99,0x28,
	0x64,0x00,0x2E,0x64,0x0A,0x94,0x47,0x00,
	0x00,0x42,0x00,0x62,0x99,0x28,0x00,0x00,
	0x95,0x4B,0x00,0x00,0x99,0x2E,0x00,0x00,
	0x90,0x4B,0x00,0x07,0x93,0x3B,0x00,0x05,
	0x90,0x4B,0x7F,0x00,0x93,0x3B,0x4B,0x00,
	0x94,0x42,0x58,0x00,0x47,0x58,0x00,0x95,
	0x4B,0x64,0x00,0x99,0x2A,0x64,0x0A,0x94,
	0x47,0x00,0x0A,0x42,0x00,0x58,0x95,0x4B,
	0x00,0x00,0x99,0x2A,0x00,0x00,0x90,0x4B,
	0x00,0x0C,0x4B,0x7F,0x00,0x93,0x47,0x5D,
	0x00,0x94,0x42,0x37,0x00,0x95,0x4B,0x64,
	0x00,0x99,0x2C,0x64,0x0A,0x94,0x42,0x00,
	0x19,0x91,0x23,0x00,0x49,0x95,0x4B,0x00,
	0x00,0x99,0x2C,0x00,0x00,0x90,0x4B,0x00,
	0x02,0x93,0x42,0x00,0x0A,0x90,0x4E,0x7F,
	0x00,0x91,0x23,0x78,0x00,0x93,0x42,0x5D,
	0x00,0x94,0x42,0x5E,0x00,0x95,0x4B,0x64,
	0x00,0x99,0x23,0x64,0x00,0x2A,0x64,0x14,
	0x94,0x42,0x00,0x21,0x91,0x23,0x00,0x34,
	0x93,0x33,0x00,0x03,0x90,0x4E,0x00,0x00,
	0x99,0x23,0x00,0x00,0x95,0x4B,0x00,0x00,
	0x99,0x2A,0x00,0x0C,0x90,0x4B,0x7F,0x00,
	0x91,0x25,0x76,0x00,0xB2,0x40,0x00,0x00,
	0x92,0x44,0x3D,0x00,0x31,0x3A,0x00,0x3D,
	0x30,0x00,0x41,0x4B,0x00,0x3F,0x45,0x00,
	0x93,0x35,0x61,0x00,0x94,0x47,0x6E,0x00,
	0x4B,0x6E,0x00,0x95,0x4B,0x64,0x00,0x99,
	0x2C,0x64,0x69,0x93,0x3B,0x00,0x03,0x99,
	0x2C,0x00,0x00,0x90,0x4B,0x00,0x00,0x95,
	0x4B,0x00,0x07,0x94,0x47,0x00,0x00,0x4B,
	0x00,0x05,0x90,0x49,0x7F,0x00,0xB2,0x40,
	0x7F,0x00,0x93,0x3D,0x67,0x00,0x94,0x41,
	0x58,0x00,0x95,0x4E,0x64,0x00,0x99,0x23,
	0x64,0x00,0x2A,0x64,0x0F,0x94,0x41,0x00,
	0x5D,0x99,0x2A,0x00,0x00,0x90,0x49,0x00,
	0x00,0x99,0x23,0x00,0x00,0x95,0x4E,0x00,
	0x07,0x93,0x3F,0x00,0x05,0x90,0x4B,0x7F,
	0x00,0x93,0x41,0x5B,0x00,0x94,0x44,0x6B,
	0x00,0x49,0x6B,0x00,0x95,0x4B,0x64,0x00,
	0x99,0x2C,0x64,0x2B,0x92,0x31,0x00,0x0C,
	0x41,0x00,0x05,0x3F,0x00,0x0B,0x3D,0x00,
	0x01,0x44,0x00,0x24,0x99,0x2C,0x00,0x00,
	0x90,0x4B,0x00,0x00,0x95,0x4B,0x00,0x02,
	0x93,0x42,0x00,0x06,0x94,0x49,0x00,0x00,
	0x44,0x00,0x04,0x90,0x49,0x7F,0x00,0x93,
	0x44,0x55,0x00,0x94,0x44,0x56,0x00,0x49,
	0x56,0x00,0x95,0x49,0x64,0x00,0x99,0x23,
	0x64,0x00,0x2A,0x64,0x64,0x94,0x49,0x00,
	0x00,0x44,0x00,0x06,0x93,0x41,0x00,0x02,
	0x95,0x49,0x00,0x00,0x99,0x23,0x00,0x00,
	0x2A,0x00,0x0C,0x93,0x41,0x57,0x00,0x94,
	0x44,0x6E,0x00,0x49,0x6E,0x00,0x95,0x4B,
	0x64,0x00,0x99,0x28,0x64,0x00,0x2E,0x64,
	0x5F,0x91,0x25,0x00,0x0D,0x99,0x28,0x00,
	0x00,0x95,0x4B,0x00,0x00,0x99,0x2E,0x00,
	0x00,0x90,0x49,0x00,0x02,0x93,0x44,0x00,
	0x05,0x94,0x49,0x00,0x00,0x44,0x00,0x05,
	0x90,0x4B,0x7F,0x00,0x91,0x20,0x6A,0x00,
	0x93,0x44,0x57,0x00,0x94,0x41,0x58,0x00,
	0x95,0x49,0x64,0x00,0x99,0x2A,0x64,0x00,
	0x28,0x64,0x0F,0x94,0x41,0x00,0x5D,0x90,
	0x4B,0x00,0x00,0x99,0x28,0x00,0x00,0x2A,
	0x00,0x02,0x93,0x47,0x00,0x0A,0x90,0x4B,
	0x7F,0x00,0x91,0x22,0x6A,0x00,0x93,0x49,
	0x57,0x00,0x94,0x44,0x58,0x00,0x49,0x58,
	0x00,0x99,0x2C,0x64,0x00,0x23,0x64,0x0F,
	0x91,0x20,0x00,0x05,0x94,0x49,0x00,0x00,
	0x44,0x00,0x58,0x90,0x4B,0x00,0x00,0x95,
	0x49,0x00,0x00,0x99,0x23,0x00,0x00,0x2C,
	0x00,0x02,0x93,0x44,0x00,0x02,0x91,0x22,
	0x00,0x08,0x90,0x4E,0x7F,0x00,0x91,0x25,
	0x76,0x00,0x93,0x44,0x55,0x00,0x94,0x44,
	0x6E,0x00,0x49,0x6E,0x00,0x95,0x4B,0x64,
	0x00,0x99,0x28,0x64,0x00,0x2A,0x64,0x6C,
	0x2A,0x00,0x00,0x95,0x4B,0x00,0x00,0x90,
	0x4E,0x00,0x00,0x99,0x28,0x00,0x02,0x93,
	0x35,0x00,0x00,0x41,0x00,0x05,0x49,0x00,
	0x00,0x94,0x49,0x00,0x00,0x44,0x00,0x00,
	0x93,0x44,0x00,0x05,0x3D,0x00,0x00,0x90,
	0x50,0x7F,0x00,0x91,0x20,0x78,0x00,0x92,
	0x42,0x3B,0x00,0x47,0x3F,0x00,0x38,0x43,
	0x00,0x4B,0x43,0x00,0xB2,0x40,0x00,0x00,
	0x93,0x33,0x61,0x00,0x3B,0x3A,0x00,0x44,
	0x64,0x00,0x94,0x44,0x6E,0x00,0x95,0x4B,
	0x64,0x00,0x99,0x23,0x64,0x00,0x31,0x64,
	0x0C,0x91,0x25,0x00,0x17,0x94,0x44,0x00,
	0x00,0x91,0x20,0x00,0x49,0x90,0x50,0x00,
	0x00,0x95,0x4B,0x00,0x00,0x99,0x23,0x00,
	0x00,0x31,0x00,0x02,0x93,0x3B,0x00,0x0A,
	0x90,0x50,0x7F,0x00,0x91,0x20,0x78,0x00,
	0xB2,0x40,0x7F,0x00,0x93,0x3B,0x3B,0x00,
	0x94,0x44,0x58,0x00,0x95,0x4E,0x64,0x00,
	0x99,0x23,0x64,0x00,0x2A,0x64,0x0F,0x94,
	0x44,0x00,0x5D,0x95,0x4E,0x00,0x00,0x90,
	0x50,0x00,0x00,0x99,0x2A,0x00,0x00,0x23,
	0x00,0x0C,0x90,0x50,0x7F,0x00,0x93,0x3F,
	0x4E,0x00,0x94,0x47,0x6E,0x00,0x4B,0x6E,
	0x00,0x95,0x50,0x64,0x00,0x99,0x2C,0x64,
	0x17,0x91,0x20,0x00,0x52,0x93,0x44,0x00,
	0x03,0x90,0x50,0x00,0x00,0x99,0x2C,0x00,
	0x00,0x95,0x50,0x00,0x07,0x94,0x47,0x00,
	0x00,0x4B,0x00,0x05,0x90,0x50,0x7F,0x00,
	0x91,0x20,0x70,0x00,0x93,0x44,0x5D,0x00,
	0x94,0x47,0x58,0x00,0x4B,0x58,0x00,0x95,
	0x50,0x64,0x00,0x99,0x23,0x64,0x00,0x2A,
	0x64,0x04,0x92,0x4B,0x00,0x0E,0x47,0x00,
	0x04,0x42,0x00,0x02,0x38,0x00,0x15,0x91,
	0x20,0x00,0x11,0x94,0x4B,0x00,0x03,0x47,
	0x00,0x28,0x93,0x3F,0x00,0x03,0x90,0x50,
	0x00,0x00,0x99,0x23,0x00,0x00,0x95,0x50,
	0x00,0x00,0x99,0x2A,0x00,0x0C,0x90,0x50,
	0x7F,0x00,0x91,0x20,0x75,0x00,0x93,0x3F,
	0x50,0x00,0x94,0x44,0x6E,0x00,0x47,0x6E,
	0x00,0x95,0x50,0x64,0x00,0x99,0x28,0x64,
	0x00,0x2E,0x64,0x0A,0x94,0x47,0x00,0x00,
	0x44,0x00,0x62,0x99,0x28,0x00,0x00,0x95,
	0x50,0x00,0x00,0x99,0x2E,0x00,0x00,0x90,
	0x50,0x00,0x02,0x93,0x3B,0x00,0x0A,0x90,
	0x50,0x7F,0x00,0x93,0x3B,0x57,0x00,0x94,
	0x44,0x58,0x00,0x47,0x58,0x00,0x95,0x50,
	0x64,0x00,0x99,0x2A,0x64,0x0A,0x94,0x47,
	0x00,0x0A,0x44,0x00,0x58,0x95,0x50,0x00,
	0x00,0x99,0x2A,0x00,0x00,0x90,0x50,0x00,
	0x0C,0x50,0x7F,0x00,0x93,0x47,0x57,0x00,
	0x94,0x44,0x37,0x00,0x95,0x50,0x64,0x00,
	0x99,0x2C,0x64,0x31,0x94,0x44,0x00,0x06,
	0x91,0x20,0x00,0x35,0x95,0x50,0x00,0x00,
	0x99,0x2C,0x00,0x00,0x90,0x50,0x00,0x02,
	0x93,0x44,0x00,0x0A,0x90,0x52,0x7F,0x00,
	0x91,0x20,0x75,0x00,0x93,0x44,0x55,0x00,
	0x94,0x44,0x5E,0x00,0x95,0x50,0x64,0x00,
	0x99,0x23,0x64,0x00,0x2A,0x64,0x14,0x94,
	0x44,0x00,0x4B,0x91,0x20,0x00,0x0D,0x99,
	0x23,0x00,0x00,0x95,0x50,0x00,0x00,0x99,
	0x2A,0x00,0x00,0x90,0x52,0x00,0x02,0x93,
	0x33,0x00,0x0A,0x90,0x50,0x7F,0x00,0x91,
	0x27,0x77,0x00,0xD1,0x0B,0x00,0x18,0x00,
	0x1D,0x00,0x1A,0x00,0x0C,0x00,0x00,0x00,
	0x92,0x46,0x39,0x00,0x33,0x3A,0x00,0x42,
	0x47,0x00,0x49,0x4B,0x00,0x3F,0x34,0x00,
	0xB2,0x40,0x00,0x00,0x93,0x33,0x49,0x00,
	0x94,0x42,0x6E,0x00,0x46,0x6E,0x00,0x95,
	0x50,0x64,0x00,0x99,0x23,0x64,0x00,0x2C,
	0x64,0x69,0x93,0x3B,0x00,0x03,0x99,0x2C,
	0x00,0x00,0x23,0x00,0x00,0x90,0x50,0x00,
	0x00,0x95,0x50,0x00,0x07,0x94,0x42,0x00,
	0x00,0x46,0x00,0x05,0x90,0x4E,0x7F,0x00,
	0xB2,0x40,0x7F,0x00,0x93,0x3A,0x55,0x00,
	0x94,0x3F,0x58,0x00,0x95,0x52,0x64,0x00,
	0x99,0x28,0x64,0x00,0x2A,0x64,0x0F,0x94,
	0x3F,0x00,0x5D,0x99,0x2A,0x00,0x00,0x90,
	0x4E,0x00,0x00,0x99,0x28,0x00,0x00,0x95,
	0x52,0x00,0x02,0x93,0x3F,0x00,0x0A,0x90,
	0x4E,0x7F,0x00,0x93,0x3F,0x5B,0x00,0x94,
	0x42,0x56,0x00,0x46,0x56,0x00,0x95,0x50,
	0x64,0x00,0x99,0x23,0x64,0x00,0x2C,0x64,
	0x46,0x92,0x49,0x00,0x01,0x46,0x00,0x1C,
	0x33,0x00,0x01,0x42,0x00,0x08,0x99,0x2C,
	0x00,0x00,0x90,0x4E,0x00,0x00,0x99,0x23,
	0x00,0x00,0x95,0x50,0x00,0x02,0x93,0x44,
	0x00,0x03,0x92,0x3F,0x00,0x02,0x94,0x46,
	0x00,0x00,0x42,0x00,0x05,0x90,0x4B,0x7F,
	0x00,0x93,0x42,0x57,0x00,0x94,0x42,0x65,
	0x00,0x95,0x4E,0x64,0x00,0x99,0x2A,0x64,
	0x14,0x94,0x42,0x00,0x58,0x99,0x2A,0x00,
	0x00,0x90,0x4B,0x00,0x00,0x95,0x4E,0x00,
	0x02,0x93,0x3F,0x00,0x0A,0x90,0x4B,0x7F,
	0x00,0x93,0x3F,0x4C,0x00,0x94,0x42,0x6E,
	0x00,0x46,0x6E,0x00,0x95,0x4E,0x64,0x00,
	0x99,0x28,0x64,0x00,0x2E,0x64,0x4B,0x94,
	0x46,0x00,0x00,0x42,0x00,0x21,0x99,0x28,
	0x00,0x00,0x95,0x4E,0x00,0x00,0x99,0x2E,
	0x00,0x07,0x93,0x3A,0x00,0x05,0x3A,0x45,
	0x00,0x94,0x3F,0x58,0x00,0x95,0x4B,0x64,
	0x00,0x99,0x2A,0x64,0x0F,0x94,0x3F,0x00,
	0x5D,0x99,0x2A,0x00,0x00,0x95,0x4B,0x00,
	0x02,0x93,0x47,0x00,0x04,0x91,0x27,0x00,
	0x06,0x25,0x75,0x00,0x93,0x46,0x5B,0x00,
	0x94,0x42,0x58,0x00,0x46,0x58,0x00,0x95,
	0x4B,0x64,0x00,0x99,0x2C,0x64,0x14,0x94,
	0x46,0x00,0x00,0x42,0x00,0x58,0x90,0x4B,
	0x00,0x00,0x99,0x2C,0x00,0x05,0x91,0x25,
	0x00,0x02,0x93,0x42,0x00,0x05,0x90,0x49,
	0x7F,0x00,0x91,0x27,0x61,0x00,0x93,0x42,
	0x52,0x00,0x94,0x42,0x6E,0x00,0x99,0x28,
	0x64,0x00,0x2A,0x64,0x02,0x94,0x42,0x00,
	0x5D,0x91,0x27,0x00,0x0D,0x99,0x28,0x00,
	0x00,0x2A,0x00,0x00,0x90,0x49,0x00,0x02,
	0x93,0x3A,0x00,0x00,0x3F,0x00,0x00,0x42,
	0x00,0x00,0x46,0x00,0x0A,0x33,0x00,0x00,
	0x90,0x4B,0x7F,0x00,0x91,0x23,0x6A,0x00,
	0x92,0x42,0x45,0x00,0x3B,0x3A,0x00,0x47,
	0x3B,0x00,0x3F,0x45,0x00,0xB2,0x40,0x00,
	0x00,0x93,0x33,0x55,0x00,0x94,0x42,0x6E,
	0x00,0x99,0x23,0x64,0x00,0x2C,0x64,0x23,
	0x94,0x42,0x00,0x0D,0x91,0x23,0x00,0x3C,
	0x99,0x23,0x00,0x00,0x95,0x4B,0x00,0x00,
	0x99,0x2C,0x00,0x00,0x90,0x4B,0x00,0x0C,
	0x4B,0x7F,0x00,0x91,0x23,0x75,0x00,0xB2,
	0x40,0x7F,0x00,0x93,0x3B,0x55,0x00,0x94,
	0x42,0x58,0x00,0x95,0x49,0x64,0x00,0x99,
	0x23,0x64,0x00,0x2A,0x64,0x0F,0x94,0x42,
	0x00,0x5D,0x99,0x23,0x00,0x00,0x95,0x49,
	0x00,0x00,0x90,0x4B,0x00,0x00,0x99,0x2A,
	0x00,0x0C,0x90,0x4B,0x7F,0x00,0x93,0x3F,
	0x5B,0x00,0x94,0x47,0x6E,0x00,0x4B,0x6E,
	0x00,0x95,0x4B,0x64,0x00,0x99,0x2C,0x64,
	0x29,0x91,0x23,0x00,0x3A,0x92,0x3F,0x00,
	0x09,0x90,0x4B,0x00,0x00,0x95,0x4B,0x00,
	0x00,0x99,0x2C,0x00,0x01,0x92,0x47,0x00,
	0x02,0x42,0x00,0x04,0x94,0x4B,0x00,0x00,
	0x47,0x00,0x02,0x92,0x3B,0x00,0x03,0x90,
	0x4B,0x7F,0x00,0x91,0x23,0x6E,0x00,0x93,
	0x42,0x52,0x00,0x94,0x47,0x58,0x00,0x4B,
	0x58,0x00,0x95,0x4B,0x64,0x00,0x99,0x23,
	0x64,0x00,0x2A,0x64,0x2F,0x91,0x23,0x00,
	0x21,0x94,0x4B,0x00,0x00,0x47,0x00,0x19,
	0x93,0x3F,0x00,0x03,0x95,0x4B,0x00,0x00,
	0x99,0x23,0x00,0x00,0x2A,0x00,0x00,0x90,
	0x4B,0x00,0x0C,0x4B,0x7F,0x00,0x91,0x23,
	0x70,0x00,0x93,0x3F,0x50,0x00,0x94,0x42,
	0x6E,0x00,0x47,0x6E,0x00,0x95,0x4B,0x64,
	0x00,0x99,0x28,0x64,0x00,0x2E,0x64,0x0B,
	0x94,0x47,0x00,0x00,0x42,0x00,0x61,0x99,
	0x28,0x00,0x00,0x95,0x4B,0x00,0x00,0x99,
	0x2E,0x00,0x00,0x90,0x4B,0x00,0x07,0x93,
	0x3B,0x00,0x05,0x90,0x4B,0x7F,0x00,0x93,
	0x3B,0x4B,0x00,0x94,0x42,0x58,0x00,0x47,
	0x58,0x00,0x95,0x4B,0x64,0x00,0x99,0x2A,
	0x64,0x0A,0x94,0x47,0x00,0x0A,0x42,0x00,
	0x58,0x95,0x4B,0x00,0x00,0x99,0x2A,0x00,
	0x00,0x90,0x4B,0x00,0x0C,0x4B,0x7F,0x00,
	0x93,0x47,0x5D,0x00,0x94,0x42,0x37,0x00,
	0x95,0x4B,0x64,0x00,0x99,0x2C,0x64,0x0A,
	0x94,0x42,0x00,0x1D,0x91,0x23,0x00,0x45,
	0x95,0x4B,0x00,0x00,0x99,0x2C,0x00,0x00,
	0x90,0x4B,0x00,0x02,0x93,0x42,0x00,0x0A,
	0x90,0x4E,0x7F,0x00,0x91,0x23,0x6E,0x00,
	0x93,0x42,0x5D,0x00,0x94,0x42,0x5E,0x00,
	0x95,0x4B,0x64,0x00,0x99,0x23,0x64,0x00,
	0x2A,0x64,0x14,0x94,0x42,0x00,0x40,0x91,
	0x23,0x00,0x15,0x93,0x33,0x00,0x03,0x90,
	0x4E,0x00,0x00,0x99,0x23,0x00,0x00,0x95,
	0x4B,0x00,0x00,0x99,0x2A,0x00,0x0C,0x90,
	0x4B,0x7F,0x00,0x91,0x22,0x76,0x00,0x92,
	0x46,0x3F,0x00,0x49,0x4B,0x00,0x41,0x45,
	0x00,0x3A,0x3C,0x00,0xB2,0x40,0x00,0x00,
	0x93,0x35,0x61,0x00,0x94,0x49,0x6E,0x00,
	0x95,0x4B,0x64,0x00,0x99,0x2C,0x64,0x69,
	0x93,0x3B,0x00,0x03,0x90,0x4B,0x00,0x00,
	0x99,0x2C,0x00,0x00,0x95,0x4B,0x00,0x07,
	0x94,0x49,0x00,0x05,0x90,0x49,0x7F,0x00,
	0xB2,0x40,0x7F,0x00,0x93,0x3D,0x67,0x00,
	0x94,0x41,0x58,0x00,0x95,0x4E,0x64,0x00,
	0x99,0x23,0x64,0x00,0x2A,0x64,0x0F,0x94,
	0x41,0x00,0x5D,0x95,0x4E,0x00,0x00,0x99,
	0x2A,0x00,0x00,0x90,0x49,0x00,0x00,0x99,
	0x23,0x00,0x07,0x93,0x3F,0x00,0x05,0x90,
	0x49,0x7F,0x00,0x93,0x41,0x5B,0x00,0x94,
	0x46,0x6B,0x00,0x49,0x6B,0x00,0x95,0x4B,
	0x64,0x00,0x99,0x2C,0x64,0x6C,0x2C,0x00,
	0x00,0x95,0x4B,0x00,0x00,0x90,0x49,0x00,
	0x02,0x93,0x42,0x00,0x05,0x94,0x46,0x00,
	0x00,0x49,0x00,0x05,0x90,0x46,0x7F,0x00,
	0x93,0x46,0x55,0x00,0x94,0x46,0x56,0x00,
	0x49,0x56,0x00,0x95,0x49,0x64,0x00,0x99,
	0x23,0x64,0x00,0x2A,0x64,0x64,0x94,0x49,
	0x00,0x00,0x46,0x00,0x03,0x92,0x49,0x00,
	0x01,0x41,0x00,0x01,0x46,0x00,0x00,0x93,
	0x41,0x00,0x02,0x92,0x3A,0x00,0x01,0x99,
	0x2A,0x00,0x00,0x90,0x46,0x00,0x00,0x95,
	0x49,0x00,0x00,0x99,0x23,0x00,0x0C,0x90,
	0x46,0x7F,0x00,0x93,0x41,0x57,0x00,0x94,
	0x46,0x6E,0x00,0x49,0x6E,0x00,0x95,0x49,
	0x64,0x00,0x99,0x28,0x64,0x00,0x2E,0x64,
	0x6C,0x2E,0x00,0x00,0x95,0x49,0x00,0x00,
	0x99,0x28,0x00,0x02,0x93,0x46,0x00,0x05,
	0x94,0x46,0x00,0x00,0x49,0x00,0x05,0x93,
	0x46,0x57,0x00,0x94,0x41,0x58,0x00,0x95,
	0x46,0x64,0x00,0x99,0x2A,0x64,0x0F,0x94,
	0x41,0x00,0x07,0x91,0x22,0x00,0x56,0x95,
	0x46,0x00,0x00,0x99,0x2A,0x00,0x02,0x93,
	0x47,0x00,0x0A,0x91,0x22,0x6C,0x00,0x93,
	0x49,0x57,0x00,0x94,0x46,0x58,0x00,0x49,
	0x58,0x00,0x95,0x46,0x64,0x00,0x99,0x2C,
	0x64,0x15,0x94,0x49,0x00,0x00,0x46,0x00,
	0x57,0x90,0x46,0x00,0x00,0x99,0x2C,0x00,
	0x02,0x93,0x46,0x00,0x0A,0x91,0x22,0x00,
	0x00,0x90,0x46,0x7F,0x00,0x91,0x25,0x6C,
	0x00,0x93,0x46,0x55,0x00,0x94,0x46,0x6E,
	0x00,0x49,0x6E,0x00,0x99,0x28,0x64,0x00,
	0x2A,0x64,0x6C,0x2A,0x00,0x00,0x90,0x46,
	0x00,0x00,0x99,0x28,0x00,0x02,0x93,0x41,
	0x00,0x00,0x35,0x00,0x04,0x49,0x00,0x01,
	0x94,0x46,0x00,0x00,0x49,0x00,0x00,0x93,
	0x46,0x00,0x04,0x3D,0x00,0x01,0x90,0x44,
	0x7F,0x00,0x91,0x20,0x76,0x00,0x92,0x47,
	0x3C,0x00,0x38,0x36,0x00,0x44,0x45,0x00,
	0x3F,0x3F,0x00,0xB2,0x40,0x00,0x00,0x93,
	0x33,0x61,0x00,0x3B,0x3A,0x00,0x44,0x64,
	0x00,0x94,0x3F,0x6E,0x00,0x99,0x23,0x64,
	0x00,0x2C,0x64,0x01,0x91,0x25,0x00,0x22,
	0x94,0x3F,0x00,0x0F,0x91,0x20,0x00,0x3A,
	0x95,0x46,0x00,0x00,0x99,0x23,0x00,0x00,
	0x90,0x44,0x00,0x00,0x99,0x2C,0x00,0x02,
	0x93,0x3B,0x00,0x0A,0x90,0x46,0x7F,0x00,
	0x91,0x20,0x78,0x00,0x93,0x3B,0x3B,0x00,
	0x94,0x3F,0x58,0x00,0x95,0x46,0x64,0x00,
	0x99,0x23,0x64,0x00,0x2A,0x64,0x0F,0x94,
	0x3F,0x00,0x5D,0x95,0x46,0x00,0x00,0x90,
	0x46,0x00,0x00,0x99,0x2A,0x00,0x00,0x23,
	0x00,0x0C,0x90,0x44,0x7F,0x00,0xB2,0x40,
	0x7F,0x00,0x93,0x3F,0x4E,0x00,0x94,0x44,
	0x6E,0x00,0x47,0x6E,0x00,0x95,0x44,0x64,
	0x00,0x99,0x2C,0x64,0x15,0x91,0x20,0x00,
	0x54,0x93,0x44,0x00,0x03,0x90,0x44,0x00,
	0x00,0x99,0x2C,0x00,0x00,0x95,0x44,0x00,
	0x07,0x94,0x44,0x00,0x00,0x47,0x00,0x05,
	0x90,0x42,0x7F,0x00,0x91,0x20,0x6E,0x00,
	0x93,0x44,0x5D,0x00,0x94,0x44,0x58,0x00,
	0x47,0x58,0x00,0x95,0x46,0x64,0x00,0x99,
	0x23,0x64,0x00,0x2A,0x64,0x05,0x92,0x38,
	0x00,0x15,0x44,0x00,0x0A,0x3F,0x00,0x0A,
	0x91,0x20,0x00,0x01,0x92,0x47,0x00,0x0F,
	0x94,0x47,0x00,0x03,0x44,0x00,0x28,0x93,
	0x3F,0x00,0x03,0x95,0x46,0x00,0x00,0x99,
	0x2A,0x00,0x00,0x90,0x42,0x00,0x00,0x99,
	0x23,0x00,0x0C,0x90,0x3F,0x7F,0x00,0x91,
	0x20,0x6C,0x00,0x93,0x3F,0x50,0x00,0x94,
	0x3F,0x6E,0x00,0x44,0x6E,0x00,0x95,0x44,
	0x64,0x00,0x99,0x28,0x64,0x00,0x2E,0x64,
	0x0A,0x94,0x44,0x00,0x00,0x3F,0x00,0x62,
	0x99,0x28,0x00,0x00,0x95,0x44,0x00,0x00,
	0x99,0x2E,0x00,0x02,0x93,0x3B,0x00,0x0A,
	0x3B,0x57,0x00,0x94,0x3F,0x58,0x00,0x44,
	0x58,0x00,0x95,0x42,0x64,0x00,0x99,0x2A,
	0x64,0x0A,0x94,0x44,0x00,0x0A,0x3F,0x00,
	0x58,0x95,0x42,0x00,0x00,0x99,0x2A,0x00,
	0x0C,0x93,0x47,0x57,0x00,0x94,0x3F,0x37,
	0x00,0x95,0x3F,0x64,0x00,0x99,0x2C,0x64,
	0x1B,0x91,0x20,0x00,0x17,0x94,0x3F,0x00,
	0x3A,0x90,0x3F,0x00,0x00,0x99,0x2C,0x00,
	0x02,0x93,0x44,0x00,0x0A,0x90,0x46,0x7F,
	0x00,0x91,0x20,0x72,0x00,0x93,0x44,0x55,
	0x00,0x94,0x3F,0x5E,0x00,0x99,0x23,0x64,
	0x00,0x2A,0x64,0x13,0x94,0x3F,0x00,0x53,
	0x91,0x20,0x00,0x06,0x99,0x23,0x00,0x00,
	0x2A,0x00,0x00,0x90,0x46,0x00,0x02,0x93,
	0x33,0x00,0x0A,0x90,0x44,0x7F,0x00,0x91,
	0x27,0x78,0x00,0xD1,0x08,0x00,0x14,0x00,
	0x18,0x00,0x14,0x00,0x04,0x00,0x00,0x00,
	0x92,0x42,0x3C,0x00,0x46,0x45,0x00,0x33,
	0x39,0x00,0x3F,0x37,0x00,0x49,0x49,0x00,
	0xB2,0x40,0x00,0x00,0x93,0x33,0x49,0x00,
	0x94,0x42,0x6E,0x00,0x46,0x6E,0x00,0x99,
	0x23,0x64,0x00,0x2C,0x64,0x69,0x93,0x3B,
	0x00,0x03,0x99,0x2C,0x00,0x00,0x23,0x00,
	0x00,0x95,0x3F,0x00,0x00,0x90,0x44,0x00,
	0x07,0x94,0x42,0x00,0x00,0x46,0x00,0x05,
	0x90,0x46,0x7F,0x00,0xB2,0x40,0x7F,0x00,
	0x93,0x3A,0x55,0x00,0x94,0x3F,0x58,0x00,
	0x95,0x46,0x64,0x00,0x99,0x28,0x64,0x00,
	0x2A,0x64,0x0F,0x94,0x3F,0x00,0x5D,0x99,
	0x2A,0x00,0x00,0x90,0x46,0x00,0x00,0x99,
	0x28,0x00,0x00,0x95,0x46,0x00,0x02,0x93,
	0x3F,0x00,0x0A,0x90,0x44,0x7F,0x00,0x93,
	0x3F,0x5B,0x00,0x94,0x42,0x56,0x00,0x46,
	0x56,0x00,0x95,0x44,0x64,0x00,0x99,0x23,
	0x64,0x00,0x2C,0x64,0x62,0x92,0x49,0x00,
	0x06,0x46,0x00,0x04,0x99,0x2C,0x00,0x00,
	0x23,0x00,0x00,0x90,0x44,0x00,0x00,0x95,
	0x44,0x00,0x02,0x92,0x33,0x00,0x00,0x93,
	0x44,0x00,0x04,0x92,0x42,0x00,0x01,0x94,
	0x46,0x00,0x00,0x42,0x00,0x05,0x90,0x42,
	0x7F,0x00,0x93,0x42,0x57,0x00,0x94,0x42,
	0x65,0x00,0x95,0x46,0x64,0x00,0x99,0x2A,
	0x64,0x0C,0x92,0x3F,0x00,0x08,0x94,0x42,
	0x00,0x58,0x95,0x46,0x00,0x00,0x99,0x2A,
	0x00,0x02,0x93,0x3F,0x00,0x0A,0x3F,0x4C,
	0x00,0x94,0x42,0x6E,0x00,0x46,0x6E,0x00,
	0x95,0x44,0x64,0x00,0x99,0x28,0x64,0x00,
	0x2E,0x64,0x4B,0x94,0x46,0x00,0x00,0x42,
	0x00,0x21,0x95,0x44,0x00,0x00,0x90,0x42,
	0x00,0x00,0x99,0x28,0x00,0x00,0x2E,0x00,
	0x07,0x93,0x3A,0x00,0x05,0x90,0x3F,0x7F,
	0x00,0x93,0x3A,0x45,0x00,0x94,0x3F,0x58,
	0x00,0x95,0x42,0x64,0x00,0x99,0x2A,0x64,
	0x10,0x94,0x3F,0x00,0x5C,0x99,0x2A,0x00,
	0x02,0x93,0x47,0x00,0x0A,0x46,0x5B,0x00,
	0x94,0x42,0x58,0x00,0x46,0x58,0x00,0x99,
	0x2C,0x64,0x14,0x94,0x46,0x00,0x00,0x42,
	0x00,0x02,0x91,0x27,0x00,0x56,0x95,0x42,
	0x00,0x00,0x99,0x2C,0x00,0x00,0x90,0x3F,
	0x00,0x07,0x93,0x42,0x00,0x05,0x90,0x3F,
	0x7F,0x00,0x91,0x27,0x6E,0x00,0xD1,0x06,
	0x00,0x00,0x00,0x93,0x42,0x52,0x00,0x94,
	0x42,0x6E,0x00,0x95,0x3F,0x64,0x00,0x99,
	0x28,0x64,0x00,0x2A,0x64,0x02,0x94,0x42,
	0x00,0x6A,0x90,0x3F,0x00,0x00,0x99,0x2A,
	0x00,0x00,0x28,0x00,0x01,0x91,0x27,0x00,
	0x01,0x93,0x42,0x00,0x00,0x3F,0x00,0x00,
	0x46,0x00,0x00,0x3A,0x00,0x08,0x33,0x00,
	0x02,0x90,0x4B,0x7F,0x00,0x91,0x23,0x75,
	0x00,0x92,0x4B,0x45,0x00,0x3B,0x39,0x00,
	0x47,0x45,0x00,0x42,0x3D,0x00,0xB2,0x40,
	0x00,0x00,0x93,0x36,0x55,0x00,0x94,0x42,
	0x6E,0x00,0x99,0x23,0x64,0x00,0x2C,0x64,
	0x23,0x94,0x42,0x00,0x0D,0x91,0x23,0x00,
	0x3C,0x99,0x23,0x00,0x00,0x95,0x3F,0x00,
	0x00,0x99,0x2C,0x00,0x00,0x90,0x4B,0x00,
	0x0C,0x4B,0x7F,0x00,0x91,0x23,0x77,0x00,
	0xB2,0x40,0x7F,0x00,0x93,0x3F,0x55,0x00,
	0x94,0x42,0x58,0x00,0x95,0x3F,0x64,0x00,
	0x99,0x23,0x64,0x00,0x2A,0x64,0x0F,0x94,
	0x42,0x00,0x5D,0x99,0x23,0x00,0x00,0x95,
	0x3F,0x00,0x00,0x90,0x4B,0x00,0x00,0x99,
	0x2A,0x00,0x07,0x92,0x47,0x00,0x03,0x3B,
	0x00,0x02,0x90,0x4B,0x7F,0x00,0x93,0x42,
	0x5B,0x00,0x94,0x47,0x6E,0x00,0x4B,0x6E,
	0x00,0x95,0x4B,0x64,0x00,0x99,0x2C,0x64,
	0x01,0x92,0x42,0x00,0x0B,0x4B,0x00,0x00,
	0x91,0x23,0x00,0x60,0x95,0x4B,0x00,0x00,
	0x99,0x2C,0x00,0x00,0x90,0x4B,0x00,0x07,
	0x94,0x4B,0x00,0x00,0x47,0x00,0x05,0x90,
	0x4B,0x7F,0x00,0x91,0x23,0x76,0x00,0x93,
	0x47,0x52,0x00,0x94,0x47,0x58,0x00,0x4B,
	0x58,0x00,0x95,0x4B,0x64,0x00,0x99,0x23,
	0x64,0x00,0x2A,0x64,0x2E,0x91,0x23,0x00,
	0x22,0x94,0x4B,0x00,0x00,0x47,0x00,0x19,
	0x93,0x42,0x00,0x03,0x95,0x4B,0x00,0x00,
	0x99,0x23,0x00,0x00,0x2A,0x00,0x00,0x90,
	0x4B,0x00,0x0C,0x4B,0x7F,0x00,0x91,0x23,
	0x75,0x00,0x93,0x42,0x50,0x00,0x94,0x42,
	0x6E,0x00,0x47,0x6E,0x00,0x95,0x4B,0x64,
	0x00,0x99,0x28,0x64,0x00,0x2E,0x64,0x0A,
	0x94,0x47,0x00,0x00,0x42,0x00,0x62,0x99,
	0x28,0x00,0x00,0x95,0x4B,0x00,0x00,0x99,
	0x2E,0x00,0x00,0x90,0x4B,0x00,0x07,0x93,
	0x3F,0x00,0x05,0x90,0x4B,0x7F,0x00,0x93,
	0x3F,0x4B,0x00,0x94,0x42,0x58,0x00,0x47,
	0x58,0x00,0x95,0x4B,0x64,0x00,0x99,0x2A,
	0x64,0x0A,0x94,0x47,0x00,0x0A,0x42,0x00,
	0x58,0x95,0x4B,0x00,0x00,0x99,0x2A,0x00,
	0x0C,0x93,0x4B,0x5D,0x00,0x94,0x42,0x37,
	0x00,0x95,0x4B,0x64,0x00,0x99,0x2C,0x64,
	0x0A,0x94,0x42,0x00,0x19,0x91,0x23,0x00,
	0x49,0x95,0x4B,0x00,0x00,0x90,0x4B,0x00,
	0x00,0x99,0x2C,0x00,0x03,0x93,0x47,0x00,
	0x09,0x90,0x4E,0x7F,0x00,0x91,0x23,0x78,
	0x00,0x93,0x47,0x5D,0x00,0x94,0x42,0x5E,
	0x00,0x95,0x4B,0x64,0x00,0x99,0x23,0x64,
	0x00,0x2A,0x64,0x14,0x94,0x42,0x00,0x21,
	0x91,0x23,0x00,0x34,0x93,0x36,0x00,0x03,
	0x99,0x23,0x00,0x00,0x90,0x4E,0x00,0x00,
	0x99,0x2A,0x00,0x0C,0x90,0x4B,0x7F,0x00,
	0x91,0x25,0x76,0x00,0x92,0x3D,0x3C,0x00,
	0x44,0x45,0x00,0x3F,0x45,0x00,0x41,0x4B,
	0x00,0x31,0x45,0x00,0xB2,0x40,0x00,0x00,
	0x93,0x35,0x61,0x00,0x94,0x47,0x6E,0x00,
	0x4B,0x6E,0x00,0x99,0x2C,0x64,0x69,0x93,
	0x3F,0x00,0x03,0x99,0x2C,0x00,0x00,0x95,
	0x4B,0x00,0x00,0x90,0x4B,0x00,0x07,0x94,
	0x47,0x00,0x00,0x4B,0x00,0x05,0x90,0x49,
	0x7F,0x00,0x93,0x3D,0x67,0x00,0x94,0x41,
	0x58,0x00,0x95,0x4E,0x64,0x00,0x99,0x23,
	0x64,0x00,0x2A,0x64,0x0F,0x94,0x41,0x00,
	0x5D,0x99,0x2A,0x00,0x00,0x90,0x49,0x00,
	0x00,0x99,0x23,0x00,0x00,0x95,0x4E,0x00,
	0x07,0x93,0x42,0x00,0x05,0x90,0x4B,0x7F,
	0x00,0x93,0x41,0x5B,0x00,0x94,0x44,0x6B,
	0x00,0x49,0x6B,0x00,0x95,0x4B,0x64,0x00,
	0x99,0x2C,0x64,0x6C,0x2C,0x00,0x00,0x95,
	0x4B,0x00,0x00,0x90,0x4B,0x00,0x02,0x93,
	0x47,0x00,0x05,0x94,0x44,0x00,0x00,0x49,
	0x00,0x05,0x90,0x49,0x7F,0x00,0x93,0x44,
	0x55,0x00,0x94,0x44,0x56,0x00,0x49,0x56,
	0x00,0x95,0x49,0x64,0x00,0x99,0x23,0x64,
	0x00,0x2A,0x64,0x64,0x94,0x49,0x00,0x00,
	0x44,0x00,0x05,0x93,0x41,0x00,0x03,0x99,
	0x2A,0x00,0x00,0x23,0x00,0x00,0x95,0x49,
	0x00,0x0C,0x93,0x41,0x57,0x00,0x94,0x44,
	0x6E,0x00,0x49,0x6E,0x00,0x95,0x4B,0x64,
	0x00,0x99,0x28,0x64,0x00,0x2E,0x64,0x5F,
	0x91,0x25,0x00,0x0D,0x99,0x2E,0x00,0x00,
	0x28,0x00,0x00,0x95,0x4B,0x00,0x02,0x93,
	0x44,0x00,0x05,0x94,0x44,0x00,0x00,0x49,
	0x00,0x05,0x91,0x20,0x6A,0x00,0x93,0x44,
	0x57,0x00,0x94,0x41,0x58,0x00,0x95,0x49,
	0x64,0x00,0x99,0x2A,0x64,0x00,0x28,0x64,
	0x0F,0x94,0x41,0x00,0x5D,0x99,0x28,0x00,
	0x00,0x2A,0x00,0x02,0x93,0x4B,0x00,0x0A,
	0x91,0x22,0x6A,0x00,0x93,0x49,0x57,0x00,
	0x94,0x44,0x58,0x00,0x49,0x58,0x00,0x99,
	0x2C,0x64,0x00,0x23,0x64,0x0F,0x91,0x20,
	0x00,0x05,0x94,0x49,0x00,0x00,0x44,0x00,
	0x58,0x99,0x23,0x00,0x00,0x2C,0x00,0x02,
	0x93,0x44,0x00,0x02,0x91,0x22,0x00,0x08,
	0x25,0x76,0x00,0x93,0x44,0x55,0x00,0x94,
	0x44,0x6E,0x00,0x49,0x6E,0x00,0x99,0x28,
	0x64,0x00,0x2A,0x64,0x55,0x93,0x44,0x00,
	0x00,0x49,0x00,0x05,0x3D,0x00,0x00,0x41,
	0x00,0x00,0x35,0x00,0x12,0x99,0x2A,0x00,
	0x00,0x28,0x00,0x00,0x90,0x49,0x00,0x0F,
	0x94,0x44,0x00,0x00,0x49,0x00,0x09,0x91,
	0x25,0x00,0x01,0x92,0x41,0x00,0x02,0x44,
	0x00,0x04,0x31,0x00,0x04,0x3F,0x00,0x09,
	0x3D,0x00,0x81,0x44,0x95,0x49,0x00,0x00,
	0xFF,0x2F,0x00,0x00,
};


const custpack_audio_header custpack_audio = 
{
	15,
	{{Aclassical04_mid, sizeof(Aclassical04_mid), 17},
	{Aclassical09_mid, sizeof(Aclassical09_mid), 17},
	{classical02_mid, sizeof(classical02_mid), 17},
	{classical10_mid, sizeof(classical10_mid), 17},
	{classical19_mid, sizeof(classical19_mid), 17},
	{classical24_mid, sizeof(classical24_mid), 17},
	{classical33_mid, sizeof(classical33_mid), 17},
	{classical35_mid, sizeof(classical35_mid), 17},
	{classical40_mid, sizeof(classical40_mid), 17},
	{classical45_mid, sizeof(classical45_mid), 17},
	{Fest02_mid, sizeof(Fest02_mid), 17},
	{Fest05_mid, sizeof(Fest05_mid), 17},
	{Fest10_mid, sizeof(Fest10_mid), 17},
	{s1mtcall05_mid, sizeof(s1mtcall05_mid), 17},
	{s3mtcall04_mid, sizeof(s3mtcall04_mid), 17}}
};

#endif /* !__L1_STANDALONE__ */